<?xml version="1.0" encoding="utf-8"?>
<svg xmlns="http://www.w3.org/2000/svg" xmlns:xlink="http://www.w3.org/1999/xlink" width="600" height="400" viewBox="0 0 2400 1600">
<defs>
  <clipPath id="clip070">
    <rect x="0" y="0" width="2400" height="1600"/>
  </clipPath>
</defs>
<path clip-path="url(#clip070)" d="M0 1600 L2400 1600 L2400 0 L0 0  Z" fill="#ffffff" fill-rule="evenodd" fill-opacity="1"/>
<defs>
  <clipPath id="clip071">
    <rect x="480" y="0" width="1681" height="1600"/>
  </clipPath>
</defs>
<path clip-path="url(#clip070)" d="M112.177 1486.45 L2352.76 1486.45 L2352.76 47.2441 L112.177 47.2441  Z" fill="#ffffff" fill-rule="evenodd" fill-opacity="1"/>
<defs>
  <clipPath id="clip072">
    <rect x="112" y="47" width="2242" height="1440"/>
  </clipPath>
</defs>
<polyline clip-path="url(#clip072)" style="stroke:#000000; stroke-linecap:round; stroke-linejoin:round; stroke-width:2; stroke-opacity:0.1; fill:none" points="187.749,1486.45 187.749,47.2441 "/>
<polyline clip-path="url(#clip072)" style="stroke:#000000; stroke-linecap:round; stroke-linejoin:round; stroke-width:2; stroke-opacity:0.1; fill:none" points="560.862,1486.45 560.862,47.2441 "/>
<polyline clip-path="url(#clip072)" style="stroke:#000000; stroke-linecap:round; stroke-linejoin:round; stroke-width:2; stroke-opacity:0.1; fill:none" points="933.976,1486.45 933.976,47.2441 "/>
<polyline clip-path="url(#clip072)" style="stroke:#000000; stroke-linecap:round; stroke-linejoin:round; stroke-width:2; stroke-opacity:0.1; fill:none" points="1307.09,1486.45 1307.09,47.2441 "/>
<polyline clip-path="url(#clip072)" style="stroke:#000000; stroke-linecap:round; stroke-linejoin:round; stroke-width:2; stroke-opacity:0.1; fill:none" points="1680.2,1486.45 1680.2,47.2441 "/>
<polyline clip-path="url(#clip072)" style="stroke:#000000; stroke-linecap:round; stroke-linejoin:round; stroke-width:2; stroke-opacity:0.1; fill:none" points="2053.32,1486.45 2053.32,47.2441 "/>
<polyline clip-path="url(#clip070)" style="stroke:#000000; stroke-linecap:round; stroke-linejoin:round; stroke-width:4; stroke-opacity:1; fill:none" points="112.177,1486.45 2352.76,1486.45 "/>
<polyline clip-path="url(#clip070)" style="stroke:#000000; stroke-linecap:round; stroke-linejoin:round; stroke-width:4; stroke-opacity:1; fill:none" points="187.749,1486.45 187.749,1467.55 "/>
<polyline clip-path="url(#clip070)" style="stroke:#000000; stroke-linecap:round; stroke-linejoin:round; stroke-width:4; stroke-opacity:1; fill:none" points="560.862,1486.45 560.862,1467.55 "/>
<polyline clip-path="url(#clip070)" style="stroke:#000000; stroke-linecap:round; stroke-linejoin:round; stroke-width:4; stroke-opacity:1; fill:none" points="933.976,1486.45 933.976,1467.55 "/>
<polyline clip-path="url(#clip070)" style="stroke:#000000; stroke-linecap:round; stroke-linejoin:round; stroke-width:4; stroke-opacity:1; fill:none" points="1307.09,1486.45 1307.09,1467.55 "/>
<polyline clip-path="url(#clip070)" style="stroke:#000000; stroke-linecap:round; stroke-linejoin:round; stroke-width:4; stroke-opacity:1; fill:none" points="1680.2,1486.45 1680.2,1467.55 "/>
<polyline clip-path="url(#clip070)" style="stroke:#000000; stroke-linecap:round; stroke-linejoin:round; stroke-width:4; stroke-opacity:1; fill:none" points="2053.32,1486.45 2053.32,1467.55 "/>
<path clip-path="url(#clip070)" d="M187.749 1517.37 Q184.138 1517.37 182.309 1520.93 Q180.503 1524.47 180.503 1531.6 Q180.503 1538.71 182.309 1542.27 Q184.138 1545.82 187.749 1545.82 Q191.383 1545.82 193.188 1542.27 Q195.017 1538.71 195.017 1531.6 Q195.017 1524.47 193.188 1520.93 Q191.383 1517.37 187.749 1517.37 M187.749 1513.66 Q193.559 1513.66 196.614 1518.27 Q199.693 1522.85 199.693 1531.6 Q199.693 1540.33 196.614 1544.94 Q193.559 1549.52 187.749 1549.52 Q181.938 1549.52 178.86 1544.94 Q175.804 1540.33 175.804 1531.6 Q175.804 1522.85 178.86 1518.27 Q181.938 1513.66 187.749 1513.66 Z" fill="#000000" fill-rule="nonzero" fill-opacity="1" /><path clip-path="url(#clip070)" d="M551.244 1544.91 L558.883 1544.91 L558.883 1518.55 L550.573 1520.21 L550.573 1515.95 L558.837 1514.29 L563.513 1514.29 L563.513 1544.91 L571.151 1544.91 L571.151 1548.85 L551.244 1548.85 L551.244 1544.91 Z" fill="#000000" fill-rule="nonzero" fill-opacity="1" /><path clip-path="url(#clip070)" d="M928.629 1544.91 L944.948 1544.91 L944.948 1548.85 L923.004 1548.85 L923.004 1544.91 Q925.666 1542.16 930.249 1537.53 Q934.855 1532.88 936.036 1531.53 Q938.281 1529.01 939.161 1527.27 Q940.064 1525.51 940.064 1523.82 Q940.064 1521.07 938.119 1519.33 Q936.198 1517.6 933.096 1517.6 Q930.897 1517.6 928.443 1518.36 Q926.013 1519.13 923.235 1520.68 L923.235 1515.95 Q926.059 1514.82 928.513 1514.24 Q930.966 1513.66 933.003 1513.66 Q938.374 1513.66 941.568 1516.35 Q944.763 1519.03 944.763 1523.52 Q944.763 1525.65 943.953 1527.57 Q943.165 1529.47 941.059 1532.07 Q940.48 1532.74 937.378 1535.95 Q934.277 1539.15 928.629 1544.91 Z" fill="#000000" fill-rule="nonzero" fill-opacity="1" /><path clip-path="url(#clip070)" d="M1311.34 1530.21 Q1314.69 1530.93 1316.57 1533.2 Q1318.47 1535.47 1318.47 1538.8 Q1318.47 1543.92 1314.95 1546.72 Q1311.43 1549.52 1304.95 1549.52 Q1302.77 1549.52 1300.46 1549.08 Q1298.17 1548.66 1295.71 1547.81 L1295.71 1543.29 Q1297.66 1544.43 1299.97 1545.01 Q1302.29 1545.58 1304.81 1545.58 Q1309.21 1545.58 1311.5 1543.85 Q1313.81 1542.11 1313.81 1538.8 Q1313.81 1535.75 1311.66 1534.03 Q1309.53 1532.3 1305.71 1532.3 L1301.68 1532.3 L1301.68 1528.45 L1305.9 1528.45 Q1309.35 1528.45 1311.17 1527.09 Q1313 1525.7 1313 1523.11 Q1313 1520.45 1311.11 1519.03 Q1309.23 1517.6 1305.71 1517.6 Q1303.79 1517.6 1301.59 1518.01 Q1299.39 1518.43 1296.75 1519.31 L1296.75 1515.14 Q1299.42 1514.4 1301.73 1514.03 Q1304.07 1513.66 1306.13 1513.66 Q1311.45 1513.66 1314.55 1516.09 Q1317.66 1518.5 1317.66 1522.62 Q1317.66 1525.49 1316.01 1527.48 Q1314.37 1529.45 1311.34 1530.21 Z" fill="#000000" fill-rule="nonzero" fill-opacity="1" /><path clip-path="url(#clip070)" d="M1683.21 1518.36 L1671.41 1536.81 L1683.21 1536.81 L1683.21 1518.36 M1681.99 1514.29 L1687.86 1514.29 L1687.86 1536.81 L1692.8 1536.81 L1692.8 1540.7 L1687.86 1540.7 L1687.86 1548.85 L1683.21 1548.85 L1683.21 1540.7 L1667.61 1540.7 L1667.61 1536.19 L1681.99 1514.29 Z" fill="#000000" fill-rule="nonzero" fill-opacity="1" /><path clip-path="url(#clip070)" d="M2043.59 1514.29 L2061.95 1514.29 L2061.95 1518.22 L2047.88 1518.22 L2047.88 1526.7 Q2048.9 1526.35 2049.91 1526.19 Q2050.93 1526 2051.95 1526 Q2057.74 1526 2061.12 1529.17 Q2064.5 1532.34 2064.5 1537.76 Q2064.5 1543.34 2061.02 1546.44 Q2057.55 1549.52 2051.23 1549.52 Q2049.06 1549.52 2046.79 1549.15 Q2044.54 1548.78 2042.14 1548.04 L2042.14 1543.34 Q2044.22 1544.47 2046.44 1545.03 Q2048.66 1545.58 2051.14 1545.58 Q2055.15 1545.58 2057.48 1543.48 Q2059.82 1541.37 2059.82 1537.76 Q2059.82 1534.15 2057.48 1532.04 Q2055.15 1529.94 2051.14 1529.94 Q2049.27 1529.94 2047.39 1530.35 Q2045.54 1530.77 2043.59 1531.65 L2043.59 1514.29 Z" fill="#000000" fill-rule="nonzero" fill-opacity="1" /><polyline clip-path="url(#clip072)" style="stroke:#000000; stroke-linecap:round; stroke-linejoin:round; stroke-width:2; stroke-opacity:0.1; fill:none" points="112.177,1363.83 2352.76,1363.83 "/>
<polyline clip-path="url(#clip072)" style="stroke:#000000; stroke-linecap:round; stroke-linejoin:round; stroke-width:2; stroke-opacity:0.1; fill:none" points="112.177,990.714 2352.76,990.714 "/>
<polyline clip-path="url(#clip072)" style="stroke:#000000; stroke-linecap:round; stroke-linejoin:round; stroke-width:2; stroke-opacity:0.1; fill:none" points="112.177,617.601 2352.76,617.601 "/>
<polyline clip-path="url(#clip072)" style="stroke:#000000; stroke-linecap:round; stroke-linejoin:round; stroke-width:2; stroke-opacity:0.1; fill:none" points="112.177,244.487 2352.76,244.487 "/>
<polyline clip-path="url(#clip070)" style="stroke:#000000; stroke-linecap:round; stroke-linejoin:round; stroke-width:4; stroke-opacity:1; fill:none" points="112.177,1486.45 112.177,47.2441 "/>
<polyline clip-path="url(#clip070)" style="stroke:#000000; stroke-linecap:round; stroke-linejoin:round; stroke-width:4; stroke-opacity:1; fill:none" points="112.177,1363.83 131.075,1363.83 "/>
<polyline clip-path="url(#clip070)" style="stroke:#000000; stroke-linecap:round; stroke-linejoin:round; stroke-width:4; stroke-opacity:1; fill:none" points="112.177,990.714 131.075,990.714 "/>
<polyline clip-path="url(#clip070)" style="stroke:#000000; stroke-linecap:round; stroke-linejoin:round; stroke-width:4; stroke-opacity:1; fill:none" points="112.177,617.601 131.075,617.601 "/>
<polyline clip-path="url(#clip070)" style="stroke:#000000; stroke-linecap:round; stroke-linejoin:round; stroke-width:4; stroke-opacity:1; fill:none" points="112.177,244.487 131.075,244.487 "/>
<path clip-path="url(#clip070)" d="M56.2699 1377.17 L63.9087 1377.17 L63.9087 1350.81 L55.5986 1352.47 L55.5986 1348.21 L63.8624 1346.55 L68.5383 1346.55 L68.5383 1377.17 L76.1772 1377.17 L76.1772 1381.11 L56.2699 1381.11 L56.2699 1377.17 Z" fill="#000000" fill-rule="nonzero" fill-opacity="1" /><path clip-path="url(#clip070)" d="M59.8578 1004.06 L76.1772 1004.06 L76.1772 1007.99 L54.2328 1007.99 L54.2328 1004.06 Q56.8949 1001.3 61.4782 996.675 Q66.0846 992.022 67.2652 990.679 Q69.5105 988.156 70.3902 986.42 Q71.2929 984.661 71.2929 982.971 Q71.2929 980.216 69.3485 978.48 Q67.4272 976.744 64.3254 976.744 Q62.1263 976.744 59.6726 977.508 Q57.2421 978.272 54.4643 979.823 L54.4643 975.101 Q57.2884 973.967 59.7421 973.388 Q62.1958 972.809 64.2328 972.809 Q69.6031 972.809 72.7976 975.494 Q75.992 978.179 75.992 982.67 Q75.992 984.8 75.1818 986.721 Q74.3948 988.619 72.2883 991.212 Q71.7096 991.883 68.6078 995.101 Q65.5059 998.295 59.8578 1004.06 Z" fill="#000000" fill-rule="nonzero" fill-opacity="1" /><path clip-path="url(#clip070)" d="M69.0476 616.246 Q72.404 616.964 74.279 619.233 Q76.1772 621.501 76.1772 624.834 Q76.1772 629.95 72.6587 632.751 Q69.1402 635.552 62.6587 635.552 Q60.4828 635.552 58.168 635.112 Q55.8764 634.695 53.4227 633.839 L53.4227 629.325 Q55.3671 630.459 57.6819 631.038 Q59.9967 631.617 62.5198 631.617 Q66.918 631.617 69.2096 629.881 Q71.5244 628.144 71.5244 624.834 Q71.5244 621.779 69.3717 620.066 Q67.242 618.33 63.4226 618.33 L59.3949 618.33 L59.3949 614.487 L63.6078 614.487 Q67.0569 614.487 68.8855 613.121 Q70.7142 611.733 70.7142 609.14 Q70.7142 606.478 68.8161 605.066 Q66.9411 603.631 63.4226 603.631 Q61.5013 603.631 59.3023 604.047 Q57.1032 604.464 54.4643 605.344 L54.4643 601.177 Q57.1264 600.436 59.4412 600.066 Q61.7791 599.696 63.8393 599.696 Q69.1633 599.696 72.2652 602.126 Q75.367 604.534 75.367 608.654 Q75.367 611.524 73.7235 613.515 Q72.08 615.483 69.0476 616.246 Z" fill="#000000" fill-rule="nonzero" fill-opacity="1" /><path clip-path="url(#clip070)" d="M66.5939 231.281 L54.7884 249.73 L66.5939 249.73 L66.5939 231.281 M65.367 227.207 L71.2466 227.207 L71.2466 249.73 L76.1772 249.73 L76.1772 253.619 L71.2466 253.619 L71.2466 261.767 L66.5939 261.767 L66.5939 253.619 L50.9921 253.619 L50.9921 249.105 L65.367 227.207 Z" fill="#000000" fill-rule="nonzero" fill-opacity="1" /><path clip-path="url(#clip072)" d="M473.467 932.556 L474.808 960.085 L477.488 987.272 L481.503 1014.07 L486.844 1040.43 L493.503 1066.31 L501.468 1091.65 L510.724 1116.43 L521.256 1140.58 L533.044 1164.08 L546.069 1186.87 L560.307 1208.93 L575.732 1230.2 L592.318 1250.65 L610.035 1270.24 L628.852 1288.95 L648.735 1306.74 L669.65 1323.57 L691.56 1339.41 L714.426 1354.25 L738.206 1368.04 L762.861 1380.78 L788.345 1392.43 L814.614 1402.97 L841.621 1412.39 L869.32 1420.67 L897.659 1427.8 L926.591 1433.75 L956.063 1438.53 L986.023 1442.12 L1016.42 1444.52 L1047.2 1445.72 L1083.52 1445.72 L1125.53 1443.58 L1167.87 1439.31 L1210.42 1432.92 L1253.04 1424.43 L1295.59 1413.87 L1337.94 1401.27 L1379.96 1386.68 L1421.52 1370.13 L1462.48 1351.68 L1502.72 1331.39 L1542.1 1309.32 L1580.51 1285.54 L1617.83 1260.13 L1653.93 1233.16 L1688.7 1204.73 L1722.03 1174.91 L1753.82 1143.81 L1783.97 1111.52 L1812.39 1078.15 L1838.97 1043.79 L1863.65 1008.57 L1886.33 972.577 L1906.96 935.94 L1925.46 898.771 L1941.78 861.186 L1955.86 823.304 L1967.67 785.243 L1977.16 747.125 L1984.3 709.069 L1989.07 671.195 L1991.47 633.623 L1991.47 601.136 L1990.12 573.607 L1987.44 546.42 L1983.43 519.623 L1978.09 493.262 L1971.43 467.385 L1963.47 442.037 L1954.21 417.264 L1943.68 393.107 L1931.89 369.612 L1918.86 346.818 L1904.63 324.766 L1889.2 303.496 L1872.62 283.044 L1854.9 263.448 L1836.08 244.741 L1816.2 226.956 L1795.28 210.126 L1773.37 194.279 L1750.51 179.445 L1726.73 165.648 L1702.07 152.913 L1676.59 141.264 L1650.32 130.72 L1623.31 121.3 L1595.61 113.021 L1567.27 105.897 L1538.34 99.9409 L1508.87 95.1635 L1478.91 91.5731 L1448.51 89.1759 L1417.74 87.9763 L1381.41 87.9763 L1339.41 90.1149 L1297.06 94.3854 L1254.52 100.774 L1211.9 109.262 L1169.35 119.82 L1126.99 132.418 L1084.97 147.013 L1043.41 163.562 L1002.45 182.011 L962.215 202.302 L922.83 224.372 L884.42 248.15 L847.107 273.563 L811.008 300.53 L776.236 328.966 L742.902 358.781 L711.109 389.882 L680.96 422.17 L652.547 455.544 L625.962 489.899 L601.287 525.126 L578.601 561.115 L557.974 597.751 L539.473 634.921 L523.154 672.506 L509.07 710.388 L497.265 748.449 L487.776 786.567 L480.633 824.623 L475.858 862.497 L473.467 900.069 L473.467 932.556 L473.467 932.556  Z" fill="#008000" fill-rule="evenodd" fill-opacity="1"/>
<polyline clip-path="url(#clip072)" style="stroke:#000000; stroke-linecap:round; stroke-linejoin:round; stroke-width:4; stroke-opacity:1; fill:none" points="473.467,932.556 474.808,960.085 477.488,987.272 481.503,1014.07 486.844,1040.43 493.503,1066.31 501.468,1091.65 510.724,1116.43 521.256,1140.58 533.044,1164.08 546.069,1186.87 560.307,1208.93 575.732,1230.2 592.318,1250.65 610.035,1270.24 628.852,1288.95 648.735,1306.74 669.65,1323.57 691.56,1339.41 714.426,1354.25 738.206,1368.04 762.861,1380.78 788.345,1392.43 814.614,1402.97 841.621,1412.39 869.32,1420.67 897.659,1427.8 926.591,1433.75 956.063,1438.53 986.023,1442.12 1016.42,1444.52 1047.2,1445.72 1083.52,1445.72 1125.53,1443.58 1167.87,1439.31 1210.42,1432.92 1253.04,1424.43 1295.59,1413.87 1337.94,1401.27 1379.96,1386.68 1421.52,1370.13 1462.48,1351.68 1502.72,1331.39 1542.1,1309.32 1580.51,1285.54 1617.83,1260.13 1653.93,1233.16 1688.7,1204.73 1722.03,1174.91 1753.82,1143.81 1783.97,1111.52 1812.39,1078.15 1838.97,1043.79 1863.65,1008.57 1886.33,972.577 1906.96,935.94 1925.46,898.771 1941.78,861.186 1955.86,823.304 1967.67,785.243 1977.16,747.125 1984.3,709.069 1989.07,671.195 1991.47,633.623 1991.47,601.136 1990.12,573.607 1987.44,546.42 1983.43,519.623 1978.09,493.262 1971.43,467.385 1963.47,442.037 1954.21,417.264 1943.68,393.107 1931.89,369.612 1918.86,346.818 1904.63,324.766 1889.2,303.496 1872.62,283.044 1854.9,263.448 1836.08,244.741 1816.2,226.956 1795.28,210.126 1773.37,194.279 1750.51,179.445 1726.73,165.648 1702.07,152.913 1676.59,141.264 1650.32,130.72 1623.31,121.3 1595.61,113.021 1567.27,105.897 1538.34,99.9409 1508.87,95.1635 1478.91,91.5731 1448.51,89.1759 1417.74,87.9763 1381.41,87.9763 1339.41,90.1149 1297.06,94.3854 1254.52,100.774 1211.9,109.262 1169.35,119.82 1126.99,132.418 1084.97,147.013 1043.41,163.562 1002.45,182.011 962.215,202.302 922.83,224.372 884.42,248.15 847.107,273.563 811.008,300.53 776.236,328.966 742.902,358.781 711.109,389.882 680.96,422.17 652.547,455.544 625.962,489.899 601.287,525.126 578.601,561.115 557.974,597.751 539.473,634.921 523.154,672.506 509.07,710.388 497.265,748.449 487.776,786.567 480.633,824.623 475.858,862.497 473.467,900.069 473.467,932.556 "/>
<path clip-path="url(#clip072)" d="M627.196 898.993 L628.266 920.946 L630.403 942.626 L633.604 963.996 L637.864 985.017 L643.174 1005.65 L649.526 1025.87 L656.907 1045.62 L665.306 1064.89 L674.707 1083.62 L685.093 1101.8 L696.447 1119.39 L708.748 1136.35 L721.975 1152.66 L736.103 1168.28 L751.109 1183.2 L766.965 1197.39 L783.644 1210.81 L801.116 1223.44 L819.351 1235.27 L838.315 1246.28 L857.976 1256.43 L878.298 1265.72 L899.247 1274.13 L920.784 1281.64 L942.872 1288.24 L965.472 1293.93 L988.543 1298.67 L1012.05 1302.48 L1035.94 1305.35 L1060.18 1307.26 L1084.72 1308.22 L1113.69 1308.22 L1147.19 1306.51 L1180.95 1303.1 L1214.88 1298.01 L1248.87 1291.24 L1282.8 1282.82 L1316.58 1272.78 L1350.09 1261.14 L1383.23 1247.94 L1415.89 1233.23 L1447.98 1217.05 L1479.39 1199.45 L1510.02 1180.48 L1539.77 1160.22 L1568.56 1138.71 L1596.29 1116.04 L1622.87 1092.26 L1648.23 1067.46 L1672.27 1041.71 L1694.93 1015.1 L1716.13 987.7 L1735.81 959.608 L1753.9 930.908 L1770.35 901.692 L1785.1 872.051 L1798.11 842.078 L1809.34 811.868 L1818.76 781.517 L1826.33 751.12 L1832.02 720.771 L1835.83 690.569 L1837.74 660.606 L1837.74 634.699 L1836.67 612.746 L1834.53 591.066 L1831.33 569.696 L1827.07 548.675 L1821.76 528.039 L1815.41 507.825 L1808.03 488.069 L1799.63 468.805 L1790.23 450.068 L1779.84 431.891 L1768.49 414.306 L1756.18 397.344 L1742.96 381.035 L1728.83 365.407 L1713.82 350.489 L1697.97 336.307 L1681.29 322.885 L1663.82 310.248 L1645.58 298.418 L1626.62 287.416 L1606.96 277.261 L1586.63 267.971 L1565.69 259.562 L1544.15 252.05 L1522.06 245.448 L1499.46 239.767 L1476.39 235.017 L1452.89 231.207 L1428.99 228.344 L1404.76 226.433 L1380.21 225.476 L1351.25 225.476 L1317.75 227.181 L1283.98 230.587 L1250.05 235.682 L1216.06 242.45 L1182.13 250.87 L1148.35 260.916 L1114.84 272.556 L1081.7 285.752 L1049.04 300.464 L1016.95 316.646 L985.545 334.246 L954.914 353.208 L925.158 373.474 L896.371 394.979 L868.642 417.655 L842.059 441.431 L816.706 466.233 L792.663 491.981 L770.005 518.596 L748.805 545.992 L729.128 574.084 L711.036 602.784 L694.587 632 L679.833 661.641 L666.82 691.614 L655.588 721.823 L646.174 752.175 L638.607 782.572 L632.911 812.921 L629.103 843.123 L627.196 873.086 L627.196 898.993 L627.196 898.993  Z" fill="#ff0000" fill-rule="evenodd" fill-opacity="1"/>
<polyline clip-path="url(#clip072)" style="stroke:#000000; stroke-linecap:round; stroke-linejoin:round; stroke-width:4; stroke-opacity:1; fill:none" points="627.196,898.993 628.266,920.946 630.403,942.626 633.604,963.996 637.864,985.017 643.174,1005.65 649.526,1025.87 656.907,1045.62 665.306,1064.89 674.707,1083.62 685.093,1101.8 696.447,1119.39 708.748,1136.35 721.975,1152.66 736.103,1168.28 751.109,1183.2 766.965,1197.39 783.644,1210.81 801.116,1223.44 819.351,1235.27 838.315,1246.28 857.976,1256.43 878.298,1265.72 899.247,1274.13 920.784,1281.64 942.872,1288.24 965.472,1293.93 988.543,1298.67 1012.05,1302.48 1035.94,1305.35 1060.18,1307.26 1084.72,1308.22 1113.69,1308.22 1147.19,1306.51 1180.95,1303.1 1214.88,1298.01 1248.87,1291.24 1282.8,1282.82 1316.58,1272.78 1350.09,1261.14 1383.23,1247.94 1415.89,1233.23 1447.98,1217.05 1479.39,1199.45 1510.02,1180.48 1539.77,1160.22 1568.56,1138.71 1596.29,1116.04 1622.87,1092.26 1648.23,1067.46 1672.27,1041.71 1694.93,1015.1 1716.13,987.7 1735.81,959.608 1753.9,930.908 1770.35,901.692 1785.1,872.051 1798.11,842.078 1809.34,811.868 1818.76,781.517 1826.33,751.12 1832.02,720.771 1835.83,690.569 1837.74,660.606 1837.74,634.699 1836.67,612.746 1834.53,591.066 1831.33,569.696 1827.07,548.675 1821.76,528.039 1815.41,507.825 1808.03,488.069 1799.63,468.805 1790.23,450.068 1779.84,431.891 1768.49,414.306 1756.18,397.344 1742.96,381.035 1728.83,365.407 1713.82,350.489 1697.97,336.307 1681.29,322.885 1663.82,310.248 1645.58,298.418 1626.62,287.416 1606.96,277.261 1586.63,267.971 1565.69,259.562 1544.15,252.05 1522.06,245.448 1499.46,239.767 1476.39,235.017 1452.89,231.207 1428.99,228.344 1404.76,226.433 1380.21,225.476 1351.25,225.476 1317.75,227.181 1283.98,230.587 1250.05,235.682 1216.06,242.45 1182.13,250.87 1148.35,260.916 1114.84,272.556 1081.7,285.752 1049.04,300.464 1016.95,316.646 985.545,334.246 954.914,353.208 925.158,373.474 896.371,394.979 868.642,417.655 842.059,441.431 816.706,466.233 792.663,491.981 770.005,518.596 748.805,545.992 729.128,574.084 711.036,602.784 694.587,632 679.833,661.641 666.82,691.614 655.588,721.823 646.174,752.175 638.607,782.572 632.911,812.921 629.103,843.123 627.196,873.086 627.196,898.993 "/>
<path clip-path="url(#clip072)" d="M559.883 1169.61 L561.931 1185.64 L566.006 1201.57 L572.063 1217.24 L580.035 1232.48 L589.836 1247.1 L601.358 1260.97 L614.475 1273.92 L629.045 1285.82 L644.908 1296.53 L661.891 1305.94 L679.808 1313.94 L698.463 1320.45 L717.654 1325.39 L737.169 1328.72 L756.797 1330.39 L775.127 1330.39 L792.029 1329.1 L808.555 1326.54 L824.567 1322.71 L839.929 1317.66 L854.512 1311.43 L868.194 1304.08 L880.859 1295.65 L892.401 1286.22 L902.722 1275.88 L911.735 1264.71 L919.366 1252.8 L925.549 1240.26 L930.232 1227.19 L933.376 1213.69 L934.955 1199.89 L934.955 1184.93 L932.906 1168.9 L928.832 1152.97 L922.775 1137.3 L914.803 1122.07 L905.002 1107.44 L893.48 1093.57 L880.363 1080.62 L865.793 1068.72 L849.93 1058.01 L832.947 1048.6 L815.03 1040.6 L796.375 1034.09 L777.184 1029.15 L757.669 1025.82 L738.041 1024.15 L719.711 1024.15 L702.809 1025.44 L686.283 1028 L670.271 1031.83 L654.909 1036.88 L640.326 1043.11 L626.644 1050.47 L613.979 1058.89 L602.437 1068.32 L592.116 1078.66 L583.102 1089.83 L575.472 1101.74 L569.289 1114.28 L564.606 1127.35 L561.462 1140.85 L559.883 1154.65 L559.883 1169.61 L559.883 1169.61  Z" fill="#0000ff" fill-rule="evenodd" fill-opacity="1"/>
<polyline clip-path="url(#clip072)" style="stroke:#000000; stroke-linecap:round; stroke-linejoin:round; stroke-width:4; stroke-opacity:1; fill:none" points="559.883,1169.61 561.931,1185.64 566.006,1201.57 572.063,1217.24 580.035,1232.48 589.836,1247.1 601.358,1260.97 614.475,1273.92 629.045,1285.82 644.908,1296.53 661.891,1305.94 679.808,1313.94 698.463,1320.45 717.654,1325.39 737.169,1328.72 756.797,1330.39 775.127,1330.39 792.029,1329.1 808.555,1326.54 824.567,1322.71 839.929,1317.66 854.512,1311.43 868.194,1304.08 880.859,1295.65 892.401,1286.22 902.722,1275.88 911.735,1264.71 919.366,1252.8 925.549,1240.26 930.232,1227.19 933.376,1213.69 934.955,1199.89 934.955,1184.93 932.906,1168.9 928.832,1152.97 922.775,1137.3 914.803,1122.07 905.002,1107.44 893.48,1093.57 880.363,1080.62 865.793,1068.72 849.93,1058.01 832.947,1048.6 815.03,1040.6 796.375,1034.09 777.184,1029.15 757.669,1025.82 738.041,1024.15 719.711,1024.15 702.809,1025.44 686.283,1028 670.271,1031.83 654.909,1036.88 640.326,1043.11 626.644,1050.47 613.979,1058.89 602.437,1068.32 592.116,1078.66 583.102,1089.83 575.472,1101.74 569.289,1114.28 564.606,1127.35 561.462,1140.85 559.883,1154.65 559.883,1169.61 "/>
</svg>
