<?xml version="1.0" encoding="utf-8"?>
<svg xmlns="http://www.w3.org/2000/svg" xmlns:xlink="http://www.w3.org/1999/xlink" width="600" height="400" viewBox="0 0 2400 1600">
<defs>
  <clipPath id="clip590">
    <rect x="0" y="0" width="2400" height="1600"/>
  </clipPath>
</defs>
<path clip-path="url(#clip590)" d="M0 1600 L2400 1600 L2400 0 L0 0  Z" fill="#ffffff" fill-rule="evenodd" fill-opacity="1"/>
<defs>
  <clipPath id="clip591">
    <rect x="480" y="0" width="1681" height="1600"/>
  </clipPath>
</defs>
<path clip-path="url(#clip590)" d="M140.696 1486.45 L2352.76 1486.45 L2352.76 47.2441 L140.696 47.2441  Z" fill="#ffffff" fill-rule="evenodd" fill-opacity="1"/>
<defs>
  <clipPath id="clip592">
    <rect x="140" y="47" width="2213" height="1440"/>
  </clipPath>
</defs>
<polyline clip-path="url(#clip592)" style="stroke:#000000; stroke-linecap:round; stroke-linejoin:round; stroke-width:2; stroke-opacity:0.1; fill:none" points="567.856,1486.45 567.856,47.2441 "/>
<polyline clip-path="url(#clip592)" style="stroke:#000000; stroke-linecap:round; stroke-linejoin:round; stroke-width:2; stroke-opacity:0.1; fill:none" points="1020.44,1486.45 1020.44,47.2441 "/>
<polyline clip-path="url(#clip592)" style="stroke:#000000; stroke-linecap:round; stroke-linejoin:round; stroke-width:2; stroke-opacity:0.1; fill:none" points="1473.02,1486.45 1473.02,47.2441 "/>
<polyline clip-path="url(#clip592)" style="stroke:#000000; stroke-linecap:round; stroke-linejoin:round; stroke-width:2; stroke-opacity:0.1; fill:none" points="1925.6,1486.45 1925.6,47.2441 "/>
<polyline clip-path="url(#clip592)" style="stroke:#000000; stroke-linecap:round; stroke-linejoin:round; stroke-width:2; stroke-opacity:0.1; fill:none" points="140.696,1445.72 2352.76,1445.72 "/>
<polyline clip-path="url(#clip592)" style="stroke:#000000; stroke-linecap:round; stroke-linejoin:round; stroke-width:2; stroke-opacity:0.1; fill:none" points="140.696,993.136 2352.76,993.136 "/>
<polyline clip-path="url(#clip592)" style="stroke:#000000; stroke-linecap:round; stroke-linejoin:round; stroke-width:2; stroke-opacity:0.1; fill:none" points="140.696,540.556 2352.76,540.556 "/>
<polyline clip-path="url(#clip592)" style="stroke:#000000; stroke-linecap:round; stroke-linejoin:round; stroke-width:2; stroke-opacity:0.1; fill:none" points="140.696,87.9763 2352.76,87.9763 "/>
<polyline clip-path="url(#clip590)" style="stroke:#000000; stroke-linecap:round; stroke-linejoin:round; stroke-width:4; stroke-opacity:1; fill:none" points="140.696,1486.45 2352.76,1486.45 "/>
<polyline clip-path="url(#clip590)" style="stroke:#000000; stroke-linecap:round; stroke-linejoin:round; stroke-width:4; stroke-opacity:1; fill:none" points="567.856,1486.45 567.856,1467.55 "/>
<polyline clip-path="url(#clip590)" style="stroke:#000000; stroke-linecap:round; stroke-linejoin:round; stroke-width:4; stroke-opacity:1; fill:none" points="1020.44,1486.45 1020.44,1467.55 "/>
<polyline clip-path="url(#clip590)" style="stroke:#000000; stroke-linecap:round; stroke-linejoin:round; stroke-width:4; stroke-opacity:1; fill:none" points="1473.02,1486.45 1473.02,1467.55 "/>
<polyline clip-path="url(#clip590)" style="stroke:#000000; stroke-linecap:round; stroke-linejoin:round; stroke-width:4; stroke-opacity:1; fill:none" points="1925.6,1486.45 1925.6,1467.55 "/>
<path clip-path="url(#clip590)" d="M567.856 1517.37 Q564.245 1517.37 562.416 1520.93 Q560.611 1524.47 560.611 1531.6 Q560.611 1538.71 562.416 1542.27 Q564.245 1545.82 567.856 1545.82 Q571.49 1545.82 573.296 1542.27 Q575.124 1538.71 575.124 1531.6 Q575.124 1524.47 573.296 1520.93 Q571.49 1517.37 567.856 1517.37 M567.856 1513.66 Q573.666 1513.66 576.722 1518.27 Q579.8 1522.85 579.8 1531.6 Q579.8 1540.33 576.722 1544.94 Q573.666 1549.52 567.856 1549.52 Q562.046 1549.52 558.967 1544.94 Q555.912 1540.33 555.912 1531.6 Q555.912 1522.85 558.967 1518.27 Q562.046 1513.66 567.856 1513.66 Z" fill="#000000" fill-rule="nonzero" fill-opacity="1" /><path clip-path="url(#clip590)" d="M995.123 1544.91 L1002.76 1544.91 L1002.76 1518.55 L994.452 1520.21 L994.452 1515.95 L1002.72 1514.29 L1007.39 1514.29 L1007.39 1544.91 L1015.03 1544.91 L1015.03 1548.85 L995.123 1548.85 L995.123 1544.91 Z" fill="#000000" fill-rule="nonzero" fill-opacity="1" /><path clip-path="url(#clip590)" d="M1034.48 1517.37 Q1030.86 1517.37 1029.04 1520.93 Q1027.23 1524.47 1027.23 1531.6 Q1027.23 1538.71 1029.04 1542.27 Q1030.86 1545.82 1034.48 1545.82 Q1038.11 1545.82 1039.91 1542.27 Q1041.74 1538.71 1041.74 1531.6 Q1041.74 1524.47 1039.91 1520.93 Q1038.11 1517.37 1034.48 1517.37 M1034.48 1513.66 Q1040.29 1513.66 1043.34 1518.27 Q1046.42 1522.85 1046.42 1531.6 Q1046.42 1540.33 1043.34 1544.94 Q1040.29 1549.52 1034.48 1549.52 Q1028.66 1549.52 1025.59 1544.94 Q1022.53 1540.33 1022.53 1531.6 Q1022.53 1522.85 1025.59 1518.27 Q1028.66 1513.66 1034.48 1513.66 Z" fill="#000000" fill-rule="nonzero" fill-opacity="1" /><path clip-path="url(#clip590)" d="M1451.79 1544.91 L1468.11 1544.91 L1468.11 1548.85 L1446.16 1548.85 L1446.16 1544.91 Q1448.83 1542.16 1453.41 1537.53 Q1458.02 1532.88 1459.2 1531.53 Q1461.44 1529.01 1462.32 1527.27 Q1463.22 1525.51 1463.22 1523.82 Q1463.22 1521.07 1461.28 1519.33 Q1459.36 1517.6 1456.26 1517.6 Q1454.06 1517.6 1451.6 1518.36 Q1449.17 1519.13 1446.4 1520.68 L1446.4 1515.95 Q1449.22 1514.82 1451.67 1514.24 Q1454.13 1513.66 1456.16 1513.66 Q1461.53 1513.66 1464.73 1516.35 Q1467.92 1519.03 1467.92 1523.52 Q1467.92 1525.65 1467.11 1527.57 Q1466.33 1529.47 1464.22 1532.07 Q1463.64 1532.74 1460.54 1535.95 Q1457.44 1539.15 1451.79 1544.91 Z" fill="#000000" fill-rule="nonzero" fill-opacity="1" /><path clip-path="url(#clip590)" d="M1487.92 1517.37 Q1484.31 1517.37 1482.48 1520.93 Q1480.68 1524.47 1480.68 1531.6 Q1480.68 1538.71 1482.48 1542.27 Q1484.31 1545.82 1487.92 1545.82 Q1491.56 1545.82 1493.36 1542.27 Q1495.19 1538.71 1495.19 1531.6 Q1495.19 1524.47 1493.36 1520.93 Q1491.56 1517.37 1487.92 1517.37 M1487.92 1513.66 Q1493.73 1513.66 1496.79 1518.27 Q1499.87 1522.85 1499.87 1531.6 Q1499.87 1540.33 1496.79 1544.94 Q1493.73 1549.52 1487.92 1549.52 Q1482.11 1549.52 1479.03 1544.94 Q1475.98 1540.33 1475.98 1531.6 Q1475.98 1522.85 1479.03 1518.27 Q1482.11 1513.66 1487.92 1513.66 Z" fill="#000000" fill-rule="nonzero" fill-opacity="1" /><path clip-path="url(#clip590)" d="M1914.44 1530.21 Q1917.79 1530.93 1919.67 1533.2 Q1921.57 1535.47 1921.57 1538.8 Q1921.57 1543.92 1918.05 1546.72 Q1914.53 1549.52 1908.05 1549.52 Q1905.87 1549.52 1903.56 1549.08 Q1901.27 1548.66 1898.81 1547.81 L1898.81 1543.29 Q1900.76 1544.43 1903.07 1545.01 Q1905.39 1545.58 1907.91 1545.58 Q1912.31 1545.58 1914.6 1543.85 Q1916.91 1542.11 1916.91 1538.8 Q1916.91 1535.75 1914.76 1534.03 Q1912.63 1532.3 1908.81 1532.3 L1904.79 1532.3 L1904.79 1528.45 L1909 1528.45 Q1912.45 1528.45 1914.28 1527.09 Q1916.1 1525.7 1916.1 1523.11 Q1916.1 1520.45 1914.21 1519.03 Q1912.33 1517.6 1908.81 1517.6 Q1906.89 1517.6 1904.69 1518.01 Q1902.49 1518.43 1899.85 1519.31 L1899.85 1515.14 Q1902.52 1514.4 1904.83 1514.03 Q1907.17 1513.66 1909.23 1513.66 Q1914.55 1513.66 1917.66 1516.09 Q1920.76 1518.5 1920.76 1522.62 Q1920.76 1525.49 1919.11 1527.48 Q1917.47 1529.45 1914.44 1530.21 Z" fill="#000000" fill-rule="nonzero" fill-opacity="1" /><path clip-path="url(#clip590)" d="M1940.43 1517.37 Q1936.82 1517.37 1934.99 1520.93 Q1933.19 1524.47 1933.19 1531.6 Q1933.19 1538.71 1934.99 1542.27 Q1936.82 1545.82 1940.43 1545.82 Q1944.07 1545.82 1945.87 1542.27 Q1947.7 1538.71 1947.7 1531.6 Q1947.7 1524.47 1945.87 1520.93 Q1944.07 1517.37 1940.43 1517.37 M1940.43 1513.66 Q1946.24 1513.66 1949.3 1518.27 Q1952.38 1522.85 1952.38 1531.6 Q1952.38 1540.33 1949.3 1544.94 Q1946.24 1549.52 1940.43 1549.52 Q1934.62 1549.52 1931.54 1544.94 Q1928.49 1540.33 1928.49 1531.6 Q1928.49 1522.85 1931.54 1518.27 Q1934.62 1513.66 1940.43 1513.66 Z" fill="#000000" fill-rule="nonzero" fill-opacity="1" /><polyline clip-path="url(#clip590)" style="stroke:#000000; stroke-linecap:round; stroke-linejoin:round; stroke-width:4; stroke-opacity:1; fill:none" points="140.696,1486.45 140.696,47.2441 "/>
<polyline clip-path="url(#clip590)" style="stroke:#000000; stroke-linecap:round; stroke-linejoin:round; stroke-width:4; stroke-opacity:1; fill:none" points="140.696,1445.72 159.593,1445.72 "/>
<polyline clip-path="url(#clip590)" style="stroke:#000000; stroke-linecap:round; stroke-linejoin:round; stroke-width:4; stroke-opacity:1; fill:none" points="140.696,993.136 159.593,993.136 "/>
<polyline clip-path="url(#clip590)" style="stroke:#000000; stroke-linecap:round; stroke-linejoin:round; stroke-width:4; stroke-opacity:1; fill:none" points="140.696,540.556 159.593,540.556 "/>
<polyline clip-path="url(#clip590)" style="stroke:#000000; stroke-linecap:round; stroke-linejoin:round; stroke-width:4; stroke-opacity:1; fill:none" points="140.696,87.9763 159.593,87.9763 "/>
<path clip-path="url(#clip590)" d="M92.7512 1431.51 Q89.1401 1431.51 87.3114 1435.08 Q85.5058 1438.62 85.5058 1445.75 Q85.5058 1452.86 87.3114 1456.42 Q89.1401 1459.96 92.7512 1459.96 Q96.3854 1459.96 98.1909 1456.42 Q100.02 1452.86 100.02 1445.75 Q100.02 1438.62 98.1909 1435.08 Q96.3854 1431.51 92.7512 1431.51 M92.7512 1427.81 Q98.5613 1427.81 101.617 1432.42 Q104.696 1437 104.696 1445.75 Q104.696 1454.48 101.617 1459.08 Q98.5613 1463.67 92.7512 1463.67 Q86.941 1463.67 83.8623 1459.08 Q80.8068 1454.48 80.8068 1445.75 Q80.8068 1437 83.8623 1432.42 Q86.941 1427.81 92.7512 1427.81 Z" fill="#000000" fill-rule="nonzero" fill-opacity="1" /><path clip-path="url(#clip590)" d="M53.3995 1006.48 L61.0384 1006.48 L61.0384 980.115 L52.7282 981.782 L52.7282 977.523 L60.9921 975.856 L65.668 975.856 L65.668 1006.48 L73.3068 1006.48 L73.3068 1010.42 L53.3995 1010.42 L53.3995 1006.48 Z" fill="#000000" fill-rule="nonzero" fill-opacity="1" /><path clip-path="url(#clip590)" d="M92.7512 978.935 Q89.1401 978.935 87.3114 982.499 Q85.5058 986.041 85.5058 993.171 Q85.5058 1000.28 87.3114 1003.84 Q89.1401 1007.38 92.7512 1007.38 Q96.3854 1007.38 98.1909 1003.84 Q100.02 1000.28 100.02 993.171 Q100.02 986.041 98.1909 982.499 Q96.3854 978.935 92.7512 978.935 M92.7512 975.231 Q98.5613 975.231 101.617 979.837 Q104.696 984.421 104.696 993.171 Q104.696 1001.9 101.617 1006.5 Q98.5613 1011.09 92.7512 1011.09 Q86.941 1011.09 83.8623 1006.5 Q80.8068 1001.9 80.8068 993.171 Q80.8068 984.421 83.8623 979.837 Q86.941 975.231 92.7512 975.231 Z" fill="#000000" fill-rule="nonzero" fill-opacity="1" /><path clip-path="url(#clip590)" d="M56.6171 553.901 L72.9365 553.901 L72.9365 557.836 L50.9921 557.836 L50.9921 553.901 Q53.6541 551.146 58.2375 546.517 Q62.8439 541.864 64.0245 540.521 Q66.2698 537.998 67.1494 536.262 Q68.0522 534.503 68.0522 532.813 Q68.0522 530.058 66.1078 528.322 Q64.1865 526.586 61.0847 526.586 Q58.8856 526.586 56.4319 527.35 Q54.0014 528.114 51.2236 529.665 L51.2236 524.943 Q54.0477 523.808 56.5014 523.23 Q58.955 522.651 60.9921 522.651 Q66.3624 522.651 69.5568 525.336 Q72.7513 528.021 72.7513 532.512 Q72.7513 534.642 71.9411 536.563 Q71.1541 538.461 69.0476 541.054 Q68.4689 541.725 65.367 544.943 Q62.2652 548.137 56.6171 553.901 Z" fill="#000000" fill-rule="nonzero" fill-opacity="1" /><path clip-path="url(#clip590)" d="M92.7512 526.355 Q89.1401 526.355 87.3114 529.92 Q85.5058 533.461 85.5058 540.591 Q85.5058 547.697 87.3114 551.262 Q89.1401 554.804 92.7512 554.804 Q96.3854 554.804 98.1909 551.262 Q100.02 547.697 100.02 540.591 Q100.02 533.461 98.1909 529.92 Q96.3854 526.355 92.7512 526.355 M92.7512 522.651 Q98.5613 522.651 101.617 527.258 Q104.696 531.841 104.696 540.591 Q104.696 549.318 101.617 553.924 Q98.5613 558.507 92.7512 558.507 Q86.941 558.507 83.8623 553.924 Q80.8068 549.318 80.8068 540.591 Q80.8068 531.841 83.8623 527.258 Q86.941 522.651 92.7512 522.651 Z" fill="#000000" fill-rule="nonzero" fill-opacity="1" /><path clip-path="url(#clip590)" d="M66.7559 86.6221 Q70.1124 87.3397 71.9874 89.6082 Q73.8855 91.8767 73.8855 95.21 Q73.8855 100.326 70.367 103.127 Q66.8485 105.928 60.3671 105.928 Q58.1912 105.928 55.8764 105.488 Q53.5847 105.071 51.131 104.215 L51.131 99.7008 Q53.0754 100.835 55.3903 101.414 Q57.7051 101.992 60.2282 101.992 Q64.6263 101.992 66.918 100.256 Q69.2328 98.5202 69.2328 95.21 Q69.2328 92.1545 67.08 90.4415 Q64.9504 88.7054 61.131 88.7054 L57.1032 88.7054 L57.1032 84.8629 L61.3161 84.8629 Q64.7652 84.8629 66.5939 83.4971 Q68.4226 82.1083 68.4226 79.5157 Q68.4226 76.8537 66.5245 75.4416 Q64.6495 74.0064 61.131 74.0064 Q59.2097 74.0064 57.0106 74.4231 Q54.8115 74.8398 52.1727 75.7194 L52.1727 71.5528 Q54.8347 70.812 57.1495 70.4416 Q59.4875 70.0713 61.5476 70.0713 Q66.8717 70.0713 69.9735 72.5018 Q73.0753 74.9092 73.0753 79.0296 Q73.0753 81.8999 71.4318 83.8907 Q69.7883 85.8582 66.7559 86.6221 Z" fill="#000000" fill-rule="nonzero" fill-opacity="1" /><path clip-path="url(#clip590)" d="M92.7512 73.775 Q89.1401 73.775 87.3114 77.3398 Q85.5058 80.8814 85.5058 88.011 Q85.5058 95.1174 87.3114 98.6822 Q89.1401 102.224 92.7512 102.224 Q96.3854 102.224 98.1909 98.6822 Q100.02 95.1174 100.02 88.011 Q100.02 80.8814 98.1909 77.3398 Q96.3854 73.775 92.7512 73.775 M92.7512 70.0713 Q98.5613 70.0713 101.617 74.6777 Q104.696 79.261 104.696 88.011 Q104.696 96.7378 101.617 101.344 Q98.5613 105.928 92.7512 105.928 Q86.941 105.928 83.8623 101.344 Q80.8068 96.7378 80.8068 88.011 Q80.8068 79.261 83.8623 74.6777 Q86.941 70.0713 92.7512 70.0713 Z" fill="#000000" fill-rule="nonzero" fill-opacity="1" /><path clip-path="url(#clip592)" d="M567.856 1445.72 L1925.6 1445.72 L1925.6 87.9763 L567.856 87.9763 L567.856 1445.72 L567.856 1445.72  Z" fill="#808080" fill-rule="evenodd" fill-opacity="0.5"/>
<polyline clip-path="url(#clip592)" style="stroke:#000000; stroke-linecap:round; stroke-linejoin:round; stroke-width:4; stroke-opacity:0.5; fill:none" points="567.856,1445.72 1925.6,1445.72 1925.6,87.9763 567.856,87.9763 567.856,1445.72 "/>
<path clip-path="url(#clip592)" d="M1246.73 766.846 L1473.02 766.846 L1473.02 540.556 L1246.73 540.556 L1246.73 766.846 L1246.73 766.846  Z" fill="#808080" fill-rule="evenodd" fill-opacity="0.5"/>
<polyline clip-path="url(#clip592)" style="stroke:#000000; stroke-linecap:round; stroke-linejoin:round; stroke-width:4; stroke-opacity:0.5; fill:none" points="1246.73,766.846 1473.02,766.846 1473.02,540.556 1246.73,540.556 1246.73,766.846 "/>
<path clip-path="url(#clip592)" d="M794.146 1219.43 L839.404 1219.43 L839.404 1174.17 L794.146 1174.17 L794.146 1219.43 L794.146 1219.43  Z" fill="#008000" fill-rule="evenodd" fill-opacity="0.8"/>
<polyline clip-path="url(#clip592)" style="stroke:#000000; stroke-linecap:round; stroke-linejoin:round; stroke-width:4; stroke-opacity:0.8; fill:none" points="794.146,1219.43 839.404,1219.43 839.404,1174.17 794.146,1174.17 794.146,1219.43 "/>
<path clip-path="url(#clip592)" d="M1699.31 314.266 L1835.08 314.266 L1835.08 178.492 L1699.31 178.492 L1699.31 314.266 L1699.31 314.266  Z" fill="#ff0000" fill-rule="evenodd" fill-opacity="0.8"/>
<polyline clip-path="url(#clip592)" style="stroke:#000000; stroke-linecap:round; stroke-linejoin:round; stroke-width:4; stroke-opacity:0.8; fill:none" points="1699.31,314.266 1835.08,314.266 1835.08,178.492 1699.31,178.492 1699.31,314.266 "/>
<circle clip-path="url(#clip592)" cx="852.981" cy="1160.59" r="1.8" fill="#000000" fill-rule="evenodd" fill-opacity="1" stroke="none"/>
<polyline clip-path="url(#clip592)" style="stroke:#000000; stroke-linecap:round; stroke-linejoin:round; stroke-width:4; stroke-opacity:1; fill:none" points="816.775,1196.8 852.981,1160.59 "/>
<path clip-path="url(#clip592)" d="M827.525 1186.05 L814.798 1173.32 L852.981 1160.59 L840.253 1198.77  Z" fill="#000000" fill-rule="evenodd" fill-opacity="1"/>
<polyline clip-path="url(#clip592)" style="stroke:#000000; stroke-linecap:round; stroke-linejoin:round; stroke-width:4; stroke-opacity:1; fill:none" points="827.525,1186.05 816.775,1196.8 "/>
<circle clip-path="url(#clip592)" cx="816.775" cy="1196.8" r="1.8" fill="#000000" fill-rule="evenodd" fill-opacity="0" stroke="none"/>
<circle clip-path="url(#clip592)" cx="852.981" cy="1160.59" r="1.8" fill="#000000" fill-rule="evenodd" fill-opacity="0" stroke="none"/>
<circle clip-path="url(#clip592)" cx="889.188" cy="1088.18" r="1.8" fill="#000000" fill-rule="evenodd" fill-opacity="1" stroke="none"/>
<polyline clip-path="url(#clip592)" style="stroke:#000000; stroke-linecap:round; stroke-linejoin:round; stroke-width:4; stroke-opacity:1; fill:none" points="852.981,1160.59 889.188,1088.18 "/>
<path clip-path="url(#clip592)" d="M873.088 1120.38 L856.988 1112.33 L889.188 1088.18 L889.188 1128.43  Z" fill="#000000" fill-rule="evenodd" fill-opacity="1"/>
<polyline clip-path="url(#clip592)" style="stroke:#000000; stroke-linecap:round; stroke-linejoin:round; stroke-width:4; stroke-opacity:1; fill:none" points="873.088,1120.38 852.981,1160.59 "/>
<circle clip-path="url(#clip592)" cx="852.981" cy="1160.59" r="1.8" fill="#000000" fill-rule="evenodd" fill-opacity="0" stroke="none"/>
<circle clip-path="url(#clip592)" cx="889.188" cy="1088.18" r="1.8" fill="#000000" fill-rule="evenodd" fill-opacity="0" stroke="none"/>
<circle clip-path="url(#clip592)" cx="961.6" cy="1033.87" r="1.8" fill="#000000" fill-rule="evenodd" fill-opacity="1" stroke="none"/>
<polyline clip-path="url(#clip592)" style="stroke:#000000; stroke-linecap:round; stroke-linejoin:round; stroke-width:4; stroke-opacity:1; fill:none" points="889.188,1088.18 961.6,1033.87 "/>
<path clip-path="url(#clip592)" d="M932.8 1055.47 L922 1041.07 L961.6 1033.87 L943.6 1069.87  Z" fill="#000000" fill-rule="evenodd" fill-opacity="1"/>
<polyline clip-path="url(#clip592)" style="stroke:#000000; stroke-linecap:round; stroke-linejoin:round; stroke-width:4; stroke-opacity:1; fill:none" points="932.8,1055.47 889.188,1088.18 "/>
<circle clip-path="url(#clip592)" cx="889.188" cy="1088.18" r="1.8" fill="#000000" fill-rule="evenodd" fill-opacity="0" stroke="none"/>
<circle clip-path="url(#clip592)" cx="961.6" cy="1033.87" r="1.8" fill="#000000" fill-rule="evenodd" fill-opacity="0" stroke="none"/>
<circle clip-path="url(#clip592)" cx="1034.01" cy="961.455" r="1.8" fill="#000000" fill-rule="evenodd" fill-opacity="1" stroke="none"/>
<polyline clip-path="url(#clip592)" style="stroke:#000000; stroke-linecap:round; stroke-linejoin:round; stroke-width:4; stroke-opacity:1; fill:none" points="961.6,1033.87 1034.01,961.455 "/>
<path clip-path="url(#clip592)" d="M1008.56 986.911 L995.829 974.183 L1034.01 961.455 L1021.29 999.639  Z" fill="#000000" fill-rule="evenodd" fill-opacity="1"/>
<polyline clip-path="url(#clip592)" style="stroke:#000000; stroke-linecap:round; stroke-linejoin:round; stroke-width:4; stroke-opacity:1; fill:none" points="1008.56,986.911 961.6,1033.87 "/>
<circle clip-path="url(#clip592)" cx="961.6" cy="1033.87" r="1.8" fill="#000000" fill-rule="evenodd" fill-opacity="0" stroke="none"/>
<circle clip-path="url(#clip592)" cx="1034.01" cy="961.455" r="1.8" fill="#000000" fill-rule="evenodd" fill-opacity="0" stroke="none"/>
<circle clip-path="url(#clip592)" cx="1088.32" cy="889.043" r="1.8" fill="#000000" fill-rule="evenodd" fill-opacity="1" stroke="none"/>
<polyline clip-path="url(#clip592)" style="stroke:#000000; stroke-linecap:round; stroke-linejoin:round; stroke-width:4; stroke-opacity:1; fill:none" points="1034.01,961.455 1088.32,889.043 "/>
<path clip-path="url(#clip592)" d="M1066.72 917.843 L1052.32 907.043 L1088.32 889.043 L1081.12 928.643  Z" fill="#000000" fill-rule="evenodd" fill-opacity="1"/>
<polyline clip-path="url(#clip592)" style="stroke:#000000; stroke-linecap:round; stroke-linejoin:round; stroke-width:4; stroke-opacity:1; fill:none" points="1066.72,917.843 1034.01,961.455 "/>
<circle clip-path="url(#clip592)" cx="1034.01" cy="961.455" r="1.8" fill="#000000" fill-rule="evenodd" fill-opacity="0" stroke="none"/>
<circle clip-path="url(#clip592)" cx="1088.32" cy="889.043" r="1.8" fill="#000000" fill-rule="evenodd" fill-opacity="0" stroke="none"/>
<circle clip-path="url(#clip592)" cx="1160.74" cy="816.63" r="1.8" fill="#000000" fill-rule="evenodd" fill-opacity="1" stroke="none"/>
<polyline clip-path="url(#clip592)" style="stroke:#000000; stroke-linecap:round; stroke-linejoin:round; stroke-width:4; stroke-opacity:1; fill:none" points="1088.32,889.043 1160.74,816.63 "/>
<path clip-path="url(#clip592)" d="M1135.28 842.086 L1122.55 829.358 L1160.74 816.63 L1148.01 854.814  Z" fill="#000000" fill-rule="evenodd" fill-opacity="1"/>
<polyline clip-path="url(#clip592)" style="stroke:#000000; stroke-linecap:round; stroke-linejoin:round; stroke-width:4; stroke-opacity:1; fill:none" points="1135.28,842.086 1088.32,889.043 "/>
<circle clip-path="url(#clip592)" cx="1088.32" cy="889.043" r="1.8" fill="#000000" fill-rule="evenodd" fill-opacity="0" stroke="none"/>
<circle clip-path="url(#clip592)" cx="1160.74" cy="816.63" r="1.8" fill="#000000" fill-rule="evenodd" fill-opacity="0" stroke="none"/>
<circle clip-path="url(#clip592)" cx="1233.15" cy="870.939" r="1.8" fill="#000000" fill-rule="evenodd" fill-opacity="1" stroke="none"/>
<polyline clip-path="url(#clip592)" style="stroke:#000000; stroke-linecap:round; stroke-linejoin:round; stroke-width:4; stroke-opacity:1; fill:none" points="1160.74,816.63 1233.15,870.939 "/>
<path clip-path="url(#clip592)" d="M1204.35 849.339 L1215.15 834.939 L1233.15 870.939 L1193.55 863.739  Z" fill="#000000" fill-rule="evenodd" fill-opacity="1"/>
<polyline clip-path="url(#clip592)" style="stroke:#000000; stroke-linecap:round; stroke-linejoin:round; stroke-width:4; stroke-opacity:1; fill:none" points="1204.35,849.339 1160.74,816.63 "/>
<circle clip-path="url(#clip592)" cx="1160.74" cy="816.63" r="1.8" fill="#000000" fill-rule="evenodd" fill-opacity="0" stroke="none"/>
<circle clip-path="url(#clip592)" cx="1233.15" cy="870.939" r="1.8" fill="#000000" fill-rule="evenodd" fill-opacity="0" stroke="none"/>
<circle clip-path="url(#clip592)" cx="1305.56" cy="943.352" r="1.8" fill="#000000" fill-rule="evenodd" fill-opacity="1" stroke="none"/>
<polyline clip-path="url(#clip592)" style="stroke:#000000; stroke-linecap:round; stroke-linejoin:round; stroke-width:4; stroke-opacity:1; fill:none" points="1233.15,870.939 1305.56,943.352 "/>
<path clip-path="url(#clip592)" d="M1280.11 917.896 L1292.83 905.168 L1305.56 943.352 L1267.38 930.624  Z" fill="#000000" fill-rule="evenodd" fill-opacity="1"/>
<polyline clip-path="url(#clip592)" style="stroke:#000000; stroke-linecap:round; stroke-linejoin:round; stroke-width:4; stroke-opacity:1; fill:none" points="1280.11,917.896 1233.15,870.939 "/>
<circle clip-path="url(#clip592)" cx="1233.15" cy="870.939" r="1.8" fill="#000000" fill-rule="evenodd" fill-opacity="0" stroke="none"/>
<circle clip-path="url(#clip592)" cx="1305.56" cy="943.352" r="1.8" fill="#000000" fill-rule="evenodd" fill-opacity="0" stroke="none"/>
<circle clip-path="url(#clip592)" cx="1377.97" cy="889.043" r="1.8" fill="#000000" fill-rule="evenodd" fill-opacity="1" stroke="none"/>
<polyline clip-path="url(#clip592)" style="stroke:#000000; stroke-linecap:round; stroke-linejoin:round; stroke-width:4; stroke-opacity:1; fill:none" points="1305.56,943.352 1377.97,889.043 "/>
<path clip-path="url(#clip592)" d="M1349.17 910.643 L1338.37 896.243 L1377.97 889.043 L1359.97 925.043  Z" fill="#000000" fill-rule="evenodd" fill-opacity="1"/>
<polyline clip-path="url(#clip592)" style="stroke:#000000; stroke-linecap:round; stroke-linejoin:round; stroke-width:4; stroke-opacity:1; fill:none" points="1349.17,910.643 1305.56,943.352 "/>
<circle clip-path="url(#clip592)" cx="1305.56" cy="943.352" r="1.8" fill="#000000" fill-rule="evenodd" fill-opacity="0" stroke="none"/>
<circle clip-path="url(#clip592)" cx="1377.97" cy="889.043" r="1.8" fill="#000000" fill-rule="evenodd" fill-opacity="0" stroke="none"/>
<circle clip-path="url(#clip592)" cx="1432.28" cy="834.733" r="1.8" fill="#000000" fill-rule="evenodd" fill-opacity="1" stroke="none"/>
<polyline clip-path="url(#clip592)" style="stroke:#000000; stroke-linecap:round; stroke-linejoin:round; stroke-width:4; stroke-opacity:1; fill:none" points="1377.97,889.043 1432.28,834.733 "/>
<path clip-path="url(#clip592)" d="M1406.83 860.189 L1394.1 847.461 L1432.28 834.733 L1419.56 872.917  Z" fill="#000000" fill-rule="evenodd" fill-opacity="1"/>
<polyline clip-path="url(#clip592)" style="stroke:#000000; stroke-linecap:round; stroke-linejoin:round; stroke-width:4; stroke-opacity:1; fill:none" points="1406.83,860.189 1377.97,889.043 "/>
<circle clip-path="url(#clip592)" cx="1377.97" cy="889.043" r="1.8" fill="#000000" fill-rule="evenodd" fill-opacity="0" stroke="none"/>
<circle clip-path="url(#clip592)" cx="1432.28" cy="834.733" r="1.8" fill="#000000" fill-rule="evenodd" fill-opacity="0" stroke="none"/>
<circle clip-path="url(#clip592)" cx="1504.7" cy="762.32" r="1.8" fill="#000000" fill-rule="evenodd" fill-opacity="1" stroke="none"/>
<polyline clip-path="url(#clip592)" style="stroke:#000000; stroke-linecap:round; stroke-linejoin:round; stroke-width:4; stroke-opacity:1; fill:none" points="1432.28,834.733 1504.7,762.32 "/>
<path clip-path="url(#clip592)" d="M1479.24 787.776 L1466.51 775.048 L1504.7 762.32 L1491.97 800.504  Z" fill="#000000" fill-rule="evenodd" fill-opacity="1"/>
<polyline clip-path="url(#clip592)" style="stroke:#000000; stroke-linecap:round; stroke-linejoin:round; stroke-width:4; stroke-opacity:1; fill:none" points="1479.24,787.776 1432.28,834.733 "/>
<circle clip-path="url(#clip592)" cx="1432.28" cy="834.733" r="1.8" fill="#000000" fill-rule="evenodd" fill-opacity="0" stroke="none"/>
<circle clip-path="url(#clip592)" cx="1504.7" cy="762.32" r="1.8" fill="#000000" fill-rule="evenodd" fill-opacity="0" stroke="none"/>
<circle clip-path="url(#clip592)" cx="1522.8" cy="689.907" r="1.8" fill="#000000" fill-rule="evenodd" fill-opacity="1" stroke="none"/>
<polyline clip-path="url(#clip592)" style="stroke:#000000; stroke-linecap:round; stroke-linejoin:round; stroke-width:4; stroke-opacity:1; fill:none" points="1504.7,762.32 1522.8,689.907 "/>
<path clip-path="url(#clip592)" d="M1514.07 724.833 L1496.61 720.467 L1522.8 689.907 L1531.53 729.198  Z" fill="#000000" fill-rule="evenodd" fill-opacity="1"/>
<polyline clip-path="url(#clip592)" style="stroke:#000000; stroke-linecap:round; stroke-linejoin:round; stroke-width:4; stroke-opacity:1; fill:none" points="1514.07,724.833 1504.7,762.32 "/>
<circle clip-path="url(#clip592)" cx="1504.7" cy="762.32" r="1.8" fill="#000000" fill-rule="evenodd" fill-opacity="0" stroke="none"/>
<circle clip-path="url(#clip592)" cx="1522.8" cy="689.907" r="1.8" fill="#000000" fill-rule="evenodd" fill-opacity="0" stroke="none"/>
<circle clip-path="url(#clip592)" cx="1522.8" cy="617.495" r="1.8" fill="#000000" fill-rule="evenodd" fill-opacity="1" stroke="none"/>
<polyline clip-path="url(#clip592)" style="stroke:#000000; stroke-linecap:round; stroke-linejoin:round; stroke-width:4; stroke-opacity:1; fill:none" points="1522.8,689.907 1522.8,617.495 "/>
<path clip-path="url(#clip592)" d="M1522.8 653.495 L1504.8 653.495 L1522.8 617.495 L1540.8 653.495  Z" fill="#000000" fill-rule="evenodd" fill-opacity="1"/>
<polyline clip-path="url(#clip592)" style="stroke:#000000; stroke-linecap:round; stroke-linejoin:round; stroke-width:4; stroke-opacity:1; fill:none" points="1522.8,653.495 1522.8,689.907 "/>
<circle clip-path="url(#clip592)" cx="1522.8" cy="689.907" r="1.8" fill="#000000" fill-rule="evenodd" fill-opacity="0" stroke="none"/>
<circle clip-path="url(#clip592)" cx="1522.8" cy="617.495" r="1.8" fill="#000000" fill-rule="evenodd" fill-opacity="0" stroke="none"/>
<circle clip-path="url(#clip592)" cx="1504.7" cy="563.185" r="1.8" fill="#000000" fill-rule="evenodd" fill-opacity="1" stroke="none"/>
<polyline clip-path="url(#clip592)" style="stroke:#000000; stroke-linecap:round; stroke-linejoin:round; stroke-width:4; stroke-opacity:1; fill:none" points="1522.8,617.495 1504.7,563.185 "/>
<path clip-path="url(#clip592)" d="M1516.08 597.338 L1499 603.03 L1504.7 563.185 L1533.16 591.646  Z" fill="#000000" fill-rule="evenodd" fill-opacity="1"/>
<polyline clip-path="url(#clip592)" style="stroke:#000000; stroke-linecap:round; stroke-linejoin:round; stroke-width:4; stroke-opacity:1; fill:none" points="1516.08,597.338 1522.8,617.495 "/>
<circle clip-path="url(#clip592)" cx="1522.8" cy="617.495" r="1.8" fill="#000000" fill-rule="evenodd" fill-opacity="0" stroke="none"/>
<circle clip-path="url(#clip592)" cx="1504.7" cy="563.185" r="1.8" fill="#000000" fill-rule="evenodd" fill-opacity="0" stroke="none"/>
<circle clip-path="url(#clip592)" cx="1540.9" cy="490.772" r="1.8" fill="#000000" fill-rule="evenodd" fill-opacity="1" stroke="none"/>
<polyline clip-path="url(#clip592)" style="stroke:#000000; stroke-linecap:round; stroke-linejoin:round; stroke-width:4; stroke-opacity:1; fill:none" points="1504.7,563.185 1540.9,490.772 "/>
<path clip-path="url(#clip592)" d="M1524.8 522.972 L1508.7 514.922 L1540.9 490.772 L1540.9 531.022  Z" fill="#000000" fill-rule="evenodd" fill-opacity="1"/>
<polyline clip-path="url(#clip592)" style="stroke:#000000; stroke-linecap:round; stroke-linejoin:round; stroke-width:4; stroke-opacity:1; fill:none" points="1524.8,522.972 1504.7,563.185 "/>
<circle clip-path="url(#clip592)" cx="1504.7" cy="563.185" r="1.8" fill="#000000" fill-rule="evenodd" fill-opacity="0" stroke="none"/>
<circle clip-path="url(#clip592)" cx="1540.9" cy="490.772" r="1.8" fill="#000000" fill-rule="evenodd" fill-opacity="0" stroke="none"/>
<circle clip-path="url(#clip592)" cx="1595.21" cy="418.36" r="1.8" fill="#000000" fill-rule="evenodd" fill-opacity="1" stroke="none"/>
<polyline clip-path="url(#clip592)" style="stroke:#000000; stroke-linecap:round; stroke-linejoin:round; stroke-width:4; stroke-opacity:1; fill:none" points="1540.9,490.772 1595.21,418.36 "/>
<path clip-path="url(#clip592)" d="M1573.61 447.16 L1559.21 436.36 L1595.21 418.36 L1588.01 457.96  Z" fill="#000000" fill-rule="evenodd" fill-opacity="1"/>
<polyline clip-path="url(#clip592)" style="stroke:#000000; stroke-linecap:round; stroke-linejoin:round; stroke-width:4; stroke-opacity:1; fill:none" points="1573.61,447.16 1540.9,490.772 "/>
<circle clip-path="url(#clip592)" cx="1540.9" cy="490.772" r="1.8" fill="#000000" fill-rule="evenodd" fill-opacity="0" stroke="none"/>
<circle clip-path="url(#clip592)" cx="1595.21" cy="418.36" r="1.8" fill="#000000" fill-rule="evenodd" fill-opacity="0" stroke="none"/>
<circle clip-path="url(#clip592)" cx="1667.62" cy="345.947" r="1.8" fill="#000000" fill-rule="evenodd" fill-opacity="1" stroke="none"/>
<polyline clip-path="url(#clip592)" style="stroke:#000000; stroke-linecap:round; stroke-linejoin:round; stroke-width:4; stroke-opacity:1; fill:none" points="1595.21,418.36 1667.62,345.947 "/>
<path clip-path="url(#clip592)" d="M1642.17 371.403 L1629.44 358.675 L1667.62 345.947 L1654.9 384.131  Z" fill="#000000" fill-rule="evenodd" fill-opacity="1"/>
<polyline clip-path="url(#clip592)" style="stroke:#000000; stroke-linecap:round; stroke-linejoin:round; stroke-width:4; stroke-opacity:1; fill:none" points="1642.17,371.403 1595.21,418.36 "/>
<circle clip-path="url(#clip592)" cx="1595.21" cy="418.36" r="1.8" fill="#000000" fill-rule="evenodd" fill-opacity="0" stroke="none"/>
<circle clip-path="url(#clip592)" cx="1667.62" cy="345.947" r="1.8" fill="#000000" fill-rule="evenodd" fill-opacity="0" stroke="none"/>
<circle clip-path="url(#clip592)" cx="1721.93" cy="291.637" r="1.8" fill="#000000" fill-rule="evenodd" fill-opacity="1" stroke="none"/>
<polyline clip-path="url(#clip592)" style="stroke:#000000; stroke-linecap:round; stroke-linejoin:round; stroke-width:4; stroke-opacity:1; fill:none" points="1667.62,345.947 1721.93,291.637 "/>
<path clip-path="url(#clip592)" d="M1696.48 317.093 L1683.75 304.365 L1721.93 291.637 L1709.21 329.821  Z" fill="#000000" fill-rule="evenodd" fill-opacity="1"/>
<polyline clip-path="url(#clip592)" style="stroke:#000000; stroke-linecap:round; stroke-linejoin:round; stroke-width:4; stroke-opacity:1; fill:none" points="1696.48,317.093 1667.62,345.947 "/>
<circle clip-path="url(#clip592)" cx="1667.62" cy="345.947" r="1.8" fill="#000000" fill-rule="evenodd" fill-opacity="0" stroke="none"/>
<circle clip-path="url(#clip592)" cx="1721.93" cy="291.637" r="1.8" fill="#000000" fill-rule="evenodd" fill-opacity="0" stroke="none"/>
<circle clip-path="url(#clip592)" cx="816.775" cy="1196.8" r="1.8" fill="#000000" fill-rule="evenodd" fill-opacity="1" stroke="none"/>
<path clip-path="url(#clip590)" d="M214.431 250.738 L668.83 250.738 L668.83 95.2176 L214.431 95.2176  Z" fill="#ffffff" fill-rule="evenodd" fill-opacity="1"/>
<polyline clip-path="url(#clip590)" style="stroke:#000000; stroke-linecap:round; stroke-linejoin:round; stroke-width:4; stroke-opacity:1; fill:none" points="214.431,250.738 668.83,250.738 668.83,95.2176 214.431,95.2176 214.431,250.738 "/>
<path clip-path="url(#clip590)" d="M239.009 167.794 L386.48 167.794 L386.48 126.322 L239.009 126.322 L239.009 167.794  Z" fill="#008000" fill-rule="evenodd" fill-opacity="0.8"/>
<polyline clip-path="url(#clip590)" style="stroke:#000000; stroke-linecap:round; stroke-linejoin:round; stroke-width:4; stroke-opacity:1; fill:none" points="239.009,167.794 386.48,167.794 386.48,126.322 239.009,126.322 239.009,167.794 "/>
<path clip-path="url(#clip590)" d="M411.058 129.778 L415.734 129.778 L415.734 164.338 L411.058 164.338 L411.058 129.778 Z" fill="#000000" fill-rule="nonzero" fill-opacity="1" /><path clip-path="url(#clip590)" d="M446.406 148.689 L446.406 164.338 L442.146 164.338 L442.146 148.828 Q442.146 145.148 440.711 143.319 Q439.276 141.49 436.406 141.49 Q432.957 141.49 430.966 143.69 Q428.975 145.889 428.975 149.685 L428.975 164.338 L424.693 164.338 L424.693 138.412 L428.975 138.412 L428.975 142.44 Q430.503 140.102 432.563 138.944 Q434.646 137.787 437.355 137.787 Q441.822 137.787 444.114 140.565 Q446.406 143.319 446.406 148.689 Z" fill="#000000" fill-rule="nonzero" fill-opacity="1" /><path clip-path="url(#clip590)" d="M454.901 138.412 L459.16 138.412 L459.16 164.338 L454.901 164.338 L454.901 138.412 M454.901 128.319 L459.16 128.319 L459.16 133.713 L454.901 133.713 L454.901 128.319 Z" fill="#000000" fill-rule="nonzero" fill-opacity="1" /><path clip-path="url(#clip590)" d="M472.285 131.051 L472.285 138.412 L481.058 138.412 L481.058 141.722 L472.285 141.722 L472.285 155.796 Q472.285 158.967 473.141 159.87 Q474.021 160.773 476.683 160.773 L481.058 160.773 L481.058 164.338 L476.683 164.338 Q471.753 164.338 469.878 162.509 Q468.003 160.657 468.003 155.796 L468.003 141.722 L464.878 141.722 L464.878 138.412 L468.003 138.412 L468.003 131.051 L472.285 131.051 Z" fill="#000000" fill-rule="nonzero" fill-opacity="1" /><path clip-path="url(#clip590)" d="M486.66 138.412 L490.919 138.412 L490.919 164.338 L486.66 164.338 L486.66 138.412 M486.66 128.319 L490.919 128.319 L490.919 133.713 L486.66 133.713 L486.66 128.319 Z" fill="#000000" fill-rule="nonzero" fill-opacity="1" /><path clip-path="url(#clip590)" d="M511.613 151.305 Q506.451 151.305 504.461 152.486 Q502.47 153.666 502.47 156.514 Q502.47 158.782 503.951 160.125 Q505.456 161.444 508.026 161.444 Q511.567 161.444 513.697 158.944 Q515.85 156.421 515.85 152.254 L515.85 151.305 L511.613 151.305 M520.109 149.546 L520.109 164.338 L515.85 164.338 L515.85 160.402 Q514.391 162.763 512.215 163.898 Q510.039 165.009 506.891 165.009 Q502.91 165.009 500.549 162.787 Q498.211 160.541 498.211 156.791 Q498.211 152.416 501.127 150.194 Q504.067 147.972 509.877 147.972 L515.85 147.972 L515.85 147.555 Q515.85 144.615 513.905 143.018 Q511.984 141.398 508.489 141.398 Q506.266 141.398 504.16 141.93 Q502.053 142.463 500.109 143.527 L500.109 139.592 Q502.447 138.69 504.646 138.25 Q506.845 137.787 508.928 137.787 Q514.553 137.787 517.331 140.703 Q520.109 143.62 520.109 149.546 Z" fill="#000000" fill-rule="nonzero" fill-opacity="1" /><path clip-path="url(#clip590)" d="M528.882 128.319 L533.141 128.319 L533.141 164.338 L528.882 164.338 L528.882 128.319 Z" fill="#000000" fill-rule="nonzero" fill-opacity="1" /><path clip-path="url(#clip590)" d="M573.65 139.176 L573.65 143.203 Q571.845 142.277 569.9 141.815 Q567.956 141.352 565.872 141.352 Q562.701 141.352 561.104 142.324 Q559.53 143.296 559.53 145.24 Q559.53 146.722 560.664 147.578 Q561.798 148.412 565.224 149.176 L566.683 149.5 Q571.22 150.472 573.118 152.254 Q575.039 154.014 575.039 157.185 Q575.039 160.796 572.169 162.902 Q569.322 165.009 564.322 165.009 Q562.238 165.009 559.97 164.592 Q557.724 164.199 555.224 163.388 L555.224 158.99 Q557.585 160.217 559.877 160.842 Q562.169 161.444 564.414 161.444 Q567.423 161.444 569.044 160.426 Q570.664 159.384 570.664 157.509 Q570.664 155.773 569.484 154.847 Q568.326 153.921 564.368 153.064 L562.886 152.717 Q558.928 151.884 557.169 150.171 Q555.41 148.435 555.41 145.426 Q555.41 141.768 558.002 139.778 Q560.595 137.787 565.363 137.787 Q567.724 137.787 569.808 138.134 Q571.891 138.481 573.65 139.176 Z" fill="#000000" fill-rule="nonzero" fill-opacity="1" /><path clip-path="url(#clip590)" d="M603.997 150.31 L603.997 152.393 L584.414 152.393 Q584.692 156.791 587.053 159.106 Q589.437 161.398 593.673 161.398 Q596.127 161.398 598.419 160.796 Q600.733 160.194 603.002 158.99 L603.002 163.018 Q600.71 163.99 598.303 164.5 Q595.895 165.009 593.419 165.009 Q587.215 165.009 583.581 161.398 Q579.97 157.787 579.97 151.629 Q579.97 145.264 583.396 141.537 Q586.845 137.787 592.678 137.787 Q597.909 137.787 600.942 141.166 Q603.997 144.523 603.997 150.31 M599.738 149.06 Q599.692 145.565 597.77 143.481 Q595.872 141.398 592.724 141.398 Q589.159 141.398 587.007 143.412 Q584.877 145.426 584.553 149.083 L599.738 149.06 Z" fill="#000000" fill-rule="nonzero" fill-opacity="1" /><path clip-path="url(#clip590)" d="M615.201 131.051 L615.201 138.412 L623.974 138.412 L623.974 141.722 L615.201 141.722 L615.201 155.796 Q615.201 158.967 616.057 159.87 Q616.937 160.773 619.599 160.773 L623.974 160.773 L623.974 164.338 L619.599 164.338 Q614.668 164.338 612.794 162.509 Q610.919 160.657 610.919 155.796 L610.919 141.722 L607.794 141.722 L607.794 138.412 L610.919 138.412 L610.919 131.051 L615.201 131.051 Z" fill="#000000" fill-rule="nonzero" fill-opacity="1" /><path clip-path="url(#clip590)" d="M239.009 219.634 L386.48 219.634 L386.48 178.162 L239.009 178.162 L239.009 219.634  Z" fill="#ff0000" fill-rule="evenodd" fill-opacity="0.8"/>
<polyline clip-path="url(#clip590)" style="stroke:#000000; stroke-linecap:round; stroke-linejoin:round; stroke-width:4; stroke-opacity:1; fill:none" points="239.009,219.634 386.48,219.634 386.48,178.162 239.009,178.162 239.009,219.634 "/>
<path clip-path="url(#clip590)" d="M411.058 181.618 L440.294 181.618 L440.294 185.553 L428.026 185.553 L428.026 216.178 L423.327 216.178 L423.327 185.553 L411.058 185.553 L411.058 181.618 Z" fill="#000000" fill-rule="nonzero" fill-opacity="1" /><path clip-path="url(#clip590)" d="M448.558 203.145 Q443.396 203.145 441.406 204.326 Q439.415 205.506 439.415 208.354 Q439.415 210.622 440.896 211.965 Q442.401 213.284 444.97 213.284 Q448.512 213.284 450.642 210.784 Q452.794 208.261 452.794 204.094 L452.794 203.145 L448.558 203.145 M457.054 201.386 L457.054 216.178 L452.794 216.178 L452.794 212.242 Q451.336 214.603 449.16 215.738 Q446.984 216.849 443.836 216.849 Q439.855 216.849 437.494 214.627 Q435.156 212.381 435.156 208.631 Q435.156 204.256 438.072 202.034 Q441.012 199.812 446.822 199.812 L452.794 199.812 L452.794 199.395 Q452.794 196.455 450.85 194.858 Q448.929 193.238 445.433 193.238 Q443.211 193.238 441.105 193.77 Q438.998 194.303 437.054 195.367 L437.054 191.432 Q439.392 190.53 441.591 190.09 Q443.79 189.627 445.873 189.627 Q451.498 189.627 454.276 192.543 Q457.054 195.46 457.054 201.386 Z" fill="#000000" fill-rule="nonzero" fill-opacity="1" /><path clip-path="url(#clip590)" d="M480.85 194.233 Q480.132 193.817 479.276 193.631 Q478.442 193.423 477.424 193.423 Q473.813 193.423 471.868 195.784 Q469.947 198.122 469.947 202.52 L469.947 216.178 L465.665 216.178 L465.665 190.252 L469.947 190.252 L469.947 194.28 Q471.29 191.918 473.442 190.784 Q475.595 189.627 478.674 189.627 Q479.114 189.627 479.646 189.696 Q480.178 189.743 480.827 189.858 L480.85 194.233 Z" fill="#000000" fill-rule="nonzero" fill-opacity="1" /><path clip-path="url(#clip590)" d="M501.544 202.914 Q501.544 198.284 499.623 195.738 Q497.725 193.192 494.276 193.192 Q490.85 193.192 488.928 195.738 Q487.03 198.284 487.03 202.914 Q487.03 207.52 488.928 210.066 Q490.85 212.613 494.276 212.613 Q497.725 212.613 499.623 210.066 Q501.544 207.52 501.544 202.914 M505.803 212.96 Q505.803 219.58 502.864 222.798 Q499.924 226.039 493.859 226.039 Q491.614 226.039 489.623 225.691 Q487.632 225.367 485.757 224.673 L485.757 220.529 Q487.632 221.548 489.461 222.034 Q491.29 222.52 493.188 222.52 Q497.377 222.52 499.461 220.321 Q501.544 218.145 501.544 213.724 L501.544 211.617 Q500.225 213.909 498.164 215.043 Q496.104 216.178 493.234 216.178 Q488.465 216.178 485.549 212.543 Q482.632 208.909 482.632 202.914 Q482.632 196.895 485.549 193.261 Q488.465 189.627 493.234 189.627 Q496.104 189.627 498.164 190.761 Q500.225 191.895 501.544 194.187 L501.544 190.252 L505.803 190.252 L505.803 212.96 Z" fill="#000000" fill-rule="nonzero" fill-opacity="1" /><path clip-path="url(#clip590)" d="M536.752 202.15 L536.752 204.233 L517.169 204.233 Q517.447 208.631 519.808 210.946 Q522.192 213.238 526.428 213.238 Q528.882 213.238 531.174 212.636 Q533.488 212.034 535.757 210.83 L535.757 214.858 Q533.465 215.83 531.058 216.34 Q528.65 216.849 526.174 216.849 Q519.97 216.849 516.336 213.238 Q512.725 209.627 512.725 203.469 Q512.725 197.104 516.151 193.377 Q519.6 189.627 525.433 189.627 Q530.664 189.627 533.697 193.006 Q536.752 196.363 536.752 202.15 M532.493 200.9 Q532.447 197.405 530.525 195.321 Q528.627 193.238 525.479 193.238 Q521.914 193.238 519.762 195.252 Q517.632 197.266 517.308 200.923 L532.493 200.9 Z" fill="#000000" fill-rule="nonzero" fill-opacity="1" /><path clip-path="url(#clip590)" d="M547.956 182.891 L547.956 190.252 L556.729 190.252 L556.729 193.562 L547.956 193.562 L547.956 207.636 Q547.956 210.807 548.812 211.71 Q549.692 212.613 552.354 212.613 L556.729 212.613 L556.729 216.178 L552.354 216.178 Q547.423 216.178 545.548 214.349 Q543.674 212.497 543.674 207.636 L543.674 193.562 L540.549 193.562 L540.549 190.252 L543.674 190.252 L543.674 182.891 L547.956 182.891 Z" fill="#000000" fill-rule="nonzero" fill-opacity="1" /><path clip-path="url(#clip590)" d="M593.928 191.016 L593.928 195.043 Q592.122 194.117 590.178 193.655 Q588.233 193.192 586.15 193.192 Q582.979 193.192 581.382 194.164 Q579.808 195.136 579.808 197.08 Q579.808 198.562 580.942 199.418 Q582.076 200.252 585.502 201.016 L586.96 201.34 Q591.497 202.312 593.395 204.094 Q595.317 205.854 595.317 209.025 Q595.317 212.636 592.446 214.742 Q589.599 216.849 584.599 216.849 Q582.516 216.849 580.247 216.432 Q578.002 216.039 575.502 215.228 L575.502 210.83 Q577.863 212.057 580.155 212.682 Q582.446 213.284 584.692 213.284 Q587.701 213.284 589.321 212.266 Q590.942 211.224 590.942 209.349 Q590.942 207.613 589.761 206.687 Q588.604 205.761 584.646 204.904 L583.164 204.557 Q579.206 203.724 577.446 202.011 Q575.687 200.275 575.687 197.266 Q575.687 193.608 578.28 191.618 Q580.872 189.627 585.641 189.627 Q588.002 189.627 590.085 189.974 Q592.169 190.321 593.928 191.016 Z" fill="#000000" fill-rule="nonzero" fill-opacity="1" /><path clip-path="url(#clip590)" d="M624.275 202.15 L624.275 204.233 L604.692 204.233 Q604.969 208.631 607.331 210.946 Q609.715 213.238 613.951 213.238 Q616.405 213.238 618.696 212.636 Q621.011 212.034 623.28 210.83 L623.28 214.858 Q620.988 215.83 618.581 216.34 Q616.173 216.849 613.696 216.849 Q607.493 216.849 603.858 213.238 Q600.247 209.627 600.247 203.469 Q600.247 197.104 603.673 193.377 Q607.122 189.627 612.956 189.627 Q618.187 189.627 621.219 193.006 Q624.275 196.363 624.275 202.15 M620.016 200.9 Q619.969 197.405 618.048 195.321 Q616.15 193.238 613.002 193.238 Q609.437 193.238 607.284 195.252 Q605.155 197.266 604.831 200.923 L620.016 200.9 Z" fill="#000000" fill-rule="nonzero" fill-opacity="1" /><path clip-path="url(#clip590)" d="M635.479 182.891 L635.479 190.252 L644.252 190.252 L644.252 193.562 L635.479 193.562 L635.479 207.636 Q635.479 210.807 636.335 211.71 Q637.215 212.613 639.877 212.613 L644.252 212.613 L644.252 216.178 L639.877 216.178 Q634.946 216.178 633.071 214.349 Q631.196 212.497 631.196 207.636 L631.196 193.562 L628.071 193.562 L628.071 190.252 L631.196 190.252 L631.196 182.891 L635.479 182.891 Z" fill="#000000" fill-rule="nonzero" fill-opacity="1" /></svg>
