<?xml version="1.0" encoding="utf-8"?>
<svg xmlns="http://www.w3.org/2000/svg" xmlns:xlink="http://www.w3.org/1999/xlink" width="600" height="400" viewBox="0 0 2400 1600">
<defs>
  <clipPath id="clip430">
    <rect x="0" y="0" width="2400" height="1600"/>
  </clipPath>
</defs>
<path clip-path="url(#clip430)" d="M0 1600 L2400 1600 L2400 0 L0 0  Z" fill="#ffffff" fill-rule="evenodd" fill-opacity="1"/>
<defs>
  <clipPath id="clip431">
    <rect x="480" y="0" width="1681" height="1600"/>
  </clipPath>
</defs>
<path clip-path="url(#clip430)" d="M140.696 1486.45 L2352.76 1486.45 L2352.76 47.2441 L140.696 47.2441  Z" fill="#ffffff" fill-rule="evenodd" fill-opacity="1"/>
<defs>
  <clipPath id="clip432">
    <rect x="140" y="47" width="2213" height="1440"/>
  </clipPath>
</defs>
<polyline clip-path="url(#clip432)" style="stroke:#000000; stroke-linecap:round; stroke-linejoin:round; stroke-width:2; stroke-opacity:0.1; fill:none" points="467.705,1486.45 467.705,47.2441 "/>
<polyline clip-path="url(#clip432)" style="stroke:#000000; stroke-linecap:round; stroke-linejoin:round; stroke-width:2; stroke-opacity:0.1; fill:none" points="1034.98,1486.45 1034.98,47.2441 "/>
<polyline clip-path="url(#clip432)" style="stroke:#000000; stroke-linecap:round; stroke-linejoin:round; stroke-width:2; stroke-opacity:0.1; fill:none" points="1602.25,1486.45 1602.25,47.2441 "/>
<polyline clip-path="url(#clip432)" style="stroke:#000000; stroke-linecap:round; stroke-linejoin:round; stroke-width:2; stroke-opacity:0.1; fill:none" points="2169.52,1486.45 2169.52,47.2441 "/>
<polyline clip-path="url(#clip432)" style="stroke:#000000; stroke-linecap:round; stroke-linejoin:round; stroke-width:2; stroke-opacity:0.1; fill:none" points="140.696,1309.46 2352.76,1309.46 "/>
<polyline clip-path="url(#clip432)" style="stroke:#000000; stroke-linecap:round; stroke-linejoin:round; stroke-width:2; stroke-opacity:0.1; fill:none" points="140.696,1025.83 2352.76,1025.83 "/>
<polyline clip-path="url(#clip432)" style="stroke:#000000; stroke-linecap:round; stroke-linejoin:round; stroke-width:2; stroke-opacity:0.1; fill:none" points="140.696,742.191 2352.76,742.191 "/>
<polyline clip-path="url(#clip432)" style="stroke:#000000; stroke-linecap:round; stroke-linejoin:round; stroke-width:2; stroke-opacity:0.1; fill:none" points="140.696,458.556 2352.76,458.556 "/>
<polyline clip-path="url(#clip432)" style="stroke:#000000; stroke-linecap:round; stroke-linejoin:round; stroke-width:2; stroke-opacity:0.1; fill:none" points="140.696,174.921 2352.76,174.921 "/>
<polyline clip-path="url(#clip430)" style="stroke:#000000; stroke-linecap:round; stroke-linejoin:round; stroke-width:4; stroke-opacity:1; fill:none" points="140.696,1486.45 2352.76,1486.45 "/>
<polyline clip-path="url(#clip430)" style="stroke:#000000; stroke-linecap:round; stroke-linejoin:round; stroke-width:4; stroke-opacity:1; fill:none" points="467.705,1486.45 467.705,1467.55 "/>
<polyline clip-path="url(#clip430)" style="stroke:#000000; stroke-linecap:round; stroke-linejoin:round; stroke-width:4; stroke-opacity:1; fill:none" points="1034.98,1486.45 1034.98,1467.55 "/>
<polyline clip-path="url(#clip430)" style="stroke:#000000; stroke-linecap:round; stroke-linejoin:round; stroke-width:4; stroke-opacity:1; fill:none" points="1602.25,1486.45 1602.25,1467.55 "/>
<polyline clip-path="url(#clip430)" style="stroke:#000000; stroke-linecap:round; stroke-linejoin:round; stroke-width:4; stroke-opacity:1; fill:none" points="2169.52,1486.45 2169.52,1467.55 "/>
<path clip-path="url(#clip430)" d="M421.768 1532.02 L451.444 1532.02 L451.444 1535.95 L421.768 1535.95 L421.768 1532.02 Z" fill="#000000" fill-rule="nonzero" fill-opacity="1" /><path clip-path="url(#clip430)" d="M462.347 1544.91 L469.985 1544.91 L469.985 1518.55 L461.675 1520.21 L461.675 1515.95 L469.939 1514.29 L474.615 1514.29 L474.615 1544.91 L482.254 1544.91 L482.254 1548.85 L462.347 1548.85 L462.347 1544.91 Z" fill="#000000" fill-rule="nonzero" fill-opacity="1" /><path clip-path="url(#clip430)" d="M501.698 1517.37 Q498.087 1517.37 496.258 1520.93 Q494.453 1524.47 494.453 1531.6 Q494.453 1538.71 496.258 1542.27 Q498.087 1545.82 501.698 1545.82 Q505.332 1545.82 507.138 1542.27 Q508.967 1538.71 508.967 1531.6 Q508.967 1524.47 507.138 1520.93 Q505.332 1517.37 501.698 1517.37 M501.698 1513.66 Q507.508 1513.66 510.564 1518.27 Q513.643 1522.85 513.643 1531.6 Q513.643 1540.33 510.564 1544.94 Q507.508 1549.52 501.698 1549.52 Q495.888 1549.52 492.809 1544.94 Q489.754 1540.33 489.754 1531.6 Q489.754 1522.85 492.809 1518.27 Q495.888 1513.66 501.698 1513.66 Z" fill="#000000" fill-rule="nonzero" fill-opacity="1" /><path clip-path="url(#clip430)" d="M1034.98 1517.37 Q1031.36 1517.37 1029.54 1520.93 Q1027.73 1524.47 1027.73 1531.6 Q1027.73 1538.71 1029.54 1542.27 Q1031.36 1545.82 1034.98 1545.82 Q1038.61 1545.82 1040.42 1542.27 Q1042.24 1538.71 1042.24 1531.6 Q1042.24 1524.47 1040.42 1520.93 Q1038.61 1517.37 1034.98 1517.37 M1034.98 1513.66 Q1040.79 1513.66 1043.84 1518.27 Q1046.92 1522.85 1046.92 1531.6 Q1046.92 1540.33 1043.84 1544.94 Q1040.79 1549.52 1034.98 1549.52 Q1029.17 1549.52 1026.09 1544.94 Q1023.03 1540.33 1023.03 1531.6 Q1023.03 1522.85 1026.09 1518.27 Q1029.17 1513.66 1034.98 1513.66 Z" fill="#000000" fill-rule="nonzero" fill-opacity="1" /><path clip-path="url(#clip430)" d="M1576.93 1544.91 L1584.57 1544.91 L1584.57 1518.55 L1576.26 1520.21 L1576.26 1515.95 L1584.53 1514.29 L1589.2 1514.29 L1589.2 1544.91 L1596.84 1544.91 L1596.84 1548.85 L1576.93 1548.85 L1576.93 1544.91 Z" fill="#000000" fill-rule="nonzero" fill-opacity="1" /><path clip-path="url(#clip430)" d="M1616.29 1517.37 Q1612.67 1517.37 1610.85 1520.93 Q1609.04 1524.47 1609.04 1531.6 Q1609.04 1538.71 1610.85 1542.27 Q1612.67 1545.82 1616.29 1545.82 Q1619.92 1545.82 1621.73 1542.27 Q1623.55 1538.71 1623.55 1531.6 Q1623.55 1524.47 1621.73 1520.93 Q1619.92 1517.37 1616.29 1517.37 M1616.29 1513.66 Q1622.1 1513.66 1625.15 1518.27 Q1628.23 1522.85 1628.23 1531.6 Q1628.23 1540.33 1625.15 1544.94 Q1622.1 1549.52 1616.29 1549.52 Q1610.48 1549.52 1607.4 1544.94 Q1604.34 1540.33 1604.34 1531.6 Q1604.34 1522.85 1607.4 1518.27 Q1610.48 1513.66 1616.29 1513.66 Z" fill="#000000" fill-rule="nonzero" fill-opacity="1" /><path clip-path="url(#clip430)" d="M2148.29 1544.91 L2164.61 1544.91 L2164.61 1548.85 L2142.66 1548.85 L2142.66 1544.91 Q2145.33 1542.16 2149.91 1537.53 Q2154.52 1532.88 2155.7 1531.53 Q2157.94 1529.01 2158.82 1527.27 Q2159.72 1525.51 2159.72 1523.82 Q2159.72 1521.07 2157.78 1519.33 Q2155.86 1517.6 2152.76 1517.6 Q2150.56 1517.6 2148.1 1518.36 Q2145.67 1519.13 2142.9 1520.68 L2142.9 1515.95 Q2145.72 1514.82 2148.17 1514.24 Q2150.63 1513.66 2152.66 1513.66 Q2158.03 1513.66 2161.23 1516.35 Q2164.42 1519.03 2164.42 1523.52 Q2164.42 1525.65 2163.61 1527.57 Q2162.83 1529.47 2160.72 1532.07 Q2160.14 1532.74 2157.04 1535.95 Q2153.94 1539.15 2148.29 1544.91 Z" fill="#000000" fill-rule="nonzero" fill-opacity="1" /><path clip-path="url(#clip430)" d="M2184.42 1517.37 Q2180.81 1517.37 2178.98 1520.93 Q2177.18 1524.47 2177.18 1531.6 Q2177.18 1538.71 2178.98 1542.27 Q2180.81 1545.82 2184.42 1545.82 Q2188.06 1545.82 2189.86 1542.27 Q2191.69 1538.71 2191.69 1531.6 Q2191.69 1524.47 2189.86 1520.93 Q2188.06 1517.37 2184.42 1517.37 M2184.42 1513.66 Q2190.23 1513.66 2193.29 1518.27 Q2196.37 1522.85 2196.37 1531.6 Q2196.37 1540.33 2193.29 1544.94 Q2190.23 1549.52 2184.42 1549.52 Q2178.61 1549.52 2175.53 1544.94 Q2172.48 1540.33 2172.48 1531.6 Q2172.48 1522.85 2175.53 1518.27 Q2178.61 1513.66 2184.42 1513.66 Z" fill="#000000" fill-rule="nonzero" fill-opacity="1" /><polyline clip-path="url(#clip430)" style="stroke:#000000; stroke-linecap:round; stroke-linejoin:round; stroke-width:4; stroke-opacity:1; fill:none" points="140.696,1486.45 140.696,47.2441 "/>
<polyline clip-path="url(#clip430)" style="stroke:#000000; stroke-linecap:round; stroke-linejoin:round; stroke-width:4; stroke-opacity:1; fill:none" points="140.696,1309.46 159.593,1309.46 "/>
<polyline clip-path="url(#clip430)" style="stroke:#000000; stroke-linecap:round; stroke-linejoin:round; stroke-width:4; stroke-opacity:1; fill:none" points="140.696,1025.83 159.593,1025.83 "/>
<polyline clip-path="url(#clip430)" style="stroke:#000000; stroke-linecap:round; stroke-linejoin:round; stroke-width:4; stroke-opacity:1; fill:none" points="140.696,742.191 159.593,742.191 "/>
<polyline clip-path="url(#clip430)" style="stroke:#000000; stroke-linecap:round; stroke-linejoin:round; stroke-width:4; stroke-opacity:1; fill:none" points="140.696,458.556 159.593,458.556 "/>
<polyline clip-path="url(#clip430)" style="stroke:#000000; stroke-linecap:round; stroke-linejoin:round; stroke-width:4; stroke-opacity:1; fill:none" points="140.696,174.921 159.593,174.921 "/>
<path clip-path="url(#clip430)" d="M83.7929 1292.18 L102.149 1292.18 L102.149 1296.12 L88.0753 1296.12 L88.0753 1304.59 Q89.0938 1304.24 90.1123 1304.08 Q91.1308 1303.89 92.1493 1303.89 Q97.9363 1303.89 101.316 1307.07 Q104.696 1310.24 104.696 1315.65 Q104.696 1321.23 101.223 1324.33 Q97.7511 1327.41 91.4317 1327.41 Q89.2558 1327.41 86.9873 1327.04 Q84.7419 1326.67 82.3346 1325.93 L82.3346 1321.23 Q84.4179 1322.37 86.6401 1322.92 Q88.8623 1323.48 91.3391 1323.48 Q95.3437 1323.48 97.6817 1321.37 Q100.02 1319.26 100.02 1315.65 Q100.02 1312.04 97.6817 1309.94 Q95.3437 1307.83 91.3391 1307.83 Q89.4641 1307.83 87.5892 1308.25 Q85.7373 1308.66 83.7929 1309.54 L83.7929 1292.18 Z" fill="#000000" fill-rule="nonzero" fill-opacity="1" /><path clip-path="url(#clip430)" d="M53.3995 1039.17 L61.0384 1039.17 L61.0384 1012.81 L52.7282 1014.47 L52.7282 1010.21 L60.9921 1008.55 L65.668 1008.55 L65.668 1039.17 L73.3068 1039.17 L73.3068 1043.11 L53.3995 1043.11 L53.3995 1039.17 Z" fill="#000000" fill-rule="nonzero" fill-opacity="1" /><path clip-path="url(#clip430)" d="M92.7512 1011.63 Q89.1401 1011.63 87.3114 1015.19 Q85.5058 1018.73 85.5058 1025.86 Q85.5058 1032.97 87.3114 1036.53 Q89.1401 1040.07 92.7512 1040.07 Q96.3854 1040.07 98.1909 1036.53 Q100.02 1032.97 100.02 1025.86 Q100.02 1018.73 98.1909 1015.19 Q96.3854 1011.63 92.7512 1011.63 M92.7512 1007.92 Q98.5613 1007.92 101.617 1012.53 Q104.696 1017.11 104.696 1025.86 Q104.696 1034.59 101.617 1039.19 Q98.5613 1043.78 92.7512 1043.78 Q86.941 1043.78 83.8623 1039.19 Q80.8068 1034.59 80.8068 1025.86 Q80.8068 1017.11 83.8623 1012.53 Q86.941 1007.92 92.7512 1007.92 Z" fill="#000000" fill-rule="nonzero" fill-opacity="1" /><path clip-path="url(#clip430)" d="M54.3949 755.536 L62.0337 755.536 L62.0337 729.171 L53.7236 730.837 L53.7236 726.578 L61.9874 724.911 L66.6633 724.911 L66.6633 755.536 L74.3022 755.536 L74.3022 759.471 L54.3949 759.471 L54.3949 755.536 Z" fill="#000000" fill-rule="nonzero" fill-opacity="1" /><path clip-path="url(#clip430)" d="M83.7929 724.911 L102.149 724.911 L102.149 728.847 L88.0753 728.847 L88.0753 737.319 Q89.0938 736.971 90.1123 736.809 Q91.1308 736.624 92.1493 736.624 Q97.9363 736.624 101.316 739.796 Q104.696 742.967 104.696 748.383 Q104.696 753.962 101.223 757.064 Q97.7511 760.143 91.4317 760.143 Q89.2558 760.143 86.9873 759.772 Q84.7419 759.402 82.3346 758.661 L82.3346 753.962 Q84.4179 755.096 86.6401 755.652 Q88.8623 756.207 91.3391 756.207 Q95.3437 756.207 97.6817 754.101 Q100.02 751.995 100.02 748.383 Q100.02 744.772 97.6817 742.666 Q95.3437 740.559 91.3391 740.559 Q89.4641 740.559 87.5892 740.976 Q85.7373 741.393 83.7929 742.272 L83.7929 724.911 Z" fill="#000000" fill-rule="nonzero" fill-opacity="1" /><path clip-path="url(#clip430)" d="M56.6171 471.901 L72.9365 471.901 L72.9365 475.836 L50.9921 475.836 L50.9921 471.901 Q53.6541 469.146 58.2375 464.517 Q62.8439 459.864 64.0245 458.521 Q66.2698 455.998 67.1494 454.262 Q68.0522 452.503 68.0522 450.813 Q68.0522 448.059 66.1078 446.322 Q64.1865 444.586 61.0847 444.586 Q58.8856 444.586 56.4319 445.35 Q54.0014 446.114 51.2236 447.665 L51.2236 442.943 Q54.0477 441.809 56.5014 441.23 Q58.955 440.651 60.9921 440.651 Q66.3624 440.651 69.5568 443.336 Q72.7513 446.022 72.7513 450.512 Q72.7513 452.642 71.9411 454.563 Q71.1541 456.461 69.0476 459.054 Q68.4689 459.725 65.367 462.943 Q62.2652 466.137 56.6171 471.901 Z" fill="#000000" fill-rule="nonzero" fill-opacity="1" /><path clip-path="url(#clip430)" d="M92.7512 444.355 Q89.1401 444.355 87.3114 447.92 Q85.5058 451.461 85.5058 458.591 Q85.5058 465.697 87.3114 469.262 Q89.1401 472.804 92.7512 472.804 Q96.3854 472.804 98.1909 469.262 Q100.02 465.697 100.02 458.591 Q100.02 451.461 98.1909 447.92 Q96.3854 444.355 92.7512 444.355 M92.7512 440.651 Q98.5613 440.651 101.617 445.258 Q104.696 449.841 104.696 458.591 Q104.696 467.318 101.617 471.924 Q98.5613 476.507 92.7512 476.507 Q86.941 476.507 83.8623 471.924 Q80.8068 467.318 80.8068 458.591 Q80.8068 449.841 83.8623 445.258 Q86.941 440.651 92.7512 440.651 Z" fill="#000000" fill-rule="nonzero" fill-opacity="1" /><path clip-path="url(#clip430)" d="M57.6125 188.266 L73.9318 188.266 L73.9318 192.201 L51.9875 192.201 L51.9875 188.266 Q54.6495 185.511 59.2328 180.882 Q63.8393 176.229 65.0198 174.886 Q67.2652 172.363 68.1448 170.627 Q69.0476 168.868 69.0476 167.178 Q69.0476 164.423 67.1032 162.687 Q65.1819 160.951 62.08 160.951 Q59.881 160.951 57.4273 161.715 Q54.9967 162.479 52.219 164.03 L52.219 159.308 Q55.043 158.173 57.4967 157.595 Q59.9504 157.016 61.9874 157.016 Q67.3578 157.016 70.5522 159.701 Q73.7466 162.386 73.7466 166.877 Q73.7466 169.007 72.9365 170.928 Q72.1494 172.826 70.0429 175.419 Q69.4642 176.09 66.3624 179.308 Q63.2606 182.502 57.6125 188.266 Z" fill="#000000" fill-rule="nonzero" fill-opacity="1" /><path clip-path="url(#clip430)" d="M83.7929 157.641 L102.149 157.641 L102.149 161.576 L88.0753 161.576 L88.0753 170.048 Q89.0938 169.701 90.1123 169.539 Q91.1308 169.354 92.1493 169.354 Q97.9363 169.354 101.316 172.525 Q104.696 175.696 104.696 181.113 Q104.696 186.692 101.223 189.794 Q97.7511 192.872 91.4317 192.872 Q89.2558 192.872 86.9873 192.502 Q84.7419 192.132 82.3346 191.391 L82.3346 186.692 Q84.4179 187.826 86.6401 188.382 Q88.8623 188.937 91.3391 188.937 Q95.3437 188.937 97.6817 186.831 Q100.02 184.724 100.02 181.113 Q100.02 177.502 97.6817 175.396 Q95.3437 173.289 91.3391 173.289 Q89.4641 173.289 87.5892 173.706 Q85.7373 174.122 83.7929 175.002 L83.7929 157.641 Z" fill="#000000" fill-rule="nonzero" fill-opacity="1" /><path clip-path="url(#clip432)" d="M1020.24 1445.72 L1591.12 1445.72 L1591.12 87.9763 L1020.24 87.9763 L1020.24 1445.72 L1020.24 1445.72  Z" fill="#009af9" fill-rule="evenodd" fill-opacity="1"/>
<polyline clip-path="url(#clip432)" style="stroke:#000000; stroke-linecap:round; stroke-linejoin:round; stroke-width:4; stroke-opacity:1; fill:none" points="1020.24,1445.72 1591.12,1445.72 1591.12,87.9763 1020.24,87.9763 1020.24,1445.72 "/>
<path clip-path="url(#clip432)" d="M1005.5 1437.21 L1506.03 1437.21 L1506.03 235.357 L1005.5 235.357 L1005.5 1437.21 L1005.5 1437.21  Z" fill="#e26f46" fill-rule="evenodd" fill-opacity="1"/>
<polyline clip-path="url(#clip432)" style="stroke:#000000; stroke-linecap:round; stroke-linejoin:round; stroke-width:4; stroke-opacity:1; fill:none" points="1005.5,1437.21 1506.03,1437.21 1506.03,235.357 1005.5,235.357 1005.5,1437.21 "/>
<path clip-path="url(#clip432)" d="M990.761 1428.7 L1420.94 1428.7 L1420.94 382.739 L990.761 382.739 L990.761 1428.7 L990.761 1428.7  Z" fill="#3da44d" fill-rule="evenodd" fill-opacity="1"/>
<polyline clip-path="url(#clip432)" style="stroke:#000000; stroke-linecap:round; stroke-linejoin:round; stroke-width:4; stroke-opacity:1; fill:none" points="990.761,1428.7 1420.94,1428.7 1420.94,382.739 990.761,382.739 990.761,1428.7 "/>
<path clip-path="url(#clip432)" d="M976.023 1420.19 L1335.85 1420.19 L1335.85 530.12 L976.023 530.12 L976.023 1420.19 L976.023 1420.19  Z" fill="#c271d2" fill-rule="evenodd" fill-opacity="1"/>
<polyline clip-path="url(#clip432)" style="stroke:#000000; stroke-linecap:round; stroke-linejoin:round; stroke-width:4; stroke-opacity:1; fill:none" points="976.023,1420.19 1335.85,1420.19 1335.85,530.12 976.023,530.12 976.023,1420.19 "/>
<path clip-path="url(#clip432)" d="M961.285 1411.68 L1250.76 1411.68 L1250.76 677.501 L961.285 677.501 L961.285 1411.68 L961.285 1411.68  Z" fill="#ac8d18" fill-rule="evenodd" fill-opacity="1"/>
<polyline clip-path="url(#clip432)" style="stroke:#000000; stroke-linecap:round; stroke-linejoin:round; stroke-width:4; stroke-opacity:1; fill:none" points="961.285,1411.68 1250.76,1411.68 1250.76,677.501 961.285,677.501 961.285,1411.68 "/>
<path clip-path="url(#clip432)" d="M946.547 1403.17 L1165.67 1403.17 L1165.67 824.882 L946.547 824.882 L946.547 1403.17 L946.547 1403.17  Z" fill="#00a9ad" fill-rule="evenodd" fill-opacity="1"/>
<polyline clip-path="url(#clip432)" style="stroke:#000000; stroke-linecap:round; stroke-linejoin:round; stroke-width:4; stroke-opacity:1; fill:none" points="946.547,1403.17 1165.67,1403.17 1165.67,824.882 946.547,824.882 946.547,1403.17 "/>
<path clip-path="url(#clip432)" d="M931.809 1394.66 L1080.58 1394.66 L1080.58 972.263 L931.809 972.263 L931.809 1394.66 L931.809 1394.66  Z" fill="#ed5d92" fill-rule="evenodd" fill-opacity="1"/>
<polyline clip-path="url(#clip432)" style="stroke:#000000; stroke-linecap:round; stroke-linejoin:round; stroke-width:4; stroke-opacity:1; fill:none" points="931.809,1394.66 1080.58,1394.66 1080.58,972.263 931.809,972.263 931.809,1394.66 "/>
<path clip-path="url(#clip432)" d="M917.071 1386.15 L995.485 1386.15 L995.485 1119.64 L917.071 1119.64 L917.071 1386.15 L917.071 1386.15  Z" fill="#c68125" fill-rule="evenodd" fill-opacity="1"/>
<polyline clip-path="url(#clip432)" style="stroke:#000000; stroke-linecap:round; stroke-linejoin:round; stroke-width:4; stroke-opacity:1; fill:none" points="917.071,1386.15 995.485,1386.15 995.485,1119.64 917.071,1119.64 917.071,1386.15 "/>
<path clip-path="url(#clip432)" d="M902.333 1377.64 L910.394 1377.64 L910.394 1267.03 L902.333 1267.03 L902.333 1377.64 L902.333 1377.64  Z" fill="#00a98d" fill-rule="evenodd" fill-opacity="1"/>
<polyline clip-path="url(#clip432)" style="stroke:#000000; stroke-linecap:round; stroke-linejoin:round; stroke-width:4; stroke-opacity:1; fill:none" points="902.333,1377.64 910.394,1377.64 910.394,1267.03 902.333,1267.03 902.333,1377.64 "/>
</svg>
