<?xml version="1.0" encoding="utf-8"?>
<svg xmlns="http://www.w3.org/2000/svg" xmlns:xlink="http://www.w3.org/1999/xlink" width="600" height="400" viewBox="0 0 2400 1600">
<defs>
  <clipPath id="clip340">
    <rect x="0" y="0" width="2400" height="1600"/>
  </clipPath>
</defs>
<path clip-path="url(#clip340)" d="M0 1600 L2400 1600 L2400 0 L0 0  Z" fill="#ffffff" fill-rule="evenodd" fill-opacity="1"/>
<defs>
  <clipPath id="clip341">
    <rect x="480" y="0" width="1681" height="1600"/>
  </clipPath>
</defs>
<path clip-path="url(#clip340)" d="M665.378 1392.94 L1934.85 1392.94 L1934.85 123.472 L665.378 123.472  Z" fill="#ffffff" fill-rule="evenodd" fill-opacity="1"/>
<defs>
  <clipPath id="clip342">
    <rect x="665" y="123" width="1270" height="1270"/>
  </clipPath>
</defs>
<polyline clip-path="url(#clip342)" style="stroke:#000000; stroke-linecap:round; stroke-linejoin:round; stroke-width:2; stroke-opacity:0.1; fill:none" points="723.081,1392.94 723.081,123.472 "/>
<polyline clip-path="url(#clip342)" style="stroke:#000000; stroke-linecap:round; stroke-linejoin:round; stroke-width:2; stroke-opacity:0.1; fill:none" points="1011.6,1392.94 1011.6,123.472 "/>
<polyline clip-path="url(#clip342)" style="stroke:#000000; stroke-linecap:round; stroke-linejoin:round; stroke-width:2; stroke-opacity:0.1; fill:none" points="1300.11,1392.94 1300.11,123.472 "/>
<polyline clip-path="url(#clip342)" style="stroke:#000000; stroke-linecap:round; stroke-linejoin:round; stroke-width:2; stroke-opacity:0.1; fill:none" points="1588.63,1392.94 1588.63,123.472 "/>
<polyline clip-path="url(#clip342)" style="stroke:#000000; stroke-linecap:round; stroke-linejoin:round; stroke-width:2; stroke-opacity:0.1; fill:none" points="1877.14,1392.94 1877.14,123.472 "/>
<polyline clip-path="url(#clip342)" style="stroke:#000000; stroke-linecap:round; stroke-linejoin:round; stroke-width:2; stroke-opacity:0.1; fill:none" points="665.378,1335.24 1934.85,1335.24 "/>
<polyline clip-path="url(#clip342)" style="stroke:#000000; stroke-linecap:round; stroke-linejoin:round; stroke-width:2; stroke-opacity:0.1; fill:none" points="665.378,1046.72 1934.85,1046.72 "/>
<polyline clip-path="url(#clip342)" style="stroke:#000000; stroke-linecap:round; stroke-linejoin:round; stroke-width:2; stroke-opacity:0.1; fill:none" points="665.378,758.206 1934.85,758.206 "/>
<polyline clip-path="url(#clip342)" style="stroke:#000000; stroke-linecap:round; stroke-linejoin:round; stroke-width:2; stroke-opacity:0.1; fill:none" points="665.378,469.691 1934.85,469.691 "/>
<polyline clip-path="url(#clip342)" style="stroke:#000000; stroke-linecap:round; stroke-linejoin:round; stroke-width:2; stroke-opacity:0.1; fill:none" points="665.378,181.175 1934.85,181.175 "/>
<polyline clip-path="url(#clip340)" style="stroke:#000000; stroke-linecap:round; stroke-linejoin:round; stroke-width:4; stroke-opacity:1; fill:none" points="665.378,1392.94 1934.85,1392.94 "/>
<polyline clip-path="url(#clip340)" style="stroke:#000000; stroke-linecap:round; stroke-linejoin:round; stroke-width:4; stroke-opacity:1; fill:none" points="723.081,1392.94 723.081,1374.04 "/>
<polyline clip-path="url(#clip340)" style="stroke:#000000; stroke-linecap:round; stroke-linejoin:round; stroke-width:4; stroke-opacity:1; fill:none" points="1011.6,1392.94 1011.6,1374.04 "/>
<polyline clip-path="url(#clip340)" style="stroke:#000000; stroke-linecap:round; stroke-linejoin:round; stroke-width:4; stroke-opacity:1; fill:none" points="1300.11,1392.94 1300.11,1374.04 "/>
<polyline clip-path="url(#clip340)" style="stroke:#000000; stroke-linecap:round; stroke-linejoin:round; stroke-width:4; stroke-opacity:1; fill:none" points="1588.63,1392.94 1588.63,1374.04 "/>
<polyline clip-path="url(#clip340)" style="stroke:#000000; stroke-linecap:round; stroke-linejoin:round; stroke-width:4; stroke-opacity:1; fill:none" points="1877.14,1392.94 1877.14,1374.04 "/>
<path clip-path="url(#clip340)" d="M685.509 1445.1 L722.603 1445.1 L722.603 1450.02 L685.509 1450.02 L685.509 1445.1 Z" fill="#000000" fill-rule="nonzero" fill-opacity="1" /><path clip-path="url(#clip340)" d="M740.254 1461.22 L760.653 1461.22 L760.653 1466.14 L733.223 1466.14 L733.223 1461.22 Q736.55 1457.78 742.279 1451.99 Q748.037 1446.17 749.513 1444.5 Q752.32 1441.34 753.419 1439.17 Q754.548 1436.97 754.548 1434.86 Q754.548 1431.42 752.117 1429.25 Q749.716 1427.08 745.838 1427.08 Q743.089 1427.08 740.022 1428.03 Q736.984 1428.99 733.512 1430.93 L733.512 1425.02 Q737.042 1423.61 740.109 1422.88 Q743.176 1422.16 745.723 1422.16 Q752.435 1422.16 756.428 1425.52 Q760.422 1428.87 760.422 1434.48 Q760.422 1437.15 759.409 1439.55 Q758.425 1441.92 755.792 1445.16 Q755.069 1446 751.191 1450.02 Q747.314 1454.02 740.254 1461.22 Z" fill="#000000" fill-rule="nonzero" fill-opacity="1" /><path clip-path="url(#clip340)" d="M973.793 1445.1 L1010.89 1445.1 L1010.89 1450.02 L973.793 1450.02 L973.793 1445.1 Z" fill="#000000" fill-rule="nonzero" fill-opacity="1" /><path clip-path="url(#clip340)" d="M1024.52 1461.22 L1034.06 1461.22 L1034.06 1428.26 L1023.68 1430.35 L1023.68 1425.02 L1034.01 1422.94 L1039.85 1422.94 L1039.85 1461.22 L1049.4 1461.22 L1049.4 1466.14 L1024.52 1466.14 L1024.52 1461.22 Z" fill="#000000" fill-rule="nonzero" fill-opacity="1" /><path clip-path="url(#clip340)" d="M1300.11 1426.79 Q1295.6 1426.79 1293.31 1431.24 Q1291.05 1435.67 1291.05 1444.58 Q1291.05 1453.47 1293.31 1457.92 Q1295.6 1462.35 1300.11 1462.35 Q1304.65 1462.35 1306.91 1457.92 Q1309.2 1453.47 1309.2 1444.58 Q1309.2 1435.67 1306.91 1431.24 Q1304.65 1426.79 1300.11 1426.79 M1300.11 1422.16 Q1307.37 1422.16 1311.19 1427.92 Q1315.04 1433.65 1315.04 1444.58 Q1315.04 1455.49 1311.19 1461.25 Q1307.37 1466.98 1300.11 1466.98 Q1292.85 1466.98 1289 1461.25 Q1285.18 1455.49 1285.18 1444.58 Q1285.18 1433.65 1289 1427.92 Q1292.85 1422.16 1300.11 1422.16 Z" fill="#000000" fill-rule="nonzero" fill-opacity="1" /><path clip-path="url(#clip340)" d="M1576.6 1461.22 L1586.15 1461.22 L1586.15 1428.26 L1575.77 1430.35 L1575.77 1425.02 L1586.1 1422.94 L1591.94 1422.94 L1591.94 1461.22 L1601.49 1461.22 L1601.49 1466.14 L1576.6 1466.14 L1576.6 1461.22 Z" fill="#000000" fill-rule="nonzero" fill-opacity="1" /><path clip-path="url(#clip340)" d="M1870.46 1461.22 L1890.86 1461.22 L1890.86 1466.14 L1863.43 1466.14 L1863.43 1461.22 Q1866.75 1457.78 1872.48 1451.99 Q1878.24 1446.17 1879.72 1444.5 Q1882.52 1441.34 1883.62 1439.17 Q1884.75 1436.97 1884.75 1434.86 Q1884.75 1431.42 1882.32 1429.25 Q1879.92 1427.08 1876.04 1427.08 Q1873.29 1427.08 1870.23 1428.03 Q1867.19 1428.99 1863.72 1430.93 L1863.72 1425.02 Q1867.25 1423.61 1870.31 1422.88 Q1873.38 1422.16 1875.93 1422.16 Q1882.64 1422.16 1886.63 1425.52 Q1890.63 1428.87 1890.63 1434.48 Q1890.63 1437.15 1889.61 1439.55 Q1888.63 1441.92 1886 1445.16 Q1885.27 1446 1881.4 1450.02 Q1877.52 1454.02 1870.46 1461.22 Z" fill="#000000" fill-rule="nonzero" fill-opacity="1" /><path clip-path="url(#clip340)" d="M1303.02 1506.31 Q1303.02 1508.94 1301.38 1510.44 Q1299.74 1511.89 1297.87 1511.89 Q1296.09 1511.89 1295.15 1510.86 Q1294.21 1509.83 1294.21 1508.51 Q1294.21 1506.73 1295.53 1505.19 Q1296.84 1503.64 1298.81 1503.32 Q1296.88 1502.1 1294.03 1502.1 Q1292.15 1502.1 1290.51 1503.08 Q1288.92 1504.06 1287.94 1505.33 Q1287 1506.59 1286.16 1508.42 Q1285.36 1510.2 1285.03 1511.28 Q1284.75 1512.31 1284.52 1513.43 L1281.24 1526.55 Q1279.65 1532.78 1279.65 1534.98 Q1279.65 1537.7 1280.96 1539.53 Q1282.27 1541.31 1284.89 1541.31 Q1285.92 1541.31 1287.09 1541.03 Q1288.27 1540.7 1289.76 1539.85 Q1291.31 1538.96 1292.67 1537.65 Q1294.07 1536.29 1295.43 1534 Q1296.79 1531.7 1297.68 1528.75 Q1297.96 1527.72 1298.9 1527.72 Q1300.07 1527.72 1300.07 1528.66 Q1300.07 1529.45 1299.41 1531.14 Q1298.81 1532.78 1297.45 1534.94 Q1296.14 1537.04 1294.4 1538.96 Q1292.67 1540.84 1290.09 1542.15 Q1287.52 1543.46 1284.71 1543.46 Q1280.68 1543.46 1278.01 1541.31 Q1275.34 1539.15 1274.35 1536.15 Q1274.12 1536.57 1273.79 1537.14 Q1273.46 1537.7 1272.48 1538.96 Q1271.54 1540.18 1270.46 1541.12 Q1269.39 1542.01 1267.7 1542.71 Q1266.06 1543.46 1264.28 1543.46 Q1262.03 1543.46 1260.02 1542.81 Q1258.05 1542.15 1256.64 1540.65 Q1255.24 1539.15 1255.24 1537.09 Q1255.24 1534.79 1256.79 1533.2 Q1258.38 1531.56 1260.53 1531.56 Q1261.89 1531.56 1262.97 1532.36 Q1264.09 1533.16 1264.09 1534.89 Q1264.09 1536.81 1262.78 1538.26 Q1261.47 1539.71 1259.6 1540.09 Q1261.52 1541.31 1264.37 1541.31 Q1267.47 1541.31 1269.9 1538.59 Q1272.34 1535.87 1273.51 1531.33 Q1276.41 1520.41 1277.54 1515.54 Q1278.66 1510.62 1278.66 1508.51 Q1278.66 1506.55 1278.15 1505.19 Q1277.63 1503.83 1276.74 1503.22 Q1275.9 1502.57 1275.1 1502.33 Q1274.35 1502.1 1273.51 1502.1 Q1272.1 1502.1 1270.51 1502.66 Q1268.97 1503.22 1267.09 1504.53 Q1265.26 1505.8 1263.53 1508.42 Q1261.8 1511.04 1260.63 1514.65 Q1260.39 1515.73 1259.36 1515.73 Q1258.24 1515.68 1258.24 1514.75 Q1258.24 1513.95 1258.85 1512.31 Q1259.5 1510.62 1260.81 1508.51 Q1262.17 1506.41 1263.91 1504.53 Q1265.69 1502.61 1268.26 1501.3 Q1270.89 1499.99 1273.7 1499.99 Q1274.96 1499.99 1276.18 1500.27 Q1277.44 1500.5 1278.94 1501.21 Q1280.49 1501.91 1281.85 1503.46 Q1283.21 1505 1284.05 1507.25 Q1284.61 1506.17 1285.36 1505.14 Q1286.16 1504.11 1287.38 1502.85 Q1288.64 1501.53 1290.37 1500.79 Q1292.15 1499.99 1294.12 1499.99 Q1296.04 1499.99 1297.92 1500.5 Q1299.79 1500.97 1301.38 1502.52 Q1303.02 1504.02 1303.02 1506.31 Z" fill="#000000" fill-rule="nonzero" fill-opacity="1" /><path clip-path="url(#clip340)" d="M1312.79 1531.69 L1312.79 1529.59 Q1320.86 1529.59 1325.02 1525.3 Q1326.17 1525.3 1326.37 1525.56 Q1326.56 1525.82 1326.56 1527.03 L1326.56 1564.71 Q1326.56 1566.71 1327.55 1567.34 Q1328.53 1567.96 1332.83 1567.96 L1334.96 1567.96 L1334.96 1570.02 Q1332.6 1569.83 1324.07 1569.83 Q1315.55 1569.83 1313.22 1570.02 L1313.22 1567.96 L1315.35 1567.96 Q1319.58 1567.96 1320.6 1567.37 Q1321.61 1566.75 1321.61 1564.71 L1321.61 1529.92 Q1318.1 1531.69 1312.79 1531.69 Z" fill="#000000" fill-rule="nonzero" fill-opacity="1" /><polyline clip-path="url(#clip340)" style="stroke:#000000; stroke-linecap:round; stroke-linejoin:round; stroke-width:4; stroke-opacity:1; fill:none" points="665.378,1392.94 665.378,123.472 "/>
<polyline clip-path="url(#clip340)" style="stroke:#000000; stroke-linecap:round; stroke-linejoin:round; stroke-width:4; stroke-opacity:1; fill:none" points="665.378,1335.24 676.773,1335.24 "/>
<polyline clip-path="url(#clip340)" style="stroke:#000000; stroke-linecap:round; stroke-linejoin:round; stroke-width:4; stroke-opacity:1; fill:none" points="665.378,1046.72 676.773,1046.72 "/>
<polyline clip-path="url(#clip340)" style="stroke:#000000; stroke-linecap:round; stroke-linejoin:round; stroke-width:4; stroke-opacity:1; fill:none" points="665.378,758.206 676.773,758.206 "/>
<polyline clip-path="url(#clip340)" style="stroke:#000000; stroke-linecap:round; stroke-linejoin:round; stroke-width:4; stroke-opacity:1; fill:none" points="665.378,469.691 676.773,469.691 "/>
<polyline clip-path="url(#clip340)" style="stroke:#000000; stroke-linecap:round; stroke-linejoin:round; stroke-width:4; stroke-opacity:1; fill:none" points="665.378,181.175 676.773,181.175 "/>
<path clip-path="url(#clip340)" d="M554.234 1335.8 L591.328 1335.8 L591.328 1340.72 L554.234 1340.72 L554.234 1335.8 Z" fill="#000000" fill-rule="nonzero" fill-opacity="1" /><path clip-path="url(#clip340)" d="M608.979 1351.92 L629.378 1351.92 L629.378 1356.84 L601.947 1356.84 L601.947 1351.92 Q605.275 1348.47 611.004 1342.69 Q616.762 1336.87 618.238 1335.19 Q621.045 1332.04 622.144 1329.87 Q623.272 1327.67 623.272 1325.56 Q623.272 1322.11 620.842 1319.94 Q618.44 1317.77 614.563 1317.77 Q611.814 1317.77 608.747 1318.73 Q605.709 1319.68 602.237 1321.62 L602.237 1315.72 Q605.767 1314.3 608.834 1313.58 Q611.901 1312.86 614.447 1312.86 Q621.16 1312.86 625.153 1316.21 Q629.146 1319.57 629.146 1325.18 Q629.146 1327.84 628.134 1330.25 Q627.15 1332.62 624.517 1335.86 Q623.793 1336.7 619.916 1340.72 Q616.039 1344.71 608.979 1351.92 Z" fill="#000000" fill-rule="nonzero" fill-opacity="1" /><path clip-path="url(#clip340)" d="M553.771 1047.29 L590.865 1047.29 L590.865 1052.2 L553.771 1052.2 L553.771 1047.29 Z" fill="#000000" fill-rule="nonzero" fill-opacity="1" /><path clip-path="url(#clip340)" d="M604.494 1063.4 L614.042 1063.4 L614.042 1030.45 L603.655 1032.53 L603.655 1027.2 L613.984 1025.12 L619.829 1025.12 L619.829 1063.4 L629.378 1063.4 L629.378 1068.32 L604.494 1068.32 L604.494 1063.4 Z" fill="#000000" fill-rule="nonzero" fill-opacity="1" /><path clip-path="url(#clip340)" d="M614.447 740.454 Q609.933 740.454 607.648 744.91 Q605.391 749.337 605.391 758.249 Q605.391 767.132 607.648 771.588 Q609.933 776.015 614.447 776.015 Q618.99 776.015 621.247 771.588 Q623.533 767.132 623.533 758.249 Q623.533 749.337 621.247 744.91 Q618.99 740.454 614.447 740.454 M614.447 735.825 Q621.71 735.825 625.529 741.583 Q629.378 747.312 629.378 758.249 Q629.378 769.158 625.529 774.916 Q621.71 780.645 614.447 780.645 Q607.185 780.645 603.336 774.916 Q599.517 769.158 599.517 758.249 Q599.517 747.312 603.336 741.583 Q607.185 735.825 614.447 735.825 Z" fill="#000000" fill-rule="nonzero" fill-opacity="1" /><path clip-path="url(#clip340)" d="M604.494 486.372 L614.042 486.372 L614.042 453.415 L603.655 455.498 L603.655 450.174 L613.984 448.091 L619.829 448.091 L619.829 486.372 L629.378 486.372 L629.378 491.291 L604.494 491.291 L604.494 486.372 Z" fill="#000000" fill-rule="nonzero" fill-opacity="1" /><path clip-path="url(#clip340)" d="M608.979 197.856 L629.378 197.856 L629.378 202.775 L601.947 202.775 L601.947 197.856 Q605.275 194.413 611.004 188.626 Q616.762 182.81 618.238 181.132 Q621.045 177.978 622.144 175.808 Q623.272 173.609 623.272 171.496 Q623.272 168.053 620.842 165.883 Q618.44 163.713 614.563 163.713 Q611.814 163.713 608.747 164.668 Q605.709 165.623 602.237 167.561 L602.237 161.659 Q605.767 160.241 608.834 159.517 Q611.901 158.794 614.447 158.794 Q621.16 158.794 625.153 162.15 Q629.146 165.507 629.146 171.12 Q629.146 173.782 628.134 176.184 Q627.15 178.557 624.517 181.797 Q623.793 182.636 619.916 186.658 Q616.039 190.651 608.979 197.856 Z" fill="#000000" fill-rule="nonzero" fill-opacity="1" /><path clip-path="url(#clip340)" d="M447.4 757.599 Q450.023 757.599 451.522 759.238 Q452.974 760.878 452.974 762.752 Q452.974 764.532 451.944 765.469 Q450.913 766.405 449.602 766.405 Q447.821 766.405 446.276 765.094 Q444.73 763.782 444.402 761.815 Q443.184 763.735 443.184 766.593 Q443.184 768.467 444.168 770.106 Q445.151 771.699 446.416 772.683 Q447.681 773.62 449.508 774.463 Q451.288 775.259 452.365 775.587 Q453.396 775.868 454.52 776.102 L467.637 779.381 Q473.867 780.974 476.069 780.974 Q478.786 780.974 480.613 779.663 Q482.393 778.351 482.393 775.728 Q482.393 774.697 482.112 773.526 Q481.784 772.355 480.941 770.856 Q480.051 769.31 478.739 767.951 Q477.381 766.546 475.085 765.187 Q472.79 763.829 469.839 762.939 Q468.808 762.658 468.808 761.721 Q468.808 760.55 469.745 760.55 Q470.541 760.55 472.228 761.206 Q473.867 761.815 476.022 763.173 Q478.13 764.485 480.051 766.218 Q481.925 767.951 483.236 770.528 Q484.548 773.104 484.548 775.915 Q484.548 779.944 482.393 782.614 Q480.238 785.284 477.24 786.268 Q477.662 786.502 478.224 786.83 Q478.786 787.158 480.051 788.141 Q481.269 789.078 482.206 790.156 Q483.096 791.233 483.798 792.92 Q484.548 794.559 484.548 796.339 Q484.548 798.588 483.892 800.602 Q483.236 802.57 481.737 803.975 Q480.238 805.38 478.177 805.38 Q475.882 805.38 474.289 803.834 Q472.649 802.242 472.649 800.087 Q472.649 798.728 473.446 797.651 Q474.242 796.527 475.975 796.527 Q477.896 796.527 479.348 797.838 Q480.8 799.15 481.175 801.024 Q482.393 799.103 482.393 796.246 Q482.393 793.154 479.676 790.718 Q476.959 788.282 472.415 787.111 Q461.5 784.206 456.628 783.082 Q451.71 781.958 449.602 781.958 Q447.634 781.958 446.276 782.473 Q444.917 782.989 444.308 783.879 Q443.652 784.722 443.418 785.518 Q443.184 786.268 443.184 787.111 Q443.184 788.516 443.746 790.109 Q444.308 791.655 445.62 793.529 Q446.885 795.356 449.508 797.089 Q452.131 798.822 455.738 799.993 Q456.816 800.227 456.816 801.258 Q456.769 802.382 455.832 802.382 Q455.036 802.382 453.396 801.773 Q451.71 801.117 449.602 799.806 Q447.494 798.447 445.62 796.714 Q443.699 794.934 442.387 792.357 Q441.076 789.734 441.076 786.923 Q441.076 785.659 441.357 784.441 Q441.591 783.176 442.294 781.677 Q442.996 780.131 444.542 778.772 Q446.088 777.414 448.337 776.571 Q447.259 776.009 446.229 775.259 Q445.198 774.463 443.933 773.245 Q442.622 771.98 441.872 770.247 Q441.076 768.467 441.076 766.499 Q441.076 764.578 441.591 762.705 Q442.06 760.831 443.605 759.238 Q445.104 757.599 447.4 757.599 Z" fill="#000000" fill-rule="nonzero" fill-opacity="1" /><path clip-path="url(#clip340)" d="M511.111 747.828 Q509.898 747.828 509.537 747.729 Q509.176 747.598 508.619 747.074 L494.256 734.187 Q486.321 727.136 479.402 727.136 Q474.909 727.136 471.696 729.497 Q468.482 731.826 468.482 736.121 Q468.482 739.073 470.286 741.565 Q472.089 744.057 475.303 745.205 Q475.237 745.008 475.237 744.319 Q475.237 742.647 476.287 741.729 Q477.336 740.778 478.746 740.778 Q480.549 740.778 481.435 741.958 Q482.287 743.106 482.287 744.254 Q482.287 744.713 482.189 745.336 Q482.091 745.926 481.172 746.877 Q480.222 747.828 478.549 747.828 Q473.86 747.828 470.122 744.286 Q466.384 740.712 466.384 735.269 Q466.384 729.104 470.056 725.071 Q473.696 721.004 479.402 721.004 Q481.402 721.004 483.238 721.628 Q485.042 722.218 486.452 723.038 Q487.862 723.825 490.125 725.989 Q492.387 728.153 493.994 729.891 Q495.601 731.629 499.011 735.531 L505.93 742.647 L505.93 730.547 Q505.93 724.644 505.405 724.185 Q504.454 723.529 499.437 722.71 L499.437 721.004 L511.111 722.906 L511.111 747.828 Z" fill="#000000" fill-rule="nonzero" fill-opacity="1" /><path clip-path="url(#clip340)" d="M799.906 14.0809 L799.906 22.0612 Q795.247 19.8332 791.116 18.7395 Q786.984 17.6457 783.135 17.6457 Q776.451 17.6457 772.805 20.2383 Q769.2 22.8309 769.2 27.611 Q769.2 31.6214 771.59 33.6873 Q774.021 35.7128 780.745 36.9686 L785.687 37.9813 Q794.842 39.7232 799.177 44.1387 Q803.552 48.5136 803.552 55.8863 Q803.552 64.6767 797.637 69.2137 Q791.764 73.7508 780.381 73.7508 Q776.087 73.7508 771.226 72.7785 Q766.405 71.8063 761.22 69.9024 L761.22 61.4765 Q766.202 64.2716 770.983 65.6895 Q775.763 67.1073 780.381 67.1073 Q787.389 67.1073 791.197 64.3527 Q795.004 61.598 795.004 56.4939 Q795.004 52.0379 792.25 49.5264 Q789.536 47.0148 783.297 45.759 L778.315 44.7868 Q769.16 42.9639 765.068 39.075 Q760.977 35.1862 760.977 28.2591 Q760.977 20.2383 766.608 15.6203 Q772.279 11.0023 782.204 11.0023 Q786.457 11.0023 790.872 11.7719 Q795.288 12.5416 799.906 14.0809 Z" fill="#000000" fill-rule="nonzero" fill-opacity="1" /><path clip-path="url(#clip340)" d="M823.199 65.7705 L823.199 89.8329 L815.705 89.8329 L815.705 27.2059 L823.199 27.2059 L823.199 34.0924 Q825.548 30.0415 829.113 28.0971 Q832.718 26.1121 837.701 26.1121 Q845.965 26.1121 851.109 32.6746 Q856.295 39.2371 856.295 49.9314 Q856.295 60.6258 851.109 67.1883 Q845.965 73.7508 837.701 73.7508 Q832.718 73.7508 829.113 71.8063 Q825.548 69.8214 823.199 65.7705 M848.557 49.9314 Q848.557 41.7081 845.155 37.0496 Q841.792 32.3505 835.878 32.3505 Q829.964 32.3505 826.561 37.0496 Q823.199 41.7081 823.199 49.9314 Q823.199 58.1548 826.561 62.8538 Q829.964 67.5124 835.878 67.5124 Q841.792 67.5124 845.155 62.8538 Q848.557 58.1548 848.557 49.9314 Z" fill="#000000" fill-rule="nonzero" fill-opacity="1" /><path clip-path="url(#clip340)" d="M907.458 48.0275 L907.458 51.6733 L873.187 51.6733 Q873.673 59.3701 877.805 63.421 Q881.977 67.4314 889.39 67.4314 Q893.684 67.4314 897.695 66.3781 Q901.746 65.3249 905.716 63.2184 L905.716 70.267 Q901.705 71.9684 897.492 72.8596 Q893.279 73.7508 888.945 73.7508 Q878.088 73.7508 871.729 67.4314 Q865.409 61.1119 865.409 50.3365 Q865.409 39.1965 871.404 32.6746 Q877.44 26.1121 887.649 26.1121 Q896.804 26.1121 902.11 32.0264 Q907.458 37.9003 907.458 48.0275 M900.004 45.84 Q899.923 39.7232 896.561 36.0774 Q893.239 32.4315 887.73 32.4315 Q881.491 32.4315 877.724 35.9558 Q873.997 39.4801 873.43 45.8805 L900.004 45.84 Z" fill="#000000" fill-rule="nonzero" fill-opacity="1" /><path clip-path="url(#clip340)" d="M952.342 28.9478 L952.342 35.9153 Q949.182 34.1734 945.982 33.3227 Q942.822 32.4315 939.581 32.4315 Q932.33 32.4315 928.32 37.0496 Q924.309 41.6271 924.309 49.9314 Q924.309 58.2358 928.32 62.8538 Q932.33 67.4314 939.581 67.4314 Q942.822 67.4314 945.982 66.5807 Q949.182 65.6895 952.342 63.9476 L952.342 70.8341 Q949.222 72.2924 945.86 73.0216 Q942.538 73.7508 938.771 73.7508 Q928.522 73.7508 922.486 67.3098 Q916.451 60.8689 916.451 49.9314 Q916.451 38.832 922.527 32.472 Q928.644 26.1121 939.257 26.1121 Q942.7 26.1121 945.982 26.8413 Q949.263 27.5299 952.342 28.9478 Z" fill="#000000" fill-rule="nonzero" fill-opacity="1" /><path clip-path="url(#clip340)" d="M965.304 27.2059 L972.758 27.2059 L972.758 72.576 L965.304 72.576 L965.304 27.2059 M965.304 9.54393 L972.758 9.54393 L972.758 18.9825 L965.304 18.9825 L965.304 9.54393 Z" fill="#000000" fill-rule="nonzero" fill-opacity="1" /><path clip-path="url(#clip340)" d="M1011.32 9.54393 L1011.32 15.7418 L1004.19 15.7418 Q1000.18 15.7418 998.603 17.3622 Q997.064 18.9825 997.064 23.1955 L997.064 27.2059 L1009.34 27.2059 L1009.34 32.9987 L997.064 32.9987 L997.064 72.576 L989.569 72.576 L989.569 32.9987 L982.44 32.9987 L982.44 27.2059 L989.569 27.2059 L989.569 24.0462 Q989.569 16.471 993.094 13.0277 Q996.618 9.54393 1004.27 9.54393 L1011.32 9.54393 Z" fill="#000000" fill-rule="nonzero" fill-opacity="1" /><path clip-path="url(#clip340)" d="M1017.56 27.2059 L1025.01 27.2059 L1025.01 72.576 L1017.56 72.576 L1017.56 27.2059 M1017.56 9.54393 L1025.01 9.54393 L1025.01 18.9825 L1017.56 18.9825 L1017.56 9.54393 Z" fill="#000000" fill-rule="nonzero" fill-opacity="1" /><path clip-path="url(#clip340)" d="M1073.26 28.9478 L1073.26 35.9153 Q1070.1 34.1734 1066.9 33.3227 Q1063.74 32.4315 1060.5 32.4315 Q1053.25 32.4315 1049.24 37.0496 Q1045.23 41.6271 1045.23 49.9314 Q1045.23 58.2358 1049.24 62.8538 Q1053.25 67.4314 1060.5 67.4314 Q1063.74 67.4314 1066.9 66.5807 Q1070.1 65.6895 1073.26 63.9476 L1073.26 70.8341 Q1070.14 72.2924 1066.78 73.0216 Q1063.46 73.7508 1059.69 73.7508 Q1049.44 73.7508 1043.41 67.3098 Q1037.37 60.8689 1037.37 49.9314 Q1037.37 38.832 1043.45 32.472 Q1049.56 26.1121 1060.18 26.1121 Q1063.62 26.1121 1066.9 26.8413 Q1070.18 27.5299 1073.26 28.9478 Z" fill="#000000" fill-rule="nonzero" fill-opacity="1" /><path clip-path="url(#clip340)" d="M1093.6 14.324 L1093.6 27.2059 L1108.95 27.2059 L1108.95 32.9987 L1093.6 32.9987 L1093.6 57.6282 Q1093.6 63.1779 1095.1 64.7578 Q1096.63 66.3376 1101.29 66.3376 L1108.95 66.3376 L1108.95 72.576 L1101.29 72.576 Q1092.66 72.576 1089.38 69.3758 Q1086.1 66.1351 1086.1 57.6282 L1086.1 32.9987 L1080.63 32.9987 L1080.63 27.2059 L1086.1 27.2059 L1086.1 14.324 L1093.6 14.324 Z" fill="#000000" fill-rule="nonzero" fill-opacity="1" /><path clip-path="url(#clip340)" d="M1118.75 27.2059 L1126.21 27.2059 L1126.21 72.576 L1118.75 72.576 L1118.75 27.2059 M1118.75 9.54393 L1126.21 9.54393 L1126.21 18.9825 L1118.75 18.9825 L1118.75 9.54393 Z" fill="#000000" fill-rule="nonzero" fill-opacity="1" /><path clip-path="url(#clip340)" d="M1159.38 32.4315 Q1153.39 32.4315 1149.9 37.1306 Q1146.42 41.7891 1146.42 49.9314 Q1146.42 58.0738 1149.86 62.7728 Q1153.35 67.4314 1159.38 67.4314 Q1165.34 67.4314 1168.82 62.7323 Q1172.31 58.0333 1172.31 49.9314 Q1172.31 41.8701 1168.82 37.1711 Q1165.34 32.4315 1159.38 32.4315 M1159.38 26.1121 Q1169.11 26.1121 1174.66 32.4315 Q1180.2 38.7509 1180.2 49.9314 Q1180.2 61.0714 1174.66 67.4314 Q1169.11 73.7508 1159.38 73.7508 Q1149.62 73.7508 1144.07 67.4314 Q1138.56 61.0714 1138.56 49.9314 Q1138.56 38.7509 1144.07 32.4315 Q1149.62 26.1121 1159.38 26.1121 Z" fill="#000000" fill-rule="nonzero" fill-opacity="1" /><path clip-path="url(#clip340)" d="M1230.27 45.1919 L1230.27 72.576 L1222.82 72.576 L1222.82 45.4349 Q1222.82 38.994 1220.31 35.7938 Q1217.8 32.5936 1212.77 32.5936 Q1206.74 32.5936 1203.25 36.4419 Q1199.77 40.2903 1199.77 46.9338 L1199.77 72.576 L1192.28 72.576 L1192.28 27.2059 L1199.77 27.2059 L1199.77 34.2544 Q1202.44 30.163 1206.05 28.1376 Q1209.7 26.1121 1214.44 26.1121 Q1222.25 26.1121 1226.26 30.9732 Q1230.27 35.7938 1230.27 45.1919 Z" fill="#000000" fill-rule="nonzero" fill-opacity="1" /><path clip-path="url(#clip340)" d="M1274.06 28.5427 L1274.06 35.5912 Q1270.9 33.9709 1267.5 33.1607 Q1264.1 32.3505 1260.45 32.3505 Q1254.9 32.3505 1252.11 34.0519 Q1249.35 35.7533 1249.35 39.156 Q1249.35 41.7486 1251.34 43.2475 Q1253.32 44.7058 1259.32 46.0426 L1261.87 46.6097 Q1269.81 48.3111 1273.13 51.4303 Q1276.49 54.509 1276.49 60.0587 Q1276.49 66.3781 1271.47 70.0644 Q1266.49 73.7508 1257.74 73.7508 Q1254.09 73.7508 1250.12 73.0216 Q1246.19 72.3329 1241.82 70.9151 L1241.82 63.2184 Q1245.95 65.3654 1249.96 66.4591 Q1253.97 67.5124 1257.9 67.5124 Q1263.17 67.5124 1266 65.73 Q1268.84 63.9071 1268.84 60.6258 Q1268.84 57.5877 1266.77 55.9673 Q1264.75 54.3469 1257.82 52.8481 L1255.23 52.2405 Q1248.3 50.7821 1245.22 47.7845 Q1242.14 44.7463 1242.14 39.4801 Q1242.14 33.0797 1246.68 29.5959 Q1251.22 26.1121 1259.56 26.1121 Q1263.69 26.1121 1267.34 26.7198 Q1270.99 27.3274 1274.06 28.5427 Z" fill="#000000" fill-rule="nonzero" fill-opacity="1" /><path clip-path="url(#clip340)" d="M1335.35 49.7694 Q1326.32 49.7694 1322.84 51.8354 Q1319.35 53.9013 1319.35 58.8839 Q1319.35 62.8538 1321.95 65.2034 Q1324.58 67.5124 1329.08 67.5124 Q1335.27 67.5124 1339 63.1374 Q1342.77 58.7219 1342.77 51.4303 L1342.77 49.7694 L1335.35 49.7694 M1350.22 46.6907 L1350.22 72.576 L1342.77 72.576 L1342.77 65.6895 Q1340.22 69.8214 1336.41 71.8063 Q1332.6 73.7508 1327.09 73.7508 Q1320.12 73.7508 1315.99 69.8619 Q1311.9 65.9325 1311.9 59.3701 Q1311.9 51.7138 1317 47.825 Q1322.15 43.9361 1332.32 43.9361 L1342.77 43.9361 L1342.77 43.2069 Q1342.77 38.0623 1339.36 35.2672 Q1336 32.4315 1329.89 32.4315 Q1326 32.4315 1322.31 33.3632 Q1318.62 34.295 1315.22 36.1584 L1315.22 29.2718 Q1319.31 27.692 1323.16 26.9223 Q1327.01 26.1121 1330.66 26.1121 Q1340.5 26.1121 1345.36 31.2163 Q1350.22 36.3204 1350.22 46.6907 Z" fill="#000000" fill-rule="nonzero" fill-opacity="1" /><path clip-path="url(#clip340)" d="M1403.29 45.1919 L1403.29 72.576 L1395.83 72.576 L1395.83 45.4349 Q1395.83 38.994 1393.32 35.7938 Q1390.81 32.5936 1385.79 32.5936 Q1379.75 32.5936 1376.27 36.4419 Q1372.78 40.2903 1372.78 46.9338 L1372.78 72.576 L1365.29 72.576 L1365.29 27.2059 L1372.78 27.2059 L1372.78 34.2544 Q1375.46 30.163 1379.06 28.1376 Q1382.71 26.1121 1387.45 26.1121 Q1395.27 26.1121 1399.28 30.9732 Q1403.29 35.7938 1403.29 45.1919 Z" fill="#000000" fill-rule="nonzero" fill-opacity="1" /><path clip-path="url(#clip340)" d="M1448.01 34.0924 L1448.01 9.54393 L1455.46 9.54393 L1455.46 72.576 L1448.01 72.576 L1448.01 65.7705 Q1445.66 69.8214 1442.06 71.8063 Q1438.49 73.7508 1433.47 73.7508 Q1425.24 73.7508 1420.06 67.1883 Q1414.91 60.6258 1414.91 49.9314 Q1414.91 39.2371 1420.06 32.6746 Q1425.24 26.1121 1433.47 26.1121 Q1438.49 26.1121 1442.06 28.0971 Q1445.66 30.0415 1448.01 34.0924 M1422.61 49.9314 Q1422.61 58.1548 1425.97 62.8538 Q1429.38 67.5124 1435.29 67.5124 Q1441.2 67.5124 1444.61 62.8538 Q1448.01 58.1548 1448.01 49.9314 Q1448.01 41.7081 1444.61 37.0496 Q1441.2 32.3505 1435.29 32.3505 Q1429.38 32.3505 1425.97 37.0496 Q1422.61 41.7081 1422.61 49.9314 Z" fill="#000000" fill-rule="nonzero" fill-opacity="1" /><path clip-path="url(#clip340)" d="M1527.04 34.0924 L1527.04 9.54393 L1534.5 9.54393 L1534.5 72.576 L1527.04 72.576 L1527.04 65.7705 Q1524.69 69.8214 1521.09 71.8063 Q1517.52 73.7508 1512.5 73.7508 Q1504.28 73.7508 1499.09 67.1883 Q1493.95 60.6258 1493.95 49.9314 Q1493.95 39.2371 1499.09 32.6746 Q1504.28 26.1121 1512.5 26.1121 Q1517.52 26.1121 1521.09 28.0971 Q1524.69 30.0415 1527.04 34.0924 M1501.64 49.9314 Q1501.64 58.1548 1505.01 62.8538 Q1508.41 67.5124 1514.32 67.5124 Q1520.24 67.5124 1523.64 62.8538 Q1527.04 58.1548 1527.04 49.9314 Q1527.04 41.7081 1523.64 37.0496 Q1520.24 32.3505 1514.32 32.3505 Q1508.41 32.3505 1505.01 37.0496 Q1501.64 41.7081 1501.64 49.9314 Z" fill="#000000" fill-rule="nonzero" fill-opacity="1" /><path clip-path="url(#clip340)" d="M1567.43 32.4315 Q1561.44 32.4315 1557.95 37.1306 Q1554.47 41.7891 1554.47 49.9314 Q1554.47 58.0738 1557.91 62.7728 Q1561.39 67.4314 1567.43 67.4314 Q1573.39 67.4314 1576.87 62.7323 Q1580.35 58.0333 1580.35 49.9314 Q1580.35 41.8701 1576.87 37.1711 Q1573.39 32.4315 1567.43 32.4315 M1567.43 26.1121 Q1577.15 26.1121 1582.7 32.4315 Q1588.25 38.7509 1588.25 49.9314 Q1588.25 61.0714 1582.7 67.4314 Q1577.15 73.7508 1567.43 73.7508 Q1557.67 73.7508 1552.12 67.4314 Q1546.61 61.0714 1546.61 49.9314 Q1546.61 38.7509 1552.12 32.4315 Q1557.67 26.1121 1567.43 26.1121 Z" fill="#000000" fill-rule="nonzero" fill-opacity="1" /><path clip-path="url(#clip340)" d="M1635.93 35.9153 Q1638.73 30.8922 1642.62 28.5022 Q1646.5 26.1121 1651.77 26.1121 Q1658.86 26.1121 1662.71 31.0947 Q1666.56 36.0368 1666.56 45.1919 L1666.56 72.576 L1659.06 72.576 L1659.06 45.4349 Q1659.06 38.913 1656.75 35.7533 Q1654.44 32.5936 1649.7 32.5936 Q1643.91 32.5936 1640.55 36.4419 Q1637.19 40.2903 1637.19 46.9338 L1637.19 72.576 L1629.69 72.576 L1629.69 45.4349 Q1629.69 38.8725 1627.38 35.7533 Q1625.08 32.5936 1620.25 32.5936 Q1614.54 32.5936 1611.18 36.4824 Q1607.82 40.3308 1607.82 46.9338 L1607.82 72.576 L1600.32 72.576 L1600.32 27.2059 L1607.82 27.2059 L1607.82 34.2544 Q1610.37 30.082 1613.94 28.0971 Q1617.5 26.1121 1622.4 26.1121 Q1627.34 26.1121 1630.79 28.6237 Q1634.27 31.1352 1635.93 35.9153 Z" fill="#000000" fill-rule="nonzero" fill-opacity="1" /><path clip-path="url(#clip340)" d="M1702.04 49.7694 Q1693.01 49.7694 1689.53 51.8354 Q1686.04 53.9013 1686.04 58.8839 Q1686.04 62.8538 1688.63 65.2034 Q1691.27 67.5124 1695.76 67.5124 Q1701.96 67.5124 1705.69 63.1374 Q1709.46 58.7219 1709.46 51.4303 L1709.46 49.7694 L1702.04 49.7694 M1716.91 46.6907 L1716.91 72.576 L1709.46 72.576 L1709.46 65.6895 Q1706.9 69.8214 1703.1 71.8063 Q1699.29 73.7508 1693.78 73.7508 Q1686.81 73.7508 1682.68 69.8619 Q1678.59 65.9325 1678.59 59.3701 Q1678.59 51.7138 1683.69 47.825 Q1688.84 43.9361 1699 43.9361 L1709.46 43.9361 L1709.46 43.2069 Q1709.46 38.0623 1706.05 35.2672 Q1702.69 32.4315 1696.57 32.4315 Q1692.68 32.4315 1689 33.3632 Q1685.31 34.295 1681.91 36.1584 L1681.91 29.2718 Q1686 27.692 1689.85 26.9223 Q1693.7 26.1121 1697.34 26.1121 Q1707.19 26.1121 1712.05 31.2163 Q1716.91 36.3204 1716.91 46.6907 Z" fill="#000000" fill-rule="nonzero" fill-opacity="1" /><path clip-path="url(#clip340)" d="M1732.26 27.2059 L1739.72 27.2059 L1739.72 72.576 L1732.26 72.576 L1732.26 27.2059 M1732.26 9.54393 L1739.72 9.54393 L1739.72 18.9825 L1732.26 18.9825 L1732.26 9.54393 Z" fill="#000000" fill-rule="nonzero" fill-opacity="1" /><path clip-path="url(#clip340)" d="M1793.03 45.1919 L1793.03 72.576 L1785.57 72.576 L1785.57 45.4349 Q1785.57 38.994 1783.06 35.7938 Q1780.55 32.5936 1775.53 32.5936 Q1769.49 32.5936 1766.01 36.4419 Q1762.52 40.2903 1762.52 46.9338 L1762.52 72.576 L1755.03 72.576 L1755.03 27.2059 L1762.52 27.2059 L1762.52 34.2544 Q1765.2 30.163 1768.8 28.1376 Q1772.45 26.1121 1777.19 26.1121 Q1785 26.1121 1789.02 30.9732 Q1793.03 35.7938 1793.03 45.1919 Z" fill="#000000" fill-rule="nonzero" fill-opacity="1" /><path clip-path="url(#clip340)" d="M1836.82 28.5427 L1836.82 35.5912 Q1833.66 33.9709 1830.25 33.1607 Q1826.85 32.3505 1823.2 32.3505 Q1817.66 32.3505 1814.86 34.0519 Q1812.11 35.7533 1812.11 39.156 Q1812.11 41.7486 1814.09 43.2475 Q1816.08 44.7058 1822.07 46.0426 L1824.62 46.6097 Q1832.56 48.3111 1835.88 51.4303 Q1839.25 54.509 1839.25 60.0587 Q1839.25 66.3781 1834.22 70.0644 Q1829.24 73.7508 1820.49 73.7508 Q1816.84 73.7508 1812.88 73.0216 Q1808.95 72.3329 1804.57 70.9151 L1804.57 63.2184 Q1808.7 65.3654 1812.71 66.4591 Q1816.72 67.5124 1820.65 67.5124 Q1825.92 67.5124 1828.75 65.73 Q1831.59 63.9071 1831.59 60.6258 Q1831.59 57.5877 1829.52 55.9673 Q1827.5 54.3469 1820.57 52.8481 L1817.98 52.2405 Q1811.05 50.7821 1807.97 47.7845 Q1804.89 44.7463 1804.89 39.4801 Q1804.89 33.0797 1809.43 29.5959 Q1813.97 26.1121 1822.31 26.1121 Q1826.45 26.1121 1830.09 26.7198 Q1833.74 27.3274 1836.82 28.5427 Z" fill="#000000" fill-rule="nonzero" fill-opacity="1" /><path clip-path="url(#clip342)" d="M723.081 1335.24 L1877.14 1335.24 L1877.14 181.175 L723.081 181.175 L723.081 1335.24 L723.081 1335.24  Z" fill="#ffff00" fill-rule="evenodd" fill-opacity="0.5"/>
<polyline clip-path="url(#clip342)" style="stroke:#000000; stroke-linecap:round; stroke-linejoin:round; stroke-width:4; stroke-opacity:0.5; fill:none" points="723.081,1335.24 1877.14,1335.24 1877.14,181.175 723.081,181.175 723.081,1335.24 "/>
<path clip-path="url(#clip342)" d="M1300.11 1046.72 L1372.24 1046.72 L1372.24 325.433 L1300.11 325.433 L1300.11 1046.72 L1300.11 1046.72  Z" fill="#ffff00" fill-rule="evenodd" fill-opacity="0.5"/>
<polyline clip-path="url(#clip342)" style="stroke:#000000; stroke-linecap:round; stroke-linejoin:round; stroke-width:4; stroke-opacity:0.5; fill:none" points="1300.11,1046.72 1372.24,1046.72 1372.24,325.433 1300.11,325.433 1300.11,1046.72 "/>
<path clip-path="url(#clip342)" d="M1300.11 397.562 L1588.63 397.562 L1588.63 325.433 L1300.11 325.433 L1300.11 397.562 L1300.11 397.562  Z" fill="#ffff00" fill-rule="evenodd" fill-opacity="0.5"/>
<polyline clip-path="url(#clip342)" style="stroke:#000000; stroke-linecap:round; stroke-linejoin:round; stroke-width:4; stroke-opacity:0.5; fill:none" points="1300.11,397.562 1588.63,397.562 1588.63,325.433 1300.11,325.433 1300.11,397.562 "/>
<path clip-path="url(#clip342)" d="M771.167 1287.15 L1829.06 1287.15 L1829.06 229.261 L771.167 229.261 L771.167 1287.15 L771.167 1287.15  Z" fill="#0000ff" fill-rule="evenodd" fill-opacity="0.5"/>
<polyline clip-path="url(#clip342)" style="stroke:#000000; stroke-linecap:round; stroke-linejoin:round; stroke-width:4; stroke-opacity:0.5; fill:none" points="771.167,1287.15 1829.06,1287.15 1829.06,229.261 771.167,229.261 771.167,1287.15 "/>
<path clip-path="url(#clip342)" d="M771.167 1190.98 L1732.88 1190.98 L1732.88 229.261 L771.167 229.261 L771.167 1190.98 L771.167 1190.98  Z" fill="#0000ff" fill-rule="evenodd" fill-opacity="0.5"/>
<polyline clip-path="url(#clip342)" style="stroke:#000000; stroke-linecap:round; stroke-linejoin:round; stroke-width:4; stroke-opacity:0.5; fill:none" points="771.167,1190.98 1732.88,1190.98 1732.88,229.261 771.167,229.261 771.167,1190.98 "/>
<path clip-path="url(#clip342)" d="M771.167 1094.81 L1252.03 1094.81 L1252.03 229.261 L771.167 229.261 L771.167 1094.81 L771.167 1094.81  Z" fill="#0000ff" fill-rule="evenodd" fill-opacity="0.5"/>
<polyline clip-path="url(#clip342)" style="stroke:#000000; stroke-linecap:round; stroke-linejoin:round; stroke-width:4; stroke-opacity:0.5; fill:none" points="771.167,1094.81 1252.03,1094.81 1252.03,229.261 771.167,229.261 771.167,1094.81 "/>
<path clip-path="url(#clip342)" d="M771.167 998.635 L1155.85 998.635 L1155.85 229.261 L771.167 229.261 L771.167 998.635 L771.167 998.635  Z" fill="#0000ff" fill-rule="evenodd" fill-opacity="0.5"/>
<polyline clip-path="url(#clip342)" style="stroke:#000000; stroke-linecap:round; stroke-linejoin:round; stroke-width:4; stroke-opacity:0.5; fill:none" points="771.167,998.635 1155.85,998.635 1155.85,229.261 771.167,229.261 771.167,998.635 "/>
<path clip-path="url(#clip342)" d="M771.167 902.464 L1059.68 902.464 L1059.68 229.261 L771.167 229.261 L771.167 902.464 L771.167 902.464  Z" fill="#0000ff" fill-rule="evenodd" fill-opacity="0.5"/>
<polyline clip-path="url(#clip342)" style="stroke:#000000; stroke-linecap:round; stroke-linejoin:round; stroke-width:4; stroke-opacity:0.5; fill:none" points="771.167,902.464 1059.68,902.464 1059.68,229.261 771.167,229.261 771.167,902.464 "/>
<path clip-path="url(#clip342)" d="M771.167 806.292 L963.51 806.292 L963.51 229.261 L771.167 229.261 L771.167 806.292 L771.167 806.292  Z" fill="#0000ff" fill-rule="evenodd" fill-opacity="0.5"/>
<polyline clip-path="url(#clip342)" style="stroke:#000000; stroke-linecap:round; stroke-linejoin:round; stroke-width:4; stroke-opacity:0.5; fill:none" points="771.167,806.292 963.51,806.292 963.51,229.261 771.167,229.261 771.167,806.292 "/>
<path clip-path="url(#clip342)" d="M771.167 710.12 L867.339 710.12 L867.339 229.261 L771.167 229.261 L771.167 710.12 L771.167 710.12  Z" fill="#0000ff" fill-rule="evenodd" fill-opacity="0.5"/>
<polyline clip-path="url(#clip342)" style="stroke:#000000; stroke-linecap:round; stroke-linejoin:round; stroke-width:4; stroke-opacity:0.5; fill:none" points="771.167,710.12 867.339,710.12 867.339,229.261 771.167,229.261 771.167,710.12 "/>
<path clip-path="url(#clip342)" d="M1444.37 1094.81 L1636.71 1094.81 L1636.71 421.605 L1444.37 421.605 L1444.37 1094.81 L1444.37 1094.81  Z" fill="#0000ff" fill-rule="evenodd" fill-opacity="0.5"/>
<polyline clip-path="url(#clip342)" style="stroke:#000000; stroke-linecap:round; stroke-linejoin:round; stroke-width:4; stroke-opacity:0.5; fill:none" points="1444.37,1094.81 1636.71,1094.81 1636.71,421.605 1444.37,421.605 1444.37,1094.81 "/>
<path clip-path="url(#clip342)" d="M1444.37 998.635 L1540.54 998.635 L1540.54 421.605 L1444.37 421.605 L1444.37 998.635 L1444.37 998.635  Z" fill="#0000ff" fill-rule="evenodd" fill-opacity="0.5"/>
<polyline clip-path="url(#clip342)" style="stroke:#000000; stroke-linecap:round; stroke-linejoin:round; stroke-width:4; stroke-opacity:0.5; fill:none" points="1444.37,998.635 1540.54,998.635 1540.54,421.605 1444.37,421.605 1444.37,998.635 "/>
<path clip-path="url(#clip342)" d="M1732.88 1287.15 L1829.06 1287.15 L1829.06 1190.98 L1732.88 1190.98 L1732.88 1287.15 L1732.88 1287.15  Z" fill="#008000" fill-rule="evenodd" fill-opacity="0.5"/>
<polyline clip-path="url(#clip342)" style="stroke:#000000; stroke-linecap:round; stroke-linejoin:round; stroke-width:4; stroke-opacity:0.5; fill:none" points="1732.88,1287.15 1829.06,1287.15 1829.06,1190.98 1732.88,1190.98 1732.88,1287.15 "/>
<path clip-path="url(#clip342)" d="M867.339 517.776 L963.51 517.776 L963.51 421.605 L867.339 421.605 L867.339 517.776 L867.339 517.776  Z" fill="#ff0000" fill-rule="evenodd" fill-opacity="0.5"/>
<polyline clip-path="url(#clip342)" style="stroke:#000000; stroke-linecap:round; stroke-linejoin:round; stroke-width:4; stroke-opacity:0.5; fill:none" points="867.339,517.776 963.51,517.776 963.51,421.605 867.339,421.605 867.339,517.776 "/>
<circle clip-path="url(#clip342)" cx="1819.44" cy="1277.53" r="14.4" fill="#008000" fill-rule="evenodd" fill-opacity="1" stroke="#000000" stroke-opacity="1" stroke-width="3.2"/>
<circle clip-path="url(#clip342)" cx="867.339" cy="469.691" r="14.4" fill="#ff0000" fill-rule="evenodd" fill-opacity="1" stroke="#000000" stroke-opacity="1" stroke-width="3.2"/>
<path clip-path="url(#clip340)" d="M1601.13 373.148 L1864.67 373.148 L1864.67 165.788 L1601.13 165.788  Z" fill="#ffffff" fill-rule="evenodd" fill-opacity="1"/>
<polyline clip-path="url(#clip340)" style="stroke:#000000; stroke-linecap:round; stroke-linejoin:round; stroke-width:4; stroke-opacity:1; fill:none" points="1601.13,373.148 1864.67,373.148 1864.67,165.788 1601.13,165.788 1601.13,373.148 "/>
<path clip-path="url(#clip340)" d="M1624.52 238.364 L1764.88 238.364 L1764.88 196.892 L1624.52 196.892 L1624.52 238.364  Z" fill="#ffff00" fill-rule="evenodd" fill-opacity="0.5"/>
<polyline clip-path="url(#clip340)" style="stroke:#000000; stroke-linecap:round; stroke-linejoin:round; stroke-width:4; stroke-opacity:1; fill:none" points="1624.52,238.364 1764.88,238.364 1764.88,196.892 1624.52,196.892 1624.52,238.364 "/>
<path clip-path="url(#clip340)" d="M1802.11 237.315 Q1800.31 241.945 1798.59 243.357 Q1796.88 244.769 1794.01 244.769 L1790.61 244.769 L1790.61 241.204 L1793.11 241.204 Q1794.87 241.204 1795.84 240.371 Q1796.81 239.537 1797.99 236.435 L1798.75 234.491 L1788.27 208.982 L1792.78 208.982 L1800.88 229.26 L1808.99 208.982 L1813.5 208.982 L1802.11 237.315 Z" fill="#000000" fill-rule="nonzero" fill-opacity="1" /><path clip-path="url(#clip340)" d="M1820.79 230.973 L1828.43 230.973 L1828.43 204.607 L1820.12 206.274 L1820.12 202.014 L1828.38 200.348 L1833.06 200.348 L1833.06 230.973 L1840.7 230.973 L1840.7 234.908 L1820.79 234.908 L1820.79 230.973 Z" fill="#000000" fill-rule="nonzero" fill-opacity="1" /><path clip-path="url(#clip340)" d="M1624.52 290.204 L1764.88 290.204 L1764.88 248.732 L1624.52 248.732 L1624.52 290.204  Z" fill="#ffff00" fill-rule="evenodd" fill-opacity="0.5"/>
<polyline clip-path="url(#clip340)" style="stroke:#000000; stroke-linecap:round; stroke-linejoin:round; stroke-width:4; stroke-opacity:1; fill:none" points="1624.52,290.204 1764.88,290.204 1764.88,248.732 1624.52,248.732 1624.52,290.204 "/>
<path clip-path="url(#clip340)" d="M1802.11 289.155 Q1800.31 293.785 1798.59 295.197 Q1796.88 296.609 1794.01 296.609 L1790.61 296.609 L1790.61 293.044 L1793.11 293.044 Q1794.87 293.044 1795.84 292.211 Q1796.81 291.377 1797.99 288.275 L1798.75 286.331 L1788.27 260.822 L1792.78 260.822 L1800.88 281.1 L1808.99 260.822 L1813.5 260.822 L1802.11 289.155 Z" fill="#000000" fill-rule="nonzero" fill-opacity="1" /><path clip-path="url(#clip340)" d="M1824.01 282.813 L1840.33 282.813 L1840.33 286.748 L1818.38 286.748 L1818.38 282.813 Q1821.05 280.058 1825.63 275.428 Q1830.24 270.776 1831.42 269.433 Q1833.66 266.91 1834.54 265.174 Q1835.44 263.415 1835.44 261.725 Q1835.44 258.97 1833.5 257.234 Q1831.58 255.498 1828.48 255.498 Q1826.28 255.498 1823.82 256.262 Q1821.39 257.026 1818.62 258.577 L1818.62 253.854 Q1821.44 252.72 1823.89 252.141 Q1826.35 251.563 1828.38 251.563 Q1833.75 251.563 1836.95 254.248 Q1840.14 256.933 1840.14 261.424 Q1840.14 263.553 1839.33 265.475 Q1838.55 267.373 1836.44 269.965 Q1835.86 270.637 1832.76 273.854 Q1829.66 277.049 1824.01 282.813 Z" fill="#000000" fill-rule="nonzero" fill-opacity="1" /><path clip-path="url(#clip340)" d="M1624.52 342.044 L1764.88 342.044 L1764.88 300.572 L1624.52 300.572 L1624.52 342.044  Z" fill="#ffff00" fill-rule="evenodd" fill-opacity="0.5"/>
<polyline clip-path="url(#clip340)" style="stroke:#000000; stroke-linecap:round; stroke-linejoin:round; stroke-width:4; stroke-opacity:1; fill:none" points="1624.52,342.044 1764.88,342.044 1764.88,300.572 1624.52,300.572 1624.52,342.044 "/>
<path clip-path="url(#clip340)" d="M1802.11 340.995 Q1800.31 345.625 1798.59 347.037 Q1796.88 348.449 1794.01 348.449 L1790.61 348.449 L1790.61 344.884 L1793.11 344.884 Q1794.87 344.884 1795.84 344.051 Q1796.81 343.217 1797.99 340.115 L1798.75 338.171 L1788.27 312.662 L1792.78 312.662 L1800.88 332.94 L1808.99 312.662 L1813.5 312.662 L1802.11 340.995 Z" fill="#000000" fill-rule="nonzero" fill-opacity="1" /><path clip-path="url(#clip340)" d="M1834.15 319.954 Q1837.5 320.671 1839.38 322.94 Q1841.28 325.208 1841.28 328.541 Q1841.28 333.657 1837.76 336.458 Q1834.24 339.259 1827.76 339.259 Q1825.58 339.259 1823.27 338.819 Q1820.98 338.403 1818.52 337.546 L1818.52 333.032 Q1820.47 334.166 1822.78 334.745 Q1825.1 335.324 1827.62 335.324 Q1832.02 335.324 1834.31 333.588 Q1836.62 331.852 1836.62 328.541 Q1836.62 325.486 1834.47 323.773 Q1832.34 322.037 1828.52 322.037 L1824.49 322.037 L1824.49 318.194 L1828.71 318.194 Q1832.16 318.194 1833.99 316.829 Q1835.81 315.44 1835.81 312.847 Q1835.81 310.185 1833.92 308.773 Q1832.04 307.338 1828.52 307.338 Q1826.6 307.338 1824.4 307.755 Q1822.2 308.171 1819.56 309.051 L1819.56 304.884 Q1822.23 304.143 1824.54 303.773 Q1826.88 303.403 1828.94 303.403 Q1834.26 303.403 1837.37 305.833 Q1840.47 308.241 1840.47 312.361 Q1840.47 315.231 1838.82 317.222 Q1837.18 319.19 1834.15 319.954 Z" fill="#000000" fill-rule="nonzero" fill-opacity="1" /></svg>
