<?xml version="1.0" encoding="utf-8"?>
<svg xmlns="http://www.w3.org/2000/svg" xmlns:xlink="http://www.w3.org/1999/xlink" width="600" height="400" viewBox="0 0 2400 1600">
<defs>
  <clipPath id="clip040">
    <rect x="0" y="0" width="2400" height="1600"/>
  </clipPath>
</defs>
<path clip-path="url(#clip040)" d="M0 1600 L2400 1600 L2400 0 L0 0  Z" fill="#ffffff" fill-rule="evenodd" fill-opacity="1"/>
<defs>
  <clipPath id="clip041">
    <rect x="480" y="0" width="1681" height="1600"/>
  </clipPath>
</defs>
<path clip-path="url(#clip040)" d="M140.696 1486.45 L2352.76 1486.45 L2352.76 47.2441 L140.696 47.2441  Z" fill="#ffffff" fill-rule="evenodd" fill-opacity="1"/>
<defs>
  <clipPath id="clip042">
    <rect x="140" y="47" width="2213" height="1440"/>
  </clipPath>
</defs>
<polyline clip-path="url(#clip042)" style="stroke:#000000; stroke-linecap:round; stroke-linejoin:round; stroke-width:2; stroke-opacity:0.1; fill:none" points="567.856,1486.45 567.856,47.2441 "/>
<polyline clip-path="url(#clip042)" style="stroke:#000000; stroke-linecap:round; stroke-linejoin:round; stroke-width:2; stroke-opacity:0.1; fill:none" points="1020.44,1486.45 1020.44,47.2441 "/>
<polyline clip-path="url(#clip042)" style="stroke:#000000; stroke-linecap:round; stroke-linejoin:round; stroke-width:2; stroke-opacity:0.1; fill:none" points="1473.02,1486.45 1473.02,47.2441 "/>
<polyline clip-path="url(#clip042)" style="stroke:#000000; stroke-linecap:round; stroke-linejoin:round; stroke-width:2; stroke-opacity:0.1; fill:none" points="1925.6,1486.45 1925.6,47.2441 "/>
<polyline clip-path="url(#clip042)" style="stroke:#000000; stroke-linecap:round; stroke-linejoin:round; stroke-width:2; stroke-opacity:0.1; fill:none" points="140.696,1445.72 2352.76,1445.72 "/>
<polyline clip-path="url(#clip042)" style="stroke:#000000; stroke-linecap:round; stroke-linejoin:round; stroke-width:2; stroke-opacity:0.1; fill:none" points="140.696,993.136 2352.76,993.136 "/>
<polyline clip-path="url(#clip042)" style="stroke:#000000; stroke-linecap:round; stroke-linejoin:round; stroke-width:2; stroke-opacity:0.1; fill:none" points="140.696,540.556 2352.76,540.556 "/>
<polyline clip-path="url(#clip042)" style="stroke:#000000; stroke-linecap:round; stroke-linejoin:round; stroke-width:2; stroke-opacity:0.1; fill:none" points="140.696,87.9763 2352.76,87.9763 "/>
<polyline clip-path="url(#clip040)" style="stroke:#000000; stroke-linecap:round; stroke-linejoin:round; stroke-width:4; stroke-opacity:1; fill:none" points="140.696,1486.45 2352.76,1486.45 "/>
<polyline clip-path="url(#clip040)" style="stroke:#000000; stroke-linecap:round; stroke-linejoin:round; stroke-width:4; stroke-opacity:1; fill:none" points="567.856,1486.45 567.856,1467.55 "/>
<polyline clip-path="url(#clip040)" style="stroke:#000000; stroke-linecap:round; stroke-linejoin:round; stroke-width:4; stroke-opacity:1; fill:none" points="1020.44,1486.45 1020.44,1467.55 "/>
<polyline clip-path="url(#clip040)" style="stroke:#000000; stroke-linecap:round; stroke-linejoin:round; stroke-width:4; stroke-opacity:1; fill:none" points="1473.02,1486.45 1473.02,1467.55 "/>
<polyline clip-path="url(#clip040)" style="stroke:#000000; stroke-linecap:round; stroke-linejoin:round; stroke-width:4; stroke-opacity:1; fill:none" points="1925.6,1486.45 1925.6,1467.55 "/>
<path clip-path="url(#clip040)" d="M567.856 1517.37 Q564.245 1517.37 562.416 1520.93 Q560.611 1524.47 560.611 1531.6 Q560.611 1538.71 562.416 1542.27 Q564.245 1545.82 567.856 1545.82 Q571.49 1545.82 573.296 1542.27 Q575.124 1538.71 575.124 1531.6 Q575.124 1524.47 573.296 1520.93 Q571.49 1517.37 567.856 1517.37 M567.856 1513.66 Q573.666 1513.66 576.722 1518.27 Q579.8 1522.85 579.8 1531.6 Q579.8 1540.33 576.722 1544.94 Q573.666 1549.52 567.856 1549.52 Q562.046 1549.52 558.967 1544.94 Q555.912 1540.33 555.912 1531.6 Q555.912 1522.85 558.967 1518.27 Q562.046 1513.66 567.856 1513.66 Z" fill="#000000" fill-rule="nonzero" fill-opacity="1" /><path clip-path="url(#clip040)" d="M995.123 1544.91 L1002.76 1544.91 L1002.76 1518.55 L994.452 1520.21 L994.452 1515.95 L1002.72 1514.29 L1007.39 1514.29 L1007.39 1544.91 L1015.03 1544.91 L1015.03 1548.85 L995.123 1548.85 L995.123 1544.91 Z" fill="#000000" fill-rule="nonzero" fill-opacity="1" /><path clip-path="url(#clip040)" d="M1034.48 1517.37 Q1030.86 1517.37 1029.04 1520.93 Q1027.23 1524.47 1027.23 1531.6 Q1027.23 1538.71 1029.04 1542.27 Q1030.86 1545.82 1034.48 1545.82 Q1038.11 1545.82 1039.91 1542.27 Q1041.74 1538.71 1041.74 1531.6 Q1041.74 1524.47 1039.91 1520.93 Q1038.11 1517.37 1034.48 1517.37 M1034.48 1513.66 Q1040.29 1513.66 1043.34 1518.27 Q1046.42 1522.85 1046.42 1531.6 Q1046.42 1540.33 1043.34 1544.94 Q1040.29 1549.52 1034.48 1549.52 Q1028.66 1549.52 1025.59 1544.94 Q1022.53 1540.33 1022.53 1531.6 Q1022.53 1522.85 1025.59 1518.27 Q1028.66 1513.66 1034.48 1513.66 Z" fill="#000000" fill-rule="nonzero" fill-opacity="1" /><path clip-path="url(#clip040)" d="M1451.79 1544.91 L1468.11 1544.91 L1468.11 1548.85 L1446.16 1548.85 L1446.16 1544.91 Q1448.83 1542.16 1453.41 1537.53 Q1458.02 1532.88 1459.2 1531.53 Q1461.44 1529.01 1462.32 1527.27 Q1463.22 1525.51 1463.22 1523.82 Q1463.22 1521.07 1461.28 1519.33 Q1459.36 1517.6 1456.26 1517.6 Q1454.06 1517.6 1451.6 1518.36 Q1449.17 1519.13 1446.4 1520.68 L1446.4 1515.95 Q1449.22 1514.82 1451.67 1514.24 Q1454.13 1513.66 1456.16 1513.66 Q1461.53 1513.66 1464.73 1516.35 Q1467.92 1519.03 1467.92 1523.52 Q1467.92 1525.65 1467.11 1527.57 Q1466.33 1529.47 1464.22 1532.07 Q1463.64 1532.74 1460.54 1535.95 Q1457.44 1539.15 1451.79 1544.91 Z" fill="#000000" fill-rule="nonzero" fill-opacity="1" /><path clip-path="url(#clip040)" d="M1487.92 1517.37 Q1484.31 1517.37 1482.48 1520.93 Q1480.68 1524.47 1480.68 1531.6 Q1480.68 1538.71 1482.48 1542.27 Q1484.31 1545.82 1487.92 1545.82 Q1491.56 1545.82 1493.36 1542.27 Q1495.19 1538.71 1495.19 1531.6 Q1495.19 1524.47 1493.36 1520.93 Q1491.56 1517.37 1487.92 1517.37 M1487.92 1513.66 Q1493.73 1513.66 1496.79 1518.27 Q1499.87 1522.85 1499.87 1531.6 Q1499.87 1540.33 1496.79 1544.94 Q1493.73 1549.52 1487.92 1549.52 Q1482.11 1549.52 1479.03 1544.94 Q1475.98 1540.33 1475.98 1531.6 Q1475.98 1522.85 1479.03 1518.27 Q1482.11 1513.66 1487.92 1513.66 Z" fill="#000000" fill-rule="nonzero" fill-opacity="1" /><path clip-path="url(#clip040)" d="M1914.44 1530.21 Q1917.79 1530.93 1919.67 1533.2 Q1921.57 1535.47 1921.57 1538.8 Q1921.57 1543.92 1918.05 1546.72 Q1914.53 1549.52 1908.05 1549.52 Q1905.87 1549.52 1903.56 1549.08 Q1901.27 1548.66 1898.81 1547.81 L1898.81 1543.29 Q1900.76 1544.43 1903.07 1545.01 Q1905.39 1545.58 1907.91 1545.58 Q1912.31 1545.58 1914.6 1543.85 Q1916.91 1542.11 1916.91 1538.8 Q1916.91 1535.75 1914.76 1534.03 Q1912.63 1532.3 1908.81 1532.3 L1904.79 1532.3 L1904.79 1528.45 L1909 1528.45 Q1912.45 1528.45 1914.28 1527.09 Q1916.1 1525.7 1916.1 1523.11 Q1916.1 1520.45 1914.21 1519.03 Q1912.33 1517.6 1908.81 1517.6 Q1906.89 1517.6 1904.69 1518.01 Q1902.49 1518.43 1899.85 1519.31 L1899.85 1515.14 Q1902.52 1514.4 1904.83 1514.03 Q1907.17 1513.66 1909.23 1513.66 Q1914.55 1513.66 1917.66 1516.09 Q1920.76 1518.5 1920.76 1522.62 Q1920.76 1525.49 1919.11 1527.48 Q1917.47 1529.45 1914.44 1530.21 Z" fill="#000000" fill-rule="nonzero" fill-opacity="1" /><path clip-path="url(#clip040)" d="M1940.43 1517.37 Q1936.82 1517.37 1934.99 1520.93 Q1933.19 1524.47 1933.19 1531.6 Q1933.19 1538.71 1934.99 1542.27 Q1936.82 1545.82 1940.43 1545.82 Q1944.07 1545.82 1945.87 1542.27 Q1947.7 1538.71 1947.7 1531.6 Q1947.7 1524.47 1945.87 1520.93 Q1944.07 1517.37 1940.43 1517.37 M1940.43 1513.66 Q1946.24 1513.66 1949.3 1518.27 Q1952.38 1522.85 1952.38 1531.6 Q1952.38 1540.33 1949.3 1544.94 Q1946.24 1549.52 1940.43 1549.52 Q1934.62 1549.52 1931.54 1544.94 Q1928.49 1540.33 1928.49 1531.6 Q1928.49 1522.85 1931.54 1518.27 Q1934.62 1513.66 1940.43 1513.66 Z" fill="#000000" fill-rule="nonzero" fill-opacity="1" /><polyline clip-path="url(#clip040)" style="stroke:#000000; stroke-linecap:round; stroke-linejoin:round; stroke-width:4; stroke-opacity:1; fill:none" points="140.696,1486.45 140.696,47.2441 "/>
<polyline clip-path="url(#clip040)" style="stroke:#000000; stroke-linecap:round; stroke-linejoin:round; stroke-width:4; stroke-opacity:1; fill:none" points="140.696,1445.72 159.593,1445.72 "/>
<polyline clip-path="url(#clip040)" style="stroke:#000000; stroke-linecap:round; stroke-linejoin:round; stroke-width:4; stroke-opacity:1; fill:none" points="140.696,993.136 159.593,993.136 "/>
<polyline clip-path="url(#clip040)" style="stroke:#000000; stroke-linecap:round; stroke-linejoin:round; stroke-width:4; stroke-opacity:1; fill:none" points="140.696,540.556 159.593,540.556 "/>
<polyline clip-path="url(#clip040)" style="stroke:#000000; stroke-linecap:round; stroke-linejoin:round; stroke-width:4; stroke-opacity:1; fill:none" points="140.696,87.9763 159.593,87.9763 "/>
<path clip-path="url(#clip040)" d="M92.7512 1431.51 Q89.1401 1431.51 87.3114 1435.08 Q85.5058 1438.62 85.5058 1445.75 Q85.5058 1452.86 87.3114 1456.42 Q89.1401 1459.96 92.7512 1459.96 Q96.3854 1459.96 98.1909 1456.42 Q100.02 1452.86 100.02 1445.75 Q100.02 1438.62 98.1909 1435.08 Q96.3854 1431.51 92.7512 1431.51 M92.7512 1427.81 Q98.5613 1427.81 101.617 1432.42 Q104.696 1437 104.696 1445.75 Q104.696 1454.48 101.617 1459.08 Q98.5613 1463.67 92.7512 1463.67 Q86.941 1463.67 83.8623 1459.08 Q80.8068 1454.48 80.8068 1445.75 Q80.8068 1437 83.8623 1432.42 Q86.941 1427.81 92.7512 1427.81 Z" fill="#000000" fill-rule="nonzero" fill-opacity="1" /><path clip-path="url(#clip040)" d="M53.3995 1006.48 L61.0384 1006.48 L61.0384 980.115 L52.7282 981.782 L52.7282 977.523 L60.9921 975.856 L65.668 975.856 L65.668 1006.48 L73.3068 1006.48 L73.3068 1010.42 L53.3995 1010.42 L53.3995 1006.48 Z" fill="#000000" fill-rule="nonzero" fill-opacity="1" /><path clip-path="url(#clip040)" d="M92.7512 978.935 Q89.1401 978.935 87.3114 982.499 Q85.5058 986.041 85.5058 993.171 Q85.5058 1000.28 87.3114 1003.84 Q89.1401 1007.38 92.7512 1007.38 Q96.3854 1007.38 98.1909 1003.84 Q100.02 1000.28 100.02 993.171 Q100.02 986.041 98.1909 982.499 Q96.3854 978.935 92.7512 978.935 M92.7512 975.231 Q98.5613 975.231 101.617 979.837 Q104.696 984.421 104.696 993.171 Q104.696 1001.9 101.617 1006.5 Q98.5613 1011.09 92.7512 1011.09 Q86.941 1011.09 83.8623 1006.5 Q80.8068 1001.9 80.8068 993.171 Q80.8068 984.421 83.8623 979.837 Q86.941 975.231 92.7512 975.231 Z" fill="#000000" fill-rule="nonzero" fill-opacity="1" /><path clip-path="url(#clip040)" d="M56.6171 553.901 L72.9365 553.901 L72.9365 557.836 L50.9921 557.836 L50.9921 553.901 Q53.6541 551.146 58.2375 546.517 Q62.8439 541.864 64.0245 540.521 Q66.2698 537.998 67.1494 536.262 Q68.0522 534.503 68.0522 532.813 Q68.0522 530.058 66.1078 528.322 Q64.1865 526.586 61.0847 526.586 Q58.8856 526.586 56.4319 527.35 Q54.0014 528.114 51.2236 529.665 L51.2236 524.943 Q54.0477 523.808 56.5014 523.23 Q58.955 522.651 60.9921 522.651 Q66.3624 522.651 69.5568 525.336 Q72.7513 528.021 72.7513 532.512 Q72.7513 534.642 71.9411 536.563 Q71.1541 538.461 69.0476 541.054 Q68.4689 541.725 65.367 544.943 Q62.2652 548.137 56.6171 553.901 Z" fill="#000000" fill-rule="nonzero" fill-opacity="1" /><path clip-path="url(#clip040)" d="M92.7512 526.355 Q89.1401 526.355 87.3114 529.92 Q85.5058 533.461 85.5058 540.591 Q85.5058 547.697 87.3114 551.262 Q89.1401 554.804 92.7512 554.804 Q96.3854 554.804 98.1909 551.262 Q100.02 547.697 100.02 540.591 Q100.02 533.461 98.1909 529.92 Q96.3854 526.355 92.7512 526.355 M92.7512 522.651 Q98.5613 522.651 101.617 527.258 Q104.696 531.841 104.696 540.591 Q104.696 549.318 101.617 553.924 Q98.5613 558.507 92.7512 558.507 Q86.941 558.507 83.8623 553.924 Q80.8068 549.318 80.8068 540.591 Q80.8068 531.841 83.8623 527.258 Q86.941 522.651 92.7512 522.651 Z" fill="#000000" fill-rule="nonzero" fill-opacity="1" /><path clip-path="url(#clip040)" d="M66.7559 86.6221 Q70.1124 87.3397 71.9874 89.6082 Q73.8855 91.8767 73.8855 95.21 Q73.8855 100.326 70.367 103.127 Q66.8485 105.928 60.3671 105.928 Q58.1912 105.928 55.8764 105.488 Q53.5847 105.071 51.131 104.215 L51.131 99.7008 Q53.0754 100.835 55.3903 101.414 Q57.7051 101.992 60.2282 101.992 Q64.6263 101.992 66.918 100.256 Q69.2328 98.5202 69.2328 95.21 Q69.2328 92.1545 67.08 90.4415 Q64.9504 88.7054 61.131 88.7054 L57.1032 88.7054 L57.1032 84.8629 L61.3161 84.8629 Q64.7652 84.8629 66.5939 83.4971 Q68.4226 82.1083 68.4226 79.5157 Q68.4226 76.8537 66.5245 75.4416 Q64.6495 74.0064 61.131 74.0064 Q59.2097 74.0064 57.0106 74.4231 Q54.8115 74.8398 52.1727 75.7194 L52.1727 71.5528 Q54.8347 70.812 57.1495 70.4416 Q59.4875 70.0713 61.5476 70.0713 Q66.8717 70.0713 69.9735 72.5018 Q73.0753 74.9092 73.0753 79.0296 Q73.0753 81.8999 71.4318 83.8907 Q69.7883 85.8582 66.7559 86.6221 Z" fill="#000000" fill-rule="nonzero" fill-opacity="1" /><path clip-path="url(#clip040)" d="M92.7512 73.775 Q89.1401 73.775 87.3114 77.3398 Q85.5058 80.8814 85.5058 88.011 Q85.5058 95.1174 87.3114 98.6822 Q89.1401 102.224 92.7512 102.224 Q96.3854 102.224 98.1909 98.6822 Q100.02 95.1174 100.02 88.011 Q100.02 80.8814 98.1909 77.3398 Q96.3854 73.775 92.7512 73.775 M92.7512 70.0713 Q98.5613 70.0713 101.617 74.6777 Q104.696 79.261 104.696 88.011 Q104.696 96.7378 101.617 101.344 Q98.5613 105.928 92.7512 105.928 Q86.941 105.928 83.8623 101.344 Q80.8068 96.7378 80.8068 88.011 Q80.8068 79.261 83.8623 74.6777 Q86.941 70.0713 92.7512 70.0713 Z" fill="#000000" fill-rule="nonzero" fill-opacity="1" /><path clip-path="url(#clip042)" d="M567.856 1445.72 L1925.6 1445.72 L1925.6 87.9763 L567.856 87.9763 L567.856 1445.72 L567.856 1445.72  Z" fill="#ffff00" fill-rule="evenodd" fill-opacity="0.5"/>
<polyline clip-path="url(#clip042)" style="stroke:#000000; stroke-linecap:round; stroke-linejoin:round; stroke-width:4; stroke-opacity:0.5; fill:none" points="567.856,1445.72 1925.6,1445.72 1925.6,87.9763 567.856,87.9763 567.856,1445.72 "/>
<path clip-path="url(#clip042)" d="M1246.73 766.846 L1473.02 766.846 L1473.02 540.556 L1246.73 540.556 L1246.73 766.846 L1246.73 766.846  Z" fill="#ffff00" fill-rule="evenodd" fill-opacity="0.5"/>
<polyline clip-path="url(#clip042)" style="stroke:#000000; stroke-linecap:round; stroke-linejoin:round; stroke-width:4; stroke-opacity:0.5; fill:none" points="1246.73,766.846 1473.02,766.846 1473.02,540.556 1246.73,540.556 1246.73,766.846 "/>
<path clip-path="url(#clip042)" d="M579.171 1434.4 L1914.28 1434.4 L1914.28 99.2908 L579.171 99.2908 L579.171 1434.4 L579.171 1434.4  Z" fill="#0000ff" fill-rule="evenodd" fill-opacity="0.5"/>
<polyline clip-path="url(#clip042)" style="stroke:#000000; stroke-linecap:round; stroke-linejoin:round; stroke-width:4; stroke-opacity:0.5; fill:none" points="579.171,1434.4 1914.28,1434.4 1914.28,99.2908 579.171,99.2908 579.171,1434.4 "/>
<path clip-path="url(#clip042)" d="M579.171 1411.77 L1891.65 1411.77 L1891.65 99.2908 L579.171 99.2908 L579.171 1411.77 L579.171 1411.77  Z" fill="#0000ff" fill-rule="evenodd" fill-opacity="0.5"/>
<polyline clip-path="url(#clip042)" style="stroke:#000000; stroke-linecap:round; stroke-linejoin:round; stroke-width:4; stroke-opacity:0.5; fill:none" points="579.171,1411.77 1891.65,1411.77 1891.65,99.2908 579.171,99.2908 579.171,1411.77 "/>
<path clip-path="url(#clip042)" d="M579.171 1389.14 L1869.02 1389.14 L1869.02 99.2908 L579.171 99.2908 L579.171 1389.14 L579.171 1389.14  Z" fill="#0000ff" fill-rule="evenodd" fill-opacity="0.5"/>
<polyline clip-path="url(#clip042)" style="stroke:#000000; stroke-linecap:round; stroke-linejoin:round; stroke-width:4; stroke-opacity:0.5; fill:none" points="579.171,1389.14 1869.02,1389.14 1869.02,99.2908 579.171,99.2908 579.171,1389.14 "/>
<path clip-path="url(#clip042)" d="M579.171 1366.51 L1846.39 1366.51 L1846.39 99.2908 L579.171 99.2908 L579.171 1366.51 L579.171 1366.51  Z" fill="#0000ff" fill-rule="evenodd" fill-opacity="0.5"/>
<polyline clip-path="url(#clip042)" style="stroke:#000000; stroke-linecap:round; stroke-linejoin:round; stroke-width:4; stroke-opacity:0.5; fill:none" points="579.171,1366.51 1846.39,1366.51 1846.39,99.2908 579.171,99.2908 579.171,1366.51 "/>
<path clip-path="url(#clip042)" d="M579.171 1343.89 L1823.76 1343.89 L1823.76 99.2908 L579.171 99.2908 L579.171 1343.89 L579.171 1343.89  Z" fill="#0000ff" fill-rule="evenodd" fill-opacity="0.5"/>
<polyline clip-path="url(#clip042)" style="stroke:#000000; stroke-linecap:round; stroke-linejoin:round; stroke-width:4; stroke-opacity:0.5; fill:none" points="579.171,1343.89 1823.76,1343.89 1823.76,99.2908 579.171,99.2908 579.171,1343.89 "/>
<path clip-path="url(#clip042)" d="M579.171 1321.26 L1801.14 1321.26 L1801.14 99.2908 L579.171 99.2908 L579.171 1321.26 L579.171 1321.26  Z" fill="#0000ff" fill-rule="evenodd" fill-opacity="0.5"/>
<polyline clip-path="url(#clip042)" style="stroke:#000000; stroke-linecap:round; stroke-linejoin:round; stroke-width:4; stroke-opacity:0.5; fill:none" points="579.171,1321.26 1801.14,1321.26 1801.14,99.2908 579.171,99.2908 579.171,1321.26 "/>
<path clip-path="url(#clip042)" d="M579.171 1298.63 L1778.51 1298.63 L1778.51 99.2908 L579.171 99.2908 L579.171 1298.63 L579.171 1298.63  Z" fill="#0000ff" fill-rule="evenodd" fill-opacity="0.5"/>
<polyline clip-path="url(#clip042)" style="stroke:#000000; stroke-linecap:round; stroke-linejoin:round; stroke-width:4; stroke-opacity:0.5; fill:none" points="579.171,1298.63 1778.51,1298.63 1778.51,99.2908 579.171,99.2908 579.171,1298.63 "/>
<path clip-path="url(#clip042)" d="M579.171 1276 L1755.88 1276 L1755.88 99.2908 L579.171 99.2908 L579.171 1276 L579.171 1276  Z" fill="#0000ff" fill-rule="evenodd" fill-opacity="0.5"/>
<polyline clip-path="url(#clip042)" style="stroke:#000000; stroke-linecap:round; stroke-linejoin:round; stroke-width:4; stroke-opacity:0.5; fill:none" points="579.171,1276 1755.88,1276 1755.88,99.2908 579.171,99.2908 579.171,1276 "/>
<path clip-path="url(#clip042)" d="M579.171 1253.37 L1733.25 1253.37 L1733.25 99.2908 L579.171 99.2908 L579.171 1253.37 L579.171 1253.37  Z" fill="#0000ff" fill-rule="evenodd" fill-opacity="0.5"/>
<polyline clip-path="url(#clip042)" style="stroke:#000000; stroke-linecap:round; stroke-linejoin:round; stroke-width:4; stroke-opacity:0.5; fill:none" points="579.171,1253.37 1733.25,1253.37 1733.25,99.2908 579.171,99.2908 579.171,1253.37 "/>
<path clip-path="url(#clip042)" d="M579.171 1230.74 L1710.62 1230.74 L1710.62 99.2908 L579.171 99.2908 L579.171 1230.74 L579.171 1230.74  Z" fill="#0000ff" fill-rule="evenodd" fill-opacity="0.5"/>
<polyline clip-path="url(#clip042)" style="stroke:#000000; stroke-linecap:round; stroke-linejoin:round; stroke-width:4; stroke-opacity:0.5; fill:none" points="579.171,1230.74 1710.62,1230.74 1710.62,99.2908 579.171,99.2908 579.171,1230.74 "/>
<path clip-path="url(#clip042)" d="M579.171 1208.11 L1687.99 1208.11 L1687.99 99.2908 L579.171 99.2908 L579.171 1208.11 L579.171 1208.11  Z" fill="#0000ff" fill-rule="evenodd" fill-opacity="0.5"/>
<polyline clip-path="url(#clip042)" style="stroke:#000000; stroke-linecap:round; stroke-linejoin:round; stroke-width:4; stroke-opacity:0.5; fill:none" points="579.171,1208.11 1687.99,1208.11 1687.99,99.2908 579.171,99.2908 579.171,1208.11 "/>
<path clip-path="url(#clip042)" d="M579.171 1185.48 L1665.36 1185.48 L1665.36 99.2908 L579.171 99.2908 L579.171 1185.48 L579.171 1185.48  Z" fill="#0000ff" fill-rule="evenodd" fill-opacity="0.5"/>
<polyline clip-path="url(#clip042)" style="stroke:#000000; stroke-linecap:round; stroke-linejoin:round; stroke-width:4; stroke-opacity:0.5; fill:none" points="579.171,1185.48 1665.36,1185.48 1665.36,99.2908 579.171,99.2908 579.171,1185.48 "/>
<path clip-path="url(#clip042)" d="M579.171 1162.85 L1642.73 1162.85 L1642.73 99.2908 L579.171 99.2908 L579.171 1162.85 L579.171 1162.85  Z" fill="#0000ff" fill-rule="evenodd" fill-opacity="0.5"/>
<polyline clip-path="url(#clip042)" style="stroke:#000000; stroke-linecap:round; stroke-linejoin:round; stroke-width:4; stroke-opacity:0.5; fill:none" points="579.171,1162.85 1642.73,1162.85 1642.73,99.2908 579.171,99.2908 579.171,1162.85 "/>
<path clip-path="url(#clip042)" d="M579.171 1140.22 L1620.1 1140.22 L1620.1 99.2908 L579.171 99.2908 L579.171 1140.22 L579.171 1140.22  Z" fill="#0000ff" fill-rule="evenodd" fill-opacity="0.5"/>
<polyline clip-path="url(#clip042)" style="stroke:#000000; stroke-linecap:round; stroke-linejoin:round; stroke-width:4; stroke-opacity:0.5; fill:none" points="579.171,1140.22 1620.1,1140.22 1620.1,99.2908 579.171,99.2908 579.171,1140.22 "/>
<path clip-path="url(#clip042)" d="M579.171 1117.6 L1597.48 1117.6 L1597.48 99.2908 L579.171 99.2908 L579.171 1117.6 L579.171 1117.6  Z" fill="#0000ff" fill-rule="evenodd" fill-opacity="0.5"/>
<polyline clip-path="url(#clip042)" style="stroke:#000000; stroke-linecap:round; stroke-linejoin:round; stroke-width:4; stroke-opacity:0.5; fill:none" points="579.171,1117.6 1597.48,1117.6 1597.48,99.2908 579.171,99.2908 579.171,1117.6 "/>
<path clip-path="url(#clip042)" d="M579.171 1094.97 L1574.85 1094.97 L1574.85 99.2908 L579.171 99.2908 L579.171 1094.97 L579.171 1094.97  Z" fill="#0000ff" fill-rule="evenodd" fill-opacity="0.5"/>
<polyline clip-path="url(#clip042)" style="stroke:#000000; stroke-linecap:round; stroke-linejoin:round; stroke-width:4; stroke-opacity:0.5; fill:none" points="579.171,1094.97 1574.85,1094.97 1574.85,99.2908 579.171,99.2908 579.171,1094.97 "/>
<path clip-path="url(#clip042)" d="M579.171 1072.34 L1552.22 1072.34 L1552.22 99.2908 L579.171 99.2908 L579.171 1072.34 L579.171 1072.34  Z" fill="#0000ff" fill-rule="evenodd" fill-opacity="0.5"/>
<polyline clip-path="url(#clip042)" style="stroke:#000000; stroke-linecap:round; stroke-linejoin:round; stroke-width:4; stroke-opacity:0.5; fill:none" points="579.171,1072.34 1552.22,1072.34 1552.22,99.2908 579.171,99.2908 579.171,1072.34 "/>
<path clip-path="url(#clip042)" d="M579.171 1049.71 L1529.59 1049.71 L1529.59 99.2908 L579.171 99.2908 L579.171 1049.71 L579.171 1049.71  Z" fill="#0000ff" fill-rule="evenodd" fill-opacity="0.5"/>
<polyline clip-path="url(#clip042)" style="stroke:#000000; stroke-linecap:round; stroke-linejoin:round; stroke-width:4; stroke-opacity:0.5; fill:none" points="579.171,1049.71 1529.59,1049.71 1529.59,99.2908 579.171,99.2908 579.171,1049.71 "/>
<path clip-path="url(#clip042)" d="M579.171 1027.08 L1506.96 1027.08 L1506.96 99.2908 L579.171 99.2908 L579.171 1027.08 L579.171 1027.08  Z" fill="#0000ff" fill-rule="evenodd" fill-opacity="0.5"/>
<polyline clip-path="url(#clip042)" style="stroke:#000000; stroke-linecap:round; stroke-linejoin:round; stroke-width:4; stroke-opacity:0.5; fill:none" points="579.171,1027.08 1506.96,1027.08 1506.96,99.2908 579.171,99.2908 579.171,1027.08 "/>
<path clip-path="url(#clip042)" d="M579.171 1004.45 L1484.33 1004.45 L1484.33 778.16 L579.171 778.16 L579.171 1004.45 L579.171 1004.45  Z" fill="#0000ff" fill-rule="evenodd" fill-opacity="0.5"/>
<polyline clip-path="url(#clip042)" style="stroke:#000000; stroke-linecap:round; stroke-linejoin:round; stroke-width:4; stroke-opacity:0.5; fill:none" points="579.171,1004.45 1484.33,1004.45 1484.33,778.16 579.171,778.16 579.171,1004.45 "/>
<path clip-path="url(#clip042)" d="M579.171 981.821 L1461.7 981.821 L1461.7 778.16 L579.171 778.16 L579.171 981.821 L579.171 981.821  Z" fill="#0000ff" fill-rule="evenodd" fill-opacity="0.5"/>
<polyline clip-path="url(#clip042)" style="stroke:#000000; stroke-linecap:round; stroke-linejoin:round; stroke-width:4; stroke-opacity:0.5; fill:none" points="579.171,981.821 1461.7,981.821 1461.7,778.16 579.171,778.16 579.171,981.821 "/>
<path clip-path="url(#clip042)" d="M579.171 959.192 L1439.07 959.192 L1439.07 778.16 L579.171 778.16 L579.171 959.192 L579.171 959.192  Z" fill="#0000ff" fill-rule="evenodd" fill-opacity="0.5"/>
<polyline clip-path="url(#clip042)" style="stroke:#000000; stroke-linecap:round; stroke-linejoin:round; stroke-width:4; stroke-opacity:0.5; fill:none" points="579.171,959.192 1439.07,959.192 1439.07,778.16 579.171,778.16 579.171,959.192 "/>
<path clip-path="url(#clip042)" d="M579.171 936.563 L1416.44 936.563 L1416.44 778.16 L579.171 778.16 L579.171 936.563 L579.171 936.563  Z" fill="#0000ff" fill-rule="evenodd" fill-opacity="0.5"/>
<polyline clip-path="url(#clip042)" style="stroke:#000000; stroke-linecap:round; stroke-linejoin:round; stroke-width:4; stroke-opacity:0.5; fill:none" points="579.171,936.563 1416.44,936.563 1416.44,778.16 579.171,778.16 579.171,936.563 "/>
<path clip-path="url(#clip042)" d="M579.171 913.934 L1393.81 913.934 L1393.81 778.16 L579.171 778.16 L579.171 913.934 L579.171 913.934  Z" fill="#0000ff" fill-rule="evenodd" fill-opacity="0.5"/>
<polyline clip-path="url(#clip042)" style="stroke:#000000; stroke-linecap:round; stroke-linejoin:round; stroke-width:4; stroke-opacity:0.5; fill:none" points="579.171,913.934 1393.81,913.934 1393.81,778.16 579.171,778.16 579.171,913.934 "/>
<path clip-path="url(#clip042)" d="M579.171 891.305 L1371.19 891.305 L1371.19 778.16 L579.171 778.16 L579.171 891.305 L579.171 891.305  Z" fill="#0000ff" fill-rule="evenodd" fill-opacity="0.5"/>
<polyline clip-path="url(#clip042)" style="stroke:#000000; stroke-linecap:round; stroke-linejoin:round; stroke-width:4; stroke-opacity:0.5; fill:none" points="579.171,891.305 1371.19,891.305 1371.19,778.16 579.171,778.16 579.171,891.305 "/>
<path clip-path="url(#clip042)" d="M579.171 868.676 L1348.56 868.676 L1348.56 778.16 L579.171 778.16 L579.171 868.676 L579.171 868.676  Z" fill="#0000ff" fill-rule="evenodd" fill-opacity="0.5"/>
<polyline clip-path="url(#clip042)" style="stroke:#000000; stroke-linecap:round; stroke-linejoin:round; stroke-width:4; stroke-opacity:0.5; fill:none" points="579.171,868.676 1348.56,868.676 1348.56,778.16 579.171,778.16 579.171,868.676 "/>
<path clip-path="url(#clip042)" d="M579.171 846.047 L1325.93 846.047 L1325.93 778.16 L579.171 778.16 L579.171 846.047 L579.171 846.047  Z" fill="#0000ff" fill-rule="evenodd" fill-opacity="0.5"/>
<polyline clip-path="url(#clip042)" style="stroke:#000000; stroke-linecap:round; stroke-linejoin:round; stroke-width:4; stroke-opacity:0.5; fill:none" points="579.171,846.047 1325.93,846.047 1325.93,778.16 579.171,778.16 579.171,846.047 "/>
<path clip-path="url(#clip042)" d="M579.171 823.418 L1303.3 823.418 L1303.3 778.16 L579.171 778.16 L579.171 823.418 L579.171 823.418  Z" fill="#0000ff" fill-rule="evenodd" fill-opacity="0.5"/>
<polyline clip-path="url(#clip042)" style="stroke:#000000; stroke-linecap:round; stroke-linejoin:round; stroke-width:4; stroke-opacity:0.5; fill:none" points="579.171,823.418 1303.3,823.418 1303.3,778.16 579.171,778.16 579.171,823.418 "/>
<path clip-path="url(#clip042)" d="M579.171 800.789 L1280.67 800.789 L1280.67 778.16 L579.171 778.16 L579.171 800.789 L579.171 800.789  Z" fill="#0000ff" fill-rule="evenodd" fill-opacity="0.5"/>
<polyline clip-path="url(#clip042)" style="stroke:#000000; stroke-linecap:round; stroke-linejoin:round; stroke-width:4; stroke-opacity:0.5; fill:none" points="579.171,800.789 1280.67,800.789 1280.67,778.16 579.171,778.16 579.171,800.789 "/>
<path clip-path="url(#clip042)" d="M579.171 778.16 L1235.41 778.16 L1235.41 99.2908 L579.171 99.2908 L579.171 778.16 L579.171 778.16  Z" fill="#0000ff" fill-rule="evenodd" fill-opacity="0.5"/>
<polyline clip-path="url(#clip042)" style="stroke:#000000; stroke-linecap:round; stroke-linejoin:round; stroke-width:4; stroke-opacity:0.5; fill:none" points="579.171,778.16 1235.41,778.16 1235.41,99.2908 579.171,99.2908 579.171,778.16 "/>
<path clip-path="url(#clip042)" d="M579.171 755.531 L1212.78 755.531 L1212.78 99.2908 L579.171 99.2908 L579.171 755.531 L579.171 755.531  Z" fill="#0000ff" fill-rule="evenodd" fill-opacity="0.5"/>
<polyline clip-path="url(#clip042)" style="stroke:#000000; stroke-linecap:round; stroke-linejoin:round; stroke-width:4; stroke-opacity:0.5; fill:none" points="579.171,755.531 1212.78,755.531 1212.78,99.2908 579.171,99.2908 579.171,755.531 "/>
<path clip-path="url(#clip042)" d="M579.171 732.902 L1190.15 732.902 L1190.15 99.2908 L579.171 99.2908 L579.171 732.902 L579.171 732.902  Z" fill="#0000ff" fill-rule="evenodd" fill-opacity="0.5"/>
<polyline clip-path="url(#clip042)" style="stroke:#000000; stroke-linecap:round; stroke-linejoin:round; stroke-width:4; stroke-opacity:0.5; fill:none" points="579.171,732.902 1190.15,732.902 1190.15,99.2908 579.171,99.2908 579.171,732.902 "/>
<path clip-path="url(#clip042)" d="M579.171 710.274 L1167.52 710.274 L1167.52 99.2908 L579.171 99.2908 L579.171 710.274 L579.171 710.274  Z" fill="#0000ff" fill-rule="evenodd" fill-opacity="0.5"/>
<polyline clip-path="url(#clip042)" style="stroke:#000000; stroke-linecap:round; stroke-linejoin:round; stroke-width:4; stroke-opacity:0.5; fill:none" points="579.171,710.274 1167.52,710.274 1167.52,99.2908 579.171,99.2908 579.171,710.274 "/>
<path clip-path="url(#clip042)" d="M579.171 687.645 L1144.9 687.645 L1144.9 99.2908 L579.171 99.2908 L579.171 687.645 L579.171 687.645  Z" fill="#0000ff" fill-rule="evenodd" fill-opacity="0.5"/>
<polyline clip-path="url(#clip042)" style="stroke:#000000; stroke-linecap:round; stroke-linejoin:round; stroke-width:4; stroke-opacity:0.5; fill:none" points="579.171,687.645 1144.9,687.645 1144.9,99.2908 579.171,99.2908 579.171,687.645 "/>
<path clip-path="url(#clip042)" d="M579.171 665.016 L1122.27 665.016 L1122.27 99.2908 L579.171 99.2908 L579.171 665.016 L579.171 665.016  Z" fill="#0000ff" fill-rule="evenodd" fill-opacity="0.5"/>
<polyline clip-path="url(#clip042)" style="stroke:#000000; stroke-linecap:round; stroke-linejoin:round; stroke-width:4; stroke-opacity:0.5; fill:none" points="579.171,665.016 1122.27,665.016 1122.27,99.2908 579.171,99.2908 579.171,665.016 "/>
<path clip-path="url(#clip042)" d="M579.171 642.387 L1099.64 642.387 L1099.64 99.2908 L579.171 99.2908 L579.171 642.387 L579.171 642.387  Z" fill="#0000ff" fill-rule="evenodd" fill-opacity="0.5"/>
<polyline clip-path="url(#clip042)" style="stroke:#000000; stroke-linecap:round; stroke-linejoin:round; stroke-width:4; stroke-opacity:0.5; fill:none" points="579.171,642.387 1099.64,642.387 1099.64,99.2908 579.171,99.2908 579.171,642.387 "/>
<path clip-path="url(#clip042)" d="M579.171 619.758 L1077.01 619.758 L1077.01 99.2908 L579.171 99.2908 L579.171 619.758 L579.171 619.758  Z" fill="#0000ff" fill-rule="evenodd" fill-opacity="0.5"/>
<polyline clip-path="url(#clip042)" style="stroke:#000000; stroke-linecap:round; stroke-linejoin:round; stroke-width:4; stroke-opacity:0.5; fill:none" points="579.171,619.758 1077.01,619.758 1077.01,99.2908 579.171,99.2908 579.171,619.758 "/>
<path clip-path="url(#clip042)" d="M579.171 597.129 L1054.38 597.129 L1054.38 99.2908 L579.171 99.2908 L579.171 597.129 L579.171 597.129  Z" fill="#0000ff" fill-rule="evenodd" fill-opacity="0.5"/>
<polyline clip-path="url(#clip042)" style="stroke:#000000; stroke-linecap:round; stroke-linejoin:round; stroke-width:4; stroke-opacity:0.5; fill:none" points="579.171,597.129 1054.38,597.129 1054.38,99.2908 579.171,99.2908 579.171,597.129 "/>
<path clip-path="url(#clip042)" d="M579.171 574.5 L1031.75 574.5 L1031.75 99.2908 L579.171 99.2908 L579.171 574.5 L579.171 574.5  Z" fill="#0000ff" fill-rule="evenodd" fill-opacity="0.5"/>
<polyline clip-path="url(#clip042)" style="stroke:#000000; stroke-linecap:round; stroke-linejoin:round; stroke-width:4; stroke-opacity:0.5; fill:none" points="579.171,574.5 1031.75,574.5 1031.75,99.2908 579.171,99.2908 579.171,574.5 "/>
<path clip-path="url(#clip042)" d="M579.171 551.871 L1009.12 551.871 L1009.12 99.2908 L579.171 99.2908 L579.171 551.871 L579.171 551.871  Z" fill="#0000ff" fill-rule="evenodd" fill-opacity="0.5"/>
<polyline clip-path="url(#clip042)" style="stroke:#000000; stroke-linecap:round; stroke-linejoin:round; stroke-width:4; stroke-opacity:0.5; fill:none" points="579.171,551.871 1009.12,551.871 1009.12,99.2908 579.171,99.2908 579.171,551.871 "/>
<path clip-path="url(#clip042)" d="M579.171 529.242 L986.492 529.242 L986.492 99.2908 L579.171 99.2908 L579.171 529.242 L579.171 529.242  Z" fill="#0000ff" fill-rule="evenodd" fill-opacity="0.5"/>
<polyline clip-path="url(#clip042)" style="stroke:#000000; stroke-linecap:round; stroke-linejoin:round; stroke-width:4; stroke-opacity:0.5; fill:none" points="579.171,529.242 986.492,529.242 986.492,99.2908 579.171,99.2908 579.171,529.242 "/>
<path clip-path="url(#clip042)" d="M579.171 506.613 L963.863 506.613 L963.863 99.2908 L579.171 99.2908 L579.171 506.613 L579.171 506.613  Z" fill="#0000ff" fill-rule="evenodd" fill-opacity="0.5"/>
<polyline clip-path="url(#clip042)" style="stroke:#000000; stroke-linecap:round; stroke-linejoin:round; stroke-width:4; stroke-opacity:0.5; fill:none" points="579.171,506.613 963.863,506.613 963.863,99.2908 579.171,99.2908 579.171,506.613 "/>
<path clip-path="url(#clip042)" d="M579.171 483.984 L941.234 483.984 L941.234 99.2908 L579.171 99.2908 L579.171 483.984 L579.171 483.984  Z" fill="#0000ff" fill-rule="evenodd" fill-opacity="0.5"/>
<polyline clip-path="url(#clip042)" style="stroke:#000000; stroke-linecap:round; stroke-linejoin:round; stroke-width:4; stroke-opacity:0.5; fill:none" points="579.171,483.984 941.234,483.984 941.234,99.2908 579.171,99.2908 579.171,483.984 "/>
<path clip-path="url(#clip042)" d="M579.171 461.355 L918.605 461.355 L918.605 99.2908 L579.171 99.2908 L579.171 461.355 L579.171 461.355  Z" fill="#0000ff" fill-rule="evenodd" fill-opacity="0.5"/>
<polyline clip-path="url(#clip042)" style="stroke:#000000; stroke-linecap:round; stroke-linejoin:round; stroke-width:4; stroke-opacity:0.5; fill:none" points="579.171,461.355 918.605,461.355 918.605,99.2908 579.171,99.2908 579.171,461.355 "/>
<path clip-path="url(#clip042)" d="M579.171 438.726 L895.976 438.726 L895.976 99.2908 L579.171 99.2908 L579.171 438.726 L579.171 438.726  Z" fill="#0000ff" fill-rule="evenodd" fill-opacity="0.5"/>
<polyline clip-path="url(#clip042)" style="stroke:#000000; stroke-linecap:round; stroke-linejoin:round; stroke-width:4; stroke-opacity:0.5; fill:none" points="579.171,438.726 895.976,438.726 895.976,99.2908 579.171,99.2908 579.171,438.726 "/>
<path clip-path="url(#clip042)" d="M579.171 416.097 L873.347 416.097 L873.347 99.2908 L579.171 99.2908 L579.171 416.097 L579.171 416.097  Z" fill="#0000ff" fill-rule="evenodd" fill-opacity="0.5"/>
<polyline clip-path="url(#clip042)" style="stroke:#000000; stroke-linecap:round; stroke-linejoin:round; stroke-width:4; stroke-opacity:0.5; fill:none" points="579.171,416.097 873.347,416.097 873.347,99.2908 579.171,99.2908 579.171,416.097 "/>
<path clip-path="url(#clip042)" d="M579.171 393.468 L850.718 393.468 L850.718 99.2908 L579.171 99.2908 L579.171 393.468 L579.171 393.468  Z" fill="#0000ff" fill-rule="evenodd" fill-opacity="0.5"/>
<polyline clip-path="url(#clip042)" style="stroke:#000000; stroke-linecap:round; stroke-linejoin:round; stroke-width:4; stroke-opacity:0.5; fill:none" points="579.171,393.468 850.718,393.468 850.718,99.2908 579.171,99.2908 579.171,393.468 "/>
<path clip-path="url(#clip042)" d="M579.171 370.839 L828.089 370.839 L828.089 99.2908 L579.171 99.2908 L579.171 370.839 L579.171 370.839  Z" fill="#0000ff" fill-rule="evenodd" fill-opacity="0.5"/>
<polyline clip-path="url(#clip042)" style="stroke:#000000; stroke-linecap:round; stroke-linejoin:round; stroke-width:4; stroke-opacity:0.5; fill:none" points="579.171,370.839 828.089,370.839 828.089,99.2908 579.171,99.2908 579.171,370.839 "/>
<path clip-path="url(#clip042)" d="M579.171 348.21 L805.46 348.21 L805.46 99.2908 L579.171 99.2908 L579.171 348.21 L579.171 348.21  Z" fill="#0000ff" fill-rule="evenodd" fill-opacity="0.5"/>
<polyline clip-path="url(#clip042)" style="stroke:#000000; stroke-linecap:round; stroke-linejoin:round; stroke-width:4; stroke-opacity:0.5; fill:none" points="579.171,348.21 805.46,348.21 805.46,99.2908 579.171,99.2908 579.171,348.21 "/>
<path clip-path="url(#clip042)" d="M579.171 325.581 L782.831 325.581 L782.831 99.2908 L579.171 99.2908 L579.171 325.581 L579.171 325.581  Z" fill="#0000ff" fill-rule="evenodd" fill-opacity="0.5"/>
<polyline clip-path="url(#clip042)" style="stroke:#000000; stroke-linecap:round; stroke-linejoin:round; stroke-width:4; stroke-opacity:0.5; fill:none" points="579.171,325.581 782.831,325.581 782.831,99.2908 579.171,99.2908 579.171,325.581 "/>
<path clip-path="url(#clip042)" d="M579.171 302.952 L760.202 302.952 L760.202 99.2908 L579.171 99.2908 L579.171 302.952 L579.171 302.952  Z" fill="#0000ff" fill-rule="evenodd" fill-opacity="0.5"/>
<polyline clip-path="url(#clip042)" style="stroke:#000000; stroke-linecap:round; stroke-linejoin:round; stroke-width:4; stroke-opacity:0.5; fill:none" points="579.171,302.952 760.202,302.952 760.202,99.2908 579.171,99.2908 579.171,302.952 "/>
<path clip-path="url(#clip042)" d="M579.171 280.323 L737.573 280.323 L737.573 99.2908 L579.171 99.2908 L579.171 280.323 L579.171 280.323  Z" fill="#0000ff" fill-rule="evenodd" fill-opacity="0.5"/>
<polyline clip-path="url(#clip042)" style="stroke:#000000; stroke-linecap:round; stroke-linejoin:round; stroke-width:4; stroke-opacity:0.5; fill:none" points="579.171,280.323 737.573,280.323 737.573,99.2908 579.171,99.2908 579.171,280.323 "/>
<path clip-path="url(#clip042)" d="M579.171 257.694 L714.944 257.694 L714.944 99.2908 L579.171 99.2908 L579.171 257.694 L579.171 257.694  Z" fill="#0000ff" fill-rule="evenodd" fill-opacity="0.5"/>
<polyline clip-path="url(#clip042)" style="stroke:#000000; stroke-linecap:round; stroke-linejoin:round; stroke-width:4; stroke-opacity:0.5; fill:none" points="579.171,257.694 714.944,257.694 714.944,99.2908 579.171,99.2908 579.171,257.694 "/>
<path clip-path="url(#clip042)" d="M579.171 235.065 L692.315 235.065 L692.315 99.2908 L579.171 99.2908 L579.171 235.065 L579.171 235.065  Z" fill="#0000ff" fill-rule="evenodd" fill-opacity="0.5"/>
<polyline clip-path="url(#clip042)" style="stroke:#000000; stroke-linecap:round; stroke-linejoin:round; stroke-width:4; stroke-opacity:0.5; fill:none" points="579.171,235.065 692.315,235.065 692.315,99.2908 579.171,99.2908 579.171,235.065 "/>
<path clip-path="url(#clip042)" d="M579.171 212.436 L669.686 212.436 L669.686 99.2908 L579.171 99.2908 L579.171 212.436 L579.171 212.436  Z" fill="#0000ff" fill-rule="evenodd" fill-opacity="0.5"/>
<polyline clip-path="url(#clip042)" style="stroke:#000000; stroke-linecap:round; stroke-linejoin:round; stroke-width:4; stroke-opacity:0.5; fill:none" points="579.171,212.436 669.686,212.436 669.686,99.2908 579.171,99.2908 579.171,212.436 "/>
<path clip-path="url(#clip042)" d="M579.171 189.807 L647.057 189.807 L647.057 99.2908 L579.171 99.2908 L579.171 189.807 L579.171 189.807  Z" fill="#0000ff" fill-rule="evenodd" fill-opacity="0.5"/>
<polyline clip-path="url(#clip042)" style="stroke:#000000; stroke-linecap:round; stroke-linejoin:round; stroke-width:4; stroke-opacity:0.5; fill:none" points="579.171,189.807 647.057,189.807 647.057,99.2908 579.171,99.2908 579.171,189.807 "/>
<path clip-path="url(#clip042)" d="M579.171 167.178 L624.428 167.178 L624.428 99.2908 L579.171 99.2908 L579.171 167.178 L579.171 167.178  Z" fill="#0000ff" fill-rule="evenodd" fill-opacity="0.5"/>
<polyline clip-path="url(#clip042)" style="stroke:#000000; stroke-linecap:round; stroke-linejoin:round; stroke-width:4; stroke-opacity:0.5; fill:none" points="579.171,167.178 624.428,167.178 624.428,99.2908 579.171,99.2908 579.171,167.178 "/>
<path clip-path="url(#clip042)" d="M579.171 144.549 L601.8 144.549 L601.8 99.2908 L579.171 99.2908 L579.171 144.549 L579.171 144.549  Z" fill="#0000ff" fill-rule="evenodd" fill-opacity="0.5"/>
<polyline clip-path="url(#clip042)" style="stroke:#000000; stroke-linecap:round; stroke-linejoin:round; stroke-width:4; stroke-opacity:0.5; fill:none" points="579.171,144.549 601.8,144.549 601.8,99.2908 579.171,99.2908 579.171,144.549 "/>
<path clip-path="url(#clip042)" d="M1235.41 529.242 L1484.33 529.242 L1484.33 99.2908 L1235.41 99.2908 L1235.41 529.242 L1235.41 529.242  Z" fill="#0000ff" fill-rule="evenodd" fill-opacity="0.5"/>
<polyline clip-path="url(#clip042)" style="stroke:#000000; stroke-linecap:round; stroke-linejoin:round; stroke-width:4; stroke-opacity:0.5; fill:none" points="1235.41,529.242 1484.33,529.242 1484.33,99.2908 1235.41,99.2908 1235.41,529.242 "/>
<path clip-path="url(#clip042)" d="M1235.41 506.613 L1461.7 506.613 L1461.7 99.2908 L1235.41 99.2908 L1235.41 506.613 L1235.41 506.613  Z" fill="#0000ff" fill-rule="evenodd" fill-opacity="0.5"/>
<polyline clip-path="url(#clip042)" style="stroke:#000000; stroke-linecap:round; stroke-linejoin:round; stroke-width:4; stroke-opacity:0.5; fill:none" points="1235.41,506.613 1461.7,506.613 1461.7,99.2908 1235.41,99.2908 1235.41,506.613 "/>
<path clip-path="url(#clip042)" d="M1235.41 483.984 L1439.07 483.984 L1439.07 99.2908 L1235.41 99.2908 L1235.41 483.984 L1235.41 483.984  Z" fill="#0000ff" fill-rule="evenodd" fill-opacity="0.5"/>
<polyline clip-path="url(#clip042)" style="stroke:#000000; stroke-linecap:round; stroke-linejoin:round; stroke-width:4; stroke-opacity:0.5; fill:none" points="1235.41,483.984 1439.07,483.984 1439.07,99.2908 1235.41,99.2908 1235.41,483.984 "/>
<path clip-path="url(#clip042)" d="M1235.41 461.355 L1416.44 461.355 L1416.44 99.2908 L1235.41 99.2908 L1235.41 461.355 L1235.41 461.355  Z" fill="#0000ff" fill-rule="evenodd" fill-opacity="0.5"/>
<polyline clip-path="url(#clip042)" style="stroke:#000000; stroke-linecap:round; stroke-linejoin:round; stroke-width:4; stroke-opacity:0.5; fill:none" points="1235.41,461.355 1416.44,461.355 1416.44,99.2908 1235.41,99.2908 1235.41,461.355 "/>
<path clip-path="url(#clip042)" d="M1235.41 438.726 L1393.81 438.726 L1393.81 99.2908 L1235.41 99.2908 L1235.41 438.726 L1235.41 438.726  Z" fill="#0000ff" fill-rule="evenodd" fill-opacity="0.5"/>
<polyline clip-path="url(#clip042)" style="stroke:#000000; stroke-linecap:round; stroke-linejoin:round; stroke-width:4; stroke-opacity:0.5; fill:none" points="1235.41,438.726 1393.81,438.726 1393.81,99.2908 1235.41,99.2908 1235.41,438.726 "/>
<path clip-path="url(#clip042)" d="M1235.41 416.097 L1371.19 416.097 L1371.19 99.2908 L1235.41 99.2908 L1235.41 416.097 L1235.41 416.097  Z" fill="#0000ff" fill-rule="evenodd" fill-opacity="0.5"/>
<polyline clip-path="url(#clip042)" style="stroke:#000000; stroke-linecap:round; stroke-linejoin:round; stroke-width:4; stroke-opacity:0.5; fill:none" points="1235.41,416.097 1371.19,416.097 1371.19,99.2908 1235.41,99.2908 1235.41,416.097 "/>
<path clip-path="url(#clip042)" d="M1235.41 393.468 L1348.56 393.468 L1348.56 99.2908 L1235.41 99.2908 L1235.41 393.468 L1235.41 393.468  Z" fill="#0000ff" fill-rule="evenodd" fill-opacity="0.5"/>
<polyline clip-path="url(#clip042)" style="stroke:#000000; stroke-linecap:round; stroke-linejoin:round; stroke-width:4; stroke-opacity:0.5; fill:none" points="1235.41,393.468 1348.56,393.468 1348.56,99.2908 1235.41,99.2908 1235.41,393.468 "/>
<path clip-path="url(#clip042)" d="M1235.41 370.839 L1325.93 370.839 L1325.93 99.2908 L1235.41 99.2908 L1235.41 370.839 L1235.41 370.839  Z" fill="#0000ff" fill-rule="evenodd" fill-opacity="0.5"/>
<polyline clip-path="url(#clip042)" style="stroke:#000000; stroke-linecap:round; stroke-linejoin:round; stroke-width:4; stroke-opacity:0.5; fill:none" points="1235.41,370.839 1325.93,370.839 1325.93,99.2908 1235.41,99.2908 1235.41,370.839 "/>
<path clip-path="url(#clip042)" d="M1235.41 348.21 L1303.3 348.21 L1303.3 99.2908 L1235.41 99.2908 L1235.41 348.21 L1235.41 348.21  Z" fill="#0000ff" fill-rule="evenodd" fill-opacity="0.5"/>
<polyline clip-path="url(#clip042)" style="stroke:#000000; stroke-linecap:round; stroke-linejoin:round; stroke-width:4; stroke-opacity:0.5; fill:none" points="1235.41,348.21 1303.3,348.21 1303.3,99.2908 1235.41,99.2908 1235.41,348.21 "/>
<path clip-path="url(#clip042)" d="M1235.41 325.581 L1280.67 325.581 L1280.67 99.2908 L1235.41 99.2908 L1235.41 325.581 L1235.41 325.581  Z" fill="#0000ff" fill-rule="evenodd" fill-opacity="0.5"/>
<polyline clip-path="url(#clip042)" style="stroke:#000000; stroke-linecap:round; stroke-linejoin:round; stroke-width:4; stroke-opacity:0.5; fill:none" points="1235.41,325.581 1280.67,325.581 1280.67,99.2908 1235.41,99.2908 1235.41,325.581 "/>
<path clip-path="url(#clip042)" d="M1235.41 302.952 L1258.04 302.952 L1258.04 99.2908 L1235.41 99.2908 L1235.41 302.952 L1235.41 302.952  Z" fill="#0000ff" fill-rule="evenodd" fill-opacity="0.5"/>
<polyline clip-path="url(#clip042)" style="stroke:#000000; stroke-linecap:round; stroke-linejoin:round; stroke-width:4; stroke-opacity:0.5; fill:none" points="1235.41,302.952 1258.04,302.952 1258.04,99.2908 1235.41,99.2908 1235.41,302.952 "/>
<path clip-path="url(#clip042)" d="M794.146 1219.43 L839.404 1219.43 L839.404 1174.17 L794.146 1174.17 L794.146 1219.43 L794.146 1219.43  Z" fill="#008000" fill-rule="evenodd" fill-opacity="0.8"/>
<polyline clip-path="url(#clip042)" style="stroke:#000000; stroke-linecap:round; stroke-linejoin:round; stroke-width:4; stroke-opacity:0.8; fill:none" points="794.146,1219.43 839.404,1219.43 839.404,1174.17 794.146,1174.17 794.146,1219.43 "/>
<path clip-path="url(#clip042)" d="M1699.31 314.266 L1835.08 314.266 L1835.08 178.492 L1699.31 178.492 L1699.31 314.266 L1699.31 314.266  Z" fill="#ff0000" fill-rule="evenodd" fill-opacity="0.8"/>
<polyline clip-path="url(#clip042)" style="stroke:#000000; stroke-linecap:round; stroke-linejoin:round; stroke-width:4; stroke-opacity:0.8; fill:none" points="1699.31,314.266 1835.08,314.266 1835.08,178.492 1699.31,178.492 1699.31,314.266 "/>
<circle clip-path="url(#clip042)" cx="852.981" cy="1160.59" r="1.8" fill="#000000" fill-rule="evenodd" fill-opacity="1" stroke="none"/>
<polyline clip-path="url(#clip042)" style="stroke:#000000; stroke-linecap:round; stroke-linejoin:round; stroke-width:4; stroke-opacity:1; fill:none" points="816.775,1196.8 852.981,1160.59 "/>
<path clip-path="url(#clip042)" d="M827.525 1186.05 L814.798 1173.32 L852.981 1160.59 L840.253 1198.77  Z" fill="#000000" fill-rule="evenodd" fill-opacity="1"/>
<polyline clip-path="url(#clip042)" style="stroke:#000000; stroke-linecap:round; stroke-linejoin:round; stroke-width:4; stroke-opacity:1; fill:none" points="827.525,1186.05 816.775,1196.8 "/>
<circle clip-path="url(#clip042)" cx="816.775" cy="1196.8" r="1.8" fill="#000000" fill-rule="evenodd" fill-opacity="0" stroke="none"/>
<circle clip-path="url(#clip042)" cx="852.981" cy="1160.59" r="1.8" fill="#000000" fill-rule="evenodd" fill-opacity="0" stroke="none"/>
<circle clip-path="url(#clip042)" cx="889.188" cy="1088.18" r="1.8" fill="#000000" fill-rule="evenodd" fill-opacity="1" stroke="none"/>
<polyline clip-path="url(#clip042)" style="stroke:#000000; stroke-linecap:round; stroke-linejoin:round; stroke-width:4; stroke-opacity:1; fill:none" points="852.981,1160.59 889.188,1088.18 "/>
<path clip-path="url(#clip042)" d="M873.088 1120.38 L856.988 1112.33 L889.188 1088.18 L889.188 1128.43  Z" fill="#000000" fill-rule="evenodd" fill-opacity="1"/>
<polyline clip-path="url(#clip042)" style="stroke:#000000; stroke-linecap:round; stroke-linejoin:round; stroke-width:4; stroke-opacity:1; fill:none" points="873.088,1120.38 852.981,1160.59 "/>
<circle clip-path="url(#clip042)" cx="852.981" cy="1160.59" r="1.8" fill="#000000" fill-rule="evenodd" fill-opacity="0" stroke="none"/>
<circle clip-path="url(#clip042)" cx="889.188" cy="1088.18" r="1.8" fill="#000000" fill-rule="evenodd" fill-opacity="0" stroke="none"/>
<circle clip-path="url(#clip042)" cx="961.6" cy="1033.87" r="1.8" fill="#000000" fill-rule="evenodd" fill-opacity="1" stroke="none"/>
<polyline clip-path="url(#clip042)" style="stroke:#000000; stroke-linecap:round; stroke-linejoin:round; stroke-width:4; stroke-opacity:1; fill:none" points="889.188,1088.18 961.6,1033.87 "/>
<path clip-path="url(#clip042)" d="M932.8 1055.47 L922 1041.07 L961.6 1033.87 L943.6 1069.87  Z" fill="#000000" fill-rule="evenodd" fill-opacity="1"/>
<polyline clip-path="url(#clip042)" style="stroke:#000000; stroke-linecap:round; stroke-linejoin:round; stroke-width:4; stroke-opacity:1; fill:none" points="932.8,1055.47 889.188,1088.18 "/>
<circle clip-path="url(#clip042)" cx="889.188" cy="1088.18" r="1.8" fill="#000000" fill-rule="evenodd" fill-opacity="0" stroke="none"/>
<circle clip-path="url(#clip042)" cx="961.6" cy="1033.87" r="1.8" fill="#000000" fill-rule="evenodd" fill-opacity="0" stroke="none"/>
<circle clip-path="url(#clip042)" cx="1034.01" cy="961.455" r="1.8" fill="#000000" fill-rule="evenodd" fill-opacity="1" stroke="none"/>
<polyline clip-path="url(#clip042)" style="stroke:#000000; stroke-linecap:round; stroke-linejoin:round; stroke-width:4; stroke-opacity:1; fill:none" points="961.6,1033.87 1034.01,961.455 "/>
<path clip-path="url(#clip042)" d="M1008.56 986.911 L995.829 974.183 L1034.01 961.455 L1021.29 999.639  Z" fill="#000000" fill-rule="evenodd" fill-opacity="1"/>
<polyline clip-path="url(#clip042)" style="stroke:#000000; stroke-linecap:round; stroke-linejoin:round; stroke-width:4; stroke-opacity:1; fill:none" points="1008.56,986.911 961.6,1033.87 "/>
<circle clip-path="url(#clip042)" cx="961.6" cy="1033.87" r="1.8" fill="#000000" fill-rule="evenodd" fill-opacity="0" stroke="none"/>
<circle clip-path="url(#clip042)" cx="1034.01" cy="961.455" r="1.8" fill="#000000" fill-rule="evenodd" fill-opacity="0" stroke="none"/>
<circle clip-path="url(#clip042)" cx="1088.32" cy="889.043" r="1.8" fill="#000000" fill-rule="evenodd" fill-opacity="1" stroke="none"/>
<polyline clip-path="url(#clip042)" style="stroke:#000000; stroke-linecap:round; stroke-linejoin:round; stroke-width:4; stroke-opacity:1; fill:none" points="1034.01,961.455 1088.32,889.043 "/>
<path clip-path="url(#clip042)" d="M1066.72 917.843 L1052.32 907.043 L1088.32 889.043 L1081.12 928.643  Z" fill="#000000" fill-rule="evenodd" fill-opacity="1"/>
<polyline clip-path="url(#clip042)" style="stroke:#000000; stroke-linecap:round; stroke-linejoin:round; stroke-width:4; stroke-opacity:1; fill:none" points="1066.72,917.843 1034.01,961.455 "/>
<circle clip-path="url(#clip042)" cx="1034.01" cy="961.455" r="1.8" fill="#000000" fill-rule="evenodd" fill-opacity="0" stroke="none"/>
<circle clip-path="url(#clip042)" cx="1088.32" cy="889.043" r="1.8" fill="#000000" fill-rule="evenodd" fill-opacity="0" stroke="none"/>
<circle clip-path="url(#clip042)" cx="1160.74" cy="816.63" r="1.8" fill="#000000" fill-rule="evenodd" fill-opacity="1" stroke="none"/>
<polyline clip-path="url(#clip042)" style="stroke:#000000; stroke-linecap:round; stroke-linejoin:round; stroke-width:4; stroke-opacity:1; fill:none" points="1088.32,889.043 1160.74,816.63 "/>
<path clip-path="url(#clip042)" d="M1135.28 842.086 L1122.55 829.358 L1160.74 816.63 L1148.01 854.814  Z" fill="#000000" fill-rule="evenodd" fill-opacity="1"/>
<polyline clip-path="url(#clip042)" style="stroke:#000000; stroke-linecap:round; stroke-linejoin:round; stroke-width:4; stroke-opacity:1; fill:none" points="1135.28,842.086 1088.32,889.043 "/>
<circle clip-path="url(#clip042)" cx="1088.32" cy="889.043" r="1.8" fill="#000000" fill-rule="evenodd" fill-opacity="0" stroke="none"/>
<circle clip-path="url(#clip042)" cx="1160.74" cy="816.63" r="1.8" fill="#000000" fill-rule="evenodd" fill-opacity="0" stroke="none"/>
<circle clip-path="url(#clip042)" cx="1233.15" cy="870.939" r="1.8" fill="#000000" fill-rule="evenodd" fill-opacity="1" stroke="none"/>
<polyline clip-path="url(#clip042)" style="stroke:#000000; stroke-linecap:round; stroke-linejoin:round; stroke-width:4; stroke-opacity:1; fill:none" points="1160.74,816.63 1233.15,870.939 "/>
<path clip-path="url(#clip042)" d="M1204.35 849.339 L1215.15 834.939 L1233.15 870.939 L1193.55 863.739  Z" fill="#000000" fill-rule="evenodd" fill-opacity="1"/>
<polyline clip-path="url(#clip042)" style="stroke:#000000; stroke-linecap:round; stroke-linejoin:round; stroke-width:4; stroke-opacity:1; fill:none" points="1204.35,849.339 1160.74,816.63 "/>
<circle clip-path="url(#clip042)" cx="1160.74" cy="816.63" r="1.8" fill="#000000" fill-rule="evenodd" fill-opacity="0" stroke="none"/>
<circle clip-path="url(#clip042)" cx="1233.15" cy="870.939" r="1.8" fill="#000000" fill-rule="evenodd" fill-opacity="0" stroke="none"/>
<circle clip-path="url(#clip042)" cx="1305.56" cy="943.352" r="1.8" fill="#000000" fill-rule="evenodd" fill-opacity="1" stroke="none"/>
<polyline clip-path="url(#clip042)" style="stroke:#000000; stroke-linecap:round; stroke-linejoin:round; stroke-width:4; stroke-opacity:1; fill:none" points="1233.15,870.939 1305.56,943.352 "/>
<path clip-path="url(#clip042)" d="M1280.11 917.896 L1292.83 905.168 L1305.56 943.352 L1267.38 930.624  Z" fill="#000000" fill-rule="evenodd" fill-opacity="1"/>
<polyline clip-path="url(#clip042)" style="stroke:#000000; stroke-linecap:round; stroke-linejoin:round; stroke-width:4; stroke-opacity:1; fill:none" points="1280.11,917.896 1233.15,870.939 "/>
<circle clip-path="url(#clip042)" cx="1233.15" cy="870.939" r="1.8" fill="#000000" fill-rule="evenodd" fill-opacity="0" stroke="none"/>
<circle clip-path="url(#clip042)" cx="1305.56" cy="943.352" r="1.8" fill="#000000" fill-rule="evenodd" fill-opacity="0" stroke="none"/>
<circle clip-path="url(#clip042)" cx="1377.97" cy="889.043" r="1.8" fill="#000000" fill-rule="evenodd" fill-opacity="1" stroke="none"/>
<polyline clip-path="url(#clip042)" style="stroke:#000000; stroke-linecap:round; stroke-linejoin:round; stroke-width:4; stroke-opacity:1; fill:none" points="1305.56,943.352 1377.97,889.043 "/>
<path clip-path="url(#clip042)" d="M1349.17 910.643 L1338.37 896.243 L1377.97 889.043 L1359.97 925.043  Z" fill="#000000" fill-rule="evenodd" fill-opacity="1"/>
<polyline clip-path="url(#clip042)" style="stroke:#000000; stroke-linecap:round; stroke-linejoin:round; stroke-width:4; stroke-opacity:1; fill:none" points="1349.17,910.643 1305.56,943.352 "/>
<circle clip-path="url(#clip042)" cx="1305.56" cy="943.352" r="1.8" fill="#000000" fill-rule="evenodd" fill-opacity="0" stroke="none"/>
<circle clip-path="url(#clip042)" cx="1377.97" cy="889.043" r="1.8" fill="#000000" fill-rule="evenodd" fill-opacity="0" stroke="none"/>
<circle clip-path="url(#clip042)" cx="1432.28" cy="834.733" r="1.8" fill="#000000" fill-rule="evenodd" fill-opacity="1" stroke="none"/>
<polyline clip-path="url(#clip042)" style="stroke:#000000; stroke-linecap:round; stroke-linejoin:round; stroke-width:4; stroke-opacity:1; fill:none" points="1377.97,889.043 1432.28,834.733 "/>
<path clip-path="url(#clip042)" d="M1406.83 860.189 L1394.1 847.461 L1432.28 834.733 L1419.56 872.917  Z" fill="#000000" fill-rule="evenodd" fill-opacity="1"/>
<polyline clip-path="url(#clip042)" style="stroke:#000000; stroke-linecap:round; stroke-linejoin:round; stroke-width:4; stroke-opacity:1; fill:none" points="1406.83,860.189 1377.97,889.043 "/>
<circle clip-path="url(#clip042)" cx="1377.97" cy="889.043" r="1.8" fill="#000000" fill-rule="evenodd" fill-opacity="0" stroke="none"/>
<circle clip-path="url(#clip042)" cx="1432.28" cy="834.733" r="1.8" fill="#000000" fill-rule="evenodd" fill-opacity="0" stroke="none"/>
<circle clip-path="url(#clip042)" cx="1504.7" cy="762.32" r="1.8" fill="#000000" fill-rule="evenodd" fill-opacity="1" stroke="none"/>
<polyline clip-path="url(#clip042)" style="stroke:#000000; stroke-linecap:round; stroke-linejoin:round; stroke-width:4; stroke-opacity:1; fill:none" points="1432.28,834.733 1504.7,762.32 "/>
<path clip-path="url(#clip042)" d="M1479.24 787.776 L1466.51 775.048 L1504.7 762.32 L1491.97 800.504  Z" fill="#000000" fill-rule="evenodd" fill-opacity="1"/>
<polyline clip-path="url(#clip042)" style="stroke:#000000; stroke-linecap:round; stroke-linejoin:round; stroke-width:4; stroke-opacity:1; fill:none" points="1479.24,787.776 1432.28,834.733 "/>
<circle clip-path="url(#clip042)" cx="1432.28" cy="834.733" r="1.8" fill="#000000" fill-rule="evenodd" fill-opacity="0" stroke="none"/>
<circle clip-path="url(#clip042)" cx="1504.7" cy="762.32" r="1.8" fill="#000000" fill-rule="evenodd" fill-opacity="0" stroke="none"/>
<circle clip-path="url(#clip042)" cx="1522.8" cy="689.907" r="1.8" fill="#000000" fill-rule="evenodd" fill-opacity="1" stroke="none"/>
<polyline clip-path="url(#clip042)" style="stroke:#000000; stroke-linecap:round; stroke-linejoin:round; stroke-width:4; stroke-opacity:1; fill:none" points="1504.7,762.32 1522.8,689.907 "/>
<path clip-path="url(#clip042)" d="M1514.07 724.833 L1496.61 720.467 L1522.8 689.907 L1531.53 729.198  Z" fill="#000000" fill-rule="evenodd" fill-opacity="1"/>
<polyline clip-path="url(#clip042)" style="stroke:#000000; stroke-linecap:round; stroke-linejoin:round; stroke-width:4; stroke-opacity:1; fill:none" points="1514.07,724.833 1504.7,762.32 "/>
<circle clip-path="url(#clip042)" cx="1504.7" cy="762.32" r="1.8" fill="#000000" fill-rule="evenodd" fill-opacity="0" stroke="none"/>
<circle clip-path="url(#clip042)" cx="1522.8" cy="689.907" r="1.8" fill="#000000" fill-rule="evenodd" fill-opacity="0" stroke="none"/>
<circle clip-path="url(#clip042)" cx="1522.8" cy="617.495" r="1.8" fill="#000000" fill-rule="evenodd" fill-opacity="1" stroke="none"/>
<polyline clip-path="url(#clip042)" style="stroke:#000000; stroke-linecap:round; stroke-linejoin:round; stroke-width:4; stroke-opacity:1; fill:none" points="1522.8,689.907 1522.8,617.495 "/>
<path clip-path="url(#clip042)" d="M1522.8 653.495 L1504.8 653.495 L1522.8 617.495 L1540.8 653.495  Z" fill="#000000" fill-rule="evenodd" fill-opacity="1"/>
<polyline clip-path="url(#clip042)" style="stroke:#000000; stroke-linecap:round; stroke-linejoin:round; stroke-width:4; stroke-opacity:1; fill:none" points="1522.8,653.495 1522.8,689.907 "/>
<circle clip-path="url(#clip042)" cx="1522.8" cy="689.907" r="1.8" fill="#000000" fill-rule="evenodd" fill-opacity="0" stroke="none"/>
<circle clip-path="url(#clip042)" cx="1522.8" cy="617.495" r="1.8" fill="#000000" fill-rule="evenodd" fill-opacity="0" stroke="none"/>
<circle clip-path="url(#clip042)" cx="1504.7" cy="563.185" r="1.8" fill="#000000" fill-rule="evenodd" fill-opacity="1" stroke="none"/>
<polyline clip-path="url(#clip042)" style="stroke:#000000; stroke-linecap:round; stroke-linejoin:round; stroke-width:4; stroke-opacity:1; fill:none" points="1522.8,617.495 1504.7,563.185 "/>
<path clip-path="url(#clip042)" d="M1516.08 597.338 L1499 603.03 L1504.7 563.185 L1533.16 591.646  Z" fill="#000000" fill-rule="evenodd" fill-opacity="1"/>
<polyline clip-path="url(#clip042)" style="stroke:#000000; stroke-linecap:round; stroke-linejoin:round; stroke-width:4; stroke-opacity:1; fill:none" points="1516.08,597.338 1522.8,617.495 "/>
<circle clip-path="url(#clip042)" cx="1522.8" cy="617.495" r="1.8" fill="#000000" fill-rule="evenodd" fill-opacity="0" stroke="none"/>
<circle clip-path="url(#clip042)" cx="1504.7" cy="563.185" r="1.8" fill="#000000" fill-rule="evenodd" fill-opacity="0" stroke="none"/>
<circle clip-path="url(#clip042)" cx="1540.9" cy="490.772" r="1.8" fill="#000000" fill-rule="evenodd" fill-opacity="1" stroke="none"/>
<polyline clip-path="url(#clip042)" style="stroke:#000000; stroke-linecap:round; stroke-linejoin:round; stroke-width:4; stroke-opacity:1; fill:none" points="1504.7,563.185 1540.9,490.772 "/>
<path clip-path="url(#clip042)" d="M1524.8 522.972 L1508.7 514.922 L1540.9 490.772 L1540.9 531.022  Z" fill="#000000" fill-rule="evenodd" fill-opacity="1"/>
<polyline clip-path="url(#clip042)" style="stroke:#000000; stroke-linecap:round; stroke-linejoin:round; stroke-width:4; stroke-opacity:1; fill:none" points="1524.8,522.972 1504.7,563.185 "/>
<circle clip-path="url(#clip042)" cx="1504.7" cy="563.185" r="1.8" fill="#000000" fill-rule="evenodd" fill-opacity="0" stroke="none"/>
<circle clip-path="url(#clip042)" cx="1540.9" cy="490.772" r="1.8" fill="#000000" fill-rule="evenodd" fill-opacity="0" stroke="none"/>
<circle clip-path="url(#clip042)" cx="1595.21" cy="418.36" r="1.8" fill="#000000" fill-rule="evenodd" fill-opacity="1" stroke="none"/>
<polyline clip-path="url(#clip042)" style="stroke:#000000; stroke-linecap:round; stroke-linejoin:round; stroke-width:4; stroke-opacity:1; fill:none" points="1540.9,490.772 1595.21,418.36 "/>
<path clip-path="url(#clip042)" d="M1573.61 447.16 L1559.21 436.36 L1595.21 418.36 L1588.01 457.96  Z" fill="#000000" fill-rule="evenodd" fill-opacity="1"/>
<polyline clip-path="url(#clip042)" style="stroke:#000000; stroke-linecap:round; stroke-linejoin:round; stroke-width:4; stroke-opacity:1; fill:none" points="1573.61,447.16 1540.9,490.772 "/>
<circle clip-path="url(#clip042)" cx="1540.9" cy="490.772" r="1.8" fill="#000000" fill-rule="evenodd" fill-opacity="0" stroke="none"/>
<circle clip-path="url(#clip042)" cx="1595.21" cy="418.36" r="1.8" fill="#000000" fill-rule="evenodd" fill-opacity="0" stroke="none"/>
<circle clip-path="url(#clip042)" cx="1667.62" cy="345.947" r="1.8" fill="#000000" fill-rule="evenodd" fill-opacity="1" stroke="none"/>
<polyline clip-path="url(#clip042)" style="stroke:#000000; stroke-linecap:round; stroke-linejoin:round; stroke-width:4; stroke-opacity:1; fill:none" points="1595.21,418.36 1667.62,345.947 "/>
<path clip-path="url(#clip042)" d="M1642.17 371.403 L1629.44 358.675 L1667.62 345.947 L1654.9 384.131  Z" fill="#000000" fill-rule="evenodd" fill-opacity="1"/>
<polyline clip-path="url(#clip042)" style="stroke:#000000; stroke-linecap:round; stroke-linejoin:round; stroke-width:4; stroke-opacity:1; fill:none" points="1642.17,371.403 1595.21,418.36 "/>
<circle clip-path="url(#clip042)" cx="1595.21" cy="418.36" r="1.8" fill="#000000" fill-rule="evenodd" fill-opacity="0" stroke="none"/>
<circle clip-path="url(#clip042)" cx="1667.62" cy="345.947" r="1.8" fill="#000000" fill-rule="evenodd" fill-opacity="0" stroke="none"/>
<circle clip-path="url(#clip042)" cx="1721.93" cy="291.637" r="1.8" fill="#000000" fill-rule="evenodd" fill-opacity="1" stroke="none"/>
<polyline clip-path="url(#clip042)" style="stroke:#000000; stroke-linecap:round; stroke-linejoin:round; stroke-width:4; stroke-opacity:1; fill:none" points="1667.62,345.947 1721.93,291.637 "/>
<path clip-path="url(#clip042)" d="M1696.48 317.093 L1683.75 304.365 L1721.93 291.637 L1709.21 329.821  Z" fill="#000000" fill-rule="evenodd" fill-opacity="1"/>
<polyline clip-path="url(#clip042)" style="stroke:#000000; stroke-linecap:round; stroke-linejoin:round; stroke-width:4; stroke-opacity:1; fill:none" points="1696.48,317.093 1667.62,345.947 "/>
<circle clip-path="url(#clip042)" cx="1667.62" cy="345.947" r="1.8" fill="#000000" fill-rule="evenodd" fill-opacity="0" stroke="none"/>
<circle clip-path="url(#clip042)" cx="1721.93" cy="291.637" r="1.8" fill="#000000" fill-rule="evenodd" fill-opacity="0" stroke="none"/>
<circle clip-path="url(#clip042)" cx="816.775" cy="1196.8" r="1.8" fill="#000000" fill-rule="evenodd" fill-opacity="1" stroke="none"/>
<path clip-path="url(#clip040)" d="M1974.64 1438.47 L2279.02 1438.47 L2279.02 1179.27 L1974.64 1179.27  Z" fill="#ffffff" fill-rule="evenodd" fill-opacity="1"/>
<polyline clip-path="url(#clip040)" style="stroke:#000000; stroke-linecap:round; stroke-linejoin:round; stroke-width:4; stroke-opacity:1; fill:none" points="1974.64,1438.47 2279.02,1438.47 2279.02,1179.27 1974.64,1179.27 1974.64,1438.47 "/>
<path clip-path="url(#clip040)" d="M1999.22 1251.85 L2146.69 1251.85 L2146.69 1210.38 L1999.22 1210.38 L1999.22 1251.85  Z" fill="#ffff00" fill-rule="evenodd" fill-opacity="0.5"/>
<polyline clip-path="url(#clip040)" style="stroke:#000000; stroke-linecap:round; stroke-linejoin:round; stroke-width:4; stroke-opacity:1; fill:none" points="1999.22,1251.85 2146.69,1251.85 2146.69,1210.38 1999.22,1210.38 1999.22,1251.85 "/>
<path clip-path="url(#clip040)" d="M2185.11 1250.8 Q2183.31 1255.43 2181.6 1256.84 Q2179.88 1258.26 2177.01 1258.26 L2173.61 1258.26 L2173.61 1254.69 L2176.11 1254.69 Q2177.87 1254.69 2178.84 1253.86 Q2179.81 1253.02 2180.99 1249.92 L2181.76 1247.98 L2171.27 1222.47 L2175.79 1222.47 L2183.89 1242.75 L2191.99 1222.47 L2196.5 1222.47 L2185.11 1250.8 Z" fill="#000000" fill-rule="nonzero" fill-opacity="1" /><path clip-path="url(#clip040)" d="M2203.79 1244.46 L2211.43 1244.46 L2211.43 1218.09 L2203.12 1219.76 L2203.12 1215.5 L2211.39 1213.83 L2216.06 1213.83 L2216.06 1244.46 L2223.7 1244.46 L2223.7 1248.39 L2203.79 1248.39 L2203.79 1244.46 Z" fill="#000000" fill-rule="nonzero" fill-opacity="1" /><path clip-path="url(#clip040)" d="M1999.22 1303.69 L2146.69 1303.69 L2146.69 1262.22 L1999.22 1262.22 L1999.22 1303.69  Z" fill="#ffff00" fill-rule="evenodd" fill-opacity="0.5"/>
<polyline clip-path="url(#clip040)" style="stroke:#000000; stroke-linecap:round; stroke-linejoin:round; stroke-width:4; stroke-opacity:1; fill:none" points="1999.22,1303.69 2146.69,1303.69 2146.69,1262.22 1999.22,1262.22 1999.22,1303.69 "/>
<path clip-path="url(#clip040)" d="M2185.11 1302.64 Q2183.31 1307.27 2181.6 1308.68 Q2179.88 1310.1 2177.01 1310.1 L2173.61 1310.1 L2173.61 1306.53 L2176.11 1306.53 Q2177.87 1306.53 2178.84 1305.7 Q2179.81 1304.86 2180.99 1301.76 L2181.76 1299.82 L2171.27 1274.31 L2175.79 1274.31 L2183.89 1294.59 L2191.99 1274.31 L2196.5 1274.31 L2185.11 1302.64 Z" fill="#000000" fill-rule="nonzero" fill-opacity="1" /><path clip-path="url(#clip040)" d="M2207.01 1296.3 L2223.33 1296.3 L2223.33 1300.23 L2201.39 1300.23 L2201.39 1296.3 Q2204.05 1293.54 2208.63 1288.92 Q2213.24 1284.26 2214.42 1282.92 Q2216.66 1280.4 2217.54 1278.66 Q2218.45 1276.9 2218.45 1275.21 Q2218.45 1272.46 2216.5 1270.72 Q2214.58 1268.98 2211.48 1268.98 Q2209.28 1268.98 2206.83 1269.75 Q2204.4 1270.51 2201.62 1272.06 L2201.62 1267.34 Q2204.44 1266.21 2206.9 1265.63 Q2209.35 1265.05 2211.39 1265.05 Q2216.76 1265.05 2219.95 1267.73 Q2223.15 1270.42 2223.15 1274.91 Q2223.15 1277.04 2222.34 1278.96 Q2221.55 1280.86 2219.44 1283.45 Q2218.86 1284.12 2215.76 1287.34 Q2212.66 1290.54 2207.01 1296.3 Z" fill="#000000" fill-rule="nonzero" fill-opacity="1" /><path clip-path="url(#clip040)" d="M1999.22 1355.53 L2146.69 1355.53 L2146.69 1314.06 L1999.22 1314.06 L1999.22 1355.53  Z" fill="#008000" fill-rule="evenodd" fill-opacity="0.8"/>
<polyline clip-path="url(#clip040)" style="stroke:#000000; stroke-linecap:round; stroke-linejoin:round; stroke-width:4; stroke-opacity:1; fill:none" points="1999.22,1355.53 2146.69,1355.53 2146.69,1314.06 1999.22,1314.06 1999.22,1355.53 "/>
<path clip-path="url(#clip040)" d="M2185.11 1354.48 Q2183.31 1359.11 2181.6 1360.52 Q2179.88 1361.94 2177.01 1361.94 L2173.61 1361.94 L2173.61 1358.37 L2176.11 1358.37 Q2177.87 1358.37 2178.84 1357.54 Q2179.81 1356.7 2180.99 1353.6 L2181.76 1351.66 L2171.27 1326.15 L2175.79 1326.15 L2183.89 1346.43 L2191.99 1326.15 L2196.5 1326.15 L2185.11 1354.48 Z" fill="#000000" fill-rule="nonzero" fill-opacity="1" /><path clip-path="url(#clip040)" d="M2201.8 1317.51 L2224.03 1317.51 L2224.03 1319.51 L2211.48 1352.07 L2206.6 1352.07 L2218.4 1321.45 L2201.8 1321.45 L2201.8 1317.51 Z" fill="#000000" fill-rule="nonzero" fill-opacity="1" /><path clip-path="url(#clip040)" d="M2237.17 1348.14 L2253.49 1348.14 L2253.49 1352.07 L2231.55 1352.07 L2231.55 1348.14 Q2234.21 1345.38 2238.79 1340.76 Q2243.4 1336.1 2244.58 1334.76 Q2246.83 1332.24 2247.71 1330.5 Q2248.61 1328.74 2248.61 1327.05 Q2248.61 1324.3 2246.66 1322.56 Q2244.74 1320.82 2241.64 1320.82 Q2239.44 1320.82 2236.99 1321.59 Q2234.56 1322.35 2231.78 1323.9 L2231.78 1319.18 Q2234.6 1318.05 2237.06 1317.47 Q2239.51 1316.89 2241.55 1316.89 Q2246.92 1316.89 2250.11 1319.57 Q2253.31 1322.26 2253.31 1326.75 Q2253.31 1328.88 2252.5 1330.8 Q2251.71 1332.7 2249.6 1335.29 Q2249.03 1335.96 2245.92 1339.18 Q2242.82 1342.38 2237.17 1348.14 Z" fill="#000000" fill-rule="nonzero" fill-opacity="1" /><path clip-path="url(#clip040)" d="M1999.22 1407.37 L2146.69 1407.37 L2146.69 1365.9 L1999.22 1365.9 L1999.22 1407.37  Z" fill="#ff0000" fill-rule="evenodd" fill-opacity="0.8"/>
<polyline clip-path="url(#clip040)" style="stroke:#000000; stroke-linecap:round; stroke-linejoin:round; stroke-width:4; stroke-opacity:1; fill:none" points="1999.22,1407.37 2146.69,1407.37 2146.69,1365.9 1999.22,1365.9 1999.22,1407.37 "/>
<path clip-path="url(#clip040)" d="M2185.11 1406.32 Q2183.31 1410.95 2181.6 1412.36 Q2179.88 1413.78 2177.01 1413.78 L2173.61 1413.78 L2173.61 1410.21 L2176.11 1410.21 Q2177.87 1410.21 2178.84 1409.38 Q2179.81 1408.54 2180.99 1405.44 L2181.76 1403.5 L2171.27 1377.99 L2175.79 1377.99 L2183.89 1398.27 L2191.99 1377.99 L2196.5 1377.99 L2185.11 1406.32 Z" fill="#000000" fill-rule="nonzero" fill-opacity="1" /><path clip-path="url(#clip040)" d="M2201.8 1369.35 L2224.03 1369.35 L2224.03 1371.35 L2211.48 1403.91 L2206.6 1403.91 L2218.4 1373.29 L2201.8 1373.29 L2201.8 1369.35 Z" fill="#000000" fill-rule="nonzero" fill-opacity="1" /><path clip-path="url(#clip040)" d="M2247.31 1385.28 Q2250.67 1386 2252.54 1388.27 Q2254.44 1390.53 2254.44 1393.87 Q2254.44 1398.98 2250.92 1401.78 Q2247.41 1404.59 2240.92 1404.59 Q2238.75 1404.59 2236.43 1404.15 Q2234.14 1403.73 2231.69 1402.87 L2231.69 1398.36 Q2233.63 1399.49 2235.95 1400.07 Q2238.26 1400.65 2240.78 1400.65 Q2245.18 1400.65 2247.47 1398.91 Q2249.79 1397.18 2249.79 1393.87 Q2249.79 1390.81 2247.64 1389.1 Q2245.51 1387.36 2241.69 1387.36 L2237.66 1387.36 L2237.66 1383.52 L2241.87 1383.52 Q2245.32 1383.52 2247.15 1382.16 Q2248.98 1380.77 2248.98 1378.17 Q2248.98 1375.51 2247.08 1374.1 Q2245.21 1372.66 2241.69 1372.66 Q2239.77 1372.66 2237.57 1373.08 Q2235.37 1373.5 2232.73 1374.38 L2232.73 1370.21 Q2235.39 1369.47 2237.71 1369.1 Q2240.04 1368.73 2242.1 1368.73 Q2247.43 1368.73 2250.53 1371.16 Q2253.63 1373.57 2253.63 1377.69 Q2253.63 1380.56 2251.99 1382.55 Q2250.34 1384.52 2247.31 1385.28 Z" fill="#000000" fill-rule="nonzero" fill-opacity="1" /></svg>
