<?xml version="1.0" encoding="utf-8"?>
<svg xmlns="http://www.w3.org/2000/svg" xmlns:xlink="http://www.w3.org/1999/xlink" width="600" height="400" viewBox="0 0 2400 1600">
<defs>
  <clipPath id="clip730">
    <rect x="0" y="0" width="2400" height="1600"/>
  </clipPath>
</defs>
<path clip-path="url(#clip730)" d="M0 1600 L2400 1600 L2400 0 L0 0  Z" fill="#ffffff" fill-rule="evenodd" fill-opacity="1"/>
<defs>
  <clipPath id="clip731">
    <rect x="201" y="123" width="2152" height="1355"/>
  </clipPath>
</defs>
<path clip-path="url(#clip730)" d="M201.835 1477.81 L2352.76 1477.81 L2352.76 123.472 L201.835 123.472  Z" fill="#ffffff" fill-rule="evenodd" fill-opacity="1"/>
<polyline clip-path="url(#clip731)" style="stroke:#000000; stroke-linecap:round; stroke-linejoin:round; stroke-width:2; stroke-opacity:0.1; fill:none" points="282.855,1477.81 282.855,123.472 "/>
<polyline clip-path="url(#clip731)" style="stroke:#000000; stroke-linecap:round; stroke-linejoin:round; stroke-width:2; stroke-opacity:0.1; fill:none" points="767.169,1477.81 767.169,123.472 "/>
<polyline clip-path="url(#clip731)" style="stroke:#000000; stroke-linecap:round; stroke-linejoin:round; stroke-width:2; stroke-opacity:0.1; fill:none" points="1251.48,1477.81 1251.48,123.472 "/>
<polyline clip-path="url(#clip731)" style="stroke:#000000; stroke-linecap:round; stroke-linejoin:round; stroke-width:2; stroke-opacity:0.1; fill:none" points="1735.8,1477.81 1735.8,123.472 "/>
<polyline clip-path="url(#clip731)" style="stroke:#000000; stroke-linecap:round; stroke-linejoin:round; stroke-width:2; stroke-opacity:0.1; fill:none" points="2220.11,1477.81 2220.11,123.472 "/>
<polyline clip-path="url(#clip731)" style="stroke:#000000; stroke-linecap:round; stroke-linejoin:round; stroke-width:2; stroke-opacity:0.1; fill:none" points="201.835,1424.16 2352.76,1424.16 "/>
<polyline clip-path="url(#clip731)" style="stroke:#000000; stroke-linecap:round; stroke-linejoin:round; stroke-width:2; stroke-opacity:0.1; fill:none" points="201.835,1182 2352.76,1182 "/>
<polyline clip-path="url(#clip731)" style="stroke:#000000; stroke-linecap:round; stroke-linejoin:round; stroke-width:2; stroke-opacity:0.1; fill:none" points="201.835,939.848 2352.76,939.848 "/>
<polyline clip-path="url(#clip731)" style="stroke:#000000; stroke-linecap:round; stroke-linejoin:round; stroke-width:2; stroke-opacity:0.1; fill:none" points="201.835,697.691 2352.76,697.691 "/>
<polyline clip-path="url(#clip731)" style="stroke:#000000; stroke-linecap:round; stroke-linejoin:round; stroke-width:2; stroke-opacity:0.1; fill:none" points="201.835,455.533 2352.76,455.533 "/>
<polyline clip-path="url(#clip731)" style="stroke:#000000; stroke-linecap:round; stroke-linejoin:round; stroke-width:2; stroke-opacity:0.1; fill:none" points="201.835,213.376 2352.76,213.376 "/>
<polyline clip-path="url(#clip730)" style="stroke:#000000; stroke-linecap:round; stroke-linejoin:round; stroke-width:4; stroke-opacity:1; fill:none" points="201.835,1477.81 2352.76,1477.81 "/>
<polyline clip-path="url(#clip730)" style="stroke:#000000; stroke-linecap:round; stroke-linejoin:round; stroke-width:4; stroke-opacity:1; fill:none" points="282.855,1477.81 282.855,1458.91 "/>
<polyline clip-path="url(#clip730)" style="stroke:#000000; stroke-linecap:round; stroke-linejoin:round; stroke-width:4; stroke-opacity:1; fill:none" points="767.169,1477.81 767.169,1458.91 "/>
<polyline clip-path="url(#clip730)" style="stroke:#000000; stroke-linecap:round; stroke-linejoin:round; stroke-width:4; stroke-opacity:1; fill:none" points="1251.48,1477.81 1251.48,1458.91 "/>
<polyline clip-path="url(#clip730)" style="stroke:#000000; stroke-linecap:round; stroke-linejoin:round; stroke-width:4; stroke-opacity:1; fill:none" points="1735.8,1477.81 1735.8,1458.91 "/>
<polyline clip-path="url(#clip730)" style="stroke:#000000; stroke-linecap:round; stroke-linejoin:round; stroke-width:4; stroke-opacity:1; fill:none" points="2220.11,1477.81 2220.11,1458.91 "/>
<path clip-path="url(#clip730)" d="M225.433 1529.97 L262.528 1529.97 L262.528 1534.89 L225.433 1534.89 L225.433 1529.97 Z" fill="#000000" fill-rule="nonzero" fill-opacity="1" /><path clip-path="url(#clip730)" d="M280.178 1546.09 L300.578 1546.09 L300.578 1551.01 L273.147 1551.01 L273.147 1546.09 Q276.475 1542.65 282.204 1536.86 Q287.962 1531.04 289.438 1529.36 Q292.244 1526.21 293.344 1524.04 Q294.472 1521.84 294.472 1519.73 Q294.472 1516.29 292.042 1514.12 Q289.64 1511.95 285.763 1511.95 Q283.014 1511.95 279.947 1512.9 Q276.909 1513.86 273.437 1515.79 L273.437 1509.89 Q276.967 1508.47 280.034 1507.75 Q283.101 1507.03 285.647 1507.03 Q292.36 1507.03 296.353 1510.38 Q300.346 1513.74 300.346 1519.35 Q300.346 1522.01 299.333 1524.42 Q298.35 1526.79 295.717 1530.03 Q294.993 1530.87 291.116 1534.89 Q287.239 1538.88 280.178 1546.09 Z" fill="#000000" fill-rule="nonzero" fill-opacity="1" /><path clip-path="url(#clip730)" d="M325.346 1511.66 Q320.832 1511.66 318.546 1516.11 Q316.289 1520.54 316.289 1529.45 Q316.289 1538.33 318.546 1542.79 Q320.832 1547.22 325.346 1547.22 Q329.889 1547.22 332.146 1542.79 Q334.432 1538.33 334.432 1529.45 Q334.432 1520.54 332.146 1516.11 Q329.889 1511.66 325.346 1511.66 M325.346 1507.03 Q332.609 1507.03 336.428 1512.78 Q340.276 1518.51 340.276 1529.45 Q340.276 1540.36 336.428 1546.12 Q332.609 1551.85 325.346 1551.85 Q318.083 1551.85 314.235 1546.12 Q310.416 1540.36 310.416 1529.45 Q310.416 1518.51 314.235 1512.78 Q318.083 1507.03 325.346 1507.03 Z" fill="#000000" fill-rule="nonzero" fill-opacity="1" /><path clip-path="url(#clip730)" d="M709.748 1529.97 L746.843 1529.97 L746.843 1534.89 L709.748 1534.89 L709.748 1529.97 Z" fill="#000000" fill-rule="nonzero" fill-opacity="1" /><path clip-path="url(#clip730)" d="M760.471 1546.09 L770.02 1546.09 L770.02 1513.13 L759.632 1515.22 L759.632 1509.89 L769.962 1507.81 L775.807 1507.81 L775.807 1546.09 L785.355 1546.09 L785.355 1551.01 L760.471 1551.01 L760.471 1546.09 Z" fill="#000000" fill-rule="nonzero" fill-opacity="1" /><path clip-path="url(#clip730)" d="M809.661 1511.66 Q805.147 1511.66 802.861 1516.11 Q800.604 1520.54 800.604 1529.45 Q800.604 1538.33 802.861 1542.79 Q805.147 1547.22 809.661 1547.22 Q814.203 1547.22 816.46 1542.79 Q818.746 1538.33 818.746 1529.45 Q818.746 1520.54 816.46 1516.11 Q814.203 1511.66 809.661 1511.66 M809.661 1507.03 Q816.923 1507.03 820.743 1512.78 Q824.591 1518.51 824.591 1529.45 Q824.591 1540.36 820.743 1546.12 Q816.923 1551.85 809.661 1551.85 Q802.398 1551.85 798.549 1546.12 Q794.73 1540.36 794.73 1529.45 Q794.73 1518.51 798.549 1512.78 Q802.398 1507.03 809.661 1507.03 Z" fill="#000000" fill-rule="nonzero" fill-opacity="1" /><path clip-path="url(#clip730)" d="M1251.48 1511.66 Q1246.97 1511.66 1244.68 1516.11 Q1242.43 1520.54 1242.43 1529.45 Q1242.43 1538.33 1244.68 1542.79 Q1246.97 1547.22 1251.48 1547.22 Q1256.03 1547.22 1258.28 1542.79 Q1260.57 1538.33 1260.57 1529.45 Q1260.57 1520.54 1258.28 1516.11 Q1256.03 1511.66 1251.48 1511.66 M1251.48 1507.03 Q1258.75 1507.03 1262.57 1512.78 Q1266.41 1518.51 1266.41 1529.45 Q1266.41 1540.36 1262.57 1546.12 Q1258.75 1551.85 1251.48 1551.85 Q1244.22 1551.85 1240.37 1546.12 Q1236.55 1540.36 1236.55 1529.45 Q1236.55 1518.51 1240.37 1512.78 Q1244.22 1507.03 1251.48 1507.03 Z" fill="#000000" fill-rule="nonzero" fill-opacity="1" /><path clip-path="url(#clip730)" d="M1704.16 1546.09 L1713.71 1546.09 L1713.71 1513.13 L1703.32 1515.22 L1703.32 1509.89 L1713.65 1507.81 L1719.49 1507.81 L1719.49 1546.09 L1729.04 1546.09 L1729.04 1551.01 L1704.16 1551.01 L1704.16 1546.09 Z" fill="#000000" fill-rule="nonzero" fill-opacity="1" /><path clip-path="url(#clip730)" d="M1753.35 1511.66 Q1748.83 1511.66 1746.55 1516.11 Q1744.29 1520.54 1744.29 1529.45 Q1744.29 1538.33 1746.55 1542.79 Q1748.83 1547.22 1753.35 1547.22 Q1757.89 1547.22 1760.15 1542.79 Q1762.43 1538.33 1762.43 1529.45 Q1762.43 1520.54 1760.15 1516.11 Q1757.89 1511.66 1753.35 1511.66 M1753.35 1507.03 Q1760.61 1507.03 1764.43 1512.78 Q1768.28 1518.51 1768.28 1529.45 Q1768.28 1540.36 1764.43 1546.12 Q1760.61 1551.85 1753.35 1551.85 Q1746.08 1551.85 1742.24 1546.12 Q1738.42 1540.36 1738.42 1529.45 Q1738.42 1518.51 1742.24 1512.78 Q1746.08 1507.03 1753.35 1507.03 Z" fill="#000000" fill-rule="nonzero" fill-opacity="1" /><path clip-path="url(#clip730)" d="M2193.58 1546.09 L2213.98 1546.09 L2213.98 1551.01 L2186.55 1551.01 L2186.55 1546.09 Q2189.88 1542.65 2195.6 1536.86 Q2201.36 1531.04 2202.84 1529.36 Q2205.65 1526.21 2206.74 1524.04 Q2207.87 1521.84 2207.87 1519.73 Q2207.87 1516.29 2205.44 1514.12 Q2203.04 1511.95 2199.16 1511.95 Q2196.42 1511.95 2193.35 1512.9 Q2190.31 1513.86 2186.84 1515.79 L2186.84 1509.89 Q2190.37 1508.47 2193.43 1507.75 Q2196.5 1507.03 2199.05 1507.03 Q2205.76 1507.03 2209.75 1510.38 Q2213.75 1513.74 2213.75 1519.35 Q2213.75 1522.01 2212.73 1524.42 Q2211.75 1526.79 2209.12 1530.03 Q2208.39 1530.87 2204.52 1534.89 Q2200.64 1538.88 2193.58 1546.09 Z" fill="#000000" fill-rule="nonzero" fill-opacity="1" /><path clip-path="url(#clip730)" d="M2238.75 1511.66 Q2234.23 1511.66 2231.95 1516.11 Q2229.69 1520.54 2229.69 1529.45 Q2229.69 1538.33 2231.95 1542.79 Q2234.23 1547.22 2238.75 1547.22 Q2243.29 1547.22 2245.55 1542.79 Q2247.83 1538.33 2247.83 1529.45 Q2247.83 1520.54 2245.55 1516.11 Q2243.29 1511.66 2238.75 1511.66 M2238.75 1507.03 Q2246.01 1507.03 2249.83 1512.78 Q2253.68 1518.51 2253.68 1529.45 Q2253.68 1540.36 2249.83 1546.12 Q2246.01 1551.85 2238.75 1551.85 Q2231.48 1551.85 2227.64 1546.12 Q2223.82 1540.36 2223.82 1529.45 Q2223.82 1518.51 2227.64 1512.78 Q2231.48 1507.03 2238.75 1507.03 Z" fill="#000000" fill-rule="nonzero" fill-opacity="1" /><polyline clip-path="url(#clip730)" style="stroke:#000000; stroke-linecap:round; stroke-linejoin:round; stroke-width:4; stroke-opacity:1; fill:none" points="201.835,1477.81 201.835,123.472 "/>
<polyline clip-path="url(#clip730)" style="stroke:#000000; stroke-linecap:round; stroke-linejoin:round; stroke-width:4; stroke-opacity:1; fill:none" points="201.835,1424.16 220.733,1424.16 "/>
<polyline clip-path="url(#clip730)" style="stroke:#000000; stroke-linecap:round; stroke-linejoin:round; stroke-width:4; stroke-opacity:1; fill:none" points="201.835,1182 220.733,1182 "/>
<polyline clip-path="url(#clip730)" style="stroke:#000000; stroke-linecap:round; stroke-linejoin:round; stroke-width:4; stroke-opacity:1; fill:none" points="201.835,939.848 220.733,939.848 "/>
<polyline clip-path="url(#clip730)" style="stroke:#000000; stroke-linecap:round; stroke-linejoin:round; stroke-width:4; stroke-opacity:1; fill:none" points="201.835,697.691 220.733,697.691 "/>
<polyline clip-path="url(#clip730)" style="stroke:#000000; stroke-linecap:round; stroke-linejoin:round; stroke-width:4; stroke-opacity:1; fill:none" points="201.835,455.533 220.733,455.533 "/>
<polyline clip-path="url(#clip730)" style="stroke:#000000; stroke-linecap:round; stroke-linejoin:round; stroke-width:4; stroke-opacity:1; fill:none" points="201.835,213.376 220.733,213.376 "/>
<path clip-path="url(#clip730)" d="M50.9921 1424.73 L88.0868 1424.73 L88.0868 1429.65 L50.9921 1429.65 L50.9921 1424.73 Z" fill="#000000" fill-rule="nonzero" fill-opacity="1" /><path clip-path="url(#clip730)" d="M101.715 1440.84 L111.264 1440.84 L111.264 1407.89 L100.876 1409.97 L100.876 1404.65 L111.206 1402.56 L117.051 1402.56 L117.051 1440.84 L126.599 1440.84 L126.599 1445.76 L101.715 1445.76 L101.715 1440.84 Z" fill="#000000" fill-rule="nonzero" fill-opacity="1" /><path clip-path="url(#clip730)" d="M150.905 1406.41 Q146.391 1406.41 144.105 1410.87 Q141.848 1415.29 141.848 1424.21 Q141.848 1433.09 144.105 1437.54 Q146.391 1441.97 150.905 1441.97 Q155.448 1441.97 157.705 1437.54 Q159.99 1433.09 159.99 1424.21 Q159.99 1415.29 157.705 1410.87 Q155.448 1406.41 150.905 1406.41 M150.905 1401.78 Q158.167 1401.78 161.987 1407.54 Q165.835 1413.27 165.835 1424.21 Q165.835 1435.11 161.987 1440.87 Q158.167 1446.6 150.905 1446.6 Q143.642 1446.6 139.794 1440.87 Q135.974 1435.11 135.974 1424.21 Q135.974 1413.27 139.794 1407.54 Q143.642 1401.78 150.905 1401.78 Z" fill="#000000" fill-rule="nonzero" fill-opacity="1" /><path clip-path="url(#clip730)" d="M89.9387 1182.57 L127.033 1182.57 L127.033 1187.49 L89.9387 1187.49 L89.9387 1182.57 Z" fill="#000000" fill-rule="nonzero" fill-opacity="1" /><path clip-path="url(#clip730)" d="M139.707 1160.4 L162.652 1160.4 L162.652 1165.32 L145.06 1165.32 L145.06 1175.91 Q146.333 1175.48 147.606 1175.28 Q148.879 1175.05 150.152 1175.05 Q157.386 1175.05 161.611 1179.01 Q165.835 1182.97 165.835 1189.75 Q165.835 1196.72 161.495 1200.6 Q157.155 1204.44 149.255 1204.44 Q146.536 1204.44 143.7 1203.98 Q140.893 1203.52 137.884 1202.59 L137.884 1196.72 Q140.488 1198.14 143.266 1198.83 Q146.044 1199.53 149.14 1199.53 Q154.146 1199.53 157.068 1196.89 Q159.99 1194.26 159.99 1189.75 Q159.99 1185.23 157.068 1182.6 Q154.146 1179.97 149.14 1179.97 Q146.796 1179.97 144.452 1180.49 Q142.137 1181.01 139.707 1182.11 L139.707 1160.4 Z" fill="#000000" fill-rule="nonzero" fill-opacity="1" /><path clip-path="url(#clip730)" d="M150.905 922.096 Q146.391 922.096 144.105 926.552 Q141.848 930.979 141.848 939.891 Q141.848 948.774 144.105 953.23 Q146.391 957.657 150.905 957.657 Q155.448 957.657 157.705 953.23 Q159.99 948.774 159.99 939.891 Q159.99 930.979 157.705 926.552 Q155.448 922.096 150.905 922.096 M150.905 917.467 Q158.167 917.467 161.987 923.225 Q165.835 928.954 165.835 939.891 Q165.835 950.8 161.987 956.558 Q158.167 962.287 150.905 962.287 Q143.642 962.287 139.794 956.558 Q135.974 950.8 135.974 939.891 Q135.974 928.954 139.794 923.225 Q143.642 917.467 150.905 917.467 Z" fill="#000000" fill-rule="nonzero" fill-opacity="1" /><path clip-path="url(#clip730)" d="M139.707 676.091 L162.652 676.091 L162.652 681.009 L145.06 681.009 L145.06 691.6 Q146.333 691.166 147.606 690.963 Q148.879 690.732 150.152 690.732 Q157.386 690.732 161.611 694.696 Q165.835 698.66 165.835 705.431 Q165.835 712.404 161.495 716.281 Q157.155 720.13 149.255 720.13 Q146.536 720.13 143.7 719.667 Q140.893 719.204 137.884 718.278 L137.884 712.404 Q140.488 713.822 143.266 714.516 Q146.044 715.211 149.14 715.211 Q154.146 715.211 157.068 712.578 Q159.99 709.944 159.99 705.431 Q159.99 700.917 157.068 698.284 Q154.146 695.651 149.14 695.651 Q146.796 695.651 144.452 696.171 Q142.137 696.692 139.707 697.792 L139.707 676.091 Z" fill="#000000" fill-rule="nonzero" fill-opacity="1" /><path clip-path="url(#clip730)" d="M101.715 472.214 L111.264 472.214 L111.264 439.257 L100.876 441.341 L100.876 436.017 L111.206 433.933 L117.051 433.933 L117.051 472.214 L126.599 472.214 L126.599 477.133 L101.715 477.133 L101.715 472.214 Z" fill="#000000" fill-rule="nonzero" fill-opacity="1" /><path clip-path="url(#clip730)" d="M150.905 437.782 Q146.391 437.782 144.105 442.238 Q141.848 446.665 141.848 455.577 Q141.848 464.46 144.105 468.916 Q146.391 473.343 150.905 473.343 Q155.448 473.343 157.705 468.916 Q159.99 464.46 159.99 455.577 Q159.99 446.665 157.705 442.238 Q155.448 437.782 150.905 437.782 M150.905 433.152 Q158.167 433.152 161.987 438.91 Q165.835 444.639 165.835 455.577 Q165.835 466.485 161.987 472.243 Q158.167 477.972 150.905 477.972 Q143.642 477.972 139.794 472.243 Q135.974 466.485 135.974 455.577 Q135.974 444.639 139.794 438.91 Q143.642 433.152 150.905 433.152 Z" fill="#000000" fill-rule="nonzero" fill-opacity="1" /><path clip-path="url(#clip730)" d="M102.959 230.057 L112.508 230.057 L112.508 197.1 L102.12 199.183 L102.12 193.859 L112.45 191.776 L118.295 191.776 L118.295 230.057 L127.844 230.057 L127.844 234.976 L102.959 234.976 L102.959 230.057 Z" fill="#000000" fill-rule="nonzero" fill-opacity="1" /><path clip-path="url(#clip730)" d="M139.707 191.776 L162.652 191.776 L162.652 196.695 L145.06 196.695 L145.06 207.285 Q146.333 206.851 147.606 206.649 Q148.879 206.417 150.152 206.417 Q157.386 206.417 161.611 210.381 Q165.835 214.345 165.835 221.116 Q165.835 228.089 161.495 231.967 Q157.155 235.815 149.255 235.815 Q146.536 235.815 143.7 235.352 Q140.893 234.889 137.884 233.963 L137.884 228.089 Q140.488 229.507 143.266 230.202 Q146.044 230.896 149.14 230.896 Q154.146 230.896 157.068 228.263 Q159.99 225.63 159.99 221.116 Q159.99 216.602 157.068 213.969 Q154.146 211.336 149.14 211.336 Q146.796 211.336 144.452 211.857 Q142.137 212.378 139.707 213.477 L139.707 191.776 Z" fill="#000000" fill-rule="nonzero" fill-opacity="1" /><path clip-path="url(#clip730)" d="M1048.42 20.1573 L1037.32 50.2555 L1059.56 50.2555 L1048.42 20.1573 M1043.8 12.096 L1053.08 12.096 L1076.13 72.576 L1067.62 72.576 L1062.11 57.061 L1034.85 57.061 L1029.34 72.576 L1020.71 72.576 L1043.8 12.096 Z" fill="#000000" fill-rule="nonzero" fill-opacity="1" /><path clip-path="url(#clip730)" d="M1117.2 49.9314 Q1117.2 41.7081 1113.8 37.0496 Q1110.44 32.3505 1104.52 32.3505 Q1098.61 32.3505 1095.21 37.0496 Q1091.85 41.7081 1091.85 49.9314 Q1091.85 58.1548 1095.21 62.8538 Q1098.61 67.5124 1104.52 67.5124 Q1110.44 67.5124 1113.8 62.8538 Q1117.2 58.1548 1117.2 49.9314 M1091.85 34.0924 Q1094.19 30.0415 1097.76 28.0971 Q1101.36 26.1121 1106.35 26.1121 Q1114.61 26.1121 1119.76 32.6746 Q1124.94 39.2371 1124.94 49.9314 Q1124.94 60.6258 1119.76 67.1883 Q1114.61 73.7508 1106.35 73.7508 Q1101.36 73.7508 1097.76 71.8063 Q1094.19 69.8214 1091.85 65.7705 L1091.85 72.576 L1084.35 72.576 L1084.35 9.54393 L1091.85 9.54393 L1091.85 34.0924 Z" fill="#000000" fill-rule="nonzero" fill-opacity="1" /><path clip-path="url(#clip730)" d="M1166.22 28.5427 L1166.22 35.5912 Q1163.06 33.9709 1159.66 33.1607 Q1156.25 32.3505 1152.61 32.3505 Q1147.06 32.3505 1144.26 34.0519 Q1141.51 35.7533 1141.51 39.156 Q1141.51 41.7486 1143.49 43.2475 Q1145.48 44.7058 1151.47 46.0426 L1154.03 46.6097 Q1161.97 48.3111 1165.29 51.4303 Q1168.65 54.509 1168.65 60.0587 Q1168.65 66.3781 1163.63 70.0644 Q1158.64 73.7508 1149.89 73.7508 Q1146.25 73.7508 1142.28 73.0216 Q1138.35 72.3329 1133.97 70.9151 L1133.97 63.2184 Q1138.11 65.3654 1142.12 66.4591 Q1146.13 67.5124 1150.06 67.5124 Q1155.32 67.5124 1158.16 65.73 Q1160.99 63.9071 1160.99 60.6258 Q1160.99 57.5877 1158.93 55.9673 Q1156.9 54.3469 1149.98 52.8481 L1147.38 52.2405 Q1140.46 50.7821 1137.38 47.7845 Q1134.3 44.7463 1134.3 39.4801 Q1134.3 33.0797 1138.84 29.5959 Q1143.37 26.1121 1151.72 26.1121 Q1155.85 26.1121 1159.5 26.7198 Q1163.14 27.3274 1166.22 28.5427 Z" fill="#000000" fill-rule="nonzero" fill-opacity="1" /><path clip-path="url(#clip730)" d="M1187.89 14.324 L1187.89 27.2059 L1203.25 27.2059 L1203.25 32.9987 L1187.89 32.9987 L1187.89 57.6282 Q1187.89 63.1779 1189.39 64.7578 Q1190.93 66.3376 1195.59 66.3376 L1203.25 66.3376 L1203.25 72.576 L1195.59 72.576 Q1186.96 72.576 1183.68 69.3758 Q1180.4 66.1351 1180.4 57.6282 L1180.4 32.9987 L1174.93 32.9987 L1174.93 27.2059 L1180.4 27.2059 L1180.4 14.324 L1187.89 14.324 Z" fill="#000000" fill-rule="nonzero" fill-opacity="1" /><path clip-path="url(#clip730)" d="M1239.34 34.1734 Q1238.08 33.4443 1236.58 33.1202 Q1235.13 32.7556 1233.34 32.7556 Q1227.02 32.7556 1223.62 36.8875 Q1220.26 40.9789 1220.26 48.6757 L1220.26 72.576 L1212.76 72.576 L1212.76 27.2059 L1220.26 27.2059 L1220.26 34.2544 Q1222.61 30.1225 1226.38 28.1376 Q1230.14 26.1121 1235.53 26.1121 Q1236.3 26.1121 1237.23 26.2337 Q1238.16 26.3147 1239.3 26.5172 L1239.34 34.1734 Z" fill="#000000" fill-rule="nonzero" fill-opacity="1" /><path clip-path="url(#clip730)" d="M1267.78 49.7694 Q1258.74 49.7694 1255.26 51.8354 Q1251.77 53.9013 1251.77 58.8839 Q1251.77 62.8538 1254.37 65.2034 Q1257 67.5124 1261.5 67.5124 Q1267.69 67.5124 1271.42 63.1374 Q1275.19 58.7219 1275.19 51.4303 L1275.19 49.7694 L1267.78 49.7694 M1282.64 46.6907 L1282.64 72.576 L1275.19 72.576 L1275.19 65.6895 Q1272.64 69.8214 1268.83 71.8063 Q1265.02 73.7508 1259.51 73.7508 Q1252.54 73.7508 1248.41 69.8619 Q1244.32 65.9325 1244.32 59.3701 Q1244.32 51.7138 1249.43 47.825 Q1254.57 43.9361 1264.74 43.9361 L1275.19 43.9361 L1275.19 43.2069 Q1275.19 38.0623 1271.79 35.2672 Q1268.42 32.4315 1262.31 32.4315 Q1258.42 32.4315 1254.73 33.3632 Q1251.05 34.295 1247.64 36.1584 L1247.64 29.2718 Q1251.73 27.692 1255.58 26.9223 Q1259.43 26.1121 1263.08 26.1121 Q1272.92 26.1121 1277.78 31.2163 Q1282.64 36.3204 1282.64 46.6907 Z" fill="#000000" fill-rule="nonzero" fill-opacity="1" /><path clip-path="url(#clip730)" d="M1330.65 28.9478 L1330.65 35.9153 Q1327.49 34.1734 1324.29 33.3227 Q1321.13 32.4315 1317.89 32.4315 Q1310.63 32.4315 1306.62 37.0496 Q1302.61 41.6271 1302.61 49.9314 Q1302.61 58.2358 1306.62 62.8538 Q1310.63 67.4314 1317.89 67.4314 Q1321.13 67.4314 1324.29 66.5807 Q1327.49 65.6895 1330.65 63.9476 L1330.65 70.8341 Q1327.53 72.2924 1324.16 73.0216 Q1320.84 73.7508 1317.08 73.7508 Q1306.83 73.7508 1300.79 67.3098 Q1294.75 60.8689 1294.75 49.9314 Q1294.75 38.832 1300.83 32.472 Q1306.95 26.1121 1317.56 26.1121 Q1321 26.1121 1324.29 26.8413 Q1327.57 27.5299 1330.65 28.9478 Z" fill="#000000" fill-rule="nonzero" fill-opacity="1" /><path clip-path="url(#clip730)" d="M1350.98 14.324 L1350.98 27.2059 L1366.33 27.2059 L1366.33 32.9987 L1350.98 32.9987 L1350.98 57.6282 Q1350.98 63.1779 1352.48 64.7578 Q1354.02 66.3376 1358.68 66.3376 L1366.33 66.3376 L1366.33 72.576 L1358.68 72.576 Q1350.05 72.576 1346.77 69.3758 Q1343.49 66.1351 1343.49 57.6282 L1343.49 32.9987 L1338.02 32.9987 L1338.02 27.2059 L1343.49 27.2059 L1343.49 14.324 L1350.98 14.324 Z" fill="#000000" fill-rule="nonzero" fill-opacity="1" /><path clip-path="url(#clip730)" d="M1376.14 27.2059 L1383.59 27.2059 L1383.59 72.576 L1376.14 72.576 L1376.14 27.2059 M1376.14 9.54393 L1383.59 9.54393 L1383.59 18.9825 L1376.14 18.9825 L1376.14 9.54393 Z" fill="#000000" fill-rule="nonzero" fill-opacity="1" /><path clip-path="url(#clip730)" d="M1416.77 32.4315 Q1410.77 32.4315 1407.29 37.1306 Q1403.81 41.7891 1403.81 49.9314 Q1403.81 58.0738 1407.25 62.7728 Q1410.73 67.4314 1416.77 67.4314 Q1422.72 67.4314 1426.21 62.7323 Q1429.69 58.0333 1429.69 49.9314 Q1429.69 41.8701 1426.21 37.1711 Q1422.72 32.4315 1416.77 32.4315 M1416.77 26.1121 Q1426.49 26.1121 1432.04 32.4315 Q1437.59 38.7509 1437.59 49.9314 Q1437.59 61.0714 1432.04 67.4314 Q1426.49 73.7508 1416.77 73.7508 Q1407.01 73.7508 1401.46 67.4314 Q1395.95 61.0714 1395.95 49.9314 Q1395.95 38.7509 1401.46 32.4315 Q1407.01 26.1121 1416.77 26.1121 Z" fill="#000000" fill-rule="nonzero" fill-opacity="1" /><path clip-path="url(#clip730)" d="M1487.66 45.1919 L1487.66 72.576 L1480.21 72.576 L1480.21 45.4349 Q1480.21 38.994 1477.69 35.7938 Q1475.18 32.5936 1470.16 32.5936 Q1464.12 32.5936 1460.64 36.4419 Q1457.16 40.2903 1457.16 46.9338 L1457.16 72.576 L1449.66 72.576 L1449.66 27.2059 L1457.16 27.2059 L1457.16 34.2544 Q1459.83 30.163 1463.43 28.1376 Q1467.08 26.1121 1471.82 26.1121 Q1479.64 26.1121 1483.65 30.9732 Q1487.66 35.7938 1487.66 45.1919 Z" fill="#000000" fill-rule="nonzero" fill-opacity="1" /><path clip-path="url(#clip730)" d="M1531.45 28.5427 L1531.45 35.5912 Q1528.29 33.9709 1524.89 33.1607 Q1521.48 32.3505 1517.84 32.3505 Q1512.29 32.3505 1509.49 34.0519 Q1506.74 35.7533 1506.74 39.156 Q1506.74 41.7486 1508.72 43.2475 Q1510.71 44.7058 1516.7 46.0426 L1519.26 46.6097 Q1527.2 48.3111 1530.52 51.4303 Q1533.88 54.509 1533.88 60.0587 Q1533.88 66.3781 1528.86 70.0644 Q1523.87 73.7508 1515.12 73.7508 Q1511.48 73.7508 1507.51 73.0216 Q1503.58 72.3329 1499.2 70.9151 L1499.2 63.2184 Q1503.34 65.3654 1507.35 66.4591 Q1511.36 67.5124 1515.29 67.5124 Q1520.55 67.5124 1523.39 65.73 Q1526.22 63.9071 1526.22 60.6258 Q1526.22 57.5877 1524.16 55.9673 Q1522.13 54.3469 1515.21 52.8481 L1512.61 52.2405 Q1505.69 50.7821 1502.61 47.7845 Q1499.53 44.7463 1499.53 39.4801 Q1499.53 33.0797 1504.07 29.5959 Q1508.6 26.1121 1516.95 26.1121 Q1521.08 26.1121 1524.72 26.7198 Q1528.37 27.3274 1531.45 28.5427 Z" fill="#000000" fill-rule="nonzero" fill-opacity="1" /><path clip-path="url(#clip731)" d="M751.854 1424.91 L752.002 1426.41 L752.295 1427.89 L752.732 1429.33 L753.308 1430.72 L754.017 1432.05 L754.853 1433.3 L755.808 1434.46 L756.872 1435.52 L758.035 1436.48 L759.286 1437.31 L760.613 1438.02 L762.004 1438.6 L763.444 1439.04 L764.919 1439.33 L766.417 1439.48 L767.922 1439.48 L769.419 1439.33 L770.895 1439.04 L772.335 1438.6 L773.725 1438.02 L775.053 1437.31 L776.304 1436.48 L777.467 1435.52 L778.531 1434.46 L779.486 1433.3 L780.322 1432.05 L781.031 1430.72 L781.607 1429.33 L782.044 1427.89 L782.337 1426.41 L782.485 1424.91 L782.485 1423.41 L782.337 1421.91 L782.044 1420.44 L781.607 1419 L781.031 1417.61 L780.322 1416.28 L779.486 1415.03 L778.531 1413.86 L777.467 1412.8 L776.304 1411.85 L775.053 1411.01 L773.725 1410.3 L772.335 1409.72 L770.895 1409.29 L769.419 1408.99 L767.922 1408.85 L766.417 1408.85 L764.919 1408.99 L763.444 1409.29 L762.004 1409.72 L760.613 1410.3 L759.286 1411.01 L758.035 1411.85 L756.872 1412.8 L755.808 1413.86 L754.853 1415.03 L754.017 1416.28 L753.308 1417.61 L752.732 1419 L752.295 1420.44 L752.002 1421.91 L751.854 1423.41 L751.854 1424.91 L751.854 1424.91  Z" fill="#00008b" fill-rule="evenodd" fill-opacity="1"/>
<polyline clip-path="url(#clip731)" style="stroke:#000000; stroke-linecap:round; stroke-linejoin:round; stroke-width:4; stroke-opacity:1; fill:none" points="751.854,1424.91 752.002,1426.41 752.295,1427.89 752.732,1429.33 753.308,1430.72 754.017,1432.05 754.853,1433.3 755.808,1434.46 756.872,1435.52 758.035,1436.48 759.286,1437.31 760.613,1438.02 762.004,1438.6 763.444,1439.04 764.919,1439.33 766.417,1439.48 767.922,1439.48 769.419,1439.33 770.895,1439.04 772.335,1438.6 773.725,1438.02 775.053,1437.31 776.304,1436.48 777.467,1435.52 778.531,1434.46 779.486,1433.3 780.322,1432.05 781.031,1430.72 781.607,1429.33 782.044,1427.89 782.337,1426.41 782.485,1424.91 782.485,1423.41 782.337,1421.91 782.044,1420.44 781.607,1419 781.031,1417.61 780.322,1416.28 779.486,1415.03 778.531,1413.86 777.467,1412.8 776.304,1411.85 775.053,1411.01 773.725,1410.3 772.335,1409.72 770.895,1409.29 769.419,1408.99 767.922,1408.85 766.417,1408.85 764.919,1408.99 763.444,1409.29 762.004,1409.72 760.613,1410.3 759.286,1411.01 758.035,1411.85 756.872,1412.8 755.808,1413.86 754.853,1415.03 754.017,1416.28 753.308,1417.61 752.732,1419 752.295,1420.44 752.002,1421.91 751.854,1423.41 751.854,1424.91 "/>
<path clip-path="url(#clip731)" d="M591.553 1082.52 L591.676 1085.03 L591.921 1087.6 L592.289 1090.21 L592.779 1092.87 L593.389 1095.56 L594.121 1098.3 L594.973 1101.07 L595.943 1103.87 L597.031 1106.7 L598.236 1109.56 L599.555 1112.43 L600.989 1115.33 L602.535 1118.24 L604.191 1121.17 L605.955 1124.1 L607.826 1127.04 L609.802 1129.98 L611.879 1132.93 L614.056 1135.86 L617.469 1140.26 L622.394 1146.07 L627.67 1151.8 L633.274 1157.44 L639.18 1162.94 L645.363 1168.3 L651.793 1173.48 L658.443 1178.45 L665.282 1183.21 L672.278 1187.72 L679.402 1191.97 L686.619 1195.93 L693.899 1199.6 L701.208 1202.94 L708.512 1205.96 L715.78 1208.62 L722.978 1210.93 L728.3 1212.39 L731.815 1213.26 L735.295 1214.05 L738.735 1214.73 L742.132 1215.32 L745.482 1215.81 L748.781 1216.21 L752.026 1216.5 L755.212 1216.7 L758.336 1216.8 L761.276 1216.8 L764.039 1216.71 L766.741 1216.55 L769.379 1216.29 L771.951 1215.96 L774.454 1215.54 L776.886 1215.04 L779.245 1214.45 L781.527 1213.79 L783.732 1213.04 L785.857 1212.21 L787.899 1211.31 L789.857 1210.32 L791.73 1209.25 L793.514 1208.11 L795.21 1206.9 L796.814 1205.61 L798.325 1204.24 L799.742 1202.8 L801.064 1201.3 L802.289 1199.72 L803.416 1198.07 L804.444 1196.36 L805.373 1194.59 L806.2 1192.75 L806.925 1190.85 L807.549 1188.89 L808.069 1186.88 L808.486 1184.81 L808.799 1182.68 L809.008 1180.51 L809.112 1178.28 L809.112 1175.92 L808.989 1173.4 L808.744 1170.84 L808.376 1168.22 L807.887 1165.57 L807.276 1162.87 L806.544 1160.14 L805.693 1157.37 L804.723 1154.56 L803.634 1151.73 L802.43 1148.88 L801.11 1146 L799.676 1143.1 L798.131 1140.19 L796.475 1137.27 L794.71 1134.33 L792.839 1131.39 L790.864 1128.45 L788.786 1125.51 L786.609 1122.57 L783.196 1118.18 L778.272 1112.37 L772.996 1106.63 L767.392 1101 L761.485 1095.49 L755.303 1090.14 L748.872 1084.96 L742.222 1079.98 L735.384 1075.23 L728.387 1070.71 L721.264 1066.47 L714.046 1062.5 L706.766 1058.84 L699.458 1055.49 L692.153 1052.48 L684.885 1049.81 L677.687 1047.5 L672.366 1046.05 L668.85 1045.17 L665.37 1044.39 L661.93 1043.7 L658.533 1043.11 L655.183 1042.62 L651.884 1042.23 L648.64 1041.93 L645.454 1041.74 L642.33 1041.64 L639.389 1041.64 L636.626 1041.72 L633.924 1041.89 L631.286 1042.14 L628.714 1042.48 L626.211 1042.9 L623.779 1043.4 L621.421 1043.98 L619.138 1044.65 L616.933 1045.39 L614.809 1046.22 L612.766 1047.13 L610.808 1048.12 L608.936 1049.18 L607.151 1050.32 L605.456 1051.54 L603.852 1052.83 L602.34 1054.19 L600.923 1055.63 L599.601 1057.14 L598.376 1058.72 L597.249 1060.36 L596.221 1062.07 L595.293 1063.85 L594.466 1065.68 L593.74 1067.58 L593.117 1069.54 L592.596 1071.56 L592.179 1073.63 L591.867 1075.75 L591.658 1077.93 L591.553 1080.15 L591.553 1082.52 L591.553 1082.52  Z" fill="#0000ff" fill-rule="evenodd" fill-opacity="1"/>
<polyline clip-path="url(#clip731)" style="stroke:#000000; stroke-linecap:round; stroke-linejoin:round; stroke-width:4; stroke-opacity:1; fill:none" points="591.553,1082.52 591.676,1085.03 591.921,1087.6 592.289,1090.21 592.779,1092.87 593.389,1095.56 594.121,1098.3 594.973,1101.07 595.943,1103.87 597.031,1106.7 598.236,1109.56 599.555,1112.43 600.989,1115.33 602.535,1118.24 604.191,1121.17 605.955,1124.1 607.826,1127.04 609.802,1129.98 611.879,1132.93 614.056,1135.86 617.469,1140.26 622.394,1146.07 627.67,1151.8 633.274,1157.44 639.18,1162.94 645.363,1168.3 651.793,1173.48 658.443,1178.45 665.282,1183.21 672.278,1187.72 679.402,1191.97 686.619,1195.93 693.899,1199.6 701.208,1202.94 708.512,1205.96 715.78,1208.62 722.978,1210.93 728.3,1212.39 731.815,1213.26 735.295,1214.05 738.735,1214.73 742.132,1215.32 745.482,1215.81 748.781,1216.21 752.026,1216.5 755.212,1216.7 758.336,1216.8 761.276,1216.8 764.039,1216.71 766.741,1216.55 769.379,1216.29 771.951,1215.96 774.454,1215.54 776.886,1215.04 779.245,1214.45 781.527,1213.79 783.732,1213.04 785.857,1212.21 787.899,1211.31 789.857,1210.32 791.73,1209.25 793.514,1208.11 795.21,1206.9 796.814,1205.61 798.325,1204.24 799.742,1202.8 801.064,1201.3 802.289,1199.72 803.416,1198.07 804.444,1196.36 805.373,1194.59 806.2,1192.75 806.925,1190.85 807.549,1188.89 808.069,1186.88 808.486,1184.81 808.799,1182.68 809.008,1180.51 809.112,1178.28 809.112,1175.92 808.989,1173.4 808.744,1170.84 808.376,1168.22 807.887,1165.57 807.276,1162.87 806.544,1160.14 805.693,1157.37 804.723,1154.56 803.634,1151.73 802.43,1148.88 801.11,1146 799.676,1143.1 798.131,1140.19 796.475,1137.27 794.71,1134.33 792.839,1131.39 790.864,1128.45 788.786,1125.51 786.609,1122.57 783.196,1118.18 778.272,1112.37 772.996,1106.63 767.392,1101 761.485,1095.49 755.303,1090.14 748.872,1084.96 742.222,1079.98 735.384,1075.23 728.387,1070.71 721.264,1066.47 714.046,1062.5 706.766,1058.84 699.458,1055.49 692.153,1052.48 684.885,1049.81 677.687,1047.5 672.366,1046.05 668.85,1045.17 665.37,1044.39 661.93,1043.7 658.533,1043.11 655.183,1042.62 651.884,1042.23 648.64,1041.93 645.454,1041.74 642.33,1041.64 639.389,1041.64 636.626,1041.72 633.924,1041.89 631.286,1042.14 628.714,1042.48 626.211,1042.9 623.779,1043.4 621.421,1043.98 619.138,1044.65 616.933,1045.39 614.809,1046.22 612.766,1047.13 610.808,1048.12 608.936,1049.18 607.151,1050.32 605.456,1051.54 603.852,1052.83 602.34,1054.19 600.923,1055.63 599.601,1057.14 598.376,1058.72 597.249,1060.36 596.221,1062.07 595.293,1063.85 594.466,1065.68 593.74,1067.58 593.117,1069.54 592.596,1071.56 592.179,1073.63 591.867,1075.75 591.658,1077.93 591.553,1080.15 591.553,1082.52 "/>
<path clip-path="url(#clip731)" d="M974.205 836.96 L974.387 839.902 L974.748 842.916 L975.283 845.955 L975.984 848.977 L976.84 851.935 L977.839 854.787 L978.966 857.49 L980.204 860.003 L981.536 862.291 L982.941 864.318 L984.399 866.056 L985.887 867.478 L987.385 868.563 L988.87 869.296 L990.319 869.665 L991.443 869.665 L992.269 869.526 L993.064 869.249 L993.821 868.835 L994.538 868.287 L995.211 867.607 L995.834 866.8 L996.406 865.87 L996.922 864.821 L997.381 863.661 L997.778 862.396 L998.113 861.031 L998.383 859.576 L998.587 858.038 L998.792 855.618 L998.792 852.469 L998.61 849.527 L998.25 846.513 L997.715 843.474 L997.014 840.452 L996.158 837.494 L995.159 834.642 L994.032 831.939 L992.793 829.426 L991.462 827.138 L990.057 825.111 L988.599 823.373 L987.11 821.951 L985.613 820.866 L984.128 820.133 L982.678 819.764 L981.555 819.764 L980.728 819.903 L979.934 820.18 L979.176 820.594 L978.459 821.142 L977.787 821.822 L977.164 822.629 L976.592 823.559 L976.076 824.608 L975.617 825.768 L975.22 827.033 L974.885 828.398 L974.614 829.853 L974.411 831.391 L974.205 833.811 L974.205 836.96 L974.205 836.96  Z" fill="#1e90ff" fill-rule="evenodd" fill-opacity="1"/>
<polyline clip-path="url(#clip731)" style="stroke:#000000; stroke-linecap:round; stroke-linejoin:round; stroke-width:4; stroke-opacity:1; fill:none" points="974.205,836.96 974.387,839.902 974.748,842.916 975.283,845.955 975.984,848.977 976.84,851.935 977.839,854.787 978.966,857.49 980.204,860.003 981.536,862.291 982.941,864.318 984.399,866.056 985.887,867.478 987.385,868.563 988.87,869.296 990.319,869.665 991.443,869.665 992.269,869.526 993.064,869.249 993.821,868.835 994.538,868.287 995.211,867.607 995.834,866.8 996.406,865.87 996.922,864.821 997.381,863.661 997.778,862.396 998.113,861.031 998.383,859.576 998.587,858.038 998.792,855.618 998.792,852.469 998.61,849.527 998.25,846.513 997.715,843.474 997.014,840.452 996.158,837.494 995.159,834.642 994.032,831.939 992.793,829.426 991.462,827.138 990.057,825.111 988.599,823.373 987.11,821.951 985.613,820.866 984.128,820.133 982.678,819.764 981.555,819.764 980.728,819.903 979.934,820.18 979.176,820.594 978.459,821.142 977.787,821.822 977.164,822.629 976.592,823.559 976.076,824.608 975.617,825.768 975.22,827.033 974.885,828.398 974.614,829.853 974.411,831.391 974.205,833.811 974.205,836.96 "/>
<path clip-path="url(#clip731)" d="M1403.01 233.405 L1403.32 237.664 L1403.94 242.002 L1404.86 246.416 L1406.1 250.9 L1407.64 255.448 L1409.49 260.057 L1411.64 264.721 L1414.09 269.435 L1416.84 274.193 L1419.89 278.991 L1423.22 283.823 L1426.84 288.684 L1430.75 293.567 L1434.93 298.469 L1439.39 303.383 L1444.12 308.304 L1449.12 313.227 L1454.37 318.146 L1459.88 323.056 L1465.63 327.951 L1471.63 332.826 L1477.85 337.675 L1484.31 342.493 L1490.98 347.275 L1497.87 352.016 L1504.96 356.709 L1512.25 361.351 L1519.73 365.935 L1527.39 370.458 L1535.22 374.913 L1543.22 379.296 L1551.37 383.602 L1559.67 387.826 L1568.1 391.964 L1576.66 396.01 L1585.34 399.962 L1594.12 403.813 L1603.01 407.56 L1611.98 411.199 L1621.03 414.726 L1630.15 418.136 L1639.33 421.426 L1648.55 424.593 L1657.82 427.633 L1667.11 430.542 L1676.42 433.317 L1685.74 435.956 L1695.06 438.455 L1704.36 440.811 L1713.64 443.022 L1722.88 445.086 L1732.08 447 L1741.22 448.762 L1750.31 450.37 L1759.31 451.822 L1768.23 453.117 L1777.06 454.253 L1785.79 455.229 L1794.4 456.045 L1802.88 456.698 L1811.24 457.189 L1819.45 457.516 L1827.51 457.68 L1835.22 457.68 L1842.57 457.532 L1849.77 457.236 L1856.8 456.793 L1863.66 456.202 L1870.34 455.465 L1876.83 454.583 L1883.12 453.555 L1889.22 452.384 L1895.11 451.07 L1900.78 449.615 L1906.24 448.019 L1911.48 446.286 L1916.49 444.416 L1921.26 442.411 L1925.8 440.273 L1930.09 438.005 L1934.14 435.609 L1937.93 433.086 L1941.47 430.441 L1944.75 427.674 L1947.77 424.79 L1950.53 421.791 L1953.01 418.679 L1955.23 415.459 L1957.18 412.133 L1958.85 408.704 L1960.24 405.176 L1961.36 401.553 L1962.2 397.839 L1962.76 394.036 L1963.04 390.148 L1963.04 386.077 L1962.73 381.819 L1962.11 377.48 L1961.18 373.066 L1959.94 368.583 L1958.4 364.034 L1956.55 359.425 L1954.4 354.761 L1951.95 350.047 L1949.2 345.289 L1946.16 340.491 L1942.82 335.659 L1939.2 330.799 L1935.29 325.915 L1931.11 321.013 L1926.65 316.099 L1921.92 311.178 L1916.92 306.255 L1911.67 301.336 L1906.17 296.426 L1900.41 291.531 L1894.42 286.657 L1888.19 281.807 L1881.74 276.989 L1875.06 272.207 L1868.17 267.467 L1861.08 262.773 L1853.79 258.131 L1846.31 253.547 L1838.65 249.024 L1830.82 244.569 L1822.82 240.186 L1814.67 235.88 L1806.38 231.656 L1797.95 227.518 L1789.39 223.472 L1780.71 219.52 L1771.92 215.669 L1763.04 211.922 L1754.07 208.283 L1745.01 204.756 L1735.89 201.346 L1726.72 198.056 L1717.49 194.889 L1708.22 191.849 L1698.93 188.94 L1689.62 186.165 L1680.3 183.526 L1670.99 181.028 L1661.69 178.671 L1652.41 176.46 L1643.16 174.396 L1633.96 172.482 L1624.82 170.721 L1615.74 169.113 L1606.73 167.66 L1597.81 166.365 L1588.98 165.229 L1580.26 164.253 L1571.65 163.437 L1563.16 162.784 L1554.81 162.294 L1546.59 161.966 L1538.53 161.802 L1530.83 161.802 L1523.47 161.95 L1516.27 162.246 L1509.24 162.689 L1502.38 163.28 L1495.71 164.017 L1489.22 164.899 L1482.92 165.927 L1476.83 167.098 L1470.94 168.412 L1465.26 169.868 L1459.8 171.463 L1454.56 173.196 L1449.56 175.067 L1444.78 177.071 L1440.25 179.209 L1435.95 181.477 L1431.91 183.873 L1428.11 186.396 L1424.57 189.041 L1421.29 191.808 L1418.27 194.692 L1415.52 197.691 L1413.03 200.803 L1410.81 204.023 L1408.87 207.35 L1407.2 210.778 L1405.8 214.306 L1404.68 217.929 L1403.85 221.644 L1403.29 225.447 L1403.01 229.334 L1403.01 233.405 L1403.01 233.405  Z" fill="#1e90ff" fill-rule="evenodd" fill-opacity="1"/>
<polyline clip-path="url(#clip731)" style="stroke:#000000; stroke-linecap:round; stroke-linejoin:round; stroke-width:4; stroke-opacity:1; fill:none" points="1403.01,233.405 1403.32,237.664 1403.94,242.002 1404.86,246.416 1406.1,250.9 1407.64,255.448 1409.49,260.057 1411.64,264.721 1414.09,269.435 1416.84,274.193 1419.89,278.991 1423.22,283.823 1426.84,288.684 1430.75,293.567 1434.93,298.469 1439.39,303.383 1444.12,308.304 1449.12,313.227 1454.37,318.146 1459.88,323.056 1465.63,327.951 1471.63,332.826 1477.85,337.675 1484.31,342.493 1490.98,347.275 1497.87,352.016 1504.96,356.709 1512.25,361.351 1519.73,365.935 1527.39,370.458 1535.22,374.913 1543.22,379.296 1551.37,383.602 1559.67,387.826 1568.1,391.964 1576.66,396.01 1585.34,399.962 1594.12,403.813 1603.01,407.56 1611.98,411.199 1621.03,414.726 1630.15,418.136 1639.33,421.426 1648.55,424.593 1657.82,427.633 1667.11,430.542 1676.42,433.317 1685.74,435.956 1695.06,438.455 1704.36,440.811 1713.64,443.022 1722.88,445.086 1732.08,447 1741.22,448.762 1750.31,450.37 1759.31,451.822 1768.23,453.117 1777.06,454.253 1785.79,455.229 1794.4,456.045 1802.88,456.698 1811.24,457.189 1819.45,457.516 1827.51,457.68 1835.22,457.68 1842.57,457.532 1849.77,457.236 1856.8,456.793 1863.66,456.202 1870.34,455.465 1876.83,454.583 1883.12,453.555 1889.22,452.384 1895.11,451.07 1900.78,449.615 1906.24,448.019 1911.48,446.286 1916.49,444.416 1921.26,442.411 1925.8,440.273 1930.09,438.005 1934.14,435.609 1937.93,433.086 1941.47,430.441 1944.75,427.674 1947.77,424.79 1950.53,421.791 1953.01,418.679 1955.23,415.459 1957.18,412.133 1958.85,408.704 1960.24,405.176 1961.36,401.553 1962.2,397.839 1962.76,394.036 1963.04,390.148 1963.04,386.077 1962.73,381.819 1962.11,377.48 1961.18,373.066 1959.94,368.583 1958.4,364.034 1956.55,359.425 1954.4,354.761 1951.95,350.047 1949.2,345.289 1946.16,340.491 1942.82,335.659 1939.2,330.799 1935.29,325.915 1931.11,321.013 1926.65,316.099 1921.92,311.178 1916.92,306.255 1911.67,301.336 1906.17,296.426 1900.41,291.531 1894.42,286.657 1888.19,281.807 1881.74,276.989 1875.06,272.207 1868.17,267.467 1861.08,262.773 1853.79,258.131 1846.31,253.547 1838.65,249.024 1830.82,244.569 1822.82,240.186 1814.67,235.88 1806.38,231.656 1797.95,227.518 1789.39,223.472 1780.71,219.52 1771.92,215.669 1763.04,211.922 1754.07,208.283 1745.01,204.756 1735.89,201.346 1726.72,198.056 1717.49,194.889 1708.22,191.849 1698.93,188.94 1689.62,186.165 1680.3,183.526 1670.99,181.028 1661.69,178.671 1652.41,176.46 1643.16,174.396 1633.96,172.482 1624.82,170.721 1615.74,169.113 1606.73,167.66 1597.81,166.365 1588.98,165.229 1580.26,164.253 1571.65,163.437 1563.16,162.784 1554.81,162.294 1546.59,161.966 1538.53,161.802 1530.83,161.802 1523.47,161.95 1516.27,162.246 1509.24,162.689 1502.38,163.28 1495.71,164.017 1489.22,164.899 1482.92,165.927 1476.83,167.098 1470.94,168.412 1465.26,169.868 1459.8,171.463 1454.56,173.196 1449.56,175.067 1444.78,177.071 1440.25,179.209 1435.95,181.477 1431.91,183.873 1428.11,186.396 1424.57,189.041 1421.29,191.808 1418.27,194.692 1415.52,197.691 1413.03,200.803 1410.81,204.023 1408.87,207.35 1407.2,210.778 1405.8,214.306 1404.68,217.929 1403.85,221.644 1403.29,225.447 1403.01,229.334 1403.01,233.405 "/>
<path clip-path="url(#clip731)" d="M1301.33 508.39 L1301.43 511.356 L1301.64 514.312 L1301.95 517.256 L1302.36 520.187 L1302.88 523.104 L1303.49 526.004 L1304.22 528.887 L1305.04 531.751 L1305.96 534.594 L1306.99 537.415 L1308.11 540.212 L1309.34 542.984 L1310.66 545.73 L1312.08 548.448 L1313.6 551.137 L1315.22 553.795 L1316.94 556.422 L1318.74 559.014 L1320.65 561.572 L1322.65 564.094 L1324.73 566.578 L1326.91 569.024 L1329.18 571.43 L1331.54 573.795 L1333.99 576.117 L1337.79 579.535 L1343.2 583.912 L1348.93 588.098 L1354.98 592.084 L1361.32 595.863 L1367.96 599.427 L1374.88 602.768 L1382.05 605.879 L1389.47 608.754 L1397.12 611.388 L1404.99 613.773 L1413.05 615.907 L1421.3 617.783 L1429.71 619.398 L1438.27 620.75 L1446.96 621.834 L1455.76 622.65 L1464.65 623.194 L1473.62 623.467 L1483.35 623.467 L1493.84 623.102 L1504.34 622.375 L1514.84 621.285 L1525.29 619.837 L1535.68 618.035 L1545.97 615.883 L1556.14 613.388 L1566.15 610.557 L1575.98 607.396 L1583.2 604.786 L1587.96 602.968 L1592.65 601.073 L1597.28 599.103 L1601.84 597.058 L1606.34 594.94 L1610.76 592.751 L1615.1 590.492 L1619.36 588.165 L1623.55 585.771 L1627.64 583.312 L1631.65 580.79 L1635.57 578.207 L1639.4 575.563 L1643.13 572.862 L1646.76 570.104 L1650.29 567.292 L1653.71 564.429 L1657.04 561.514 L1660.25 558.552 L1663.35 555.544 L1666.34 552.491 L1669.21 549.397 L1671.97 546.262 L1674.61 543.09 L1677.13 539.883 L1679.52 536.643 L1681.8 533.371 L1683.94 530.071 L1685.96 526.744 L1687.86 523.393 L1689.62 520.021 L1691.25 516.629 L1692.75 513.22 L1694.12 509.796 L1695.35 506.359 L1696.45 502.913 L1697.41 499.459 L1698.23 496 L1698.92 492.538 L1699.48 489.076 L1699.89 485.616 L1700.17 482.16 L1700.3 478.711 L1700.3 475.504 L1700.2 472.538 L1699.99 469.582 L1699.68 466.637 L1699.27 463.706 L1698.76 460.79 L1698.14 457.889 L1697.42 455.006 L1696.59 452.143 L1695.67 449.3 L1694.65 446.479 L1693.52 443.681 L1692.3 440.909 L1690.97 438.163 L1689.55 435.445 L1688.03 432.756 L1686.41 430.098 L1684.7 427.472 L1682.89 424.879 L1680.98 422.321 L1678.99 419.799 L1676.9 417.315 L1674.72 414.869 L1672.45 412.463 L1670.09 410.099 L1667.64 407.776 L1663.84 404.358 L1658.44 399.982 L1652.7 395.796 L1646.66 391.809 L1640.31 388.03 L1633.67 384.467 L1626.76 381.126 L1619.58 378.014 L1612.16 375.139 L1604.51 372.506 L1596.64 370.12 L1588.58 367.987 L1580.33 366.111 L1571.92 364.495 L1563.36 363.144 L1554.67 362.059 L1545.87 361.244 L1536.98 360.699 L1528.01 360.427 L1518.28 360.427 L1507.8 360.791 L1497.29 361.519 L1486.8 362.608 L1476.34 364.056 L1465.95 365.858 L1455.66 368.01 L1445.49 370.505 L1435.48 373.337 L1425.65 376.497 L1418.43 379.107 L1413.68 380.925 L1408.98 382.82 L1404.35 384.791 L1399.79 386.836 L1395.3 388.953 L1390.88 391.142 L1386.53 393.401 L1382.27 395.728 L1378.09 398.122 L1373.99 400.581 L1369.98 403.103 L1366.06 405.687 L1362.23 408.33 L1358.5 411.032 L1354.87 413.789 L1351.34 416.601 L1347.92 419.465 L1344.6 422.379 L1341.38 425.341 L1338.28 428.35 L1335.29 431.402 L1332.42 434.497 L1329.66 437.631 L1327.02 440.803 L1324.51 444.01 L1322.11 447.251 L1319.84 450.522 L1317.69 453.823 L1315.67 457.149 L1313.78 460.5 L1312.01 463.873 L1310.38 467.265 L1308.88 470.674 L1307.52 474.098 L1306.28 477.534 L1305.19 480.98 L1304.22 484.434 L1303.4 487.893 L1302.71 491.355 L1302.16 494.817 L1301.74 498.277 L1301.47 501.733 L1301.33 505.182 L1301.33 508.39 L1301.33 508.39  Z" fill="#00bfff" fill-rule="evenodd" fill-opacity="1"/>
<polyline clip-path="url(#clip731)" style="stroke:#000000; stroke-linecap:round; stroke-linejoin:round; stroke-width:4; stroke-opacity:1; fill:none" points="1301.33,508.39 1301.43,511.356 1301.64,514.312 1301.95,517.256 1302.36,520.187 1302.88,523.104 1303.49,526.004 1304.22,528.887 1305.04,531.751 1305.96,534.594 1306.99,537.415 1308.11,540.212 1309.34,542.984 1310.66,545.73 1312.08,548.448 1313.6,551.137 1315.22,553.795 1316.94,556.422 1318.74,559.014 1320.65,561.572 1322.65,564.094 1324.73,566.578 1326.91,569.024 1329.18,571.43 1331.54,573.795 1333.99,576.117 1337.79,579.535 1343.2,583.912 1348.93,588.098 1354.98,592.084 1361.32,595.863 1367.96,599.427 1374.88,602.768 1382.05,605.879 1389.47,608.754 1397.12,611.388 1404.99,613.773 1413.05,615.907 1421.3,617.783 1429.71,619.398 1438.27,620.75 1446.96,621.834 1455.76,622.65 1464.65,623.194 1473.62,623.467 1483.35,623.467 1493.84,623.102 1504.34,622.375 1514.84,621.285 1525.29,619.837 1535.68,618.035 1545.97,615.883 1556.14,613.388 1566.15,610.557 1575.98,607.396 1583.2,604.786 1587.96,602.968 1592.65,601.073 1597.28,599.103 1601.84,597.058 1606.34,594.94 1610.76,592.751 1615.1,590.492 1619.36,588.165 1623.55,585.771 1627.64,583.312 1631.65,580.79 1635.57,578.207 1639.4,575.563 1643.13,572.862 1646.76,570.104 1650.29,567.292 1653.71,564.429 1657.04,561.514 1660.25,558.552 1663.35,555.544 1666.34,552.491 1669.21,549.397 1671.97,546.262 1674.61,543.09 1677.13,539.883 1679.52,536.643 1681.8,533.371 1683.94,530.071 1685.96,526.744 1687.86,523.393 1689.62,520.021 1691.25,516.629 1692.75,513.22 1694.12,509.796 1695.35,506.359 1696.45,502.913 1697.41,499.459 1698.23,496 1698.92,492.538 1699.48,489.076 1699.89,485.616 1700.17,482.16 1700.3,478.711 1700.3,475.504 1700.2,472.538 1699.99,469.582 1699.68,466.637 1699.27,463.706 1698.76,460.79 1698.14,457.889 1697.42,455.006 1696.59,452.143 1695.67,449.3 1694.65,446.479 1693.52,443.681 1692.3,440.909 1690.97,438.163 1689.55,435.445 1688.03,432.756 1686.41,430.098 1684.7,427.472 1682.89,424.879 1680.98,422.321 1678.99,419.799 1676.9,417.315 1674.72,414.869 1672.45,412.463 1670.09,410.099 1667.64,407.776 1663.84,404.358 1658.44,399.982 1652.7,395.796 1646.66,391.809 1640.31,388.03 1633.67,384.467 1626.76,381.126 1619.58,378.014 1612.16,375.139 1604.51,372.506 1596.64,370.12 1588.58,367.987 1580.33,366.111 1571.92,364.495 1563.36,363.144 1554.67,362.059 1545.87,361.244 1536.98,360.699 1528.01,360.427 1518.28,360.427 1507.8,360.791 1497.29,361.519 1486.8,362.608 1476.34,364.056 1465.95,365.858 1455.66,368.01 1445.49,370.505 1435.48,373.337 1425.65,376.497 1418.43,379.107 1413.68,380.925 1408.98,382.82 1404.35,384.791 1399.79,386.836 1395.3,388.953 1390.88,391.142 1386.53,393.401 1382.27,395.728 1378.09,398.122 1373.99,400.581 1369.98,403.103 1366.06,405.687 1362.23,408.33 1358.5,411.032 1354.87,413.789 1351.34,416.601 1347.92,419.465 1344.6,422.379 1341.38,425.341 1338.28,428.35 1335.29,431.402 1332.42,434.497 1329.66,437.631 1327.02,440.803 1324.51,444.01 1322.11,447.251 1319.84,450.522 1317.69,453.823 1315.67,457.149 1313.78,460.5 1312.01,463.873 1310.38,467.265 1308.88,470.674 1307.52,474.098 1306.28,477.534 1305.19,480.98 1304.22,484.434 1303.4,487.893 1302.71,491.355 1302.16,494.817 1301.74,498.277 1301.47,501.733 1301.33,505.182 1301.33,508.39 "/>
<path clip-path="url(#clip731)" d="M1687.37 456.722 L1687.48 459.097 L1687.72 461.464 L1688.07 463.816 L1688.53 466.148 L1689.11 468.454 L1689.8 470.73 L1690.6 472.969 L1691.51 475.166 L1692.53 477.315 L1693.65 479.412 L1694.87 481.452 L1696.19 483.429 L1697.61 485.339 L1699.11 487.177 L1700.71 488.939 L1702.39 490.62 L1704.15 492.217 L1705.99 493.726 L1707.9 495.142 L1709.88 496.463 L1711.92 497.686 L1714.02 498.806 L1716.17 499.823 L1718.36 500.733 L1720.6 501.534 L1722.88 502.224 L1725.18 502.802 L1727.52 503.266 L1729.87 503.615 L1732.23 503.848 L1734.61 503.965 L1736.99 503.965 L1739.36 503.848 L1741.73 503.615 L1744.08 503.266 L1746.41 502.802 L1748.72 502.224 L1751 501.534 L1753.23 500.733 L1755.43 499.823 L1757.58 498.806 L1759.68 497.686 L1761.72 496.463 L1763.69 495.142 L1765.6 493.726 L1767.44 492.217 L1769.2 490.62 L1770.89 488.939 L1772.48 487.177 L1773.99 485.339 L1775.41 483.429 L1776.73 481.452 L1777.95 479.412 L1779.07 477.315 L1780.09 475.166 L1781 472.969 L1781.8 470.73 L1782.49 468.454 L1783.07 466.148 L1783.53 463.816 L1783.88 461.464 L1784.11 459.097 L1784.23 456.722 L1784.23 454.344 L1784.11 451.969 L1783.88 449.603 L1783.53 447.251 L1783.07 444.919 L1782.49 442.612 L1781.8 440.337 L1781 438.098 L1780.09 435.901 L1779.07 433.751 L1777.95 431.654 L1776.73 429.615 L1775.41 427.638 L1773.99 425.728 L1772.48 423.89 L1770.89 422.128 L1769.2 420.446 L1767.44 418.849 L1765.6 417.341 L1763.69 415.925 L1761.72 414.603 L1759.68 413.381 L1757.58 412.26 L1755.43 411.243 L1753.23 410.333 L1751 409.532 L1748.72 408.842 L1746.41 408.264 L1744.08 407.8 L1741.73 407.452 L1739.36 407.218 L1736.99 407.102 L1734.61 407.102 L1732.23 407.218 L1729.87 407.452 L1727.52 407.8 L1725.18 408.264 L1722.88 408.842 L1720.6 409.532 L1718.36 410.333 L1716.17 411.243 L1714.02 412.26 L1711.92 413.381 L1709.88 414.603 L1707.9 415.925 L1705.99 417.341 L1704.15 418.849 L1702.39 420.446 L1700.71 422.128 L1699.11 423.89 L1697.61 425.728 L1696.19 427.638 L1694.87 429.615 L1693.65 431.654 L1692.53 433.751 L1691.51 435.901 L1690.6 438.098 L1689.8 440.337 L1689.11 442.612 L1688.53 444.919 L1688.07 447.251 L1687.72 449.603 L1687.48 451.969 L1687.37 454.344 L1687.37 456.722 L1687.37 456.722  Z" fill="#add8e6" fill-rule="evenodd" fill-opacity="1"/>
<polyline clip-path="url(#clip731)" style="stroke:#000000; stroke-linecap:round; stroke-linejoin:round; stroke-width:4; stroke-opacity:1; fill:none" points="1687.37,456.722 1687.48,459.097 1687.72,461.464 1688.07,463.816 1688.53,466.148 1689.11,468.454 1689.8,470.73 1690.6,472.969 1691.51,475.166 1692.53,477.315 1693.65,479.412 1694.87,481.452 1696.19,483.429 1697.61,485.339 1699.11,487.177 1700.71,488.939 1702.39,490.62 1704.15,492.217 1705.99,493.726 1707.9,495.142 1709.88,496.463 1711.92,497.686 1714.02,498.806 1716.17,499.823 1718.36,500.733 1720.6,501.534 1722.88,502.224 1725.18,502.802 1727.52,503.266 1729.87,503.615 1732.23,503.848 1734.61,503.965 1736.99,503.965 1739.36,503.848 1741.73,503.615 1744.08,503.266 1746.41,502.802 1748.72,502.224 1751,501.534 1753.23,500.733 1755.43,499.823 1757.58,498.806 1759.68,497.686 1761.72,496.463 1763.69,495.142 1765.6,493.726 1767.44,492.217 1769.2,490.62 1770.89,488.939 1772.48,487.177 1773.99,485.339 1775.41,483.429 1776.73,481.452 1777.95,479.412 1779.07,477.315 1780.09,475.166 1781,472.969 1781.8,470.73 1782.49,468.454 1783.07,466.148 1783.53,463.816 1783.88,461.464 1784.11,459.097 1784.23,456.722 1784.23,454.344 1784.11,451.969 1783.88,449.603 1783.53,447.251 1783.07,444.919 1782.49,442.612 1781.8,440.337 1781,438.098 1780.09,435.901 1779.07,433.751 1777.95,431.654 1776.73,429.615 1775.41,427.638 1773.99,425.728 1772.48,423.89 1770.89,422.128 1769.2,420.446 1767.44,418.849 1765.6,417.341 1763.69,415.925 1761.72,414.603 1759.68,413.381 1757.58,412.26 1755.43,411.243 1753.23,410.333 1751,409.532 1748.72,408.842 1746.41,408.264 1744.08,407.8 1741.73,407.452 1739.36,407.218 1736.99,407.102 1734.61,407.102 1732.23,407.218 1729.87,407.452 1727.52,407.8 1725.18,408.264 1722.88,408.842 1720.6,409.532 1718.36,410.333 1716.17,411.243 1714.02,412.26 1711.92,413.381 1709.88,414.603 1707.9,415.925 1705.99,417.341 1704.15,418.849 1702.39,420.446 1700.71,422.128 1699.11,423.89 1697.61,425.728 1696.19,427.638 1694.87,429.615 1693.65,431.654 1692.53,433.751 1691.51,435.901 1690.6,438.098 1689.8,440.337 1689.11,442.612 1688.53,444.919 1688.07,447.251 1687.72,449.603 1687.48,451.969 1687.37,454.344 1687.37,456.722 "/>
<polyline clip-path="url(#clip731)" style="stroke:#000000; stroke-linecap:round; stroke-linejoin:round; stroke-width:4; stroke-opacity:1; fill:none" points="1683.02,309.741 1735.8,455.533 "/>
<path clip-path="url(#clip731)" d="M1723.54 421.683 L1740.47 415.556 L1735.8 455.533 L1706.62 427.81  Z" fill="#000000" fill-rule="evenodd" fill-opacity="1"/>
<polyline clip-path="url(#clip731)" style="stroke:#000000; stroke-linecap:round; stroke-linejoin:round; stroke-width:4; stroke-opacity:1; fill:none" points="1723.54,421.683 1683.02,309.741 "/>
<circle clip-path="url(#clip731)" cx="1683.02" cy="309.741" r="14.4" fill="#000000" fill-rule="evenodd" fill-opacity="0" stroke="none"/>
<circle clip-path="url(#clip731)" cx="1735.8" cy="455.533" r="14.4" fill="#000000" fill-rule="evenodd" fill-opacity="0" stroke="none"/>
<polyline clip-path="url(#clip731)" style="stroke:#000000; stroke-linecap:round; stroke-linejoin:round; stroke-width:4; stroke-opacity:1; fill:none" points="767.169,1424.16 700.333,1129.22 "/>
<path clip-path="url(#clip731)" d="M708.289 1164.33 L690.734 1168.31 L700.333 1129.22 L725.844 1160.35  Z" fill="#000000" fill-rule="evenodd" fill-opacity="1"/>
<polyline clip-path="url(#clip731)" style="stroke:#000000; stroke-linecap:round; stroke-linejoin:round; stroke-width:4; stroke-opacity:1; fill:none" points="708.289,1164.33 767.169,1424.16 "/>
<circle clip-path="url(#clip731)" cx="767.169" cy="1424.16" r="14.4" fill="#000000" fill-rule="evenodd" fill-opacity="0" stroke="none"/>
<circle clip-path="url(#clip731)" cx="700.333" cy="1129.22" r="14.4" fill="#000000" fill-rule="evenodd" fill-opacity="0" stroke="none"/>
<polyline clip-path="url(#clip731)" style="stroke:#000000; stroke-linecap:round; stroke-linejoin:round; stroke-width:4; stroke-opacity:1; fill:none" points="700.333,1129.22 986.499,844.715 "/>
<path clip-path="url(#clip731)" d="M960.969 870.096 L948.278 857.331 L986.499 844.715 L973.66 882.861  Z" fill="#000000" fill-rule="evenodd" fill-opacity="1"/>
<polyline clip-path="url(#clip731)" style="stroke:#000000; stroke-linecap:round; stroke-linejoin:round; stroke-width:4; stroke-opacity:1; fill:none" points="960.969,870.096 700.333,1129.22 "/>
<circle clip-path="url(#clip731)" cx="700.333" cy="1129.22" r="14.4" fill="#000000" fill-rule="evenodd" fill-opacity="0" stroke="none"/>
<circle clip-path="url(#clip731)" cx="986.499" cy="844.715" r="14.4" fill="#000000" fill-rule="evenodd" fill-opacity="0" stroke="none"/>
<polyline clip-path="url(#clip731)" style="stroke:#000000; stroke-linecap:round; stroke-linejoin:round; stroke-width:4; stroke-opacity:1; fill:none" points="986.499,844.715 1500.82,491.947 "/>
<path clip-path="url(#clip731)" d="M1471.13 512.309 L1460.95 497.466 L1500.82 491.947 L1481.31 527.153  Z" fill="#000000" fill-rule="evenodd" fill-opacity="1"/>
<polyline clip-path="url(#clip731)" style="stroke:#000000; stroke-linecap:round; stroke-linejoin:round; stroke-width:4; stroke-opacity:1; fill:none" points="1471.13,512.309 986.499,844.715 "/>
<circle clip-path="url(#clip731)" cx="986.499" cy="844.715" r="14.4" fill="#000000" fill-rule="evenodd" fill-opacity="0" stroke="none"/>
<circle clip-path="url(#clip731)" cx="1500.82" cy="491.947" r="14.4" fill="#000000" fill-rule="evenodd" fill-opacity="0" stroke="none"/>
<polyline clip-path="url(#clip731)" style="stroke:#000000; stroke-linecap:round; stroke-linejoin:round; stroke-width:4; stroke-opacity:1; fill:none" points="1500.82,491.947 1735.8,455.533 "/>
<path clip-path="url(#clip731)" d="M1700.22 461.046 L1697.47 443.258 L1735.8 455.533 L1702.98 478.834  Z" fill="#000000" fill-rule="evenodd" fill-opacity="1"/>
<polyline clip-path="url(#clip731)" style="stroke:#000000; stroke-linecap:round; stroke-linejoin:round; stroke-width:4; stroke-opacity:1; fill:none" points="1700.22,461.046 1500.82,491.947 "/>
<circle clip-path="url(#clip731)" cx="1500.82" cy="491.947" r="14.4" fill="#000000" fill-rule="evenodd" fill-opacity="0" stroke="none"/>
<circle clip-path="url(#clip731)" cx="1735.8" cy="455.533" r="14.4" fill="#000000" fill-rule="evenodd" fill-opacity="0" stroke="none"/>
</svg>
