<?xml version="1.0" encoding="utf-8"?>
<svg xmlns="http://www.w3.org/2000/svg" xmlns:xlink="http://www.w3.org/1999/xlink" width="600" height="400" viewBox="0 0 2400 1600">
<defs>
  <clipPath id="clip040">
    <rect x="0" y="0" width="2400" height="1600"/>
  </clipPath>
</defs>
<path clip-path="url(#clip040)" d="M0 1600 L2400 1600 L2400 0 L0 0  Z" fill="#ffffff" fill-rule="evenodd" fill-opacity="1"/>
<defs>
  <clipPath id="clip041">
    <rect x="480" y="0" width="1681" height="1600"/>
  </clipPath>
</defs>
<path clip-path="url(#clip040)" d="M140.696 1486.45 L2352.76 1486.45 L2352.76 47.2441 L140.696 47.2441  Z" fill="#ffffff" fill-rule="evenodd" fill-opacity="1"/>
<defs>
  <clipPath id="clip042">
    <rect x="140" y="47" width="2213" height="1440"/>
  </clipPath>
</defs>
<polyline clip-path="url(#clip042)" style="stroke:#000000; stroke-linecap:round; stroke-linejoin:round; stroke-width:2; stroke-opacity:0.1; fill:none" points="169.155,1486.45 169.155,47.2441 "/>
<polyline clip-path="url(#clip042)" style="stroke:#000000; stroke-linecap:round; stroke-linejoin:round; stroke-width:2; stroke-opacity:0.1; fill:none" points="600.183,1486.45 600.183,47.2441 "/>
<polyline clip-path="url(#clip042)" style="stroke:#000000; stroke-linecap:round; stroke-linejoin:round; stroke-width:2; stroke-opacity:0.1; fill:none" points="1031.21,1486.45 1031.21,47.2441 "/>
<polyline clip-path="url(#clip042)" style="stroke:#000000; stroke-linecap:round; stroke-linejoin:round; stroke-width:2; stroke-opacity:0.1; fill:none" points="1462.24,1486.45 1462.24,47.2441 "/>
<polyline clip-path="url(#clip042)" style="stroke:#000000; stroke-linecap:round; stroke-linejoin:round; stroke-width:2; stroke-opacity:0.1; fill:none" points="1893.27,1486.45 1893.27,47.2441 "/>
<polyline clip-path="url(#clip042)" style="stroke:#000000; stroke-linecap:round; stroke-linejoin:round; stroke-width:2; stroke-opacity:0.1; fill:none" points="2324.3,1486.45 2324.3,47.2441 "/>
<polyline clip-path="url(#clip042)" style="stroke:#000000; stroke-linecap:round; stroke-linejoin:round; stroke-width:2; stroke-opacity:0.1; fill:none" points="140.696,1413.39 2352.76,1413.39 "/>
<polyline clip-path="url(#clip042)" style="stroke:#000000; stroke-linecap:round; stroke-linejoin:round; stroke-width:2; stroke-opacity:0.1; fill:none" points="140.696,982.36 2352.76,982.36 "/>
<polyline clip-path="url(#clip042)" style="stroke:#000000; stroke-linecap:round; stroke-linejoin:round; stroke-width:2; stroke-opacity:0.1; fill:none" points="140.696,551.332 2352.76,551.332 "/>
<polyline clip-path="url(#clip042)" style="stroke:#000000; stroke-linecap:round; stroke-linejoin:round; stroke-width:2; stroke-opacity:0.1; fill:none" points="140.696,120.303 2352.76,120.303 "/>
<polyline clip-path="url(#clip040)" style="stroke:#000000; stroke-linecap:round; stroke-linejoin:round; stroke-width:4; stroke-opacity:1; fill:none" points="140.696,1486.45 2352.76,1486.45 "/>
<polyline clip-path="url(#clip040)" style="stroke:#000000; stroke-linecap:round; stroke-linejoin:round; stroke-width:4; stroke-opacity:1; fill:none" points="169.155,1486.45 169.155,1467.55 "/>
<polyline clip-path="url(#clip040)" style="stroke:#000000; stroke-linecap:round; stroke-linejoin:round; stroke-width:4; stroke-opacity:1; fill:none" points="600.183,1486.45 600.183,1467.55 "/>
<polyline clip-path="url(#clip040)" style="stroke:#000000; stroke-linecap:round; stroke-linejoin:round; stroke-width:4; stroke-opacity:1; fill:none" points="1031.21,1486.45 1031.21,1467.55 "/>
<polyline clip-path="url(#clip040)" style="stroke:#000000; stroke-linecap:round; stroke-linejoin:round; stroke-width:4; stroke-opacity:1; fill:none" points="1462.24,1486.45 1462.24,1467.55 "/>
<polyline clip-path="url(#clip040)" style="stroke:#000000; stroke-linecap:round; stroke-linejoin:round; stroke-width:4; stroke-opacity:1; fill:none" points="1893.27,1486.45 1893.27,1467.55 "/>
<polyline clip-path="url(#clip040)" style="stroke:#000000; stroke-linecap:round; stroke-linejoin:round; stroke-width:4; stroke-opacity:1; fill:none" points="2324.3,1486.45 2324.3,1467.55 "/>
<path clip-path="url(#clip040)" d="M123.218 1532.02 L152.893 1532.02 L152.893 1535.95 L123.218 1535.95 L123.218 1532.02 Z" fill="#000000" fill-rule="nonzero" fill-opacity="1" /><path clip-path="url(#clip040)" d="M163.796 1544.91 L171.435 1544.91 L171.435 1518.55 L163.125 1520.21 L163.125 1515.95 L171.389 1514.29 L176.064 1514.29 L176.064 1544.91 L183.703 1544.91 L183.703 1548.85 L163.796 1548.85 L163.796 1544.91 Z" fill="#000000" fill-rule="nonzero" fill-opacity="1" /><path clip-path="url(#clip040)" d="M203.148 1517.37 Q199.537 1517.37 197.708 1520.93 Q195.902 1524.47 195.902 1531.6 Q195.902 1538.71 197.708 1542.27 Q199.537 1545.82 203.148 1545.82 Q206.782 1545.82 208.587 1542.27 Q210.416 1538.71 210.416 1531.6 Q210.416 1524.47 208.587 1520.93 Q206.782 1517.37 203.148 1517.37 M203.148 1513.66 Q208.958 1513.66 212.013 1518.27 Q215.092 1522.85 215.092 1531.6 Q215.092 1540.33 212.013 1544.94 Q208.958 1549.52 203.148 1549.52 Q197.337 1549.52 194.259 1544.94 Q191.203 1540.33 191.203 1531.6 Q191.203 1522.85 194.259 1518.27 Q197.337 1513.66 203.148 1513.66 Z" fill="#000000" fill-rule="nonzero" fill-opacity="1" /><path clip-path="url(#clip040)" d="M600.183 1517.37 Q596.572 1517.37 594.743 1520.93 Q592.938 1524.47 592.938 1531.6 Q592.938 1538.71 594.743 1542.27 Q596.572 1545.82 600.183 1545.82 Q603.817 1545.82 605.623 1542.27 Q607.452 1538.71 607.452 1531.6 Q607.452 1524.47 605.623 1520.93 Q603.817 1517.37 600.183 1517.37 M600.183 1513.66 Q605.993 1513.66 609.049 1518.27 Q612.128 1522.85 612.128 1531.6 Q612.128 1540.33 609.049 1544.94 Q605.993 1549.52 600.183 1549.52 Q594.373 1549.52 591.294 1544.94 Q588.239 1540.33 588.239 1531.6 Q588.239 1522.85 591.294 1518.27 Q594.373 1513.66 600.183 1513.66 Z" fill="#000000" fill-rule="nonzero" fill-opacity="1" /><path clip-path="url(#clip040)" d="M1005.9 1544.91 L1013.54 1544.91 L1013.54 1518.55 L1005.23 1520.21 L1005.23 1515.95 L1013.49 1514.29 L1018.17 1514.29 L1018.17 1544.91 L1025.81 1544.91 L1025.81 1548.85 L1005.9 1548.85 L1005.9 1544.91 Z" fill="#000000" fill-rule="nonzero" fill-opacity="1" /><path clip-path="url(#clip040)" d="M1045.25 1517.37 Q1041.64 1517.37 1039.81 1520.93 Q1038.01 1524.47 1038.01 1531.6 Q1038.01 1538.71 1039.81 1542.27 Q1041.64 1545.82 1045.25 1545.82 Q1048.89 1545.82 1050.69 1542.27 Q1052.52 1538.71 1052.52 1531.6 Q1052.52 1524.47 1050.69 1520.93 Q1048.89 1517.37 1045.25 1517.37 M1045.25 1513.66 Q1051.06 1513.66 1054.12 1518.27 Q1057.2 1522.85 1057.2 1531.6 Q1057.2 1540.33 1054.12 1544.94 Q1051.06 1549.52 1045.25 1549.52 Q1039.44 1549.52 1036.36 1544.94 Q1033.31 1540.33 1033.31 1531.6 Q1033.31 1522.85 1036.36 1518.27 Q1039.44 1513.66 1045.25 1513.66 Z" fill="#000000" fill-rule="nonzero" fill-opacity="1" /><path clip-path="url(#clip040)" d="M1441.01 1544.91 L1457.33 1544.91 L1457.33 1548.85 L1435.39 1548.85 L1435.39 1544.91 Q1438.05 1542.16 1442.63 1537.53 Q1447.24 1532.88 1448.42 1531.53 Q1450.67 1529.01 1451.55 1527.27 Q1452.45 1525.51 1452.45 1523.82 Q1452.45 1521.07 1450.5 1519.33 Q1448.58 1517.6 1445.48 1517.6 Q1443.28 1517.6 1440.83 1518.36 Q1438.4 1519.13 1435.62 1520.68 L1435.62 1515.95 Q1438.44 1514.82 1440.9 1514.24 Q1443.35 1513.66 1445.39 1513.66 Q1450.76 1513.66 1453.95 1516.35 Q1457.15 1519.03 1457.15 1523.52 Q1457.15 1525.65 1456.34 1527.57 Q1455.55 1529.47 1453.44 1532.07 Q1452.86 1532.74 1449.76 1535.95 Q1446.66 1539.15 1441.01 1544.91 Z" fill="#000000" fill-rule="nonzero" fill-opacity="1" /><path clip-path="url(#clip040)" d="M1477.15 1517.37 Q1473.54 1517.37 1471.71 1520.93 Q1469.9 1524.47 1469.9 1531.6 Q1469.9 1538.71 1471.71 1542.27 Q1473.54 1545.82 1477.15 1545.82 Q1480.78 1545.82 1482.59 1542.27 Q1484.42 1538.71 1484.42 1531.6 Q1484.42 1524.47 1482.59 1520.93 Q1480.78 1517.37 1477.15 1517.37 M1477.15 1513.66 Q1482.96 1513.66 1486.01 1518.27 Q1489.09 1522.85 1489.09 1531.6 Q1489.09 1540.33 1486.01 1544.94 Q1482.96 1549.52 1477.15 1549.52 Q1471.34 1549.52 1468.26 1544.94 Q1465.2 1540.33 1465.2 1531.6 Q1465.2 1522.85 1468.26 1518.27 Q1471.34 1513.66 1477.15 1513.66 Z" fill="#000000" fill-rule="nonzero" fill-opacity="1" /><path clip-path="url(#clip040)" d="M1882.11 1530.21 Q1885.47 1530.93 1887.34 1533.2 Q1889.24 1535.47 1889.24 1538.8 Q1889.24 1543.92 1885.72 1546.72 Q1882.2 1549.52 1875.72 1549.52 Q1873.55 1549.52 1871.23 1549.08 Q1868.94 1548.66 1866.49 1547.81 L1866.49 1543.29 Q1868.43 1544.43 1870.75 1545.01 Q1873.06 1545.58 1875.58 1545.58 Q1879.98 1545.58 1882.27 1543.85 Q1884.59 1542.11 1884.59 1538.8 Q1884.59 1535.75 1882.44 1534.03 Q1880.31 1532.3 1876.49 1532.3 L1872.46 1532.3 L1872.46 1528.45 L1876.67 1528.45 Q1880.12 1528.45 1881.95 1527.09 Q1883.78 1525.7 1883.78 1523.11 Q1883.78 1520.45 1881.88 1519.03 Q1880 1517.6 1876.49 1517.6 Q1874.56 1517.6 1872.37 1518.01 Q1870.17 1518.43 1867.53 1519.31 L1867.53 1515.14 Q1870.19 1514.4 1872.5 1514.03 Q1874.84 1513.66 1876.9 1513.66 Q1882.23 1513.66 1885.33 1516.09 Q1888.43 1518.5 1888.43 1522.62 Q1888.43 1525.49 1886.79 1527.48 Q1885.14 1529.45 1882.11 1530.21 Z" fill="#000000" fill-rule="nonzero" fill-opacity="1" /><path clip-path="url(#clip040)" d="M1908.11 1517.37 Q1904.5 1517.37 1902.67 1520.93 Q1900.86 1524.47 1900.86 1531.6 Q1900.86 1538.71 1902.67 1542.27 Q1904.5 1545.82 1908.11 1545.82 Q1911.74 1545.82 1913.55 1542.27 Q1915.37 1538.71 1915.37 1531.6 Q1915.37 1524.47 1913.55 1520.93 Q1911.74 1517.37 1908.11 1517.37 M1908.11 1513.66 Q1913.92 1513.66 1916.97 1518.27 Q1920.05 1522.85 1920.05 1531.6 Q1920.05 1540.33 1916.97 1544.94 Q1913.92 1549.52 1908.11 1549.52 Q1902.3 1549.52 1899.22 1544.94 Q1896.16 1540.33 1896.16 1531.6 Q1896.16 1522.85 1899.22 1518.27 Q1902.3 1513.66 1908.11 1513.66 Z" fill="#000000" fill-rule="nonzero" fill-opacity="1" /><path clip-path="url(#clip040)" d="M2312.47 1518.36 L2300.66 1536.81 L2312.47 1536.81 L2312.47 1518.36 M2311.24 1514.29 L2317.12 1514.29 L2317.12 1536.81 L2322.05 1536.81 L2322.05 1540.7 L2317.12 1540.7 L2317.12 1548.85 L2312.47 1548.85 L2312.47 1540.7 L2296.87 1540.7 L2296.87 1536.19 L2311.24 1514.29 Z" fill="#000000" fill-rule="nonzero" fill-opacity="1" /><path clip-path="url(#clip040)" d="M2339.78 1517.37 Q2336.17 1517.37 2334.34 1520.93 Q2332.54 1524.47 2332.54 1531.6 Q2332.54 1538.71 2334.34 1542.27 Q2336.17 1545.82 2339.78 1545.82 Q2343.42 1545.82 2345.22 1542.27 Q2347.05 1538.71 2347.05 1531.6 Q2347.05 1524.47 2345.22 1520.93 Q2343.42 1517.37 2339.78 1517.37 M2339.78 1513.66 Q2345.59 1513.66 2348.65 1518.27 Q2351.73 1522.85 2351.73 1531.6 Q2351.73 1540.33 2348.65 1544.94 Q2345.59 1549.52 2339.78 1549.52 Q2333.97 1549.52 2330.89 1544.94 Q2327.84 1540.33 2327.84 1531.6 Q2327.84 1522.85 2330.89 1518.27 Q2333.97 1513.66 2339.78 1513.66 Z" fill="#000000" fill-rule="nonzero" fill-opacity="1" /><polyline clip-path="url(#clip040)" style="stroke:#000000; stroke-linecap:round; stroke-linejoin:round; stroke-width:4; stroke-opacity:1; fill:none" points="140.696,1486.45 140.696,47.2441 "/>
<polyline clip-path="url(#clip040)" style="stroke:#000000; stroke-linecap:round; stroke-linejoin:round; stroke-width:4; stroke-opacity:1; fill:none" points="140.696,1413.39 159.593,1413.39 "/>
<polyline clip-path="url(#clip040)" style="stroke:#000000; stroke-linecap:round; stroke-linejoin:round; stroke-width:4; stroke-opacity:1; fill:none" points="140.696,982.36 159.593,982.36 "/>
<polyline clip-path="url(#clip040)" style="stroke:#000000; stroke-linecap:round; stroke-linejoin:round; stroke-width:4; stroke-opacity:1; fill:none" points="140.696,551.332 159.593,551.332 "/>
<polyline clip-path="url(#clip040)" style="stroke:#000000; stroke-linecap:round; stroke-linejoin:round; stroke-width:4; stroke-opacity:1; fill:none" points="140.696,120.303 159.593,120.303 "/>
<path clip-path="url(#clip040)" d="M92.7512 1399.19 Q89.1401 1399.19 87.3114 1402.75 Q85.5058 1406.29 85.5058 1413.42 Q85.5058 1420.53 87.3114 1424.09 Q89.1401 1427.64 92.7512 1427.64 Q96.3854 1427.64 98.1909 1424.09 Q100.02 1420.53 100.02 1413.42 Q100.02 1406.29 98.1909 1402.75 Q96.3854 1399.19 92.7512 1399.19 M92.7512 1395.48 Q98.5613 1395.48 101.617 1400.09 Q104.696 1404.67 104.696 1413.42 Q104.696 1422.15 101.617 1426.76 Q98.5613 1431.34 92.7512 1431.34 Q86.941 1431.34 83.8623 1426.76 Q80.8068 1422.15 80.8068 1413.42 Q80.8068 1404.67 83.8623 1400.09 Q86.941 1395.48 92.7512 1395.48 Z" fill="#000000" fill-rule="nonzero" fill-opacity="1" /><path clip-path="url(#clip040)" d="M53.3995 995.705 L61.0384 995.705 L61.0384 969.339 L52.7282 971.006 L52.7282 966.747 L60.9921 965.08 L65.668 965.08 L65.668 995.705 L73.3068 995.705 L73.3068 999.64 L53.3995 999.64 L53.3995 995.705 Z" fill="#000000" fill-rule="nonzero" fill-opacity="1" /><path clip-path="url(#clip040)" d="M92.7512 968.159 Q89.1401 968.159 87.3114 971.724 Q85.5058 975.265 85.5058 982.395 Q85.5058 989.501 87.3114 993.066 Q89.1401 996.608 92.7512 996.608 Q96.3854 996.608 98.1909 993.066 Q100.02 989.501 100.02 982.395 Q100.02 975.265 98.1909 971.724 Q96.3854 968.159 92.7512 968.159 M92.7512 964.455 Q98.5613 964.455 101.617 969.062 Q104.696 973.645 104.696 982.395 Q104.696 991.122 101.617 995.728 Q98.5613 1000.31 92.7512 1000.31 Q86.941 1000.31 83.8623 995.728 Q80.8068 991.122 80.8068 982.395 Q80.8068 973.645 83.8623 969.062 Q86.941 964.455 92.7512 964.455 Z" fill="#000000" fill-rule="nonzero" fill-opacity="1" /><path clip-path="url(#clip040)" d="M56.6171 564.677 L72.9365 564.677 L72.9365 568.612 L50.9921 568.612 L50.9921 564.677 Q53.6541 561.922 58.2375 557.292 Q62.8439 552.64 64.0245 551.297 Q66.2698 548.774 67.1494 547.038 Q68.0522 545.279 68.0522 543.589 Q68.0522 540.834 66.1078 539.098 Q64.1865 537.362 61.0847 537.362 Q58.8856 537.362 56.4319 538.126 Q54.0014 538.89 51.2236 540.441 L51.2236 535.718 Q54.0477 534.584 56.5014 534.005 Q58.955 533.427 60.9921 533.427 Q66.3624 533.427 69.5568 536.112 Q72.7513 538.797 72.7513 543.288 Q72.7513 545.417 71.9411 547.339 Q71.1541 549.237 69.0476 551.829 Q68.4689 552.501 65.367 555.718 Q62.2652 558.913 56.6171 564.677 Z" fill="#000000" fill-rule="nonzero" fill-opacity="1" /><path clip-path="url(#clip040)" d="M92.7512 537.13 Q89.1401 537.13 87.3114 540.695 Q85.5058 544.237 85.5058 551.367 Q85.5058 558.473 87.3114 562.038 Q89.1401 565.579 92.7512 565.579 Q96.3854 565.579 98.1909 562.038 Q100.02 558.473 100.02 551.367 Q100.02 544.237 98.1909 540.695 Q96.3854 537.13 92.7512 537.13 M92.7512 533.427 Q98.5613 533.427 101.617 538.033 Q104.696 542.617 104.696 551.367 Q104.696 560.093 101.617 564.7 Q98.5613 569.283 92.7512 569.283 Q86.941 569.283 83.8623 564.7 Q80.8068 560.093 80.8068 551.367 Q80.8068 542.617 83.8623 538.033 Q86.941 533.427 92.7512 533.427 Z" fill="#000000" fill-rule="nonzero" fill-opacity="1" /><path clip-path="url(#clip040)" d="M66.7559 118.949 Q70.1124 119.667 71.9874 121.935 Q73.8855 124.204 73.8855 127.537 Q73.8855 132.653 70.367 135.454 Q66.8485 138.255 60.3671 138.255 Q58.1912 138.255 55.8764 137.815 Q53.5847 137.398 51.131 136.542 L51.131 132.028 Q53.0754 133.162 55.3903 133.741 Q57.7051 134.32 60.2282 134.32 Q64.6263 134.32 66.918 132.583 Q69.2328 130.847 69.2328 127.537 Q69.2328 124.482 67.08 122.769 Q64.9504 121.033 61.131 121.033 L57.1032 121.033 L57.1032 117.19 L61.3161 117.19 Q64.7652 117.19 66.5939 115.824 Q68.4226 114.435 68.4226 111.843 Q68.4226 109.181 66.5245 107.769 Q64.6495 106.334 61.131 106.334 Q59.2097 106.334 57.0106 106.75 Q54.8115 107.167 52.1727 108.047 L52.1727 103.88 Q54.8347 103.139 57.1495 102.769 Q59.4875 102.398 61.5476 102.398 Q66.8717 102.398 69.9735 104.829 Q73.0753 107.236 73.0753 111.357 Q73.0753 114.227 71.4318 116.218 Q69.7883 118.185 66.7559 118.949 Z" fill="#000000" fill-rule="nonzero" fill-opacity="1" /><path clip-path="url(#clip040)" d="M92.7512 106.102 Q89.1401 106.102 87.3114 109.667 Q85.5058 113.209 85.5058 120.338 Q85.5058 127.445 87.3114 131.009 Q89.1401 134.551 92.7512 134.551 Q96.3854 134.551 98.1909 131.009 Q100.02 127.445 100.02 120.338 Q100.02 113.209 98.1909 109.667 Q96.3854 106.102 92.7512 106.102 M92.7512 102.398 Q98.5613 102.398 101.617 107.005 Q104.696 111.588 104.696 120.338 Q104.696 129.065 101.617 133.671 Q98.5613 138.255 92.7512 138.255 Q86.941 138.255 83.8623 133.671 Q80.8068 129.065 80.8068 120.338 Q80.8068 111.588 83.8623 107.005 Q86.941 102.398 92.7512 102.398 Z" fill="#000000" fill-rule="nonzero" fill-opacity="1" /><path clip-path="url(#clip042)" d="M567.856 1445.72 L1925.6 1445.72 L1925.6 87.9763 L567.856 87.9763 L567.856 1445.72 L567.856 1445.72  Z" fill="#009af9" fill-rule="evenodd" fill-opacity="1"/>
<polyline clip-path="url(#clip042)" style="stroke:#000000; stroke-linecap:round; stroke-linejoin:round; stroke-width:4; stroke-opacity:1; fill:none" points="567.856,1445.72 1925.6,1445.72 1925.6,87.9763 567.856,87.9763 567.856,1445.72 "/>
<path clip-path="url(#clip042)" d="M567.856 1381.06 L1860.94 1381.06 L1860.94 87.9763 L567.856 87.9763 L567.856 1381.06 L567.856 1381.06  Z" fill="#e26f46" fill-rule="evenodd" fill-opacity="1"/>
<polyline clip-path="url(#clip042)" style="stroke:#000000; stroke-linecap:round; stroke-linejoin:round; stroke-width:4; stroke-opacity:1; fill:none" points="567.856,1381.06 1860.94,1381.06 1860.94,87.9763 567.856,87.9763 567.856,1381.06 "/>
<path clip-path="url(#clip042)" d="M567.856 1316.41 L1796.29 1316.41 L1796.29 87.9763 L567.856 87.9763 L567.856 1316.41 L567.856 1316.41  Z" fill="#3da44d" fill-rule="evenodd" fill-opacity="1"/>
<polyline clip-path="url(#clip042)" style="stroke:#000000; stroke-linecap:round; stroke-linejoin:round; stroke-width:4; stroke-opacity:1; fill:none" points="567.856,1316.41 1796.29,1316.41 1796.29,87.9763 567.856,87.9763 567.856,1316.41 "/>
<path clip-path="url(#clip042)" d="M567.856 1251.75 L1731.63 1251.75 L1731.63 87.9763 L567.856 87.9763 L567.856 1251.75 L567.856 1251.75  Z" fill="#c271d2" fill-rule="evenodd" fill-opacity="1"/>
<polyline clip-path="url(#clip042)" style="stroke:#000000; stroke-linecap:round; stroke-linejoin:round; stroke-width:4; stroke-opacity:1; fill:none" points="567.856,1251.75 1731.63,1251.75 1731.63,87.9763 567.856,87.9763 567.856,1251.75 "/>
<path clip-path="url(#clip042)" d="M567.856 1187.1 L1666.98 1187.1 L1666.98 87.9763 L567.856 87.9763 L567.856 1187.1 L567.856 1187.1  Z" fill="#ac8d18" fill-rule="evenodd" fill-opacity="1"/>
<polyline clip-path="url(#clip042)" style="stroke:#000000; stroke-linecap:round; stroke-linejoin:round; stroke-width:4; stroke-opacity:1; fill:none" points="567.856,1187.1 1666.98,1187.1 1666.98,87.9763 567.856,87.9763 567.856,1187.1 "/>
<path clip-path="url(#clip042)" d="M567.856 1122.44 L1602.32 1122.44 L1602.32 87.9763 L567.856 87.9763 L567.856 1122.44 L567.856 1122.44  Z" fill="#00a9ad" fill-rule="evenodd" fill-opacity="1"/>
<polyline clip-path="url(#clip042)" style="stroke:#000000; stroke-linecap:round; stroke-linejoin:round; stroke-width:4; stroke-opacity:1; fill:none" points="567.856,1122.44 1602.32,1122.44 1602.32,87.9763 567.856,87.9763 567.856,1122.44 "/>
<path clip-path="url(#clip042)" d="M567.856 1057.79 L1537.67 1057.79 L1537.67 87.9763 L567.856 87.9763 L567.856 1057.79 L567.856 1057.79  Z" fill="#ed5d92" fill-rule="evenodd" fill-opacity="1"/>
<polyline clip-path="url(#clip042)" style="stroke:#000000; stroke-linecap:round; stroke-linejoin:round; stroke-width:4; stroke-opacity:1; fill:none" points="567.856,1057.79 1537.67,1057.79 1537.67,87.9763 567.856,87.9763 567.856,1057.79 "/>
<path clip-path="url(#clip042)" d="M567.856 993.136 L1473.02 993.136 L1473.02 87.9763 L567.856 87.9763 L567.856 993.136 L567.856 993.136  Z" fill="#c68125" fill-rule="evenodd" fill-opacity="1"/>
<polyline clip-path="url(#clip042)" style="stroke:#000000; stroke-linecap:round; stroke-linejoin:round; stroke-width:4; stroke-opacity:1; fill:none" points="567.856,993.136 1473.02,993.136 1473.02,87.9763 567.856,87.9763 567.856,993.136 "/>
<path clip-path="url(#clip042)" d="M567.856 928.482 L1408.36 928.482 L1408.36 87.9763 L567.856 87.9763 L567.856 928.482 L567.856 928.482  Z" fill="#00a98d" fill-rule="evenodd" fill-opacity="1"/>
<polyline clip-path="url(#clip042)" style="stroke:#000000; stroke-linecap:round; stroke-linejoin:round; stroke-width:4; stroke-opacity:1; fill:none" points="567.856,928.482 1408.36,928.482 1408.36,87.9763 567.856,87.9763 567.856,928.482 "/>
<path clip-path="url(#clip042)" d="M567.856 863.827 L1343.71 863.827 L1343.71 87.9763 L567.856 87.9763 L567.856 863.827 L567.856 863.827  Z" fill="#8e971d" fill-rule="evenodd" fill-opacity="1"/>
<polyline clip-path="url(#clip042)" style="stroke:#000000; stroke-linecap:round; stroke-linejoin:round; stroke-width:4; stroke-opacity:1; fill:none" points="567.856,863.827 1343.71,863.827 1343.71,87.9763 567.856,87.9763 567.856,863.827 "/>
<path clip-path="url(#clip042)" d="M567.856 799.173 L1279.05 799.173 L1279.05 87.9763 L567.856 87.9763 L567.856 799.173 L567.856 799.173  Z" fill="#00a8cb" fill-rule="evenodd" fill-opacity="1"/>
<polyline clip-path="url(#clip042)" style="stroke:#000000; stroke-linecap:round; stroke-linejoin:round; stroke-width:4; stroke-opacity:1; fill:none" points="567.856,799.173 1279.05,799.173 1279.05,87.9763 567.856,87.9763 567.856,799.173 "/>
<path clip-path="url(#clip042)" d="M567.856 734.519 L1214.4 734.519 L1214.4 87.9763 L567.856 87.9763 L567.856 734.519 L567.856 734.519  Z" fill="#9b7fe8" fill-rule="evenodd" fill-opacity="1"/>
<polyline clip-path="url(#clip042)" style="stroke:#000000; stroke-linecap:round; stroke-linejoin:round; stroke-width:4; stroke-opacity:1; fill:none" points="567.856,734.519 1214.4,734.519 1214.4,87.9763 567.856,87.9763 567.856,734.519 "/>
<path clip-path="url(#clip042)" d="M567.856 669.865 L1149.74 669.865 L1149.74 87.9763 L567.856 87.9763 L567.856 669.865 L567.856 669.865  Z" fill="#608cf6" fill-rule="evenodd" fill-opacity="1"/>
<polyline clip-path="url(#clip042)" style="stroke:#000000; stroke-linecap:round; stroke-linejoin:round; stroke-width:4; stroke-opacity:1; fill:none" points="567.856,669.865 1149.74,669.865 1149.74,87.9763 567.856,87.9763 567.856,669.865 "/>
<path clip-path="url(#clip042)" d="M567.856 605.21 L1085.09 605.21 L1085.09 87.9763 L567.856 87.9763 L567.856 605.21 L567.856 605.21  Z" fill="#f05f73" fill-rule="evenodd" fill-opacity="1"/>
<polyline clip-path="url(#clip042)" style="stroke:#000000; stroke-linecap:round; stroke-linejoin:round; stroke-width:4; stroke-opacity:1; fill:none" points="567.856,605.21 1085.09,605.21 1085.09,87.9763 567.856,87.9763 567.856,605.21 "/>
<path clip-path="url(#clip042)" d="M567.856 540.556 L1020.44 540.556 L1020.44 87.9763 L567.856 87.9763 L567.856 540.556 L567.856 540.556  Z" fill="#dd64b5" fill-rule="evenodd" fill-opacity="1"/>
<polyline clip-path="url(#clip042)" style="stroke:#000000; stroke-linecap:round; stroke-linejoin:round; stroke-width:4; stroke-opacity:1; fill:none" points="567.856,540.556 1020.44,540.556 1020.44,87.9763 567.856,87.9763 567.856,540.556 "/>
<path clip-path="url(#clip042)" d="M567.856 475.902 L955.782 475.902 L955.782 87.9763 L567.856 87.9763 L567.856 475.902 L567.856 475.902  Z" fill="#6b9e32" fill-rule="evenodd" fill-opacity="1"/>
<polyline clip-path="url(#clip042)" style="stroke:#000000; stroke-linecap:round; stroke-linejoin:round; stroke-width:4; stroke-opacity:1; fill:none" points="567.856,475.902 955.782,475.902 955.782,87.9763 567.856,87.9763 567.856,475.902 "/>
<path clip-path="url(#clip042)" d="M567.856 411.248 L891.127 411.248 L891.127 87.9763 L567.856 87.9763 L567.856 411.248 L567.856 411.248  Z" fill="#009af9" fill-rule="evenodd" fill-opacity="1"/>
<polyline clip-path="url(#clip042)" style="stroke:#000000; stroke-linecap:round; stroke-linejoin:round; stroke-width:4; stroke-opacity:1; fill:none" points="567.856,411.248 891.127,411.248 891.127,87.9763 567.856,87.9763 567.856,411.248 "/>
<path clip-path="url(#clip042)" d="M567.856 346.593 L826.473 346.593 L826.473 87.9763 L567.856 87.9763 L567.856 346.593 L567.856 346.593  Z" fill="#e26f46" fill-rule="evenodd" fill-opacity="1"/>
<polyline clip-path="url(#clip042)" style="stroke:#000000; stroke-linecap:round; stroke-linejoin:round; stroke-width:4; stroke-opacity:1; fill:none" points="567.856,346.593 826.473,346.593 826.473,87.9763 567.856,87.9763 567.856,346.593 "/>
<path clip-path="url(#clip042)" d="M567.856 281.939 L761.819 281.939 L761.819 87.9763 L567.856 87.9763 L567.856 281.939 L567.856 281.939  Z" fill="#3da44d" fill-rule="evenodd" fill-opacity="1"/>
<polyline clip-path="url(#clip042)" style="stroke:#000000; stroke-linecap:round; stroke-linejoin:round; stroke-width:4; stroke-opacity:1; fill:none" points="567.856,281.939 761.819,281.939 761.819,87.9763 567.856,87.9763 567.856,281.939 "/>
<path clip-path="url(#clip042)" d="M567.856 217.285 L697.165 217.285 L697.165 87.9763 L567.856 87.9763 L567.856 217.285 L567.856 217.285  Z" fill="#c271d2" fill-rule="evenodd" fill-opacity="1"/>
<polyline clip-path="url(#clip042)" style="stroke:#000000; stroke-linecap:round; stroke-linejoin:round; stroke-width:4; stroke-opacity:1; fill:none" points="567.856,217.285 697.165,217.285 697.165,87.9763 567.856,87.9763 567.856,217.285 "/>
<path clip-path="url(#clip042)" d="M567.856 152.631 L632.51 152.631 L632.51 87.9763 L567.856 87.9763 L567.856 152.631 L567.856 152.631  Z" fill="#ac8d18" fill-rule="evenodd" fill-opacity="1"/>
<polyline clip-path="url(#clip042)" style="stroke:#000000; stroke-linecap:round; stroke-linejoin:round; stroke-width:4; stroke-opacity:1; fill:none" points="567.856,152.631 632.51,152.631 632.51,87.9763 567.856,87.9763 567.856,152.631 "/>
</svg>
