<?xml version="1.0" encoding="utf-8"?>
<svg xmlns="http://www.w3.org/2000/svg" xmlns:xlink="http://www.w3.org/1999/xlink" width="600" height="400" viewBox="0 0 2400 1600">
<defs>
  <clipPath id="clip770">
    <rect x="0" y="0" width="2400" height="1600"/>
  </clipPath>
</defs>
<path clip-path="url(#clip770)" d="M0 1600 L2400 1600 L2400 0 L0 0  Z" fill="#ffffff" fill-rule="evenodd" fill-opacity="1"/>
<defs>
  <clipPath id="clip771">
    <rect x="480" y="0" width="1681" height="1600"/>
  </clipPath>
</defs>
<path clip-path="url(#clip770)" d="M156.922 1486.45 L2352.76 1486.45 L2352.76 47.2441 L156.922 47.2441  Z" fill="#ffffff" fill-rule="evenodd" fill-opacity="1"/>
<defs>
  <clipPath id="clip772">
    <rect x="156" y="47" width="2197" height="1440"/>
  </clipPath>
</defs>
<polyline clip-path="url(#clip772)" style="stroke:#000000; stroke-linecap:round; stroke-linejoin:round; stroke-width:2; stroke-opacity:0.1; fill:none" points="470.919,1486.45 470.919,47.2441 "/>
<polyline clip-path="url(#clip772)" style="stroke:#000000; stroke-linecap:round; stroke-linejoin:round; stroke-width:2; stroke-opacity:0.1; fill:none" points="929.407,1486.45 929.407,47.2441 "/>
<polyline clip-path="url(#clip772)" style="stroke:#000000; stroke-linecap:round; stroke-linejoin:round; stroke-width:2; stroke-opacity:0.1; fill:none" points="1387.89,1486.45 1387.89,47.2441 "/>
<polyline clip-path="url(#clip772)" style="stroke:#000000; stroke-linecap:round; stroke-linejoin:round; stroke-width:2; stroke-opacity:0.1; fill:none" points="1846.38,1486.45 1846.38,47.2441 "/>
<polyline clip-path="url(#clip772)" style="stroke:#000000; stroke-linecap:round; stroke-linejoin:round; stroke-width:2; stroke-opacity:0.1; fill:none" points="2304.87,1486.45 2304.87,47.2441 "/>
<polyline clip-path="url(#clip770)" style="stroke:#000000; stroke-linecap:round; stroke-linejoin:round; stroke-width:4; stroke-opacity:1; fill:none" points="156.922,1486.45 2352.76,1486.45 "/>
<polyline clip-path="url(#clip770)" style="stroke:#000000; stroke-linecap:round; stroke-linejoin:round; stroke-width:4; stroke-opacity:1; fill:none" points="470.919,1486.45 470.919,1467.55 "/>
<polyline clip-path="url(#clip770)" style="stroke:#000000; stroke-linecap:round; stroke-linejoin:round; stroke-width:4; stroke-opacity:1; fill:none" points="929.407,1486.45 929.407,1467.55 "/>
<polyline clip-path="url(#clip770)" style="stroke:#000000; stroke-linecap:round; stroke-linejoin:round; stroke-width:4; stroke-opacity:1; fill:none" points="1387.89,1486.45 1387.89,1467.55 "/>
<polyline clip-path="url(#clip770)" style="stroke:#000000; stroke-linecap:round; stroke-linejoin:round; stroke-width:4; stroke-opacity:1; fill:none" points="1846.38,1486.45 1846.38,1467.55 "/>
<polyline clip-path="url(#clip770)" style="stroke:#000000; stroke-linecap:round; stroke-linejoin:round; stroke-width:4; stroke-opacity:1; fill:none" points="2304.87,1486.45 2304.87,1467.55 "/>
<path clip-path="url(#clip770)" d="M461.301 1544.91 L468.94 1544.91 L468.94 1518.55 L460.63 1520.21 L460.63 1515.95 L468.894 1514.29 L473.57 1514.29 L473.57 1544.91 L481.209 1544.91 L481.209 1548.85 L461.301 1548.85 L461.301 1544.91 Z" fill="#000000" fill-rule="nonzero" fill-opacity="1" /><path clip-path="url(#clip770)" d="M924.06 1544.91 L940.379 1544.91 L940.379 1548.85 L918.435 1548.85 L918.435 1544.91 Q921.097 1542.16 925.68 1537.53 Q930.287 1532.88 931.467 1531.53 Q933.713 1529.01 934.592 1527.27 Q935.495 1525.51 935.495 1523.82 Q935.495 1521.07 933.551 1519.33 Q931.629 1517.6 928.527 1517.6 Q926.328 1517.6 923.875 1518.36 Q921.444 1519.13 918.666 1520.68 L918.666 1515.95 Q921.49 1514.82 923.944 1514.24 Q926.398 1513.66 928.435 1513.66 Q933.805 1513.66 937 1516.35 Q940.194 1519.03 940.194 1523.52 Q940.194 1525.65 939.384 1527.57 Q938.597 1529.47 936.49 1532.07 Q935.912 1532.74 932.81 1535.95 Q929.708 1539.15 924.06 1544.91 Z" fill="#000000" fill-rule="nonzero" fill-opacity="1" /><path clip-path="url(#clip770)" d="M1392.14 1530.21 Q1395.5 1530.93 1397.37 1533.2 Q1399.27 1535.47 1399.27 1538.8 Q1399.27 1543.92 1395.75 1546.72 Q1392.23 1549.52 1385.75 1549.52 Q1383.58 1549.52 1381.26 1549.08 Q1378.97 1548.66 1376.52 1547.81 L1376.52 1543.29 Q1378.46 1544.43 1380.78 1545.01 Q1383.09 1545.58 1385.61 1545.58 Q1390.01 1545.58 1392.3 1543.85 Q1394.62 1542.11 1394.62 1538.8 Q1394.62 1535.75 1392.47 1534.03 Q1390.34 1532.3 1386.52 1532.3 L1382.49 1532.3 L1382.49 1528.45 L1386.7 1528.45 Q1390.15 1528.45 1391.98 1527.09 Q1393.81 1525.7 1393.81 1523.11 Q1393.81 1520.45 1391.91 1519.03 Q1390.04 1517.6 1386.52 1517.6 Q1384.6 1517.6 1382.4 1518.01 Q1380.2 1518.43 1377.56 1519.31 L1377.56 1515.14 Q1380.22 1514.4 1382.54 1514.03 Q1384.87 1513.66 1386.93 1513.66 Q1392.26 1513.66 1395.36 1516.09 Q1398.46 1518.5 1398.46 1522.62 Q1398.46 1525.49 1396.82 1527.48 Q1395.17 1529.45 1392.14 1530.21 Z" fill="#000000" fill-rule="nonzero" fill-opacity="1" /><path clip-path="url(#clip770)" d="M1849.39 1518.36 L1837.59 1536.81 L1849.39 1536.81 L1849.39 1518.36 M1848.16 1514.29 L1854.04 1514.29 L1854.04 1536.81 L1858.97 1536.81 L1858.97 1540.7 L1854.04 1540.7 L1854.04 1548.85 L1849.39 1548.85 L1849.39 1540.7 L1833.79 1540.7 L1833.79 1536.19 L1848.16 1514.29 Z" fill="#000000" fill-rule="nonzero" fill-opacity="1" /><path clip-path="url(#clip770)" d="M2295.15 1514.29 L2313.5 1514.29 L2313.5 1518.22 L2299.43 1518.22 L2299.43 1526.7 Q2300.45 1526.35 2301.47 1526.19 Q2302.49 1526 2303.5 1526 Q2309.29 1526 2312.67 1529.17 Q2316.05 1532.34 2316.05 1537.76 Q2316.05 1543.34 2312.58 1546.44 Q2309.11 1549.52 2302.79 1549.52 Q2300.61 1549.52 2298.34 1549.15 Q2296.1 1548.78 2293.69 1548.04 L2293.69 1543.34 Q2295.77 1544.47 2297.99 1545.03 Q2300.22 1545.58 2302.69 1545.58 Q2306.7 1545.58 2309.04 1543.48 Q2311.37 1541.37 2311.37 1537.76 Q2311.37 1534.15 2309.04 1532.04 Q2306.7 1529.94 2302.69 1529.94 Q2300.82 1529.94 2298.94 1530.35 Q2297.09 1530.77 2295.15 1531.65 L2295.15 1514.29 Z" fill="#000000" fill-rule="nonzero" fill-opacity="1" /><polyline clip-path="url(#clip772)" style="stroke:#000000; stroke-linecap:round; stroke-linejoin:round; stroke-width:2; stroke-opacity:0.1; fill:none" points="156.922,1257.56 2352.76,1257.56 "/>
<polyline clip-path="url(#clip772)" style="stroke:#000000; stroke-linecap:round; stroke-linejoin:round; stroke-width:2; stroke-opacity:0.1; fill:none" points="156.922,1028.31 2352.76,1028.31 "/>
<polyline clip-path="url(#clip772)" style="stroke:#000000; stroke-linecap:round; stroke-linejoin:round; stroke-width:2; stroke-opacity:0.1; fill:none" points="156.922,799.069 2352.76,799.069 "/>
<polyline clip-path="url(#clip772)" style="stroke:#000000; stroke-linecap:round; stroke-linejoin:round; stroke-width:2; stroke-opacity:0.1; fill:none" points="156.922,569.825 2352.76,569.825 "/>
<polyline clip-path="url(#clip772)" style="stroke:#000000; stroke-linecap:round; stroke-linejoin:round; stroke-width:2; stroke-opacity:0.1; fill:none" points="156.922,340.581 2352.76,340.581 "/>
<polyline clip-path="url(#clip772)" style="stroke:#000000; stroke-linecap:round; stroke-linejoin:round; stroke-width:2; stroke-opacity:0.1; fill:none" points="156.922,111.337 2352.76,111.337 "/>
<polyline clip-path="url(#clip770)" style="stroke:#000000; stroke-linecap:round; stroke-linejoin:round; stroke-width:4; stroke-opacity:1; fill:none" points="156.922,1486.45 156.922,47.2441 "/>
<polyline clip-path="url(#clip770)" style="stroke:#000000; stroke-linecap:round; stroke-linejoin:round; stroke-width:4; stroke-opacity:1; fill:none" points="156.922,1257.56 175.82,1257.56 "/>
<polyline clip-path="url(#clip770)" style="stroke:#000000; stroke-linecap:round; stroke-linejoin:round; stroke-width:4; stroke-opacity:1; fill:none" points="156.922,1028.31 175.82,1028.31 "/>
<polyline clip-path="url(#clip770)" style="stroke:#000000; stroke-linecap:round; stroke-linejoin:round; stroke-width:4; stroke-opacity:1; fill:none" points="156.922,799.069 175.82,799.069 "/>
<polyline clip-path="url(#clip770)" style="stroke:#000000; stroke-linecap:round; stroke-linejoin:round; stroke-width:4; stroke-opacity:1; fill:none" points="156.922,569.825 175.82,569.825 "/>
<polyline clip-path="url(#clip770)" style="stroke:#000000; stroke-linecap:round; stroke-linejoin:round; stroke-width:4; stroke-opacity:1; fill:none" points="156.922,340.581 175.82,340.581 "/>
<polyline clip-path="url(#clip770)" style="stroke:#000000; stroke-linecap:round; stroke-linejoin:round; stroke-width:4; stroke-opacity:1; fill:none" points="156.922,111.337 175.82,111.337 "/>
<path clip-path="url(#clip770)" d="M55.5523 1270.9 L63.1911 1270.9 L63.1911 1244.54 L54.881 1246.2 L54.881 1241.94 L63.1448 1240.28 L67.8207 1240.28 L67.8207 1270.9 L75.4596 1270.9 L75.4596 1274.84 L55.5523 1274.84 L55.5523 1270.9 Z" fill="#000000" fill-rule="nonzero" fill-opacity="1" /><path clip-path="url(#clip770)" d="M84.904 1268.96 L89.7882 1268.96 L89.7882 1274.84 L84.904 1274.84 L84.904 1268.96 Z" fill="#000000" fill-rule="nonzero" fill-opacity="1" /><path clip-path="url(#clip770)" d="M100.02 1240.28 L118.376 1240.28 L118.376 1244.21 L104.302 1244.21 L104.302 1252.68 Q105.321 1252.34 106.339 1252.17 Q107.358 1251.99 108.376 1251.99 Q114.163 1251.99 117.543 1255.16 Q120.922 1258.33 120.922 1263.75 Q120.922 1269.33 117.45 1272.43 Q113.978 1275.51 107.658 1275.51 Q105.483 1275.51 103.214 1275.14 Q100.969 1274.77 98.5613 1274.03 L98.5613 1269.33 Q100.645 1270.46 102.867 1271.02 Q105.089 1271.57 107.566 1271.57 Q111.571 1271.57 113.908 1269.47 Q116.246 1267.36 116.246 1263.75 Q116.246 1260.14 113.908 1258.03 Q111.571 1255.92 107.566 1255.92 Q105.691 1255.92 103.816 1256.34 Q101.964 1256.76 100.02 1257.64 L100.02 1240.28 Z" fill="#000000" fill-rule="nonzero" fill-opacity="1" /><path clip-path="url(#clip770)" d="M57.7745 1041.66 L74.0939 1041.66 L74.0939 1045.59 L52.1495 1045.59 L52.1495 1041.66 Q54.8115 1038.9 59.3949 1034.27 Q64.0013 1029.62 65.1819 1028.28 Q67.4272 1025.75 68.3068 1024.02 Q69.2096 1022.26 69.2096 1020.57 Q69.2096 1017.81 67.2652 1016.08 Q65.3439 1014.34 62.2421 1014.34 Q60.043 1014.34 57.5893 1015.11 Q55.1588 1015.87 52.381 1017.42 L52.381 1012.7 Q55.2051 1011.56 57.6588 1010.99 Q60.1124 1010.41 62.1495 1010.41 Q67.5198 1010.41 70.7142 1013.09 Q73.9087 1015.78 73.9087 1020.27 Q73.9087 1022.4 73.0985 1024.32 Q72.3115 1026.22 70.205 1028.81 Q69.6263 1029.48 66.5245 1032.7 Q63.4226 1035.89 57.7745 1041.66 Z" fill="#000000" fill-rule="nonzero" fill-opacity="1" /><path clip-path="url(#clip770)" d="M83.9086 1039.71 L88.7928 1039.71 L88.7928 1045.59 L83.9086 1045.59 L83.9086 1039.71 Z" fill="#000000" fill-rule="nonzero" fill-opacity="1" /><path clip-path="url(#clip770)" d="M108.978 1014.11 Q105.367 1014.11 103.538 1017.68 Q101.733 1021.22 101.733 1028.35 Q101.733 1035.45 103.538 1039.02 Q105.367 1042.56 108.978 1042.56 Q112.612 1042.56 114.418 1039.02 Q116.246 1035.45 116.246 1028.35 Q116.246 1021.22 114.418 1017.68 Q112.612 1014.11 108.978 1014.11 M108.978 1010.41 Q114.788 1010.41 117.844 1015.01 Q120.922 1019.6 120.922 1028.35 Q120.922 1037.07 117.844 1041.68 Q114.788 1046.26 108.978 1046.26 Q103.168 1046.26 100.089 1041.68 Q97.0335 1037.07 97.0335 1028.35 Q97.0335 1019.6 100.089 1015.01 Q103.168 1010.41 108.978 1010.41 Z" fill="#000000" fill-rule="nonzero" fill-opacity="1" /><path clip-path="url(#clip770)" d="M58.7699 812.414 L75.0892 812.414 L75.0892 816.349 L53.1449 816.349 L53.1449 812.414 Q55.8069 809.659 60.3902 805.029 Q64.9967 800.377 66.1772 799.034 Q68.4226 796.511 69.3022 794.775 Q70.205 793.016 70.205 791.326 Q70.205 788.571 68.2606 786.835 Q66.3393 785.099 63.2374 785.099 Q61.0384 785.099 58.5847 785.863 Q56.1541 786.627 53.3764 788.178 L53.3764 783.455 Q56.2004 782.321 58.6541 781.742 Q61.1078 781.164 63.1448 781.164 Q68.5152 781.164 71.7096 783.849 Q74.904 786.534 74.904 791.025 Q74.904 793.154 74.0939 795.076 Q73.3068 796.974 71.2004 799.566 Q70.6217 800.238 67.5198 803.455 Q64.418 806.65 58.7699 812.414 Z" fill="#000000" fill-rule="nonzero" fill-opacity="1" /><path clip-path="url(#clip770)" d="M84.904 810.469 L89.7882 810.469 L89.7882 816.349 L84.904 816.349 L84.904 810.469 Z" fill="#000000" fill-rule="nonzero" fill-opacity="1" /><path clip-path="url(#clip770)" d="M100.02 781.789 L118.376 781.789 L118.376 785.724 L104.302 785.724 L104.302 794.196 Q105.321 793.849 106.339 793.687 Q107.358 793.502 108.376 793.502 Q114.163 793.502 117.543 796.673 Q120.922 799.844 120.922 805.261 Q120.922 810.84 117.45 813.941 Q113.978 817.02 107.658 817.02 Q105.483 817.02 103.214 816.65 Q100.969 816.279 98.5613 815.539 L98.5613 810.84 Q100.645 811.974 102.867 812.529 Q105.089 813.085 107.566 813.085 Q111.571 813.085 113.908 810.978 Q116.246 808.872 116.246 805.261 Q116.246 801.65 113.908 799.543 Q111.571 797.437 107.566 797.437 Q105.691 797.437 103.816 797.853 Q101.964 798.27 100.02 799.15 L100.02 781.789 Z" fill="#000000" fill-rule="nonzero" fill-opacity="1" /><path clip-path="url(#clip770)" d="M67.9133 568.471 Q71.2698 569.188 73.1448 571.457 Q75.0429 573.725 75.0429 577.059 Q75.0429 582.174 71.5244 584.975 Q68.0059 587.776 61.5245 587.776 Q59.3486 587.776 57.0338 587.336 Q54.7421 586.92 52.2884 586.063 L52.2884 581.549 Q54.2328 582.684 56.5477 583.262 Q58.8625 583.841 61.3856 583.841 Q65.7837 583.841 68.0754 582.105 Q70.3902 580.369 70.3902 577.059 Q70.3902 574.003 68.2374 572.29 Q66.1078 570.554 62.2884 570.554 L58.2606 570.554 L58.2606 566.712 L62.4735 566.712 Q65.9226 566.712 67.7513 565.346 Q69.58 563.957 69.58 561.364 Q69.58 558.702 67.6819 557.29 Q65.8069 555.855 62.2884 555.855 Q60.3671 555.855 58.168 556.272 Q55.969 556.688 53.3301 557.568 L53.3301 553.401 Q55.9921 552.661 58.3069 552.29 Q60.6449 551.92 62.705 551.92 Q68.0291 551.92 71.1309 554.351 Q74.2327 556.758 74.2327 560.878 Q74.2327 563.749 72.5892 565.739 Q70.9457 567.707 67.9133 568.471 Z" fill="#000000" fill-rule="nonzero" fill-opacity="1" /><path clip-path="url(#clip770)" d="M83.9086 581.225 L88.7928 581.225 L88.7928 587.105 L83.9086 587.105 L83.9086 581.225 Z" fill="#000000" fill-rule="nonzero" fill-opacity="1" /><path clip-path="url(#clip770)" d="M108.978 555.624 Q105.367 555.624 103.538 559.188 Q101.733 562.73 101.733 569.86 Q101.733 576.966 103.538 580.531 Q105.367 584.073 108.978 584.073 Q112.612 584.073 114.418 580.531 Q116.246 576.966 116.246 569.86 Q116.246 562.73 114.418 559.188 Q112.612 555.624 108.978 555.624 M108.978 551.92 Q114.788 551.92 117.844 556.526 Q120.922 561.11 120.922 569.86 Q120.922 578.586 117.844 583.193 Q114.788 587.776 108.978 587.776 Q103.168 587.776 100.089 583.193 Q97.0335 578.586 97.0335 569.86 Q97.0335 561.11 100.089 556.526 Q103.168 551.92 108.978 551.92 Z" fill="#000000" fill-rule="nonzero" fill-opacity="1" /><path clip-path="url(#clip770)" d="M68.9087 339.227 Q72.2652 339.945 74.1402 342.213 Q76.0383 344.482 76.0383 347.815 Q76.0383 352.931 72.5198 355.732 Q69.0013 358.532 62.5198 358.532 Q60.3439 358.532 58.0291 358.093 Q55.7375 357.676 53.2838 356.82 L53.2838 352.306 Q55.2282 353.44 57.543 354.019 Q59.8578 354.597 62.381 354.597 Q66.7791 354.597 69.0707 352.861 Q71.3855 351.125 71.3855 347.815 Q71.3855 344.759 69.2328 343.046 Q67.1032 341.31 63.2837 341.31 L59.256 341.31 L59.256 337.468 L63.4689 337.468 Q66.918 337.468 68.7467 336.102 Q70.5754 334.713 70.5754 332.121 Q70.5754 329.459 68.6772 328.047 Q66.8022 326.611 63.2837 326.611 Q61.3624 326.611 59.1634 327.028 Q56.9643 327.445 54.3254 328.324 L54.3254 324.158 Q56.9875 323.417 59.3023 323.047 Q61.6402 322.676 63.7004 322.676 Q69.0244 322.676 72.1263 325.107 Q75.2281 327.514 75.2281 331.634 Q75.2281 334.505 73.5846 336.496 Q71.9411 338.463 68.9087 339.227 Z" fill="#000000" fill-rule="nonzero" fill-opacity="1" /><path clip-path="url(#clip770)" d="M84.904 351.982 L89.7882 351.982 L89.7882 357.861 L84.904 357.861 L84.904 351.982 Z" fill="#000000" fill-rule="nonzero" fill-opacity="1" /><path clip-path="url(#clip770)" d="M100.02 323.301 L118.376 323.301 L118.376 327.236 L104.302 327.236 L104.302 335.709 Q105.321 335.361 106.339 335.199 Q107.358 335.014 108.376 335.014 Q114.163 335.014 117.543 338.185 Q120.922 341.357 120.922 346.773 Q120.922 352.352 117.45 355.454 Q113.978 358.532 107.658 358.532 Q105.483 358.532 103.214 358.162 Q100.969 357.792 98.5613 357.051 L98.5613 352.352 Q100.645 353.486 102.867 354.042 Q105.089 354.597 107.566 354.597 Q111.571 354.597 113.908 352.491 Q116.246 350.384 116.246 346.773 Q116.246 343.162 113.908 341.056 Q111.571 338.949 107.566 338.949 Q105.691 338.949 103.816 339.366 Q101.964 339.783 100.02 340.662 L100.02 323.301 Z" fill="#000000" fill-rule="nonzero" fill-opacity="1" /><path clip-path="url(#clip770)" d="M66.5939 98.1314 L54.7884 116.58 L66.5939 116.58 L66.5939 98.1314 M65.367 94.0574 L71.2466 94.0574 L71.2466 116.58 L76.1772 116.58 L76.1772 120.469 L71.2466 120.469 L71.2466 128.617 L66.5939 128.617 L66.5939 120.469 L50.9921 120.469 L50.9921 115.955 L65.367 94.0574 Z" fill="#000000" fill-rule="nonzero" fill-opacity="1" /><path clip-path="url(#clip770)" d="M83.9086 122.738 L88.7928 122.738 L88.7928 128.617 L83.9086 128.617 L83.9086 122.738 Z" fill="#000000" fill-rule="nonzero" fill-opacity="1" /><path clip-path="url(#clip770)" d="M108.978 97.1361 Q105.367 97.1361 103.538 100.701 Q101.733 104.242 101.733 111.372 Q101.733 118.479 103.538 122.043 Q105.367 125.585 108.978 125.585 Q112.612 125.585 114.418 122.043 Q116.246 118.479 116.246 111.372 Q116.246 104.242 114.418 100.701 Q112.612 97.1361 108.978 97.1361 M108.978 93.4324 Q114.788 93.4324 117.844 98.0388 Q120.922 102.622 120.922 111.372 Q120.922 120.099 117.844 124.705 Q114.788 129.289 108.978 129.289 Q103.168 129.289 100.089 124.705 Q97.0335 120.099 97.0335 111.372 Q97.0335 102.622 100.089 98.0388 Q103.168 93.4324 108.978 93.4324 Z" fill="#000000" fill-rule="nonzero" fill-opacity="1" /><path clip-path="url(#clip772)" d="M552.432 915.604 L553.746 942.58 L556.373 969.221 L560.306 995.481 L565.54 1021.31 L572.066 1046.67 L579.87 1071.51 L588.941 1095.79 L599.261 1119.46 L610.813 1142.48 L623.577 1164.82 L637.528 1186.43 L652.644 1207.27 L668.897 1227.31 L686.258 1246.51 L704.698 1264.85 L724.182 1282.27 L744.677 1298.77 L766.147 1314.29 L788.554 1328.83 L811.858 1342.35 L836.017 1354.83 L860.99 1366.25 L886.732 1376.58 L913.197 1385.81 L940.339 1393.92 L968.11 1400.9 L996.461 1406.74 L1025.34 1411.42 L1054.7 1414.94 L1084.49 1417.29 L1114.65 1418.46 L1150.24 1418.46 L1191.4 1416.37 L1232.9 1412.18 L1274.59 1405.92 L1316.35 1397.61 L1358.05 1387.26 L1399.56 1374.91 L1440.73 1360.61 L1481.46 1344.4 L1521.59 1326.32 L1561.02 1306.43 L1599.62 1284.81 L1637.26 1261.5 L1673.82 1236.6 L1709.2 1210.18 L1743.27 1182.31 L1775.94 1153.09 L1807.09 1122.62 L1836.63 1090.98 L1864.48 1058.27 L1890.53 1024.61 L1914.71 990.088 L1936.94 954.822 L1957.15 918.92 L1975.28 882.497 L1991.27 845.666 L2005.07 808.544 L2016.64 771.248 L2025.94 733.895 L2032.94 696.603 L2037.62 659.489 L2039.96 622.671 L2039.96 590.836 L2038.65 563.86 L2036.02 537.219 L2032.09 510.959 L2026.85 485.128 L2020.33 459.77 L2012.52 434.931 L2003.45 410.654 L1993.13 386.983 L1981.58 363.959 L1968.82 341.623 L1954.87 320.014 L1939.75 299.17 L1923.5 279.129 L1906.14 259.926 L1887.7 241.594 L1868.21 224.167 L1847.72 207.674 L1826.25 192.146 L1803.84 177.609 L1780.54 164.089 L1756.38 151.61 L1731.4 140.194 L1705.66 129.862 L1679.2 120.631 L1652.06 112.518 L1624.28 105.537 L1595.93 99.7007 L1567.05 95.0192 L1537.69 91.5009 L1507.91 89.1518 L1477.75 87.9763 L1442.16 87.9763 L1400.99 90.072 L1359.5 94.2568 L1317.8 100.517 L1276.04 108.834 L1234.34 119.181 L1192.84 131.526 L1151.66 145.828 L1110.94 162.045 L1070.8 180.123 L1031.37 200.007 L992.776 221.634 L955.137 244.936 L918.572 269.838 L883.197 296.264 L849.124 324.129 L816.458 353.345 L785.304 383.822 L755.76 415.462 L727.918 448.166 L701.866 481.832 L677.686 516.352 L655.455 551.618 L635.243 587.52 L617.113 623.943 L601.122 660.774 L587.32 697.896 L575.752 735.192 L566.454 772.545 L559.454 809.837 L554.775 846.951 L552.432 883.769 L552.432 915.604 L552.432 915.604  Z" fill="#ff0000" fill-rule="evenodd" fill-opacity="1"/>
<polyline clip-path="url(#clip772)" style="stroke:#000000; stroke-linecap:round; stroke-linejoin:round; stroke-width:4; stroke-opacity:1; fill:none" points="552.432,915.604 553.746,942.58 556.373,969.221 560.306,995.481 565.54,1021.31 572.066,1046.67 579.87,1071.51 588.941,1095.79 599.261,1119.46 610.813,1142.48 623.577,1164.82 637.528,1186.43 652.644,1207.27 668.897,1227.31 686.258,1246.51 704.698,1264.85 724.182,1282.27 744.677,1298.77 766.147,1314.29 788.554,1328.83 811.858,1342.35 836.017,1354.83 860.99,1366.25 886.732,1376.58 913.197,1385.81 940.339,1393.92 968.11,1400.9 996.461,1406.74 1025.34,1411.42 1054.7,1414.94 1084.49,1417.29 1114.65,1418.46 1150.24,1418.46 1191.4,1416.37 1232.9,1412.18 1274.59,1405.92 1316.35,1397.61 1358.05,1387.26 1399.56,1374.91 1440.73,1360.61 1481.46,1344.4 1521.59,1326.32 1561.02,1306.43 1599.62,1284.81 1637.26,1261.5 1673.82,1236.6 1709.2,1210.18 1743.27,1182.31 1775.94,1153.09 1807.09,1122.62 1836.63,1090.98 1864.48,1058.27 1890.53,1024.61 1914.71,990.088 1936.94,954.822 1957.15,918.92 1975.28,882.497 1991.27,845.666 2005.07,808.544 2016.64,771.248 2025.94,733.895 2032.94,696.603 2037.62,659.489 2039.96,622.671 2039.96,590.836 2038.65,563.86 2036.02,537.219 2032.09,510.959 2026.85,485.128 2020.33,459.77 2012.52,434.931 2003.45,410.654 1993.13,386.983 1981.58,363.959 1968.82,341.623 1954.87,320.014 1939.75,299.17 1923.5,279.129 1906.14,259.926 1887.7,241.594 1868.21,224.167 1847.72,207.674 1826.25,192.146 1803.84,177.609 1780.54,164.089 1756.38,151.61 1731.4,140.194 1705.66,129.862 1679.2,120.631 1652.06,112.518 1624.28,105.537 1595.93,99.7007 1567.05,95.0192 1537.69,91.5009 1507.91,89.1518 1477.75,87.9763 1442.16,87.9763 1400.99,90.072 1359.5,94.2568 1317.8,100.517 1276.04,108.834 1234.34,119.181 1192.84,131.526 1151.66,145.828 1110.94,162.045 1070.8,180.123 1031.37,200.007 992.776,221.634 955.137,244.936 918.572,269.838 883.197,296.264 849.124,324.129 816.458,353.345 785.304,383.822 755.76,415.462 727.918,448.166 701.866,481.832 677.686,516.352 655.455,551.618 635.243,587.52 617.113,623.943 601.122,660.774 587.32,697.896 575.752,735.192 566.454,772.545 559.454,809.837 554.775,846.951 552.432,883.769 552.432,915.604 "/>
<path clip-path="url(#clip772)" d="M743.793 873.825 L744.77 893.86 L746.72 913.647 L749.642 933.15 L753.529 952.336 L758.375 971.169 L764.172 989.617 L770.909 1007.65 L778.574 1025.23 L787.154 1042.33 L796.633 1058.92 L806.996 1074.97 L818.222 1090.45 L830.293 1105.33 L843.188 1119.6 L856.883 1133.21 L871.354 1146.15 L886.577 1158.4 L902.522 1169.94 L919.164 1180.73 L936.472 1190.78 L954.416 1200.04 L972.963 1208.52 L992.082 1216.2 L1011.74 1223.05 L1031.9 1229.08 L1052.52 1234.26 L1073.58 1238.6 L1095.03 1242.07 L1116.83 1244.69 L1150.03 1247.3 L1187.79 1247.3 L1218.37 1245.75 L1249.18 1242.64 L1280.15 1237.99 L1311.17 1231.81 L1342.14 1224.13 L1372.96 1214.96 L1403.55 1204.34 L1433.79 1192.29 L1463.6 1178.87 L1492.89 1164.1 L1521.55 1148.04 L1549.51 1130.73 L1576.66 1112.23 L1602.94 1092.61 L1628.24 1071.91 L1652.51 1050.21 L1675.64 1027.58 L1697.59 1004.08 L1718.27 979.787 L1737.61 954.784 L1755.57 929.145 L1772.08 902.952 L1787.1 876.288 L1800.56 849.236 L1812.44 821.881 L1822.69 794.31 L1831.28 766.61 L1838.19 738.867 L1843.39 711.17 L1846.86 683.605 L1848.6 656.259 L1848.6 632.615 L1847.62 612.58 L1845.67 592.793 L1842.75 573.29 L1838.87 554.104 L1834.02 535.271 L1828.22 516.823 L1821.49 498.792 L1813.82 481.211 L1805.24 464.111 L1795.76 447.521 L1785.4 431.472 L1774.17 415.991 L1762.1 401.107 L1749.21 386.844 L1735.51 373.229 L1721.04 360.286 L1705.82 348.036 L1689.87 336.503 L1673.23 325.706 L1655.92 315.665 L1637.98 306.397 L1619.43 297.918 L1600.31 290.244 L1580.66 283.388 L1560.5 277.362 L1539.87 272.178 L1518.82 267.843 L1497.37 264.366 L1475.56 261.753 L1442.37 259.135 L1404.6 259.135 L1374.03 260.692 L1343.21 263.8 L1312.24 268.45 L1281.23 274.627 L1250.26 282.311 L1219.43 291.48 L1188.85 302.103 L1158.6 314.147 L1128.79 327.574 L1099.51 342.342 L1070.84 358.404 L1042.89 375.711 L1015.73 394.206 L989.457 413.833 L964.15 434.528 L939.889 456.228 L916.751 478.863 L894.808 502.363 L874.129 526.653 L854.78 551.656 L836.821 577.295 L820.31 603.488 L805.298 630.152 L791.832 657.204 L779.956 684.559 L769.705 712.13 L761.113 739.83 L754.207 767.573 L749.009 795.27 L745.534 822.835 L743.793 850.181 L743.793 873.825 L743.793 873.825  Z" fill="#008000" fill-rule="evenodd" fill-opacity="1"/>
<polyline clip-path="url(#clip772)" style="stroke:#000000; stroke-linecap:round; stroke-linejoin:round; stroke-width:4; stroke-opacity:1; fill:none" points="743.793,873.825 744.77,893.86 746.72,913.647 749.642,933.15 753.529,952.336 758.375,971.169 764.172,989.617 770.909,1007.65 778.574,1025.23 787.154,1042.33 796.633,1058.92 806.996,1074.97 818.222,1090.45 830.293,1105.33 843.188,1119.6 856.883,1133.21 871.354,1146.15 886.577,1158.4 902.522,1169.94 919.164,1180.73 936.472,1190.78 954.416,1200.04 972.963,1208.52 992.082,1216.2 1011.74,1223.05 1031.9,1229.08 1052.52,1234.26 1073.58,1238.6 1095.03,1242.07 1116.83,1244.69 1150.03,1247.3 1187.79,1247.3 1218.37,1245.75 1249.18,1242.64 1280.15,1237.99 1311.17,1231.81 1342.14,1224.13 1372.96,1214.96 1403.55,1204.34 1433.79,1192.29 1463.6,1178.87 1492.89,1164.1 1521.55,1148.04 1549.51,1130.73 1576.66,1112.23 1602.94,1092.61 1628.24,1071.91 1652.51,1050.21 1675.64,1027.58 1697.59,1004.08 1718.27,979.787 1737.61,954.784 1755.57,929.145 1772.08,902.952 1787.1,876.288 1800.56,849.236 1812.44,821.881 1822.69,794.31 1831.28,766.61 1838.19,738.867 1843.39,711.17 1846.86,683.605 1848.6,656.259 1848.6,632.615 1847.62,612.58 1845.67,592.793 1842.75,573.29 1838.87,554.104 1834.02,535.271 1828.22,516.823 1821.49,498.792 1813.82,481.211 1805.24,464.111 1795.76,447.521 1785.4,431.472 1774.17,415.991 1762.1,401.107 1749.21,386.844 1735.51,373.229 1721.04,360.286 1705.82,348.036 1689.87,336.503 1673.23,325.706 1655.92,315.665 1637.98,306.397 1619.43,297.918 1600.31,290.244 1580.66,283.388 1560.5,277.362 1539.87,272.178 1518.82,267.843 1497.37,264.366 1475.56,261.753 1442.37,259.135 1404.6,259.135 1374.03,260.692 1343.21,263.8 1312.24,268.45 1281.23,274.627 1250.26,282.311 1219.43,291.48 1188.85,302.103 1158.6,314.147 1128.79,327.574 1099.51,342.342 1070.84,358.404 1042.89,375.711 1015.73,394.206 989.457,413.833 964.15,434.528 939.889,456.228 916.751,478.863 894.808,502.363 874.129,526.653 854.78,551.656 836.821,577.295 820.31,603.488 805.298,630.152 791.832,657.204 779.956,684.559 769.705,712.13 761.113,739.83 754.207,767.573 749.009,795.27 745.534,822.835 743.793,850.181 743.793,873.825 "/>
<path clip-path="url(#clip772)" d="M469.716 1248.15 L472.233 1267.84 L477.241 1287.42 L484.683 1306.67 L494.479 1325.39 L506.522 1343.37 L520.681 1360.41 L536.8 1376.32 L554.704 1390.94 L574.196 1404.1 L595.065 1415.66 L617.082 1425.5 L640.006 1433.5 L663.587 1439.57 L687.568 1443.66 L711.687 1445.72 L734.211 1445.72 L754.98 1444.13 L775.288 1440.98 L794.963 1436.28 L813.841 1430.07 L831.761 1422.42 L848.573 1413.38 L864.136 1403.02 L878.319 1391.44 L891.002 1378.73 L902.078 1365.01 L911.454 1350.37 L919.052 1334.96 L924.807 1318.9 L928.67 1302.31 L930.61 1285.36 L930.61 1266.97 L928.093 1247.27 L923.086 1227.69 L915.643 1208.44 L905.847 1189.72 L893.804 1171.74 L879.646 1154.7 L863.526 1138.79 L845.623 1124.17 L826.13 1111.01 L805.262 1099.45 L783.245 1089.62 L760.321 1081.62 L736.739 1075.54 L712.758 1071.45 L688.64 1069.4 L666.115 1069.4 L645.346 1070.98 L625.038 1074.14 L605.363 1078.83 L586.486 1085.04 L568.566 1092.69 L551.753 1101.74 L536.19 1112.09 L522.008 1123.67 L509.325 1136.38 L498.249 1150.11 L488.872 1164.74 L481.275 1180.15 L475.52 1196.22 L471.656 1212.8 L469.716 1229.76 L469.716 1248.15 L469.716 1248.15  Z" fill="#0000ff" fill-rule="evenodd" fill-opacity="1"/>
<polyline clip-path="url(#clip772)" style="stroke:#000000; stroke-linecap:round; stroke-linejoin:round; stroke-width:4; stroke-opacity:1; fill:none" points="469.716,1248.15 472.233,1267.84 477.241,1287.42 484.683,1306.67 494.479,1325.39 506.522,1343.37 520.681,1360.41 536.8,1376.32 554.704,1390.94 574.196,1404.1 595.065,1415.66 617.082,1425.5 640.006,1433.5 663.587,1439.57 687.568,1443.66 711.687,1445.72 734.211,1445.72 754.98,1444.13 775.288,1440.98 794.963,1436.28 813.841,1430.07 831.761,1422.42 848.573,1413.38 864.136,1403.02 878.319,1391.44 891.002,1378.73 902.078,1365.01 911.454,1350.37 919.052,1334.96 924.807,1318.9 928.67,1302.31 930.61,1285.36 930.61,1266.97 928.093,1247.27 923.086,1227.69 915.643,1208.44 905.847,1189.72 893.804,1171.74 879.646,1154.7 863.526,1138.79 845.623,1124.17 826.13,1111.01 805.262,1099.45 783.245,1089.62 760.321,1081.62 736.739,1075.54 712.758,1071.45 688.64,1069.4 666.115,1069.4 645.346,1070.98 625.038,1074.14 605.363,1078.83 586.486,1085.04 568.566,1092.69 551.753,1101.74 536.19,1112.09 522.008,1123.67 509.325,1136.38 498.249,1150.11 488.872,1164.74 481.275,1180.15 475.52,1196.22 471.656,1212.8 469.716,1229.76 469.716,1248.15 "/>
</svg>
