<?xml version="1.0" encoding="utf-8"?>
<svg xmlns="http://www.w3.org/2000/svg" xmlns:xlink="http://www.w3.org/1999/xlink" width="600" height="400" viewBox="0 0 2400 1600">
<defs>
  <clipPath id="clip730">
    <rect x="0" y="0" width="2400" height="1600"/>
  </clipPath>
</defs>
<path clip-path="url(#clip730)" d="M0 1600 L2400 1600 L2400 0 L0 0  Z" fill="#ffffff" fill-rule="evenodd" fill-opacity="1"/>
<defs>
  <clipPath id="clip731">
    <rect x="480" y="0" width="1681" height="1600"/>
  </clipPath>
</defs>
<path clip-path="url(#clip730)" d="M147.478 1486.45 L2352.76 1486.45 L2352.76 47.2441 L147.478 47.2441  Z" fill="#ffffff" fill-rule="evenodd" fill-opacity="1"/>
<defs>
  <clipPath id="clip732">
    <rect x="147" y="47" width="2206" height="1440"/>
  </clipPath>
</defs>
<polyline clip-path="url(#clip732)" style="stroke:#000000; stroke-linecap:round; stroke-linejoin:round; stroke-width:2; stroke-opacity:0.1; fill:none" points="178.217,1486.45 178.217,47.2441 "/>
<polyline clip-path="url(#clip732)" style="stroke:#000000; stroke-linecap:round; stroke-linejoin:round; stroke-width:2; stroke-opacity:0.1; fill:none" points="535.517,1486.45 535.517,47.2441 "/>
<polyline clip-path="url(#clip732)" style="stroke:#000000; stroke-linecap:round; stroke-linejoin:round; stroke-width:2; stroke-opacity:0.1; fill:none" points="892.817,1486.45 892.817,47.2441 "/>
<polyline clip-path="url(#clip732)" style="stroke:#000000; stroke-linecap:round; stroke-linejoin:round; stroke-width:2; stroke-opacity:0.1; fill:none" points="1250.12,1486.45 1250.12,47.2441 "/>
<polyline clip-path="url(#clip732)" style="stroke:#000000; stroke-linecap:round; stroke-linejoin:round; stroke-width:2; stroke-opacity:0.1; fill:none" points="1607.42,1486.45 1607.42,47.2441 "/>
<polyline clip-path="url(#clip732)" style="stroke:#000000; stroke-linecap:round; stroke-linejoin:round; stroke-width:2; stroke-opacity:0.1; fill:none" points="1964.72,1486.45 1964.72,47.2441 "/>
<polyline clip-path="url(#clip732)" style="stroke:#000000; stroke-linecap:round; stroke-linejoin:round; stroke-width:2; stroke-opacity:0.1; fill:none" points="2322.02,1486.45 2322.02,47.2441 "/>
<polyline clip-path="url(#clip732)" style="stroke:#000000; stroke-linecap:round; stroke-linejoin:round; stroke-width:2; stroke-opacity:0.1; fill:none" points="147.478,1481.45 2352.76,1481.45 "/>
<polyline clip-path="url(#clip732)" style="stroke:#000000; stroke-linecap:round; stroke-linejoin:round; stroke-width:2; stroke-opacity:0.1; fill:none" points="147.478,1124.15 2352.76,1124.15 "/>
<polyline clip-path="url(#clip732)" style="stroke:#000000; stroke-linecap:round; stroke-linejoin:round; stroke-width:2; stroke-opacity:0.1; fill:none" points="147.478,766.846 2352.76,766.846 "/>
<polyline clip-path="url(#clip732)" style="stroke:#000000; stroke-linecap:round; stroke-linejoin:round; stroke-width:2; stroke-opacity:0.1; fill:none" points="147.478,409.546 2352.76,409.546 "/>
<polyline clip-path="url(#clip732)" style="stroke:#000000; stroke-linecap:round; stroke-linejoin:round; stroke-width:2; stroke-opacity:0.1; fill:none" points="147.478,52.2463 2352.76,52.2463 "/>
<polyline clip-path="url(#clip730)" style="stroke:#000000; stroke-linecap:round; stroke-linejoin:round; stroke-width:4; stroke-opacity:1; fill:none" points="147.478,1486.45 2352.76,1486.45 "/>
<polyline clip-path="url(#clip730)" style="stroke:#000000; stroke-linecap:round; stroke-linejoin:round; stroke-width:4; stroke-opacity:1; fill:none" points="178.217,1486.45 178.217,1467.55 "/>
<polyline clip-path="url(#clip730)" style="stroke:#000000; stroke-linecap:round; stroke-linejoin:round; stroke-width:4; stroke-opacity:1; fill:none" points="535.517,1486.45 535.517,1467.55 "/>
<polyline clip-path="url(#clip730)" style="stroke:#000000; stroke-linecap:round; stroke-linejoin:round; stroke-width:4; stroke-opacity:1; fill:none" points="892.817,1486.45 892.817,1467.55 "/>
<polyline clip-path="url(#clip730)" style="stroke:#000000; stroke-linecap:round; stroke-linejoin:round; stroke-width:4; stroke-opacity:1; fill:none" points="1250.12,1486.45 1250.12,1467.55 "/>
<polyline clip-path="url(#clip730)" style="stroke:#000000; stroke-linecap:round; stroke-linejoin:round; stroke-width:4; stroke-opacity:1; fill:none" points="1607.42,1486.45 1607.42,1467.55 "/>
<polyline clip-path="url(#clip730)" style="stroke:#000000; stroke-linecap:round; stroke-linejoin:round; stroke-width:4; stroke-opacity:1; fill:none" points="1964.72,1486.45 1964.72,1467.55 "/>
<polyline clip-path="url(#clip730)" style="stroke:#000000; stroke-linecap:round; stroke-linejoin:round; stroke-width:4; stroke-opacity:1; fill:none" points="2322.02,1486.45 2322.02,1467.55 "/>
<path clip-path="url(#clip730)" d="M147.685 1532.02 L177.361 1532.02 L177.361 1535.95 L147.685 1535.95 L147.685 1532.02 Z" fill="#000000" fill-rule="nonzero" fill-opacity="1" /><path clip-path="url(#clip730)" d="M201.62 1530.21 Q204.976 1530.93 206.851 1533.2 Q208.75 1535.47 208.75 1538.8 Q208.75 1543.92 205.231 1546.72 Q201.713 1549.52 195.231 1549.52 Q193.055 1549.52 190.74 1549.08 Q188.449 1548.66 185.995 1547.81 L185.995 1543.29 Q187.94 1544.43 190.254 1545.01 Q192.569 1545.58 195.092 1545.58 Q199.49 1545.58 201.782 1543.85 Q204.097 1542.11 204.097 1538.8 Q204.097 1535.75 201.944 1534.03 Q199.814 1532.3 195.995 1532.3 L191.967 1532.3 L191.967 1528.45 L196.18 1528.45 Q199.629 1528.45 201.458 1527.09 Q203.287 1525.7 203.287 1523.11 Q203.287 1520.45 201.389 1519.03 Q199.514 1517.6 195.995 1517.6 Q194.074 1517.6 191.875 1518.01 Q189.676 1518.43 187.037 1519.31 L187.037 1515.14 Q189.699 1514.4 192.014 1514.03 Q194.352 1513.66 196.412 1513.66 Q201.736 1513.66 204.838 1516.09 Q207.939 1518.5 207.939 1522.62 Q207.939 1525.49 206.296 1527.48 Q204.652 1529.45 201.62 1530.21 Z" fill="#000000" fill-rule="nonzero" fill-opacity="1" /><path clip-path="url(#clip730)" d="M505.46 1532.02 L535.135 1532.02 L535.135 1535.95 L505.46 1535.95 L505.46 1532.02 Z" fill="#000000" fill-rule="nonzero" fill-opacity="1" /><path clip-path="url(#clip730)" d="M549.256 1544.91 L565.575 1544.91 L565.575 1548.85 L543.631 1548.85 L543.631 1544.91 Q546.293 1542.16 550.876 1537.53 Q555.482 1532.88 556.663 1531.53 Q558.908 1529.01 559.788 1527.27 Q560.691 1525.51 560.691 1523.82 Q560.691 1521.07 558.746 1519.33 Q556.825 1517.6 553.723 1517.6 Q551.524 1517.6 549.07 1518.36 Q546.64 1519.13 543.862 1520.68 L543.862 1515.95 Q546.686 1514.82 549.14 1514.24 Q551.594 1513.66 553.631 1513.66 Q559.001 1513.66 562.195 1516.35 Q565.39 1519.03 565.39 1523.52 Q565.39 1525.65 564.58 1527.57 Q563.793 1529.47 561.686 1532.07 Q561.107 1532.74 558.006 1535.95 Q554.904 1539.15 549.256 1544.91 Z" fill="#000000" fill-rule="nonzero" fill-opacity="1" /><path clip-path="url(#clip730)" d="M862.574 1532.02 L892.25 1532.02 L892.25 1535.95 L862.574 1535.95 L862.574 1532.02 Z" fill="#000000" fill-rule="nonzero" fill-opacity="1" /><path clip-path="url(#clip730)" d="M903.153 1544.91 L910.792 1544.91 L910.792 1518.55 L902.481 1520.21 L902.481 1515.95 L910.745 1514.29 L915.421 1514.29 L915.421 1544.91 L923.06 1544.91 L923.06 1548.85 L903.153 1548.85 L903.153 1544.91 Z" fill="#000000" fill-rule="nonzero" fill-opacity="1" /><path clip-path="url(#clip730)" d="M1250.12 1517.37 Q1246.51 1517.37 1244.68 1520.93 Q1242.87 1524.47 1242.87 1531.6 Q1242.87 1538.71 1244.68 1542.27 Q1246.51 1545.82 1250.12 1545.82 Q1253.75 1545.82 1255.56 1542.27 Q1257.39 1538.71 1257.39 1531.6 Q1257.39 1524.47 1255.56 1520.93 Q1253.75 1517.37 1250.12 1517.37 M1250.12 1513.66 Q1255.93 1513.66 1258.98 1518.27 Q1262.06 1522.85 1262.06 1531.6 Q1262.06 1540.33 1258.98 1544.94 Q1255.93 1549.52 1250.12 1549.52 Q1244.31 1549.52 1241.23 1544.94 Q1238.17 1540.33 1238.17 1531.6 Q1238.17 1522.85 1241.23 1518.27 Q1244.31 1513.66 1250.12 1513.66 Z" fill="#000000" fill-rule="nonzero" fill-opacity="1" /><path clip-path="url(#clip730)" d="M1597.8 1544.91 L1605.44 1544.91 L1605.44 1518.55 L1597.13 1520.21 L1597.13 1515.95 L1605.39 1514.29 L1610.07 1514.29 L1610.07 1544.91 L1617.71 1544.91 L1617.71 1548.85 L1597.8 1548.85 L1597.8 1544.91 Z" fill="#000000" fill-rule="nonzero" fill-opacity="1" /><path clip-path="url(#clip730)" d="M1959.37 1544.91 L1975.69 1544.91 L1975.69 1548.85 L1953.74 1548.85 L1953.74 1544.91 Q1956.41 1542.16 1960.99 1537.53 Q1965.6 1532.88 1966.78 1531.53 Q1969.02 1529.01 1969.9 1527.27 Q1970.8 1525.51 1970.8 1523.82 Q1970.8 1521.07 1968.86 1519.33 Q1966.94 1517.6 1963.84 1517.6 Q1961.64 1517.6 1959.18 1518.36 Q1956.75 1519.13 1953.98 1520.68 L1953.98 1515.95 Q1956.8 1514.82 1959.25 1514.24 Q1961.71 1513.66 1963.74 1513.66 Q1969.11 1513.66 1972.31 1516.35 Q1975.5 1519.03 1975.5 1523.52 Q1975.5 1525.65 1974.69 1527.57 Q1973.91 1529.47 1971.8 1532.07 Q1971.22 1532.74 1968.12 1535.95 Q1965.02 1539.15 1959.37 1544.91 Z" fill="#000000" fill-rule="nonzero" fill-opacity="1" /><path clip-path="url(#clip730)" d="M2326.26 1530.21 Q2329.62 1530.93 2331.5 1533.2 Q2333.39 1535.47 2333.39 1538.8 Q2333.39 1543.92 2329.88 1546.72 Q2326.36 1549.52 2319.88 1549.52 Q2317.7 1549.52 2315.38 1549.08 Q2313.09 1548.66 2310.64 1547.81 L2310.64 1543.29 Q2312.58 1544.43 2314.9 1545.01 Q2317.21 1545.58 2319.74 1545.58 Q2324.13 1545.58 2326.43 1543.85 Q2328.74 1542.11 2328.74 1538.8 Q2328.74 1535.75 2326.59 1534.03 Q2324.46 1532.3 2320.64 1532.3 L2316.61 1532.3 L2316.61 1528.45 L2320.82 1528.45 Q2324.27 1528.45 2326.1 1527.09 Q2327.93 1525.7 2327.93 1523.11 Q2327.93 1520.45 2326.03 1519.03 Q2324.16 1517.6 2320.64 1517.6 Q2318.72 1517.6 2316.52 1518.01 Q2314.32 1518.43 2311.68 1519.31 L2311.68 1515.14 Q2314.34 1514.4 2316.66 1514.03 Q2319 1513.66 2321.06 1513.66 Q2326.38 1513.66 2329.48 1516.09 Q2332.58 1518.5 2332.58 1522.62 Q2332.58 1525.49 2330.94 1527.48 Q2329.3 1529.45 2326.26 1530.21 Z" fill="#000000" fill-rule="nonzero" fill-opacity="1" /><polyline clip-path="url(#clip730)" style="stroke:#000000; stroke-linecap:round; stroke-linejoin:round; stroke-width:4; stroke-opacity:1; fill:none" points="147.478,1486.45 147.478,47.2441 "/>
<polyline clip-path="url(#clip730)" style="stroke:#000000; stroke-linecap:round; stroke-linejoin:round; stroke-width:4; stroke-opacity:1; fill:none" points="147.478,1481.45 166.376,1481.45 "/>
<polyline clip-path="url(#clip730)" style="stroke:#000000; stroke-linecap:round; stroke-linejoin:round; stroke-width:4; stroke-opacity:1; fill:none" points="147.478,1124.15 166.376,1124.15 "/>
<polyline clip-path="url(#clip730)" style="stroke:#000000; stroke-linecap:round; stroke-linejoin:round; stroke-width:4; stroke-opacity:1; fill:none" points="147.478,766.846 166.376,766.846 "/>
<polyline clip-path="url(#clip730)" style="stroke:#000000; stroke-linecap:round; stroke-linejoin:round; stroke-width:4; stroke-opacity:1; fill:none" points="147.478,409.546 166.376,409.546 "/>
<polyline clip-path="url(#clip730)" style="stroke:#000000; stroke-linecap:round; stroke-linejoin:round; stroke-width:4; stroke-opacity:1; fill:none" points="147.478,52.2463 166.376,52.2463 "/>
<path clip-path="url(#clip730)" d="M51.3625 1481.9 L81.0383 1481.9 L81.0383 1485.83 L51.3625 1485.83 L51.3625 1481.9 Z" fill="#000000" fill-rule="nonzero" fill-opacity="1" /><path clip-path="url(#clip730)" d="M95.1586 1494.79 L111.478 1494.79 L111.478 1498.73 L89.5336 1498.73 L89.5336 1494.79 Q92.1956 1492.04 96.7789 1487.41 Q101.385 1482.75 102.566 1481.41 Q104.811 1478.89 105.691 1477.15 Q106.594 1475.39 106.594 1473.7 Q106.594 1470.95 104.649 1469.21 Q102.728 1467.48 99.6261 1467.48 Q97.4271 1467.48 94.9734 1468.24 Q92.5428 1469 89.7651 1470.55 L89.7651 1465.83 Q92.5891 1464.7 95.0428 1464.12 Q97.4965 1463.54 99.5335 1463.54 Q104.904 1463.54 108.098 1466.23 Q111.293 1468.91 111.293 1473.4 Q111.293 1475.53 110.483 1477.45 Q109.696 1479.35 107.589 1481.94 Q107.01 1482.61 103.909 1485.83 Q100.807 1489.03 95.1586 1494.79 Z" fill="#000000" fill-rule="nonzero" fill-opacity="1" /><path clip-path="url(#clip730)" d="M50.9921 1124.6 L80.6679 1124.6 L80.6679 1128.53 L50.9921 1128.53 L50.9921 1124.6 Z" fill="#000000" fill-rule="nonzero" fill-opacity="1" /><path clip-path="url(#clip730)" d="M91.5706 1137.49 L99.2095 1137.49 L99.2095 1111.13 L90.8993 1112.79 L90.8993 1108.53 L99.1632 1106.87 L103.839 1106.87 L103.839 1137.49 L111.478 1137.49 L111.478 1141.43 L91.5706 1141.43 L91.5706 1137.49 Z" fill="#000000" fill-rule="nonzero" fill-opacity="1" /><path clip-path="url(#clip730)" d="M99.5335 752.645 Q95.9224 752.645 94.0937 756.209 Q92.2882 759.751 92.2882 766.881 Q92.2882 773.987 94.0937 777.552 Q95.9224 781.094 99.5335 781.094 Q103.168 781.094 104.973 777.552 Q106.802 773.987 106.802 766.881 Q106.802 759.751 104.973 756.209 Q103.168 752.645 99.5335 752.645 M99.5335 748.941 Q105.344 748.941 108.399 753.547 Q111.478 758.131 111.478 766.881 Q111.478 775.608 108.399 780.214 Q105.344 784.797 99.5335 784.797 Q93.7234 784.797 90.6447 780.214 Q87.5892 775.608 87.5892 766.881 Q87.5892 758.131 90.6447 753.547 Q93.7234 748.941 99.5335 748.941 Z" fill="#000000" fill-rule="nonzero" fill-opacity="1" /><path clip-path="url(#clip730)" d="M91.5706 422.891 L99.2095 422.891 L99.2095 396.525 L90.8993 398.192 L90.8993 393.933 L99.1632 392.266 L103.839 392.266 L103.839 422.891 L111.478 422.891 L111.478 426.826 L91.5706 426.826 L91.5706 422.891 Z" fill="#000000" fill-rule="nonzero" fill-opacity="1" /><path clip-path="url(#clip730)" d="M95.1586 65.5911 L111.478 65.5911 L111.478 69.5263 L89.5336 69.5263 L89.5336 65.5911 Q92.1956 62.8365 96.7789 58.2069 Q101.385 53.5542 102.566 52.2116 Q104.811 49.6884 105.691 47.9523 Q106.594 46.1931 106.594 44.5033 Q106.594 41.7487 104.649 40.0126 Q102.728 38.2765 99.6261 38.2765 Q97.4271 38.2765 94.9734 39.0403 Q92.5428 39.8042 89.7651 41.3551 L89.7651 36.633 Q92.5891 35.4987 95.0428 34.92 Q97.4965 34.3413 99.5335 34.3413 Q104.904 34.3413 108.098 37.0265 Q111.293 39.7116 111.293 44.2024 Q111.293 46.332 110.483 48.2533 Q109.696 50.1514 107.589 52.744 Q107.01 53.4153 103.909 56.6328 Q100.807 59.8273 95.1586 65.5911 Z" fill="#000000" fill-rule="nonzero" fill-opacity="1" /><path clip-path="url(#clip732)" d="M571.247 1445.72 L1928.99 1445.72 L1928.99 87.9763 L571.247 87.9763 L571.247 1445.72 L571.247 1445.72  Z" fill="#009af9" fill-rule="evenodd" fill-opacity="1"/>
<polyline clip-path="url(#clip732)" style="stroke:#000000; stroke-linecap:round; stroke-linejoin:round; stroke-width:4; stroke-opacity:1; fill:none" points="571.247,1445.72 1928.99,1445.72 1928.99,87.9763 571.247,87.9763 571.247,1445.72 "/>
<path clip-path="url(#clip732)" d="M571.247 1374.26 L1857.53 1374.26 L1857.53 87.9763 L571.247 87.9763 L571.247 1374.26 L571.247 1374.26  Z" fill="#e26f46" fill-rule="evenodd" fill-opacity="1"/>
<polyline clip-path="url(#clip732)" style="stroke:#000000; stroke-linecap:round; stroke-linejoin:round; stroke-width:4; stroke-opacity:1; fill:none" points="571.247,1374.26 1857.53,1374.26 1857.53,87.9763 571.247,87.9763 571.247,1374.26 "/>
<path clip-path="url(#clip732)" d="M571.247 1302.8 L1786.07 1302.8 L1786.07 87.9763 L571.247 87.9763 L571.247 1302.8 L571.247 1302.8  Z" fill="#3da44d" fill-rule="evenodd" fill-opacity="1"/>
<polyline clip-path="url(#clip732)" style="stroke:#000000; stroke-linecap:round; stroke-linejoin:round; stroke-width:4; stroke-opacity:1; fill:none" points="571.247,1302.8 1786.07,1302.8 1786.07,87.9763 571.247,87.9763 571.247,1302.8 "/>
<path clip-path="url(#clip732)" d="M571.247 1231.34 L1714.61 1231.34 L1714.61 87.9763 L571.247 87.9763 L571.247 1231.34 L571.247 1231.34  Z" fill="#c271d2" fill-rule="evenodd" fill-opacity="1"/>
<polyline clip-path="url(#clip732)" style="stroke:#000000; stroke-linecap:round; stroke-linejoin:round; stroke-width:4; stroke-opacity:1; fill:none" points="571.247,1231.34 1714.61,1231.34 1714.61,87.9763 571.247,87.9763 571.247,1231.34 "/>
<path clip-path="url(#clip732)" d="M571.247 1159.88 L1643.15 1159.88 L1643.15 87.9763 L571.247 87.9763 L571.247 1159.88 L571.247 1159.88  Z" fill="#ac8d18" fill-rule="evenodd" fill-opacity="1"/>
<polyline clip-path="url(#clip732)" style="stroke:#000000; stroke-linecap:round; stroke-linejoin:round; stroke-width:4; stroke-opacity:1; fill:none" points="571.247,1159.88 1643.15,1159.88 1643.15,87.9763 571.247,87.9763 571.247,1159.88 "/>
<path clip-path="url(#clip732)" d="M571.247 1088.42 L1571.69 1088.42 L1571.69 87.9763 L571.247 87.9763 L571.247 1088.42 L571.247 1088.42  Z" fill="#00a9ad" fill-rule="evenodd" fill-opacity="1"/>
<polyline clip-path="url(#clip732)" style="stroke:#000000; stroke-linecap:round; stroke-linejoin:round; stroke-width:4; stroke-opacity:1; fill:none" points="571.247,1088.42 1571.69,1088.42 1571.69,87.9763 571.247,87.9763 571.247,1088.42 "/>
<path clip-path="url(#clip732)" d="M571.247 1016.96 L1500.23 1016.96 L1500.23 87.9763 L571.247 87.9763 L571.247 1016.96 L571.247 1016.96  Z" fill="#ed5d92" fill-rule="evenodd" fill-opacity="1"/>
<polyline clip-path="url(#clip732)" style="stroke:#000000; stroke-linecap:round; stroke-linejoin:round; stroke-width:4; stroke-opacity:1; fill:none" points="571.247,1016.96 1500.23,1016.96 1500.23,87.9763 571.247,87.9763 571.247,1016.96 "/>
<path clip-path="url(#clip732)" d="M571.247 945.496 L1428.77 945.496 L1428.77 87.9763 L571.247 87.9763 L571.247 945.496 L571.247 945.496  Z" fill="#c68125" fill-rule="evenodd" fill-opacity="1"/>
<polyline clip-path="url(#clip732)" style="stroke:#000000; stroke-linecap:round; stroke-linejoin:round; stroke-width:4; stroke-opacity:1; fill:none" points="571.247,945.496 1428.77,945.496 1428.77,87.9763 571.247,87.9763 571.247,945.496 "/>
<path clip-path="url(#clip732)" d="M571.247 874.036 L1357.31 874.036 L1357.31 87.9763 L571.247 87.9763 L571.247 874.036 L571.247 874.036  Z" fill="#00a98d" fill-rule="evenodd" fill-opacity="1"/>
<polyline clip-path="url(#clip732)" style="stroke:#000000; stroke-linecap:round; stroke-linejoin:round; stroke-width:4; stroke-opacity:1; fill:none" points="571.247,874.036 1357.31,874.036 1357.31,87.9763 571.247,87.9763 571.247,874.036 "/>
<path clip-path="url(#clip732)" d="M571.247 802.576 L1285.85 802.576 L1285.85 87.9763 L571.247 87.9763 L571.247 802.576 L571.247 802.576  Z" fill="#8e971d" fill-rule="evenodd" fill-opacity="1"/>
<polyline clip-path="url(#clip732)" style="stroke:#000000; stroke-linecap:round; stroke-linejoin:round; stroke-width:4; stroke-opacity:1; fill:none" points="571.247,802.576 1285.85,802.576 1285.85,87.9763 571.247,87.9763 571.247,802.576 "/>
<path clip-path="url(#clip732)" d="M571.247 731.116 L1214.39 731.116 L1214.39 87.9763 L571.247 87.9763 L571.247 731.116 L571.247 731.116  Z" fill="#00a8cb" fill-rule="evenodd" fill-opacity="1"/>
<polyline clip-path="url(#clip732)" style="stroke:#000000; stroke-linecap:round; stroke-linejoin:round; stroke-width:4; stroke-opacity:1; fill:none" points="571.247,731.116 1214.39,731.116 1214.39,87.9763 571.247,87.9763 571.247,731.116 "/>
<path clip-path="url(#clip732)" d="M571.247 659.656 L1142.93 659.656 L1142.93 87.9763 L571.247 87.9763 L571.247 659.656 L571.247 659.656  Z" fill="#9b7fe8" fill-rule="evenodd" fill-opacity="1"/>
<polyline clip-path="url(#clip732)" style="stroke:#000000; stroke-linecap:round; stroke-linejoin:round; stroke-width:4; stroke-opacity:1; fill:none" points="571.247,659.656 1142.93,659.656 1142.93,87.9763 571.247,87.9763 571.247,659.656 "/>
<path clip-path="url(#clip732)" d="M571.247 588.196 L1071.47 588.196 L1071.47 87.9763 L571.247 87.9763 L571.247 588.196 L571.247 588.196  Z" fill="#608cf6" fill-rule="evenodd" fill-opacity="1"/>
<polyline clip-path="url(#clip732)" style="stroke:#000000; stroke-linecap:round; stroke-linejoin:round; stroke-width:4; stroke-opacity:1; fill:none" points="571.247,588.196 1071.47,588.196 1071.47,87.9763 571.247,87.9763 571.247,588.196 "/>
<path clip-path="url(#clip732)" d="M571.247 516.736 L1000.01 516.736 L1000.01 87.9763 L571.247 87.9763 L571.247 516.736 L571.247 516.736  Z" fill="#f05f73" fill-rule="evenodd" fill-opacity="1"/>
<polyline clip-path="url(#clip732)" style="stroke:#000000; stroke-linecap:round; stroke-linejoin:round; stroke-width:4; stroke-opacity:1; fill:none" points="571.247,516.736 1000.01,516.736 1000.01,87.9763 571.247,87.9763 571.247,516.736 "/>
<path clip-path="url(#clip732)" d="M571.247 445.276 L928.547 445.276 L928.547 87.9763 L571.247 87.9763 L571.247 445.276 L571.247 445.276  Z" fill="#dd64b5" fill-rule="evenodd" fill-opacity="1"/>
<polyline clip-path="url(#clip732)" style="stroke:#000000; stroke-linecap:round; stroke-linejoin:round; stroke-width:4; stroke-opacity:1; fill:none" points="571.247,445.276 928.547,445.276 928.547,87.9763 571.247,87.9763 571.247,445.276 "/>
<path clip-path="url(#clip732)" d="M571.247 373.816 L857.087 373.816 L857.087 87.9763 L571.247 87.9763 L571.247 373.816 L571.247 373.816  Z" fill="#6b9e32" fill-rule="evenodd" fill-opacity="1"/>
<polyline clip-path="url(#clip732)" style="stroke:#000000; stroke-linecap:round; stroke-linejoin:round; stroke-width:4; stroke-opacity:1; fill:none" points="571.247,373.816 857.087,373.816 857.087,87.9763 571.247,87.9763 571.247,373.816 "/>
<path clip-path="url(#clip732)" d="M571.247 302.356 L785.627 302.356 L785.627 87.9763 L571.247 87.9763 L571.247 302.356 L571.247 302.356  Z" fill="#009af9" fill-rule="evenodd" fill-opacity="1"/>
<polyline clip-path="url(#clip732)" style="stroke:#000000; stroke-linecap:round; stroke-linejoin:round; stroke-width:4; stroke-opacity:1; fill:none" points="571.247,302.356 785.627,302.356 785.627,87.9763 571.247,87.9763 571.247,302.356 "/>
<path clip-path="url(#clip732)" d="M571.247 230.896 L714.167 230.896 L714.167 87.9763 L571.247 87.9763 L571.247 230.896 L571.247 230.896  Z" fill="#e26f46" fill-rule="evenodd" fill-opacity="1"/>
<polyline clip-path="url(#clip732)" style="stroke:#000000; stroke-linecap:round; stroke-linejoin:round; stroke-width:4; stroke-opacity:1; fill:none" points="571.247,230.896 714.167,230.896 714.167,87.9763 571.247,87.9763 571.247,230.896 "/>
<path clip-path="url(#clip732)" d="M571.247 159.436 L642.707 159.436 L642.707 87.9763 L571.247 87.9763 L571.247 159.436 L571.247 159.436  Z" fill="#3da44d" fill-rule="evenodd" fill-opacity="1"/>
<polyline clip-path="url(#clip732)" style="stroke:#000000; stroke-linecap:round; stroke-linejoin:round; stroke-width:4; stroke-opacity:1; fill:none" points="571.247,159.436 642.707,159.436 642.707,87.9763 571.247,87.9763 571.247,159.436 "/>
</svg>
