<?xml version="1.0" encoding="utf-8"?>
<svg xmlns="http://www.w3.org/2000/svg" xmlns:xlink="http://www.w3.org/1999/xlink" width="600" height="400" viewBox="0 0 2400 1600">
<defs>
  <clipPath id="clip330">
    <rect x="0" y="0" width="2400" height="1600"/>
  </clipPath>
</defs>
<path clip-path="url(#clip330)" d="M0 1600 L2400 1600 L2400 0 L0 0  Z" fill="#ffffff" fill-rule="evenodd" fill-opacity="1"/>
<defs>
  <clipPath id="clip331">
    <rect x="140" y="47" width="2213" height="1440"/>
  </clipPath>
</defs>
<path clip-path="url(#clip330)" d="M140.696 1486.45 L2352.76 1486.45 L2352.76 47.2441 L140.696 47.2441  Z" fill="#ffffff" fill-rule="evenodd" fill-opacity="1"/>
<polyline clip-path="url(#clip331)" style="stroke:#000000; stroke-linecap:round; stroke-linejoin:round; stroke-width:2; stroke-opacity:0.1; fill:none" points="567.856,1486.45 567.856,47.2441 "/>
<polyline clip-path="url(#clip331)" style="stroke:#000000; stroke-linecap:round; stroke-linejoin:round; stroke-width:2; stroke-opacity:0.1; fill:none" points="1020.44,1486.45 1020.44,47.2441 "/>
<polyline clip-path="url(#clip331)" style="stroke:#000000; stroke-linecap:round; stroke-linejoin:round; stroke-width:2; stroke-opacity:0.1; fill:none" points="1473.02,1486.45 1473.02,47.2441 "/>
<polyline clip-path="url(#clip331)" style="stroke:#000000; stroke-linecap:round; stroke-linejoin:round; stroke-width:2; stroke-opacity:0.1; fill:none" points="1925.6,1486.45 1925.6,47.2441 "/>
<polyline clip-path="url(#clip331)" style="stroke:#000000; stroke-linecap:round; stroke-linejoin:round; stroke-width:2; stroke-opacity:0.1; fill:none" points="140.696,1445.72 2352.76,1445.72 "/>
<polyline clip-path="url(#clip331)" style="stroke:#000000; stroke-linecap:round; stroke-linejoin:round; stroke-width:2; stroke-opacity:0.1; fill:none" points="140.696,993.136 2352.76,993.136 "/>
<polyline clip-path="url(#clip331)" style="stroke:#000000; stroke-linecap:round; stroke-linejoin:round; stroke-width:2; stroke-opacity:0.1; fill:none" points="140.696,540.556 2352.76,540.556 "/>
<polyline clip-path="url(#clip331)" style="stroke:#000000; stroke-linecap:round; stroke-linejoin:round; stroke-width:2; stroke-opacity:0.1; fill:none" points="140.696,87.9763 2352.76,87.9763 "/>
<polyline clip-path="url(#clip330)" style="stroke:#000000; stroke-linecap:round; stroke-linejoin:round; stroke-width:4; stroke-opacity:1; fill:none" points="140.696,1486.45 2352.76,1486.45 "/>
<polyline clip-path="url(#clip330)" style="stroke:#000000; stroke-linecap:round; stroke-linejoin:round; stroke-width:4; stroke-opacity:1; fill:none" points="567.856,1486.45 567.856,1467.55 "/>
<polyline clip-path="url(#clip330)" style="stroke:#000000; stroke-linecap:round; stroke-linejoin:round; stroke-width:4; stroke-opacity:1; fill:none" points="1020.44,1486.45 1020.44,1467.55 "/>
<polyline clip-path="url(#clip330)" style="stroke:#000000; stroke-linecap:round; stroke-linejoin:round; stroke-width:4; stroke-opacity:1; fill:none" points="1473.02,1486.45 1473.02,1467.55 "/>
<polyline clip-path="url(#clip330)" style="stroke:#000000; stroke-linecap:round; stroke-linejoin:round; stroke-width:4; stroke-opacity:1; fill:none" points="1925.6,1486.45 1925.6,1467.55 "/>
<path clip-path="url(#clip330)" d="M567.856 1517.37 Q564.245 1517.37 562.416 1520.93 Q560.611 1524.47 560.611 1531.6 Q560.611 1538.71 562.416 1542.27 Q564.245 1545.82 567.856 1545.82 Q571.49 1545.82 573.296 1542.27 Q575.124 1538.71 575.124 1531.6 Q575.124 1524.47 573.296 1520.93 Q571.49 1517.37 567.856 1517.37 M567.856 1513.66 Q573.666 1513.66 576.722 1518.27 Q579.8 1522.85 579.8 1531.6 Q579.8 1540.33 576.722 1544.94 Q573.666 1549.52 567.856 1549.52 Q562.046 1549.52 558.967 1544.94 Q555.912 1540.33 555.912 1531.6 Q555.912 1522.85 558.967 1518.27 Q562.046 1513.66 567.856 1513.66 Z" fill="#000000" fill-rule="nonzero" fill-opacity="1" /><path clip-path="url(#clip330)" d="M995.123 1544.91 L1002.76 1544.91 L1002.76 1518.55 L994.452 1520.21 L994.452 1515.95 L1002.72 1514.29 L1007.39 1514.29 L1007.39 1544.91 L1015.03 1544.91 L1015.03 1548.85 L995.123 1548.85 L995.123 1544.91 Z" fill="#000000" fill-rule="nonzero" fill-opacity="1" /><path clip-path="url(#clip330)" d="M1034.48 1517.37 Q1030.86 1517.37 1029.04 1520.93 Q1027.23 1524.47 1027.23 1531.6 Q1027.23 1538.71 1029.04 1542.27 Q1030.86 1545.82 1034.48 1545.82 Q1038.11 1545.82 1039.91 1542.27 Q1041.74 1538.71 1041.74 1531.6 Q1041.74 1524.47 1039.91 1520.93 Q1038.11 1517.37 1034.48 1517.37 M1034.48 1513.66 Q1040.29 1513.66 1043.34 1518.27 Q1046.42 1522.85 1046.42 1531.6 Q1046.42 1540.33 1043.34 1544.94 Q1040.29 1549.52 1034.48 1549.52 Q1028.66 1549.52 1025.59 1544.94 Q1022.53 1540.33 1022.53 1531.6 Q1022.53 1522.85 1025.59 1518.27 Q1028.66 1513.66 1034.48 1513.66 Z" fill="#000000" fill-rule="nonzero" fill-opacity="1" /><path clip-path="url(#clip330)" d="M1451.79 1544.91 L1468.11 1544.91 L1468.11 1548.85 L1446.16 1548.85 L1446.16 1544.91 Q1448.83 1542.16 1453.41 1537.53 Q1458.02 1532.88 1459.2 1531.53 Q1461.44 1529.01 1462.32 1527.27 Q1463.22 1525.51 1463.22 1523.82 Q1463.22 1521.07 1461.28 1519.33 Q1459.36 1517.6 1456.26 1517.6 Q1454.06 1517.6 1451.6 1518.36 Q1449.17 1519.13 1446.4 1520.68 L1446.4 1515.95 Q1449.22 1514.82 1451.67 1514.24 Q1454.13 1513.66 1456.16 1513.66 Q1461.53 1513.66 1464.73 1516.35 Q1467.92 1519.03 1467.92 1523.52 Q1467.92 1525.65 1467.11 1527.57 Q1466.33 1529.47 1464.22 1532.07 Q1463.64 1532.74 1460.54 1535.95 Q1457.44 1539.15 1451.79 1544.91 Z" fill="#000000" fill-rule="nonzero" fill-opacity="1" /><path clip-path="url(#clip330)" d="M1487.92 1517.37 Q1484.31 1517.37 1482.48 1520.93 Q1480.68 1524.47 1480.68 1531.6 Q1480.68 1538.71 1482.48 1542.27 Q1484.31 1545.82 1487.92 1545.82 Q1491.56 1545.82 1493.36 1542.27 Q1495.19 1538.71 1495.19 1531.6 Q1495.19 1524.47 1493.36 1520.93 Q1491.56 1517.37 1487.92 1517.37 M1487.92 1513.66 Q1493.73 1513.66 1496.79 1518.27 Q1499.87 1522.85 1499.87 1531.6 Q1499.87 1540.33 1496.79 1544.94 Q1493.73 1549.52 1487.92 1549.52 Q1482.11 1549.52 1479.03 1544.94 Q1475.98 1540.33 1475.98 1531.6 Q1475.98 1522.85 1479.03 1518.27 Q1482.11 1513.66 1487.92 1513.66 Z" fill="#000000" fill-rule="nonzero" fill-opacity="1" /><path clip-path="url(#clip330)" d="M1914.44 1530.21 Q1917.79 1530.93 1919.67 1533.2 Q1921.57 1535.47 1921.57 1538.8 Q1921.57 1543.92 1918.05 1546.72 Q1914.53 1549.52 1908.05 1549.52 Q1905.87 1549.52 1903.56 1549.08 Q1901.27 1548.66 1898.81 1547.81 L1898.81 1543.29 Q1900.76 1544.43 1903.07 1545.01 Q1905.39 1545.58 1907.91 1545.58 Q1912.31 1545.58 1914.6 1543.85 Q1916.91 1542.11 1916.91 1538.8 Q1916.91 1535.75 1914.76 1534.03 Q1912.63 1532.3 1908.81 1532.3 L1904.79 1532.3 L1904.79 1528.45 L1909 1528.45 Q1912.45 1528.45 1914.28 1527.09 Q1916.1 1525.7 1916.1 1523.11 Q1916.1 1520.45 1914.21 1519.03 Q1912.33 1517.6 1908.81 1517.6 Q1906.89 1517.6 1904.69 1518.01 Q1902.49 1518.43 1899.85 1519.31 L1899.85 1515.14 Q1902.52 1514.4 1904.83 1514.03 Q1907.17 1513.66 1909.23 1513.66 Q1914.55 1513.66 1917.66 1516.09 Q1920.76 1518.5 1920.76 1522.62 Q1920.76 1525.49 1919.11 1527.48 Q1917.47 1529.45 1914.44 1530.21 Z" fill="#000000" fill-rule="nonzero" fill-opacity="1" /><path clip-path="url(#clip330)" d="M1940.43 1517.37 Q1936.82 1517.37 1934.99 1520.93 Q1933.19 1524.47 1933.19 1531.6 Q1933.19 1538.71 1934.99 1542.27 Q1936.82 1545.82 1940.43 1545.82 Q1944.07 1545.82 1945.87 1542.27 Q1947.7 1538.71 1947.7 1531.6 Q1947.7 1524.47 1945.87 1520.93 Q1944.07 1517.37 1940.43 1517.37 M1940.43 1513.66 Q1946.24 1513.66 1949.3 1518.27 Q1952.38 1522.85 1952.38 1531.6 Q1952.38 1540.33 1949.3 1544.94 Q1946.24 1549.52 1940.43 1549.52 Q1934.62 1549.52 1931.54 1544.94 Q1928.49 1540.33 1928.49 1531.6 Q1928.49 1522.85 1931.54 1518.27 Q1934.62 1513.66 1940.43 1513.66 Z" fill="#000000" fill-rule="nonzero" fill-opacity="1" /><polyline clip-path="url(#clip330)" style="stroke:#000000; stroke-linecap:round; stroke-linejoin:round; stroke-width:4; stroke-opacity:1; fill:none" points="140.696,1486.45 140.696,47.2441 "/>
<polyline clip-path="url(#clip330)" style="stroke:#000000; stroke-linecap:round; stroke-linejoin:round; stroke-width:4; stroke-opacity:1; fill:none" points="140.696,1445.72 159.593,1445.72 "/>
<polyline clip-path="url(#clip330)" style="stroke:#000000; stroke-linecap:round; stroke-linejoin:round; stroke-width:4; stroke-opacity:1; fill:none" points="140.696,993.136 159.593,993.136 "/>
<polyline clip-path="url(#clip330)" style="stroke:#000000; stroke-linecap:round; stroke-linejoin:round; stroke-width:4; stroke-opacity:1; fill:none" points="140.696,540.556 159.593,540.556 "/>
<polyline clip-path="url(#clip330)" style="stroke:#000000; stroke-linecap:round; stroke-linejoin:round; stroke-width:4; stroke-opacity:1; fill:none" points="140.696,87.9763 159.593,87.9763 "/>
<path clip-path="url(#clip330)" d="M92.7512 1431.51 Q89.1401 1431.51 87.3114 1435.08 Q85.5058 1438.62 85.5058 1445.75 Q85.5058 1452.86 87.3114 1456.42 Q89.1401 1459.96 92.7512 1459.96 Q96.3854 1459.96 98.1909 1456.42 Q100.02 1452.86 100.02 1445.75 Q100.02 1438.62 98.1909 1435.08 Q96.3854 1431.51 92.7512 1431.51 M92.7512 1427.81 Q98.5613 1427.81 101.617 1432.42 Q104.696 1437 104.696 1445.75 Q104.696 1454.48 101.617 1459.08 Q98.5613 1463.67 92.7512 1463.67 Q86.941 1463.67 83.8623 1459.08 Q80.8068 1454.48 80.8068 1445.75 Q80.8068 1437 83.8623 1432.42 Q86.941 1427.81 92.7512 1427.81 Z" fill="#000000" fill-rule="nonzero" fill-opacity="1" /><path clip-path="url(#clip330)" d="M53.3995 1006.48 L61.0384 1006.48 L61.0384 980.115 L52.7282 981.782 L52.7282 977.523 L60.9921 975.856 L65.668 975.856 L65.668 1006.48 L73.3068 1006.48 L73.3068 1010.42 L53.3995 1010.42 L53.3995 1006.48 Z" fill="#000000" fill-rule="nonzero" fill-opacity="1" /><path clip-path="url(#clip330)" d="M92.7512 978.935 Q89.1401 978.935 87.3114 982.499 Q85.5058 986.041 85.5058 993.171 Q85.5058 1000.28 87.3114 1003.84 Q89.1401 1007.38 92.7512 1007.38 Q96.3854 1007.38 98.1909 1003.84 Q100.02 1000.28 100.02 993.171 Q100.02 986.041 98.1909 982.499 Q96.3854 978.935 92.7512 978.935 M92.7512 975.231 Q98.5613 975.231 101.617 979.837 Q104.696 984.421 104.696 993.171 Q104.696 1001.9 101.617 1006.5 Q98.5613 1011.09 92.7512 1011.09 Q86.941 1011.09 83.8623 1006.5 Q80.8068 1001.9 80.8068 993.171 Q80.8068 984.421 83.8623 979.837 Q86.941 975.231 92.7512 975.231 Z" fill="#000000" fill-rule="nonzero" fill-opacity="1" /><path clip-path="url(#clip330)" d="M56.6171 553.901 L72.9365 553.901 L72.9365 557.836 L50.9921 557.836 L50.9921 553.901 Q53.6541 551.146 58.2375 546.517 Q62.8439 541.864 64.0245 540.521 Q66.2698 537.998 67.1494 536.262 Q68.0522 534.503 68.0522 532.813 Q68.0522 530.058 66.1078 528.322 Q64.1865 526.586 61.0847 526.586 Q58.8856 526.586 56.4319 527.35 Q54.0014 528.114 51.2236 529.665 L51.2236 524.943 Q54.0477 523.808 56.5014 523.23 Q58.955 522.651 60.9921 522.651 Q66.3624 522.651 69.5568 525.336 Q72.7513 528.021 72.7513 532.512 Q72.7513 534.642 71.9411 536.563 Q71.1541 538.461 69.0476 541.054 Q68.4689 541.725 65.367 544.943 Q62.2652 548.137 56.6171 553.901 Z" fill="#000000" fill-rule="nonzero" fill-opacity="1" /><path clip-path="url(#clip330)" d="M92.7512 526.355 Q89.1401 526.355 87.3114 529.92 Q85.5058 533.461 85.5058 540.591 Q85.5058 547.697 87.3114 551.262 Q89.1401 554.804 92.7512 554.804 Q96.3854 554.804 98.1909 551.262 Q100.02 547.697 100.02 540.591 Q100.02 533.461 98.1909 529.92 Q96.3854 526.355 92.7512 526.355 M92.7512 522.651 Q98.5613 522.651 101.617 527.258 Q104.696 531.841 104.696 540.591 Q104.696 549.318 101.617 553.924 Q98.5613 558.507 92.7512 558.507 Q86.941 558.507 83.8623 553.924 Q80.8068 549.318 80.8068 540.591 Q80.8068 531.841 83.8623 527.258 Q86.941 522.651 92.7512 522.651 Z" fill="#000000" fill-rule="nonzero" fill-opacity="1" /><path clip-path="url(#clip330)" d="M66.7559 86.6221 Q70.1124 87.3397 71.9874 89.6082 Q73.8855 91.8767 73.8855 95.21 Q73.8855 100.326 70.367 103.127 Q66.8485 105.928 60.3671 105.928 Q58.1912 105.928 55.8764 105.488 Q53.5847 105.071 51.131 104.215 L51.131 99.7008 Q53.0754 100.835 55.3903 101.414 Q57.7051 101.992 60.2282 101.992 Q64.6263 101.992 66.918 100.256 Q69.2328 98.5202 69.2328 95.21 Q69.2328 92.1545 67.08 90.4415 Q64.9504 88.7054 61.131 88.7054 L57.1032 88.7054 L57.1032 84.8629 L61.3161 84.8629 Q64.7652 84.8629 66.5939 83.4971 Q68.4226 82.1083 68.4226 79.5157 Q68.4226 76.8537 66.5245 75.4416 Q64.6495 74.0064 61.131 74.0064 Q59.2097 74.0064 57.0106 74.4231 Q54.8115 74.8398 52.1727 75.7194 L52.1727 71.5528 Q54.8347 70.812 57.1495 70.4416 Q59.4875 70.0713 61.5476 70.0713 Q66.8717 70.0713 69.9735 72.5018 Q73.0753 74.9092 73.0753 79.0296 Q73.0753 81.8999 71.4318 83.8907 Q69.7883 85.8582 66.7559 86.6221 Z" fill="#000000" fill-rule="nonzero" fill-opacity="1" /><path clip-path="url(#clip330)" d="M92.7512 73.775 Q89.1401 73.775 87.3114 77.3398 Q85.5058 80.8814 85.5058 88.011 Q85.5058 95.1174 87.3114 98.6822 Q89.1401 102.224 92.7512 102.224 Q96.3854 102.224 98.1909 98.6822 Q100.02 95.1174 100.02 88.011 Q100.02 80.8814 98.1909 77.3398 Q96.3854 73.775 92.7512 73.775 M92.7512 70.0713 Q98.5613 70.0713 101.617 74.6777 Q104.696 79.261 104.696 88.011 Q104.696 96.7378 101.617 101.344 Q98.5613 105.928 92.7512 105.928 Q86.941 105.928 83.8623 101.344 Q80.8068 96.7378 80.8068 88.011 Q80.8068 79.261 83.8623 74.6777 Q86.941 70.0713 92.7512 70.0713 Z" fill="#000000" fill-rule="nonzero" fill-opacity="1" /><path clip-path="url(#clip331)" d="M567.856 1445.72 L1925.6 1445.72 L1925.6 87.9763 L567.856 87.9763 L567.856 1445.72 L567.856 1445.72  Z" fill="#0000ff" fill-rule="evenodd" fill-opacity="1"/>
<polyline clip-path="url(#clip331)" style="stroke:#000000; stroke-linecap:round; stroke-linejoin:round; stroke-width:4; stroke-opacity:1; fill:none" points="567.856,1445.72 1925.6,1445.72 1925.6,87.9763 567.856,87.9763 567.856,1445.72 "/>
<path clip-path="url(#clip331)" d="M1246.73 766.846 L1473.02 766.846 L1473.02 540.556 L1246.73 540.556 L1246.73 766.846 L1246.73 766.846  Z" fill="#808080" fill-rule="evenodd" fill-opacity="1"/>
<polyline clip-path="url(#clip331)" style="stroke:#000000; stroke-linecap:round; stroke-linejoin:round; stroke-width:4; stroke-opacity:1; fill:none" points="1246.73,766.846 1473.02,766.846 1473.02,540.556 1246.73,540.556 1246.73,766.846 "/>
<path clip-path="url(#clip331)" d="M839.404 404.782 L1110.95 404.782 L1110.95 314.266 L839.404 314.266 L839.404 404.782 L839.404 404.782  Z" fill="#808080" fill-rule="evenodd" fill-opacity="1"/>
<polyline clip-path="url(#clip331)" style="stroke:#000000; stroke-linecap:round; stroke-linejoin:round; stroke-width:4; stroke-opacity:1; fill:none" points="839.404,404.782 1110.95,404.782 1110.95,314.266 839.404,314.266 839.404,404.782 "/>
<path clip-path="url(#clip331)" d="M567.856 1219.43 L839.404 1219.43 L839.404 1128.91 L567.856 1128.91 L567.856 1219.43 L567.856 1219.43  Z" fill="#808080" fill-rule="evenodd" fill-opacity="1"/>
<polyline clip-path="url(#clip331)" style="stroke:#000000; stroke-linecap:round; stroke-linejoin:round; stroke-width:4; stroke-opacity:1; fill:none" points="567.856,1219.43 839.404,1219.43 839.404,1128.91 567.856,1128.91 567.856,1219.43 "/>
<path clip-path="url(#clip331)" d="M1654.05 947.878 L1925.6 947.878 L1925.6 857.362 L1654.05 857.362 L1654.05 947.878 L1654.05 947.878  Z" fill="#808080" fill-rule="evenodd" fill-opacity="1"/>
<polyline clip-path="url(#clip331)" style="stroke:#000000; stroke-linecap:round; stroke-linejoin:round; stroke-width:4; stroke-opacity:1; fill:none" points="1654.05,947.878 1925.6,947.878 1925.6,857.362 1654.05,857.362 1654.05,947.878 "/>
<path clip-path="url(#clip331)" d="M567.856 1128.91 L839.404 1128.91 L839.404 1038.39 L567.856 1038.39 L567.856 1128.91 L567.856 1128.91  Z" fill="#808080" fill-rule="evenodd" fill-opacity="1"/>
<polyline clip-path="url(#clip331)" style="stroke:#000000; stroke-linecap:round; stroke-linejoin:round; stroke-width:4; stroke-opacity:1; fill:none" points="567.856,1128.91 839.404,1128.91 839.404,1038.39 567.856,1038.39 567.856,1128.91 "/>
<path clip-path="url(#clip331)" d="M567.856 314.266 L839.404 314.266 L839.404 223.75 L567.856 223.75 L567.856 314.266 L567.856 314.266  Z" fill="#808080" fill-rule="evenodd" fill-opacity="1"/>
<polyline clip-path="url(#clip331)" style="stroke:#000000; stroke-linecap:round; stroke-linejoin:round; stroke-width:4; stroke-opacity:1; fill:none" points="567.856,314.266 839.404,314.266 839.404,223.75 567.856,223.75 567.856,314.266 "/>
<path clip-path="url(#clip331)" d="M567.856 223.75 L839.404 223.75 L839.404 133.234 L567.856 133.234 L567.856 223.75 L567.856 223.75  Z" fill="#808080" fill-rule="evenodd" fill-opacity="1"/>
<polyline clip-path="url(#clip331)" style="stroke:#000000; stroke-linecap:round; stroke-linejoin:round; stroke-width:4; stroke-opacity:1; fill:none" points="567.856,223.75 839.404,223.75 839.404,133.234 567.856,133.234 567.856,223.75 "/>
<path clip-path="url(#clip331)" d="M1382.5 404.782 L1654.05 404.782 L1654.05 314.266 L1382.5 314.266 L1382.5 404.782 L1382.5 404.782  Z" fill="#808080" fill-rule="evenodd" fill-opacity="1"/>
<polyline clip-path="url(#clip331)" style="stroke:#000000; stroke-linecap:round; stroke-linejoin:round; stroke-width:4; stroke-opacity:1; fill:none" points="1382.5,404.782 1654.05,404.782 1654.05,314.266 1382.5,314.266 1382.5,404.782 "/>
<path clip-path="url(#clip331)" d="M1654.05 857.362 L1925.6 857.362 L1925.6 766.846 L1654.05 766.846 L1654.05 857.362 L1654.05 857.362  Z" fill="#808080" fill-rule="evenodd" fill-opacity="1"/>
<polyline clip-path="url(#clip331)" style="stroke:#000000; stroke-linecap:round; stroke-linejoin:round; stroke-width:4; stroke-opacity:1; fill:none" points="1654.05,857.362 1925.6,857.362 1925.6,766.846 1654.05,766.846 1654.05,857.362 "/>
<path clip-path="url(#clip331)" d="M839.404 676.33 L1110.95 676.33 L1110.95 585.814 L839.404 585.814 L839.404 676.33 L839.404 676.33  Z" fill="#808080" fill-rule="evenodd" fill-opacity="1"/>
<polyline clip-path="url(#clip331)" style="stroke:#000000; stroke-linecap:round; stroke-linejoin:round; stroke-width:4; stroke-opacity:1; fill:none" points="839.404,676.33 1110.95,676.33 1110.95,585.814 839.404,585.814 839.404,676.33 "/>
<path clip-path="url(#clip331)" d="M1110.95 1400.46 L1382.5 1400.46 L1382.5 1309.94 L1110.95 1309.94 L1110.95 1400.46 L1110.95 1400.46  Z" fill="#808080" fill-rule="evenodd" fill-opacity="1"/>
<polyline clip-path="url(#clip331)" style="stroke:#000000; stroke-linecap:round; stroke-linejoin:round; stroke-width:4; stroke-opacity:1; fill:none" points="1110.95,1400.46 1382.5,1400.46 1382.5,1309.94 1110.95,1309.94 1110.95,1400.46 "/>
<path clip-path="url(#clip331)" d="M567.856 1400.46 L839.404 1400.46 L839.404 1309.94 L567.856 1309.94 L567.856 1400.46 L567.856 1400.46  Z" fill="#808080" fill-rule="evenodd" fill-opacity="1"/>
<polyline clip-path="url(#clip331)" style="stroke:#000000; stroke-linecap:round; stroke-linejoin:round; stroke-width:4; stroke-opacity:1; fill:none" points="567.856,1400.46 839.404,1400.46 839.404,1309.94 567.856,1309.94 567.856,1400.46 "/>
<path clip-path="url(#clip331)" d="M567.856 766.846 L839.404 766.846 L839.404 676.33 L567.856 676.33 L567.856 766.846 L567.856 766.846  Z" fill="#808080" fill-rule="evenodd" fill-opacity="1"/>
<polyline clip-path="url(#clip331)" style="stroke:#000000; stroke-linecap:round; stroke-linejoin:round; stroke-width:4; stroke-opacity:1; fill:none" points="567.856,766.846 839.404,766.846 839.404,676.33 567.856,676.33 567.856,766.846 "/>
<path clip-path="url(#clip331)" d="M1654.05 1038.39 L1925.6 1038.39 L1925.6 947.878 L1654.05 947.878 L1654.05 1038.39 L1654.05 1038.39  Z" fill="#808080" fill-rule="evenodd" fill-opacity="1"/>
<polyline clip-path="url(#clip331)" style="stroke:#000000; stroke-linecap:round; stroke-linejoin:round; stroke-width:4; stroke-opacity:1; fill:none" points="1654.05,1038.39 1925.6,1038.39 1925.6,947.878 1654.05,947.878 1654.05,1038.39 "/>
<path clip-path="url(#clip331)" d="M567.856 585.814 L839.404 585.814 L839.404 495.298 L567.856 495.298 L567.856 585.814 L567.856 585.814  Z" fill="#808080" fill-rule="evenodd" fill-opacity="1"/>
<polyline clip-path="url(#clip331)" style="stroke:#000000; stroke-linecap:round; stroke-linejoin:round; stroke-width:4; stroke-opacity:1; fill:none" points="567.856,585.814 839.404,585.814 839.404,495.298 567.856,495.298 567.856,585.814 "/>
<path clip-path="url(#clip331)" d="M567.856 1309.94 L839.404 1309.94 L839.404 1219.43 L567.856 1219.43 L567.856 1309.94 L567.856 1309.94  Z" fill="#808080" fill-rule="evenodd" fill-opacity="1"/>
<polyline clip-path="url(#clip331)" style="stroke:#000000; stroke-linecap:round; stroke-linejoin:round; stroke-width:4; stroke-opacity:1; fill:none" points="567.856,1309.94 839.404,1309.94 839.404,1219.43 567.856,1219.43 567.856,1309.94 "/>
<path clip-path="url(#clip331)" d="M1654.05 495.298 L1925.6 495.298 L1925.6 404.782 L1654.05 404.782 L1654.05 495.298 L1654.05 495.298  Z" fill="#808080" fill-rule="evenodd" fill-opacity="1"/>
<polyline clip-path="url(#clip331)" style="stroke:#000000; stroke-linecap:round; stroke-linejoin:round; stroke-width:4; stroke-opacity:1; fill:none" points="1654.05,495.298 1925.6,495.298 1925.6,404.782 1654.05,404.782 1654.05,495.298 "/>
<path clip-path="url(#clip331)" d="M839.404 1219.43 L1110.95 1219.43 L1110.95 1128.91 L839.404 1128.91 L839.404 1219.43 L839.404 1219.43  Z" fill="#808080" fill-rule="evenodd" fill-opacity="1"/>
<polyline clip-path="url(#clip331)" style="stroke:#000000; stroke-linecap:round; stroke-linejoin:round; stroke-width:4; stroke-opacity:1; fill:none" points="839.404,1219.43 1110.95,1219.43 1110.95,1128.91 839.404,1128.91 839.404,1219.43 "/>
<path clip-path="url(#clip331)" d="M839.404 1128.91 L1110.95 1128.91 L1110.95 1038.39 L839.404 1038.39 L839.404 1128.91 L839.404 1128.91  Z" fill="#808080" fill-rule="evenodd" fill-opacity="1"/>
<polyline clip-path="url(#clip331)" style="stroke:#000000; stroke-linecap:round; stroke-linejoin:round; stroke-width:4; stroke-opacity:1; fill:none" points="839.404,1128.91 1110.95,1128.91 1110.95,1038.39 839.404,1038.39 839.404,1128.91 "/>
<path clip-path="url(#clip331)" d="M839.404 314.266 L1110.95 314.266 L1110.95 223.75 L839.404 223.75 L839.404 314.266 L839.404 314.266  Z" fill="#808080" fill-rule="evenodd" fill-opacity="1"/>
<polyline clip-path="url(#clip331)" style="stroke:#000000; stroke-linecap:round; stroke-linejoin:round; stroke-width:4; stroke-opacity:1; fill:none" points="839.404,314.266 1110.95,314.266 1110.95,223.75 839.404,223.75 839.404,314.266 "/>
<path clip-path="url(#clip331)" d="M839.404 223.75 L1110.95 223.75 L1110.95 133.234 L839.404 133.234 L839.404 223.75 L839.404 223.75  Z" fill="#808080" fill-rule="evenodd" fill-opacity="1"/>
<polyline clip-path="url(#clip331)" style="stroke:#000000; stroke-linecap:round; stroke-linejoin:round; stroke-width:4; stroke-opacity:1; fill:none" points="839.404,223.75 1110.95,223.75 1110.95,133.234 839.404,133.234 839.404,223.75 "/>
<path clip-path="url(#clip331)" d="M1110.95 947.878 L1382.5 947.878 L1382.5 857.362 L1110.95 857.362 L1110.95 947.878 L1110.95 947.878  Z" fill="#808080" fill-rule="evenodd" fill-opacity="1"/>
<polyline clip-path="url(#clip331)" style="stroke:#000000; stroke-linecap:round; stroke-linejoin:round; stroke-width:4; stroke-opacity:1; fill:none" points="1110.95,947.878 1382.5,947.878 1382.5,857.362 1110.95,857.362 1110.95,947.878 "/>
<path clip-path="url(#clip331)" d="M1382.5 1219.43 L1654.05 1219.43 L1654.05 1128.91 L1382.5 1128.91 L1382.5 1219.43 L1382.5 1219.43  Z" fill="#808080" fill-rule="evenodd" fill-opacity="1"/>
<polyline clip-path="url(#clip331)" style="stroke:#000000; stroke-linecap:round; stroke-linejoin:round; stroke-width:4; stroke-opacity:1; fill:none" points="1382.5,1219.43 1654.05,1219.43 1654.05,1128.91 1382.5,1128.91 1382.5,1219.43 "/>
<path clip-path="url(#clip331)" d="M1382.5 1128.91 L1654.05 1128.91 L1654.05 1038.39 L1382.5 1038.39 L1382.5 1128.91 L1382.5 1128.91  Z" fill="#808080" fill-rule="evenodd" fill-opacity="1"/>
<polyline clip-path="url(#clip331)" style="stroke:#000000; stroke-linecap:round; stroke-linejoin:round; stroke-width:4; stroke-opacity:1; fill:none" points="1382.5,1128.91 1654.05,1128.91 1654.05,1038.39 1382.5,1038.39 1382.5,1128.91 "/>
<path clip-path="url(#clip331)" d="M1382.5 314.266 L1654.05 314.266 L1654.05 223.75 L1382.5 223.75 L1382.5 314.266 L1382.5 314.266  Z" fill="#808080" fill-rule="evenodd" fill-opacity="1"/>
<polyline clip-path="url(#clip331)" style="stroke:#000000; stroke-linecap:round; stroke-linejoin:round; stroke-width:4; stroke-opacity:1; fill:none" points="1382.5,314.266 1654.05,314.266 1654.05,223.75 1382.5,223.75 1382.5,314.266 "/>
<path clip-path="url(#clip331)" d="M1382.5 223.75 L1654.05 223.75 L1654.05 133.234 L1382.5 133.234 L1382.5 223.75 L1382.5 223.75  Z" fill="#808080" fill-rule="evenodd" fill-opacity="1"/>
<polyline clip-path="url(#clip331)" style="stroke:#000000; stroke-linecap:round; stroke-linejoin:round; stroke-width:4; stroke-opacity:1; fill:none" points="1382.5,223.75 1654.05,223.75 1654.05,133.234 1382.5,133.234 1382.5,223.75 "/>
<path clip-path="url(#clip331)" d="M1654.05 404.782 L1925.6 404.782 L1925.6 314.266 L1654.05 314.266 L1654.05 404.782 L1654.05 404.782  Z" fill="#808080" fill-rule="evenodd" fill-opacity="1"/>
<polyline clip-path="url(#clip331)" style="stroke:#000000; stroke-linecap:round; stroke-linejoin:round; stroke-width:4; stroke-opacity:1; fill:none" points="1654.05,404.782 1925.6,404.782 1925.6,314.266 1654.05,314.266 1654.05,404.782 "/>
<path clip-path="url(#clip331)" d="M567.856 947.878 L839.404 947.878 L839.404 857.362 L567.856 857.362 L567.856 947.878 L567.856 947.878  Z" fill="#808080" fill-rule="evenodd" fill-opacity="1"/>
<polyline clip-path="url(#clip331)" style="stroke:#000000; stroke-linecap:round; stroke-linejoin:round; stroke-width:4; stroke-opacity:1; fill:none" points="567.856,947.878 839.404,947.878 839.404,857.362 567.856,857.362 567.856,947.878 "/>
<path clip-path="url(#clip331)" d="M839.404 1400.46 L1110.95 1400.46 L1110.95 1309.94 L839.404 1309.94 L839.404 1400.46 L839.404 1400.46  Z" fill="#808080" fill-rule="evenodd" fill-opacity="1"/>
<polyline clip-path="url(#clip331)" style="stroke:#000000; stroke-linecap:round; stroke-linejoin:round; stroke-width:4; stroke-opacity:1; fill:none" points="839.404,1400.46 1110.95,1400.46 1110.95,1309.94 839.404,1309.94 839.404,1400.46 "/>
<path clip-path="url(#clip331)" d="M567.856 857.362 L839.404 857.362 L839.404 766.846 L567.856 766.846 L567.856 857.362 L567.856 857.362  Z" fill="#808080" fill-rule="evenodd" fill-opacity="1"/>
<polyline clip-path="url(#clip331)" style="stroke:#000000; stroke-linecap:round; stroke-linejoin:round; stroke-width:4; stroke-opacity:1; fill:none" points="567.856,857.362 839.404,857.362 839.404,766.846 567.856,766.846 567.856,857.362 "/>
<path clip-path="url(#clip331)" d="M1654.05 676.33 L1925.6 676.33 L1925.6 585.814 L1654.05 585.814 L1654.05 676.33 L1654.05 676.33  Z" fill="#808080" fill-rule="evenodd" fill-opacity="1"/>
<polyline clip-path="url(#clip331)" style="stroke:#000000; stroke-linecap:round; stroke-linejoin:round; stroke-width:4; stroke-opacity:1; fill:none" points="1654.05,676.33 1925.6,676.33 1925.6,585.814 1654.05,585.814 1654.05,676.33 "/>
<path clip-path="url(#clip331)" d="M839.404 766.846 L1110.95 766.846 L1110.95 676.33 L839.404 676.33 L839.404 766.846 L839.404 766.846  Z" fill="#808080" fill-rule="evenodd" fill-opacity="1"/>
<polyline clip-path="url(#clip331)" style="stroke:#000000; stroke-linecap:round; stroke-linejoin:round; stroke-width:4; stroke-opacity:1; fill:none" points="839.404,766.846 1110.95,766.846 1110.95,676.33 839.404,676.33 839.404,766.846 "/>
<path clip-path="url(#clip331)" d="M839.404 585.814 L1110.95 585.814 L1110.95 495.298 L839.404 495.298 L839.404 585.814 L839.404 585.814  Z" fill="#808080" fill-rule="evenodd" fill-opacity="1"/>
<polyline clip-path="url(#clip331)" style="stroke:#000000; stroke-linecap:round; stroke-linejoin:round; stroke-width:4; stroke-opacity:1; fill:none" points="839.404,585.814 1110.95,585.814 1110.95,495.298 839.404,495.298 839.404,585.814 "/>
<path clip-path="url(#clip331)" d="M839.404 1309.94 L1110.95 1309.94 L1110.95 1219.43 L839.404 1219.43 L839.404 1309.94 L839.404 1309.94  Z" fill="#808080" fill-rule="evenodd" fill-opacity="1"/>
<polyline clip-path="url(#clip331)" style="stroke:#000000; stroke-linecap:round; stroke-linejoin:round; stroke-width:4; stroke-opacity:1; fill:none" points="839.404,1309.94 1110.95,1309.94 1110.95,1219.43 839.404,1219.43 839.404,1309.94 "/>
<path clip-path="url(#clip331)" d="M1382.5 1400.46 L1654.05 1400.46 L1654.05 1309.94 L1382.5 1309.94 L1382.5 1400.46 L1382.5 1400.46  Z" fill="#808080" fill-rule="evenodd" fill-opacity="1"/>
<polyline clip-path="url(#clip331)" style="stroke:#000000; stroke-linecap:round; stroke-linejoin:round; stroke-width:4; stroke-opacity:1; fill:none" points="1382.5,1400.46 1654.05,1400.46 1654.05,1309.94 1382.5,1309.94 1382.5,1400.46 "/>
<path clip-path="url(#clip331)" d="M1110.95 1038.39 L1382.5 1038.39 L1382.5 947.878 L1110.95 947.878 L1110.95 1038.39 L1110.95 1038.39  Z" fill="#808080" fill-rule="evenodd" fill-opacity="1"/>
<polyline clip-path="url(#clip331)" style="stroke:#000000; stroke-linecap:round; stroke-linejoin:round; stroke-width:4; stroke-opacity:1; fill:none" points="1110.95,1038.39 1382.5,1038.39 1382.5,947.878 1110.95,947.878 1110.95,1038.39 "/>
<path clip-path="url(#clip331)" d="M1110.95 495.298 L1382.5 495.298 L1382.5 404.782 L1110.95 404.782 L1110.95 495.298 L1110.95 495.298  Z" fill="#808080" fill-rule="evenodd" fill-opacity="1"/>
<polyline clip-path="url(#clip331)" style="stroke:#000000; stroke-linecap:round; stroke-linejoin:round; stroke-width:4; stroke-opacity:1; fill:none" points="1110.95,495.298 1382.5,495.298 1382.5,404.782 1110.95,404.782 1110.95,495.298 "/>
<path clip-path="url(#clip331)" d="M1382.5 1309.94 L1654.05 1309.94 L1654.05 1219.43 L1382.5 1219.43 L1382.5 1309.94 L1382.5 1309.94  Z" fill="#808080" fill-rule="evenodd" fill-opacity="1"/>
<polyline clip-path="url(#clip331)" style="stroke:#000000; stroke-linecap:round; stroke-linejoin:round; stroke-width:4; stroke-opacity:1; fill:none" points="1382.5,1309.94 1654.05,1309.94 1654.05,1219.43 1382.5,1219.43 1382.5,1309.94 "/>
<path clip-path="url(#clip331)" d="M567.856 1038.39 L839.404 1038.39 L839.404 947.878 L567.856 947.878 L567.856 1038.39 L567.856 1038.39  Z" fill="#808080" fill-rule="evenodd" fill-opacity="1"/>
<polyline clip-path="url(#clip331)" style="stroke:#000000; stroke-linecap:round; stroke-linejoin:round; stroke-width:4; stroke-opacity:1; fill:none" points="567.856,1038.39 839.404,1038.39 839.404,947.878 567.856,947.878 567.856,1038.39 "/>
<path clip-path="url(#clip331)" d="M567.856 495.298 L839.404 495.298 L839.404 404.782 L567.856 404.782 L567.856 495.298 L567.856 495.298  Z" fill="#808080" fill-rule="evenodd" fill-opacity="1"/>
<polyline clip-path="url(#clip331)" style="stroke:#000000; stroke-linecap:round; stroke-linejoin:round; stroke-width:4; stroke-opacity:1; fill:none" points="567.856,495.298 839.404,495.298 839.404,404.782 567.856,404.782 567.856,495.298 "/>
<path clip-path="url(#clip331)" d="M839.404 947.878 L1110.95 947.878 L1110.95 857.362 L839.404 857.362 L839.404 947.878 L839.404 947.878  Z" fill="#808080" fill-rule="evenodd" fill-opacity="1"/>
<polyline clip-path="url(#clip331)" style="stroke:#000000; stroke-linecap:round; stroke-linejoin:round; stroke-width:4; stroke-opacity:1; fill:none" points="839.404,947.878 1110.95,947.878 1110.95,857.362 839.404,857.362 839.404,947.878 "/>
<path clip-path="url(#clip331)" d="M1654.05 1219.43 L1925.6 1219.43 L1925.6 1128.91 L1654.05 1128.91 L1654.05 1219.43 L1654.05 1219.43  Z" fill="#808080" fill-rule="evenodd" fill-opacity="1"/>
<polyline clip-path="url(#clip331)" style="stroke:#000000; stroke-linecap:round; stroke-linejoin:round; stroke-width:4; stroke-opacity:1; fill:none" points="1654.05,1219.43 1925.6,1219.43 1925.6,1128.91 1654.05,1128.91 1654.05,1219.43 "/>
<path clip-path="url(#clip331)" d="M1110.95 404.782 L1382.5 404.782 L1382.5 314.266 L1110.95 314.266 L1110.95 404.782 L1110.95 404.782  Z" fill="#808080" fill-rule="evenodd" fill-opacity="1"/>
<polyline clip-path="url(#clip331)" style="stroke:#000000; stroke-linecap:round; stroke-linejoin:round; stroke-width:4; stroke-opacity:1; fill:none" points="1110.95,404.782 1382.5,404.782 1382.5,314.266 1110.95,314.266 1110.95,404.782 "/>
<path clip-path="url(#clip331)" d="M1654.05 1128.91 L1925.6 1128.91 L1925.6 1038.39 L1654.05 1038.39 L1654.05 1128.91 L1654.05 1128.91  Z" fill="#808080" fill-rule="evenodd" fill-opacity="1"/>
<polyline clip-path="url(#clip331)" style="stroke:#000000; stroke-linecap:round; stroke-linejoin:round; stroke-width:4; stroke-opacity:1; fill:none" points="1654.05,1128.91 1925.6,1128.91 1925.6,1038.39 1654.05,1038.39 1654.05,1128.91 "/>
<path clip-path="url(#clip331)" d="M1654.05 314.266 L1925.6 314.266 L1925.6 223.75 L1654.05 223.75 L1654.05 314.266 L1654.05 314.266  Z" fill="#808080" fill-rule="evenodd" fill-opacity="1"/>
<polyline clip-path="url(#clip331)" style="stroke:#000000; stroke-linecap:round; stroke-linejoin:round; stroke-width:4; stroke-opacity:1; fill:none" points="1654.05,314.266 1925.6,314.266 1925.6,223.75 1654.05,223.75 1654.05,314.266 "/>
<path clip-path="url(#clip331)" d="M1654.05 223.75 L1925.6 223.75 L1925.6 133.234 L1654.05 133.234 L1654.05 223.75 L1654.05 223.75  Z" fill="#808080" fill-rule="evenodd" fill-opacity="1"/>
<polyline clip-path="url(#clip331)" style="stroke:#000000; stroke-linecap:round; stroke-linejoin:round; stroke-width:4; stroke-opacity:1; fill:none" points="1654.05,223.75 1925.6,223.75 1925.6,133.234 1654.05,133.234 1654.05,223.75 "/>
<path clip-path="url(#clip331)" d="M839.404 857.362 L1110.95 857.362 L1110.95 766.846 L839.404 766.846 L839.404 857.362 L839.404 857.362  Z" fill="#808080" fill-rule="evenodd" fill-opacity="1"/>
<polyline clip-path="url(#clip331)" style="stroke:#000000; stroke-linecap:round; stroke-linejoin:round; stroke-width:4; stroke-opacity:1; fill:none" points="839.404,857.362 1110.95,857.362 1110.95,766.846 839.404,766.846 839.404,857.362 "/>
<path clip-path="url(#clip331)" d="M1382.5 947.878 L1654.05 947.878 L1654.05 857.362 L1382.5 857.362 L1382.5 947.878 L1382.5 947.878  Z" fill="#808080" fill-rule="evenodd" fill-opacity="1"/>
<polyline clip-path="url(#clip331)" style="stroke:#000000; stroke-linecap:round; stroke-linejoin:round; stroke-width:4; stroke-opacity:1; fill:none" points="1382.5,947.878 1654.05,947.878 1654.05,857.362 1382.5,857.362 1382.5,947.878 "/>
<path clip-path="url(#clip331)" d="M567.856 404.782 L839.404 404.782 L839.404 314.266 L567.856 314.266 L567.856 404.782 L567.856 404.782  Z" fill="#808080" fill-rule="evenodd" fill-opacity="1"/>
<polyline clip-path="url(#clip331)" style="stroke:#000000; stroke-linecap:round; stroke-linejoin:round; stroke-width:4; stroke-opacity:1; fill:none" points="567.856,404.782 839.404,404.782 839.404,314.266 567.856,314.266 567.856,404.782 "/>
<path clip-path="url(#clip331)" d="M1654.05 1400.46 L1925.6 1400.46 L1925.6 1309.94 L1654.05 1309.94 L1654.05 1400.46 L1654.05 1400.46  Z" fill="#808080" fill-rule="evenodd" fill-opacity="1"/>
<polyline clip-path="url(#clip331)" style="stroke:#000000; stroke-linecap:round; stroke-linejoin:round; stroke-width:4; stroke-opacity:1; fill:none" points="1654.05,1400.46 1925.6,1400.46 1925.6,1309.94 1654.05,1309.94 1654.05,1400.46 "/>
<path clip-path="url(#clip331)" d="M567.856 676.33 L839.404 676.33 L839.404 585.814 L567.856 585.814 L567.856 676.33 L567.856 676.33  Z" fill="#808080" fill-rule="evenodd" fill-opacity="1"/>
<polyline clip-path="url(#clip331)" style="stroke:#000000; stroke-linecap:round; stroke-linejoin:round; stroke-width:4; stroke-opacity:1; fill:none" points="567.856,676.33 839.404,676.33 839.404,585.814 567.856,585.814 567.856,676.33 "/>
<path clip-path="url(#clip331)" d="M839.404 1038.39 L1110.95 1038.39 L1110.95 947.878 L839.404 947.878 L839.404 1038.39 L839.404 1038.39  Z" fill="#808080" fill-rule="evenodd" fill-opacity="1"/>
<polyline clip-path="url(#clip331)" style="stroke:#000000; stroke-linecap:round; stroke-linejoin:round; stroke-width:4; stroke-opacity:1; fill:none" points="839.404,1038.39 1110.95,1038.39 1110.95,947.878 839.404,947.878 839.404,1038.39 "/>
<path clip-path="url(#clip331)" d="M1654.05 766.846 L1925.6 766.846 L1925.6 676.33 L1654.05 676.33 L1654.05 766.846 L1654.05 766.846  Z" fill="#808080" fill-rule="evenodd" fill-opacity="1"/>
<polyline clip-path="url(#clip331)" style="stroke:#000000; stroke-linecap:round; stroke-linejoin:round; stroke-width:4; stroke-opacity:1; fill:none" points="1654.05,766.846 1925.6,766.846 1925.6,676.33 1654.05,676.33 1654.05,766.846 "/>
<path clip-path="url(#clip331)" d="M1654.05 585.814 L1925.6 585.814 L1925.6 495.298 L1654.05 495.298 L1654.05 585.814 L1654.05 585.814  Z" fill="#808080" fill-rule="evenodd" fill-opacity="1"/>
<polyline clip-path="url(#clip331)" style="stroke:#000000; stroke-linecap:round; stroke-linejoin:round; stroke-width:4; stroke-opacity:1; fill:none" points="1654.05,585.814 1925.6,585.814 1925.6,495.298 1654.05,495.298 1654.05,585.814 "/>
<path clip-path="url(#clip331)" d="M839.404 495.298 L1110.95 495.298 L1110.95 404.782 L839.404 404.782 L839.404 495.298 L839.404 495.298  Z" fill="#808080" fill-rule="evenodd" fill-opacity="1"/>
<polyline clip-path="url(#clip331)" style="stroke:#000000; stroke-linecap:round; stroke-linejoin:round; stroke-width:4; stroke-opacity:1; fill:none" points="839.404,495.298 1110.95,495.298 1110.95,404.782 839.404,404.782 839.404,495.298 "/>
<path clip-path="url(#clip331)" d="M1654.05 1309.94 L1925.6 1309.94 L1925.6 1219.43 L1654.05 1219.43 L1654.05 1309.94 L1654.05 1309.94  Z" fill="#808080" fill-rule="evenodd" fill-opacity="1"/>
<polyline clip-path="url(#clip331)" style="stroke:#000000; stroke-linecap:round; stroke-linejoin:round; stroke-width:4; stroke-opacity:1; fill:none" points="1654.05,1309.94 1925.6,1309.94 1925.6,1219.43 1654.05,1219.43 1654.05,1309.94 "/>
<path clip-path="url(#clip331)" d="M1382.5 1038.39 L1654.05 1038.39 L1654.05 947.878 L1382.5 947.878 L1382.5 1038.39 L1382.5 1038.39  Z" fill="#808080" fill-rule="evenodd" fill-opacity="1"/>
<polyline clip-path="url(#clip331)" style="stroke:#000000; stroke-linecap:round; stroke-linejoin:round; stroke-width:4; stroke-opacity:1; fill:none" points="1382.5,1038.39 1654.05,1038.39 1654.05,947.878 1382.5,947.878 1382.5,1038.39 "/>
<path clip-path="url(#clip331)" d="M1110.95 1128.91 L1382.5 1128.91 L1382.5 1038.39 L1110.95 1038.39 L1110.95 1128.91 L1110.95 1128.91  Z" fill="#808080" fill-rule="evenodd" fill-opacity="1"/>
<polyline clip-path="url(#clip331)" style="stroke:#000000; stroke-linecap:round; stroke-linejoin:round; stroke-width:4; stroke-opacity:1; fill:none" points="1110.95,1128.91 1382.5,1128.91 1382.5,1038.39 1110.95,1038.39 1110.95,1128.91 "/>
<path clip-path="url(#clip331)" d="M1382.5 495.298 L1654.05 495.298 L1654.05 404.782 L1382.5 404.782 L1382.5 495.298 L1382.5 495.298  Z" fill="#808080" fill-rule="evenodd" fill-opacity="1"/>
<polyline clip-path="url(#clip331)" style="stroke:#000000; stroke-linecap:round; stroke-linejoin:round; stroke-width:4; stroke-opacity:1; fill:none" points="1382.5,495.298 1654.05,495.298 1654.05,404.782 1382.5,404.782 1382.5,495.298 "/>
<path clip-path="url(#clip331)" d="M1110.95 314.266 L1382.5 314.266 L1382.5 223.75 L1110.95 223.75 L1110.95 314.266 L1110.95 314.266  Z" fill="#808080" fill-rule="evenodd" fill-opacity="1"/>
<polyline clip-path="url(#clip331)" style="stroke:#000000; stroke-linecap:round; stroke-linejoin:round; stroke-width:4; stroke-opacity:1; fill:none" points="1110.95,314.266 1382.5,314.266 1382.5,223.75 1110.95,223.75 1110.95,314.266 "/>
<path clip-path="url(#clip331)" d="M1110.95 223.75 L1382.5 223.75 L1382.5 133.234 L1110.95 133.234 L1110.95 223.75 L1110.95 223.75  Z" fill="#808080" fill-rule="evenodd" fill-opacity="1"/>
<polyline clip-path="url(#clip331)" style="stroke:#000000; stroke-linecap:round; stroke-linejoin:round; stroke-width:4; stroke-opacity:1; fill:none" points="1110.95,223.75 1382.5,223.75 1382.5,133.234 1110.95,133.234 1110.95,223.75 "/>
<path clip-path="url(#clip331)" d="M1110.95 1249.6 L1201.47 1249.6 L1201.47 1219.43 L1110.95 1219.43 L1110.95 1249.6 L1110.95 1249.6  Z" fill="#808080" fill-rule="evenodd" fill-opacity="1"/>
<polyline clip-path="url(#clip331)" style="stroke:#000000; stroke-linecap:round; stroke-linejoin:round; stroke-width:4; stroke-opacity:1; fill:none" points="1110.95,1249.6 1201.47,1249.6 1201.47,1219.43 1110.95,1219.43 1110.95,1249.6 "/>
<path clip-path="url(#clip331)" d="M1110.95 1189.25 L1201.47 1189.25 L1201.47 1159.08 L1110.95 1159.08 L1110.95 1189.25 L1110.95 1189.25  Z" fill="#808080" fill-rule="evenodd" fill-opacity="1"/>
<polyline clip-path="url(#clip331)" style="stroke:#000000; stroke-linecap:round; stroke-linejoin:round; stroke-width:4; stroke-opacity:1; fill:none" points="1110.95,1189.25 1201.47,1189.25 1201.47,1159.08 1110.95,1159.08 1110.95,1189.25 "/>
<path clip-path="url(#clip331)" d="M1201.47 1279.77 L1291.98 1279.77 L1291.98 1249.6 L1201.47 1249.6 L1201.47 1279.77 L1201.47 1279.77  Z" fill="#808080" fill-rule="evenodd" fill-opacity="1"/>
<polyline clip-path="url(#clip331)" style="stroke:#000000; stroke-linecap:round; stroke-linejoin:round; stroke-width:4; stroke-opacity:1; fill:none" points="1201.47,1279.77 1291.98,1279.77 1291.98,1249.6 1201.47,1249.6 1201.47,1279.77 "/>
<path clip-path="url(#clip331)" d="M1201.47 1249.6 L1291.98 1249.6 L1291.98 1219.43 L1201.47 1219.43 L1201.47 1249.6 L1201.47 1249.6  Z" fill="#808080" fill-rule="evenodd" fill-opacity="1"/>
<polyline clip-path="url(#clip331)" style="stroke:#000000; stroke-linecap:round; stroke-linejoin:round; stroke-width:4; stroke-opacity:1; fill:none" points="1201.47,1249.6 1291.98,1249.6 1291.98,1219.43 1201.47,1219.43 1201.47,1249.6 "/>
<path clip-path="url(#clip331)" d="M1201.47 1189.25 L1291.98 1189.25 L1291.98 1159.08 L1201.47 1159.08 L1201.47 1189.25 L1201.47 1189.25  Z" fill="#808080" fill-rule="evenodd" fill-opacity="1"/>
<polyline clip-path="url(#clip331)" style="stroke:#000000; stroke-linecap:round; stroke-linejoin:round; stroke-width:4; stroke-opacity:1; fill:none" points="1201.47,1189.25 1291.98,1189.25 1291.98,1159.08 1201.47,1159.08 1201.47,1189.25 "/>
<path clip-path="url(#clip331)" d="M1291.98 1219.43 L1382.5 1219.43 L1382.5 1189.25 L1291.98 1189.25 L1291.98 1219.43 L1291.98 1219.43  Z" fill="#808080" fill-rule="evenodd" fill-opacity="1"/>
<polyline clip-path="url(#clip331)" style="stroke:#000000; stroke-linecap:round; stroke-linejoin:round; stroke-width:4; stroke-opacity:1; fill:none" points="1291.98,1219.43 1382.5,1219.43 1382.5,1189.25 1291.98,1189.25 1291.98,1219.43 "/>
<path clip-path="url(#clip331)" d="M1110.95 1219.43 L1201.47 1219.43 L1201.47 1189.25 L1110.95 1189.25 L1110.95 1219.43 L1110.95 1219.43  Z" fill="#808080" fill-rule="evenodd" fill-opacity="1"/>
<polyline clip-path="url(#clip331)" style="stroke:#000000; stroke-linecap:round; stroke-linejoin:round; stroke-width:4; stroke-opacity:1; fill:none" points="1110.95,1219.43 1201.47,1219.43 1201.47,1189.25 1110.95,1189.25 1110.95,1219.43 "/>
<path clip-path="url(#clip331)" d="M1291.98 1159.08 L1382.5 1159.08 L1382.5 1128.91 L1291.98 1128.91 L1291.98 1159.08 L1291.98 1159.08  Z" fill="#808080" fill-rule="evenodd" fill-opacity="1"/>
<polyline clip-path="url(#clip331)" style="stroke:#000000; stroke-linecap:round; stroke-linejoin:round; stroke-width:4; stroke-opacity:1; fill:none" points="1291.98,1159.08 1382.5,1159.08 1382.5,1128.91 1291.98,1128.91 1291.98,1159.08 "/>
<path clip-path="url(#clip331)" d="M1291.98 1309.94 L1382.5 1309.94 L1382.5 1279.77 L1291.98 1279.77 L1291.98 1309.94 L1291.98 1309.94  Z" fill="#808080" fill-rule="evenodd" fill-opacity="1"/>
<polyline clip-path="url(#clip331)" style="stroke:#000000; stroke-linecap:round; stroke-linejoin:round; stroke-width:4; stroke-opacity:1; fill:none" points="1291.98,1309.94 1382.5,1309.94 1382.5,1279.77 1291.98,1279.77 1291.98,1309.94 "/>
<path clip-path="url(#clip331)" d="M1110.95 1159.08 L1201.47 1159.08 L1201.47 1128.91 L1110.95 1128.91 L1110.95 1159.08 L1110.95 1159.08  Z" fill="#808080" fill-rule="evenodd" fill-opacity="1"/>
<polyline clip-path="url(#clip331)" style="stroke:#000000; stroke-linecap:round; stroke-linejoin:round; stroke-width:4; stroke-opacity:1; fill:none" points="1110.95,1159.08 1201.47,1159.08 1201.47,1128.91 1110.95,1128.91 1110.95,1159.08 "/>
<path clip-path="url(#clip331)" d="M1110.95 1309.94 L1201.47 1309.94 L1201.47 1279.77 L1110.95 1279.77 L1110.95 1309.94 L1110.95 1309.94  Z" fill="#808080" fill-rule="evenodd" fill-opacity="1"/>
<polyline clip-path="url(#clip331)" style="stroke:#000000; stroke-linecap:round; stroke-linejoin:round; stroke-width:4; stroke-opacity:1; fill:none" points="1110.95,1309.94 1201.47,1309.94 1201.47,1279.77 1110.95,1279.77 1110.95,1309.94 "/>
<path clip-path="url(#clip331)" d="M1201.47 1219.43 L1291.98 1219.43 L1291.98 1189.25 L1201.47 1189.25 L1201.47 1219.43 L1201.47 1219.43  Z" fill="#808080" fill-rule="evenodd" fill-opacity="1"/>
<polyline clip-path="url(#clip331)" style="stroke:#000000; stroke-linecap:round; stroke-linejoin:round; stroke-width:4; stroke-opacity:1; fill:none" points="1201.47,1219.43 1291.98,1219.43 1291.98,1189.25 1201.47,1189.25 1201.47,1219.43 "/>
<path clip-path="url(#clip331)" d="M1291.98 1279.77 L1382.5 1279.77 L1382.5 1249.6 L1291.98 1249.6 L1291.98 1279.77 L1291.98 1279.77  Z" fill="#808080" fill-rule="evenodd" fill-opacity="1"/>
<polyline clip-path="url(#clip331)" style="stroke:#000000; stroke-linecap:round; stroke-linejoin:round; stroke-width:4; stroke-opacity:1; fill:none" points="1291.98,1279.77 1382.5,1279.77 1382.5,1249.6 1291.98,1249.6 1291.98,1279.77 "/>
<path clip-path="url(#clip331)" d="M1201.47 1159.08 L1291.98 1159.08 L1291.98 1128.91 L1201.47 1128.91 L1201.47 1159.08 L1201.47 1159.08  Z" fill="#808080" fill-rule="evenodd" fill-opacity="1"/>
<polyline clip-path="url(#clip331)" style="stroke:#000000; stroke-linecap:round; stroke-linejoin:round; stroke-width:4; stroke-opacity:1; fill:none" points="1201.47,1159.08 1291.98,1159.08 1291.98,1128.91 1201.47,1128.91 1201.47,1159.08 "/>
<path clip-path="url(#clip331)" d="M1110.95 1279.77 L1201.47 1279.77 L1201.47 1249.6 L1110.95 1249.6 L1110.95 1279.77 L1110.95 1279.77  Z" fill="#808080" fill-rule="evenodd" fill-opacity="1"/>
<polyline clip-path="url(#clip331)" style="stroke:#000000; stroke-linecap:round; stroke-linejoin:round; stroke-width:4; stroke-opacity:1; fill:none" points="1110.95,1279.77 1201.47,1279.77 1201.47,1249.6 1110.95,1249.6 1110.95,1279.77 "/>
<path clip-path="url(#clip331)" d="M1291.98 1249.6 L1382.5 1249.6 L1382.5 1219.43 L1291.98 1219.43 L1291.98 1249.6 L1291.98 1249.6  Z" fill="#808080" fill-rule="evenodd" fill-opacity="1"/>
<polyline clip-path="url(#clip331)" style="stroke:#000000; stroke-linecap:round; stroke-linejoin:round; stroke-width:4; stroke-opacity:1; fill:none" points="1291.98,1249.6 1382.5,1249.6 1382.5,1219.43 1291.98,1219.43 1291.98,1249.6 "/>
<path clip-path="url(#clip331)" d="M1291.98 1189.25 L1382.5 1189.25 L1382.5 1159.08 L1291.98 1159.08 L1291.98 1189.25 L1291.98 1189.25  Z" fill="#808080" fill-rule="evenodd" fill-opacity="1"/>
<polyline clip-path="url(#clip331)" style="stroke:#000000; stroke-linecap:round; stroke-linejoin:round; stroke-width:4; stroke-opacity:1; fill:none" points="1291.98,1189.25 1382.5,1189.25 1382.5,1159.08 1291.98,1159.08 1291.98,1189.25 "/>
<path clip-path="url(#clip331)" d="M1201.47 1309.94 L1291.98 1309.94 L1291.98 1279.77 L1201.47 1279.77 L1201.47 1309.94 L1201.47 1309.94  Z" fill="#808080" fill-rule="evenodd" fill-opacity="1"/>
<polyline clip-path="url(#clip331)" style="stroke:#000000; stroke-linecap:round; stroke-linejoin:round; stroke-width:4; stroke-opacity:1; fill:none" points="1201.47,1309.94 1291.98,1309.94 1291.98,1279.77 1201.47,1279.77 1201.47,1309.94 "/>
<path clip-path="url(#clip331)" d="M929.92 1370.29 L960.092 1370.29 L960.092 1360.23 L929.92 1360.23 L929.92 1370.29 L929.92 1370.29  Z" fill="#808080" fill-rule="evenodd" fill-opacity="1"/>
<polyline clip-path="url(#clip331)" style="stroke:#000000; stroke-linecap:round; stroke-linejoin:round; stroke-width:4; stroke-opacity:1; fill:none" points="929.92,1370.29 960.092,1370.29 960.092,1360.23 929.92,1360.23 929.92,1370.29 "/>
<path clip-path="url(#clip331)" d="M960.092 1350.17 L990.264 1350.17 L990.264 1340.11 L960.092 1340.11 L960.092 1350.17 L960.092 1350.17  Z" fill="#808080" fill-rule="evenodd" fill-opacity="1"/>
<polyline clip-path="url(#clip331)" style="stroke:#000000; stroke-linecap:round; stroke-linejoin:round; stroke-width:4; stroke-opacity:1; fill:none" points="960.092,1350.17 990.264,1350.17 990.264,1340.11 960.092,1340.11 960.092,1350.17 "/>
<path clip-path="url(#clip331)" d="M990.264 1370.29 L1020.44 1370.29 L1020.44 1360.23 L990.264 1360.23 L990.264 1370.29 L990.264 1370.29  Z" fill="#808080" fill-rule="evenodd" fill-opacity="1"/>
<polyline clip-path="url(#clip331)" style="stroke:#000000; stroke-linecap:round; stroke-linejoin:round; stroke-width:4; stroke-opacity:1; fill:none" points="990.264,1370.29 1020.44,1370.29 1020.44,1360.23 990.264,1360.23 990.264,1370.29 "/>
<path clip-path="url(#clip331)" d="M929.92 1360.23 L960.092 1360.23 L960.092 1350.17 L929.92 1350.17 L929.92 1360.23 L929.92 1360.23  Z" fill="#808080" fill-rule="evenodd" fill-opacity="1"/>
<polyline clip-path="url(#clip331)" style="stroke:#000000; stroke-linecap:round; stroke-linejoin:round; stroke-width:4; stroke-opacity:1; fill:none" points="929.92,1360.23 960.092,1360.23 960.092,1350.17 929.92,1350.17 929.92,1360.23 "/>
<path clip-path="url(#clip331)" d="M929.92 1350.17 L960.092 1350.17 L960.092 1340.11 L929.92 1340.11 L929.92 1350.17 L929.92 1350.17  Z" fill="#808080" fill-rule="evenodd" fill-opacity="1"/>
<polyline clip-path="url(#clip331)" style="stroke:#000000; stroke-linecap:round; stroke-linejoin:round; stroke-width:4; stroke-opacity:1; fill:none" points="929.92,1350.17 960.092,1350.17 960.092,1340.11 929.92,1340.11 929.92,1350.17 "/>
<path clip-path="url(#clip331)" d="M990.264 1360.23 L1020.44 1360.23 L1020.44 1350.17 L990.264 1350.17 L990.264 1360.23 L990.264 1360.23  Z" fill="#808080" fill-rule="evenodd" fill-opacity="1"/>
<polyline clip-path="url(#clip331)" style="stroke:#000000; stroke-linecap:round; stroke-linejoin:round; stroke-width:4; stroke-opacity:1; fill:none" points="990.264,1360.23 1020.44,1360.23 1020.44,1350.17 990.264,1350.17 990.264,1360.23 "/>
<path clip-path="url(#clip331)" d="M960.092 1370.29 L990.264 1370.29 L990.264 1360.23 L960.092 1360.23 L960.092 1370.29 L960.092 1370.29  Z" fill="#808080" fill-rule="evenodd" fill-opacity="1"/>
<polyline clip-path="url(#clip331)" style="stroke:#000000; stroke-linecap:round; stroke-linejoin:round; stroke-width:4; stroke-opacity:1; fill:none" points="960.092,1370.29 990.264,1370.29 990.264,1360.23 960.092,1360.23 960.092,1370.29 "/>
<path clip-path="url(#clip331)" d="M990.264 1350.17 L1020.44 1350.17 L1020.44 1340.11 L990.264 1340.11 L990.264 1350.17 L990.264 1350.17  Z" fill="#808080" fill-rule="evenodd" fill-opacity="1"/>
<polyline clip-path="url(#clip331)" style="stroke:#000000; stroke-linecap:round; stroke-linejoin:round; stroke-width:4; stroke-opacity:1; fill:none" points="990.264,1350.17 1020.44,1350.17 1020.44,1340.11 990.264,1340.11 990.264,1350.17 "/>
<path clip-path="url(#clip331)" d="M960.092 1360.23 L990.264 1360.23 L990.264 1350.17 L960.092 1350.17 L960.092 1360.23 L960.092 1360.23  Z" fill="#808080" fill-rule="evenodd" fill-opacity="1"/>
<polyline clip-path="url(#clip331)" style="stroke:#000000; stroke-linecap:round; stroke-linejoin:round; stroke-width:4; stroke-opacity:1; fill:none" points="960.092,1360.23 990.264,1360.23 990.264,1350.17 960.092,1350.17 960.092,1360.23 "/>
</svg>
