<?xml version="1.0" encoding="utf-8"?>
<svg xmlns="http://www.w3.org/2000/svg" xmlns:xlink="http://www.w3.org/1999/xlink" width="600" height="400" viewBox="0 0 2400 1600">
<defs>
  <clipPath id="clip870">
    <rect x="0" y="0" width="2400" height="1600"/>
  </clipPath>
</defs>
<path clip-path="url(#clip870)" d="M0 1600 L2400 1600 L2400 0 L0 0  Z" fill="#ffffff" fill-rule="evenodd" fill-opacity="1"/>
<defs>
  <clipPath id="clip871">
    <rect x="480" y="0" width="1681" height="1600"/>
  </clipPath>
</defs>
<path clip-path="url(#clip870)" d="M286.703 1392.94 L2352.76 1392.94 L2352.76 123.472 L286.703 123.472  Z" fill="#ffffff" fill-rule="evenodd" fill-opacity="1"/>
<defs>
  <clipPath id="clip872">
    <rect x="286" y="123" width="2067" height="1270"/>
  </clipPath>
</defs>
<polyline clip-path="url(#clip872)" style="stroke:#000000; stroke-linecap:round; stroke-linejoin:round; stroke-width:2; stroke-opacity:0.1; fill:none" points="421.521,1392.94 421.521,123.472 "/>
<polyline clip-path="url(#clip872)" style="stroke:#000000; stroke-linecap:round; stroke-linejoin:round; stroke-width:2; stroke-opacity:0.1; fill:none" points="720.924,1392.94 720.924,123.472 "/>
<polyline clip-path="url(#clip872)" style="stroke:#000000; stroke-linecap:round; stroke-linejoin:round; stroke-width:2; stroke-opacity:0.1; fill:none" points="1020.33,1392.94 1020.33,123.472 "/>
<polyline clip-path="url(#clip872)" style="stroke:#000000; stroke-linecap:round; stroke-linejoin:round; stroke-width:2; stroke-opacity:0.1; fill:none" points="1319.73,1392.94 1319.73,123.472 "/>
<polyline clip-path="url(#clip872)" style="stroke:#000000; stroke-linecap:round; stroke-linejoin:round; stroke-width:2; stroke-opacity:0.1; fill:none" points="1619.13,1392.94 1619.13,123.472 "/>
<polyline clip-path="url(#clip872)" style="stroke:#000000; stroke-linecap:round; stroke-linejoin:round; stroke-width:2; stroke-opacity:0.1; fill:none" points="1918.54,1392.94 1918.54,123.472 "/>
<polyline clip-path="url(#clip872)" style="stroke:#000000; stroke-linecap:round; stroke-linejoin:round; stroke-width:2; stroke-opacity:0.1; fill:none" points="2217.94,1392.94 2217.94,123.472 "/>
<polyline clip-path="url(#clip872)" style="stroke:#000000; stroke-linecap:round; stroke-linejoin:round; stroke-width:2; stroke-opacity:0.1; fill:none" points="286.703,1357.01 2352.76,1357.01 "/>
<polyline clip-path="url(#clip872)" style="stroke:#000000; stroke-linecap:round; stroke-linejoin:round; stroke-width:2; stroke-opacity:0.1; fill:none" points="286.703,1057.61 2352.76,1057.61 "/>
<polyline clip-path="url(#clip872)" style="stroke:#000000; stroke-linecap:round; stroke-linejoin:round; stroke-width:2; stroke-opacity:0.1; fill:none" points="286.703,758.206 2352.76,758.206 "/>
<polyline clip-path="url(#clip872)" style="stroke:#000000; stroke-linecap:round; stroke-linejoin:round; stroke-width:2; stroke-opacity:0.1; fill:none" points="286.703,458.803 2352.76,458.803 "/>
<polyline clip-path="url(#clip872)" style="stroke:#000000; stroke-linecap:round; stroke-linejoin:round; stroke-width:2; stroke-opacity:0.1; fill:none" points="286.703,159.4 2352.76,159.4 "/>
<polyline clip-path="url(#clip870)" style="stroke:#000000; stroke-linecap:round; stroke-linejoin:round; stroke-width:4; stroke-opacity:1; fill:none" points="286.703,1392.94 2352.76,1392.94 "/>
<polyline clip-path="url(#clip870)" style="stroke:#000000; stroke-linecap:round; stroke-linejoin:round; stroke-width:4; stroke-opacity:1; fill:none" points="421.521,1392.94 421.521,1374.04 "/>
<polyline clip-path="url(#clip870)" style="stroke:#000000; stroke-linecap:round; stroke-linejoin:round; stroke-width:4; stroke-opacity:1; fill:none" points="720.924,1392.94 720.924,1374.04 "/>
<polyline clip-path="url(#clip870)" style="stroke:#000000; stroke-linecap:round; stroke-linejoin:round; stroke-width:4; stroke-opacity:1; fill:none" points="1020.33,1392.94 1020.33,1374.04 "/>
<polyline clip-path="url(#clip870)" style="stroke:#000000; stroke-linecap:round; stroke-linejoin:round; stroke-width:4; stroke-opacity:1; fill:none" points="1319.73,1392.94 1319.73,1374.04 "/>
<polyline clip-path="url(#clip870)" style="stroke:#000000; stroke-linecap:round; stroke-linejoin:round; stroke-width:4; stroke-opacity:1; fill:none" points="1619.13,1392.94 1619.13,1374.04 "/>
<polyline clip-path="url(#clip870)" style="stroke:#000000; stroke-linecap:round; stroke-linejoin:round; stroke-width:4; stroke-opacity:1; fill:none" points="1918.54,1392.94 1918.54,1374.04 "/>
<polyline clip-path="url(#clip870)" style="stroke:#000000; stroke-linecap:round; stroke-linejoin:round; stroke-width:4; stroke-opacity:1; fill:none" points="2217.94,1392.94 2217.94,1374.04 "/>
<path clip-path="url(#clip870)" d="M364.1 1445.1 L401.194 1445.1 L401.194 1450.02 L364.1 1450.02 L364.1 1445.1 Z" fill="#000000" fill-rule="nonzero" fill-opacity="1" /><path clip-path="url(#clip870)" d="M431.518 1442.85 Q435.714 1443.74 438.058 1446.58 Q440.43 1449.42 440.43 1453.58 Q440.43 1459.98 436.032 1463.48 Q431.634 1466.98 423.532 1466.98 Q420.812 1466.98 417.919 1466.43 Q415.054 1465.91 411.987 1464.84 L411.987 1459.2 Q414.418 1460.61 417.311 1461.34 Q420.205 1462.06 423.359 1462.06 Q428.856 1462.06 431.721 1459.89 Q434.614 1457.72 434.614 1453.58 Q434.614 1449.76 431.923 1447.62 Q429.261 1445.45 424.487 1445.45 L419.452 1445.45 L419.452 1440.65 L424.719 1440.65 Q429.03 1440.65 431.316 1438.94 Q433.602 1437.2 433.602 1433.96 Q433.602 1430.64 431.229 1428.87 Q428.885 1427.08 424.487 1427.08 Q422.086 1427.08 419.337 1427.6 Q416.588 1428.12 413.289 1429.22 L413.289 1424.01 Q416.617 1423.08 419.51 1422.62 Q422.433 1422.16 425.008 1422.16 Q431.663 1422.16 435.54 1425.2 Q439.418 1428.21 439.418 1433.36 Q439.418 1436.94 437.363 1439.43 Q435.309 1441.89 431.518 1442.85 Z" fill="#000000" fill-rule="nonzero" fill-opacity="1" /><path clip-path="url(#clip870)" d="M464.012 1426.79 Q459.499 1426.79 457.213 1431.24 Q454.956 1435.67 454.956 1444.58 Q454.956 1453.47 457.213 1457.92 Q459.499 1462.35 464.012 1462.35 Q468.555 1462.35 470.812 1457.92 Q473.098 1453.47 473.098 1444.58 Q473.098 1435.67 470.812 1431.24 Q468.555 1426.79 464.012 1426.79 M464.012 1422.16 Q471.275 1422.16 475.095 1427.92 Q478.943 1433.65 478.943 1444.58 Q478.943 1455.49 475.095 1461.25 Q471.275 1466.98 464.012 1466.98 Q456.75 1466.98 452.901 1461.25 Q449.082 1455.49 449.082 1444.58 Q449.082 1433.65 452.901 1427.92 Q456.75 1422.16 464.012 1422.16 Z" fill="#000000" fill-rule="nonzero" fill-opacity="1" /><path clip-path="url(#clip870)" d="M663.503 1445.1 L700.597 1445.1 L700.597 1450.02 L663.503 1450.02 L663.503 1445.1 Z" fill="#000000" fill-rule="nonzero" fill-opacity="1" /><path clip-path="url(#clip870)" d="M718.248 1461.22 L738.647 1461.22 L738.647 1466.14 L711.216 1466.14 L711.216 1461.22 Q714.544 1457.78 720.273 1451.99 Q726.031 1446.17 727.507 1444.5 Q730.313 1441.34 731.413 1439.17 Q732.541 1436.97 732.541 1434.86 Q732.541 1431.42 730.111 1429.25 Q727.709 1427.08 723.832 1427.08 Q721.083 1427.08 718.016 1428.03 Q714.978 1428.99 711.506 1430.93 L711.506 1425.02 Q715.036 1423.61 718.103 1422.88 Q721.17 1422.16 723.716 1422.16 Q730.429 1422.16 734.422 1425.52 Q738.415 1428.87 738.415 1434.48 Q738.415 1437.15 737.403 1439.55 Q736.419 1441.92 733.786 1445.16 Q733.062 1446 729.185 1450.02 Q725.308 1454.02 718.248 1461.22 Z" fill="#000000" fill-rule="nonzero" fill-opacity="1" /><path clip-path="url(#clip870)" d="M763.415 1426.79 Q758.901 1426.79 756.615 1431.24 Q754.358 1435.67 754.358 1444.58 Q754.358 1453.47 756.615 1457.92 Q758.901 1462.35 763.415 1462.35 Q767.958 1462.35 770.215 1457.92 Q772.501 1453.47 772.501 1444.58 Q772.501 1435.67 770.215 1431.24 Q767.958 1426.79 763.415 1426.79 M763.415 1422.16 Q770.678 1422.16 774.497 1427.92 Q778.346 1433.65 778.346 1444.58 Q778.346 1455.49 774.497 1461.25 Q770.678 1466.98 763.415 1466.98 Q756.152 1466.98 752.304 1461.25 Q748.485 1455.49 748.485 1444.58 Q748.485 1433.65 752.304 1427.92 Q756.152 1422.16 763.415 1422.16 Z" fill="#000000" fill-rule="nonzero" fill-opacity="1" /><path clip-path="url(#clip870)" d="M962.905 1445.1 L1000 1445.1 L1000 1450.02 L962.905 1450.02 L962.905 1445.1 Z" fill="#000000" fill-rule="nonzero" fill-opacity="1" /><path clip-path="url(#clip870)" d="M1013.63 1461.22 L1023.18 1461.22 L1023.18 1428.26 L1012.79 1430.35 L1012.79 1425.02 L1023.12 1422.94 L1028.96 1422.94 L1028.96 1461.22 L1038.51 1461.22 L1038.51 1466.14 L1013.63 1466.14 L1013.63 1461.22 Z" fill="#000000" fill-rule="nonzero" fill-opacity="1" /><path clip-path="url(#clip870)" d="M1062.82 1426.79 Q1058.3 1426.79 1056.02 1431.24 Q1053.76 1435.67 1053.76 1444.58 Q1053.76 1453.47 1056.02 1457.92 Q1058.3 1462.35 1062.82 1462.35 Q1067.36 1462.35 1069.62 1457.92 Q1071.9 1453.47 1071.9 1444.58 Q1071.9 1435.67 1069.62 1431.24 Q1067.36 1426.79 1062.82 1426.79 M1062.82 1422.16 Q1070.08 1422.16 1073.9 1427.92 Q1077.75 1433.65 1077.75 1444.58 Q1077.75 1455.49 1073.9 1461.25 Q1070.08 1466.98 1062.82 1466.98 Q1055.56 1466.98 1051.71 1461.25 Q1047.89 1455.49 1047.89 1444.58 Q1047.89 1433.65 1051.71 1427.92 Q1055.56 1422.16 1062.82 1422.16 Z" fill="#000000" fill-rule="nonzero" fill-opacity="1" /><path clip-path="url(#clip870)" d="M1319.73 1426.79 Q1315.22 1426.79 1312.93 1431.24 Q1310.67 1435.67 1310.67 1444.58 Q1310.67 1453.47 1312.93 1457.92 Q1315.22 1462.35 1319.73 1462.35 Q1324.27 1462.35 1326.53 1457.92 Q1328.82 1453.47 1328.82 1444.58 Q1328.82 1435.67 1326.53 1431.24 Q1324.27 1426.79 1319.73 1426.79 M1319.73 1422.16 Q1326.99 1422.16 1330.81 1427.92 Q1334.66 1433.65 1334.66 1444.58 Q1334.66 1455.49 1330.81 1461.25 Q1326.99 1466.98 1319.73 1466.98 Q1312.47 1466.98 1308.62 1461.25 Q1304.8 1455.49 1304.8 1444.58 Q1304.8 1433.65 1308.62 1427.92 Q1312.47 1422.16 1319.73 1422.16 Z" fill="#000000" fill-rule="nonzero" fill-opacity="1" /><path clip-path="url(#clip870)" d="M1587.49 1461.22 L1597.04 1461.22 L1597.04 1428.26 L1586.65 1430.35 L1586.65 1425.02 L1596.98 1422.94 L1602.83 1422.94 L1602.83 1461.22 L1612.38 1461.22 L1612.38 1466.14 L1587.49 1466.14 L1587.49 1461.22 Z" fill="#000000" fill-rule="nonzero" fill-opacity="1" /><path clip-path="url(#clip870)" d="M1636.68 1426.79 Q1632.17 1426.79 1629.88 1431.24 Q1627.62 1435.67 1627.62 1444.58 Q1627.62 1453.47 1629.88 1457.92 Q1632.17 1462.35 1636.68 1462.35 Q1641.22 1462.35 1643.48 1457.92 Q1645.77 1453.47 1645.77 1444.58 Q1645.77 1435.67 1643.48 1431.24 Q1641.22 1426.79 1636.68 1426.79 M1636.68 1422.16 Q1643.94 1422.16 1647.76 1427.92 Q1651.61 1433.65 1651.61 1444.58 Q1651.61 1455.49 1647.76 1461.25 Q1643.94 1466.98 1636.68 1466.98 Q1629.42 1466.98 1625.57 1461.25 Q1621.75 1455.49 1621.75 1444.58 Q1621.75 1433.65 1625.57 1427.92 Q1629.42 1422.16 1636.68 1422.16 Z" fill="#000000" fill-rule="nonzero" fill-opacity="1" /><path clip-path="url(#clip870)" d="M1892 1461.22 L1912.4 1461.22 L1912.4 1466.14 L1884.97 1466.14 L1884.97 1461.22 Q1888.3 1457.78 1894.03 1451.99 Q1899.79 1446.17 1901.26 1444.5 Q1904.07 1441.34 1905.17 1439.17 Q1906.3 1436.97 1906.3 1434.86 Q1906.3 1431.42 1903.87 1429.25 Q1901.46 1427.08 1897.59 1427.08 Q1894.84 1427.08 1891.77 1428.03 Q1888.73 1428.99 1885.26 1430.93 L1885.26 1425.02 Q1888.79 1423.61 1891.86 1422.88 Q1894.92 1422.16 1897.47 1422.16 Q1904.18 1422.16 1908.18 1425.52 Q1912.17 1428.87 1912.17 1434.48 Q1912.17 1437.15 1911.16 1439.55 Q1910.17 1441.92 1907.54 1445.16 Q1906.82 1446 1902.94 1450.02 Q1899.06 1454.02 1892 1461.22 Z" fill="#000000" fill-rule="nonzero" fill-opacity="1" /><path clip-path="url(#clip870)" d="M1937.17 1426.79 Q1932.66 1426.79 1930.37 1431.24 Q1928.11 1435.67 1928.11 1444.58 Q1928.11 1453.47 1930.37 1457.92 Q1932.66 1462.35 1937.17 1462.35 Q1941.71 1462.35 1943.97 1457.92 Q1946.25 1453.47 1946.25 1444.58 Q1946.25 1435.67 1943.97 1431.24 Q1941.71 1426.79 1937.17 1426.79 M1937.17 1422.16 Q1944.43 1422.16 1948.25 1427.92 Q1952.1 1433.65 1952.1 1444.58 Q1952.1 1455.49 1948.25 1461.25 Q1944.43 1466.98 1937.17 1466.98 Q1929.91 1466.98 1926.06 1461.25 Q1922.24 1455.49 1922.24 1444.58 Q1922.24 1433.65 1926.06 1427.92 Q1929.91 1422.16 1937.17 1422.16 Z" fill="#000000" fill-rule="nonzero" fill-opacity="1" /><path clip-path="url(#clip870)" d="M2203.99 1442.85 Q2208.19 1443.74 2210.53 1446.58 Q2212.9 1449.42 2212.9 1453.58 Q2212.9 1459.98 2208.51 1463.48 Q2204.11 1466.98 2196.01 1466.98 Q2193.29 1466.98 2190.39 1466.43 Q2187.53 1465.91 2184.46 1464.84 L2184.46 1459.2 Q2186.89 1460.61 2189.78 1461.34 Q2192.68 1462.06 2195.83 1462.06 Q2201.33 1462.06 2204.19 1459.89 Q2207.09 1457.72 2207.09 1453.58 Q2207.09 1449.76 2204.4 1447.62 Q2201.73 1445.45 2196.96 1445.45 L2191.93 1445.45 L2191.93 1440.65 L2197.19 1440.65 Q2201.5 1440.65 2203.79 1438.94 Q2206.07 1437.2 2206.07 1433.96 Q2206.07 1430.64 2203.7 1428.87 Q2201.36 1427.08 2196.96 1427.08 Q2194.56 1427.08 2191.81 1427.6 Q2189.06 1428.12 2185.76 1429.22 L2185.76 1424.01 Q2189.09 1423.08 2191.98 1422.62 Q2194.91 1422.16 2197.48 1422.16 Q2204.14 1422.16 2208.01 1425.2 Q2211.89 1428.21 2211.89 1433.36 Q2211.89 1436.94 2209.84 1439.43 Q2207.78 1441.89 2203.99 1442.85 Z" fill="#000000" fill-rule="nonzero" fill-opacity="1" /><path clip-path="url(#clip870)" d="M2236.49 1426.79 Q2231.97 1426.79 2229.69 1431.24 Q2227.43 1435.67 2227.43 1444.58 Q2227.43 1453.47 2229.69 1457.92 Q2231.97 1462.35 2236.49 1462.35 Q2241.03 1462.35 2243.28 1457.92 Q2245.57 1453.47 2245.57 1444.58 Q2245.57 1435.67 2243.28 1431.24 Q2241.03 1426.79 2236.49 1426.79 M2236.49 1422.16 Q2243.75 1422.16 2247.57 1427.92 Q2251.42 1433.65 2251.42 1444.58 Q2251.42 1455.49 2247.57 1461.25 Q2243.75 1466.98 2236.49 1466.98 Q2229.22 1466.98 2225.37 1461.25 Q2221.55 1455.49 2221.55 1444.58 Q2221.55 1433.65 2225.37 1427.92 Q2229.22 1422.16 2236.49 1422.16 Z" fill="#000000" fill-rule="nonzero" fill-opacity="1" /><path clip-path="url(#clip870)" d="M1322.64 1506.31 Q1322.64 1508.94 1321 1510.44 Q1319.36 1511.89 1317.49 1511.89 Q1315.71 1511.89 1314.77 1510.86 Q1313.83 1509.83 1313.83 1508.51 Q1313.83 1506.73 1315.14 1505.19 Q1316.46 1503.64 1318.42 1503.32 Q1316.5 1502.1 1313.65 1502.1 Q1311.77 1502.1 1310.13 1503.08 Q1308.54 1504.06 1307.56 1505.33 Q1306.62 1506.59 1305.78 1508.42 Q1304.98 1510.2 1304.65 1511.28 Q1304.37 1512.31 1304.14 1513.43 L1300.86 1526.55 Q1299.26 1532.78 1299.26 1534.98 Q1299.26 1537.7 1300.58 1539.53 Q1301.89 1541.31 1304.51 1541.31 Q1305.54 1541.31 1306.71 1541.03 Q1307.88 1540.7 1309.38 1539.85 Q1310.93 1538.96 1312.29 1537.65 Q1313.69 1536.29 1315.05 1534 Q1316.41 1531.7 1317.3 1528.75 Q1317.58 1527.72 1318.52 1527.72 Q1319.69 1527.72 1319.69 1528.66 Q1319.69 1529.45 1319.03 1531.14 Q1318.42 1532.78 1317.06 1534.94 Q1315.75 1537.04 1314.02 1538.96 Q1312.29 1540.84 1309.71 1542.15 Q1307.13 1543.46 1304.32 1543.46 Q1300.29 1543.46 1297.62 1541.31 Q1294.95 1539.15 1293.97 1536.15 Q1293.74 1536.57 1293.41 1537.14 Q1293.08 1537.7 1292.1 1538.96 Q1291.16 1540.18 1290.08 1541.12 Q1289 1542.01 1287.32 1542.71 Q1285.68 1543.46 1283.9 1543.46 Q1281.65 1543.46 1279.64 1542.81 Q1277.67 1542.15 1276.26 1540.65 Q1274.86 1539.15 1274.86 1537.09 Q1274.86 1534.79 1276.4 1533.2 Q1278 1531.56 1280.15 1531.56 Q1281.51 1531.56 1282.59 1532.36 Q1283.71 1533.16 1283.71 1534.89 Q1283.71 1536.81 1282.4 1538.26 Q1281.09 1539.71 1279.21 1540.09 Q1281.13 1541.31 1283.99 1541.31 Q1287.08 1541.31 1289.52 1538.59 Q1291.96 1535.87 1293.13 1531.33 Q1296.03 1520.41 1297.16 1515.54 Q1298.28 1510.62 1298.28 1508.51 Q1298.28 1506.55 1297.76 1505.19 Q1297.25 1503.83 1296.36 1503.22 Q1295.52 1502.57 1294.72 1502.33 Q1293.97 1502.1 1293.13 1502.1 Q1291.72 1502.1 1290.13 1502.66 Q1288.58 1503.22 1286.71 1504.53 Q1284.88 1505.8 1283.15 1508.42 Q1281.42 1511.04 1280.24 1514.65 Q1280.01 1515.73 1278.98 1515.73 Q1277.86 1515.68 1277.86 1514.75 Q1277.86 1513.95 1278.46 1512.31 Q1279.12 1510.62 1280.43 1508.51 Q1281.79 1506.41 1283.52 1504.53 Q1285.3 1502.61 1287.88 1501.3 Q1290.5 1499.99 1293.31 1499.99 Q1294.58 1499.99 1295.8 1500.27 Q1297.06 1500.5 1298.56 1501.21 Q1300.11 1501.91 1301.47 1503.46 Q1302.82 1505 1303.67 1507.25 Q1304.23 1506.17 1304.98 1505.14 Q1305.78 1504.11 1306.99 1502.85 Q1308.26 1501.53 1309.99 1500.79 Q1311.77 1499.99 1313.74 1499.99 Q1315.66 1499.99 1317.53 1500.5 Q1319.41 1500.97 1321 1502.52 Q1322.64 1504.02 1322.64 1506.31 Z" fill="#000000" fill-rule="nonzero" fill-opacity="1" /><path clip-path="url(#clip870)" d="M1332.41 1531.69 L1332.41 1529.59 Q1340.48 1529.59 1344.64 1525.3 Q1345.79 1525.3 1345.99 1525.56 Q1346.18 1525.82 1346.18 1527.03 L1346.18 1564.71 Q1346.18 1566.71 1347.17 1567.34 Q1348.15 1567.96 1352.45 1567.96 L1354.58 1567.96 L1354.58 1570.02 Q1352.22 1569.83 1343.69 1569.83 Q1335.16 1569.83 1332.84 1570.02 L1332.84 1567.96 L1334.97 1567.96 Q1339.2 1567.96 1340.21 1567.37 Q1341.23 1566.75 1341.23 1564.71 L1341.23 1529.92 Q1337.72 1531.69 1332.41 1531.69 Z" fill="#000000" fill-rule="nonzero" fill-opacity="1" /><polyline clip-path="url(#clip870)" style="stroke:#000000; stroke-linecap:round; stroke-linejoin:round; stroke-width:4; stroke-opacity:1; fill:none" points="286.703,1392.94 286.703,123.472 "/>
<polyline clip-path="url(#clip870)" style="stroke:#000000; stroke-linecap:round; stroke-linejoin:round; stroke-width:4; stroke-opacity:1; fill:none" points="286.703,1357.01 305.601,1357.01 "/>
<polyline clip-path="url(#clip870)" style="stroke:#000000; stroke-linecap:round; stroke-linejoin:round; stroke-width:4; stroke-opacity:1; fill:none" points="286.703,1057.61 305.601,1057.61 "/>
<polyline clip-path="url(#clip870)" style="stroke:#000000; stroke-linecap:round; stroke-linejoin:round; stroke-width:4; stroke-opacity:1; fill:none" points="286.703,758.206 305.601,758.206 "/>
<polyline clip-path="url(#clip870)" style="stroke:#000000; stroke-linecap:round; stroke-linejoin:round; stroke-width:4; stroke-opacity:1; fill:none" points="286.703,458.803 305.601,458.803 "/>
<polyline clip-path="url(#clip870)" style="stroke:#000000; stroke-linecap:round; stroke-linejoin:round; stroke-width:4; stroke-opacity:1; fill:none" points="286.703,159.4 305.601,159.4 "/>
<path clip-path="url(#clip870)" d="M135.86 1357.58 L172.955 1357.58 L172.955 1362.49 L135.86 1362.49 L135.86 1357.58 Z" fill="#000000" fill-rule="nonzero" fill-opacity="1" /><path clip-path="url(#clip870)" d="M190.605 1373.69 L211.004 1373.69 L211.004 1378.61 L183.574 1378.61 L183.574 1373.69 Q186.902 1370.25 192.631 1364.46 Q198.389 1358.65 199.864 1356.97 Q202.671 1353.81 203.771 1351.64 Q204.899 1349.45 204.899 1347.33 Q204.899 1343.89 202.469 1341.72 Q200.067 1339.55 196.19 1339.55 Q193.441 1339.55 190.374 1340.5 Q187.336 1341.46 183.863 1343.4 L183.863 1337.49 Q187.393 1336.08 190.461 1335.35 Q193.528 1334.63 196.074 1334.63 Q202.787 1334.63 206.78 1337.99 Q210.773 1341.34 210.773 1346.96 Q210.773 1349.62 209.76 1352.02 Q208.776 1354.39 206.143 1357.63 Q205.42 1358.47 201.543 1362.49 Q197.665 1366.49 190.605 1373.69 Z" fill="#000000" fill-rule="nonzero" fill-opacity="1" /><path clip-path="url(#clip870)" d="M235.773 1339.26 Q231.259 1339.26 228.973 1343.72 Q226.716 1348.14 226.716 1357.05 Q226.716 1365.94 228.973 1370.39 Q231.259 1374.82 235.773 1374.82 Q240.316 1374.82 242.573 1370.39 Q244.858 1365.94 244.858 1357.05 Q244.858 1348.14 242.573 1343.72 Q240.316 1339.26 235.773 1339.26 M235.773 1334.63 Q243.036 1334.63 246.855 1340.39 Q250.703 1346.12 250.703 1357.05 Q250.703 1367.96 246.855 1373.72 Q243.036 1379.45 235.773 1379.45 Q228.51 1379.45 224.662 1373.72 Q220.842 1367.96 220.842 1357.05 Q220.842 1346.12 224.662 1340.39 Q228.51 1334.63 235.773 1334.63 Z" fill="#000000" fill-rule="nonzero" fill-opacity="1" /><path clip-path="url(#clip870)" d="M135.86 1058.17 L172.955 1058.17 L172.955 1063.09 L135.86 1063.09 L135.86 1058.17 Z" fill="#000000" fill-rule="nonzero" fill-opacity="1" /><path clip-path="url(#clip870)" d="M186.583 1074.29 L196.132 1074.29 L196.132 1041.33 L185.744 1043.42 L185.744 1038.09 L196.074 1036.01 L201.919 1036.01 L201.919 1074.29 L211.467 1074.29 L211.467 1079.21 L186.583 1079.21 L186.583 1074.29 Z" fill="#000000" fill-rule="nonzero" fill-opacity="1" /><path clip-path="url(#clip870)" d="M235.773 1039.86 Q231.259 1039.86 228.973 1044.31 Q226.716 1048.74 226.716 1057.65 Q226.716 1066.54 228.973 1070.99 Q231.259 1075.42 235.773 1075.42 Q240.316 1075.42 242.573 1070.99 Q244.858 1066.54 244.858 1057.65 Q244.858 1048.74 242.573 1044.31 Q240.316 1039.86 235.773 1039.86 M235.773 1035.23 Q243.036 1035.23 246.855 1040.99 Q250.703 1046.71 250.703 1057.65 Q250.703 1068.56 246.855 1074.32 Q243.036 1080.05 235.773 1080.05 Q228.51 1080.05 224.662 1074.32 Q220.842 1068.56 220.842 1057.65 Q220.842 1046.71 224.662 1040.99 Q228.51 1035.23 235.773 1035.23 Z" fill="#000000" fill-rule="nonzero" fill-opacity="1" /><path clip-path="url(#clip870)" d="M235.773 740.454 Q231.259 740.454 228.973 744.91 Q226.716 749.337 226.716 758.249 Q226.716 767.132 228.973 771.588 Q231.259 776.015 235.773 776.015 Q240.316 776.015 242.573 771.588 Q244.858 767.132 244.858 758.249 Q244.858 749.337 242.573 744.91 Q240.316 740.454 235.773 740.454 M235.773 735.825 Q243.036 735.825 246.855 741.583 Q250.703 747.312 250.703 758.249 Q250.703 769.158 246.855 774.916 Q243.036 780.645 235.773 780.645 Q228.51 780.645 224.662 774.916 Q220.842 769.158 220.842 758.249 Q220.842 747.312 224.662 741.583 Q228.51 735.825 235.773 735.825 Z" fill="#000000" fill-rule="nonzero" fill-opacity="1" /><path clip-path="url(#clip870)" d="M186.583 475.484 L196.132 475.484 L196.132 442.527 L185.744 444.611 L185.744 439.287 L196.074 437.203 L201.919 437.203 L201.919 475.484 L211.467 475.484 L211.467 480.403 L186.583 480.403 L186.583 475.484 Z" fill="#000000" fill-rule="nonzero" fill-opacity="1" /><path clip-path="url(#clip870)" d="M235.773 441.052 Q231.259 441.052 228.973 445.508 Q226.716 449.935 226.716 458.847 Q226.716 467.73 228.973 472.186 Q231.259 476.613 235.773 476.613 Q240.316 476.613 242.573 472.186 Q244.858 467.73 244.858 458.847 Q244.858 449.935 242.573 445.508 Q240.316 441.052 235.773 441.052 M235.773 436.422 Q243.036 436.422 246.855 442.18 Q250.703 447.909 250.703 458.847 Q250.703 469.755 246.855 475.513 Q243.036 481.242 235.773 481.242 Q228.51 481.242 224.662 475.513 Q220.842 469.755 220.842 458.847 Q220.842 447.909 224.662 442.18 Q228.51 436.422 235.773 436.422 Z" fill="#000000" fill-rule="nonzero" fill-opacity="1" /><path clip-path="url(#clip870)" d="M190.605 176.082 L211.004 176.082 L211.004 181 L183.574 181 L183.574 176.082 Q186.902 172.638 192.631 166.851 Q198.389 161.035 199.864 159.357 Q202.671 156.203 203.771 154.033 Q204.899 151.834 204.899 149.722 Q204.899 146.278 202.469 144.108 Q200.067 141.938 196.19 141.938 Q193.441 141.938 190.374 142.893 Q187.336 143.848 183.863 145.787 L183.863 139.884 Q187.393 138.466 190.461 137.743 Q193.528 137.019 196.074 137.019 Q202.787 137.019 206.78 140.376 Q210.773 143.732 210.773 149.346 Q210.773 152.008 209.76 154.409 Q208.776 156.782 206.143 160.023 Q205.42 160.862 201.543 164.884 Q197.665 168.877 190.605 176.082 Z" fill="#000000" fill-rule="nonzero" fill-opacity="1" /><path clip-path="url(#clip870)" d="M235.773 141.649 Q231.259 141.649 228.973 146.105 Q226.716 150.532 226.716 159.444 Q226.716 168.327 228.973 172.783 Q231.259 177.21 235.773 177.21 Q240.316 177.21 242.573 172.783 Q244.858 168.327 244.858 159.444 Q244.858 150.532 242.573 146.105 Q240.316 141.649 235.773 141.649 M235.773 137.019 Q243.036 137.019 246.855 142.777 Q250.703 148.506 250.703 159.444 Q250.703 170.352 246.855 176.11 Q243.036 181.84 235.773 181.84 Q228.51 181.84 224.662 176.11 Q220.842 170.352 220.842 159.444 Q220.842 148.506 224.662 142.777 Q228.51 137.019 235.773 137.019 Z" fill="#000000" fill-rule="nonzero" fill-opacity="1" /><path clip-path="url(#clip870)" d="M29.4895 757.599 Q32.1128 757.599 33.6118 759.238 Q35.064 760.878 35.064 762.752 Q35.064 764.532 34.0334 765.469 Q33.0028 766.405 31.6912 766.405 Q29.9111 766.405 28.3652 765.094 Q26.8193 763.782 26.4914 761.815 Q25.2734 763.735 25.2734 766.593 Q25.2734 768.467 26.2572 770.106 Q27.2409 771.699 28.5057 772.683 Q29.7705 773.62 31.5975 774.463 Q33.3776 775.259 34.455 775.587 Q35.4856 775.868 36.6099 776.102 L49.7265 779.381 Q55.9568 780.974 58.1585 780.974 Q60.8755 780.974 62.7025 779.663 Q64.4826 778.351 64.4826 775.728 Q64.4826 774.697 64.2015 773.526 Q63.8736 772.355 63.0304 770.856 Q62.1404 769.31 60.8287 767.951 Q59.4702 766.546 57.1748 765.187 Q54.8794 763.829 51.9282 762.939 Q50.8976 762.658 50.8976 761.721 Q50.8976 760.55 51.8345 760.55 Q52.6308 760.55 54.3173 761.206 Q55.9568 761.815 58.1117 763.173 Q60.2197 764.485 62.1404 766.218 Q64.0142 767.951 65.3258 770.528 Q66.6375 773.104 66.6375 775.915 Q66.6375 779.944 64.4826 782.614 Q62.3277 785.284 59.3297 786.268 Q59.7513 786.502 60.3134 786.83 Q60.8755 787.158 62.1404 788.141 Q63.3583 789.078 64.2952 790.156 Q65.1853 791.233 65.8879 792.92 Q66.6375 794.559 66.6375 796.339 Q66.6375 798.588 65.9816 800.602 Q65.3258 802.57 63.8268 803.975 Q62.3277 805.38 60.2666 805.38 Q57.9712 805.38 56.3784 803.834 Q54.7389 802.242 54.7389 800.087 Q54.7389 798.728 55.5352 797.651 Q56.3316 796.527 58.0649 796.527 Q59.9855 796.527 61.4377 797.838 Q62.8899 799.15 63.2646 801.024 Q64.4826 799.103 64.4826 796.246 Q64.4826 793.154 61.7656 790.718 Q59.0486 788.282 54.5046 787.111 Q43.5898 784.206 38.7179 783.082 Q33.7992 781.958 31.6912 781.958 Q29.7237 781.958 28.3652 782.473 Q27.0067 782.989 26.3977 783.879 Q25.7419 784.722 25.5077 785.518 Q25.2734 786.268 25.2734 787.111 Q25.2734 788.516 25.8356 790.109 Q26.3977 791.655 27.7094 793.529 Q28.9742 795.356 31.5975 797.089 Q34.2208 798.822 37.8279 799.993 Q38.9053 800.227 38.9053 801.258 Q38.8584 802.382 37.9215 802.382 Q37.1252 802.382 35.4856 801.773 Q33.7992 801.117 31.6912 799.806 Q29.5832 798.447 27.7094 796.714 Q25.7887 794.934 24.4771 792.357 Q23.1654 789.734 23.1654 786.923 Q23.1654 785.659 23.4465 784.441 Q23.6807 783.176 24.3834 781.677 Q25.086 780.131 26.6319 778.772 Q28.1778 777.414 30.4264 776.571 Q29.3489 776.009 28.3183 775.259 Q27.2878 774.463 26.0229 773.245 Q24.7113 771.98 23.9618 770.247 Q23.1654 768.467 23.1654 766.499 Q23.1654 764.578 23.6807 762.705 Q24.1492 760.831 25.695 759.238 Q27.1941 757.599 29.4895 757.599 Z" fill="#000000" fill-rule="nonzero" fill-opacity="1" /><path clip-path="url(#clip870)" d="M93.2007 747.828 Q91.9874 747.828 91.6267 747.729 Q91.266 747.598 90.7085 747.074 L76.3459 734.187 Q68.4103 727.136 61.4914 727.136 Q56.9989 727.136 53.7854 729.497 Q50.5718 731.826 50.5718 736.121 Q50.5718 739.073 52.3753 741.565 Q54.1789 744.057 57.3924 745.205 Q57.3268 745.008 57.3268 744.319 Q57.3268 742.647 58.3762 741.729 Q59.4255 740.778 60.8355 740.778 Q62.6391 740.778 63.5244 741.958 Q64.377 743.106 64.377 744.254 Q64.377 744.713 64.2786 745.336 Q64.1802 745.926 63.2621 746.877 Q62.3111 747.828 60.6388 747.828 Q55.9496 747.828 52.2114 744.286 Q48.4732 740.712 48.4732 735.269 Q48.4732 729.104 52.1458 725.071 Q55.7856 721.004 61.4914 721.004 Q63.4916 721.004 65.3279 721.628 Q67.1315 722.218 68.5415 723.038 Q69.9515 723.825 72.2141 725.989 Q74.4768 728.153 76.0835 729.891 Q77.6903 731.629 81.1006 735.531 L88.0196 742.647 L88.0196 730.547 Q88.0196 724.644 87.4949 724.185 Q86.544 723.529 81.5269 722.71 L81.5269 721.004 L93.2007 722.906 L93.2007 747.828 Z" fill="#000000" fill-rule="nonzero" fill-opacity="1" /><path clip-path="url(#clip870)" d="M819.524 14.0809 L819.524 22.0612 Q814.865 19.8332 810.733 18.7395 Q806.602 17.6457 802.753 17.6457 Q796.069 17.6457 792.423 20.2383 Q788.818 22.8309 788.818 27.611 Q788.818 31.6214 791.208 33.6873 Q793.639 35.7128 800.363 36.9686 L805.305 37.9813 Q814.46 39.7232 818.795 44.1387 Q823.17 48.5136 823.17 55.8863 Q823.17 64.6767 817.255 69.2137 Q811.382 73.7508 799.999 73.7508 Q795.705 73.7508 790.844 72.7785 Q786.023 71.8063 780.838 69.9024 L780.838 61.4765 Q785.82 64.2716 790.6 65.6895 Q795.381 67.1073 799.999 67.1073 Q807.007 67.1073 810.815 64.3527 Q814.622 61.598 814.622 56.4939 Q814.622 52.0379 811.868 49.5264 Q809.154 47.0148 802.915 45.759 L797.933 44.7868 Q788.778 42.9639 784.686 39.075 Q780.595 35.1862 780.595 28.2591 Q780.595 20.2383 786.226 15.6203 Q791.897 11.0023 801.821 11.0023 Q806.075 11.0023 810.49 11.7719 Q814.906 12.5416 819.524 14.0809 Z" fill="#000000" fill-rule="nonzero" fill-opacity="1" /><path clip-path="url(#clip870)" d="M842.817 65.7705 L842.817 89.8329 L835.322 89.8329 L835.322 27.2059 L842.817 27.2059 L842.817 34.0924 Q845.166 30.0415 848.731 28.0971 Q852.336 26.1121 857.319 26.1121 Q865.583 26.1121 870.727 32.6746 Q875.913 39.2371 875.913 49.9314 Q875.913 60.6258 870.727 67.1883 Q865.583 73.7508 857.319 73.7508 Q852.336 73.7508 848.731 71.8063 Q845.166 69.8214 842.817 65.7705 M868.175 49.9314 Q868.175 41.7081 864.773 37.0496 Q861.41 32.3505 855.496 32.3505 Q849.582 32.3505 846.179 37.0496 Q842.817 41.7081 842.817 49.9314 Q842.817 58.1548 846.179 62.8538 Q849.582 67.5124 855.496 67.5124 Q861.41 67.5124 864.773 62.8538 Q868.175 58.1548 868.175 49.9314 Z" fill="#000000" fill-rule="nonzero" fill-opacity="1" /><path clip-path="url(#clip870)" d="M927.075 48.0275 L927.075 51.6733 L892.805 51.6733 Q893.291 59.3701 897.423 63.421 Q901.595 67.4314 909.008 67.4314 Q913.302 67.4314 917.313 66.3781 Q921.364 65.3249 925.334 63.2184 L925.334 70.267 Q921.323 71.9684 917.11 72.8596 Q912.897 73.7508 908.563 73.7508 Q897.706 73.7508 891.346 67.4314 Q885.027 61.1119 885.027 50.3365 Q885.027 39.1965 891.022 32.6746 Q897.058 26.1121 907.267 26.1121 Q916.422 26.1121 921.728 32.0264 Q927.075 37.9003 927.075 48.0275 M919.622 45.84 Q919.541 39.7232 916.179 36.0774 Q912.857 32.4315 907.348 32.4315 Q901.109 32.4315 897.342 35.9558 Q893.615 39.4801 893.048 45.8805 L919.622 45.84 Z" fill="#000000" fill-rule="nonzero" fill-opacity="1" /><path clip-path="url(#clip870)" d="M971.959 28.9478 L971.959 35.9153 Q968.8 34.1734 965.6 33.3227 Q962.44 32.4315 959.199 32.4315 Q951.948 32.4315 947.938 37.0496 Q943.927 41.6271 943.927 49.9314 Q943.927 58.2358 947.938 62.8538 Q951.948 67.4314 959.199 67.4314 Q962.44 67.4314 965.6 66.5807 Q968.8 65.6895 971.959 63.9476 L971.959 70.8341 Q968.84 72.2924 965.478 73.0216 Q962.156 73.7508 958.389 73.7508 Q948.14 73.7508 942.104 67.3098 Q936.068 60.8689 936.068 49.9314 Q936.068 38.832 942.145 32.472 Q948.262 26.1121 958.875 26.1121 Q962.318 26.1121 965.6 26.8413 Q968.881 27.5299 971.959 28.9478 Z" fill="#000000" fill-rule="nonzero" fill-opacity="1" /><path clip-path="url(#clip870)" d="M984.922 27.2059 L992.376 27.2059 L992.376 72.576 L984.922 72.576 L984.922 27.2059 M984.922 9.54393 L992.376 9.54393 L992.376 18.9825 L984.922 18.9825 L984.922 9.54393 Z" fill="#000000" fill-rule="nonzero" fill-opacity="1" /><path clip-path="url(#clip870)" d="M1030.94 9.54393 L1030.94 15.7418 L1023.81 15.7418 Q1019.8 15.7418 1018.22 17.3622 Q1016.68 18.9825 1016.68 23.1955 L1016.68 27.2059 L1028.96 27.2059 L1028.96 32.9987 L1016.68 32.9987 L1016.68 72.576 L1009.19 72.576 L1009.19 32.9987 L1002.06 32.9987 L1002.06 27.2059 L1009.19 27.2059 L1009.19 24.0462 Q1009.19 16.471 1012.71 13.0277 Q1016.24 9.54393 1023.89 9.54393 L1030.94 9.54393 Z" fill="#000000" fill-rule="nonzero" fill-opacity="1" /><path clip-path="url(#clip870)" d="M1037.18 27.2059 L1044.63 27.2059 L1044.63 72.576 L1037.18 72.576 L1037.18 27.2059 M1037.18 9.54393 L1044.63 9.54393 L1044.63 18.9825 L1037.18 18.9825 L1037.18 9.54393 Z" fill="#000000" fill-rule="nonzero" fill-opacity="1" /><path clip-path="url(#clip870)" d="M1092.88 28.9478 L1092.88 35.9153 Q1089.72 34.1734 1086.52 33.3227 Q1083.36 32.4315 1080.12 32.4315 Q1072.87 32.4315 1068.86 37.0496 Q1064.85 41.6271 1064.85 49.9314 Q1064.85 58.2358 1068.86 62.8538 Q1072.87 67.4314 1080.12 67.4314 Q1083.36 67.4314 1086.52 66.5807 Q1089.72 65.6895 1092.88 63.9476 L1092.88 70.8341 Q1089.76 72.2924 1086.4 73.0216 Q1083.08 73.7508 1079.31 73.7508 Q1069.06 73.7508 1063.02 67.3098 Q1056.99 60.8689 1056.99 49.9314 Q1056.99 38.832 1063.06 32.472 Q1069.18 26.1121 1079.79 26.1121 Q1083.24 26.1121 1086.52 26.8413 Q1089.8 27.5299 1092.88 28.9478 Z" fill="#000000" fill-rule="nonzero" fill-opacity="1" /><path clip-path="url(#clip870)" d="M1113.21 14.324 L1113.21 27.2059 L1128.57 27.2059 L1128.57 32.9987 L1113.21 32.9987 L1113.21 57.6282 Q1113.21 63.1779 1114.71 64.7578 Q1116.25 66.3376 1120.91 66.3376 L1128.57 66.3376 L1128.57 72.576 L1120.91 72.576 Q1112.28 72.576 1109 69.3758 Q1105.72 66.1351 1105.72 57.6282 L1105.72 32.9987 L1100.25 32.9987 L1100.25 27.2059 L1105.72 27.2059 L1105.72 14.324 L1113.21 14.324 Z" fill="#000000" fill-rule="nonzero" fill-opacity="1" /><path clip-path="url(#clip870)" d="M1138.37 27.2059 L1145.82 27.2059 L1145.82 72.576 L1138.37 72.576 L1138.37 27.2059 M1138.37 9.54393 L1145.82 9.54393 L1145.82 18.9825 L1138.37 18.9825 L1138.37 9.54393 Z" fill="#000000" fill-rule="nonzero" fill-opacity="1" /><path clip-path="url(#clip870)" d="M1179 32.4315 Q1173.01 32.4315 1169.52 37.1306 Q1166.04 41.7891 1166.04 49.9314 Q1166.04 58.0738 1169.48 62.7728 Q1172.97 67.4314 1179 67.4314 Q1184.96 67.4314 1188.44 62.7323 Q1191.92 58.0333 1191.92 49.9314 Q1191.92 41.8701 1188.44 37.1711 Q1184.96 32.4315 1179 32.4315 M1179 26.1121 Q1188.72 26.1121 1194.27 32.4315 Q1199.82 38.7509 1199.82 49.9314 Q1199.82 61.0714 1194.27 67.4314 Q1188.72 73.7508 1179 73.7508 Q1169.24 73.7508 1163.69 67.4314 Q1158.18 61.0714 1158.18 49.9314 Q1158.18 38.7509 1163.69 32.4315 Q1169.24 26.1121 1179 26.1121 Z" fill="#000000" fill-rule="nonzero" fill-opacity="1" /><path clip-path="url(#clip870)" d="M1249.89 45.1919 L1249.89 72.576 L1242.44 72.576 L1242.44 45.4349 Q1242.44 38.994 1239.93 35.7938 Q1237.42 32.5936 1232.39 32.5936 Q1226.36 32.5936 1222.87 36.4419 Q1219.39 40.2903 1219.39 46.9338 L1219.39 72.576 L1211.89 72.576 L1211.89 27.2059 L1219.39 27.2059 L1219.39 34.2544 Q1222.06 30.163 1225.67 28.1376 Q1229.31 26.1121 1234.05 26.1121 Q1241.87 26.1121 1245.88 30.9732 Q1249.89 35.7938 1249.89 45.1919 Z" fill="#000000" fill-rule="nonzero" fill-opacity="1" /><path clip-path="url(#clip870)" d="M1293.68 28.5427 L1293.68 35.5912 Q1290.52 33.9709 1287.12 33.1607 Q1283.72 32.3505 1280.07 32.3505 Q1274.52 32.3505 1271.73 34.0519 Q1268.97 35.7533 1268.97 39.156 Q1268.97 41.7486 1270.96 43.2475 Q1272.94 44.7058 1278.94 46.0426 L1281.49 46.6097 Q1289.43 48.3111 1292.75 51.4303 Q1296.11 54.509 1296.11 60.0587 Q1296.11 66.3781 1291.09 70.0644 Q1286.11 73.7508 1277.36 73.7508 Q1273.71 73.7508 1269.74 73.0216 Q1265.81 72.3329 1261.44 70.9151 L1261.44 63.2184 Q1265.57 65.3654 1269.58 66.4591 Q1273.59 67.5124 1277.52 67.5124 Q1282.79 67.5124 1285.62 65.73 Q1288.46 63.9071 1288.46 60.6258 Q1288.46 57.5877 1286.39 55.9673 Q1284.37 54.3469 1277.44 52.8481 L1274.85 52.2405 Q1267.92 50.7821 1264.84 47.7845 Q1261.76 44.7463 1261.76 39.4801 Q1261.76 33.0797 1266.3 29.5959 Q1270.84 26.1121 1279.18 26.1121 Q1283.31 26.1121 1286.96 26.7198 Q1290.6 27.3274 1293.68 28.5427 Z" fill="#000000" fill-rule="nonzero" fill-opacity="1" /><path clip-path="url(#clip870)" d="M1354.97 49.7694 Q1345.94 49.7694 1342.46 51.8354 Q1338.97 53.9013 1338.97 58.8839 Q1338.97 62.8538 1341.56 65.2034 Q1344.2 67.5124 1348.69 67.5124 Q1354.89 67.5124 1358.62 63.1374 Q1362.39 58.7219 1362.39 51.4303 L1362.39 49.7694 L1354.97 49.7694 M1369.84 46.6907 L1369.84 72.576 L1362.39 72.576 L1362.39 65.6895 Q1359.83 69.8214 1356.03 71.8063 Q1352.22 73.7508 1346.71 73.7508 Q1339.74 73.7508 1335.61 69.8619 Q1331.52 65.9325 1331.52 59.3701 Q1331.52 51.7138 1336.62 47.825 Q1341.77 43.9361 1351.93 43.9361 L1362.39 43.9361 L1362.39 43.2069 Q1362.39 38.0623 1358.98 35.2672 Q1355.62 32.4315 1349.5 32.4315 Q1345.61 32.4315 1341.93 33.3632 Q1338.24 34.295 1334.84 36.1584 L1334.84 29.2718 Q1338.93 27.692 1342.78 26.9223 Q1346.63 26.1121 1350.27 26.1121 Q1360.12 26.1121 1364.98 31.2163 Q1369.84 36.3204 1369.84 46.6907 Z" fill="#000000" fill-rule="nonzero" fill-opacity="1" /><path clip-path="url(#clip870)" d="M1422.91 45.1919 L1422.91 72.576 L1415.45 72.576 L1415.45 45.4349 Q1415.45 38.994 1412.94 35.7938 Q1410.43 32.5936 1405.41 32.5936 Q1399.37 32.5936 1395.89 36.4419 Q1392.4 40.2903 1392.4 46.9338 L1392.4 72.576 L1384.91 72.576 L1384.91 27.2059 L1392.4 27.2059 L1392.4 34.2544 Q1395.08 30.163 1398.68 28.1376 Q1402.33 26.1121 1407.07 26.1121 Q1414.89 26.1121 1418.9 30.9732 Q1422.91 35.7938 1422.91 45.1919 Z" fill="#000000" fill-rule="nonzero" fill-opacity="1" /><path clip-path="url(#clip870)" d="M1467.63 34.0924 L1467.63 9.54393 L1475.08 9.54393 L1475.08 72.576 L1467.63 72.576 L1467.63 65.7705 Q1465.28 69.8214 1461.67 71.8063 Q1458.11 73.7508 1453.09 73.7508 Q1444.86 73.7508 1439.68 67.1883 Q1434.53 60.6258 1434.53 49.9314 Q1434.53 39.2371 1439.68 32.6746 Q1444.86 26.1121 1453.09 26.1121 Q1458.11 26.1121 1461.67 28.0971 Q1465.28 30.0415 1467.63 34.0924 M1442.23 49.9314 Q1442.23 58.1548 1445.59 62.8538 Q1448.99 67.5124 1454.91 67.5124 Q1460.82 67.5124 1464.23 62.8538 Q1467.63 58.1548 1467.63 49.9314 Q1467.63 41.7081 1464.23 37.0496 Q1460.82 32.3505 1454.91 32.3505 Q1448.99 32.3505 1445.59 37.0496 Q1442.23 41.7081 1442.23 49.9314 Z" fill="#000000" fill-rule="nonzero" fill-opacity="1" /><path clip-path="url(#clip870)" d="M1546.66 34.0924 L1546.66 9.54393 L1554.11 9.54393 L1554.11 72.576 L1546.66 72.576 L1546.66 65.7705 Q1544.31 69.8214 1540.71 71.8063 Q1537.14 73.7508 1532.12 73.7508 Q1523.9 73.7508 1518.71 67.1883 Q1513.57 60.6258 1513.57 49.9314 Q1513.57 39.2371 1518.71 32.6746 Q1523.9 26.1121 1532.12 26.1121 Q1537.14 26.1121 1540.71 28.0971 Q1544.31 30.0415 1546.66 34.0924 M1521.26 49.9314 Q1521.26 58.1548 1524.62 62.8538 Q1528.03 67.5124 1533.94 67.5124 Q1539.86 67.5124 1543.26 62.8538 Q1546.66 58.1548 1546.66 49.9314 Q1546.66 41.7081 1543.26 37.0496 Q1539.86 32.3505 1533.94 32.3505 Q1528.03 32.3505 1524.62 37.0496 Q1521.26 41.7081 1521.26 49.9314 Z" fill="#000000" fill-rule="nonzero" fill-opacity="1" /><path clip-path="url(#clip870)" d="M1587.05 32.4315 Q1581.05 32.4315 1577.57 37.1306 Q1574.09 41.7891 1574.09 49.9314 Q1574.09 58.0738 1577.53 62.7728 Q1581.01 67.4314 1587.05 67.4314 Q1593 67.4314 1596.49 62.7323 Q1599.97 58.0333 1599.97 49.9314 Q1599.97 41.8701 1596.49 37.1711 Q1593 32.4315 1587.05 32.4315 M1587.05 26.1121 Q1596.77 26.1121 1602.32 32.4315 Q1607.87 38.7509 1607.87 49.9314 Q1607.87 61.0714 1602.32 67.4314 Q1596.77 73.7508 1587.05 73.7508 Q1577.29 73.7508 1571.74 67.4314 Q1566.23 61.0714 1566.23 49.9314 Q1566.23 38.7509 1571.74 32.4315 Q1577.29 26.1121 1587.05 26.1121 Z" fill="#000000" fill-rule="nonzero" fill-opacity="1" /><path clip-path="url(#clip870)" d="M1655.55 35.9153 Q1658.34 30.8922 1662.23 28.5022 Q1666.12 26.1121 1671.39 26.1121 Q1678.48 26.1121 1682.33 31.0947 Q1686.17 36.0368 1686.17 45.1919 L1686.17 72.576 L1678.68 72.576 L1678.68 45.4349 Q1678.68 38.913 1676.37 35.7533 Q1674.06 32.5936 1669.32 32.5936 Q1663.53 32.5936 1660.17 36.4419 Q1656.81 40.2903 1656.81 46.9338 L1656.81 72.576 L1649.31 72.576 L1649.31 45.4349 Q1649.31 38.8725 1647 35.7533 Q1644.69 32.5936 1639.87 32.5936 Q1634.16 32.5936 1630.8 36.4824 Q1627.44 40.3308 1627.44 46.9338 L1627.44 72.576 L1619.94 72.576 L1619.94 27.2059 L1627.44 27.2059 L1627.44 34.2544 Q1629.99 30.082 1633.55 28.0971 Q1637.12 26.1121 1642.02 26.1121 Q1646.96 26.1121 1650.4 28.6237 Q1653.89 31.1352 1655.55 35.9153 Z" fill="#000000" fill-rule="nonzero" fill-opacity="1" /><path clip-path="url(#clip870)" d="M1721.66 49.7694 Q1712.63 49.7694 1709.14 51.8354 Q1705.66 53.9013 1705.66 58.8839 Q1705.66 62.8538 1708.25 65.2034 Q1710.88 67.5124 1715.38 67.5124 Q1721.58 67.5124 1725.31 63.1374 Q1729.07 58.7219 1729.07 51.4303 L1729.07 49.7694 L1721.66 49.7694 M1736.53 46.6907 L1736.53 72.576 L1729.07 72.576 L1729.07 65.6895 Q1726.52 69.8214 1722.71 71.8063 Q1718.91 73.7508 1713.4 73.7508 Q1706.43 73.7508 1702.3 69.8619 Q1698.21 65.9325 1698.21 59.3701 Q1698.21 51.7138 1703.31 47.825 Q1708.45 43.9361 1718.62 43.9361 L1729.07 43.9361 L1729.07 43.2069 Q1729.07 38.0623 1725.67 35.2672 Q1722.31 32.4315 1716.19 32.4315 Q1712.3 32.4315 1708.62 33.3632 Q1704.93 34.295 1701.53 36.1584 L1701.53 29.2718 Q1705.62 27.692 1709.47 26.9223 Q1713.32 26.1121 1716.96 26.1121 Q1726.8 26.1121 1731.67 31.2163 Q1736.53 36.3204 1736.53 46.6907 Z" fill="#000000" fill-rule="nonzero" fill-opacity="1" /><path clip-path="url(#clip870)" d="M1751.88 27.2059 L1759.33 27.2059 L1759.33 72.576 L1751.88 72.576 L1751.88 27.2059 M1751.88 9.54393 L1759.33 9.54393 L1759.33 18.9825 L1751.88 18.9825 L1751.88 9.54393 Z" fill="#000000" fill-rule="nonzero" fill-opacity="1" /><path clip-path="url(#clip870)" d="M1812.64 45.1919 L1812.64 72.576 L1805.19 72.576 L1805.19 45.4349 Q1805.19 38.994 1802.68 35.7938 Q1800.17 32.5936 1795.14 32.5936 Q1789.11 32.5936 1785.62 36.4419 Q1782.14 40.2903 1782.14 46.9338 L1782.14 72.576 L1774.65 72.576 L1774.65 27.2059 L1782.14 27.2059 L1782.14 34.2544 Q1784.81 30.163 1788.42 28.1376 Q1792.07 26.1121 1796.8 26.1121 Q1804.62 26.1121 1808.63 30.9732 Q1812.64 35.7938 1812.64 45.1919 Z" fill="#000000" fill-rule="nonzero" fill-opacity="1" /><path clip-path="url(#clip870)" d="M1856.43 28.5427 L1856.43 35.5912 Q1853.27 33.9709 1849.87 33.1607 Q1846.47 32.3505 1842.82 32.3505 Q1837.27 32.3505 1834.48 34.0519 Q1831.72 35.7533 1831.72 39.156 Q1831.72 41.7486 1833.71 43.2475 Q1835.69 44.7058 1841.69 46.0426 L1844.24 46.6097 Q1852.18 48.3111 1855.5 51.4303 Q1858.86 54.509 1858.86 60.0587 Q1858.86 66.3781 1853.84 70.0644 Q1848.86 73.7508 1840.11 73.7508 Q1836.46 73.7508 1832.49 73.0216 Q1828.56 72.3329 1824.19 70.9151 L1824.19 63.2184 Q1828.32 65.3654 1832.33 66.4591 Q1836.34 67.5124 1840.27 67.5124 Q1845.54 67.5124 1848.37 65.73 Q1851.21 63.9071 1851.21 60.6258 Q1851.21 57.5877 1849.14 55.9673 Q1847.12 54.3469 1840.19 52.8481 L1837.6 52.2405 Q1830.67 50.7821 1827.59 47.7845 Q1824.51 44.7463 1824.51 39.4801 Q1824.51 33.0797 1829.05 29.5959 Q1833.59 26.1121 1841.93 26.1121 Q1846.06 26.1121 1849.71 26.7198 Q1853.36 27.3274 1856.43 28.5427 Z" fill="#000000" fill-rule="nonzero" fill-opacity="1" /><path clip-path="url(#clip872)" d="M720.924 1357.01 L1918.54 1357.01 L1918.54 159.4 L720.924 159.4 L720.924 1357.01  Z" fill="#ffff00" fill-rule="evenodd" fill-opacity="0.5"/>
<polyline clip-path="url(#clip872)" style="stroke:#000000; stroke-linecap:round; stroke-linejoin:round; stroke-width:4; stroke-opacity:0.5; fill:none" points="720.924,1357.01 1918.54,1357.01 1918.54,159.4 720.924,159.4 720.924,1357.01 "/>
<path clip-path="url(#clip872)" d="M1010.86 1058.07 L1010.95 1059 L1011.13 1059.91 L1011.4 1060.8 L1011.76 1061.66 L1012.2 1062.48 L1012.71 1063.26 L1013.3 1063.97 L1013.96 1064.63 L1014.68 1065.22 L1015.45 1065.74 L1016.27 1066.18 L1017.13 1066.53 L1018.02 1066.8 L1018.94 1066.99 L1019.86 1067.08 L1020.79 1067.08 L1021.72 1066.99 L1022.63 1066.8 L1023.52 1066.53 L1024.38 1066.18 L1025.2 1065.74 L1025.97 1065.22 L1026.69 1064.63 L1027.35 1063.97 L1027.94 1063.26 L1028.46 1062.48 L1028.9 1061.66 L1029.25 1060.8 L1029.52 1059.91 L1029.7 1059 L1029.79 1058.07 L1029.79 1057.14 L1029.7 1056.22 L1029.52 1055.31 L1029.25 1054.42 L1028.9 1053.56 L1028.46 1052.74 L1027.94 1051.96 L1027.35 1051.24 L1026.69 1050.59 L1025.97 1049.99 L1025.2 1049.48 L1024.38 1049.04 L1023.52 1048.68 L1022.63 1048.41 L1021.72 1048.23 L1020.79 1048.14 L1019.86 1048.14 L1018.94 1048.23 L1018.02 1048.41 L1017.13 1048.68 L1016.27 1049.04 L1015.45 1049.48 L1014.68 1049.99 L1013.96 1050.59 L1013.3 1051.24 L1012.71 1051.96 L1012.2 1052.74 L1011.76 1053.56 L1011.4 1054.42 L1011.13 1055.31 L1010.95 1056.22 L1010.86 1057.14 L1010.86 1058.07 L1010.86 1058.07  Z" fill="#ffff00" fill-rule="evenodd" fill-opacity="1"/>
<polyline clip-path="url(#clip872)" style="stroke:#000000; stroke-linecap:round; stroke-linejoin:round; stroke-width:4; stroke-opacity:1; fill:none" points="1010.86,1058.07 1010.95,1059 1011.13,1059.91 1011.4,1060.8 1011.76,1061.66 1012.2,1062.48 1012.71,1063.26 1013.3,1063.97 1013.96,1064.63 1014.68,1065.22 1015.45,1065.74 1016.27,1066.18 1017.13,1066.53 1018.02,1066.8 1018.94,1066.99 1019.86,1067.08 1020.79,1067.08 1021.72,1066.99 1022.63,1066.8 1023.52,1066.53 1024.38,1066.18 1025.2,1065.74 1025.97,1065.22 1026.69,1064.63 1027.35,1063.97 1027.94,1063.26 1028.46,1062.48 1028.9,1061.66 1029.25,1060.8 1029.52,1059.91 1029.7,1059 1029.79,1058.07 1029.79,1057.14 1029.7,1056.22 1029.52,1055.31 1029.25,1054.42 1028.9,1053.56 1028.46,1052.74 1027.94,1051.96 1027.35,1051.24 1026.69,1050.59 1025.97,1049.99 1025.2,1049.48 1024.38,1049.04 1023.52,1048.68 1022.63,1048.41 1021.72,1048.23 1020.79,1048.14 1019.86,1048.14 1018.94,1048.23 1018.02,1048.41 1017.13,1048.68 1016.27,1049.04 1015.45,1049.48 1014.68,1049.99 1013.96,1050.59 1013.3,1051.24 1012.71,1051.96 1012.2,1052.74 1011.76,1053.56 1011.4,1054.42 1011.13,1055.31 1010.95,1056.22 1010.86,1057.14 1010.86,1058.07 "/>
<path clip-path="url(#clip872)" d="M876.496 772.29 L876.602 776.133 L876.814 780.071 L877.132 784.098 L877.555 788.21 L878.083 792.401 L878.716 796.666 L879.452 801 L880.29 805.398 L881.23 809.855 L882.27 814.364 L883.41 818.922 L884.647 823.521 L885.981 828.157 L887.409 832.824 L888.93 837.516 L890.542 842.228 L892.243 846.953 L894.031 851.687 L895.905 856.423 L897.86 861.155 L899.896 865.879 L902.01 870.587 L904.199 875.275 L906.46 879.937 L908.792 884.567 L911.19 889.159 L913.652 893.708 L916.175 898.208 L918.757 902.655 L921.393 907.042 L924.081 911.364 L926.817 915.616 L929.598 919.792 L932.421 923.889 L935.282 927.9 L938.179 931.821 L941.106 935.647 L944.061 939.374 L947.041 942.996 L950.04 946.511 L953.057 949.912 L956.087 953.197 L959.127 956.36 L962.172 959.399 L965.22 962.31 L968.266 965.089 L971.307 967.733 L974.339 970.238 L977.359 972.601 L980.362 974.821 L983.345 976.893 L986.305 978.816 L989.238 980.586 L992.14 982.203 L995.008 983.664 L997.838 984.966 L1000.63 986.11 L1003.37 987.093 L1006.07 987.913 L1008.71 988.571 L1011.31 989.065 L1013.84 989.395 L1016.31 989.56 L1018.51 989.56 L1020.43 989.449 L1022.31 989.229 L1024.15 988.898 L1025.93 988.457 L1027.67 987.907 L1029.35 987.247 L1030.98 986.479 L1032.56 985.603 L1034.08 984.62 L1035.54 983.531 L1036.95 982.336 L1038.29 981.036 L1039.58 979.633 L1040.8 978.127 L1041.96 976.521 L1043.06 974.814 L1044.09 973.009 L1045.06 971.107 L1045.97 969.11 L1046.8 967.019 L1047.57 964.836 L1048.27 962.562 L1048.91 960.2 L1049.47 957.751 L1049.96 955.218 L1050.39 952.602 L1050.74 949.906 L1051.03 947.132 L1051.24 944.281 L1051.38 941.357 L1051.45 938.362 L1051.45 934.957 L1051.35 931.114 L1051.13 927.176 L1050.82 923.149 L1050.39 919.037 L1049.86 914.846 L1049.23 910.581 L1048.5 906.247 L1047.66 901.849 L1046.72 897.392 L1045.68 892.883 L1044.54 888.325 L1043.3 883.726 L1041.97 879.09 L1040.54 874.423 L1039.02 869.731 L1037.41 865.019 L1035.7 860.294 L1033.92 855.56 L1032.04 850.824 L1030.09 846.092 L1028.05 841.368 L1025.94 836.66 L1023.75 831.972 L1021.49 827.31 L1019.16 822.68 L1016.76 818.088 L1014.3 813.539 L1011.77 809.039 L1009.19 804.592 L1006.55 800.205 L1003.87 795.883 L1001.13 791.631 L998.35 787.455 L995.527 783.358 L992.665 779.347 L989.769 775.426 L986.842 771.6 L983.886 767.873 L980.907 764.251 L977.907 760.736 L974.89 757.335 L971.86 754.05 L968.821 750.887 L965.775 747.848 L962.728 744.937 L959.681 742.158 L956.64 739.514 L953.608 737.009 L950.589 734.646 L947.586 732.426 L944.602 730.354 L941.642 728.431 L938.71 726.661 L935.808 725.044 L932.94 723.583 L930.109 722.281 L927.32 721.137 L924.575 720.154 L921.879 719.334 L919.233 718.676 L916.641 718.182 L914.107 717.852 L911.634 717.687 L909.443 717.687 L907.515 717.798 L905.633 718.018 L903.799 718.349 L902.014 718.79 L900.279 719.34 L898.595 720 L896.965 720.768 L895.389 721.644 L893.869 722.627 L892.406 723.716 L891.001 724.911 L889.656 726.211 L888.37 727.614 L887.146 729.12 L885.985 730.726 L884.887 732.433 L883.853 734.238 L882.884 736.14 L881.981 738.137 L881.145 740.228 L880.376 742.411 L879.675 744.685 L879.042 747.047 L878.478 749.496 L877.984 752.029 L877.56 754.645 L877.205 757.341 L876.922 760.115 L876.709 762.966 L876.567 765.89 L876.496 768.885 L876.496 772.29 L876.496 772.29  Z" fill="#ffff00" fill-rule="evenodd" fill-opacity="1"/>
<polyline clip-path="url(#clip872)" style="stroke:#000000; stroke-linecap:round; stroke-linejoin:round; stroke-width:4; stroke-opacity:1; fill:none" points="876.496,772.29 876.602,776.133 876.814,780.071 877.132,784.098 877.555,788.21 878.083,792.401 878.716,796.666 879.452,801 880.29,805.398 881.23,809.855 882.27,814.364 883.41,818.922 884.647,823.521 885.981,828.157 887.409,832.824 888.93,837.516 890.542,842.228 892.243,846.953 894.031,851.687 895.905,856.423 897.86,861.155 899.896,865.879 902.01,870.587 904.199,875.275 906.46,879.937 908.792,884.567 911.19,889.159 913.652,893.708 916.175,898.208 918.757,902.655 921.393,907.042 924.081,911.364 926.817,915.616 929.598,919.792 932.421,923.889 935.282,927.9 938.179,931.821 941.106,935.647 944.061,939.374 947.041,942.996 950.04,946.511 953.057,949.912 956.087,953.197 959.127,956.36 962.172,959.399 965.22,962.31 968.266,965.089 971.307,967.733 974.339,970.238 977.359,972.601 980.362,974.821 983.345,976.893 986.305,978.816 989.238,980.586 992.14,982.203 995.008,983.664 997.838,984.966 1000.63,986.11 1003.37,987.093 1006.07,987.913 1008.71,988.571 1011.31,989.065 1013.84,989.395 1016.31,989.56 1018.51,989.56 1020.43,989.449 1022.31,989.229 1024.15,988.898 1025.93,988.457 1027.67,987.907 1029.35,987.247 1030.98,986.479 1032.56,985.603 1034.08,984.62 1035.54,983.531 1036.95,982.336 1038.29,981.036 1039.58,979.633 1040.8,978.127 1041.96,976.521 1043.06,974.814 1044.09,973.009 1045.06,971.107 1045.97,969.11 1046.8,967.019 1047.57,964.836 1048.27,962.562 1048.91,960.2 1049.47,957.751 1049.96,955.218 1050.39,952.602 1050.74,949.906 1051.03,947.132 1051.24,944.281 1051.38,941.357 1051.45,938.362 1051.45,934.957 1051.35,931.114 1051.13,927.176 1050.82,923.149 1050.39,919.037 1049.86,914.846 1049.23,910.581 1048.5,906.247 1047.66,901.849 1046.72,897.392 1045.68,892.883 1044.54,888.325 1043.3,883.726 1041.97,879.09 1040.54,874.423 1039.02,869.731 1037.41,865.019 1035.7,860.294 1033.92,855.56 1032.04,850.824 1030.09,846.092 1028.05,841.368 1025.94,836.66 1023.75,831.972 1021.49,827.31 1019.16,822.68 1016.76,818.088 1014.3,813.539 1011.77,809.039 1009.19,804.592 1006.55,800.205 1003.87,795.883 1001.13,791.631 998.35,787.455 995.527,783.358 992.665,779.347 989.769,775.426 986.842,771.6 983.886,767.873 980.907,764.251 977.907,760.736 974.89,757.335 971.86,754.05 968.821,750.887 965.775,747.848 962.728,744.937 959.681,742.158 956.64,739.514 953.608,737.009 950.589,734.646 947.586,732.426 944.602,730.354 941.642,728.431 938.71,726.661 935.808,725.044 932.94,723.583 930.109,722.281 927.32,721.137 924.575,720.154 921.879,719.334 919.233,718.676 916.641,718.182 914.107,717.852 911.634,717.687 909.443,717.687 907.515,717.798 905.633,718.018 903.799,718.349 902.014,718.79 900.279,719.34 898.595,720 896.965,720.768 895.389,721.644 893.869,722.627 892.406,723.716 891.001,724.911 889.656,726.211 888.37,727.614 887.146,729.12 885.985,730.726 884.887,732.433 883.853,734.238 882.884,736.14 881.981,738.137 881.145,740.228 880.376,742.411 879.675,744.685 879.042,747.047 878.478,749.496 877.984,752.029 877.56,754.645 877.205,757.341 876.922,760.115 876.709,762.966 876.567,765.89 876.496,768.885 876.496,772.29 "/>
<path clip-path="url(#clip872)" d="M1045.53 738.35 L1045.62 740.844 L1045.78 743.338 L1046.03 745.824 L1046.36 748.298 L1046.77 750.75 L1047.26 753.177 L1047.83 755.57 L1048.47 757.923 L1049.19 760.232 L1049.99 762.488 L1050.85 764.687 L1051.78 766.823 L1052.78 768.889 L1053.85 770.881 L1054.97 772.793 L1056.15 774.62 L1057.39 776.358 L1058.68 778.002 L1060.02 779.547 L1061.4 780.989 L1062.82 782.325 L1064.28 783.551 L1065.77 784.664 L1067.3 785.66 L1068.84 786.538 L1070.41 787.295 L1072 787.929 L1073.6 788.438 L1075.21 788.821 L1076.82 789.077 L1078.44 789.205 L1079.97 789.205 L1081.43 789.099 L1082.88 788.886 L1084.32 788.568 L1085.74 788.145 L1087.14 787.618 L1088.52 786.988 L1089.88 786.256 L1091.2 785.425 L1092.5 784.495 L1093.76 783.47 L1094.98 782.351 L1096.17 781.14 L1097.31 779.841 L1098.41 778.455 L1099.46 776.987 L1100.46 775.44 L1101.41 773.816 L1102.31 772.119 L1103.15 770.354 L1103.93 768.524 L1104.65 766.632 L1105.32 764.684 L1105.92 762.683 L1106.46 760.633 L1106.93 758.54 L1107.34 756.408 L1107.68 754.241 L1107.95 752.045 L1108.16 749.823 L1108.29 747.581 L1108.36 745.325 L1108.36 742.947 L1108.28 740.453 L1108.12 737.959 L1107.87 735.472 L1107.54 732.999 L1107.13 730.546 L1106.64 728.12 L1106.07 725.727 L1105.43 723.373 L1104.71 721.065 L1103.91 718.808 L1103.05 716.61 L1102.12 714.474 L1101.12 712.408 L1100.05 710.416 L1098.93 708.504 L1097.75 706.676 L1096.51 704.938 L1095.22 703.295 L1093.88 701.75 L1092.5 700.308 L1091.08 698.972 L1089.62 697.746 L1088.13 696.633 L1086.6 695.636 L1085.05 694.758 L1083.48 694.001 L1081.9 693.368 L1080.3 692.859 L1078.69 692.476 L1077.08 692.22 L1075.46 692.092 L1073.92 692.092 L1072.46 692.198 L1071.01 692.411 L1069.58 692.729 L1068.15 693.152 L1066.75 693.679 L1065.37 694.309 L1064.02 695.04 L1062.69 695.872 L1061.4 696.801 L1060.14 697.827 L1058.91 698.946 L1057.73 700.157 L1056.59 701.456 L1055.49 702.841 L1054.44 704.309 L1053.44 705.857 L1052.49 707.481 L1051.59 709.177 L1050.75 710.943 L1049.97 712.773 L1049.24 714.665 L1048.58 716.613 L1047.98 718.614 L1047.44 720.663 L1046.97 722.756 L1046.56 724.889 L1046.22 727.056 L1045.95 729.252 L1045.74 731.474 L1045.6 733.715 L1045.53 735.972 L1045.53 738.35 L1045.53 738.35  Z" fill="#ffff00" fill-rule="evenodd" fill-opacity="1"/>
<polyline clip-path="url(#clip872)" style="stroke:#000000; stroke-linecap:round; stroke-linejoin:round; stroke-width:4; stroke-opacity:1; fill:none" points="1045.53,738.35 1045.62,740.844 1045.78,743.338 1046.03,745.824 1046.36,748.298 1046.77,750.75 1047.26,753.177 1047.83,755.57 1048.47,757.923 1049.19,760.232 1049.99,762.488 1050.85,764.687 1051.78,766.823 1052.78,768.889 1053.85,770.881 1054.97,772.793 1056.15,774.62 1057.39,776.358 1058.68,778.002 1060.02,779.547 1061.4,780.989 1062.82,782.325 1064.28,783.551 1065.77,784.664 1067.3,785.66 1068.84,786.538 1070.41,787.295 1072,787.929 1073.6,788.438 1075.21,788.821 1076.82,789.077 1078.44,789.205 1079.97,789.205 1081.43,789.099 1082.88,788.886 1084.32,788.568 1085.74,788.145 1087.14,787.618 1088.52,786.988 1089.88,786.256 1091.2,785.425 1092.5,784.495 1093.76,783.47 1094.98,782.351 1096.17,781.14 1097.31,779.841 1098.41,778.455 1099.46,776.987 1100.46,775.44 1101.41,773.816 1102.31,772.119 1103.15,770.354 1103.93,768.524 1104.65,766.632 1105.32,764.684 1105.92,762.683 1106.46,760.633 1106.93,758.54 1107.34,756.408 1107.68,754.241 1107.95,752.045 1108.16,749.823 1108.29,747.581 1108.36,745.325 1108.36,742.947 1108.28,740.453 1108.12,737.959 1107.87,735.472 1107.54,732.999 1107.13,730.546 1106.64,728.12 1106.07,725.727 1105.43,723.373 1104.71,721.065 1103.91,718.808 1103.05,716.61 1102.12,714.474 1101.12,712.408 1100.05,710.416 1098.93,708.504 1097.75,706.676 1096.51,704.938 1095.22,703.295 1093.88,701.75 1092.5,700.308 1091.08,698.972 1089.62,697.746 1088.13,696.633 1086.6,695.636 1085.05,694.758 1083.48,694.001 1081.9,693.368 1080.3,692.859 1078.69,692.476 1077.08,692.22 1075.46,692.092 1073.92,692.092 1072.46,692.198 1071.01,692.411 1069.58,692.729 1068.15,693.152 1066.75,693.679 1065.37,694.309 1064.02,695.04 1062.69,695.872 1061.4,696.801 1060.14,697.827 1058.91,698.946 1057.73,700.157 1056.59,701.456 1055.49,702.841 1054.44,704.309 1053.44,705.857 1052.49,707.481 1051.59,709.177 1050.75,710.943 1049.97,712.773 1049.24,714.665 1048.58,716.613 1047.98,718.614 1047.44,720.663 1046.97,722.756 1046.56,724.889 1046.22,727.056 1045.95,729.252 1045.74,731.474 1045.6,733.715 1045.53,735.972 1045.53,738.35 "/>
<path clip-path="url(#clip872)" d="M1034.18 740.321 L1034.4 745.068 L1034.84 749.762 L1035.33 753.206 L1035.71 755.467 L1036.13 757.689 L1036.61 759.865 L1037.14 761.991 L1037.71 764.06 L1038.34 766.068 L1039 768.01 L1039.71 769.88 L1040.46 771.673 L1041.25 773.387 L1042.07 775.015 L1042.93 776.554 L1043.82 778 L1044.75 779.35 L1045.7 780.599 L1046.68 781.745 L1047.68 782.785 L1048.7 783.716 L1049.74 784.536 L1050.8 785.242 L1051.86 785.834 L1052.94 786.309 L1054.03 786.667 L1055.12 786.905 L1056.21 787.025 L1057.28 787.025 L1058.31 786.917 L1059.34 786.701 L1060.37 786.377 L1061.38 785.948 L1062.38 785.412 L1063.36 784.772 L1064.33 784.029 L1065.28 783.185 L1066.2 782.241 L1067.11 781.201 L1067.98 780.065 L1068.83 778.837 L1069.65 777.52 L1070.44 776.117 L1071.2 774.631 L1071.92 773.064 L1072.6 771.422 L1073.25 769.707 L1073.85 767.924 L1074.42 766.077 L1074.94 764.169 L1075.42 762.206 L1075.85 760.191 L1076.24 758.129 L1076.58 756.026 L1077.03 752.814 L1077.42 748.411 L1077.62 743.93 L1077.62 739.295 L1077.4 734.547 L1076.96 729.854 L1076.48 726.409 L1076.1 724.148 L1075.67 721.927 L1075.19 719.75 L1074.66 717.625 L1074.09 715.556 L1073.47 713.548 L1072.8 711.606 L1072.1 709.736 L1071.35 707.942 L1070.56 706.229 L1069.73 704.601 L1068.87 703.062 L1067.98 701.616 L1067.06 700.266 L1066.11 699.017 L1065.13 697.871 L1064.13 696.831 L1063.1 695.9 L1062.06 695.08 L1061.01 694.373 L1059.94 693.782 L1058.86 693.307 L1057.78 692.949 L1056.68 692.71 L1055.59 692.591 L1054.53 692.591 L1053.49 692.699 L1052.46 692.915 L1051.44 693.238 L1050.43 693.668 L1049.43 694.204 L1048.44 694.844 L1047.48 695.587 L1046.53 696.431 L1045.6 697.375 L1044.7 698.415 L1043.82 699.551 L1042.97 700.778 L1042.15 702.095 L1041.36 703.499 L1040.61 704.985 L1039.89 706.551 L1039.2 708.194 L1038.56 709.908 L1037.95 711.692 L1037.39 713.539 L1036.86 715.447 L1036.38 717.41 L1035.95 719.425 L1035.56 721.486 L1035.22 723.59 L1034.78 726.802 L1034.38 731.204 L1034.18 735.686 L1034.18 740.321 L1034.18 740.321  Z" fill="#ffff00" fill-rule="evenodd" fill-opacity="1"/>
<polyline clip-path="url(#clip872)" style="stroke:#000000; stroke-linecap:round; stroke-linejoin:round; stroke-width:4; stroke-opacity:1; fill:none" points="1034.18,740.321 1034.4,745.068 1034.84,749.762 1035.33,753.206 1035.71,755.467 1036.13,757.689 1036.61,759.865 1037.14,761.991 1037.71,764.06 1038.34,766.068 1039,768.01 1039.71,769.88 1040.46,771.673 1041.25,773.387 1042.07,775.015 1042.93,776.554 1043.82,778 1044.75,779.35 1045.7,780.599 1046.68,781.745 1047.68,782.785 1048.7,783.716 1049.74,784.536 1050.8,785.242 1051.86,785.834 1052.94,786.309 1054.03,786.667 1055.12,786.905 1056.21,787.025 1057.28,787.025 1058.31,786.917 1059.34,786.701 1060.37,786.377 1061.38,785.948 1062.38,785.412 1063.36,784.772 1064.33,784.029 1065.28,783.185 1066.2,782.241 1067.11,781.201 1067.98,780.065 1068.83,778.837 1069.65,777.52 1070.44,776.117 1071.2,774.631 1071.92,773.064 1072.6,771.422 1073.25,769.707 1073.85,767.924 1074.42,766.077 1074.94,764.169 1075.42,762.206 1075.85,760.191 1076.24,758.129 1076.58,756.026 1077.03,752.814 1077.42,748.411 1077.62,743.93 1077.62,739.295 1077.4,734.547 1076.96,729.854 1076.48,726.409 1076.1,724.148 1075.67,721.927 1075.19,719.75 1074.66,717.625 1074.09,715.556 1073.47,713.548 1072.8,711.606 1072.1,709.736 1071.35,707.942 1070.56,706.229 1069.73,704.601 1068.87,703.062 1067.98,701.616 1067.06,700.266 1066.11,699.017 1065.13,697.871 1064.13,696.831 1063.1,695.9 1062.06,695.08 1061.01,694.373 1059.94,693.782 1058.86,693.307 1057.78,692.949 1056.68,692.71 1055.59,692.591 1054.53,692.591 1053.49,692.699 1052.46,692.915 1051.44,693.238 1050.43,693.668 1049.43,694.204 1048.44,694.844 1047.48,695.587 1046.53,696.431 1045.6,697.375 1044.7,698.415 1043.82,699.551 1042.97,700.778 1042.15,702.095 1041.36,703.499 1040.61,704.985 1039.89,706.551 1039.2,708.194 1038.56,709.908 1037.95,711.692 1037.39,713.539 1036.86,715.447 1036.38,717.41 1035.95,719.425 1035.56,721.486 1035.22,723.59 1034.78,726.802 1034.38,731.204 1034.18,735.686 1034.18,740.321 "/>
<path clip-path="url(#clip872)" d="M1444.27 294.536 L1444.47 297.041 L1444.87 299.607 L1445.46 302.229 L1446.25 304.906 L1447.23 307.633 L1448.41 310.408 L1449.78 313.226 L1451.34 316.086 L1453.09 318.982 L1455.03 321.913 L1457.15 324.873 L1459.46 327.86 L1461.94 330.871 L1464.6 333.9 L1467.43 336.946 L1470.44 340.003 L1473.61 343.069 L1476.94 346.139 L1480.43 349.211 L1484.07 352.28 L1487.87 355.342 L1491.81 358.395 L1495.89 361.433 L1500.1 364.454 L1504.45 367.454 L1508.92 370.429 L1513.51 373.376 L1518.21 376.291 L1523.03 379.171 L1527.94 382.012 L1532.95 384.811 L1538.06 387.564 L1543.24 390.268 L1548.51 392.919 L1553.85 395.516 L1559.25 398.054 L1564.72 400.53 L1570.23 402.941 L1575.79 405.286 L1581.39 407.559 L1587.02 409.76 L1592.68 411.885 L1598.36 413.932 L1604.05 415.898 L1609.74 417.781 L1615.43 419.578 L1621.12 421.288 L1626.79 422.908 L1632.43 424.437 L1638.05 425.872 L1643.63 427.212 L1649.16 428.455 L1654.65 429.6 L1660.08 430.646 L1665.45 431.59 L1670.75 432.433 L1675.98 433.172 L1681.12 433.807 L1686.18 434.338 L1691.14 434.763 L1696 435.083 L1700.76 435.296 L1705.4 435.403 L1709.54 435.403 L1713.2 435.33 L1716.77 435.184 L1720.25 434.965 L1723.65 434.674 L1726.94 434.31 L1730.14 433.875 L1733.24 433.368 L1736.23 432.789 L1739.12 432.14 L1741.9 431.42 L1744.58 430.631 L1747.13 429.773 L1749.58 428.846 L1751.91 427.852 L1754.11 426.791 L1756.2 425.664 L1758.17 424.473 L1760.01 423.217 L1761.73 421.899 L1763.32 420.519 L1764.78 419.078 L1766.12 417.577 L1767.32 416.019 L1768.39 414.403 L1769.33 412.732 L1770.14 411.006 L1770.82 409.228 L1771.35 407.398 L1771.76 405.519 L1772.03 403.591 L1772.17 401.617 L1772.17 399.386 L1771.97 396.881 L1771.57 394.315 L1770.98 391.693 L1770.19 389.016 L1769.21 386.289 L1768.03 383.514 L1766.66 380.696 L1765.1 377.836 L1763.35 374.94 L1761.41 372.009 L1759.29 369.049 L1756.98 366.061 L1754.5 363.051 L1751.84 360.022 L1749 356.976 L1746 353.919 L1742.83 350.853 L1739.5 347.782 L1736.01 344.711 L1732.36 341.642 L1728.57 338.58 L1724.63 335.527 L1720.55 332.489 L1716.34 329.468 L1711.99 326.468 L1707.52 323.493 L1702.93 320.546 L1698.23 317.63 L1693.41 314.751 L1688.5 311.91 L1683.49 309.111 L1678.38 306.358 L1673.19 303.654 L1667.93 301.002 L1662.59 298.406 L1657.19 295.868 L1651.72 293.392 L1646.21 290.98 L1640.65 288.636 L1635.05 286.362 L1629.41 284.162 L1623.76 282.037 L1618.08 279.99 L1612.39 278.024 L1606.7 276.141 L1601 274.344 L1595.32 272.634 L1589.65 271.014 L1584.01 269.485 L1578.39 268.05 L1572.81 266.71 L1567.28 265.467 L1561.79 264.322 L1556.35 263.276 L1550.99 262.332 L1545.68 261.489 L1540.46 260.75 L1535.32 260.115 L1530.26 259.584 L1525.3 259.159 L1520.44 258.839 L1515.68 258.626 L1511.04 258.519 L1506.9 258.519 L1503.24 258.592 L1499.67 258.738 L1496.19 258.957 L1492.79 259.248 L1489.5 259.611 L1486.3 260.047 L1483.2 260.554 L1480.21 261.133 L1477.32 261.782 L1474.53 262.502 L1471.86 263.291 L1469.31 264.149 L1466.86 265.076 L1464.53 266.07 L1462.33 267.131 L1460.24 268.257 L1458.27 269.449 L1456.43 270.705 L1454.71 272.023 L1453.12 273.403 L1451.66 274.844 L1450.32 276.345 L1449.12 277.903 L1448.05 279.519 L1447.11 281.19 L1446.3 282.915 L1445.62 284.694 L1445.08 286.523 L1444.68 288.403 L1444.41 290.331 L1444.27 292.305 L1444.27 294.536 L1444.27 294.536  Z" fill="#ffff00" fill-rule="evenodd" fill-opacity="1"/>
<polyline clip-path="url(#clip872)" style="stroke:#000000; stroke-linecap:round; stroke-linejoin:round; stroke-width:4; stroke-opacity:1; fill:none" points="1444.27,294.536 1444.47,297.041 1444.87,299.607 1445.46,302.229 1446.25,304.906 1447.23,307.633 1448.41,310.408 1449.78,313.226 1451.34,316.086 1453.09,318.982 1455.03,321.913 1457.15,324.873 1459.46,327.86 1461.94,330.871 1464.6,333.9 1467.43,336.946 1470.44,340.003 1473.61,343.069 1476.94,346.139 1480.43,349.211 1484.07,352.28 1487.87,355.342 1491.81,358.395 1495.89,361.433 1500.1,364.454 1504.45,367.454 1508.92,370.429 1513.51,373.376 1518.21,376.291 1523.03,379.171 1527.94,382.012 1532.95,384.811 1538.06,387.564 1543.24,390.268 1548.51,392.919 1553.85,395.516 1559.25,398.054 1564.72,400.53 1570.23,402.941 1575.79,405.286 1581.39,407.559 1587.02,409.76 1592.68,411.885 1598.36,413.932 1604.05,415.898 1609.74,417.781 1615.43,419.578 1621.12,421.288 1626.79,422.908 1632.43,424.437 1638.05,425.872 1643.63,427.212 1649.16,428.455 1654.65,429.6 1660.08,430.646 1665.45,431.59 1670.75,432.433 1675.98,433.172 1681.12,433.807 1686.18,434.338 1691.14,434.763 1696,435.083 1700.76,435.296 1705.4,435.403 1709.54,435.403 1713.2,435.33 1716.77,435.184 1720.25,434.965 1723.65,434.674 1726.94,434.31 1730.14,433.875 1733.24,433.368 1736.23,432.789 1739.12,432.14 1741.9,431.42 1744.58,430.631 1747.13,429.773 1749.58,428.846 1751.91,427.852 1754.11,426.791 1756.2,425.664 1758.17,424.473 1760.01,423.217 1761.73,421.899 1763.32,420.519 1764.78,419.078 1766.12,417.577 1767.32,416.019 1768.39,414.403 1769.33,412.732 1770.14,411.006 1770.82,409.228 1771.35,407.398 1771.76,405.519 1772.03,403.591 1772.17,401.617 1772.17,399.386 1771.97,396.881 1771.57,394.315 1770.98,391.693 1770.19,389.016 1769.21,386.289 1768.03,383.514 1766.66,380.696 1765.1,377.836 1763.35,374.94 1761.41,372.009 1759.29,369.049 1756.98,366.061 1754.5,363.051 1751.84,360.022 1749,356.976 1746,353.919 1742.83,350.853 1739.5,347.782 1736.01,344.711 1732.36,341.642 1728.57,338.58 1724.63,335.527 1720.55,332.489 1716.34,329.468 1711.99,326.468 1707.52,323.493 1702.93,320.546 1698.23,317.63 1693.41,314.751 1688.5,311.91 1683.49,309.111 1678.38,306.358 1673.19,303.654 1667.93,301.002 1662.59,298.406 1657.19,295.868 1651.72,293.392 1646.21,290.98 1640.65,288.636 1635.05,286.362 1629.41,284.162 1623.76,282.037 1618.08,279.99 1612.39,278.024 1606.7,276.141 1601,274.344 1595.32,272.634 1589.65,271.014 1584.01,269.485 1578.39,268.05 1572.81,266.71 1567.28,265.467 1561.79,264.322 1556.35,263.276 1550.99,262.332 1545.68,261.489 1540.46,260.75 1535.32,260.115 1530.26,259.584 1525.3,259.159 1520.44,258.839 1515.68,258.626 1511.04,258.519 1506.9,258.519 1503.24,258.592 1499.67,258.738 1496.19,258.957 1492.79,259.248 1489.5,259.611 1486.3,260.047 1483.2,260.554 1480.21,261.133 1477.32,261.782 1474.53,262.502 1471.86,263.291 1469.31,264.149 1466.86,265.076 1464.53,266.07 1462.33,267.131 1460.24,268.257 1458.27,269.449 1456.43,270.705 1454.71,272.023 1453.12,273.403 1451.66,274.844 1450.32,276.345 1449.12,277.903 1448.05,279.519 1447.11,281.19 1446.3,282.915 1445.62,284.694 1445.08,286.523 1444.68,288.403 1444.41,290.331 1444.27,292.305 1444.27,294.536 "/>
<path clip-path="url(#clip872)" d="M1299.07 512.681 L1299.22 514.597 L1299.51 516.495 L1299.94 518.371 L1300.52 520.221 L1301.25 522.043 L1302.11 523.831 L1303.12 525.584 L1304.26 527.296 L1305.53 528.965 L1306.94 530.588 L1308.48 532.16 L1310.15 533.68 L1311.94 535.143 L1313.85 536.548 L1315.88 537.891 L1318.02 539.169 L1320.26 540.38 L1322.61 541.522 L1325.06 542.592 L1327.6 543.589 L1330.23 544.509 L1332.95 545.352 L1335.74 546.115 L1338.61 546.797 L1341.54 547.397 L1344.53 547.914 L1347.58 548.346 L1350.67 548.693 L1353.81 548.953 L1356.99 549.127 L1360.19 549.214 L1363.73 549.214 L1367.62 549.09 L1371.51 548.841 L1375.41 548.469 L1379.3 547.975 L1383.17 547.359 L1387 546.625 L1390.79 545.773 L1394.53 544.806 L1398.2 543.728 L1401.8 542.541 L1405.32 541.248 L1408.73 539.854 L1412.05 538.362 L1415.24 536.776 L1418.32 535.102 L1421.26 533.343 L1424.06 531.505 L1426.72 529.593 L1429.21 527.613 L1431.54 525.57 L1433.71 523.47 L1435.69 521.319 L1437.5 519.123 L1439.11 516.889 L1440.54 514.623 L1441.77 512.331 L1442.8 510.02 L1443.63 507.696 L1444.25 505.366 L1444.66 503.037 L1444.87 500.716 L1444.87 498.598 L1444.73 496.682 L1444.43 494.784 L1444 492.908 L1443.42 491.058 L1442.7 489.236 L1441.83 487.447 L1440.83 485.695 L1439.69 483.983 L1438.41 482.314 L1437 480.691 L1435.46 479.118 L1433.79 477.599 L1432 476.135 L1430.09 474.731 L1428.07 473.388 L1425.93 472.11 L1423.68 470.898 L1421.33 469.757 L1418.88 468.686 L1416.34 467.69 L1413.71 466.77 L1411 465.927 L1408.2 465.164 L1405.34 464.482 L1402.41 463.882 L1399.41 463.365 L1396.37 462.933 L1393.27 462.586 L1390.13 462.326 L1386.96 462.151 L1383.75 462.064 L1380.21 462.064 L1376.32 462.189 L1372.43 462.438 L1368.53 462.81 L1364.64 463.304 L1360.78 463.92 L1356.94 464.654 L1353.15 465.506 L1349.41 466.472 L1345.74 467.551 L1342.14 468.738 L1338.63 470.03 L1335.21 471.425 L1331.9 472.917 L1328.7 474.502 L1325.62 476.177 L1322.68 477.936 L1319.88 479.774 L1317.23 481.685 L1314.73 483.666 L1312.4 485.709 L1310.24 487.809 L1308.25 489.96 L1306.45 492.155 L1304.83 494.39 L1303.4 496.656 L1302.17 498.948 L1301.15 501.259 L1300.32 503.583 L1299.7 505.912 L1299.28 508.241 L1299.07 510.563 L1299.07 512.681 L1299.07 512.681  Z" fill="#ffff00" fill-rule="evenodd" fill-opacity="1"/>
<polyline clip-path="url(#clip872)" style="stroke:#000000; stroke-linecap:round; stroke-linejoin:round; stroke-width:4; stroke-opacity:1; fill:none" points="1299.07,512.681 1299.22,514.597 1299.51,516.495 1299.94,518.371 1300.52,520.221 1301.25,522.043 1302.11,523.831 1303.12,525.584 1304.26,527.296 1305.53,528.965 1306.94,530.588 1308.48,532.16 1310.15,533.68 1311.94,535.143 1313.85,536.548 1315.88,537.891 1318.02,539.169 1320.26,540.38 1322.61,541.522 1325.06,542.592 1327.6,543.589 1330.23,544.509 1332.95,545.352 1335.74,546.115 1338.61,546.797 1341.54,547.397 1344.53,547.914 1347.58,548.346 1350.67,548.693 1353.81,548.953 1356.99,549.127 1360.19,549.214 1363.73,549.214 1367.62,549.09 1371.51,548.841 1375.41,548.469 1379.3,547.975 1383.17,547.359 1387,546.625 1390.79,545.773 1394.53,544.806 1398.2,543.728 1401.8,542.541 1405.32,541.248 1408.73,539.854 1412.05,538.362 1415.24,536.776 1418.32,535.102 1421.26,533.343 1424.06,531.505 1426.72,529.593 1429.21,527.613 1431.54,525.57 1433.71,523.47 1435.69,521.319 1437.5,519.123 1439.11,516.889 1440.54,514.623 1441.77,512.331 1442.8,510.02 1443.63,507.696 1444.25,505.366 1444.66,503.037 1444.87,500.716 1444.87,498.598 1444.73,496.682 1444.43,494.784 1444,492.908 1443.42,491.058 1442.7,489.236 1441.83,487.447 1440.83,485.695 1439.69,483.983 1438.41,482.314 1437,480.691 1435.46,479.118 1433.79,477.599 1432,476.135 1430.09,474.731 1428.07,473.388 1425.93,472.11 1423.68,470.898 1421.33,469.757 1418.88,468.686 1416.34,467.69 1413.71,466.77 1411,465.927 1408.2,465.164 1405.34,464.482 1402.41,463.882 1399.41,463.365 1396.37,462.933 1393.27,462.586 1390.13,462.326 1386.96,462.151 1383.75,462.064 1380.21,462.064 1376.32,462.189 1372.43,462.438 1368.53,462.81 1364.64,463.304 1360.78,463.92 1356.94,464.654 1353.15,465.506 1349.41,466.472 1345.74,467.551 1342.14,468.738 1338.63,470.03 1335.21,471.425 1331.9,472.917 1328.7,474.502 1325.62,476.177 1322.68,477.936 1319.88,479.774 1317.23,481.685 1314.73,483.666 1312.4,485.709 1310.24,487.809 1308.25,489.96 1306.45,492.155 1304.83,494.39 1303.4,496.656 1302.17,498.948 1301.15,501.259 1300.32,503.583 1299.7,505.912 1299.28,508.241 1299.07,510.563 1299.07,512.681 "/>
<path clip-path="url(#clip872)" d="M1382.95 532.623 L1383.04 534.527 L1383.22 536.402 L1383.48 538.245 L1383.83 540.054 L1384.26 541.825 L1384.78 543.557 L1385.38 545.246 L1386.07 546.889 L1386.84 548.485 L1387.69 550.03 L1388.63 551.522 L1389.64 552.96 L1390.72 554.34 L1391.89 555.66 L1393.12 556.919 L1394.43 558.114 L1395.81 559.244 L1397.25 560.307 L1398.76 561.301 L1400.33 562.225 L1401.97 563.076 L1403.66 563.855 L1405.4 564.559 L1407.2 565.188 L1409.05 565.74 L1410.94 566.215 L1412.88 566.612 L1414.86 566.931 L1416.88 567.17 L1418.93 567.33 L1421.01 567.41 L1423.63 567.41 L1426.82 567.233 L1430.05 566.881 L1433.32 566.354 L1436.6 565.655 L1439.89 564.785 L1443.17 563.748 L1446.45 562.547 L1449.69 561.187 L1452.9 559.672 L1456.06 558.007 L1459.17 556.198 L1462.2 554.251 L1465.16 552.173 L1468.02 549.971 L1470.78 547.653 L1473.44 545.226 L1475.97 542.7 L1478.38 540.082 L1480.66 537.382 L1482.79 534.609 L1484.77 531.772 L1486.59 528.882 L1488.24 525.948 L1489.73 522.981 L1491.05 519.99 L1492.18 516.986 L1493.13 513.979 L1493.9 510.979 L1494.47 507.998 L1494.86 505.045 L1495.05 502.13 L1495.05 499.732 L1494.97 497.828 L1494.79 495.954 L1494.53 494.111 L1494.18 492.302 L1493.75 490.53 L1493.23 488.799 L1492.62 487.11 L1491.93 485.466 L1491.16 483.871 L1490.31 482.325 L1489.38 480.833 L1488.37 479.395 L1487.28 478.016 L1486.12 476.695 L1484.88 475.436 L1483.58 474.241 L1482.2 473.111 L1480.75 472.048 L1479.24 471.054 L1477.67 470.131 L1476.04 469.279 L1474.35 468.5 L1472.6 467.796 L1470.8 467.167 L1468.96 466.615 L1467.06 466.14 L1465.12 465.743 L1463.15 465.425 L1461.13 465.185 L1459.08 465.026 L1457 464.946 L1454.37 464.946 L1451.18 465.122 L1447.95 465.474 L1444.69 466.001 L1441.41 466.7 L1438.12 467.57 L1434.83 468.607 L1431.56 469.808 L1428.31 471.168 L1425.1 472.684 L1421.94 474.349 L1418.84 476.158 L1415.8 478.105 L1412.85 480.182 L1409.99 482.384 L1407.22 484.702 L1404.57 487.129 L1402.03 489.655 L1399.62 492.273 L1397.35 494.973 L1395.22 497.746 L1393.24 500.583 L1391.42 503.473 L1389.76 506.407 L1388.27 509.375 L1386.96 512.366 L1385.82 515.37 L1384.87 518.377 L1384.11 521.376 L1383.53 524.357 L1383.15 527.311 L1382.95 530.226 L1382.95 532.623 L1382.95 532.623  Z" fill="#ffff00" fill-rule="evenodd" fill-opacity="1"/>
<polyline clip-path="url(#clip872)" style="stroke:#000000; stroke-linecap:round; stroke-linejoin:round; stroke-width:4; stroke-opacity:1; fill:none" points="1382.95,532.623 1383.04,534.527 1383.22,536.402 1383.48,538.245 1383.83,540.054 1384.26,541.825 1384.78,543.557 1385.38,545.246 1386.07,546.889 1386.84,548.485 1387.69,550.03 1388.63,551.522 1389.64,552.96 1390.72,554.34 1391.89,555.66 1393.12,556.919 1394.43,558.114 1395.81,559.244 1397.25,560.307 1398.76,561.301 1400.33,562.225 1401.97,563.076 1403.66,563.855 1405.4,564.559 1407.2,565.188 1409.05,565.74 1410.94,566.215 1412.88,566.612 1414.86,566.931 1416.88,567.17 1418.93,567.33 1421.01,567.41 1423.63,567.41 1426.82,567.233 1430.05,566.881 1433.32,566.354 1436.6,565.655 1439.89,564.785 1443.17,563.748 1446.45,562.547 1449.69,561.187 1452.9,559.672 1456.06,558.007 1459.17,556.198 1462.2,554.251 1465.16,552.173 1468.02,549.971 1470.78,547.653 1473.44,545.226 1475.97,542.7 1478.38,540.082 1480.66,537.382 1482.79,534.609 1484.77,531.772 1486.59,528.882 1488.24,525.948 1489.73,522.981 1491.05,519.99 1492.18,516.986 1493.13,513.979 1493.9,510.979 1494.47,507.998 1494.86,505.045 1495.05,502.13 1495.05,499.732 1494.97,497.828 1494.79,495.954 1494.53,494.111 1494.18,492.302 1493.75,490.53 1493.23,488.799 1492.62,487.11 1491.93,485.466 1491.16,483.871 1490.31,482.325 1489.38,480.833 1488.37,479.395 1487.28,478.016 1486.12,476.695 1484.88,475.436 1483.58,474.241 1482.2,473.111 1480.75,472.048 1479.24,471.054 1477.67,470.131 1476.04,469.279 1474.35,468.5 1472.6,467.796 1470.8,467.167 1468.96,466.615 1467.06,466.14 1465.12,465.743 1463.15,465.425 1461.13,465.185 1459.08,465.026 1457,464.946 1454.37,464.946 1451.18,465.122 1447.95,465.474 1444.69,466.001 1441.41,466.7 1438.12,467.57 1434.83,468.607 1431.56,469.808 1428.31,471.168 1425.1,472.684 1421.94,474.349 1418.84,476.158 1415.8,478.105 1412.85,480.182 1409.99,482.384 1407.22,484.702 1404.57,487.129 1402.03,489.655 1399.62,492.273 1397.35,494.973 1395.22,497.746 1393.24,500.583 1391.42,503.473 1389.76,506.407 1388.27,509.375 1386.96,512.366 1385.82,515.37 1384.87,518.377 1384.11,521.376 1383.53,524.357 1383.15,527.311 1382.95,530.226 1382.95,532.623 "/>
<path clip-path="url(#clip872)" d="M1393.79 547.674 L1393.93 549.626 L1394.22 551.501 L1394.64 553.288 L1395.19 554.977 L1395.89 556.56 L1396.71 558.027 L1397.65 559.371 L1398.72 560.585 L1399.9 561.662 L1401.19 562.597 L1402.58 563.383 L1404.07 564.017 L1405.64 564.496 L1407.29 564.816 L1409 564.977 L1410.63 564.977 L1412.15 564.865 L1413.69 564.642 L1415.26 564.308 L1416.85 563.865 L1418.44 563.314 L1420.05 562.657 L1421.65 561.898 L1423.24 561.038 L1424.83 560.081 L1426.39 559.03 L1427.93 557.89 L1429.44 556.665 L1430.92 555.36 L1432.35 553.979 L1433.73 552.527 L1435.07 551.01 L1436.34 549.434 L1437.56 547.805 L1438.7 546.129 L1439.78 544.411 L1440.78 542.66 L1441.71 540.88 L1442.55 539.08 L1443.3 537.265 L1443.97 535.442 L1444.55 533.619 L1445.03 531.803 L1445.42 529.999 L1445.72 528.215 L1445.91 526.458 L1446.01 524.734 L1446.01 522.882 L1445.87 520.93 L1445.59 519.055 L1445.17 517.269 L1444.61 515.579 L1443.92 513.997 L1443.1 512.529 L1442.15 511.185 L1441.08 509.971 L1439.9 508.894 L1438.61 507.96 L1437.22 507.174 L1435.74 506.539 L1434.16 506.061 L1432.52 505.74 L1430.8 505.579 L1429.17 505.579 L1427.66 505.691 L1426.11 505.914 L1424.54 506.248 L1422.96 506.692 L1421.36 507.243 L1419.76 507.899 L1418.16 508.659 L1416.56 509.519 L1414.98 510.476 L1413.41 511.526 L1411.87 512.666 L1410.36 513.891 L1408.89 515.197 L1407.46 516.578 L1406.07 518.03 L1404.74 519.546 L1403.46 521.122 L1402.25 522.751 L1401.1 524.428 L1400.02 526.145 L1399.02 527.897 L1398.1 529.676 L1397.26 531.477 L1396.5 533.292 L1395.83 535.114 L1395.25 536.937 L1394.77 538.754 L1394.38 540.558 L1394.09 542.341 L1393.89 544.099 L1393.79 545.823 L1393.79 547.674 L1393.79 547.674  Z" fill="#ffff00" fill-rule="evenodd" fill-opacity="1"/>
<polyline clip-path="url(#clip872)" style="stroke:#000000; stroke-linecap:round; stroke-linejoin:round; stroke-width:4; stroke-opacity:1; fill:none" points="1393.79,547.674 1393.93,549.626 1394.22,551.501 1394.64,553.288 1395.19,554.977 1395.89,556.56 1396.71,558.027 1397.65,559.371 1398.72,560.585 1399.9,561.662 1401.19,562.597 1402.58,563.383 1404.07,564.017 1405.64,564.496 1407.29,564.816 1409,564.977 1410.63,564.977 1412.15,564.865 1413.69,564.642 1415.26,564.308 1416.85,563.865 1418.44,563.314 1420.05,562.657 1421.65,561.898 1423.24,561.038 1424.83,560.081 1426.39,559.03 1427.93,557.89 1429.44,556.665 1430.92,555.36 1432.35,553.979 1433.73,552.527 1435.07,551.01 1436.34,549.434 1437.56,547.805 1438.7,546.129 1439.78,544.411 1440.78,542.66 1441.71,540.88 1442.55,539.08 1443.3,537.265 1443.97,535.442 1444.55,533.619 1445.03,531.803 1445.42,529.999 1445.72,528.215 1445.91,526.458 1446.01,524.734 1446.01,522.882 1445.87,520.93 1445.59,519.055 1445.17,517.269 1444.61,515.579 1443.92,513.997 1443.1,512.529 1442.15,511.185 1441.08,509.971 1439.9,508.894 1438.61,507.96 1437.22,507.174 1435.74,506.539 1434.16,506.061 1432.52,505.74 1430.8,505.579 1429.17,505.579 1427.66,505.691 1426.11,505.914 1424.54,506.248 1422.96,506.692 1421.36,507.243 1419.76,507.899 1418.16,508.659 1416.56,509.519 1414.98,510.476 1413.41,511.526 1411.87,512.666 1410.36,513.891 1408.89,515.197 1407.46,516.578 1406.07,518.03 1404.74,519.546 1403.46,521.122 1402.25,522.751 1401.1,524.428 1400.02,526.145 1399.02,527.897 1398.1,529.676 1397.26,531.477 1396.5,533.292 1395.83,535.114 1395.25,536.937 1394.77,538.754 1394.38,540.558 1394.09,542.341 1393.89,544.099 1393.79,545.823 1393.79,547.674 "/>
<path clip-path="url(#clip872)" d="M1589.19 459.538 L1589.26 461.006 L1589.41 462.469 L1589.62 463.923 L1589.91 465.365 L1590.27 466.791 L1590.69 468.198 L1591.19 469.582 L1591.75 470.94 L1592.38 472.269 L1593.07 473.565 L1593.83 474.826 L1594.65 476.048 L1595.52 477.229 L1596.45 478.365 L1597.44 479.454 L1598.48 480.494 L1599.57 481.481 L1600.71 482.414 L1601.89 483.289 L1603.11 484.106 L1604.37 484.862 L1605.67 485.555 L1607 486.183 L1608.35 486.746 L1609.74 487.241 L1611.14 487.668 L1612.57 488.025 L1614.01 488.312 L1615.47 488.527 L1616.93 488.671 L1618.4 488.743 L1619.87 488.743 L1621.34 488.671 L1622.8 488.527 L1624.25 488.312 L1625.69 488.025 L1627.12 487.668 L1628.53 487.241 L1629.91 486.746 L1631.27 486.183 L1632.6 485.555 L1633.89 484.862 L1635.16 484.106 L1636.38 483.289 L1637.56 482.414 L1638.69 481.481 L1639.78 480.494 L1640.82 479.454 L1641.81 478.365 L1642.74 477.229 L1643.62 476.048 L1644.44 474.826 L1645.19 473.565 L1645.88 472.269 L1646.51 470.94 L1647.07 469.582 L1647.57 468.198 L1648 466.791 L1648.35 465.365 L1648.64 463.923 L1648.86 462.469 L1649 461.006 L1649.07 459.538 L1649.07 458.068 L1649 456.6 L1648.86 455.137 L1648.64 453.683 L1648.35 452.241 L1648 450.815 L1647.57 449.409 L1647.07 448.025 L1646.51 446.667 L1645.88 445.338 L1645.19 444.041 L1644.44 442.78 L1643.62 441.558 L1642.74 440.377 L1641.81 439.241 L1640.82 438.152 L1639.78 437.113 L1638.69 436.125 L1637.56 435.193 L1636.38 434.317 L1635.16 433.5 L1633.89 432.745 L1632.6 432.052 L1631.27 431.423 L1629.91 430.861 L1628.53 430.366 L1627.12 429.939 L1625.69 429.582 L1624.25 429.295 L1622.8 429.079 L1621.34 428.935 L1619.87 428.863 L1618.4 428.863 L1616.93 428.935 L1615.47 429.079 L1614.01 429.295 L1612.57 429.582 L1611.14 429.939 L1609.74 430.366 L1608.35 430.861 L1607 431.423 L1605.67 432.052 L1604.37 432.745 L1603.11 433.5 L1601.89 434.317 L1600.71 435.193 L1599.57 436.125 L1598.48 437.113 L1597.44 438.152 L1596.45 439.241 L1595.52 440.377 L1594.65 441.558 L1593.83 442.78 L1593.07 444.041 L1592.38 445.338 L1591.75 446.667 L1591.19 448.025 L1590.69 449.409 L1590.27 450.815 L1589.91 452.241 L1589.62 453.683 L1589.41 455.137 L1589.26 456.6 L1589.19 458.068 L1589.19 459.538 L1589.19 459.538  Z" fill="#ffff00" fill-rule="evenodd" fill-opacity="1"/>
<polyline clip-path="url(#clip872)" style="stroke:#000000; stroke-linecap:round; stroke-linejoin:round; stroke-width:4; stroke-opacity:1; fill:none" points="1589.19,459.538 1589.26,461.006 1589.41,462.469 1589.62,463.923 1589.91,465.365 1590.27,466.791 1590.69,468.198 1591.19,469.582 1591.75,470.94 1592.38,472.269 1593.07,473.565 1593.83,474.826 1594.65,476.048 1595.52,477.229 1596.45,478.365 1597.44,479.454 1598.48,480.494 1599.57,481.481 1600.71,482.414 1601.89,483.289 1603.11,484.106 1604.37,484.862 1605.67,485.555 1607,486.183 1608.35,486.746 1609.74,487.241 1611.14,487.668 1612.57,488.025 1614.01,488.312 1615.47,488.527 1616.93,488.671 1618.4,488.743 1619.87,488.743 1621.34,488.671 1622.8,488.527 1624.25,488.312 1625.69,488.025 1627.12,487.668 1628.53,487.241 1629.91,486.746 1631.27,486.183 1632.6,485.555 1633.89,484.862 1635.16,484.106 1636.38,483.289 1637.56,482.414 1638.69,481.481 1639.78,480.494 1640.82,479.454 1641.81,478.365 1642.74,477.229 1643.62,476.048 1644.44,474.826 1645.19,473.565 1645.88,472.269 1646.51,470.94 1647.07,469.582 1647.57,468.198 1648,466.791 1648.35,465.365 1648.64,463.923 1648.86,462.469 1649,461.006 1649.07,459.538 1649.07,458.068 1649,456.6 1648.86,455.137 1648.64,453.683 1648.35,452.241 1648,450.815 1647.57,449.409 1647.07,448.025 1646.51,446.667 1645.88,445.338 1645.19,444.041 1644.44,442.78 1643.62,441.558 1642.74,440.377 1641.81,439.241 1640.82,438.152 1639.78,437.113 1638.69,436.125 1637.56,435.193 1636.38,434.317 1635.16,433.5 1633.89,432.745 1632.6,432.052 1631.27,431.423 1629.91,430.861 1628.53,430.366 1627.12,429.939 1625.69,429.582 1624.25,429.295 1622.8,429.079 1621.34,428.935 1619.87,428.863 1618.4,428.863 1616.93,428.935 1615.47,429.079 1614.01,429.295 1612.57,429.582 1611.14,429.939 1609.74,430.366 1608.35,430.861 1607,431.423 1605.67,432.052 1604.37,432.745 1603.11,433.5 1601.89,434.317 1600.71,435.193 1599.57,436.125 1598.48,437.113 1597.44,438.152 1596.45,439.241 1595.52,440.377 1594.65,441.558 1593.83,442.78 1593.07,444.041 1592.38,445.338 1591.75,446.667 1591.19,448.025 1590.69,449.409 1590.27,450.815 1589.91,452.241 1589.62,453.683 1589.41,455.137 1589.26,456.6 1589.19,458.068 1589.19,459.538 "/>
<path clip-path="url(#clip872)" d="M1010.86 1058.07 L1010.95 1059 L1011.13 1059.91 L1011.4 1060.8 L1011.76 1061.66 L1012.2 1062.48 L1012.71 1063.26 L1013.3 1063.97 L1013.96 1064.63 L1014.68 1065.22 L1015.45 1065.74 L1016.27 1066.18 L1017.13 1066.53 L1018.02 1066.8 L1018.94 1066.99 L1019.86 1067.08 L1020.79 1067.08 L1021.72 1066.99 L1022.63 1066.8 L1023.52 1066.53 L1024.38 1066.18 L1025.2 1065.74 L1025.97 1065.22 L1026.69 1064.63 L1027.35 1063.97 L1027.94 1063.26 L1028.46 1062.48 L1028.9 1061.66 L1029.25 1060.8 L1029.52 1059.91 L1029.7 1059 L1029.79 1058.07 L1029.79 1057.14 L1029.7 1056.22 L1029.52 1055.31 L1029.25 1054.42 L1028.9 1053.56 L1028.46 1052.74 L1027.94 1051.96 L1027.35 1051.24 L1026.69 1050.59 L1025.97 1049.99 L1025.2 1049.48 L1024.38 1049.04 L1023.52 1048.68 L1022.63 1048.41 L1021.72 1048.23 L1020.79 1048.14 L1019.86 1048.14 L1018.94 1048.23 L1018.02 1048.41 L1017.13 1048.68 L1016.27 1049.04 L1015.45 1049.48 L1014.68 1049.99 L1013.96 1050.59 L1013.3 1051.24 L1012.71 1051.96 L1012.2 1052.74 L1011.76 1053.56 L1011.4 1054.42 L1011.13 1055.31 L1010.95 1056.22 L1010.86 1057.14 L1010.86 1058.07 L1010.86 1058.07  Z" fill="#008000" fill-rule="evenodd" fill-opacity="1"/>
<polyline clip-path="url(#clip872)" style="stroke:#000000; stroke-linecap:round; stroke-linejoin:round; stroke-width:4; stroke-opacity:1; fill:none" points="1010.86,1058.07 1010.95,1059 1011.13,1059.91 1011.4,1060.8 1011.76,1061.66 1012.2,1062.48 1012.71,1063.26 1013.3,1063.97 1013.96,1064.63 1014.68,1065.22 1015.45,1065.74 1016.27,1066.18 1017.13,1066.53 1018.02,1066.8 1018.94,1066.99 1019.86,1067.08 1020.79,1067.08 1021.72,1066.99 1022.63,1066.8 1023.52,1066.53 1024.38,1066.18 1025.2,1065.74 1025.97,1065.22 1026.69,1064.63 1027.35,1063.97 1027.94,1063.26 1028.46,1062.48 1028.9,1061.66 1029.25,1060.8 1029.52,1059.91 1029.7,1059 1029.79,1058.07 1029.79,1057.14 1029.7,1056.22 1029.52,1055.31 1029.25,1054.42 1028.9,1053.56 1028.46,1052.74 1027.94,1051.96 1027.35,1051.24 1026.69,1050.59 1025.97,1049.99 1025.2,1049.48 1024.38,1049.04 1023.52,1048.68 1022.63,1048.41 1021.72,1048.23 1020.79,1048.14 1019.86,1048.14 1018.94,1048.23 1018.02,1048.41 1017.13,1048.68 1016.27,1049.04 1015.45,1049.48 1014.68,1049.99 1013.96,1050.59 1013.3,1051.24 1012.71,1051.96 1012.2,1052.74 1011.76,1053.56 1011.4,1054.42 1011.13,1055.31 1010.95,1056.22 1010.86,1057.14 1010.86,1058.07 "/>
<path clip-path="url(#clip872)" d="M1589.19 459.538 L1589.26 461.006 L1589.41 462.469 L1589.62 463.923 L1589.91 465.365 L1590.27 466.791 L1590.69 468.198 L1591.19 469.582 L1591.75 470.94 L1592.38 472.269 L1593.07 473.565 L1593.83 474.826 L1594.65 476.048 L1595.52 477.229 L1596.45 478.365 L1597.44 479.454 L1598.48 480.494 L1599.57 481.481 L1600.71 482.414 L1601.89 483.289 L1603.11 484.106 L1604.37 484.862 L1605.67 485.555 L1607 486.183 L1608.35 486.746 L1609.74 487.241 L1611.14 487.668 L1612.57 488.025 L1614.01 488.312 L1615.47 488.527 L1616.93 488.671 L1618.4 488.743 L1619.87 488.743 L1621.34 488.671 L1622.8 488.527 L1624.25 488.312 L1625.69 488.025 L1627.12 487.668 L1628.53 487.241 L1629.91 486.746 L1631.27 486.183 L1632.6 485.555 L1633.89 484.862 L1635.16 484.106 L1636.38 483.289 L1637.56 482.414 L1638.69 481.481 L1639.78 480.494 L1640.82 479.454 L1641.81 478.365 L1642.74 477.229 L1643.62 476.048 L1644.44 474.826 L1645.19 473.565 L1645.88 472.269 L1646.51 470.94 L1647.07 469.582 L1647.57 468.198 L1648 466.791 L1648.35 465.365 L1648.64 463.923 L1648.86 462.469 L1649 461.006 L1649.07 459.538 L1649.07 458.068 L1649 456.6 L1648.86 455.137 L1648.64 453.683 L1648.35 452.241 L1648 450.815 L1647.57 449.409 L1647.07 448.025 L1646.51 446.667 L1645.88 445.338 L1645.19 444.041 L1644.44 442.78 L1643.62 441.558 L1642.74 440.377 L1641.81 439.241 L1640.82 438.152 L1639.78 437.113 L1638.69 436.125 L1637.56 435.193 L1636.38 434.317 L1635.16 433.5 L1633.89 432.745 L1632.6 432.052 L1631.27 431.423 L1629.91 430.861 L1628.53 430.366 L1627.12 429.939 L1625.69 429.582 L1624.25 429.295 L1622.8 429.079 L1621.34 428.935 L1619.87 428.863 L1618.4 428.863 L1616.93 428.935 L1615.47 429.079 L1614.01 429.295 L1612.57 429.582 L1611.14 429.939 L1609.74 430.366 L1608.35 430.861 L1607 431.423 L1605.67 432.052 L1604.37 432.745 L1603.11 433.5 L1601.89 434.317 L1600.71 435.193 L1599.57 436.125 L1598.48 437.113 L1597.44 438.152 L1596.45 439.241 L1595.52 440.377 L1594.65 441.558 L1593.83 442.78 L1593.07 444.041 L1592.38 445.338 L1591.75 446.667 L1591.19 448.025 L1590.69 449.409 L1590.27 450.815 L1589.91 452.241 L1589.62 453.683 L1589.41 455.137 L1589.26 456.6 L1589.19 458.068 L1589.19 459.538 L1589.19 459.538  Z" fill="#ff0000" fill-rule="evenodd" fill-opacity="1"/>
<polyline clip-path="url(#clip872)" style="stroke:#000000; stroke-linecap:round; stroke-linejoin:round; stroke-width:4; stroke-opacity:1; fill:none" points="1589.19,459.538 1589.26,461.006 1589.41,462.469 1589.62,463.923 1589.91,465.365 1590.27,466.791 1590.69,468.198 1591.19,469.582 1591.75,470.94 1592.38,472.269 1593.07,473.565 1593.83,474.826 1594.65,476.048 1595.52,477.229 1596.45,478.365 1597.44,479.454 1598.48,480.494 1599.57,481.481 1600.71,482.414 1601.89,483.289 1603.11,484.106 1604.37,484.862 1605.67,485.555 1607,486.183 1608.35,486.746 1609.74,487.241 1611.14,487.668 1612.57,488.025 1614.01,488.312 1615.47,488.527 1616.93,488.671 1618.4,488.743 1619.87,488.743 1621.34,488.671 1622.8,488.527 1624.25,488.312 1625.69,488.025 1627.12,487.668 1628.53,487.241 1629.91,486.746 1631.27,486.183 1632.6,485.555 1633.89,484.862 1635.16,484.106 1636.38,483.289 1637.56,482.414 1638.69,481.481 1639.78,480.494 1640.82,479.454 1641.81,478.365 1642.74,477.229 1643.62,476.048 1644.44,474.826 1645.19,473.565 1645.88,472.269 1646.51,470.94 1647.07,469.582 1647.57,468.198 1648,466.791 1648.35,465.365 1648.64,463.923 1648.86,462.469 1649,461.006 1649.07,459.538 1649.07,458.068 1649,456.6 1648.86,455.137 1648.64,453.683 1648.35,452.241 1648,450.815 1647.57,449.409 1647.07,448.025 1646.51,446.667 1645.88,445.338 1645.19,444.041 1644.44,442.78 1643.62,441.558 1642.74,440.377 1641.81,439.241 1640.82,438.152 1639.78,437.113 1638.69,436.125 1637.56,435.193 1636.38,434.317 1635.16,433.5 1633.89,432.745 1632.6,432.052 1631.27,431.423 1629.91,430.861 1628.53,430.366 1627.12,429.939 1625.69,429.582 1624.25,429.295 1622.8,429.079 1621.34,428.935 1619.87,428.863 1618.4,428.863 1616.93,428.935 1615.47,429.079 1614.01,429.295 1612.57,429.582 1611.14,429.939 1609.74,430.366 1608.35,430.861 1607,431.423 1605.67,432.052 1604.37,432.745 1603.11,433.5 1601.89,434.317 1600.71,435.193 1599.57,436.125 1598.48,437.113 1597.44,438.152 1596.45,439.241 1595.52,440.377 1594.65,441.558 1593.83,442.78 1593.07,444.041 1592.38,445.338 1591.75,446.667 1591.19,448.025 1590.69,449.409 1590.27,450.815 1589.91,452.241 1589.62,453.683 1589.41,455.137 1589.26,456.6 1589.19,458.068 1589.19,459.538 "/>
</svg>
