<?xml version="1.0" encoding="utf-8"?>
<svg xmlns="http://www.w3.org/2000/svg" xmlns:xlink="http://www.w3.org/1999/xlink" width="600" height="400" viewBox="0 0 2400 1600">
<defs>
  <clipPath id="clip250">
    <rect x="0" y="0" width="2400" height="1600"/>
  </clipPath>
</defs>
<path clip-path="url(#clip250)" d="M0 1600 L2400 1600 L2400 0 L0 0  Z" fill="#ffffff" fill-rule="evenodd" fill-opacity="1"/>
<defs>
  <clipPath id="clip251">
    <rect x="480" y="0" width="1681" height="1600"/>
  </clipPath>
</defs>
<path clip-path="url(#clip250)" d="M201.835 1477.81 L2352.76 1477.81 L2352.76 123.472 L201.835 123.472  Z" fill="#ffffff" fill-rule="evenodd" fill-opacity="1"/>
<defs>
  <clipPath id="clip252">
    <rect x="201" y="123" width="2152" height="1355"/>
  </clipPath>
</defs>
<polyline clip-path="url(#clip252)" style="stroke:#000000; stroke-linecap:round; stroke-linejoin:round; stroke-width:2; stroke-opacity:0.1; fill:none" points="381.528,1477.81 381.528,123.472 "/>
<polyline clip-path="url(#clip252)" style="stroke:#000000; stroke-linecap:round; stroke-linejoin:round; stroke-width:2; stroke-opacity:0.1; fill:none" points="854.642,1477.81 854.642,123.472 "/>
<polyline clip-path="url(#clip252)" style="stroke:#000000; stroke-linecap:round; stroke-linejoin:round; stroke-width:2; stroke-opacity:0.1; fill:none" points="1327.76,1477.81 1327.76,123.472 "/>
<polyline clip-path="url(#clip252)" style="stroke:#000000; stroke-linecap:round; stroke-linejoin:round; stroke-width:2; stroke-opacity:0.1; fill:none" points="1800.87,1477.81 1800.87,123.472 "/>
<polyline clip-path="url(#clip252)" style="stroke:#000000; stroke-linecap:round; stroke-linejoin:round; stroke-width:2; stroke-opacity:0.1; fill:none" points="2273.98,1477.81 2273.98,123.472 "/>
<polyline clip-path="url(#clip252)" style="stroke:#000000; stroke-linecap:round; stroke-linejoin:round; stroke-width:2; stroke-opacity:0.1; fill:none" points="201.835,1424.52 2352.76,1424.52 "/>
<polyline clip-path="url(#clip252)" style="stroke:#000000; stroke-linecap:round; stroke-linejoin:round; stroke-width:2; stroke-opacity:0.1; fill:none" points="201.835,1187.96 2352.76,1187.96 "/>
<polyline clip-path="url(#clip252)" style="stroke:#000000; stroke-linecap:round; stroke-linejoin:round; stroke-width:2; stroke-opacity:0.1; fill:none" points="201.835,951.403 2352.76,951.403 "/>
<polyline clip-path="url(#clip252)" style="stroke:#000000; stroke-linecap:round; stroke-linejoin:round; stroke-width:2; stroke-opacity:0.1; fill:none" points="201.835,714.846 2352.76,714.846 "/>
<polyline clip-path="url(#clip252)" style="stroke:#000000; stroke-linecap:round; stroke-linejoin:round; stroke-width:2; stroke-opacity:0.1; fill:none" points="201.835,478.289 2352.76,478.289 "/>
<polyline clip-path="url(#clip252)" style="stroke:#000000; stroke-linecap:round; stroke-linejoin:round; stroke-width:2; stroke-opacity:0.1; fill:none" points="201.835,241.733 2352.76,241.733 "/>
<polyline clip-path="url(#clip250)" style="stroke:#000000; stroke-linecap:round; stroke-linejoin:round; stroke-width:4; stroke-opacity:1; fill:none" points="201.835,1477.81 2352.76,1477.81 "/>
<polyline clip-path="url(#clip250)" style="stroke:#000000; stroke-linecap:round; stroke-linejoin:round; stroke-width:4; stroke-opacity:1; fill:none" points="381.528,1477.81 381.528,1458.91 "/>
<polyline clip-path="url(#clip250)" style="stroke:#000000; stroke-linecap:round; stroke-linejoin:round; stroke-width:4; stroke-opacity:1; fill:none" points="854.642,1477.81 854.642,1458.91 "/>
<polyline clip-path="url(#clip250)" style="stroke:#000000; stroke-linecap:round; stroke-linejoin:round; stroke-width:4; stroke-opacity:1; fill:none" points="1327.76,1477.81 1327.76,1458.91 "/>
<polyline clip-path="url(#clip250)" style="stroke:#000000; stroke-linecap:round; stroke-linejoin:round; stroke-width:4; stroke-opacity:1; fill:none" points="1800.87,1477.81 1800.87,1458.91 "/>
<polyline clip-path="url(#clip250)" style="stroke:#000000; stroke-linecap:round; stroke-linejoin:round; stroke-width:4; stroke-opacity:1; fill:none" points="2273.98,1477.81 2273.98,1458.91 "/>
<path clip-path="url(#clip250)" d="M324.107 1529.97 L361.201 1529.97 L361.201 1534.89 L324.107 1534.89 L324.107 1529.97 Z" fill="#000000" fill-rule="nonzero" fill-opacity="1" /><path clip-path="url(#clip250)" d="M378.852 1546.09 L399.251 1546.09 L399.251 1551.01 L371.821 1551.01 L371.821 1546.09 Q375.148 1542.65 380.877 1536.86 Q386.635 1531.04 388.111 1529.36 Q390.918 1526.21 392.017 1524.04 Q393.146 1521.84 393.146 1519.73 Q393.146 1516.29 390.715 1514.12 Q388.314 1511.95 384.436 1511.95 Q381.687 1511.95 378.62 1512.9 Q375.582 1513.86 372.11 1515.79 L372.11 1509.89 Q375.64 1508.47 378.707 1507.75 Q381.774 1507.03 384.32 1507.03 Q391.033 1507.03 395.026 1510.38 Q399.019 1513.74 399.019 1519.35 Q399.019 1522.01 398.007 1524.42 Q397.023 1526.79 394.39 1530.03 Q393.666 1530.87 389.789 1534.89 Q385.912 1538.88 378.852 1546.09 Z" fill="#000000" fill-rule="nonzero" fill-opacity="1" /><path clip-path="url(#clip250)" d="M424.019 1511.66 Q419.505 1511.66 417.22 1516.11 Q414.963 1520.54 414.963 1529.45 Q414.963 1538.33 417.22 1542.79 Q419.505 1547.22 424.019 1547.22 Q428.562 1547.22 430.819 1542.79 Q433.105 1538.33 433.105 1529.45 Q433.105 1520.54 430.819 1516.11 Q428.562 1511.66 424.019 1511.66 M424.019 1507.03 Q431.282 1507.03 435.101 1512.78 Q438.95 1518.51 438.95 1529.45 Q438.95 1540.36 435.101 1546.12 Q431.282 1551.85 424.019 1551.85 Q416.757 1551.85 412.908 1546.12 Q409.089 1540.36 409.089 1529.45 Q409.089 1518.51 412.908 1512.78 Q416.757 1507.03 424.019 1507.03 Z" fill="#000000" fill-rule="nonzero" fill-opacity="1" /><path clip-path="url(#clip250)" d="M797.22 1529.97 L834.315 1529.97 L834.315 1534.89 L797.22 1534.89 L797.22 1529.97 Z" fill="#000000" fill-rule="nonzero" fill-opacity="1" /><path clip-path="url(#clip250)" d="M847.943 1546.09 L857.492 1546.09 L857.492 1513.13 L847.104 1515.22 L847.104 1509.89 L857.434 1507.81 L863.279 1507.81 L863.279 1546.09 L872.827 1546.09 L872.827 1551.01 L847.943 1551.01 L847.943 1546.09 Z" fill="#000000" fill-rule="nonzero" fill-opacity="1" /><path clip-path="url(#clip250)" d="M897.133 1511.66 Q892.619 1511.66 890.333 1516.11 Q888.076 1520.54 888.076 1529.45 Q888.076 1538.33 890.333 1542.79 Q892.619 1547.22 897.133 1547.22 Q901.676 1547.22 903.933 1542.79 Q906.218 1538.33 906.218 1529.45 Q906.218 1520.54 903.933 1516.11 Q901.676 1511.66 897.133 1511.66 M897.133 1507.03 Q904.396 1507.03 908.215 1512.78 Q912.063 1518.51 912.063 1529.45 Q912.063 1540.36 908.215 1546.12 Q904.396 1551.85 897.133 1551.85 Q889.87 1551.85 886.022 1546.12 Q882.202 1540.36 882.202 1529.45 Q882.202 1518.51 886.022 1512.78 Q889.87 1507.03 897.133 1507.03 Z" fill="#000000" fill-rule="nonzero" fill-opacity="1" /><path clip-path="url(#clip250)" d="M1327.76 1511.66 Q1323.24 1511.66 1320.96 1516.11 Q1318.7 1520.54 1318.7 1529.45 Q1318.7 1538.33 1320.96 1542.79 Q1323.24 1547.22 1327.76 1547.22 Q1332.3 1547.22 1334.56 1542.79 Q1336.84 1538.33 1336.84 1529.45 Q1336.84 1520.54 1334.56 1516.11 Q1332.3 1511.66 1327.76 1511.66 M1327.76 1507.03 Q1335.02 1507.03 1338.84 1512.78 Q1342.69 1518.51 1342.69 1529.45 Q1342.69 1540.36 1338.84 1546.12 Q1335.02 1551.85 1327.76 1551.85 Q1320.49 1551.85 1316.64 1546.12 Q1312.82 1540.36 1312.82 1529.45 Q1312.82 1518.51 1316.64 1512.78 Q1320.49 1507.03 1327.76 1507.03 Z" fill="#000000" fill-rule="nonzero" fill-opacity="1" /><path clip-path="url(#clip250)" d="M1769.23 1546.09 L1778.78 1546.09 L1778.78 1513.13 L1768.39 1515.22 L1768.39 1509.89 L1778.72 1507.81 L1784.56 1507.81 L1784.56 1546.09 L1794.11 1546.09 L1794.11 1551.01 L1769.23 1551.01 L1769.23 1546.09 Z" fill="#000000" fill-rule="nonzero" fill-opacity="1" /><path clip-path="url(#clip250)" d="M1818.42 1511.66 Q1813.9 1511.66 1811.62 1516.11 Q1809.36 1520.54 1809.36 1529.45 Q1809.36 1538.33 1811.62 1542.79 Q1813.9 1547.22 1818.42 1547.22 Q1822.96 1547.22 1825.22 1542.79 Q1827.5 1538.33 1827.5 1529.45 Q1827.5 1520.54 1825.22 1516.11 Q1822.96 1511.66 1818.42 1511.66 M1818.42 1507.03 Q1825.68 1507.03 1829.5 1512.78 Q1833.35 1518.51 1833.35 1529.45 Q1833.35 1540.36 1829.5 1546.12 Q1825.68 1551.85 1818.42 1551.85 Q1811.16 1551.85 1807.31 1546.12 Q1803.49 1540.36 1803.49 1529.45 Q1803.49 1518.51 1807.31 1512.78 Q1811.16 1507.03 1818.42 1507.03 Z" fill="#000000" fill-rule="nonzero" fill-opacity="1" /><path clip-path="url(#clip250)" d="M2247.45 1546.09 L2267.85 1546.09 L2267.85 1551.01 L2240.42 1551.01 L2240.42 1546.09 Q2243.75 1542.65 2249.47 1536.86 Q2255.23 1531.04 2256.71 1529.36 Q2259.51 1526.21 2260.61 1524.04 Q2261.74 1521.84 2261.74 1519.73 Q2261.74 1516.29 2259.31 1514.12 Q2256.91 1511.95 2253.03 1511.95 Q2250.28 1511.95 2247.22 1512.9 Q2244.18 1513.86 2240.71 1515.79 L2240.71 1509.89 Q2244.24 1508.47 2247.3 1507.75 Q2250.37 1507.03 2252.92 1507.03 Q2259.63 1507.03 2263.62 1510.38 Q2267.62 1513.74 2267.62 1519.35 Q2267.62 1522.01 2266.6 1524.42 Q2265.62 1526.79 2262.99 1530.03 Q2262.26 1530.87 2258.39 1534.89 Q2254.51 1538.88 2247.45 1546.09 Z" fill="#000000" fill-rule="nonzero" fill-opacity="1" /><path clip-path="url(#clip250)" d="M2292.62 1511.66 Q2288.1 1511.66 2285.82 1516.11 Q2283.56 1520.54 2283.56 1529.45 Q2283.56 1538.33 2285.82 1542.79 Q2288.1 1547.22 2292.62 1547.22 Q2297.16 1547.22 2299.42 1542.79 Q2301.7 1538.33 2301.7 1529.45 Q2301.7 1520.54 2299.42 1516.11 Q2297.16 1511.66 2292.62 1511.66 M2292.62 1507.03 Q2299.88 1507.03 2303.7 1512.78 Q2307.55 1518.51 2307.55 1529.45 Q2307.55 1540.36 2303.7 1546.12 Q2299.88 1551.85 2292.62 1551.85 Q2285.35 1551.85 2281.51 1546.12 Q2277.69 1540.36 2277.69 1529.45 Q2277.69 1518.51 2281.51 1512.78 Q2285.35 1507.03 2292.62 1507.03 Z" fill="#000000" fill-rule="nonzero" fill-opacity="1" /><polyline clip-path="url(#clip250)" style="stroke:#000000; stroke-linecap:round; stroke-linejoin:round; stroke-width:4; stroke-opacity:1; fill:none" points="201.835,1477.81 201.835,123.472 "/>
<polyline clip-path="url(#clip250)" style="stroke:#000000; stroke-linecap:round; stroke-linejoin:round; stroke-width:4; stroke-opacity:1; fill:none" points="201.835,1424.52 220.733,1424.52 "/>
<polyline clip-path="url(#clip250)" style="stroke:#000000; stroke-linecap:round; stroke-linejoin:round; stroke-width:4; stroke-opacity:1; fill:none" points="201.835,1187.96 220.733,1187.96 "/>
<polyline clip-path="url(#clip250)" style="stroke:#000000; stroke-linecap:round; stroke-linejoin:round; stroke-width:4; stroke-opacity:1; fill:none" points="201.835,951.403 220.733,951.403 "/>
<polyline clip-path="url(#clip250)" style="stroke:#000000; stroke-linecap:round; stroke-linejoin:round; stroke-width:4; stroke-opacity:1; fill:none" points="201.835,714.846 220.733,714.846 "/>
<polyline clip-path="url(#clip250)" style="stroke:#000000; stroke-linecap:round; stroke-linejoin:round; stroke-width:4; stroke-opacity:1; fill:none" points="201.835,478.289 220.733,478.289 "/>
<polyline clip-path="url(#clip250)" style="stroke:#000000; stroke-linecap:round; stroke-linejoin:round; stroke-width:4; stroke-opacity:1; fill:none" points="201.835,241.733 220.733,241.733 "/>
<path clip-path="url(#clip250)" d="M50.9921 1425.08 L88.0868 1425.08 L88.0868 1430 L50.9921 1430 L50.9921 1425.08 Z" fill="#000000" fill-rule="nonzero" fill-opacity="1" /><path clip-path="url(#clip250)" d="M101.715 1441.2 L111.264 1441.2 L111.264 1408.24 L100.876 1410.32 L100.876 1405 L111.206 1402.92 L117.051 1402.92 L117.051 1441.2 L126.599 1441.2 L126.599 1446.12 L101.715 1446.12 L101.715 1441.2 Z" fill="#000000" fill-rule="nonzero" fill-opacity="1" /><path clip-path="url(#clip250)" d="M150.905 1406.76 Q146.391 1406.76 144.105 1411.22 Q141.848 1415.65 141.848 1424.56 Q141.848 1433.44 144.105 1437.9 Q146.391 1442.33 150.905 1442.33 Q155.448 1442.33 157.705 1437.9 Q159.99 1433.44 159.99 1424.56 Q159.99 1415.65 157.705 1411.22 Q155.448 1406.76 150.905 1406.76 M150.905 1402.14 Q158.167 1402.14 161.987 1407.89 Q165.835 1413.62 165.835 1424.56 Q165.835 1435.47 161.987 1441.23 Q158.167 1446.96 150.905 1446.96 Q143.642 1446.96 139.794 1441.23 Q135.974 1435.47 135.974 1424.56 Q135.974 1413.62 139.794 1407.89 Q143.642 1402.14 150.905 1402.14 Z" fill="#000000" fill-rule="nonzero" fill-opacity="1" /><path clip-path="url(#clip250)" d="M89.9387 1188.52 L127.033 1188.52 L127.033 1193.44 L89.9387 1193.44 L89.9387 1188.52 Z" fill="#000000" fill-rule="nonzero" fill-opacity="1" /><path clip-path="url(#clip250)" d="M139.707 1166.36 L162.652 1166.36 L162.652 1171.28 L145.06 1171.28 L145.06 1181.87 Q146.333 1181.43 147.606 1181.23 Q148.879 1181 150.152 1181 Q157.386 1181 161.611 1184.96 Q165.835 1188.93 165.835 1195.7 Q165.835 1202.67 161.495 1206.55 Q157.155 1210.4 149.255 1210.4 Q146.536 1210.4 143.7 1209.94 Q140.893 1209.47 137.884 1208.55 L137.884 1202.67 Q140.488 1204.09 143.266 1204.79 Q146.044 1205.48 149.14 1205.48 Q154.146 1205.48 157.068 1202.85 Q159.99 1200.21 159.99 1195.7 Q159.99 1191.19 157.068 1188.55 Q154.146 1185.92 149.14 1185.92 Q146.796 1185.92 144.452 1186.44 Q142.137 1186.96 139.707 1188.06 L139.707 1166.36 Z" fill="#000000" fill-rule="nonzero" fill-opacity="1" /><path clip-path="url(#clip250)" d="M150.905 933.651 Q146.391 933.651 144.105 938.107 Q141.848 942.534 141.848 951.446 Q141.848 960.329 144.105 964.785 Q146.391 969.212 150.905 969.212 Q155.448 969.212 157.705 964.785 Q159.99 960.329 159.99 951.446 Q159.99 942.534 157.705 938.107 Q155.448 933.651 150.905 933.651 M150.905 929.022 Q158.167 929.022 161.987 934.78 Q165.835 940.509 165.835 951.446 Q165.835 962.355 161.987 968.113 Q158.167 973.842 150.905 973.842 Q143.642 973.842 139.794 968.113 Q135.974 962.355 135.974 951.446 Q135.974 940.509 139.794 934.78 Q143.642 929.022 150.905 929.022 Z" fill="#000000" fill-rule="nonzero" fill-opacity="1" /><path clip-path="url(#clip250)" d="M139.707 693.246 L162.652 693.246 L162.652 698.165 L145.06 698.165 L145.06 708.755 Q146.333 708.321 147.606 708.119 Q148.879 707.887 150.152 707.887 Q157.386 707.887 161.611 711.851 Q165.835 715.815 165.835 722.586 Q165.835 729.56 161.495 733.437 Q157.155 737.285 149.255 737.285 Q146.536 737.285 143.7 736.822 Q140.893 736.359 137.884 735.433 L137.884 729.56 Q140.488 730.977 143.266 731.672 Q146.044 732.366 149.14 732.366 Q154.146 732.366 157.068 729.733 Q159.99 727.1 159.99 722.586 Q159.99 718.072 157.068 715.439 Q154.146 712.806 149.14 712.806 Q146.796 712.806 144.452 713.327 Q142.137 713.848 139.707 714.947 L139.707 693.246 Z" fill="#000000" fill-rule="nonzero" fill-opacity="1" /><path clip-path="url(#clip250)" d="M101.715 494.97 L111.264 494.97 L111.264 462.013 L100.876 464.097 L100.876 458.773 L111.206 456.689 L117.051 456.689 L117.051 494.97 L126.599 494.97 L126.599 499.889 L101.715 499.889 L101.715 494.97 Z" fill="#000000" fill-rule="nonzero" fill-opacity="1" /><path clip-path="url(#clip250)" d="M150.905 460.538 Q146.391 460.538 144.105 464.994 Q141.848 469.421 141.848 478.333 Q141.848 487.216 144.105 491.672 Q146.391 496.099 150.905 496.099 Q155.448 496.099 157.705 491.672 Q159.99 487.216 159.99 478.333 Q159.99 469.421 157.705 464.994 Q155.448 460.538 150.905 460.538 M150.905 455.908 Q158.167 455.908 161.987 461.666 Q165.835 467.395 165.835 478.333 Q165.835 489.241 161.987 494.999 Q158.167 500.728 150.905 500.728 Q143.642 500.728 139.794 494.999 Q135.974 489.241 135.974 478.333 Q135.974 467.395 139.794 461.666 Q143.642 455.908 150.905 455.908 Z" fill="#000000" fill-rule="nonzero" fill-opacity="1" /><path clip-path="url(#clip250)" d="M102.959 258.414 L112.508 258.414 L112.508 225.457 L102.12 227.54 L102.12 222.216 L112.45 220.133 L118.295 220.133 L118.295 258.414 L127.844 258.414 L127.844 263.333 L102.959 263.333 L102.959 258.414 Z" fill="#000000" fill-rule="nonzero" fill-opacity="1" /><path clip-path="url(#clip250)" d="M139.707 220.133 L162.652 220.133 L162.652 225.052 L145.06 225.052 L145.06 235.642 Q146.333 235.208 147.606 235.005 Q148.879 234.774 150.152 234.774 Q157.386 234.774 161.611 238.738 Q165.835 242.702 165.835 249.473 Q165.835 256.446 161.495 260.323 Q157.155 264.172 149.255 264.172 Q146.536 264.172 143.7 263.709 Q140.893 263.246 137.884 262.32 L137.884 256.446 Q140.488 257.864 143.266 258.558 Q146.044 259.253 149.14 259.253 Q154.146 259.253 157.068 256.62 Q159.99 253.987 159.99 249.473 Q159.99 244.959 157.068 242.326 Q154.146 239.693 149.14 239.693 Q146.796 239.693 144.452 240.213 Q142.137 240.734 139.707 241.834 L139.707 220.133 Z" fill="#000000" fill-rule="nonzero" fill-opacity="1" /><path clip-path="url(#clip250)" d="M1048.42 20.1573 L1037.32 50.2555 L1059.56 50.2555 L1048.42 20.1573 M1043.8 12.096 L1053.08 12.096 L1076.13 72.576 L1067.62 72.576 L1062.11 57.061 L1034.85 57.061 L1029.34 72.576 L1020.71 72.576 L1043.8 12.096 Z" fill="#000000" fill-rule="nonzero" fill-opacity="1" /><path clip-path="url(#clip250)" d="M1117.2 49.9314 Q1117.2 41.7081 1113.8 37.0496 Q1110.44 32.3505 1104.52 32.3505 Q1098.61 32.3505 1095.21 37.0496 Q1091.85 41.7081 1091.85 49.9314 Q1091.85 58.1548 1095.21 62.8538 Q1098.61 67.5124 1104.52 67.5124 Q1110.44 67.5124 1113.8 62.8538 Q1117.2 58.1548 1117.2 49.9314 M1091.85 34.0924 Q1094.19 30.0415 1097.76 28.0971 Q1101.36 26.1121 1106.35 26.1121 Q1114.61 26.1121 1119.76 32.6746 Q1124.94 39.2371 1124.94 49.9314 Q1124.94 60.6258 1119.76 67.1883 Q1114.61 73.7508 1106.35 73.7508 Q1101.36 73.7508 1097.76 71.8063 Q1094.19 69.8214 1091.85 65.7705 L1091.85 72.576 L1084.35 72.576 L1084.35 9.54393 L1091.85 9.54393 L1091.85 34.0924 Z" fill="#000000" fill-rule="nonzero" fill-opacity="1" /><path clip-path="url(#clip250)" d="M1166.22 28.5427 L1166.22 35.5912 Q1163.06 33.9709 1159.66 33.1607 Q1156.25 32.3505 1152.61 32.3505 Q1147.06 32.3505 1144.26 34.0519 Q1141.51 35.7533 1141.51 39.156 Q1141.51 41.7486 1143.49 43.2475 Q1145.48 44.7058 1151.47 46.0426 L1154.03 46.6097 Q1161.97 48.3111 1165.29 51.4303 Q1168.65 54.509 1168.65 60.0587 Q1168.65 66.3781 1163.63 70.0644 Q1158.64 73.7508 1149.89 73.7508 Q1146.25 73.7508 1142.28 73.0216 Q1138.35 72.3329 1133.97 70.9151 L1133.97 63.2184 Q1138.11 65.3654 1142.12 66.4591 Q1146.13 67.5124 1150.06 67.5124 Q1155.32 67.5124 1158.16 65.73 Q1160.99 63.9071 1160.99 60.6258 Q1160.99 57.5877 1158.93 55.9673 Q1156.9 54.3469 1149.98 52.8481 L1147.38 52.2405 Q1140.46 50.7821 1137.38 47.7845 Q1134.3 44.7463 1134.3 39.4801 Q1134.3 33.0797 1138.84 29.5959 Q1143.37 26.1121 1151.72 26.1121 Q1155.85 26.1121 1159.5 26.7198 Q1163.14 27.3274 1166.22 28.5427 Z" fill="#000000" fill-rule="nonzero" fill-opacity="1" /><path clip-path="url(#clip250)" d="M1187.89 14.324 L1187.89 27.2059 L1203.25 27.2059 L1203.25 32.9987 L1187.89 32.9987 L1187.89 57.6282 Q1187.89 63.1779 1189.39 64.7578 Q1190.93 66.3376 1195.59 66.3376 L1203.25 66.3376 L1203.25 72.576 L1195.59 72.576 Q1186.96 72.576 1183.68 69.3758 Q1180.4 66.1351 1180.4 57.6282 L1180.4 32.9987 L1174.93 32.9987 L1174.93 27.2059 L1180.4 27.2059 L1180.4 14.324 L1187.89 14.324 Z" fill="#000000" fill-rule="nonzero" fill-opacity="1" /><path clip-path="url(#clip250)" d="M1239.34 34.1734 Q1238.08 33.4443 1236.58 33.1202 Q1235.13 32.7556 1233.34 32.7556 Q1227.02 32.7556 1223.62 36.8875 Q1220.26 40.9789 1220.26 48.6757 L1220.26 72.576 L1212.76 72.576 L1212.76 27.2059 L1220.26 27.2059 L1220.26 34.2544 Q1222.61 30.1225 1226.38 28.1376 Q1230.14 26.1121 1235.53 26.1121 Q1236.3 26.1121 1237.23 26.2337 Q1238.16 26.3147 1239.3 26.5172 L1239.34 34.1734 Z" fill="#000000" fill-rule="nonzero" fill-opacity="1" /><path clip-path="url(#clip250)" d="M1267.78 49.7694 Q1258.74 49.7694 1255.26 51.8354 Q1251.77 53.9013 1251.77 58.8839 Q1251.77 62.8538 1254.37 65.2034 Q1257 67.5124 1261.5 67.5124 Q1267.69 67.5124 1271.42 63.1374 Q1275.19 58.7219 1275.19 51.4303 L1275.19 49.7694 L1267.78 49.7694 M1282.64 46.6907 L1282.64 72.576 L1275.19 72.576 L1275.19 65.6895 Q1272.64 69.8214 1268.83 71.8063 Q1265.02 73.7508 1259.51 73.7508 Q1252.54 73.7508 1248.41 69.8619 Q1244.32 65.9325 1244.32 59.3701 Q1244.32 51.7138 1249.43 47.825 Q1254.57 43.9361 1264.74 43.9361 L1275.19 43.9361 L1275.19 43.2069 Q1275.19 38.0623 1271.79 35.2672 Q1268.42 32.4315 1262.31 32.4315 Q1258.42 32.4315 1254.73 33.3632 Q1251.05 34.295 1247.64 36.1584 L1247.64 29.2718 Q1251.73 27.692 1255.58 26.9223 Q1259.43 26.1121 1263.08 26.1121 Q1272.92 26.1121 1277.78 31.2163 Q1282.64 36.3204 1282.64 46.6907 Z" fill="#000000" fill-rule="nonzero" fill-opacity="1" /><path clip-path="url(#clip250)" d="M1330.65 28.9478 L1330.65 35.9153 Q1327.49 34.1734 1324.29 33.3227 Q1321.13 32.4315 1317.89 32.4315 Q1310.63 32.4315 1306.62 37.0496 Q1302.61 41.6271 1302.61 49.9314 Q1302.61 58.2358 1306.62 62.8538 Q1310.63 67.4314 1317.89 67.4314 Q1321.13 67.4314 1324.29 66.5807 Q1327.49 65.6895 1330.65 63.9476 L1330.65 70.8341 Q1327.53 72.2924 1324.16 73.0216 Q1320.84 73.7508 1317.08 73.7508 Q1306.83 73.7508 1300.79 67.3098 Q1294.75 60.8689 1294.75 49.9314 Q1294.75 38.832 1300.83 32.472 Q1306.95 26.1121 1317.56 26.1121 Q1321 26.1121 1324.29 26.8413 Q1327.57 27.5299 1330.65 28.9478 Z" fill="#000000" fill-rule="nonzero" fill-opacity="1" /><path clip-path="url(#clip250)" d="M1350.98 14.324 L1350.98 27.2059 L1366.33 27.2059 L1366.33 32.9987 L1350.98 32.9987 L1350.98 57.6282 Q1350.98 63.1779 1352.48 64.7578 Q1354.02 66.3376 1358.68 66.3376 L1366.33 66.3376 L1366.33 72.576 L1358.68 72.576 Q1350.05 72.576 1346.77 69.3758 Q1343.49 66.1351 1343.49 57.6282 L1343.49 32.9987 L1338.02 32.9987 L1338.02 27.2059 L1343.49 27.2059 L1343.49 14.324 L1350.98 14.324 Z" fill="#000000" fill-rule="nonzero" fill-opacity="1" /><path clip-path="url(#clip250)" d="M1376.14 27.2059 L1383.59 27.2059 L1383.59 72.576 L1376.14 72.576 L1376.14 27.2059 M1376.14 9.54393 L1383.59 9.54393 L1383.59 18.9825 L1376.14 18.9825 L1376.14 9.54393 Z" fill="#000000" fill-rule="nonzero" fill-opacity="1" /><path clip-path="url(#clip250)" d="M1416.77 32.4315 Q1410.77 32.4315 1407.29 37.1306 Q1403.81 41.7891 1403.81 49.9314 Q1403.81 58.0738 1407.25 62.7728 Q1410.73 67.4314 1416.77 67.4314 Q1422.72 67.4314 1426.21 62.7323 Q1429.69 58.0333 1429.69 49.9314 Q1429.69 41.8701 1426.21 37.1711 Q1422.72 32.4315 1416.77 32.4315 M1416.77 26.1121 Q1426.49 26.1121 1432.04 32.4315 Q1437.59 38.7509 1437.59 49.9314 Q1437.59 61.0714 1432.04 67.4314 Q1426.49 73.7508 1416.77 73.7508 Q1407.01 73.7508 1401.46 67.4314 Q1395.95 61.0714 1395.95 49.9314 Q1395.95 38.7509 1401.46 32.4315 Q1407.01 26.1121 1416.77 26.1121 Z" fill="#000000" fill-rule="nonzero" fill-opacity="1" /><path clip-path="url(#clip250)" d="M1487.66 45.1919 L1487.66 72.576 L1480.21 72.576 L1480.21 45.4349 Q1480.21 38.994 1477.69 35.7938 Q1475.18 32.5936 1470.16 32.5936 Q1464.12 32.5936 1460.64 36.4419 Q1457.16 40.2903 1457.16 46.9338 L1457.16 72.576 L1449.66 72.576 L1449.66 27.2059 L1457.16 27.2059 L1457.16 34.2544 Q1459.83 30.163 1463.43 28.1376 Q1467.08 26.1121 1471.82 26.1121 Q1479.64 26.1121 1483.65 30.9732 Q1487.66 35.7938 1487.66 45.1919 Z" fill="#000000" fill-rule="nonzero" fill-opacity="1" /><path clip-path="url(#clip250)" d="M1531.45 28.5427 L1531.45 35.5912 Q1528.29 33.9709 1524.89 33.1607 Q1521.48 32.3505 1517.84 32.3505 Q1512.29 32.3505 1509.49 34.0519 Q1506.74 35.7533 1506.74 39.156 Q1506.74 41.7486 1508.72 43.2475 Q1510.71 44.7058 1516.7 46.0426 L1519.26 46.6097 Q1527.2 48.3111 1530.52 51.4303 Q1533.88 54.509 1533.88 60.0587 Q1533.88 66.3781 1528.86 70.0644 Q1523.87 73.7508 1515.12 73.7508 Q1511.48 73.7508 1507.51 73.0216 Q1503.58 72.3329 1499.2 70.9151 L1499.2 63.2184 Q1503.34 65.3654 1507.35 66.4591 Q1511.36 67.5124 1515.29 67.5124 Q1520.55 67.5124 1523.39 65.73 Q1526.22 63.9071 1526.22 60.6258 Q1526.22 57.5877 1524.16 55.9673 Q1522.13 54.3469 1515.21 52.8481 L1512.61 52.2405 Q1505.69 50.7821 1502.61 47.7845 Q1499.53 44.7463 1499.53 39.4801 Q1499.53 33.0797 1504.07 29.5959 Q1508.6 26.1121 1516.95 26.1121 Q1521.08 26.1121 1524.72 26.7198 Q1528.37 27.3274 1531.45 28.5427 Z" fill="#000000" fill-rule="nonzero" fill-opacity="1" /><path clip-path="url(#clip252)" d="M839.681 1425.25 L839.825 1426.71 L840.111 1428.16 L840.538 1429.56 L841.101 1430.92 L841.794 1432.22 L842.61 1433.44 L843.543 1434.58 L844.582 1435.62 L845.719 1436.55 L846.941 1437.36 L848.237 1438.06 L849.595 1438.62 L851.002 1439.05 L852.444 1439.33 L853.907 1439.48 L855.377 1439.48 L856.84 1439.33 L858.281 1439.05 L859.688 1438.62 L861.046 1438.06 L862.343 1437.36 L863.565 1436.55 L864.701 1435.62 L865.741 1434.58 L866.673 1433.44 L867.49 1432.22 L868.183 1430.92 L868.745 1429.56 L869.172 1428.16 L869.459 1426.71 L869.603 1425.25 L869.603 1423.78 L869.459 1422.32 L869.172 1420.88 L868.745 1419.47 L868.183 1418.11 L867.49 1416.82 L866.673 1415.59 L865.741 1414.46 L864.701 1413.42 L863.565 1412.49 L862.343 1411.67 L861.046 1410.98 L859.688 1410.41 L858.281 1409.99 L856.84 1409.7 L855.377 1409.56 L853.907 1409.56 L852.444 1409.7 L851.002 1409.99 L849.595 1410.41 L848.237 1410.98 L846.941 1411.67 L845.719 1412.49 L844.582 1413.42 L843.543 1414.46 L842.61 1415.59 L841.794 1416.82 L841.101 1418.11 L840.538 1419.47 L840.111 1420.88 L839.825 1422.32 L839.681 1423.78 L839.681 1425.25 L839.681 1425.25  Z" fill="#ffff00" fill-rule="evenodd" fill-opacity="1"/>
<polyline clip-path="url(#clip252)" style="stroke:#000000; stroke-linecap:round; stroke-linejoin:round; stroke-width:4; stroke-opacity:1; fill:none" points="839.681,1425.25 839.825,1426.71 840.111,1428.16 840.538,1429.56 841.101,1430.92 841.794,1432.22 842.61,1433.44 843.543,1434.58 844.582,1435.62 845.719,1436.55 846.941,1437.36 848.237,1438.06 849.595,1438.62 851.002,1439.05 852.444,1439.33 853.907,1439.48 855.377,1439.48 856.84,1439.33 858.281,1439.05 859.688,1438.62 861.046,1438.06 862.343,1437.36 863.565,1436.55 864.701,1435.62 865.741,1434.58 866.673,1433.44 867.49,1432.22 868.183,1430.92 868.745,1429.56 869.172,1428.16 869.459,1426.71 869.603,1425.25 869.603,1423.78 869.459,1422.32 869.172,1420.88 868.745,1419.47 868.183,1418.11 867.49,1416.82 866.673,1415.59 865.741,1414.46 864.701,1413.42 863.565,1412.49 862.343,1411.67 861.046,1410.98 859.688,1410.41 858.281,1409.99 856.84,1409.7 855.377,1409.56 853.907,1409.56 852.444,1409.7 851.002,1409.99 849.595,1410.41 848.237,1410.98 846.941,1411.67 845.719,1412.49 844.582,1413.42 843.543,1414.46 842.61,1415.59 841.794,1416.82 841.101,1418.11 840.538,1419.47 840.111,1420.88 839.825,1422.32 839.681,1423.78 839.681,1425.25 "/>
<path clip-path="url(#clip252)" d="M511.9 891.129 L512.035 901.047 L512.304 911.053 L512.708 921.139 L513.245 931.295 L513.916 941.513 L514.72 951.783 L515.656 962.097 L516.723 972.445 L517.921 982.818 L519.248 993.206 L520.703 1003.6 L522.285 1013.99 L523.992 1024.38 L525.824 1034.74 L527.778 1045.07 L529.852 1055.36 L532.045 1065.6 L534.355 1075.78 L536.78 1085.9 L539.317 1095.95 L541.965 1105.9 L544.721 1115.77 L547.582 1125.53 L550.546 1135.19 L553.611 1144.72 L556.774 1154.13 L560.031 1163.4 L563.381 1172.52 L566.819 1181.5 L570.344 1190.31 L573.951 1198.96 L577.638 1207.43 L581.402 1215.72 L585.238 1223.81 L589.145 1231.71 L593.117 1239.41 L597.153 1246.89 L601.247 1254.15 L605.397 1261.2 L609.599 1268.01 L613.849 1274.58 L618.143 1280.91 L622.478 1286.99 L626.85 1292.82 L631.254 1298.39 L635.688 1303.7 L640.146 1308.74 L644.625 1313.5 L649.122 1317.99 L653.632 1322.2 L658.15 1326.12 L662.674 1329.76 L667.199 1333.1 L671.722 1336.15 L676.237 1338.9 L680.741 1341.35 L685.23 1343.5 L689.701 1345.35 L694.149 1346.89 L698.57 1348.12 L702.96 1349.05 L707.316 1349.67 L711.633 1349.98 L715.158 1349.98 L717.915 1349.85 L720.651 1349.59 L723.366 1349.2 L726.059 1348.67 L728.728 1348.02 L731.374 1347.24 L733.994 1346.33 L736.588 1345.29 L739.155 1344.13 L741.694 1342.83 L744.204 1341.41 L746.684 1339.85 L749.133 1338.18 L751.55 1336.37 L753.935 1334.44 L756.285 1332.39 L758.602 1330.21 L760.883 1327.91 L763.128 1325.49 L765.335 1322.94 L767.505 1320.28 L769.636 1317.5 L771.728 1314.59 L773.78 1311.57 L775.79 1308.44 L777.759 1305.19 L779.685 1301.83 L781.568 1298.35 L783.407 1294.76 L785.201 1291.06 L786.95 1287.26 L788.653 1283.35 L790.31 1279.33 L791.919 1275.21 L793.481 1270.98 L794.994 1266.65 L796.459 1262.23 L797.873 1257.71 L799.238 1253.09 L800.552 1248.38 L801.816 1243.57 L803.027 1238.67 L804.187 1233.69 L805.295 1228.62 L806.349 1223.46 L807.351 1218.22 L808.299 1212.9 L809.64 1204.8 L811.21 1193.69 L812.561 1182.29 L813.689 1170.63 L814.594 1158.71 L815.274 1146.55 L815.728 1134.18 L815.955 1121.6 L815.955 1110.32 L815.82 1100.4 L815.551 1090.39 L815.147 1080.31 L814.61 1070.15 L813.939 1059.93 L813.135 1049.66 L812.199 1039.35 L811.132 1029 L809.934 1018.63 L808.607 1008.24 L807.152 997.844 L805.57 987.452 L803.863 977.07 L802.031 966.71 L800.077 956.38 L798.003 946.09 L795.81 935.847 L793.5 925.662 L791.075 915.544 L788.538 905.501 L785.89 895.542 L783.134 885.677 L780.273 875.914 L777.309 866.261 L774.244 856.727 L771.081 847.32 L767.824 838.05 L764.474 828.924 L761.036 819.949 L757.511 811.135 L753.904 802.489 L750.217 794.019 L746.453 785.731 L742.617 777.634 L738.71 769.735 L734.738 762.04 L730.702 754.557 L726.608 747.291 L722.458 740.25 L718.256 733.44 L714.006 726.867 L709.712 720.536 L705.377 714.453 L701.005 708.624 L696.601 703.054 L692.167 697.747 L687.709 692.709 L683.229 687.944 L678.733 683.455 L674.223 679.248 L669.704 675.325 L665.181 671.691 L660.656 668.348 L656.133 665.299 L651.618 662.548 L647.114 660.096 L642.624 657.946 L638.154 656.099 L633.706 654.558 L629.285 653.323 L624.895 652.396 L620.539 651.778 L616.222 651.468 L612.697 651.468 L609.94 651.599 L607.204 651.859 L604.489 652.251 L601.796 652.772 L599.127 653.423 L596.481 654.204 L593.861 655.114 L591.267 656.153 L588.7 657.321 L586.161 658.617 L583.651 660.041 L581.171 661.592 L578.722 663.27 L576.305 665.074 L573.92 667.003 L571.57 669.057 L569.253 671.234 L566.972 673.535 L564.727 675.958 L562.52 678.502 L560.35 681.166 L558.219 683.95 L556.127 686.852 L554.075 689.871 L552.065 693.007 L550.096 696.257 L548.17 699.621 L546.287 703.097 L544.448 706.685 L542.654 710.382 L540.905 714.188 L539.201 718.101 L537.545 722.119 L535.935 726.241 L534.374 730.466 L532.861 734.792 L531.396 739.217 L529.982 743.739 L528.617 748.358 L527.302 753.071 L526.039 757.876 L524.828 762.772 L523.668 767.757 L522.56 772.829 L521.506 777.986 L520.504 783.226 L519.556 788.548 L518.215 796.649 L516.645 807.756 L515.294 819.151 L514.166 830.818 L513.261 842.738 L512.581 854.894 L512.127 867.268 L511.9 879.841 L511.9 891.129 L511.9 891.129  Z" fill="#ffff00" fill-rule="evenodd" fill-opacity="1"/>
<polyline clip-path="url(#clip252)" style="stroke:#000000; stroke-linecap:round; stroke-linejoin:round; stroke-width:4; stroke-opacity:1; fill:none" points="511.9,891.129 512.035,901.047 512.304,911.053 512.708,921.139 513.245,931.295 513.916,941.513 514.72,951.783 515.656,962.097 516.723,972.445 517.921,982.818 519.248,993.206 520.703,1003.6 522.285,1013.99 523.992,1024.38 525.824,1034.74 527.778,1045.07 529.852,1055.36 532.045,1065.6 534.355,1075.78 536.78,1085.9 539.317,1095.95 541.965,1105.9 544.721,1115.77 547.582,1125.53 550.546,1135.19 553.611,1144.72 556.774,1154.13 560.031,1163.4 563.381,1172.52 566.819,1181.5 570.344,1190.31 573.951,1198.96 577.638,1207.43 581.402,1215.72 585.238,1223.81 589.145,1231.71 593.117,1239.41 597.153,1246.89 601.247,1254.15 605.397,1261.2 609.599,1268.01 613.849,1274.58 618.143,1280.91 622.478,1286.99 626.85,1292.82 631.254,1298.39 635.688,1303.7 640.146,1308.74 644.625,1313.5 649.122,1317.99 653.632,1322.2 658.15,1326.12 662.674,1329.76 667.199,1333.1 671.722,1336.15 676.237,1338.9 680.741,1341.35 685.23,1343.5 689.701,1345.35 694.149,1346.89 698.57,1348.12 702.96,1349.05 707.316,1349.67 711.633,1349.98 715.158,1349.98 717.915,1349.85 720.651,1349.59 723.366,1349.2 726.059,1348.67 728.728,1348.02 731.374,1347.24 733.994,1346.33 736.588,1345.29 739.155,1344.13 741.694,1342.83 744.204,1341.41 746.684,1339.85 749.133,1338.18 751.55,1336.37 753.935,1334.44 756.285,1332.39 758.602,1330.21 760.883,1327.91 763.128,1325.49 765.335,1322.94 767.505,1320.28 769.636,1317.5 771.728,1314.59 773.78,1311.57 775.79,1308.44 777.759,1305.19 779.685,1301.83 781.568,1298.35 783.407,1294.76 785.201,1291.06 786.95,1287.26 788.653,1283.35 790.31,1279.33 791.919,1275.21 793.481,1270.98 794.994,1266.65 796.459,1262.23 797.873,1257.71 799.238,1253.09 800.552,1248.38 801.816,1243.57 803.027,1238.67 804.187,1233.69 805.295,1228.62 806.349,1223.46 807.351,1218.22 808.299,1212.9 809.64,1204.8 811.21,1193.69 812.561,1182.29 813.689,1170.63 814.594,1158.71 815.274,1146.55 815.728,1134.18 815.955,1121.6 815.955,1110.32 815.82,1100.4 815.551,1090.39 815.147,1080.31 814.61,1070.15 813.939,1059.93 813.135,1049.66 812.199,1039.35 811.132,1029 809.934,1018.63 808.607,1008.24 807.152,997.844 805.57,987.452 803.863,977.07 802.031,966.71 800.077,956.38 798.003,946.09 795.81,935.847 793.5,925.662 791.075,915.544 788.538,905.501 785.89,895.542 783.134,885.677 780.273,875.914 777.309,866.261 774.244,856.727 771.081,847.32 767.824,838.05 764.474,828.924 761.036,819.949 757.511,811.135 753.904,802.489 750.217,794.019 746.453,785.731 742.617,777.634 738.71,769.735 734.738,762.04 730.702,754.557 726.608,747.291 722.458,740.25 718.256,733.44 714.006,726.867 709.712,720.536 705.377,714.453 701.005,708.624 696.601,703.054 692.167,697.747 687.709,692.709 683.229,687.944 678.733,683.455 674.223,679.248 669.704,675.325 665.181,671.691 660.656,668.348 656.133,665.299 651.618,662.548 647.114,660.096 642.624,657.946 638.154,656.099 633.706,654.558 629.285,653.323 624.895,652.396 620.539,651.778 616.222,651.468 612.697,651.468 609.94,651.599 607.204,651.859 604.489,652.251 601.796,652.772 599.127,653.423 596.481,654.204 593.861,655.114 591.267,656.153 588.7,657.321 586.161,658.617 583.651,660.041 581.171,661.592 578.722,663.27 576.305,665.074 573.92,667.003 571.57,669.057 569.253,671.234 566.972,673.535 564.727,675.958 562.52,678.502 560.35,681.166 558.219,683.95 556.127,686.852 554.075,689.871 552.065,693.007 550.096,696.257 548.17,699.621 546.287,703.097 544.448,706.685 542.654,710.382 540.905,714.188 539.201,718.101 537.545,722.119 535.935,726.241 534.374,730.466 532.861,734.792 531.396,739.217 529.982,743.739 528.617,748.358 527.302,753.071 526.039,757.876 524.828,762.772 523.668,767.757 522.56,772.829 521.506,777.986 520.504,783.226 519.556,788.548 518.215,796.649 516.645,807.756 515.294,819.151 514.166,830.818 513.261,842.738 512.581,854.894 512.127,867.268 511.9,879.841 511.9,891.129 "/>
<path clip-path="url(#clip252)" d="M670.467 865.102 L670.808 880.277 L671.49 895.321 L672.256 906.482 L672.852 913.877 L673.531 921.221 L674.294 928.511 L675.141 935.745 L676.07 942.917 L677.082 950.024 L678.176 957.062 L679.352 964.029 L680.608 970.92 L681.944 977.732 L683.36 984.461 L684.855 991.103 L686.428 997.657 L688.078 1004.12 L689.804 1010.48 L691.605 1016.75 L693.481 1022.91 L695.431 1028.96 L697.453 1034.91 L699.547 1040.74 L701.711 1046.46 L703.945 1052.07 L706.247 1057.55 L708.616 1062.9 L711.05 1068.13 L713.549 1073.24 L716.112 1078.21 L718.736 1083.04 L721.421 1087.74 L724.165 1092.3 L726.967 1096.72 L729.825 1100.99 L732.738 1105.12 L735.705 1109.1 L738.723 1112.93 L741.792 1116.61 L744.91 1120.13 L748.074 1123.5 L751.285 1126.71 L754.539 1129.76 L757.835 1132.65 L761.172 1135.38 L764.548 1137.94 L767.96 1140.34 L771.408 1142.58 L774.89 1144.64 L778.403 1146.54 L781.947 1148.27 L785.518 1149.83 L789.116 1151.21 L792.738 1152.43 L796.383 1153.47 L800.048 1154.34 L803.733 1155.04 L807.434 1155.56 L811.15 1155.91 L814.88 1156.08 L818.932 1156.08 L823.307 1155.84 L827.692 1155.37 L832.082 1154.66 L836.477 1153.71 L840.871 1152.53 L845.263 1151.11 L849.648 1149.46 L854.025 1147.58 L858.389 1145.47 L862.739 1143.13 L867.07 1140.55 L871.38 1137.76 L875.666 1134.73 L879.924 1131.49 L884.153 1128.03 L888.348 1124.35 L892.508 1120.45 L896.628 1116.34 L900.707 1112.02 L904.741 1107.5 L908.727 1102.77 L912.664 1097.85 L916.547 1092.72 L920.374 1087.41 L924.143 1081.9 L927.851 1076.21 L931.496 1070.34 L935.074 1064.29 L938.584 1058.07 L942.022 1051.68 L945.387 1045.12 L948.676 1038.41 L951.887 1031.54 L955.017 1024.52 L958.065 1017.36 L961.029 1010.05 L963.905 1002.61 L966.693 995.042 L969.389 987.348 L971.994 979.535 L974.503 971.608 L976.917 963.573 L979.233 955.435 L981.449 947.2 L983.564 938.875 L985.576 930.463 L987.485 921.972 L989.288 913.408 L990.985 904.776 L992.574 896.083 L994.055 887.334 L995.425 878.535 L996.685 869.694 L997.833 860.815 L998.868 851.906 L999.79 842.972 L1000.6 834.019 L1001.29 825.054 L1001.87 816.084 L1002.34 807.114 L1002.68 798.15 L1002.92 789.2 L1003.03 780.269 L1003.03 768.178 L1002.69 753.003 L1002.01 737.959 L1001.24 726.798 L1000.65 719.404 L999.967 712.059 L999.204 704.769 L998.358 697.536 L997.428 690.364 L996.416 683.256 L995.322 676.218 L994.146 669.251 L992.89 662.36 L991.554 655.549 L990.138 648.82 L988.643 642.177 L987.071 635.624 L985.421 629.163 L983.695 622.799 L981.893 616.535 L980.017 610.373 L978.067 604.317 L976.045 598.37 L973.951 592.536 L971.787 586.816 L969.553 581.214 L967.251 575.733 L964.883 570.376 L962.448 565.146 L959.949 560.044 L957.387 555.074 L954.762 550.239 L952.077 545.54 L949.333 540.981 L946.531 536.563 L943.673 532.289 L940.76 528.16 L937.793 524.18 L934.775 520.35 L931.706 516.673 L928.589 513.149 L925.424 509.781 L922.214 506.571 L918.96 503.52 L915.663 500.629 L912.326 497.901 L908.951 495.337 L905.538 492.937 L902.09 490.704 L898.608 488.638 L895.095 486.74 L891.552 485.012 L887.98 483.454 L884.382 482.068 L880.76 480.853 L877.115 479.81 L873.45 478.94 L869.766 478.244 L866.064 477.722 L862.348 477.373 L858.618 477.199 L854.567 477.199 L850.191 477.436 L845.807 477.91 L841.416 478.62 L837.022 479.567 L832.627 480.749 L828.236 482.165 L823.85 483.816 L819.474 485.698 L815.109 487.812 L810.76 490.155 L806.428 492.726 L802.118 495.524 L797.833 498.546 L793.574 501.79 L789.345 505.254 L785.15 508.935 L780.99 512.831 L776.87 516.94 L772.791 521.257 L768.757 525.781 L764.771 530.508 L760.835 535.435 L756.951 540.558 L753.124 545.875 L749.355 551.38 L745.647 557.07 L742.002 562.942 L738.424 568.991 L734.915 575.213 L731.476 581.603 L728.111 588.158 L724.822 594.872 L721.611 601.741 L718.481 608.76 L715.433 615.924 L712.47 623.229 L709.593 630.668 L706.806 638.238 L704.109 645.932 L701.505 653.745 L698.995 661.672 L696.581 669.707 L694.266 677.845 L692.05 686.08 L689.934 694.406 L687.922 702.817 L686.013 711.308 L684.21 719.872 L682.513 728.504 L680.924 737.198 L679.444 745.947 L678.073 754.745 L676.814 763.586 L675.666 772.465 L674.63 781.375 L673.708 790.309 L672.9 799.261 L672.206 808.226 L671.627 817.196 L671.163 826.166 L670.815 835.13 L670.583 844.08 L670.467 853.012 L670.467 865.102 L670.467 865.102  Z" fill="#ffff00" fill-rule="evenodd" fill-opacity="1"/>
<polyline clip-path="url(#clip252)" style="stroke:#000000; stroke-linecap:round; stroke-linejoin:round; stroke-width:4; stroke-opacity:1; fill:none" points="670.467,865.102 670.808,880.277 671.49,895.321 672.256,906.482 672.852,913.877 673.531,921.221 674.294,928.511 675.141,935.745 676.07,942.917 677.082,950.024 678.176,957.062 679.352,964.029 680.608,970.92 681.944,977.732 683.36,984.461 684.855,991.103 686.428,997.657 688.078,1004.12 689.804,1010.48 691.605,1016.75 693.481,1022.91 695.431,1028.96 697.453,1034.91 699.547,1040.74 701.711,1046.46 703.945,1052.07 706.247,1057.55 708.616,1062.9 711.05,1068.13 713.549,1073.24 716.112,1078.21 718.736,1083.04 721.421,1087.74 724.165,1092.3 726.967,1096.72 729.825,1100.99 732.738,1105.12 735.705,1109.1 738.723,1112.93 741.792,1116.61 744.91,1120.13 748.074,1123.5 751.285,1126.71 754.539,1129.76 757.835,1132.65 761.172,1135.38 764.548,1137.94 767.96,1140.34 771.408,1142.58 774.89,1144.64 778.403,1146.54 781.947,1148.27 785.518,1149.83 789.116,1151.21 792.738,1152.43 796.383,1153.47 800.048,1154.34 803.733,1155.04 807.434,1155.56 811.15,1155.91 814.88,1156.08 818.932,1156.08 823.307,1155.84 827.692,1155.37 832.082,1154.66 836.477,1153.71 840.871,1152.53 845.263,1151.11 849.648,1149.46 854.025,1147.58 858.389,1145.47 862.739,1143.13 867.07,1140.55 871.38,1137.76 875.666,1134.73 879.924,1131.49 884.153,1128.03 888.348,1124.35 892.508,1120.45 896.628,1116.34 900.707,1112.02 904.741,1107.5 908.727,1102.77 912.664,1097.85 916.547,1092.72 920.374,1087.41 924.143,1081.9 927.851,1076.21 931.496,1070.34 935.074,1064.29 938.584,1058.07 942.022,1051.68 945.387,1045.12 948.676,1038.41 951.887,1031.54 955.017,1024.52 958.065,1017.36 961.029,1010.05 963.905,1002.61 966.693,995.042 969.389,987.348 971.994,979.535 974.503,971.608 976.917,963.573 979.233,955.435 981.449,947.2 983.564,938.875 985.576,930.463 987.485,921.972 989.288,913.408 990.985,904.776 992.574,896.083 994.055,887.334 995.425,878.535 996.685,869.694 997.833,860.815 998.868,851.906 999.79,842.972 1000.6,834.019 1001.29,825.054 1001.87,816.084 1002.34,807.114 1002.68,798.15 1002.92,789.2 1003.03,780.269 1003.03,768.178 1002.69,753.003 1002.01,737.959 1001.24,726.798 1000.65,719.404 999.967,712.059 999.204,704.769 998.358,697.536 997.428,690.364 996.416,683.256 995.322,676.218 994.146,669.251 992.89,662.36 991.554,655.549 990.138,648.82 988.643,642.177 987.071,635.624 985.421,629.163 983.695,622.799 981.893,616.535 980.017,610.373 978.067,604.317 976.045,598.37 973.951,592.536 971.787,586.816 969.553,581.214 967.251,575.733 964.883,570.376 962.448,565.146 959.949,560.044 957.387,555.074 954.762,550.239 952.077,545.54 949.333,540.981 946.531,536.563 943.673,532.289 940.76,528.16 937.793,524.18 934.775,520.35 931.706,516.673 928.589,513.149 925.424,509.781 922.214,506.571 918.96,503.52 915.663,500.629 912.326,497.901 908.951,495.337 905.538,492.937 902.09,490.704 898.608,488.638 895.095,486.74 891.552,485.012 887.98,483.454 884.382,482.068 880.76,480.853 877.115,479.81 873.45,478.94 869.766,478.244 866.064,477.722 862.348,477.373 858.618,477.199 854.567,477.199 850.191,477.436 845.807,477.91 841.416,478.62 837.022,479.567 832.627,480.749 828.236,482.165 823.85,483.816 819.474,485.698 815.109,487.812 810.76,490.155 806.428,492.726 802.118,495.524 797.833,498.546 793.574,501.79 789.345,505.254 785.15,508.935 780.99,512.831 776.87,516.94 772.791,521.257 768.757,525.781 764.771,530.508 760.835,535.435 756.951,540.558 753.124,545.875 749.355,551.38 745.647,557.07 742.002,562.942 738.424,568.991 734.915,575.213 731.476,581.603 728.111,588.158 724.822,594.872 721.611,601.741 718.481,608.76 715.433,615.924 712.47,623.229 709.593,630.668 706.806,638.238 704.109,645.932 701.505,653.745 698.995,661.672 696.581,669.707 694.266,677.845 692.05,686.08 689.934,694.406 687.922,702.817 686.013,711.308 684.21,719.872 682.513,728.504 680.924,737.198 679.444,745.947 678.073,754.745 676.814,763.586 675.666,772.465 674.63,781.375 673.708,790.309 672.9,799.261 672.206,808.226 671.627,817.196 671.163,826.166 670.815,835.13 670.583,844.08 670.467,853.012 670.467,865.102 "/>
<path clip-path="url(#clip252)" d="M850.553 735.601 L850.778 744.244 L851.226 752.871 L851.897 761.462 L852.788 769.995 L853.899 778.447 L855.225 786.797 L856.764 795.025 L858.511 803.109 L860.463 811.028 L862.613 818.763 L864.958 826.294 L867.49 833.602 L870.204 840.668 L873.092 847.475 L876.147 854.004 L879.362 860.241 L882.728 866.168 L886.236 871.77 L889.879 877.035 L892.704 880.719 L894.617 883.084 L896.557 885.358 L898.525 887.538 L900.518 889.624 L902.536 891.614 L904.577 893.507 L906.64 895.301 L908.723 896.995 L910.825 898.589 L912.945 900.082 L915.082 901.471 L917.234 902.758 L919.4 903.939 L921.578 905.016 L923.767 905.987 L925.966 906.852 L928.173 907.61 L930.387 908.261 L932.606 908.803 L934.83 909.238 L937.056 909.564 L939.283 909.782 L941.51 909.891 L943.678 909.891 L945.787 909.793 L947.892 909.597 L949.992 909.303 L952.086 908.912 L954.172 908.423 L956.25 907.837 L958.317 907.154 L960.374 906.375 L962.418 905.5 L964.449 904.53 L966.466 903.464 L968.467 902.304 L970.451 901.051 L973.4 899.031 L977.254 895.971 L981.02 892.551 L984.69 888.778 L988.256 884.662 L991.71 880.212 L995.042 875.438 L998.247 870.35 L1001.32 864.961 L1004.24 859.283 L1007.02 853.328 L1009.64 847.111 L1012.11 840.646 L1014.4 833.946 L1016.52 827.029 L1018.47 819.909 L1020.23 812.602 L1021.81 805.126 L1023.19 797.497 L1024.39 789.734 L1025.39 781.852 L1026.19 773.872 L1026.8 765.81 L1027.2 757.686 L1027.4 749.517 L1027.4 741.102 L1027.18 732.46 L1026.73 723.832 L1026.06 715.241 L1025.17 706.708 L1024.06 698.256 L1022.73 689.906 L1021.19 681.678 L1019.45 673.595 L1017.49 665.675 L1015.34 657.94 L1013 650.409 L1010.47 643.101 L1007.75 636.035 L1004.87 629.229 L1001.81 622.699 L998.596 616.463 L995.23 610.535 L991.721 604.933 L988.079 599.668 L985.253 595.984 L983.341 593.619 L981.4 591.345 L979.432 589.165 L977.439 587.079 L975.421 585.089 L973.381 583.197 L971.318 581.402 L969.235 579.708 L967.132 578.114 L965.012 576.622 L962.875 575.232 L960.724 573.946 L958.558 572.764 L956.38 571.687 L954.191 570.716 L951.992 569.851 L949.785 569.093 L947.571 568.443 L945.351 567.9 L943.128 567.465 L940.902 567.139 L938.675 566.921 L936.448 566.813 L934.279 566.813 L932.17 566.911 L930.065 567.106 L927.965 567.4 L925.871 567.792 L923.785 568.28 L921.708 568.866 L919.64 569.549 L917.583 570.328 L915.539 571.203 L913.508 572.174 L911.492 573.239 L909.491 574.399 L907.507 575.652 L904.558 577.672 L900.704 580.732 L896.938 584.152 L893.267 587.925 L889.701 592.041 L886.248 596.491 L882.915 601.266 L879.71 606.353 L876.641 611.742 L873.714 617.42 L870.936 623.375 L868.313 629.592 L865.852 636.058 L863.558 642.757 L861.436 649.674 L859.492 656.795 L857.729 664.101 L856.151 671.577 L854.763 679.206 L853.567 686.97 L852.566 694.851 L851.763 702.831 L851.159 710.893 L850.755 719.017 L850.553 727.186 L850.553 735.601 L850.553 735.601  Z" fill="#ffff00" fill-rule="evenodd" fill-opacity="1"/>
<polyline clip-path="url(#clip252)" style="stroke:#000000; stroke-linecap:round; stroke-linejoin:round; stroke-width:4; stroke-opacity:1; fill:none" points="850.553,735.601 850.778,744.244 851.226,752.871 851.897,761.462 852.788,769.995 853.899,778.447 855.225,786.797 856.764,795.025 858.511,803.109 860.463,811.028 862.613,818.763 864.958,826.294 867.49,833.602 870.204,840.668 873.092,847.475 876.147,854.004 879.362,860.241 882.728,866.168 886.236,871.77 889.879,877.035 892.704,880.719 894.617,883.084 896.557,885.358 898.525,887.538 900.518,889.624 902.536,891.614 904.577,893.507 906.64,895.301 908.723,896.995 910.825,898.589 912.945,900.082 915.082,901.471 917.234,902.758 919.4,903.939 921.578,905.016 923.767,905.987 925.966,906.852 928.173,907.61 930.387,908.261 932.606,908.803 934.83,909.238 937.056,909.564 939.283,909.782 941.51,909.891 943.678,909.891 945.787,909.793 947.892,909.597 949.992,909.303 952.086,908.912 954.172,908.423 956.25,907.837 958.317,907.154 960.374,906.375 962.418,905.5 964.449,904.53 966.466,903.464 968.467,902.304 970.451,901.051 973.4,899.031 977.254,895.971 981.02,892.551 984.69,888.778 988.256,884.662 991.71,880.212 995.042,875.438 998.247,870.35 1001.32,864.961 1004.24,859.283 1007.02,853.328 1009.64,847.111 1012.11,840.646 1014.4,833.946 1016.52,827.029 1018.47,819.909 1020.23,812.602 1021.81,805.126 1023.19,797.497 1024.39,789.734 1025.39,781.852 1026.19,773.872 1026.8,765.81 1027.2,757.686 1027.4,749.517 1027.4,741.102 1027.18,732.46 1026.73,723.832 1026.06,715.241 1025.17,706.708 1024.06,698.256 1022.73,689.906 1021.19,681.678 1019.45,673.595 1017.49,665.675 1015.34,657.94 1013,650.409 1010.47,643.101 1007.75,636.035 1004.87,629.229 1001.81,622.699 998.596,616.463 995.23,610.535 991.721,604.933 988.079,599.668 985.253,595.984 983.341,593.619 981.4,591.345 979.432,589.165 977.439,587.079 975.421,585.089 973.381,583.197 971.318,581.402 969.235,579.708 967.132,578.114 965.012,576.622 962.875,575.232 960.724,573.946 958.558,572.764 956.38,571.687 954.191,570.716 951.992,569.851 949.785,569.093 947.571,568.443 945.351,567.9 943.128,567.465 940.902,567.139 938.675,566.921 936.448,566.813 934.279,566.813 932.17,566.911 930.065,567.106 927.965,567.4 925.871,567.792 923.785,568.28 921.708,568.866 919.64,569.549 917.583,570.328 915.539,571.203 913.508,572.174 911.492,573.239 909.491,574.399 907.507,575.652 904.558,577.672 900.704,580.732 896.938,584.152 893.267,587.925 889.701,592.041 886.248,596.491 882.915,601.266 879.71,606.353 876.641,611.742 873.714,617.42 870.936,623.375 868.313,629.592 865.852,636.058 863.558,642.757 861.436,649.674 859.492,656.795 857.729,664.101 856.151,671.577 854.763,679.206 853.567,686.97 852.566,694.851 851.763,702.831 851.159,710.893 850.755,719.017 850.553,727.186 850.553,735.601 "/>
<path clip-path="url(#clip252)" d="M1094.2 511.035 L1094.31 513.86 L1094.53 516.67 L1094.87 519.464 L1095.31 522.242 L1095.87 525.001 L1096.54 527.74 L1097.32 530.459 L1098.21 533.156 L1099.21 535.829 L1100.32 538.478 L1101.54 541.101 L1102.87 543.697 L1104.3 546.265 L1105.85 548.804 L1107.49 551.312 L1109.25 553.789 L1111.11 556.233 L1113.07 558.643 L1115.14 561.019 L1117.31 563.358 L1119.58 565.66 L1121.95 567.925 L1124.42 570.15 L1126.99 572.335 L1129.65 574.478 L1132.42 576.58 L1135.27 578.639 L1138.22 580.653 L1141.26 582.623 L1144.39 584.547 L1147.61 586.424 L1150.92 588.253 L1154.31 590.034 L1157.79 591.766 L1161.35 593.448 L1166.81 595.895 L1174.41 598.95 L1182.31 601.792 L1190.49 604.416 L1198.95 606.816 L1207.66 608.99 L1216.62 610.932 L1225.8 612.638 L1235.18 614.107 L1244.76 615.336 L1254.51 616.321 L1264.41 617.061 L1274.46 617.556 L1284.62 617.803 L1293.08 617.803 L1299.78 617.699 L1306.51 617.49 L1313.27 617.177 L1320.05 616.76 L1326.84 616.239 L1333.65 615.615 L1340.45 614.888 L1347.26 614.059 L1354.06 613.129 L1360.85 612.097 L1367.63 610.966 L1374.38 609.735 L1381.1 608.406 L1387.8 606.98 L1394.45 605.457 L1401.07 603.84 L1407.63 602.129 L1414.15 600.325 L1420.6 598.431 L1427 596.447 L1433.33 594.375 L1439.58 592.216 L1445.76 589.973 L1451.86 587.646 L1457.87 585.239 L1463.79 582.752 L1469.61 580.187 L1475.33 577.547 L1480.95 574.834 L1486.46 572.049 L1491.86 569.194 L1497.14 566.273 L1502.3 563.287 L1507.33 560.238 L1512.24 557.129 L1517.01 553.963 L1521.65 550.741 L1526.14 547.466 L1530.49 544.141 L1534.7 540.768 L1538.75 537.35 L1542.66 533.889 L1546.4 530.389 L1549.99 526.851 L1553.41 523.278 L1556.67 519.674 L1559.76 516.041 L1562.69 512.382 L1565.44 508.7 L1568.02 504.997 L1570.42 501.276 L1572.64 497.541 L1574.69 493.793 L1576.55 490.037 L1578.24 486.274 L1579.73 482.508 L1581.05 478.742 L1582.18 474.978 L1583.12 471.22 L1583.87 467.47 L1584.44 463.731 L1584.81 460.007 L1585 456.299 L1585 453.036 L1584.89 450.211 L1584.67 447.401 L1584.33 444.607 L1583.89 441.829 L1583.33 439.07 L1582.66 436.331 L1581.88 433.612 L1580.99 430.915 L1579.99 428.242 L1578.88 425.593 L1577.66 422.97 L1576.33 420.374 L1574.9 417.806 L1573.35 415.267 L1571.7 412.759 L1569.95 410.282 L1568.09 407.838 L1566.13 405.428 L1564.06 403.052 L1561.89 400.713 L1559.62 398.41 L1557.25 396.146 L1554.78 393.921 L1552.21 391.736 L1549.54 389.592 L1546.78 387.491 L1543.93 385.432 L1540.98 383.418 L1537.94 381.448 L1534.81 379.524 L1531.59 377.647 L1528.28 375.818 L1524.89 374.037 L1521.41 372.305 L1517.85 370.623 L1512.39 368.176 L1504.79 365.121 L1496.89 362.279 L1488.71 359.655 L1480.25 357.254 L1471.53 355.081 L1462.58 353.139 L1453.4 351.432 L1444.01 349.963 L1434.44 348.735 L1424.69 347.75 L1414.78 347.009 L1404.74 346.515 L1394.58 346.268 L1386.12 346.268 L1379.42 346.372 L1372.68 346.581 L1365.93 346.894 L1359.15 347.311 L1352.36 347.832 L1345.55 348.456 L1338.74 349.183 L1331.94 350.012 L1325.14 350.942 L1318.35 351.974 L1311.57 353.105 L1304.82 354.336 L1298.1 355.665 L1291.4 357.091 L1284.75 358.614 L1278.13 360.231 L1271.57 361.942 L1265.05 363.746 L1258.59 365.64 L1252.2 367.624 L1245.87 369.696 L1239.62 371.855 L1233.44 374.098 L1227.34 376.424 L1221.33 378.832 L1215.41 381.319 L1209.59 383.884 L1203.87 386.524 L1198.25 389.237 L1192.74 392.022 L1187.34 394.877 L1182.06 397.798 L1176.9 400.784 L1171.86 403.833 L1166.96 406.941 L1162.19 410.108 L1157.55 413.33 L1153.06 416.605 L1148.71 419.93 L1144.5 423.303 L1140.45 426.721 L1136.54 430.182 L1132.8 433.682 L1129.21 437.22 L1125.79 440.792 L1122.53 444.396 L1119.43 448.029 L1116.51 451.689 L1113.76 455.371 L1111.18 459.074 L1108.78 462.795 L1106.55 466.53 L1104.51 470.278 L1102.65 474.034 L1100.96 477.797 L1099.46 481.563 L1098.15 485.329 L1097.02 489.093 L1096.08 492.851 L1095.33 496.601 L1094.76 500.34 L1094.38 504.064 L1094.2 507.772 L1094.2 511.035 L1094.2 511.035  Z" fill="#ffff00" fill-rule="evenodd" fill-opacity="1"/>
<polyline clip-path="url(#clip252)" style="stroke:#000000; stroke-linecap:round; stroke-linejoin:round; stroke-width:4; stroke-opacity:1; fill:none" points="1094.2,511.035 1094.31,513.86 1094.53,516.67 1094.87,519.464 1095.31,522.242 1095.87,525.001 1096.54,527.74 1097.32,530.459 1098.21,533.156 1099.21,535.829 1100.32,538.478 1101.54,541.101 1102.87,543.697 1104.3,546.265 1105.85,548.804 1107.49,551.312 1109.25,553.789 1111.11,556.233 1113.07,558.643 1115.14,561.019 1117.31,563.358 1119.58,565.66 1121.95,567.925 1124.42,570.15 1126.99,572.335 1129.65,574.478 1132.42,576.58 1135.27,578.639 1138.22,580.653 1141.26,582.623 1144.39,584.547 1147.61,586.424 1150.92,588.253 1154.31,590.034 1157.79,591.766 1161.35,593.448 1166.81,595.895 1174.41,598.95 1182.31,601.792 1190.49,604.416 1198.95,606.816 1207.66,608.99 1216.62,610.932 1225.8,612.638 1235.18,614.107 1244.76,615.336 1254.51,616.321 1264.41,617.061 1274.46,617.556 1284.62,617.803 1293.08,617.803 1299.78,617.699 1306.51,617.49 1313.27,617.177 1320.05,616.76 1326.84,616.239 1333.65,615.615 1340.45,614.888 1347.26,614.059 1354.06,613.129 1360.85,612.097 1367.63,610.966 1374.38,609.735 1381.1,608.406 1387.8,606.98 1394.45,605.457 1401.07,603.84 1407.63,602.129 1414.15,600.325 1420.6,598.431 1427,596.447 1433.33,594.375 1439.58,592.216 1445.76,589.973 1451.86,587.646 1457.87,585.239 1463.79,582.752 1469.61,580.187 1475.33,577.547 1480.95,574.834 1486.46,572.049 1491.86,569.194 1497.14,566.273 1502.3,563.287 1507.33,560.238 1512.24,557.129 1517.01,553.963 1521.65,550.741 1526.14,547.466 1530.49,544.141 1534.7,540.768 1538.75,537.35 1542.66,533.889 1546.4,530.389 1549.99,526.851 1553.41,523.278 1556.67,519.674 1559.76,516.041 1562.69,512.382 1565.44,508.7 1568.02,504.997 1570.42,501.276 1572.64,497.541 1574.69,493.793 1576.55,490.037 1578.24,486.274 1579.73,482.508 1581.05,478.742 1582.18,474.978 1583.12,471.22 1583.87,467.47 1584.44,463.731 1584.81,460.007 1585,456.299 1585,453.036 1584.89,450.211 1584.67,447.401 1584.33,444.607 1583.89,441.829 1583.33,439.07 1582.66,436.331 1581.88,433.612 1580.99,430.915 1579.99,428.242 1578.88,425.593 1577.66,422.97 1576.33,420.374 1574.9,417.806 1573.35,415.267 1571.7,412.759 1569.95,410.282 1568.09,407.838 1566.13,405.428 1564.06,403.052 1561.89,400.713 1559.62,398.41 1557.25,396.146 1554.78,393.921 1552.21,391.736 1549.54,389.592 1546.78,387.491 1543.93,385.432 1540.98,383.418 1537.94,381.448 1534.81,379.524 1531.59,377.647 1528.28,375.818 1524.89,374.037 1521.41,372.305 1517.85,370.623 1512.39,368.176 1504.79,365.121 1496.89,362.279 1488.71,359.655 1480.25,357.254 1471.53,355.081 1462.58,353.139 1453.4,351.432 1444.01,349.963 1434.44,348.735 1424.69,347.75 1414.78,347.009 1404.74,346.515 1394.58,346.268 1386.12,346.268 1379.42,346.372 1372.68,346.581 1365.93,346.894 1359.15,347.311 1352.36,347.832 1345.55,348.456 1338.74,349.183 1331.94,350.012 1325.14,350.942 1318.35,351.974 1311.57,353.105 1304.82,354.336 1298.1,355.665 1291.4,357.091 1284.75,358.614 1278.13,360.231 1271.57,361.942 1265.05,363.746 1258.59,365.64 1252.2,367.624 1245.87,369.696 1239.62,371.855 1233.44,374.098 1227.34,376.424 1221.33,378.832 1215.41,381.319 1209.59,383.884 1203.87,386.524 1198.25,389.237 1192.74,392.022 1187.34,394.877 1182.06,397.798 1176.9,400.784 1171.86,403.833 1166.96,406.941 1162.19,410.108 1157.55,413.33 1153.06,416.605 1148.71,419.93 1144.5,423.303 1140.45,426.721 1136.54,430.182 1132.8,433.682 1129.21,437.22 1125.79,440.792 1122.53,444.396 1119.43,448.029 1116.51,451.689 1113.76,455.371 1111.18,459.074 1108.78,462.795 1106.55,466.53 1104.51,470.278 1102.65,474.034 1100.96,477.797 1099.46,481.563 1098.15,485.329 1097.02,489.093 1096.08,492.851 1095.33,496.601 1094.76,500.34 1094.38,504.064 1094.2,507.772 1094.2,511.035 "/>
<path clip-path="url(#clip252)" d="M1524.56 218.716 L1524.87 222.675 L1525.49 226.729 L1526.43 230.873 L1527.68 235.102 L1529.23 239.412 L1531.09 243.796 L1533.26 248.25 L1535.73 252.769 L1538.49 257.346 L1541.55 261.976 L1544.91 266.655 L1548.55 271.375 L1552.48 276.132 L1556.68 280.919 L1561.16 285.731 L1565.9 290.563 L1570.91 295.407 L1576.18 300.259 L1581.69 305.113 L1587.45 309.962 L1593.45 314.801 L1599.67 319.625 L1606.12 324.426 L1612.78 329.2 L1619.64 333.94 L1626.71 338.642 L1633.96 343.299 L1641.4 347.905 L1649 352.456 L1656.77 356.945 L1664.69 361.367 L1672.75 365.717 L1680.95 369.99 L1689.27 374.181 L1697.71 378.283 L1706.25 382.294 L1714.88 386.206 L1723.6 390.017 L1732.38 393.721 L1741.23 397.314 L1750.13 400.792 L1759.07 404.15 L1768.04 407.384 L1777.03 410.491 L1786.03 413.466 L1795.02 416.306 L1804.01 419.008 L1812.96 421.568 L1821.88 423.984 L1830.76 426.252 L1839.57 428.369 L1848.32 430.334 L1857 432.143 L1865.58 433.795 L1874.07 435.288 L1882.44 436.619 L1890.7 437.787 L1898.83 438.791 L1906.81 439.63 L1914.65 440.302 L1922.34 440.807 L1929.85 441.143 L1937.19 441.312 L1943.72 441.312 L1949.51 441.197 L1955.15 440.966 L1960.66 440.621 L1966.02 440.161 L1971.23 439.586 L1976.28 438.898 L1981.18 438.096 L1985.91 437.182 L1990.48 436.156 L1994.87 435.019 L1999.09 433.772 L2003.14 432.416 L2007 430.951 L2010.68 429.38 L2014.17 427.704 L2017.47 425.924 L2020.57 424.041 L2023.49 422.057 L2026.2 419.973 L2028.71 417.792 L2031.03 415.516 L2033.13 413.145 L2035.04 410.682 L2036.73 408.129 L2038.22 405.488 L2039.49 402.761 L2040.56 399.951 L2041.41 397.06 L2042.05 394.09 L2042.48 391.044 L2042.69 387.924 L2042.69 384.398 L2042.38 380.44 L2041.75 376.386 L2040.82 372.242 L2039.57 368.012 L2038.02 363.703 L2036.16 359.318 L2033.99 354.864 L2031.52 350.346 L2028.76 345.769 L2025.69 341.138 L2022.34 336.46 L2018.7 331.74 L2014.77 326.983 L2010.57 322.195 L2006.09 317.383 L2001.35 312.552 L1996.34 307.707 L1991.07 302.855 L1985.56 298.001 L1979.8 293.152 L1973.8 288.313 L1967.58 283.49 L1961.13 278.688 L1954.47 273.914 L1947.6 269.174 L1940.54 264.472 L1933.29 259.816 L1925.85 255.209 L1918.25 250.659 L1910.48 246.17 L1902.56 241.747 L1894.5 237.397 L1886.3 233.124 L1877.98 228.934 L1869.54 224.831 L1861 220.821 L1852.37 216.908 L1843.65 213.097 L1834.87 209.393 L1826.02 205.8 L1817.12 202.322 L1808.18 198.964 L1799.21 195.73 L1790.22 192.624 L1781.22 189.648 L1772.22 186.808 L1763.24 184.106 L1754.29 181.546 L1745.37 179.13 L1736.49 176.863 L1727.67 174.745 L1718.92 172.78 L1710.25 170.971 L1701.67 169.319 L1693.18 167.827 L1684.81 166.495 L1676.55 165.327 L1668.42 164.323 L1660.44 163.485 L1652.6 162.813 L1644.91 162.308 L1637.4 161.971 L1630.06 161.802 L1623.53 161.802 L1617.74 161.918 L1612.09 162.148 L1606.59 162.494 L1601.23 162.954 L1596.02 163.528 L1590.97 164.216 L1586.07 165.018 L1581.34 165.932 L1576.77 166.958 L1572.38 168.095 L1568.16 169.343 L1564.11 170.699 L1560.25 172.163 L1556.57 173.734 L1553.08 175.41 L1549.78 177.191 L1546.68 179.074 L1543.76 181.058 L1541.05 183.141 L1538.54 185.322 L1536.22 187.599 L1534.12 189.97 L1532.21 192.433 L1530.52 194.986 L1529.03 197.626 L1527.76 200.353 L1526.69 203.163 L1525.84 206.054 L1525.2 209.024 L1524.77 212.071 L1524.56 215.191 L1524.56 218.716 L1524.56 218.716  Z" fill="#ffff00" fill-rule="evenodd" fill-opacity="1"/>
<polyline clip-path="url(#clip252)" style="stroke:#000000; stroke-linecap:round; stroke-linejoin:round; stroke-width:4; stroke-opacity:1; fill:none" points="1524.56,218.716 1524.87,222.675 1525.49,226.729 1526.43,230.873 1527.68,235.102 1529.23,239.412 1531.09,243.796 1533.26,248.25 1535.73,252.769 1538.49,257.346 1541.55,261.976 1544.91,266.655 1548.55,271.375 1552.48,276.132 1556.68,280.919 1561.16,285.731 1565.9,290.563 1570.91,295.407 1576.18,300.259 1581.69,305.113 1587.45,309.962 1593.45,314.801 1599.67,319.625 1606.12,324.426 1612.78,329.2 1619.64,333.94 1626.71,338.642 1633.96,343.299 1641.4,347.905 1649,352.456 1656.77,356.945 1664.69,361.367 1672.75,365.717 1680.95,369.99 1689.27,374.181 1697.71,378.283 1706.25,382.294 1714.88,386.206 1723.6,390.017 1732.38,393.721 1741.23,397.314 1750.13,400.792 1759.07,404.15 1768.04,407.384 1777.03,410.491 1786.03,413.466 1795.02,416.306 1804.01,419.008 1812.96,421.568 1821.88,423.984 1830.76,426.252 1839.57,428.369 1848.32,430.334 1857,432.143 1865.58,433.795 1874.07,435.288 1882.44,436.619 1890.7,437.787 1898.83,438.791 1906.81,439.63 1914.65,440.302 1922.34,440.807 1929.85,441.143 1937.19,441.312 1943.72,441.312 1949.51,441.197 1955.15,440.966 1960.66,440.621 1966.02,440.161 1971.23,439.586 1976.28,438.898 1981.18,438.096 1985.91,437.182 1990.48,436.156 1994.87,435.019 1999.09,433.772 2003.14,432.416 2007,430.951 2010.68,429.38 2014.17,427.704 2017.47,425.924 2020.57,424.041 2023.49,422.057 2026.2,419.973 2028.71,417.792 2031.03,415.516 2033.13,413.145 2035.04,410.682 2036.73,408.129 2038.22,405.488 2039.49,402.761 2040.56,399.951 2041.41,397.06 2042.05,394.09 2042.48,391.044 2042.69,387.924 2042.69,384.398 2042.38,380.44 2041.75,376.386 2040.82,372.242 2039.57,368.012 2038.02,363.703 2036.16,359.318 2033.99,354.864 2031.52,350.346 2028.76,345.769 2025.69,341.138 2022.34,336.46 2018.7,331.74 2014.77,326.983 2010.57,322.195 2006.09,317.383 2001.35,312.552 1996.34,307.707 1991.07,302.855 1985.56,298.001 1979.8,293.152 1973.8,288.313 1967.58,283.49 1961.13,278.688 1954.47,273.914 1947.6,269.174 1940.54,264.472 1933.29,259.816 1925.85,255.209 1918.25,250.659 1910.48,246.17 1902.56,241.747 1894.5,237.397 1886.3,233.124 1877.98,228.934 1869.54,224.831 1861,220.821 1852.37,216.908 1843.65,213.097 1834.87,209.393 1826.02,205.8 1817.12,202.322 1808.18,198.964 1799.21,195.73 1790.22,192.624 1781.22,189.648 1772.22,186.808 1763.24,184.106 1754.29,181.546 1745.37,179.13 1736.49,176.863 1727.67,174.745 1718.92,172.78 1710.25,170.971 1701.67,169.319 1693.18,167.827 1684.81,166.495 1676.55,165.327 1668.42,164.323 1660.44,163.485 1652.6,162.813 1644.91,162.308 1637.4,161.971 1630.06,161.802 1623.53,161.802 1617.74,161.918 1612.09,162.148 1606.59,162.494 1601.23,162.954 1596.02,163.528 1590.97,164.216 1586.07,165.018 1581.34,165.932 1576.77,166.958 1572.38,168.095 1568.16,169.343 1564.11,170.699 1560.25,172.163 1556.57,173.734 1553.08,175.41 1549.78,177.191 1546.68,179.074 1543.76,181.058 1541.05,183.141 1538.54,185.322 1536.22,187.599 1534.12,189.97 1532.21,192.433 1530.52,194.986 1529.03,197.626 1527.76,200.353 1526.69,203.163 1525.84,206.054 1525.2,209.024 1524.77,212.071 1524.56,215.191 1524.56,218.716 "/>
<path clip-path="url(#clip252)" d="M1257.82 527.647 L1257.93 530.1 L1258.14 532.55 L1258.46 534.995 L1258.88 537.434 L1259.41 539.866 L1260.04 542.288 L1260.78 544.699 L1261.62 547.099 L1262.56 549.485 L1263.61 551.856 L1264.76 554.211 L1266.01 556.549 L1267.37 558.868 L1268.82 561.166 L1270.37 563.443 L1272.02 565.697 L1273.77 567.926 L1275.62 570.13 L1277.56 572.307 L1279.59 574.456 L1281.72 576.576 L1283.94 578.665 L1286.25 580.721 L1289.85 583.757 L1295 587.666 L1300.48 591.426 L1306.29 595.029 L1312.4 598.466 L1318.82 601.729 L1325.51 604.81 L1332.46 607.702 L1339.67 610.399 L1347.1 612.894 L1354.75 615.181 L1362.6 617.255 L1370.62 619.111 L1378.8 620.744 L1387.13 622.152 L1395.57 623.33 L1404.11 624.275 L1412.73 624.986 L1421.41 625.461 L1430.14 625.699 L1439 625.699 L1447.98 625.448 L1456.93 624.947 L1465.84 624.196 L1474.68 623.198 L1483.44 621.956 L1492.08 620.471 L1500.58 618.748 L1508.94 616.792 L1517.11 614.607 L1525.1 612.198 L1532.87 609.571 L1540.4 606.733 L1547.68 603.691 L1554.7 600.453 L1561.42 597.026 L1567.84 593.419 L1573.94 589.641 L1578.26 586.686 L1581.05 584.678 L1583.76 582.632 L1586.38 580.551 L1588.9 578.434 L1591.33 576.284 L1593.67 574.101 L1595.91 571.888 L1598.05 569.646 L1600.1 567.375 L1602.04 565.078 L1603.89 562.755 L1605.63 560.408 L1607.26 558.04 L1608.8 555.65 L1610.22 553.241 L1611.54 550.814 L1612.76 548.37 L1613.86 545.912 L1614.86 543.44 L1615.75 540.956 L1616.53 538.462 L1617.19 535.959 L1617.75 533.449 L1618.2 530.934 L1618.53 528.414 L1618.76 525.891 L1618.87 523.368 L1618.87 520.879 L1618.76 518.425 L1618.55 515.975 L1618.23 513.53 L1617.81 511.091 L1617.28 508.66 L1616.65 506.237 L1615.91 503.826 L1615.07 501.426 L1614.13 499.04 L1613.08 496.669 L1611.93 494.314 L1610.68 491.976 L1609.32 489.657 L1607.87 487.359 L1606.32 485.082 L1604.67 482.828 L1602.92 480.599 L1601.07 478.395 L1599.13 476.218 L1597.1 474.069 L1594.97 471.949 L1592.75 469.861 L1590.44 467.804 L1586.84 464.768 L1581.69 460.859 L1576.21 457.099 L1570.4 453.496 L1564.28 450.059 L1557.87 446.796 L1551.18 443.715 L1544.23 440.823 L1537.02 438.126 L1529.58 435.631 L1521.94 433.344 L1514.09 431.27 L1506.07 429.414 L1497.88 427.781 L1489.56 426.373 L1481.12 425.196 L1472.58 424.25 L1463.96 423.539 L1455.27 423.064 L1446.55 422.826 L1437.69 422.826 L1428.71 423.077 L1419.76 423.578 L1410.85 424.329 L1402 425.327 L1393.25 426.57 L1384.61 428.054 L1376.11 429.777 L1367.75 431.733 L1359.57 433.918 L1351.59 436.327 L1343.82 438.954 L1336.29 441.792 L1329 444.834 L1321.99 448.072 L1315.27 451.499 L1308.85 455.106 L1302.75 458.884 L1298.43 461.839 L1295.63 463.847 L1292.93 465.893 L1290.31 467.975 L1287.79 470.091 L1285.36 472.241 L1283.02 474.424 L1280.78 476.637 L1278.63 478.879 L1276.59 481.15 L1274.65 483.448 L1272.8 485.77 L1271.06 488.117 L1269.42 490.486 L1267.89 492.875 L1266.47 495.284 L1265.14 497.712 L1263.93 500.155 L1262.83 502.613 L1261.83 505.085 L1260.94 507.569 L1260.16 510.063 L1259.49 512.566 L1258.94 515.076 L1258.49 517.592 L1258.16 520.111 L1257.93 522.634 L1257.82 525.157 L1257.82 527.647 L1257.82 527.647  Z" fill="#ffff00" fill-rule="evenodd" fill-opacity="1"/>
<polyline clip-path="url(#clip252)" style="stroke:#000000; stroke-linecap:round; stroke-linejoin:round; stroke-width:4; stroke-opacity:1; fill:none" points="1257.82,527.647 1257.93,530.1 1258.14,532.55 1258.46,534.995 1258.88,537.434 1259.41,539.866 1260.04,542.288 1260.78,544.699 1261.62,547.099 1262.56,549.485 1263.61,551.856 1264.76,554.211 1266.01,556.549 1267.37,558.868 1268.82,561.166 1270.37,563.443 1272.02,565.697 1273.77,567.926 1275.62,570.13 1277.56,572.307 1279.59,574.456 1281.72,576.576 1283.94,578.665 1286.25,580.721 1289.85,583.757 1295,587.666 1300.48,591.426 1306.29,595.029 1312.4,598.466 1318.82,601.729 1325.51,604.81 1332.46,607.702 1339.67,610.399 1347.1,612.894 1354.75,615.181 1362.6,617.255 1370.62,619.111 1378.8,620.744 1387.13,622.152 1395.57,623.33 1404.11,624.275 1412.73,624.986 1421.41,625.461 1430.14,625.699 1439,625.699 1447.98,625.448 1456.93,624.947 1465.84,624.196 1474.68,623.198 1483.44,621.956 1492.08,620.471 1500.58,618.748 1508.94,616.792 1517.11,614.607 1525.1,612.198 1532.87,609.571 1540.4,606.733 1547.68,603.691 1554.7,600.453 1561.42,597.026 1567.84,593.419 1573.94,589.641 1578.26,586.686 1581.05,584.678 1583.76,582.632 1586.38,580.551 1588.9,578.434 1591.33,576.284 1593.67,574.101 1595.91,571.888 1598.05,569.646 1600.1,567.375 1602.04,565.078 1603.89,562.755 1605.63,560.408 1607.26,558.04 1608.8,555.65 1610.22,553.241 1611.54,550.814 1612.76,548.37 1613.86,545.912 1614.86,543.44 1615.75,540.956 1616.53,538.462 1617.19,535.959 1617.75,533.449 1618.2,530.934 1618.53,528.414 1618.76,525.891 1618.87,523.368 1618.87,520.879 1618.76,518.425 1618.55,515.975 1618.23,513.53 1617.81,511.091 1617.28,508.66 1616.65,506.237 1615.91,503.826 1615.07,501.426 1614.13,499.04 1613.08,496.669 1611.93,494.314 1610.68,491.976 1609.32,489.657 1607.87,487.359 1606.32,485.082 1604.67,482.828 1602.92,480.599 1601.07,478.395 1599.13,476.218 1597.1,474.069 1594.97,471.949 1592.75,469.861 1590.44,467.804 1586.84,464.768 1581.69,460.859 1576.21,457.099 1570.4,453.496 1564.28,450.059 1557.87,446.796 1551.18,443.715 1544.23,440.823 1537.02,438.126 1529.58,435.631 1521.94,433.344 1514.09,431.27 1506.07,429.414 1497.88,427.781 1489.56,426.373 1481.12,425.196 1472.58,424.25 1463.96,423.539 1455.27,423.064 1446.55,422.826 1437.69,422.826 1428.71,423.077 1419.76,423.578 1410.85,424.329 1402,425.327 1393.25,426.57 1384.61,428.054 1376.11,429.777 1367.75,431.733 1359.57,433.918 1351.59,436.327 1343.82,438.954 1336.29,441.792 1329,444.834 1321.99,448.072 1315.27,451.499 1308.85,455.106 1302.75,458.884 1298.43,461.839 1295.63,463.847 1292.93,465.893 1290.31,467.975 1287.79,470.091 1285.36,472.241 1283.02,474.424 1280.78,476.637 1278.63,478.879 1276.59,481.15 1274.65,483.448 1272.8,485.77 1271.06,488.117 1269.42,490.486 1267.89,492.875 1266.47,495.284 1265.14,497.712 1263.93,500.155 1262.83,502.613 1261.83,505.085 1260.94,507.569 1260.16,510.063 1259.49,512.566 1258.94,515.076 1258.49,517.592 1258.16,520.111 1257.93,522.634 1257.82,525.157 1257.82,527.647 "/>
<path clip-path="url(#clip252)" d="M1427.66 594.939 L1427.8 597.947 L1428.07 600.91 L1428.49 603.822 L1429.04 606.68 L1429.72 609.48 L1430.55 612.216 L1431.5 614.885 L1432.59 617.482 L1433.81 620.003 L1435.15 622.445 L1436.62 624.803 L1438.22 627.075 L1439.94 629.255 L1441.78 631.342 L1443.73 633.331 L1445.8 635.22 L1447.97 637.005 L1450.26 638.685 L1452.64 640.255 L1455.13 641.715 L1457.71 643.061 L1460.38 644.291 L1463.14 645.404 L1465.98 646.398 L1468.9 647.27 L1471.89 648.021 L1474.95 648.648 L1478.08 649.151 L1481.27 649.529 L1484.51 649.782 L1487.8 649.908 L1491.94 649.908 L1496.98 649.629 L1502.09 649.073 L1507.24 648.241 L1512.43 647.136 L1517.63 645.761 L1522.82 644.123 L1527.99 642.225 L1533.12 640.075 L1538.19 637.681 L1543.19 635.05 L1548.09 632.191 L1552.89 629.115 L1557.56 625.831 L1562.08 622.352 L1566.45 618.689 L1570.64 614.854 L1574.65 610.862 L1578.46 606.725 L1582.05 602.459 L1585.42 598.077 L1588.54 593.595 L1591.42 589.028 L1594.04 584.391 L1596.39 579.702 L1598.47 574.976 L1600.26 570.229 L1601.77 565.477 L1602.97 560.738 L1603.89 556.026 L1604.49 551.36 L1604.8 546.753 L1604.8 542.964 L1604.66 539.957 L1604.38 536.994 L1603.97 534.082 L1603.42 531.223 L1602.73 528.424 L1601.91 525.688 L1600.96 523.019 L1599.87 520.422 L1598.65 517.901 L1597.31 515.459 L1595.84 513.1 L1594.24 510.829 L1592.52 508.648 L1590.68 506.562 L1588.73 504.573 L1586.66 502.684 L1584.49 500.898 L1582.2 499.219 L1579.82 497.648 L1577.33 496.189 L1574.75 494.843 L1572.08 493.613 L1569.32 492.5 L1566.48 491.506 L1563.56 490.633 L1560.57 489.883 L1557.51 489.255 L1554.38 488.752 L1551.19 488.374 L1547.95 488.122 L1544.66 487.996 L1540.52 487.996 L1535.48 488.274 L1530.37 488.831 L1525.22 489.663 L1520.03 490.768 L1514.83 492.143 L1509.64 493.781 L1504.47 495.679 L1499.34 497.828 L1494.27 500.223 L1489.27 502.854 L1484.37 505.713 L1479.57 508.789 L1474.9 512.073 L1470.38 515.552 L1466.01 519.215 L1461.82 523.049 L1457.81 527.042 L1454 531.178 L1450.41 535.445 L1447.04 539.827 L1443.92 544.309 L1441.04 548.876 L1438.42 553.512 L1436.07 558.202 L1433.99 562.928 L1432.2 567.675 L1430.69 572.427 L1429.48 577.166 L1428.57 581.877 L1427.97 586.544 L1427.66 591.15 L1427.66 594.939 L1427.66 594.939  Z" fill="#ffff00" fill-rule="evenodd" fill-opacity="1"/>
<polyline clip-path="url(#clip252)" style="stroke:#000000; stroke-linecap:round; stroke-linejoin:round; stroke-width:4; stroke-opacity:1; fill:none" points="1427.66,594.939 1427.8,597.947 1428.07,600.91 1428.49,603.822 1429.04,606.68 1429.72,609.48 1430.55,612.216 1431.5,614.885 1432.59,617.482 1433.81,620.003 1435.15,622.445 1436.62,624.803 1438.22,627.075 1439.94,629.255 1441.78,631.342 1443.73,633.331 1445.8,635.22 1447.97,637.005 1450.26,638.685 1452.64,640.255 1455.13,641.715 1457.71,643.061 1460.38,644.291 1463.14,645.404 1465.98,646.398 1468.9,647.27 1471.89,648.021 1474.95,648.648 1478.08,649.151 1481.27,649.529 1484.51,649.782 1487.8,649.908 1491.94,649.908 1496.98,649.629 1502.09,649.073 1507.24,648.241 1512.43,647.136 1517.63,645.761 1522.82,644.123 1527.99,642.225 1533.12,640.075 1538.19,637.681 1543.19,635.05 1548.09,632.191 1552.89,629.115 1557.56,625.831 1562.08,622.352 1566.45,618.689 1570.64,614.854 1574.65,610.862 1578.46,606.725 1582.05,602.459 1585.42,598.077 1588.54,593.595 1591.42,589.028 1594.04,584.391 1596.39,579.702 1598.47,574.976 1600.26,570.229 1601.77,565.477 1602.97,560.738 1603.89,556.026 1604.49,551.36 1604.8,546.753 1604.8,542.964 1604.66,539.957 1604.38,536.994 1603.97,534.082 1603.42,531.223 1602.73,528.424 1601.91,525.688 1600.96,523.019 1599.87,520.422 1598.65,517.901 1597.31,515.459 1595.84,513.1 1594.24,510.829 1592.52,508.648 1590.68,506.562 1588.73,504.573 1586.66,502.684 1584.49,500.898 1582.2,499.219 1579.82,497.648 1577.33,496.189 1574.75,494.843 1572.08,493.613 1569.32,492.5 1566.48,491.506 1563.56,490.633 1560.57,489.883 1557.51,489.255 1554.38,488.752 1551.19,488.374 1547.95,488.122 1544.66,487.996 1540.52,487.996 1535.48,488.274 1530.37,488.831 1525.22,489.663 1520.03,490.768 1514.83,492.143 1509.64,493.781 1504.47,495.679 1499.34,497.828 1494.27,500.223 1489.27,502.854 1484.37,505.713 1479.57,508.789 1474.9,512.073 1470.38,515.552 1466.01,519.215 1461.82,523.049 1457.81,527.042 1454,531.178 1450.41,535.445 1447.04,539.827 1443.92,544.309 1441.04,548.876 1438.42,553.512 1436.07,558.202 1433.99,562.928 1432.2,567.675 1430.69,572.427 1429.48,577.166 1428.57,581.877 1427.97,586.544 1427.66,591.15 1427.66,594.939 "/>
<path clip-path="url(#clip252)" d="M1444.79 618.723 L1445.01 621.807 L1445.46 624.77 L1446.12 627.593 L1447 630.262 L1448.1 632.763 L1449.39 635.082 L1450.89 637.206 L1452.58 639.125 L1454.44 640.826 L1456.48 642.303 L1458.68 643.545 L1461.03 644.548 L1463.51 645.304 L1466.11 645.811 L1468.83 646.065 L1471.4 646.065 L1473.79 645.888 L1476.23 645.535 L1478.71 645.007 L1481.22 644.307 L1483.74 643.436 L1486.28 642.399 L1488.81 641.198 L1491.33 639.839 L1493.83 638.327 L1496.3 636.667 L1498.74 634.866 L1501.12 632.93 L1503.45 630.867 L1505.71 628.685 L1507.9 626.391 L1510.01 623.994 L1512.03 621.504 L1513.95 618.929 L1515.76 616.28 L1517.46 613.567 L1519.04 610.799 L1520.5 607.987 L1521.83 605.141 L1523.03 602.273 L1524.08 599.394 L1524.99 596.513 L1525.76 593.642 L1526.38 590.792 L1526.84 587.973 L1527.15 585.197 L1527.31 582.472 L1527.31 579.546 L1527.08 576.462 L1526.64 573.499 L1525.97 570.676 L1525.09 568.007 L1524 565.506 L1522.7 563.187 L1521.2 561.063 L1519.52 559.144 L1517.65 557.442 L1515.61 555.966 L1513.41 554.724 L1511.07 553.721 L1508.58 552.965 L1505.98 552.458 L1503.27 552.204 L1500.7 552.204 L1498.3 552.381 L1495.86 552.734 L1493.38 553.262 L1490.88 553.962 L1488.35 554.833 L1485.82 555.87 L1483.29 557.071 L1480.77 558.43 L1478.26 559.942 L1475.79 561.602 L1473.36 563.403 L1470.97 565.339 L1468.64 567.402 L1466.38 569.584 L1464.19 571.878 L1462.08 574.275 L1460.07 576.765 L1458.15 579.34 L1456.34 581.989 L1454.63 584.702 L1453.05 587.47 L1451.59 590.282 L1450.26 593.128 L1449.07 595.995 L1448.01 598.875 L1447.1 601.756 L1446.33 604.627 L1445.72 607.477 L1445.25 610.296 L1444.94 613.072 L1444.79 615.797 L1444.79 618.723 L1444.79 618.723  Z" fill="#ffff00" fill-rule="evenodd" fill-opacity="1"/>
<polyline clip-path="url(#clip252)" style="stroke:#000000; stroke-linecap:round; stroke-linejoin:round; stroke-width:4; stroke-opacity:1; fill:none" points="1444.79,618.723 1445.01,621.807 1445.46,624.77 1446.12,627.593 1447,630.262 1448.1,632.763 1449.39,635.082 1450.89,637.206 1452.58,639.125 1454.44,640.826 1456.48,642.303 1458.68,643.545 1461.03,644.548 1463.51,645.304 1466.11,645.811 1468.83,646.065 1471.4,646.065 1473.79,645.888 1476.23,645.535 1478.71,645.007 1481.22,644.307 1483.74,643.436 1486.28,642.399 1488.81,641.198 1491.33,639.839 1493.83,638.327 1496.3,636.667 1498.74,634.866 1501.12,632.93 1503.45,630.867 1505.71,628.685 1507.9,626.391 1510.01,623.994 1512.03,621.504 1513.95,618.929 1515.76,616.28 1517.46,613.567 1519.04,610.799 1520.5,607.987 1521.83,605.141 1523.03,602.273 1524.08,599.394 1524.99,596.513 1525.76,593.642 1526.38,590.792 1526.84,587.973 1527.15,585.197 1527.31,582.472 1527.31,579.546 1527.08,576.462 1526.64,573.499 1525.97,570.676 1525.09,568.007 1524,565.506 1522.7,563.187 1521.2,561.063 1519.52,559.144 1517.65,557.442 1515.61,555.966 1513.41,554.724 1511.07,553.721 1508.58,552.965 1505.98,552.458 1503.27,552.204 1500.7,552.204 1498.3,552.381 1495.86,552.734 1493.38,553.262 1490.88,553.962 1488.35,554.833 1485.82,555.87 1483.29,557.071 1480.77,558.43 1478.26,559.942 1475.79,561.602 1473.36,563.403 1470.97,565.339 1468.64,567.402 1466.38,569.584 1464.19,571.878 1462.08,574.275 1460.07,576.765 1458.15,579.34 1456.34,581.989 1454.63,584.702 1453.05,587.47 1451.59,590.282 1450.26,593.128 1449.07,595.995 1448.01,598.875 1447.1,601.756 1446.33,604.627 1445.72,607.477 1445.25,610.296 1444.94,613.072 1444.79,615.797 1444.79,618.723 "/>
<path clip-path="url(#clip252)" d="M1753.56 479.451 L1753.67 481.771 L1753.9 484.083 L1754.24 486.38 L1754.69 488.658 L1755.26 490.912 L1755.93 493.135 L1756.71 495.322 L1757.6 497.468 L1758.6 499.567 L1759.69 501.616 L1760.89 503.608 L1762.18 505.54 L1763.56 507.406 L1765.03 509.201 L1766.59 510.922 L1768.24 512.565 L1769.96 514.125 L1771.75 515.598 L1773.62 516.982 L1775.55 518.273 L1777.54 519.467 L1779.59 520.562 L1781.69 521.555 L1783.84 522.444 L1786.02 523.226 L1788.25 523.901 L1790.5 524.465 L1792.78 524.918 L1795.08 525.259 L1797.39 525.487 L1799.71 525.601 L1802.03 525.601 L1804.35 525.487 L1806.66 525.259 L1808.96 524.918 L1811.24 524.465 L1813.49 523.901 L1815.71 523.226 L1817.9 522.444 L1820.05 521.555 L1822.15 520.562 L1824.2 519.467 L1826.19 518.273 L1828.12 516.982 L1829.99 515.598 L1831.78 514.125 L1833.5 512.565 L1835.14 510.922 L1836.7 509.201 L1838.18 507.406 L1839.56 505.54 L1840.85 503.608 L1842.05 501.616 L1843.14 499.567 L1844.13 497.468 L1845.02 495.322 L1845.81 493.135 L1846.48 490.912 L1847.04 488.658 L1847.5 486.38 L1847.84 484.083 L1848.07 481.771 L1848.18 479.451 L1848.18 477.128 L1848.07 474.808 L1847.84 472.496 L1847.5 470.198 L1847.04 467.92 L1846.48 465.667 L1845.81 463.444 L1845.02 461.257 L1844.13 459.111 L1843.14 457.011 L1842.05 454.963 L1840.85 452.97 L1839.56 451.039 L1838.18 449.173 L1836.7 447.378 L1835.14 445.656 L1833.5 444.014 L1831.78 442.454 L1829.99 440.98 L1828.12 439.597 L1826.19 438.306 L1824.2 437.112 L1822.15 436.017 L1820.05 435.024 L1817.9 434.135 L1815.71 433.352 L1813.49 432.678 L1811.24 432.114 L1808.96 431.66 L1806.66 431.32 L1804.35 431.092 L1802.03 430.978 L1799.71 430.978 L1797.39 431.092 L1795.08 431.32 L1792.78 431.66 L1790.5 432.114 L1788.25 432.678 L1786.02 433.352 L1783.84 434.135 L1781.69 435.024 L1779.59 436.017 L1777.54 437.112 L1775.55 438.306 L1773.62 439.597 L1771.75 440.98 L1769.96 442.454 L1768.24 444.014 L1766.59 445.656 L1765.03 447.378 L1763.56 449.173 L1762.18 451.039 L1760.89 452.97 L1759.69 454.963 L1758.6 457.011 L1757.6 459.111 L1756.71 461.257 L1755.93 463.444 L1755.26 465.667 L1754.69 467.92 L1754.24 470.198 L1753.9 472.496 L1753.67 474.808 L1753.56 477.128 L1753.56 479.451 L1753.56 479.451  Z" fill="#ffff00" fill-rule="evenodd" fill-opacity="1"/>
<polyline clip-path="url(#clip252)" style="stroke:#000000; stroke-linecap:round; stroke-linejoin:round; stroke-width:4; stroke-opacity:1; fill:none" points="1753.56,479.451 1753.67,481.771 1753.9,484.083 1754.24,486.38 1754.69,488.658 1755.26,490.912 1755.93,493.135 1756.71,495.322 1757.6,497.468 1758.6,499.567 1759.69,501.616 1760.89,503.608 1762.18,505.54 1763.56,507.406 1765.03,509.201 1766.59,510.922 1768.24,512.565 1769.96,514.125 1771.75,515.598 1773.62,516.982 1775.55,518.273 1777.54,519.467 1779.59,520.562 1781.69,521.555 1783.84,522.444 1786.02,523.226 1788.25,523.901 1790.5,524.465 1792.78,524.918 1795.08,525.259 1797.39,525.487 1799.71,525.601 1802.03,525.601 1804.35,525.487 1806.66,525.259 1808.96,524.918 1811.24,524.465 1813.49,523.901 1815.71,523.226 1817.9,522.444 1820.05,521.555 1822.15,520.562 1824.2,519.467 1826.19,518.273 1828.12,516.982 1829.99,515.598 1831.78,514.125 1833.5,512.565 1835.14,510.922 1836.7,509.201 1838.18,507.406 1839.56,505.54 1840.85,503.608 1842.05,501.616 1843.14,499.567 1844.13,497.468 1845.02,495.322 1845.81,493.135 1846.48,490.912 1847.04,488.658 1847.5,486.38 1847.84,484.083 1848.07,481.771 1848.18,479.451 1848.18,477.128 1848.07,474.808 1847.84,472.496 1847.5,470.198 1847.04,467.92 1846.48,465.667 1845.81,463.444 1845.02,461.257 1844.13,459.111 1843.14,457.011 1842.05,454.963 1840.85,452.97 1839.56,451.039 1838.18,449.173 1836.7,447.378 1835.14,445.656 1833.5,444.014 1831.78,442.454 1829.99,440.98 1828.12,439.597 1826.19,438.306 1824.2,437.112 1822.15,436.017 1820.05,435.024 1817.9,434.135 1815.71,433.352 1813.49,432.678 1811.24,432.114 1808.96,431.66 1806.66,431.32 1804.35,431.092 1802.03,430.978 1799.71,430.978 1797.39,431.092 1795.08,431.32 1792.78,431.66 1790.5,432.114 1788.25,432.678 1786.02,433.352 1783.84,434.135 1781.69,435.024 1779.59,436.017 1777.54,437.112 1775.55,438.306 1773.62,439.597 1771.75,440.98 1769.96,442.454 1768.24,444.014 1766.59,445.656 1765.03,447.378 1763.56,449.173 1762.18,451.039 1760.89,452.97 1759.69,454.963 1758.6,457.011 1757.6,459.111 1756.71,461.257 1755.93,463.444 1755.26,465.667 1754.69,467.92 1754.24,470.198 1753.9,472.496 1753.67,474.808 1753.56,477.128 1753.56,479.451 "/>
<polyline clip-path="url(#clip252)" style="stroke:#000000; stroke-linecap:round; stroke-linejoin:round; stroke-width:4; stroke-opacity:1; fill:none" points="1516.23,568.952 1800.87,478.289 "/>
<path clip-path="url(#clip252)" d="M1766.57 489.215 L1761.1 472.064 L1800.87 478.289 L1772.03 506.366  Z" fill="#000000" fill-rule="evenodd" fill-opacity="1"/>
<polyline clip-path="url(#clip252)" style="stroke:#000000; stroke-linecap:round; stroke-linejoin:round; stroke-width:4; stroke-opacity:1; fill:none" points="1766.57,489.215 1516.23,568.952 "/>
<circle clip-path="url(#clip252)" cx="1516.23" cy="568.952" r="14.4" fill="#000000" fill-rule="evenodd" fill-opacity="0" stroke="none"/>
<circle clip-path="url(#clip252)" cx="1800.87" cy="478.289" r="14.4" fill="#000000" fill-rule="evenodd" fill-opacity="0" stroke="none"/>
<polyline clip-path="url(#clip252)" style="stroke:#000000; stroke-linecap:round; stroke-linejoin:round; stroke-width:4; stroke-opacity:1; fill:none" points="1783.62,301.557 1800.87,478.289 "/>
<path clip-path="url(#clip252)" d="M1797.37 442.46 L1815.29 440.711 L1800.87 478.289 L1779.46 444.208  Z" fill="#000000" fill-rule="evenodd" fill-opacity="1"/>
<polyline clip-path="url(#clip252)" style="stroke:#000000; stroke-linecap:round; stroke-linejoin:round; stroke-width:4; stroke-opacity:1; fill:none" points="1797.37,442.46 1783.62,301.557 "/>
<circle clip-path="url(#clip252)" cx="1783.62" cy="301.557" r="14.4" fill="#000000" fill-rule="evenodd" fill-opacity="0" stroke="none"/>
<circle clip-path="url(#clip252)" cx="1800.87" cy="478.289" r="14.4" fill="#000000" fill-rule="evenodd" fill-opacity="0" stroke="none"/>
<polyline clip-path="url(#clip252)" style="stroke:#000000; stroke-linecap:round; stroke-linejoin:round; stroke-width:4; stroke-opacity:1; fill:none" points="854.642,1424.52 663.927,1000.72 "/>
<path clip-path="url(#clip252)" d="M678.701 1033.55 L662.287 1040.94 L663.927 1000.72 L695.116 1026.17  Z" fill="#000000" fill-rule="evenodd" fill-opacity="1"/>
<polyline clip-path="url(#clip252)" style="stroke:#000000; stroke-linecap:round; stroke-linejoin:round; stroke-width:4; stroke-opacity:1; fill:none" points="678.701,1033.55 854.642,1424.52 "/>
<circle clip-path="url(#clip252)" cx="854.642" cy="1424.52" r="14.4" fill="#000000" fill-rule="evenodd" fill-opacity="0" stroke="none"/>
<circle clip-path="url(#clip252)" cx="663.927" cy="1000.72" r="14.4" fill="#000000" fill-rule="evenodd" fill-opacity="0" stroke="none"/>
<polyline clip-path="url(#clip252)" style="stroke:#000000; stroke-linecap:round; stroke-linejoin:round; stroke-width:4; stroke-opacity:1; fill:none" points="663.927,1000.72 836.749,816.64 "/>
<path clip-path="url(#clip252)" d="M812.109 842.886 L798.986 830.566 L836.749 816.64 L825.232 855.206  Z" fill="#000000" fill-rule="evenodd" fill-opacity="1"/>
<polyline clip-path="url(#clip252)" style="stroke:#000000; stroke-linecap:round; stroke-linejoin:round; stroke-width:4; stroke-opacity:1; fill:none" points="812.109,842.886 663.927,1000.72 "/>
<circle clip-path="url(#clip252)" cx="663.927" cy="1000.72" r="14.4" fill="#000000" fill-rule="evenodd" fill-opacity="0" stroke="none"/>
<circle clip-path="url(#clip252)" cx="836.749" cy="816.64" r="14.4" fill="#000000" fill-rule="evenodd" fill-opacity="0" stroke="none"/>
<polyline clip-path="url(#clip252)" style="stroke:#000000; stroke-linecap:round; stroke-linejoin:round; stroke-width:4; stroke-opacity:1; fill:none" points="836.749,816.64 938.979,738.352 "/>
<path clip-path="url(#clip252)" d="M910.397 760.24 L899.453 745.949 L938.979 738.352 L921.341 774.531  Z" fill="#000000" fill-rule="evenodd" fill-opacity="1"/>
<polyline clip-path="url(#clip252)" style="stroke:#000000; stroke-linecap:round; stroke-linejoin:round; stroke-width:4; stroke-opacity:1; fill:none" points="910.397,760.24 836.749,816.64 "/>
<circle clip-path="url(#clip252)" cx="836.749" cy="816.64" r="14.4" fill="#000000" fill-rule="evenodd" fill-opacity="0" stroke="none"/>
<circle clip-path="url(#clip252)" cx="938.979" cy="738.352" r="14.4" fill="#000000" fill-rule="evenodd" fill-opacity="0" stroke="none"/>
<polyline clip-path="url(#clip252)" style="stroke:#000000; stroke-linecap:round; stroke-linejoin:round; stroke-width:4; stroke-opacity:1; fill:none" points="938.979,738.352 1339.6,482.035 "/>
<path clip-path="url(#clip252)" d="M1309.27 501.437 L1299.57 486.275 L1339.6 482.035 L1318.98 516.599  Z" fill="#000000" fill-rule="evenodd" fill-opacity="1"/>
<polyline clip-path="url(#clip252)" style="stroke:#000000; stroke-linecap:round; stroke-linejoin:round; stroke-width:4; stroke-opacity:1; fill:none" points="1309.27,501.437 938.979,738.352 "/>
<circle clip-path="url(#clip252)" cx="938.979" cy="738.352" r="14.4" fill="#000000" fill-rule="evenodd" fill-opacity="0" stroke="none"/>
<circle clip-path="url(#clip252)" cx="1339.6" cy="482.035" r="14.4" fill="#000000" fill-rule="evenodd" fill-opacity="0" stroke="none"/>
<polyline clip-path="url(#clip252)" style="stroke:#000000; stroke-linecap:round; stroke-linejoin:round; stroke-width:4; stroke-opacity:1; fill:none" points="1339.6,482.035 1438.34,524.263 "/>
<path clip-path="url(#clip252)" d="M1405.24 510.108 L1412.32 493.557 L1438.34 524.263 L1398.17 526.658  Z" fill="#000000" fill-rule="evenodd" fill-opacity="1"/>
<polyline clip-path="url(#clip252)" style="stroke:#000000; stroke-linecap:round; stroke-linejoin:round; stroke-width:4; stroke-opacity:1; fill:none" points="1405.24,510.108 1339.6,482.035 "/>
<circle clip-path="url(#clip252)" cx="1339.6" cy="482.035" r="14.4" fill="#000000" fill-rule="evenodd" fill-opacity="0" stroke="none"/>
<circle clip-path="url(#clip252)" cx="1438.34" cy="524.263" r="14.4" fill="#000000" fill-rule="evenodd" fill-opacity="0" stroke="none"/>
<polyline clip-path="url(#clip252)" style="stroke:#000000; stroke-linecap:round; stroke-linejoin:round; stroke-width:4; stroke-opacity:1; fill:none" points="1438.34,524.263 1486.05,599.134 "/>
<path clip-path="url(#clip252)" d="M1466.7 568.773 L1481.88 559.101 L1486.05 599.134 L1451.52 578.445  Z" fill="#000000" fill-rule="evenodd" fill-opacity="1"/>
<polyline clip-path="url(#clip252)" style="stroke:#000000; stroke-linecap:round; stroke-linejoin:round; stroke-width:4; stroke-opacity:1; fill:none" points="1466.7,568.773 1438.34,524.263 "/>
<circle clip-path="url(#clip252)" cx="1438.34" cy="524.263" r="14.4" fill="#000000" fill-rule="evenodd" fill-opacity="0" stroke="none"/>
<circle clip-path="url(#clip252)" cx="1486.05" cy="599.134" r="14.4" fill="#000000" fill-rule="evenodd" fill-opacity="0" stroke="none"/>
<polyline clip-path="url(#clip252)" style="stroke:#000000; stroke-linecap:round; stroke-linejoin:round; stroke-width:4; stroke-opacity:1; fill:none" points="1486.05,599.134 1800.87,478.289 "/>
<path clip-path="url(#clip252)" d="M1767.26 491.19 L1760.81 474.386 L1800.87 478.289 L1773.71 507.995  Z" fill="#000000" fill-rule="evenodd" fill-opacity="1"/>
<polyline clip-path="url(#clip252)" style="stroke:#000000; stroke-linecap:round; stroke-linejoin:round; stroke-width:4; stroke-opacity:1; fill:none" points="1767.26,491.19 1486.05,599.134 "/>
<circle clip-path="url(#clip252)" cx="1486.05" cy="599.134" r="14.4" fill="#000000" fill-rule="evenodd" fill-opacity="0" stroke="none"/>
<circle clip-path="url(#clip252)" cx="1800.87" cy="478.289" r="14.4" fill="#000000" fill-rule="evenodd" fill-opacity="0" stroke="none"/>
</svg>
