<?xml version="1.0" encoding="utf-8"?>
<svg xmlns="http://www.w3.org/2000/svg" xmlns:xlink="http://www.w3.org/1999/xlink" width="600" height="400" viewBox="0 0 2400 1600">
<defs>
  <clipPath id="clip450">
    <rect x="0" y="0" width="2400" height="1600"/>
  </clipPath>
</defs>
<path clip-path="url(#clip450)" d="M0 1600 L2400 1600 L2400 0 L0 0  Z" fill="#ffffff" fill-rule="evenodd" fill-opacity="1"/>
<defs>
  <clipPath id="clip451">
    <rect x="480" y="0" width="1681" height="1600"/>
  </clipPath>
</defs>
<path clip-path="url(#clip450)" d="M208.49 1477.81 L2352.76 1477.81 L2352.76 123.472 L208.49 123.472  Z" fill="#ffffff" fill-rule="evenodd" fill-opacity="1"/>
<defs>
  <clipPath id="clip452">
    <rect x="208" y="123" width="2145" height="1355"/>
  </clipPath>
</defs>
<polyline clip-path="url(#clip452)" style="stroke:#000000; stroke-linecap:round; stroke-linejoin:round; stroke-width:2; stroke-opacity:0.1; fill:none" points="322.367,1477.81 322.367,123.472 "/>
<polyline clip-path="url(#clip452)" style="stroke:#000000; stroke-linecap:round; stroke-linejoin:round; stroke-width:2; stroke-opacity:0.1; fill:none" points="641.785,1477.81 641.785,123.472 "/>
<polyline clip-path="url(#clip452)" style="stroke:#000000; stroke-linecap:round; stroke-linejoin:round; stroke-width:2; stroke-opacity:0.1; fill:none" points="961.204,1477.81 961.204,123.472 "/>
<polyline clip-path="url(#clip452)" style="stroke:#000000; stroke-linecap:round; stroke-linejoin:round; stroke-width:2; stroke-opacity:0.1; fill:none" points="1280.62,1477.81 1280.62,123.472 "/>
<polyline clip-path="url(#clip452)" style="stroke:#000000; stroke-linecap:round; stroke-linejoin:round; stroke-width:2; stroke-opacity:0.1; fill:none" points="1600.04,1477.81 1600.04,123.472 "/>
<polyline clip-path="url(#clip452)" style="stroke:#000000; stroke-linecap:round; stroke-linejoin:round; stroke-width:2; stroke-opacity:0.1; fill:none" points="1919.46,1477.81 1919.46,123.472 "/>
<polyline clip-path="url(#clip452)" style="stroke:#000000; stroke-linecap:round; stroke-linejoin:round; stroke-width:2; stroke-opacity:0.1; fill:none" points="2238.88,1477.81 2238.88,123.472 "/>
<polyline clip-path="url(#clip452)" style="stroke:#000000; stroke-linecap:round; stroke-linejoin:round; stroke-width:2; stroke-opacity:0.1; fill:none" points="208.49,1439.48 2352.76,1439.48 "/>
<polyline clip-path="url(#clip452)" style="stroke:#000000; stroke-linecap:round; stroke-linejoin:round; stroke-width:2; stroke-opacity:0.1; fill:none" points="208.49,1120.06 2352.76,1120.06 "/>
<polyline clip-path="url(#clip452)" style="stroke:#000000; stroke-linecap:round; stroke-linejoin:round; stroke-width:2; stroke-opacity:0.1; fill:none" points="208.49,800.64 2352.76,800.64 "/>
<polyline clip-path="url(#clip452)" style="stroke:#000000; stroke-linecap:round; stroke-linejoin:round; stroke-width:2; stroke-opacity:0.1; fill:none" points="208.49,481.221 2352.76,481.221 "/>
<polyline clip-path="url(#clip452)" style="stroke:#000000; stroke-linecap:round; stroke-linejoin:round; stroke-width:2; stroke-opacity:0.1; fill:none" points="208.49,161.802 2352.76,161.802 "/>
<polyline clip-path="url(#clip450)" style="stroke:#000000; stroke-linecap:round; stroke-linejoin:round; stroke-width:4; stroke-opacity:1; fill:none" points="208.49,1477.81 2352.76,1477.81 "/>
<polyline clip-path="url(#clip450)" style="stroke:#000000; stroke-linecap:round; stroke-linejoin:round; stroke-width:4; stroke-opacity:1; fill:none" points="322.367,1477.81 322.367,1458.91 "/>
<polyline clip-path="url(#clip450)" style="stroke:#000000; stroke-linecap:round; stroke-linejoin:round; stroke-width:4; stroke-opacity:1; fill:none" points="641.785,1477.81 641.785,1458.91 "/>
<polyline clip-path="url(#clip450)" style="stroke:#000000; stroke-linecap:round; stroke-linejoin:round; stroke-width:4; stroke-opacity:1; fill:none" points="961.204,1477.81 961.204,1458.91 "/>
<polyline clip-path="url(#clip450)" style="stroke:#000000; stroke-linecap:round; stroke-linejoin:round; stroke-width:4; stroke-opacity:1; fill:none" points="1280.62,1477.81 1280.62,1458.91 "/>
<polyline clip-path="url(#clip450)" style="stroke:#000000; stroke-linecap:round; stroke-linejoin:round; stroke-width:4; stroke-opacity:1; fill:none" points="1600.04,1477.81 1600.04,1458.91 "/>
<polyline clip-path="url(#clip450)" style="stroke:#000000; stroke-linecap:round; stroke-linejoin:round; stroke-width:4; stroke-opacity:1; fill:none" points="1919.46,1477.81 1919.46,1458.91 "/>
<polyline clip-path="url(#clip450)" style="stroke:#000000; stroke-linecap:round; stroke-linejoin:round; stroke-width:4; stroke-opacity:1; fill:none" points="2238.88,1477.81 2238.88,1458.91 "/>
<path clip-path="url(#clip450)" d="M294.661 1530.49 Q290.495 1530.49 288.093 1532.72 Q285.72 1534.95 285.72 1538.86 Q285.72 1542.76 288.093 1544.99 Q290.495 1547.22 294.661 1547.22 Q298.828 1547.22 301.23 1544.99 Q303.631 1542.73 303.631 1538.86 Q303.631 1534.95 301.23 1532.72 Q298.857 1530.49 294.661 1530.49 M288.817 1528 Q285.055 1527.08 282.943 1524.5 Q280.859 1521.93 280.859 1518.22 Q280.859 1513.05 284.534 1510.04 Q288.238 1507.03 294.661 1507.03 Q301.114 1507.03 304.789 1510.04 Q308.463 1513.05 308.463 1518.22 Q308.463 1521.93 306.351 1524.5 Q304.268 1527.08 300.535 1528 Q304.76 1528.99 307.103 1531.85 Q309.476 1534.72 309.476 1538.86 Q309.476 1545.13 305.628 1548.49 Q301.808 1551.85 294.661 1551.85 Q287.514 1551.85 283.666 1548.49 Q279.847 1545.13 279.847 1538.86 Q279.847 1534.72 282.219 1531.85 Q284.592 1528.99 288.817 1528 M286.675 1518.77 Q286.675 1522.13 288.759 1524.01 Q290.871 1525.89 294.661 1525.89 Q298.423 1525.89 300.535 1524.01 Q302.676 1522.13 302.676 1518.77 Q302.676 1515.42 300.535 1513.54 Q298.423 1511.66 294.661 1511.66 Q290.871 1511.66 288.759 1513.54 Q286.675 1515.42 286.675 1518.77 Z" fill="#000000" fill-rule="nonzero" fill-opacity="1" /><path clip-path="url(#clip450)" d="M319.864 1543.66 L325.969 1543.66 L325.969 1551.01 L319.864 1551.01 L319.864 1543.66 Z" fill="#000000" fill-rule="nonzero" fill-opacity="1" /><path clip-path="url(#clip450)" d="M338.758 1507.81 L361.704 1507.81 L361.704 1512.73 L344.111 1512.73 L344.111 1523.32 Q345.385 1522.88 346.658 1522.68 Q347.931 1522.45 349.204 1522.45 Q356.438 1522.45 360.662 1526.41 Q364.887 1530.38 364.887 1537.15 Q364.887 1544.12 360.546 1548 Q356.206 1551.85 348.307 1551.85 Q345.587 1551.85 342.751 1551.38 Q339.945 1550.92 336.935 1550 L336.935 1544.12 Q339.54 1545.54 342.317 1546.23 Q345.095 1546.93 348.191 1546.93 Q353.197 1546.93 356.119 1544.29 Q359.042 1541.66 359.042 1537.15 Q359.042 1532.63 356.119 1530 Q353.197 1527.37 348.191 1527.37 Q345.847 1527.37 343.504 1527.89 Q341.189 1528.41 338.758 1529.51 L338.758 1507.81 Z" fill="#000000" fill-rule="nonzero" fill-opacity="1" /><path clip-path="url(#clip450)" d="M601.276 1550.11 L601.276 1544.79 Q603.476 1545.83 605.732 1546.38 Q607.989 1546.93 610.16 1546.93 Q615.947 1546.93 618.985 1543.05 Q622.052 1539.14 622.486 1531.22 Q620.808 1533.7 618.232 1535.04 Q615.657 1536.37 612.532 1536.37 Q606.051 1536.37 602.26 1532.46 Q598.499 1528.53 598.499 1521.73 Q598.499 1515.07 602.434 1511.05 Q606.369 1507.03 612.908 1507.03 Q620.403 1507.03 624.338 1512.78 Q628.302 1518.51 628.302 1529.45 Q628.302 1539.67 623.441 1545.77 Q618.609 1551.85 610.42 1551.85 Q608.221 1551.85 605.964 1551.41 Q603.707 1550.98 601.276 1550.11 M612.908 1531.8 Q616.843 1531.8 619.129 1529.1 Q621.444 1526.41 621.444 1521.73 Q621.444 1517.07 619.129 1514.38 Q616.843 1511.66 612.908 1511.66 Q608.973 1511.66 606.658 1514.38 Q604.373 1517.07 604.373 1521.73 Q604.373 1526.41 606.658 1529.1 Q608.973 1531.8 612.908 1531.8 Z" fill="#000000" fill-rule="nonzero" fill-opacity="1" /><path clip-path="url(#clip450)" d="M638.805 1543.66 L644.91 1543.66 L644.91 1551.01 L638.805 1551.01 L638.805 1543.66 Z" fill="#000000" fill-rule="nonzero" fill-opacity="1" /><path clip-path="url(#clip450)" d="M670.142 1511.66 Q665.628 1511.66 663.342 1516.11 Q661.085 1520.54 661.085 1529.45 Q661.085 1538.33 663.342 1542.79 Q665.628 1547.22 670.142 1547.22 Q674.685 1547.22 676.942 1542.79 Q679.227 1538.33 679.227 1529.45 Q679.227 1520.54 676.942 1516.11 Q674.685 1511.66 670.142 1511.66 M670.142 1507.03 Q677.405 1507.03 681.224 1512.78 Q685.072 1518.51 685.072 1529.45 Q685.072 1540.36 681.224 1546.12 Q677.405 1551.85 670.142 1551.85 Q662.879 1551.85 659.031 1546.12 Q655.211 1540.36 655.211 1529.45 Q655.211 1518.51 659.031 1512.78 Q662.879 1507.03 670.142 1507.03 Z" fill="#000000" fill-rule="nonzero" fill-opacity="1" /><path clip-path="url(#clip450)" d="M921.317 1550.11 L921.317 1544.79 Q923.516 1545.83 925.773 1546.38 Q928.03 1546.93 930.2 1546.93 Q935.987 1546.93 939.026 1543.05 Q942.093 1539.14 942.527 1531.22 Q940.849 1533.7 938.273 1535.04 Q935.698 1536.37 932.573 1536.37 Q926.092 1536.37 922.301 1532.46 Q918.54 1528.53 918.54 1521.73 Q918.54 1515.07 922.475 1511.05 Q926.41 1507.03 932.949 1507.03 Q940.443 1507.03 944.379 1512.78 Q948.343 1518.51 948.343 1529.45 Q948.343 1539.67 943.482 1545.77 Q938.649 1551.85 930.461 1551.85 Q928.262 1551.85 926.005 1551.41 Q923.748 1550.98 921.317 1550.11 M932.949 1531.8 Q936.884 1531.8 939.17 1529.1 Q941.485 1526.41 941.485 1521.73 Q941.485 1517.07 939.17 1514.38 Q936.884 1511.66 932.949 1511.66 Q929.014 1511.66 926.699 1514.38 Q924.413 1517.07 924.413 1521.73 Q924.413 1526.41 926.699 1529.1 Q929.014 1531.8 932.949 1531.8 Z" fill="#000000" fill-rule="nonzero" fill-opacity="1" /><path clip-path="url(#clip450)" d="M958.846 1543.66 L964.951 1543.66 L964.951 1551.01 L958.846 1551.01 L958.846 1543.66 Z" fill="#000000" fill-rule="nonzero" fill-opacity="1" /><path clip-path="url(#clip450)" d="M977.741 1507.81 L1000.69 1507.81 L1000.69 1512.73 L983.094 1512.73 L983.094 1523.32 Q984.367 1522.88 985.64 1522.68 Q986.913 1522.45 988.186 1522.45 Q995.42 1522.45 999.644 1526.41 Q1003.87 1530.38 1003.87 1537.15 Q1003.87 1544.12 999.529 1548 Q995.188 1551.85 987.289 1551.85 Q984.569 1551.85 981.734 1551.38 Q978.927 1550.92 975.918 1550 L975.918 1544.12 Q978.522 1545.54 981.3 1546.23 Q984.077 1546.93 987.173 1546.93 Q992.179 1546.93 995.102 1544.29 Q998.024 1541.66 998.024 1537.15 Q998.024 1532.63 995.102 1530 Q992.179 1527.37 987.173 1527.37 Q984.83 1527.37 982.486 1527.89 Q980.171 1528.41 977.741 1529.51 L977.741 1507.81 Z" fill="#000000" fill-rule="nonzero" fill-opacity="1" /><path clip-path="url(#clip450)" d="M1220.71 1546.09 L1230.26 1546.09 L1230.26 1513.13 L1219.87 1515.22 L1219.87 1509.89 L1230.2 1507.81 L1236.05 1507.81 L1236.05 1546.09 L1245.6 1546.09 L1245.6 1551.01 L1220.71 1551.01 L1220.71 1546.09 Z" fill="#000000" fill-rule="nonzero" fill-opacity="1" /><path clip-path="url(#clip450)" d="M1269.9 1511.66 Q1265.39 1511.66 1263.1 1516.11 Q1260.85 1520.54 1260.85 1529.45 Q1260.85 1538.33 1263.1 1542.79 Q1265.39 1547.22 1269.9 1547.22 Q1274.45 1547.22 1276.7 1542.79 Q1278.99 1538.33 1278.99 1529.45 Q1278.99 1520.54 1276.7 1516.11 Q1274.45 1511.66 1269.9 1511.66 M1269.9 1507.03 Q1277.17 1507.03 1280.98 1512.78 Q1284.83 1518.51 1284.83 1529.45 Q1284.83 1540.36 1280.98 1546.12 Q1277.17 1551.85 1269.9 1551.85 Q1262.64 1551.85 1258.79 1546.12 Q1254.97 1540.36 1254.97 1529.45 Q1254.97 1518.51 1258.79 1512.78 Q1262.64 1507.03 1269.9 1507.03 Z" fill="#000000" fill-rule="nonzero" fill-opacity="1" /><path clip-path="url(#clip450)" d="M1295.11 1543.66 L1301.21 1543.66 L1301.21 1551.01 L1295.11 1551.01 L1295.11 1543.66 Z" fill="#000000" fill-rule="nonzero" fill-opacity="1" /><path clip-path="url(#clip450)" d="M1326.44 1511.66 Q1321.93 1511.66 1319.64 1516.11 Q1317.39 1520.54 1317.39 1529.45 Q1317.39 1538.33 1319.64 1542.79 Q1321.93 1547.22 1326.44 1547.22 Q1330.98 1547.22 1333.24 1542.79 Q1335.53 1538.33 1335.53 1529.45 Q1335.53 1520.54 1333.24 1516.11 Q1330.98 1511.66 1326.44 1511.66 M1326.44 1507.03 Q1333.7 1507.03 1337.52 1512.78 Q1341.37 1518.51 1341.37 1529.45 Q1341.37 1540.36 1337.52 1546.12 Q1333.7 1551.85 1326.44 1551.85 Q1319.18 1551.85 1315.33 1546.12 Q1311.51 1540.36 1311.51 1529.45 Q1311.51 1518.51 1315.33 1512.78 Q1319.18 1507.03 1326.44 1507.03 Z" fill="#000000" fill-rule="nonzero" fill-opacity="1" /><path clip-path="url(#clip450)" d="M1540.75 1546.09 L1550.3 1546.09 L1550.3 1513.13 L1539.91 1515.22 L1539.91 1509.89 L1550.24 1507.81 L1556.09 1507.81 L1556.09 1546.09 L1565.64 1546.09 L1565.64 1551.01 L1540.75 1551.01 L1540.75 1546.09 Z" fill="#000000" fill-rule="nonzero" fill-opacity="1" /><path clip-path="url(#clip450)" d="M1589.94 1511.66 Q1585.43 1511.66 1583.14 1516.11 Q1580.89 1520.54 1580.89 1529.45 Q1580.89 1538.33 1583.14 1542.79 Q1585.43 1547.22 1589.94 1547.22 Q1594.49 1547.22 1596.74 1542.79 Q1599.03 1538.33 1599.03 1529.45 Q1599.03 1520.54 1596.74 1516.11 Q1594.49 1511.66 1589.94 1511.66 M1589.94 1507.03 Q1597.21 1507.03 1601.03 1512.78 Q1604.87 1518.51 1604.87 1529.45 Q1604.87 1540.36 1601.03 1546.12 Q1597.21 1551.85 1589.94 1551.85 Q1582.68 1551.85 1578.83 1546.12 Q1575.01 1540.36 1575.01 1529.45 Q1575.01 1518.51 1578.83 1512.78 Q1582.68 1507.03 1589.94 1507.03 Z" fill="#000000" fill-rule="nonzero" fill-opacity="1" /><path clip-path="url(#clip450)" d="M1615.15 1543.66 L1621.25 1543.66 L1621.25 1551.01 L1615.15 1551.01 L1615.15 1543.66 Z" fill="#000000" fill-rule="nonzero" fill-opacity="1" /><path clip-path="url(#clip450)" d="M1634.04 1507.81 L1656.99 1507.81 L1656.99 1512.73 L1639.39 1512.73 L1639.39 1523.32 Q1640.67 1522.88 1641.94 1522.68 Q1643.21 1522.45 1644.49 1522.45 Q1651.72 1522.45 1655.94 1526.41 Q1660.17 1530.38 1660.17 1537.15 Q1660.17 1544.12 1655.83 1548 Q1651.49 1551.85 1643.59 1551.85 Q1640.87 1551.85 1638.03 1551.38 Q1635.23 1550.92 1632.22 1550 L1632.22 1544.12 Q1634.82 1545.54 1637.6 1546.23 Q1640.38 1546.93 1643.47 1546.93 Q1648.48 1546.93 1651.4 1544.29 Q1654.32 1541.66 1654.32 1537.15 Q1654.32 1532.63 1651.4 1530 Q1648.48 1527.37 1643.47 1527.37 Q1641.13 1527.37 1638.79 1527.89 Q1636.47 1528.41 1634.04 1529.51 L1634.04 1507.81 Z" fill="#000000" fill-rule="nonzero" fill-opacity="1" /><path clip-path="url(#clip450)" d="M1859.55 1546.09 L1869.1 1546.09 L1869.1 1513.13 L1858.71 1515.22 L1858.71 1509.89 L1869.04 1507.81 L1874.89 1507.81 L1874.89 1546.09 L1884.43 1546.09 L1884.43 1551.01 L1859.55 1551.01 L1859.55 1546.09 Z" fill="#000000" fill-rule="nonzero" fill-opacity="1" /><path clip-path="url(#clip450)" d="M1897.25 1546.09 L1906.8 1546.09 L1906.8 1513.13 L1896.41 1515.22 L1896.41 1509.89 L1906.74 1507.81 L1912.59 1507.81 L1912.59 1546.09 L1922.14 1546.09 L1922.14 1551.01 L1897.25 1551.01 L1897.25 1546.09 Z" fill="#000000" fill-rule="nonzero" fill-opacity="1" /><path clip-path="url(#clip450)" d="M1933.94 1543.66 L1940.05 1543.66 L1940.05 1551.01 L1933.94 1551.01 L1933.94 1543.66 Z" fill="#000000" fill-rule="nonzero" fill-opacity="1" /><path clip-path="url(#clip450)" d="M1965.28 1511.66 Q1960.77 1511.66 1958.48 1516.11 Q1956.22 1520.54 1956.22 1529.45 Q1956.22 1538.33 1958.48 1542.79 Q1960.77 1547.22 1965.28 1547.22 Q1969.82 1547.22 1972.08 1542.79 Q1974.36 1538.33 1974.36 1529.45 Q1974.36 1520.54 1972.08 1516.11 Q1969.82 1511.66 1965.28 1511.66 M1965.28 1507.03 Q1972.54 1507.03 1976.36 1512.78 Q1980.21 1518.51 1980.21 1529.45 Q1980.21 1540.36 1976.36 1546.12 Q1972.54 1551.85 1965.28 1551.85 Q1958.02 1551.85 1954.17 1546.12 Q1950.35 1540.36 1950.35 1529.45 Q1950.35 1518.51 1954.17 1512.78 Q1958.02 1507.03 1965.28 1507.03 Z" fill="#000000" fill-rule="nonzero" fill-opacity="1" /><path clip-path="url(#clip450)" d="M2179.59 1546.09 L2189.14 1546.09 L2189.14 1513.13 L2178.75 1515.22 L2178.75 1509.89 L2189.08 1507.81 L2194.93 1507.81 L2194.93 1546.09 L2204.48 1546.09 L2204.48 1551.01 L2179.59 1551.01 L2179.59 1546.09 Z" fill="#000000" fill-rule="nonzero" fill-opacity="1" /><path clip-path="url(#clip450)" d="M2217.29 1546.09 L2226.84 1546.09 L2226.84 1513.13 L2216.45 1515.22 L2216.45 1509.89 L2226.78 1507.81 L2232.63 1507.81 L2232.63 1546.09 L2242.18 1546.09 L2242.18 1551.01 L2217.29 1551.01 L2217.29 1546.09 Z" fill="#000000" fill-rule="nonzero" fill-opacity="1" /><path clip-path="url(#clip450)" d="M2253.98 1543.66 L2260.09 1543.66 L2260.09 1551.01 L2253.98 1551.01 L2253.98 1543.66 Z" fill="#000000" fill-rule="nonzero" fill-opacity="1" /><path clip-path="url(#clip450)" d="M2272.88 1507.81 L2295.82 1507.81 L2295.82 1512.73 L2278.23 1512.73 L2278.23 1523.32 Q2279.5 1522.88 2280.78 1522.68 Q2282.05 1522.45 2283.32 1522.45 Q2290.56 1522.45 2294.78 1526.41 Q2299.01 1530.38 2299.01 1537.15 Q2299.01 1544.12 2294.67 1548 Q2290.33 1551.85 2282.43 1551.85 Q2279.71 1551.85 2276.87 1551.38 Q2274.06 1550.92 2271.06 1550 L2271.06 1544.12 Q2273.66 1545.54 2276.44 1546.23 Q2279.21 1546.93 2282.31 1546.93 Q2287.32 1546.93 2290.24 1544.29 Q2293.16 1541.66 2293.16 1537.15 Q2293.16 1532.63 2290.24 1530 Q2287.32 1527.37 2282.31 1527.37 Q2279.97 1527.37 2277.62 1527.89 Q2275.31 1528.41 2272.88 1529.51 L2272.88 1507.81 Z" fill="#000000" fill-rule="nonzero" fill-opacity="1" /><polyline clip-path="url(#clip450)" style="stroke:#000000; stroke-linecap:round; stroke-linejoin:round; stroke-width:4; stroke-opacity:1; fill:none" points="208.49,1477.81 208.49,123.472 "/>
<polyline clip-path="url(#clip450)" style="stroke:#000000; stroke-linecap:round; stroke-linejoin:round; stroke-width:4; stroke-opacity:1; fill:none" points="208.49,1439.48 227.388,1439.48 "/>
<polyline clip-path="url(#clip450)" style="stroke:#000000; stroke-linecap:round; stroke-linejoin:round; stroke-width:4; stroke-opacity:1; fill:none" points="208.49,1120.06 227.388,1120.06 "/>
<polyline clip-path="url(#clip450)" style="stroke:#000000; stroke-linecap:round; stroke-linejoin:round; stroke-width:4; stroke-opacity:1; fill:none" points="208.49,800.64 227.388,800.64 "/>
<polyline clip-path="url(#clip450)" style="stroke:#000000; stroke-linecap:round; stroke-linejoin:round; stroke-width:4; stroke-opacity:1; fill:none" points="208.49,481.221 227.388,481.221 "/>
<polyline clip-path="url(#clip450)" style="stroke:#000000; stroke-linecap:round; stroke-linejoin:round; stroke-width:4; stroke-opacity:1; fill:none" points="208.49,161.802 227.388,161.802 "/>
<path clip-path="url(#clip450)" d="M88.6945 1460.18 L88.6945 1454.86 Q90.8935 1455.9 93.1505 1456.45 Q95.4074 1457 97.5775 1457 Q103.365 1457 106.403 1453.12 Q109.47 1449.21 109.904 1441.29 Q108.226 1443.77 105.65 1445.11 Q103.075 1446.44 99.9502 1446.44 Q93.4688 1446.44 89.6783 1442.53 Q85.9167 1438.6 85.9167 1431.8 Q85.9167 1425.14 89.8519 1421.12 Q93.787 1417.1 100.326 1417.1 Q107.821 1417.1 111.756 1422.85 Q115.72 1428.58 115.72 1439.52 Q115.72 1449.74 110.859 1455.84 Q106.027 1461.92 97.8379 1461.92 Q95.6389 1461.92 93.3819 1461.48 Q91.125 1461.05 88.6945 1460.18 M100.326 1441.86 Q104.262 1441.86 106.547 1439.17 Q108.862 1436.48 108.862 1431.8 Q108.862 1427.14 106.547 1424.45 Q104.262 1421.73 100.326 1421.73 Q96.3912 1421.73 94.0764 1424.45 Q91.7905 1427.14 91.7905 1431.8 Q91.7905 1436.48 94.0764 1439.17 Q96.3912 1441.86 100.326 1441.86 Z" fill="#000000" fill-rule="nonzero" fill-opacity="1" /><path clip-path="url(#clip450)" d="M126.223 1453.73 L132.328 1453.73 L132.328 1461.08 L126.223 1461.08 L126.223 1453.73 Z" fill="#000000" fill-rule="nonzero" fill-opacity="1" /><path clip-path="url(#clip450)" d="M157.56 1421.73 Q153.046 1421.73 150.76 1426.18 Q148.503 1430.61 148.503 1439.52 Q148.503 1448.4 150.76 1452.86 Q153.046 1457.29 157.56 1457.29 Q162.103 1457.29 164.36 1452.86 Q166.645 1448.4 166.645 1439.52 Q166.645 1430.61 164.36 1426.18 Q162.103 1421.73 157.56 1421.73 M157.56 1417.1 Q164.823 1417.1 168.642 1422.85 Q172.49 1428.58 172.49 1439.52 Q172.49 1450.43 168.642 1456.19 Q164.823 1461.92 157.56 1461.92 Q150.297 1461.92 146.449 1456.19 Q142.629 1450.43 142.629 1439.52 Q142.629 1428.58 146.449 1422.85 Q150.297 1417.1 157.56 1417.1 Z" fill="#000000" fill-rule="nonzero" fill-opacity="1" /><path clip-path="url(#clip450)" d="M89.9387 1140.76 L89.9387 1135.44 Q92.1377 1136.48 94.3947 1137.03 Q96.6516 1137.58 98.8217 1137.58 Q104.609 1137.58 107.647 1133.7 Q110.714 1129.8 111.148 1121.87 Q109.47 1124.36 106.895 1125.69 Q104.319 1127.02 101.194 1127.02 Q94.713 1127.02 90.9225 1123.11 Q87.1609 1119.18 87.1609 1112.38 Q87.1609 1105.72 91.0961 1101.7 Q95.0312 1097.68 101.571 1097.68 Q109.065 1097.68 113 1103.44 Q116.964 1109.16 116.964 1120.1 Q116.964 1130.32 112.103 1136.42 Q107.271 1142.5 99.0821 1142.5 Q96.8831 1142.5 94.6262 1142.06 Q92.3692 1141.63 89.9387 1140.76 M101.571 1122.45 Q105.506 1122.45 107.792 1119.75 Q110.106 1117.06 110.106 1112.38 Q110.106 1107.72 107.792 1105.03 Q105.506 1102.31 101.571 1102.31 Q97.6354 1102.31 95.3206 1105.03 Q93.0347 1107.72 93.0347 1112.38 Q93.0347 1117.06 95.3206 1119.75 Q97.6354 1122.45 101.571 1122.45 Z" fill="#000000" fill-rule="nonzero" fill-opacity="1" /><path clip-path="url(#clip450)" d="M127.467 1134.31 L133.573 1134.31 L133.573 1141.66 L127.467 1141.66 L127.467 1134.31 Z" fill="#000000" fill-rule="nonzero" fill-opacity="1" /><path clip-path="url(#clip450)" d="M146.362 1098.46 L169.307 1098.46 L169.307 1103.38 L151.715 1103.38 L151.715 1113.97 Q152.988 1113.53 154.261 1113.33 Q155.534 1113.1 156.808 1113.1 Q164.041 1113.1 168.266 1117.06 Q172.49 1121.03 172.49 1127.8 Q172.49 1134.77 168.15 1138.65 Q163.81 1142.5 155.911 1142.5 Q153.191 1142.5 150.355 1142.03 Q147.548 1141.57 144.539 1140.65 L144.539 1134.77 Q147.143 1136.19 149.921 1136.88 Q152.699 1137.58 155.795 1137.58 Q160.801 1137.58 163.723 1134.95 Q166.645 1132.31 166.645 1127.8 Q166.645 1123.29 163.723 1120.65 Q160.801 1118.02 155.795 1118.02 Q153.451 1118.02 151.107 1118.54 Q148.793 1119.06 146.362 1120.16 L146.362 1098.46 Z" fill="#000000" fill-rule="nonzero" fill-opacity="1" /><path clip-path="url(#clip450)" d="M51.8312 817.321 L61.3798 817.321 L61.3798 784.364 L50.9921 786.447 L50.9921 781.123 L61.3219 779.04 L67.1668 779.04 L67.1668 817.321 L76.7154 817.321 L76.7154 822.24 L51.8312 822.24 L51.8312 817.321 Z" fill="#000000" fill-rule="nonzero" fill-opacity="1" /><path clip-path="url(#clip450)" d="M101.021 782.888 Q96.5069 782.888 94.2211 787.344 Q91.9641 791.771 91.9641 800.683 Q91.9641 809.566 94.2211 814.022 Q96.5069 818.45 101.021 818.45 Q105.564 818.45 107.821 814.022 Q110.106 809.566 110.106 800.683 Q110.106 791.771 107.821 787.344 Q105.564 782.888 101.021 782.888 M101.021 778.259 Q108.283 778.259 112.103 784.017 Q115.951 789.746 115.951 800.683 Q115.951 811.592 112.103 817.35 Q108.283 823.079 101.021 823.079 Q93.7581 823.079 89.9097 817.35 Q86.0903 811.592 86.0903 800.683 Q86.0903 789.746 89.9097 784.017 Q93.7581 778.259 101.021 778.259 Z" fill="#000000" fill-rule="nonzero" fill-opacity="1" /><path clip-path="url(#clip450)" d="M126.223 814.891 L132.328 814.891 L132.328 822.24 L126.223 822.24 L126.223 814.891 Z" fill="#000000" fill-rule="nonzero" fill-opacity="1" /><path clip-path="url(#clip450)" d="M157.56 782.888 Q153.046 782.888 150.76 787.344 Q148.503 791.771 148.503 800.683 Q148.503 809.566 150.76 814.022 Q153.046 818.45 157.56 818.45 Q162.103 818.45 164.36 814.022 Q166.645 809.566 166.645 800.683 Q166.645 791.771 164.36 787.344 Q162.103 782.888 157.56 782.888 M157.56 778.259 Q164.823 778.259 168.642 784.017 Q172.49 789.746 172.49 800.683 Q172.49 811.592 168.642 817.35 Q164.823 823.079 157.56 823.079 Q150.297 823.079 146.449 817.35 Q142.629 811.592 142.629 800.683 Q142.629 789.746 146.449 784.017 Q150.297 778.259 157.56 778.259 Z" fill="#000000" fill-rule="nonzero" fill-opacity="1" /><path clip-path="url(#clip450)" d="M53.0754 497.902 L62.624 497.902 L62.624 464.945 L52.2363 467.029 L52.2363 461.705 L62.5661 459.621 L68.411 459.621 L68.411 497.902 L77.9596 497.902 L77.9596 502.821 L53.0754 502.821 L53.0754 497.902 Z" fill="#000000" fill-rule="nonzero" fill-opacity="1" /><path clip-path="url(#clip450)" d="M102.265 463.47 Q97.7511 463.47 95.4653 467.926 Q93.2083 472.353 93.2083 481.265 Q93.2083 490.148 95.4653 494.604 Q97.7511 499.031 102.265 499.031 Q106.808 499.031 109.065 494.604 Q111.351 490.148 111.351 481.265 Q111.351 472.353 109.065 467.926 Q106.808 463.47 102.265 463.47 M102.265 458.84 Q109.528 458.84 113.347 464.598 Q117.195 470.327 117.195 481.265 Q117.195 492.173 113.347 497.931 Q109.528 503.66 102.265 503.66 Q95.0023 503.66 91.1539 497.931 Q87.3345 492.173 87.3345 481.265 Q87.3345 470.327 91.1539 464.598 Q95.0023 458.84 102.265 458.84 Z" fill="#000000" fill-rule="nonzero" fill-opacity="1" /><path clip-path="url(#clip450)" d="M127.467 495.472 L133.573 495.472 L133.573 502.821 L127.467 502.821 L127.467 495.472 Z" fill="#000000" fill-rule="nonzero" fill-opacity="1" /><path clip-path="url(#clip450)" d="M146.362 459.621 L169.307 459.621 L169.307 464.54 L151.715 464.54 L151.715 475.13 Q152.988 474.696 154.261 474.494 Q155.534 474.262 156.808 474.262 Q164.041 474.262 168.266 478.226 Q172.49 482.191 172.49 488.961 Q172.49 495.935 168.15 499.812 Q163.81 503.66 155.911 503.66 Q153.191 503.66 150.355 503.197 Q147.548 502.734 144.539 501.808 L144.539 495.935 Q147.143 497.352 149.921 498.047 Q152.699 498.741 155.795 498.741 Q160.801 498.741 163.723 496.108 Q166.645 493.475 166.645 488.961 Q166.645 484.447 163.723 481.814 Q160.801 479.181 155.795 479.181 Q153.451 479.181 151.107 479.702 Q148.793 480.223 146.362 481.322 L146.362 459.621 Z" fill="#000000" fill-rule="nonzero" fill-opacity="1" /><path clip-path="url(#clip450)" d="M51.8312 178.483 L61.3798 178.483 L61.3798 145.526 L50.9921 147.61 L50.9921 142.286 L61.3219 140.202 L67.1668 140.202 L67.1668 178.483 L76.7154 178.483 L76.7154 183.402 L51.8312 183.402 L51.8312 178.483 Z" fill="#000000" fill-rule="nonzero" fill-opacity="1" /><path clip-path="url(#clip450)" d="M89.5336 178.483 L99.0821 178.483 L99.0821 145.526 L88.6945 147.61 L88.6945 142.286 L99.0243 140.202 L104.869 140.202 L104.869 178.483 L114.418 178.483 L114.418 183.402 L89.5336 183.402 L89.5336 178.483 Z" fill="#000000" fill-rule="nonzero" fill-opacity="1" /><path clip-path="url(#clip450)" d="M126.223 176.053 L132.328 176.053 L132.328 183.402 L126.223 183.402 L126.223 176.053 Z" fill="#000000" fill-rule="nonzero" fill-opacity="1" /><path clip-path="url(#clip450)" d="M157.56 144.051 Q153.046 144.051 150.76 148.507 Q148.503 152.934 148.503 161.846 Q148.503 170.729 150.76 175.185 Q153.046 179.612 157.56 179.612 Q162.103 179.612 164.36 175.185 Q166.645 170.729 166.645 161.846 Q166.645 152.934 164.36 148.507 Q162.103 144.051 157.56 144.051 M157.56 139.421 Q164.823 139.421 168.642 145.179 Q172.49 150.908 172.49 161.846 Q172.49 172.754 168.642 178.512 Q164.823 184.241 157.56 184.241 Q150.297 184.241 146.449 178.512 Q142.629 172.754 142.629 161.846 Q142.629 150.908 146.449 145.179 Q150.297 139.421 157.56 139.421 Z" fill="#000000" fill-rule="nonzero" fill-opacity="1" /><path clip-path="url(#clip450)" d="M1051.75 20.1573 L1040.65 50.2555 L1062.89 50.2555 L1051.75 20.1573 M1047.13 12.096 L1056.41 12.096 L1079.46 72.576 L1070.95 72.576 L1065.44 57.061 L1038.18 57.061 L1032.67 72.576 L1024.04 72.576 L1047.13 12.096 Z" fill="#000000" fill-rule="nonzero" fill-opacity="1" /><path clip-path="url(#clip450)" d="M1120.53 49.9314 Q1120.53 41.7081 1117.13 37.0496 Q1113.77 32.3505 1107.85 32.3505 Q1101.94 32.3505 1098.53 37.0496 Q1095.17 41.7081 1095.17 49.9314 Q1095.17 58.1548 1098.53 62.8538 Q1101.94 67.5124 1107.85 67.5124 Q1113.77 67.5124 1117.13 62.8538 Q1120.53 58.1548 1120.53 49.9314 M1095.17 34.0924 Q1097.52 30.0415 1101.09 28.0971 Q1104.69 26.1121 1109.67 26.1121 Q1117.94 26.1121 1123.08 32.6746 Q1128.27 39.2371 1128.27 49.9314 Q1128.27 60.6258 1123.08 67.1883 Q1117.94 73.7508 1109.67 73.7508 Q1104.69 73.7508 1101.09 71.8063 Q1097.52 69.8214 1095.17 65.7705 L1095.17 72.576 L1087.68 72.576 L1087.68 9.54393 L1095.17 9.54393 L1095.17 34.0924 Z" fill="#000000" fill-rule="nonzero" fill-opacity="1" /><path clip-path="url(#clip450)" d="M1169.55 28.5427 L1169.55 35.5912 Q1166.39 33.9709 1162.98 33.1607 Q1159.58 32.3505 1155.94 32.3505 Q1150.39 32.3505 1147.59 34.0519 Q1144.84 35.7533 1144.84 39.156 Q1144.84 41.7486 1146.82 43.2475 Q1148.81 44.7058 1154.8 46.0426 L1157.35 46.6097 Q1165.29 48.3111 1168.62 51.4303 Q1171.98 54.509 1171.98 60.0587 Q1171.98 66.3781 1166.95 70.0644 Q1161.97 73.7508 1153.22 73.7508 Q1149.58 73.7508 1145.61 73.0216 Q1141.68 72.3329 1137.3 70.9151 L1137.3 63.2184 Q1141.43 65.3654 1145.44 66.4591 Q1149.45 67.5124 1153.38 67.5124 Q1158.65 67.5124 1161.49 65.73 Q1164.32 63.9071 1164.32 60.6258 Q1164.32 57.5877 1162.26 55.9673 Q1160.23 54.3469 1153.3 52.8481 L1150.71 52.2405 Q1143.78 50.7821 1140.7 47.7845 Q1137.63 44.7463 1137.63 39.4801 Q1137.63 33.0797 1142.16 29.5959 Q1146.7 26.1121 1155.05 26.1121 Q1159.18 26.1121 1162.82 26.7198 Q1166.47 27.3274 1169.55 28.5427 Z" fill="#000000" fill-rule="nonzero" fill-opacity="1" /><path clip-path="url(#clip450)" d="M1191.22 14.324 L1191.22 27.2059 L1206.57 27.2059 L1206.57 32.9987 L1191.22 32.9987 L1191.22 57.6282 Q1191.22 63.1779 1192.72 64.7578 Q1194.26 66.3376 1198.92 66.3376 L1206.57 66.3376 L1206.57 72.576 L1198.92 72.576 Q1190.29 72.576 1187.01 69.3758 Q1183.73 66.1351 1183.73 57.6282 L1183.73 32.9987 L1178.26 32.9987 L1178.26 27.2059 L1183.73 27.2059 L1183.73 14.324 L1191.22 14.324 Z" fill="#000000" fill-rule="nonzero" fill-opacity="1" /><path clip-path="url(#clip450)" d="M1242.67 34.1734 Q1241.41 33.4443 1239.91 33.1202 Q1238.45 32.7556 1236.67 32.7556 Q1230.35 32.7556 1226.95 36.8875 Q1223.59 40.9789 1223.59 48.6757 L1223.59 72.576 L1216.09 72.576 L1216.09 27.2059 L1223.59 27.2059 L1223.59 34.2544 Q1225.94 30.1225 1229.7 28.1376 Q1233.47 26.1121 1238.86 26.1121 Q1239.63 26.1121 1240.56 26.2337 Q1241.49 26.3147 1242.63 26.5172 L1242.67 34.1734 Z" fill="#000000" fill-rule="nonzero" fill-opacity="1" /><path clip-path="url(#clip450)" d="M1271.1 49.7694 Q1262.07 49.7694 1258.59 51.8354 Q1255.1 53.9013 1255.1 58.8839 Q1255.1 62.8538 1257.69 65.2034 Q1260.33 67.5124 1264.82 67.5124 Q1271.02 67.5124 1274.75 63.1374 Q1278.52 58.7219 1278.52 51.4303 L1278.52 49.7694 L1271.1 49.7694 M1285.97 46.6907 L1285.97 72.576 L1278.52 72.576 L1278.52 65.6895 Q1275.96 69.8214 1272.16 71.8063 Q1268.35 73.7508 1262.84 73.7508 Q1255.87 73.7508 1251.74 69.8619 Q1247.65 65.9325 1247.65 59.3701 Q1247.65 51.7138 1252.75 47.825 Q1257.9 43.9361 1268.07 43.9361 L1278.52 43.9361 L1278.52 43.2069 Q1278.52 38.0623 1275.11 35.2672 Q1271.75 32.4315 1265.63 32.4315 Q1261.75 32.4315 1258.06 33.3632 Q1254.37 34.295 1250.97 36.1584 L1250.97 29.2718 Q1255.06 27.692 1258.91 26.9223 Q1262.76 26.1121 1266.4 26.1121 Q1276.25 26.1121 1281.11 31.2163 Q1285.97 36.3204 1285.97 46.6907 Z" fill="#000000" fill-rule="nonzero" fill-opacity="1" /><path clip-path="url(#clip450)" d="M1333.97 28.9478 L1333.97 35.9153 Q1330.81 34.1734 1327.61 33.3227 Q1324.45 32.4315 1321.21 32.4315 Q1313.96 32.4315 1309.95 37.0496 Q1305.94 41.6271 1305.94 49.9314 Q1305.94 58.2358 1309.95 62.8538 Q1313.96 67.4314 1321.21 67.4314 Q1324.45 67.4314 1327.61 66.5807 Q1330.81 65.6895 1333.97 63.9476 L1333.97 70.8341 Q1330.85 72.2924 1327.49 73.0216 Q1324.17 73.7508 1320.4 73.7508 Q1310.15 73.7508 1304.12 67.3098 Q1298.08 60.8689 1298.08 49.9314 Q1298.08 38.832 1304.16 32.472 Q1310.28 26.1121 1320.89 26.1121 Q1324.33 26.1121 1327.61 26.8413 Q1330.89 27.5299 1333.97 28.9478 Z" fill="#000000" fill-rule="nonzero" fill-opacity="1" /><path clip-path="url(#clip450)" d="M1354.31 14.324 L1354.31 27.2059 L1369.66 27.2059 L1369.66 32.9987 L1354.31 32.9987 L1354.31 57.6282 Q1354.31 63.1779 1355.81 64.7578 Q1357.35 66.3376 1362.01 66.3376 L1369.66 66.3376 L1369.66 72.576 L1362.01 72.576 Q1353.38 72.576 1350.1 69.3758 Q1346.81 66.1351 1346.81 57.6282 L1346.81 32.9987 L1341.35 32.9987 L1341.35 27.2059 L1346.81 27.2059 L1346.81 14.324 L1354.31 14.324 Z" fill="#000000" fill-rule="nonzero" fill-opacity="1" /><path clip-path="url(#clip450)" d="M1379.47 27.2059 L1386.92 27.2059 L1386.92 72.576 L1379.47 72.576 L1379.47 27.2059 M1379.47 9.54393 L1386.92 9.54393 L1386.92 18.9825 L1379.47 18.9825 L1379.47 9.54393 Z" fill="#000000" fill-rule="nonzero" fill-opacity="1" /><path clip-path="url(#clip450)" d="M1420.1 32.4315 Q1414.1 32.4315 1410.62 37.1306 Q1407.13 41.7891 1407.13 49.9314 Q1407.13 58.0738 1410.58 62.7728 Q1414.06 67.4314 1420.1 67.4314 Q1426.05 67.4314 1429.53 62.7323 Q1433.02 58.0333 1433.02 49.9314 Q1433.02 41.8701 1429.53 37.1711 Q1426.05 32.4315 1420.1 32.4315 M1420.1 26.1121 Q1429.82 26.1121 1435.37 32.4315 Q1440.92 38.7509 1440.92 49.9314 Q1440.92 61.0714 1435.37 67.4314 Q1429.82 73.7508 1420.1 73.7508 Q1410.33 73.7508 1404.78 67.4314 Q1399.27 61.0714 1399.27 49.9314 Q1399.27 38.7509 1404.78 32.4315 Q1410.33 26.1121 1420.1 26.1121 Z" fill="#000000" fill-rule="nonzero" fill-opacity="1" /><path clip-path="url(#clip450)" d="M1490.99 45.1919 L1490.99 72.576 L1483.53 72.576 L1483.53 45.4349 Q1483.53 38.994 1481.02 35.7938 Q1478.51 32.5936 1473.49 32.5936 Q1467.45 32.5936 1463.97 36.4419 Q1460.48 40.2903 1460.48 46.9338 L1460.48 72.576 L1452.99 72.576 L1452.99 27.2059 L1460.48 27.2059 L1460.48 34.2544 Q1463.16 30.163 1466.76 28.1376 Q1470.41 26.1121 1475.15 26.1121 Q1482.97 26.1121 1486.98 30.9732 Q1490.99 35.7938 1490.99 45.1919 Z" fill="#000000" fill-rule="nonzero" fill-opacity="1" /><path clip-path="url(#clip450)" d="M1534.78 28.5427 L1534.78 35.5912 Q1531.62 33.9709 1528.21 33.1607 Q1524.81 32.3505 1521.17 32.3505 Q1515.62 32.3505 1512.82 34.0519 Q1510.07 35.7533 1510.07 39.156 Q1510.07 41.7486 1512.05 43.2475 Q1514.04 44.7058 1520.03 46.0426 L1522.58 46.6097 Q1530.52 48.3111 1533.85 51.4303 Q1537.21 54.509 1537.21 60.0587 Q1537.21 66.3781 1532.18 70.0644 Q1527.2 73.7508 1518.45 73.7508 Q1514.81 73.7508 1510.84 73.0216 Q1506.91 72.3329 1502.53 70.9151 L1502.53 63.2184 Q1506.66 65.3654 1510.67 66.4591 Q1514.68 67.5124 1518.61 67.5124 Q1523.88 67.5124 1526.72 65.73 Q1529.55 63.9071 1529.55 60.6258 Q1529.55 57.5877 1527.49 55.9673 Q1525.46 54.3469 1518.53 52.8481 L1515.94 52.2405 Q1509.01 50.7821 1505.93 47.7845 Q1502.86 44.7463 1502.86 39.4801 Q1502.86 33.0797 1507.39 29.5959 Q1511.93 26.1121 1520.27 26.1121 Q1524.41 26.1121 1528.05 26.7198 Q1531.7 27.3274 1534.78 28.5427 Z" fill="#000000" fill-rule="nonzero" fill-opacity="1" /><path clip-path="url(#clip452)" d="M641.785 816.323 L643.325 847.65 L646.399 878.864 L651.001 909.89 L657.12 940.652 L664.741 971.077 L673.846 1001.09 L684.413 1030.62 L696.416 1059.6 L709.826 1087.96 L724.611 1115.62 L740.736 1142.52 L758.162 1168.6 L776.846 1193.79 L796.744 1218.04 L817.807 1241.28 L839.986 1263.46 L863.226 1284.52 L887.472 1304.42 L912.664 1323.1 L938.744 1340.53 L965.646 1356.65 L993.308 1371.44 L1021.66 1384.85 L1050.64 1396.85 L1080.17 1407.42 L1110.19 1416.52 L1140.61 1424.14 L1171.37 1430.26 L1202.4 1434.86 L1233.61 1437.94 L1264.94 1439.48 L1296.31 1439.48 L1327.63 1437.94 L1358.85 1434.86 L1389.87 1430.26 L1420.64 1424.14 L1451.06 1416.52 L1481.08 1407.42 L1510.61 1396.85 L1539.58 1384.85 L1567.94 1371.44 L1595.6 1356.65 L1622.5 1340.53 L1648.58 1323.1 L1673.77 1304.42 L1698.02 1284.52 L1721.26 1263.46 L1743.44 1241.28 L1764.5 1218.04 L1784.4 1193.79 L1803.08 1168.6 L1820.51 1142.52 L1836.63 1115.62 L1851.42 1087.96 L1864.83 1059.6 L1876.83 1030.62 L1887.4 1001.09 L1896.51 971.077 L1904.13 940.652 L1910.25 909.89 L1914.85 878.864 L1917.92 847.65 L1919.46 816.323 L1919.46 784.957 L1917.92 753.63 L1914.85 722.416 L1910.25 691.39 L1904.13 660.628 L1896.51 630.203 L1887.4 600.188 L1876.83 570.656 L1864.83 541.679 L1851.42 513.325 L1836.63 485.663 L1820.51 458.76 L1803.08 432.681 L1784.4 407.489 L1764.5 383.243 L1743.44 360.003 L1721.26 337.824 L1698.02 316.761 L1673.77 296.863 L1648.58 278.179 L1622.5 260.753 L1595.6 244.628 L1567.94 229.843 L1539.58 216.432 L1510.61 204.43 L1481.08 193.863 L1451.06 184.758 L1420.64 177.137 L1389.87 171.018 L1358.85 166.416 L1327.63 163.341 L1296.31 161.802 L1264.94 161.802 L1233.61 163.341 L1202.4 166.416 L1171.37 171.018 L1140.61 177.137 L1110.19 184.758 L1080.17 193.863 L1050.64 204.43 L1021.66 216.432 L993.308 229.843 L965.646 244.628 L938.744 260.753 L912.664 278.179 L887.472 296.863 L863.226 316.761 L839.986 337.824 L817.807 360.003 L796.744 383.243 L776.846 407.489 L758.162 432.681 L740.736 458.76 L724.611 485.663 L709.826 513.325 L696.416 541.679 L684.413 570.656 L673.846 600.188 L664.741 630.203 L657.12 660.628 L651.001 691.39 L646.399 722.416 L643.325 753.63 L641.785 784.957 L641.785 816.323 L641.785 816.323  Z" fill="#ffff00" fill-rule="evenodd" fill-opacity="1"/>
<polyline clip-path="url(#clip452)" style="stroke:#000000; stroke-linecap:round; stroke-linejoin:round; stroke-width:4; stroke-opacity:1; fill:none" points="641.785,816.323 643.325,847.65 646.399,878.864 651.001,909.89 657.12,940.652 664.741,971.077 673.846,1001.09 684.413,1030.62 696.416,1059.6 709.826,1087.96 724.611,1115.62 740.736,1142.52 758.162,1168.6 776.846,1193.79 796.744,1218.04 817.807,1241.28 839.986,1263.46 863.226,1284.52 887.472,1304.42 912.664,1323.1 938.744,1340.53 965.646,1356.65 993.308,1371.44 1021.66,1384.85 1050.64,1396.85 1080.17,1407.42 1110.19,1416.52 1140.61,1424.14 1171.37,1430.26 1202.4,1434.86 1233.61,1437.94 1264.94,1439.48 1296.31,1439.48 1327.63,1437.94 1358.85,1434.86 1389.87,1430.26 1420.64,1424.14 1451.06,1416.52 1481.08,1407.42 1510.61,1396.85 1539.58,1384.85 1567.94,1371.44 1595.6,1356.65 1622.5,1340.53 1648.58,1323.1 1673.77,1304.42 1698.02,1284.52 1721.26,1263.46 1743.44,1241.28 1764.5,1218.04 1784.4,1193.79 1803.08,1168.6 1820.51,1142.52 1836.63,1115.62 1851.42,1087.96 1864.83,1059.6 1876.83,1030.62 1887.4,1001.09 1896.51,971.077 1904.13,940.652 1910.25,909.89 1914.85,878.864 1917.92,847.65 1919.46,816.323 1919.46,784.957 1917.92,753.63 1914.85,722.416 1910.25,691.39 1904.13,660.628 1896.51,630.203 1887.4,600.188 1876.83,570.656 1864.83,541.679 1851.42,513.325 1836.63,485.663 1820.51,458.76 1803.08,432.681 1784.4,407.489 1764.5,383.243 1743.44,360.003 1721.26,337.824 1698.02,316.761 1673.77,296.863 1648.58,278.179 1622.5,260.753 1595.6,244.628 1567.94,229.843 1539.58,216.432 1510.61,204.43 1481.08,193.863 1451.06,184.758 1420.64,177.137 1389.87,171.018 1358.85,166.416 1327.63,163.341 1296.31,161.802 1264.94,161.802 1233.61,163.341 1202.4,166.416 1171.37,171.018 1140.61,177.137 1110.19,184.758 1080.17,193.863 1050.64,204.43 1021.66,216.432 993.308,229.843 965.646,244.628 938.744,260.753 912.664,278.179 887.472,296.863 863.226,316.761 839.986,337.824 817.807,360.003 796.744,383.243 776.846,407.489 758.162,432.681 740.736,458.76 724.611,485.663 709.826,513.325 696.416,541.679 684.413,570.656 673.846,600.188 664.741,630.203 657.12,660.628 651.001,691.39 646.399,722.416 643.325,753.63 641.785,784.957 641.785,816.323 "/>
</svg>
