<?xml version="1.0" encoding="utf-8"?>
<svg xmlns="http://www.w3.org/2000/svg" xmlns:xlink="http://www.w3.org/1999/xlink" width="600" height="400" viewBox="0 0 2400 1600">
<defs>
  <clipPath id="clip470">
    <rect x="0" y="0" width="2400" height="1600"/>
  </clipPath>
</defs>
<path clip-path="url(#clip470)" d="M0 1600 L2400 1600 L2400 0 L0 0  Z" fill="#ffffff" fill-rule="evenodd" fill-opacity="1"/>
<defs>
  <clipPath id="clip471">
    <rect x="480" y="0" width="1681" height="1600"/>
  </clipPath>
</defs>
<path clip-path="url(#clip470)" d="M201.835 1477.81 L2352.76 1477.81 L2352.76 123.472 L201.835 123.472  Z" fill="#ffffff" fill-rule="evenodd" fill-opacity="1"/>
<defs>
  <clipPath id="clip472">
    <rect x="201" y="123" width="2152" height="1355"/>
  </clipPath>
</defs>
<polyline clip-path="url(#clip472)" style="stroke:#000000; stroke-linecap:round; stroke-linejoin:round; stroke-width:2; stroke-opacity:0.1; fill:none" points="381.529,1477.81 381.529,123.472 "/>
<polyline clip-path="url(#clip472)" style="stroke:#000000; stroke-linecap:round; stroke-linejoin:round; stroke-width:2; stroke-opacity:0.1; fill:none" points="854.642,1477.81 854.642,123.472 "/>
<polyline clip-path="url(#clip472)" style="stroke:#000000; stroke-linecap:round; stroke-linejoin:round; stroke-width:2; stroke-opacity:0.1; fill:none" points="1327.76,1477.81 1327.76,123.472 "/>
<polyline clip-path="url(#clip472)" style="stroke:#000000; stroke-linecap:round; stroke-linejoin:round; stroke-width:2; stroke-opacity:0.1; fill:none" points="1800.87,1477.81 1800.87,123.472 "/>
<polyline clip-path="url(#clip472)" style="stroke:#000000; stroke-linecap:round; stroke-linejoin:round; stroke-width:2; stroke-opacity:0.1; fill:none" points="2273.98,1477.81 2273.98,123.472 "/>
<polyline clip-path="url(#clip472)" style="stroke:#000000; stroke-linecap:round; stroke-linejoin:round; stroke-width:2; stroke-opacity:0.1; fill:none" points="201.835,1424.52 2352.76,1424.52 "/>
<polyline clip-path="url(#clip472)" style="stroke:#000000; stroke-linecap:round; stroke-linejoin:round; stroke-width:2; stroke-opacity:0.1; fill:none" points="201.835,1187.96 2352.76,1187.96 "/>
<polyline clip-path="url(#clip472)" style="stroke:#000000; stroke-linecap:round; stroke-linejoin:round; stroke-width:2; stroke-opacity:0.1; fill:none" points="201.835,951.403 2352.76,951.403 "/>
<polyline clip-path="url(#clip472)" style="stroke:#000000; stroke-linecap:round; stroke-linejoin:round; stroke-width:2; stroke-opacity:0.1; fill:none" points="201.835,714.846 2352.76,714.846 "/>
<polyline clip-path="url(#clip472)" style="stroke:#000000; stroke-linecap:round; stroke-linejoin:round; stroke-width:2; stroke-opacity:0.1; fill:none" points="201.835,478.289 2352.76,478.289 "/>
<polyline clip-path="url(#clip472)" style="stroke:#000000; stroke-linecap:round; stroke-linejoin:round; stroke-width:2; stroke-opacity:0.1; fill:none" points="201.835,241.732 2352.76,241.732 "/>
<polyline clip-path="url(#clip470)" style="stroke:#000000; stroke-linecap:round; stroke-linejoin:round; stroke-width:4; stroke-opacity:1; fill:none" points="201.835,1477.81 2352.76,1477.81 "/>
<polyline clip-path="url(#clip470)" style="stroke:#000000; stroke-linecap:round; stroke-linejoin:round; stroke-width:4; stroke-opacity:1; fill:none" points="381.529,1477.81 381.529,1458.91 "/>
<polyline clip-path="url(#clip470)" style="stroke:#000000; stroke-linecap:round; stroke-linejoin:round; stroke-width:4; stroke-opacity:1; fill:none" points="854.642,1477.81 854.642,1458.91 "/>
<polyline clip-path="url(#clip470)" style="stroke:#000000; stroke-linecap:round; stroke-linejoin:round; stroke-width:4; stroke-opacity:1; fill:none" points="1327.76,1477.81 1327.76,1458.91 "/>
<polyline clip-path="url(#clip470)" style="stroke:#000000; stroke-linecap:round; stroke-linejoin:round; stroke-width:4; stroke-opacity:1; fill:none" points="1800.87,1477.81 1800.87,1458.91 "/>
<polyline clip-path="url(#clip470)" style="stroke:#000000; stroke-linecap:round; stroke-linejoin:round; stroke-width:4; stroke-opacity:1; fill:none" points="2273.98,1477.81 2273.98,1458.91 "/>
<path clip-path="url(#clip470)" d="M324.107 1529.97 L361.202 1529.97 L361.202 1534.89 L324.107 1534.89 L324.107 1529.97 Z" fill="#000000" fill-rule="nonzero" fill-opacity="1" /><path clip-path="url(#clip470)" d="M378.852 1546.09 L399.251 1546.09 L399.251 1551.01 L371.821 1551.01 L371.821 1546.09 Q375.149 1542.65 380.878 1536.86 Q386.636 1531.04 388.111 1529.36 Q390.918 1526.21 392.018 1524.04 Q393.146 1521.84 393.146 1519.73 Q393.146 1516.29 390.716 1514.12 Q388.314 1511.95 384.437 1511.95 Q381.688 1511.95 378.621 1512.9 Q375.583 1513.86 372.11 1515.79 L372.11 1509.89 Q375.64 1508.47 378.708 1507.75 Q381.775 1507.03 384.321 1507.03 Q391.034 1507.03 395.027 1510.38 Q399.02 1513.74 399.02 1519.35 Q399.02 1522.01 398.007 1524.42 Q397.023 1526.79 394.39 1530.03 Q393.667 1530.87 389.79 1534.89 Q385.912 1538.88 378.852 1546.09 Z" fill="#000000" fill-rule="nonzero" fill-opacity="1" /><path clip-path="url(#clip470)" d="M424.02 1511.66 Q419.506 1511.66 417.22 1516.11 Q414.963 1520.54 414.963 1529.45 Q414.963 1538.33 417.22 1542.79 Q419.506 1547.22 424.02 1547.22 Q428.563 1547.22 430.82 1542.79 Q433.105 1538.33 433.105 1529.45 Q433.105 1520.54 430.82 1516.11 Q428.563 1511.66 424.02 1511.66 M424.02 1507.03 Q431.283 1507.03 435.102 1512.78 Q438.95 1518.51 438.95 1529.45 Q438.95 1540.36 435.102 1546.12 Q431.283 1551.85 424.02 1551.85 Q416.757 1551.85 412.909 1546.12 Q409.089 1540.36 409.089 1529.45 Q409.089 1518.51 412.909 1512.78 Q416.757 1507.03 424.02 1507.03 Z" fill="#000000" fill-rule="nonzero" fill-opacity="1" /><path clip-path="url(#clip470)" d="M797.221 1529.97 L834.316 1529.97 L834.316 1534.89 L797.221 1534.89 L797.221 1529.97 Z" fill="#000000" fill-rule="nonzero" fill-opacity="1" /><path clip-path="url(#clip470)" d="M847.944 1546.09 L857.493 1546.09 L857.493 1513.13 L847.105 1515.22 L847.105 1509.89 L857.435 1507.81 L863.28 1507.81 L863.28 1546.09 L872.828 1546.09 L872.828 1551.01 L847.944 1551.01 L847.944 1546.09 Z" fill="#000000" fill-rule="nonzero" fill-opacity="1" /><path clip-path="url(#clip470)" d="M897.134 1511.66 Q892.62 1511.66 890.334 1516.11 Q888.077 1520.54 888.077 1529.45 Q888.077 1538.33 890.334 1542.79 Q892.62 1547.22 897.134 1547.22 Q901.676 1547.22 903.933 1542.79 Q906.219 1538.33 906.219 1529.45 Q906.219 1520.54 903.933 1516.11 Q901.676 1511.66 897.134 1511.66 M897.134 1507.03 Q904.396 1507.03 908.216 1512.78 Q912.064 1518.51 912.064 1529.45 Q912.064 1540.36 908.216 1546.12 Q904.396 1551.85 897.134 1551.85 Q889.871 1551.85 886.022 1546.12 Q882.203 1540.36 882.203 1529.45 Q882.203 1518.51 886.022 1512.78 Q889.871 1507.03 897.134 1507.03 Z" fill="#000000" fill-rule="nonzero" fill-opacity="1" /><path clip-path="url(#clip470)" d="M1327.76 1511.66 Q1323.24 1511.66 1320.96 1516.11 Q1318.7 1520.54 1318.7 1529.45 Q1318.7 1538.33 1320.96 1542.79 Q1323.24 1547.22 1327.76 1547.22 Q1332.3 1547.22 1334.56 1542.79 Q1336.84 1538.33 1336.84 1529.45 Q1336.84 1520.54 1334.56 1516.11 Q1332.3 1511.66 1327.76 1511.66 M1327.76 1507.03 Q1335.02 1507.03 1338.84 1512.78 Q1342.69 1518.51 1342.69 1529.45 Q1342.69 1540.36 1338.84 1546.12 Q1335.02 1551.85 1327.76 1551.85 Q1320.49 1551.85 1316.65 1546.12 Q1312.83 1540.36 1312.83 1529.45 Q1312.83 1518.51 1316.65 1512.78 Q1320.49 1507.03 1327.76 1507.03 Z" fill="#000000" fill-rule="nonzero" fill-opacity="1" /><path clip-path="url(#clip470)" d="M1769.23 1546.09 L1778.78 1546.09 L1778.78 1513.13 L1768.39 1515.22 L1768.39 1509.89 L1778.72 1507.81 L1784.56 1507.81 L1784.56 1546.09 L1794.11 1546.09 L1794.11 1551.01 L1769.23 1551.01 L1769.23 1546.09 Z" fill="#000000" fill-rule="nonzero" fill-opacity="1" /><path clip-path="url(#clip470)" d="M1818.42 1511.66 Q1813.91 1511.66 1811.62 1516.11 Q1809.36 1520.54 1809.36 1529.45 Q1809.36 1538.33 1811.62 1542.79 Q1813.91 1547.22 1818.42 1547.22 Q1822.96 1547.22 1825.22 1542.79 Q1827.5 1538.33 1827.5 1529.45 Q1827.5 1520.54 1825.22 1516.11 Q1822.96 1511.66 1818.42 1511.66 M1818.42 1507.03 Q1825.68 1507.03 1829.5 1512.78 Q1833.35 1518.51 1833.35 1529.45 Q1833.35 1540.36 1829.5 1546.12 Q1825.68 1551.85 1818.42 1551.85 Q1811.16 1551.85 1807.31 1546.12 Q1803.49 1540.36 1803.49 1529.45 Q1803.49 1518.51 1807.31 1512.78 Q1811.16 1507.03 1818.42 1507.03 Z" fill="#000000" fill-rule="nonzero" fill-opacity="1" /><path clip-path="url(#clip470)" d="M2247.45 1546.09 L2267.85 1546.09 L2267.85 1551.01 L2240.42 1551.01 L2240.42 1546.09 Q2243.75 1542.65 2249.48 1536.86 Q2255.23 1531.04 2256.71 1529.36 Q2259.52 1526.21 2260.62 1524.04 Q2261.74 1521.84 2261.74 1519.73 Q2261.74 1516.29 2259.31 1514.12 Q2256.91 1511.95 2253.03 1511.95 Q2250.29 1511.95 2247.22 1512.9 Q2244.18 1513.86 2240.71 1515.79 L2240.71 1509.89 Q2244.24 1508.47 2247.31 1507.75 Q2250.37 1507.03 2252.92 1507.03 Q2259.63 1507.03 2263.62 1510.38 Q2267.62 1513.74 2267.62 1519.35 Q2267.62 1522.01 2266.61 1524.42 Q2265.62 1526.79 2262.99 1530.03 Q2262.26 1530.87 2258.39 1534.89 Q2254.51 1538.88 2247.45 1546.09 Z" fill="#000000" fill-rule="nonzero" fill-opacity="1" /><path clip-path="url(#clip470)" d="M2292.62 1511.66 Q2288.1 1511.66 2285.82 1516.11 Q2283.56 1520.54 2283.56 1529.45 Q2283.56 1538.33 2285.82 1542.79 Q2288.1 1547.22 2292.62 1547.22 Q2297.16 1547.22 2299.42 1542.79 Q2301.7 1538.33 2301.7 1529.45 Q2301.7 1520.54 2299.42 1516.11 Q2297.16 1511.66 2292.62 1511.66 M2292.62 1507.03 Q2299.88 1507.03 2303.7 1512.78 Q2307.55 1518.51 2307.55 1529.45 Q2307.55 1540.36 2303.7 1546.12 Q2299.88 1551.85 2292.62 1551.85 Q2285.35 1551.85 2281.51 1546.12 Q2277.69 1540.36 2277.69 1529.45 Q2277.69 1518.51 2281.51 1512.78 Q2285.35 1507.03 2292.62 1507.03 Z" fill="#000000" fill-rule="nonzero" fill-opacity="1" /><polyline clip-path="url(#clip470)" style="stroke:#000000; stroke-linecap:round; stroke-linejoin:round; stroke-width:4; stroke-opacity:1; fill:none" points="201.835,1477.81 201.835,123.472 "/>
<polyline clip-path="url(#clip470)" style="stroke:#000000; stroke-linecap:round; stroke-linejoin:round; stroke-width:4; stroke-opacity:1; fill:none" points="201.835,1424.52 220.733,1424.52 "/>
<polyline clip-path="url(#clip470)" style="stroke:#000000; stroke-linecap:round; stroke-linejoin:round; stroke-width:4; stroke-opacity:1; fill:none" points="201.835,1187.96 220.733,1187.96 "/>
<polyline clip-path="url(#clip470)" style="stroke:#000000; stroke-linecap:round; stroke-linejoin:round; stroke-width:4; stroke-opacity:1; fill:none" points="201.835,951.403 220.733,951.403 "/>
<polyline clip-path="url(#clip470)" style="stroke:#000000; stroke-linecap:round; stroke-linejoin:round; stroke-width:4; stroke-opacity:1; fill:none" points="201.835,714.846 220.733,714.846 "/>
<polyline clip-path="url(#clip470)" style="stroke:#000000; stroke-linecap:round; stroke-linejoin:round; stroke-width:4; stroke-opacity:1; fill:none" points="201.835,478.289 220.733,478.289 "/>
<polyline clip-path="url(#clip470)" style="stroke:#000000; stroke-linecap:round; stroke-linejoin:round; stroke-width:4; stroke-opacity:1; fill:none" points="201.835,241.732 220.733,241.732 "/>
<path clip-path="url(#clip470)" d="M50.9921 1425.08 L88.0868 1425.08 L88.0868 1430 L50.9921 1430 L50.9921 1425.08 Z" fill="#000000" fill-rule="nonzero" fill-opacity="1" /><path clip-path="url(#clip470)" d="M101.715 1441.2 L111.264 1441.2 L111.264 1408.24 L100.876 1410.32 L100.876 1405 L111.206 1402.92 L117.051 1402.92 L117.051 1441.2 L126.599 1441.2 L126.599 1446.12 L101.715 1446.12 L101.715 1441.2 Z" fill="#000000" fill-rule="nonzero" fill-opacity="1" /><path clip-path="url(#clip470)" d="M150.905 1406.76 Q146.391 1406.76 144.105 1411.22 Q141.848 1415.65 141.848 1424.56 Q141.848 1433.44 144.105 1437.9 Q146.391 1442.33 150.905 1442.33 Q155.448 1442.33 157.705 1437.9 Q159.99 1433.44 159.99 1424.56 Q159.99 1415.65 157.705 1411.22 Q155.448 1406.76 150.905 1406.76 M150.905 1402.14 Q158.167 1402.14 161.987 1407.89 Q165.835 1413.62 165.835 1424.56 Q165.835 1435.47 161.987 1441.23 Q158.167 1446.96 150.905 1446.96 Q143.642 1446.96 139.794 1441.23 Q135.974 1435.47 135.974 1424.56 Q135.974 1413.62 139.794 1407.89 Q143.642 1402.14 150.905 1402.14 Z" fill="#000000" fill-rule="nonzero" fill-opacity="1" /><path clip-path="url(#clip470)" d="M89.9387 1188.52 L127.033 1188.52 L127.033 1193.44 L89.9387 1193.44 L89.9387 1188.52 Z" fill="#000000" fill-rule="nonzero" fill-opacity="1" /><path clip-path="url(#clip470)" d="M139.707 1166.36 L162.652 1166.36 L162.652 1171.28 L145.06 1171.28 L145.06 1181.87 Q146.333 1181.43 147.606 1181.23 Q148.879 1181 150.152 1181 Q157.386 1181 161.611 1184.96 Q165.835 1188.93 165.835 1195.7 Q165.835 1202.67 161.495 1206.55 Q157.155 1210.4 149.255 1210.4 Q146.536 1210.4 143.7 1209.94 Q140.893 1209.47 137.884 1208.55 L137.884 1202.67 Q140.488 1204.09 143.266 1204.79 Q146.044 1205.48 149.14 1205.48 Q154.146 1205.48 157.068 1202.85 Q159.99 1200.21 159.99 1195.7 Q159.99 1191.19 157.068 1188.55 Q154.146 1185.92 149.14 1185.92 Q146.796 1185.92 144.452 1186.44 Q142.137 1186.96 139.707 1188.06 L139.707 1166.36 Z" fill="#000000" fill-rule="nonzero" fill-opacity="1" /><path clip-path="url(#clip470)" d="M150.905 933.651 Q146.391 933.651 144.105 938.107 Q141.848 942.534 141.848 951.446 Q141.848 960.329 144.105 964.785 Q146.391 969.212 150.905 969.212 Q155.448 969.212 157.705 964.785 Q159.99 960.329 159.99 951.446 Q159.99 942.534 157.705 938.107 Q155.448 933.651 150.905 933.651 M150.905 929.022 Q158.167 929.022 161.987 934.78 Q165.835 940.509 165.835 951.446 Q165.835 962.355 161.987 968.113 Q158.167 973.842 150.905 973.842 Q143.642 973.842 139.794 968.113 Q135.974 962.355 135.974 951.446 Q135.974 940.509 139.794 934.78 Q143.642 929.022 150.905 929.022 Z" fill="#000000" fill-rule="nonzero" fill-opacity="1" /><path clip-path="url(#clip470)" d="M139.707 693.246 L162.652 693.246 L162.652 698.165 L145.06 698.165 L145.06 708.755 Q146.333 708.321 147.606 708.119 Q148.879 707.887 150.152 707.887 Q157.386 707.887 161.611 711.851 Q165.835 715.815 165.835 722.586 Q165.835 729.559 161.495 733.437 Q157.155 737.285 149.255 737.285 Q146.536 737.285 143.7 736.822 Q140.893 736.359 137.884 735.433 L137.884 729.559 Q140.488 730.977 143.266 731.672 Q146.044 732.366 149.14 732.366 Q154.146 732.366 157.068 729.733 Q159.99 727.1 159.99 722.586 Q159.99 718.072 157.068 715.439 Q154.146 712.806 149.14 712.806 Q146.796 712.806 144.452 713.327 Q142.137 713.848 139.707 714.947 L139.707 693.246 Z" fill="#000000" fill-rule="nonzero" fill-opacity="1" /><path clip-path="url(#clip470)" d="M101.715 494.97 L111.264 494.97 L111.264 462.013 L100.876 464.096 L100.876 458.772 L111.206 456.689 L117.051 456.689 L117.051 494.97 L126.599 494.97 L126.599 499.889 L101.715 499.889 L101.715 494.97 Z" fill="#000000" fill-rule="nonzero" fill-opacity="1" /><path clip-path="url(#clip470)" d="M150.905 460.537 Q146.391 460.537 144.105 464.993 Q141.848 469.421 141.848 478.332 Q141.848 487.216 144.105 491.672 Q146.391 496.099 150.905 496.099 Q155.448 496.099 157.705 491.672 Q159.99 487.216 159.99 478.332 Q159.99 469.421 157.705 464.993 Q155.448 460.537 150.905 460.537 M150.905 455.908 Q158.167 455.908 161.987 461.666 Q165.835 467.395 165.835 478.332 Q165.835 489.241 161.987 494.999 Q158.167 500.728 150.905 500.728 Q143.642 500.728 139.794 494.999 Q135.974 489.241 135.974 478.332 Q135.974 467.395 139.794 461.666 Q143.642 455.908 150.905 455.908 Z" fill="#000000" fill-rule="nonzero" fill-opacity="1" /><path clip-path="url(#clip470)" d="M102.959 258.413 L112.508 258.413 L112.508 225.456 L102.12 227.54 L102.12 222.216 L112.45 220.132 L118.295 220.132 L118.295 258.413 L127.844 258.413 L127.844 263.332 L102.959 263.332 L102.959 258.413 Z" fill="#000000" fill-rule="nonzero" fill-opacity="1" /><path clip-path="url(#clip470)" d="M139.707 220.132 L162.652 220.132 L162.652 225.051 L145.06 225.051 L145.06 235.641 Q146.333 235.207 147.606 235.005 Q148.879 234.773 150.152 234.773 Q157.386 234.773 161.611 238.737 Q165.835 242.702 165.835 249.472 Q165.835 256.446 161.495 260.323 Q157.155 264.171 149.255 264.171 Q146.536 264.171 143.7 263.708 Q140.893 263.245 137.884 262.32 L137.884 256.446 Q140.488 257.864 143.266 258.558 Q146.044 259.252 149.14 259.252 Q154.146 259.252 157.068 256.619 Q159.99 253.986 159.99 249.472 Q159.99 244.959 157.068 242.325 Q154.146 239.692 149.14 239.692 Q146.796 239.692 144.452 240.213 Q142.137 240.734 139.707 241.834 L139.707 220.132 Z" fill="#000000" fill-rule="nonzero" fill-opacity="1" /><path clip-path="url(#clip470)" d="M1048.42 20.1573 L1037.32 50.2555 L1059.56 50.2555 L1048.42 20.1573 M1043.8 12.096 L1053.08 12.096 L1076.13 72.576 L1067.62 72.576 L1062.11 57.061 L1034.85 57.061 L1029.34 72.576 L1020.71 72.576 L1043.8 12.096 Z" fill="#000000" fill-rule="nonzero" fill-opacity="1" /><path clip-path="url(#clip470)" d="M1117.2 49.9314 Q1117.2 41.7081 1113.8 37.0496 Q1110.44 32.3505 1104.52 32.3505 Q1098.61 32.3505 1095.21 37.0496 Q1091.85 41.7081 1091.85 49.9314 Q1091.85 58.1548 1095.21 62.8538 Q1098.61 67.5124 1104.52 67.5124 Q1110.44 67.5124 1113.8 62.8538 Q1117.2 58.1548 1117.2 49.9314 M1091.85 34.0924 Q1094.19 30.0415 1097.76 28.0971 Q1101.36 26.1121 1106.35 26.1121 Q1114.61 26.1121 1119.76 32.6746 Q1124.94 39.2371 1124.94 49.9314 Q1124.94 60.6258 1119.76 67.1883 Q1114.61 73.7508 1106.35 73.7508 Q1101.36 73.7508 1097.76 71.8063 Q1094.19 69.8214 1091.85 65.7705 L1091.85 72.576 L1084.35 72.576 L1084.35 9.54393 L1091.85 9.54393 L1091.85 34.0924 Z" fill="#000000" fill-rule="nonzero" fill-opacity="1" /><path clip-path="url(#clip470)" d="M1166.22 28.5427 L1166.22 35.5912 Q1163.06 33.9709 1159.66 33.1607 Q1156.25 32.3505 1152.61 32.3505 Q1147.06 32.3505 1144.26 34.0519 Q1141.51 35.7533 1141.51 39.156 Q1141.51 41.7486 1143.49 43.2475 Q1145.48 44.7058 1151.47 46.0426 L1154.03 46.6097 Q1161.97 48.3111 1165.29 51.4303 Q1168.65 54.509 1168.65 60.0587 Q1168.65 66.3781 1163.63 70.0644 Q1158.64 73.7508 1149.89 73.7508 Q1146.25 73.7508 1142.28 73.0216 Q1138.35 72.3329 1133.97 70.9151 L1133.97 63.2184 Q1138.11 65.3654 1142.12 66.4591 Q1146.13 67.5124 1150.06 67.5124 Q1155.32 67.5124 1158.16 65.73 Q1160.99 63.9071 1160.99 60.6258 Q1160.99 57.5877 1158.93 55.9673 Q1156.9 54.3469 1149.98 52.8481 L1147.38 52.2405 Q1140.46 50.7821 1137.38 47.7845 Q1134.3 44.7463 1134.3 39.4801 Q1134.3 33.0797 1138.84 29.5959 Q1143.37 26.1121 1151.72 26.1121 Q1155.85 26.1121 1159.5 26.7198 Q1163.14 27.3274 1166.22 28.5427 Z" fill="#000000" fill-rule="nonzero" fill-opacity="1" /><path clip-path="url(#clip470)" d="M1187.89 14.324 L1187.89 27.2059 L1203.25 27.2059 L1203.25 32.9987 L1187.89 32.9987 L1187.89 57.6282 Q1187.89 63.1779 1189.39 64.7578 Q1190.93 66.3376 1195.59 66.3376 L1203.25 66.3376 L1203.25 72.576 L1195.59 72.576 Q1186.96 72.576 1183.68 69.3758 Q1180.4 66.1351 1180.4 57.6282 L1180.4 32.9987 L1174.93 32.9987 L1174.93 27.2059 L1180.4 27.2059 L1180.4 14.324 L1187.89 14.324 Z" fill="#000000" fill-rule="nonzero" fill-opacity="1" /><path clip-path="url(#clip470)" d="M1239.34 34.1734 Q1238.08 33.4443 1236.58 33.1202 Q1235.13 32.7556 1233.34 32.7556 Q1227.02 32.7556 1223.62 36.8875 Q1220.26 40.9789 1220.26 48.6757 L1220.26 72.576 L1212.76 72.576 L1212.76 27.2059 L1220.26 27.2059 L1220.26 34.2544 Q1222.61 30.1225 1226.38 28.1376 Q1230.14 26.1121 1235.53 26.1121 Q1236.3 26.1121 1237.23 26.2337 Q1238.16 26.3147 1239.3 26.5172 L1239.34 34.1734 Z" fill="#000000" fill-rule="nonzero" fill-opacity="1" /><path clip-path="url(#clip470)" d="M1267.78 49.7694 Q1258.74 49.7694 1255.26 51.8354 Q1251.77 53.9013 1251.77 58.8839 Q1251.77 62.8538 1254.37 65.2034 Q1257 67.5124 1261.5 67.5124 Q1267.69 67.5124 1271.42 63.1374 Q1275.19 58.7219 1275.19 51.4303 L1275.19 49.7694 L1267.78 49.7694 M1282.64 46.6907 L1282.64 72.576 L1275.19 72.576 L1275.19 65.6895 Q1272.64 69.8214 1268.83 71.8063 Q1265.02 73.7508 1259.51 73.7508 Q1252.54 73.7508 1248.41 69.8619 Q1244.32 65.9325 1244.32 59.3701 Q1244.32 51.7138 1249.43 47.825 Q1254.57 43.9361 1264.74 43.9361 L1275.19 43.9361 L1275.19 43.2069 Q1275.19 38.0623 1271.79 35.2672 Q1268.42 32.4315 1262.31 32.4315 Q1258.42 32.4315 1254.73 33.3632 Q1251.05 34.295 1247.64 36.1584 L1247.64 29.2718 Q1251.73 27.692 1255.58 26.9223 Q1259.43 26.1121 1263.08 26.1121 Q1272.92 26.1121 1277.78 31.2163 Q1282.64 36.3204 1282.64 46.6907 Z" fill="#000000" fill-rule="nonzero" fill-opacity="1" /><path clip-path="url(#clip470)" d="M1330.65 28.9478 L1330.65 35.9153 Q1327.49 34.1734 1324.29 33.3227 Q1321.13 32.4315 1317.89 32.4315 Q1310.63 32.4315 1306.62 37.0496 Q1302.61 41.6271 1302.61 49.9314 Q1302.61 58.2358 1306.62 62.8538 Q1310.63 67.4314 1317.89 67.4314 Q1321.13 67.4314 1324.29 66.5807 Q1327.49 65.6895 1330.65 63.9476 L1330.65 70.8341 Q1327.53 72.2924 1324.16 73.0216 Q1320.84 73.7508 1317.08 73.7508 Q1306.83 73.7508 1300.79 67.3098 Q1294.75 60.8689 1294.75 49.9314 Q1294.75 38.832 1300.83 32.472 Q1306.95 26.1121 1317.56 26.1121 Q1321 26.1121 1324.29 26.8413 Q1327.57 27.5299 1330.65 28.9478 Z" fill="#000000" fill-rule="nonzero" fill-opacity="1" /><path clip-path="url(#clip470)" d="M1350.98 14.324 L1350.98 27.2059 L1366.33 27.2059 L1366.33 32.9987 L1350.98 32.9987 L1350.98 57.6282 Q1350.98 63.1779 1352.48 64.7578 Q1354.02 66.3376 1358.68 66.3376 L1366.33 66.3376 L1366.33 72.576 L1358.68 72.576 Q1350.05 72.576 1346.77 69.3758 Q1343.49 66.1351 1343.49 57.6282 L1343.49 32.9987 L1338.02 32.9987 L1338.02 27.2059 L1343.49 27.2059 L1343.49 14.324 L1350.98 14.324 Z" fill="#000000" fill-rule="nonzero" fill-opacity="1" /><path clip-path="url(#clip470)" d="M1376.14 27.2059 L1383.59 27.2059 L1383.59 72.576 L1376.14 72.576 L1376.14 27.2059 M1376.14 9.54393 L1383.59 9.54393 L1383.59 18.9825 L1376.14 18.9825 L1376.14 9.54393 Z" fill="#000000" fill-rule="nonzero" fill-opacity="1" /><path clip-path="url(#clip470)" d="M1416.77 32.4315 Q1410.77 32.4315 1407.29 37.1306 Q1403.81 41.7891 1403.81 49.9314 Q1403.81 58.0738 1407.25 62.7728 Q1410.73 67.4314 1416.77 67.4314 Q1422.72 67.4314 1426.21 62.7323 Q1429.69 58.0333 1429.69 49.9314 Q1429.69 41.8701 1426.21 37.1711 Q1422.72 32.4315 1416.77 32.4315 M1416.77 26.1121 Q1426.49 26.1121 1432.04 32.4315 Q1437.59 38.7509 1437.59 49.9314 Q1437.59 61.0714 1432.04 67.4314 Q1426.49 73.7508 1416.77 73.7508 Q1407.01 73.7508 1401.46 67.4314 Q1395.95 61.0714 1395.95 49.9314 Q1395.95 38.7509 1401.46 32.4315 Q1407.01 26.1121 1416.77 26.1121 Z" fill="#000000" fill-rule="nonzero" fill-opacity="1" /><path clip-path="url(#clip470)" d="M1487.66 45.1919 L1487.66 72.576 L1480.21 72.576 L1480.21 45.4349 Q1480.21 38.994 1477.69 35.7938 Q1475.18 32.5936 1470.16 32.5936 Q1464.12 32.5936 1460.64 36.4419 Q1457.16 40.2903 1457.16 46.9338 L1457.16 72.576 L1449.66 72.576 L1449.66 27.2059 L1457.16 27.2059 L1457.16 34.2544 Q1459.83 30.163 1463.43 28.1376 Q1467.08 26.1121 1471.82 26.1121 Q1479.64 26.1121 1483.65 30.9732 Q1487.66 35.7938 1487.66 45.1919 Z" fill="#000000" fill-rule="nonzero" fill-opacity="1" /><path clip-path="url(#clip470)" d="M1531.45 28.5427 L1531.45 35.5912 Q1528.29 33.9709 1524.89 33.1607 Q1521.48 32.3505 1517.84 32.3505 Q1512.29 32.3505 1509.49 34.0519 Q1506.74 35.7533 1506.74 39.156 Q1506.74 41.7486 1508.72 43.2475 Q1510.71 44.7058 1516.7 46.0426 L1519.26 46.6097 Q1527.2 48.3111 1530.52 51.4303 Q1533.88 54.509 1533.88 60.0587 Q1533.88 66.3781 1528.86 70.0644 Q1523.87 73.7508 1515.12 73.7508 Q1511.48 73.7508 1507.51 73.0216 Q1503.58 72.3329 1499.2 70.9151 L1499.2 63.2184 Q1503.34 65.3654 1507.35 66.4591 Q1511.36 67.5124 1515.29 67.5124 Q1520.55 67.5124 1523.39 65.73 Q1526.22 63.9071 1526.22 60.6258 Q1526.22 57.5877 1524.16 55.9673 Q1522.13 54.3469 1515.21 52.8481 L1512.61 52.2405 Q1505.69 50.7821 1502.61 47.7845 Q1499.53 44.7463 1499.53 39.4801 Q1499.53 33.0797 1504.07 29.5959 Q1508.6 26.1121 1516.95 26.1121 Q1521.08 26.1121 1524.72 26.7198 Q1528.37 27.3274 1531.45 28.5427 Z" fill="#000000" fill-rule="nonzero" fill-opacity="1" /><path clip-path="url(#clip472)" d="M839.681 1425.25 L839.825 1426.71 L840.112 1428.16 L840.539 1429.56 L841.101 1430.92 L841.794 1432.22 L842.611 1433.44 L843.544 1434.58 L844.583 1435.62 L845.719 1436.55 L846.942 1437.36 L848.238 1438.06 L849.596 1438.62 L851.003 1439.05 L852.445 1439.33 L853.907 1439.48 L855.377 1439.48 L856.84 1439.33 L858.282 1439.05 L859.689 1438.62 L861.047 1438.06 L862.343 1437.36 L863.566 1436.55 L864.702 1435.62 L865.741 1434.58 L866.674 1433.44 L867.491 1432.22 L868.183 1430.92 L868.746 1429.56 L869.173 1428.16 L869.46 1426.71 L869.604 1425.25 L869.604 1423.78 L869.46 1422.32 L869.173 1420.88 L868.746 1419.47 L868.183 1418.11 L867.491 1416.82 L866.674 1415.59 L865.741 1414.46 L864.702 1413.42 L863.566 1412.49 L862.343 1411.67 L861.047 1410.98 L859.689 1410.41 L858.282 1409.99 L856.84 1409.7 L855.377 1409.56 L853.907 1409.56 L852.445 1409.7 L851.003 1409.99 L849.596 1410.41 L848.238 1410.98 L846.942 1411.67 L845.719 1412.49 L844.583 1413.42 L843.544 1414.46 L842.611 1415.59 L841.794 1416.82 L841.101 1418.11 L840.539 1419.47 L840.112 1420.88 L839.825 1422.32 L839.681 1423.78 L839.681 1425.25 L839.681 1425.25  Z" fill="#ffff00" fill-rule="evenodd" fill-opacity="1"/>
<polyline clip-path="url(#clip472)" style="stroke:#000000; stroke-linecap:round; stroke-linejoin:round; stroke-width:4; stroke-opacity:1; fill:none" points="839.681,1425.25 839.825,1426.71 840.112,1428.16 840.539,1429.56 841.101,1430.92 841.794,1432.22 842.611,1433.44 843.544,1434.58 844.583,1435.62 845.719,1436.55 846.942,1437.36 848.238,1438.06 849.596,1438.62 851.003,1439.05 852.445,1439.33 853.907,1439.48 855.377,1439.48 856.84,1439.33 858.282,1439.05 859.689,1438.62 861.047,1438.06 862.343,1437.36 863.566,1436.55 864.702,1435.62 865.741,1434.58 866.674,1433.44 867.491,1432.22 868.183,1430.92 868.746,1429.56 869.173,1428.16 869.46,1426.71 869.604,1425.25 869.604,1423.78 869.46,1422.32 869.173,1420.88 868.746,1419.47 868.183,1418.11 867.491,1416.82 866.674,1415.59 865.741,1414.46 864.702,1413.42 863.566,1412.49 862.343,1411.67 861.047,1410.98 859.689,1410.41 858.282,1409.99 856.84,1409.7 855.377,1409.56 853.907,1409.56 852.445,1409.7 851.003,1409.99 849.596,1410.41 848.238,1410.98 846.942,1411.67 845.719,1412.49 844.583,1413.42 843.544,1414.46 842.611,1415.59 841.794,1416.82 841.101,1418.11 840.539,1419.47 840.112,1420.88 839.825,1422.32 839.681,1423.78 839.681,1425.25 "/>
<path clip-path="url(#clip472)" d="M511.901 891.126 L512.036 901.044 L512.305 911.05 L512.708 921.136 L513.246 931.293 L513.917 941.51 L514.721 951.781 L515.656 962.095 L516.724 972.442 L517.921 982.815 L519.248 993.204 L520.704 1003.6 L522.286 1013.99 L523.993 1024.37 L525.825 1034.73 L527.778 1045.06 L529.853 1055.36 L532.046 1065.6 L534.356 1075.78 L536.781 1085.9 L539.318 1095.94 L541.966 1105.9 L544.721 1115.77 L547.583 1125.53 L550.547 1135.19 L553.612 1144.72 L556.775 1154.13 L560.032 1163.4 L563.382 1172.52 L566.82 1181.5 L570.345 1190.31 L573.952 1198.96 L577.639 1207.43 L581.403 1215.72 L585.24 1223.81 L589.146 1231.71 L593.119 1239.41 L597.154 1246.89 L601.248 1254.16 L605.398 1261.2 L609.6 1268.01 L613.85 1274.58 L618.145 1280.91 L622.48 1286.99 L626.851 1292.82 L631.256 1298.39 L635.689 1303.7 L640.147 1308.74 L644.627 1313.5 L649.123 1317.99 L653.633 1322.2 L658.152 1326.12 L662.676 1329.76 L667.201 1333.1 L671.723 1336.15 L676.238 1338.9 L680.743 1341.35 L685.232 1343.5 L689.703 1345.35 L694.15 1346.89 L698.571 1348.13 L702.961 1349.05 L707.317 1349.67 L711.634 1349.98 L715.16 1349.98 L717.916 1349.85 L720.652 1349.59 L723.367 1349.2 L726.06 1348.68 L728.73 1348.03 L731.375 1347.24 L733.996 1346.33 L736.59 1345.3 L739.157 1344.13 L741.696 1342.83 L744.205 1341.41 L746.685 1339.86 L749.134 1338.18 L751.551 1336.37 L753.936 1334.45 L756.287 1332.39 L758.603 1330.21 L760.884 1327.91 L763.129 1325.49 L765.336 1322.95 L767.506 1320.28 L769.637 1317.5 L771.729 1314.6 L773.781 1311.58 L775.791 1308.44 L777.76 1305.19 L779.686 1301.83 L781.569 1298.35 L783.408 1294.76 L785.202 1291.07 L786.951 1287.26 L788.654 1283.35 L790.311 1279.33 L791.92 1275.21 L793.482 1270.98 L794.995 1266.66 L796.459 1262.23 L797.874 1257.71 L799.239 1253.09 L800.553 1248.38 L801.816 1243.57 L803.028 1238.68 L804.188 1233.69 L805.295 1228.62 L806.35 1223.46 L807.351 1218.22 L808.299 1212.9 L809.64 1204.8 L811.211 1193.69 L812.561 1182.3 L813.69 1170.63 L814.595 1158.71 L815.274 1146.56 L815.728 1134.18 L815.955 1121.61 L815.955 1110.32 L815.821 1100.4 L815.551 1090.4 L815.148 1080.31 L814.61 1070.15 L813.939 1059.94 L813.136 1049.67 L812.2 1039.35 L811.132 1029 L809.935 1018.63 L808.608 1008.24 L807.152 997.846 L805.57 987.453 L803.863 977.072 L802.031 966.712 L800.078 956.382 L798.003 946.091 L795.81 935.848 L793.5 925.663 L791.076 915.545 L788.538 905.502 L785.89 895.543 L783.135 885.678 L780.273 875.914 L777.309 866.261 L774.244 856.727 L771.082 847.321 L767.824 838.05 L764.475 828.924 L761.036 819.949 L757.511 811.135 L753.904 802.489 L750.217 794.018 L746.453 785.731 L742.617 777.634 L738.71 769.734 L734.738 762.039 L730.702 754.556 L726.608 747.29 L722.458 740.249 L718.256 733.439 L714.006 726.866 L709.711 720.535 L705.377 714.452 L701.005 708.623 L696.601 703.053 L692.167 697.746 L687.709 692.707 L683.229 687.942 L678.733 683.453 L674.223 679.246 L669.704 675.323 L665.18 671.689 L660.655 668.346 L656.133 665.297 L651.618 662.546 L647.114 660.094 L642.624 657.943 L638.154 656.097 L633.706 654.556 L629.285 653.321 L624.895 652.394 L620.539 651.775 L616.222 651.466 L612.696 651.466 L609.94 651.596 L607.204 651.857 L604.489 652.248 L601.796 652.769 L599.126 653.421 L596.481 654.201 L593.861 655.112 L591.266 656.151 L588.699 657.319 L586.161 658.615 L583.651 660.039 L581.171 661.59 L578.722 663.268 L576.305 665.072 L573.92 667.001 L571.57 669.054 L569.253 671.232 L566.972 673.533 L564.727 675.956 L562.52 678.5 L560.35 681.164 L558.219 683.948 L556.127 686.85 L554.076 689.869 L552.065 693.004 L550.097 696.255 L548.17 699.618 L546.287 703.095 L544.448 706.682 L542.654 710.38 L540.905 714.185 L539.202 718.098 L537.545 722.116 L535.936 726.239 L534.374 730.463 L532.861 734.789 L531.397 739.214 L529.982 743.737 L528.617 748.355 L527.303 753.068 L526.04 757.873 L524.828 762.769 L523.668 767.754 L522.561 772.826 L521.506 777.983 L520.505 783.223 L519.557 788.545 L518.216 796.646 L516.645 807.753 L515.295 819.148 L514.166 830.815 L513.262 842.735 L512.582 854.891 L512.128 867.265 L511.901 879.838 L511.901 891.126 L511.901 891.126  Z" fill="#ffff00" fill-rule="evenodd" fill-opacity="1"/>
<polyline clip-path="url(#clip472)" style="stroke:#000000; stroke-linecap:round; stroke-linejoin:round; stroke-width:4; stroke-opacity:1; fill:none" points="511.901,891.126 512.036,901.044 512.305,911.05 512.708,921.136 513.246,931.293 513.917,941.51 514.721,951.781 515.656,962.095 516.724,972.442 517.921,982.815 519.248,993.204 520.704,1003.6 522.286,1013.99 523.993,1024.37 525.825,1034.73 527.778,1045.06 529.853,1055.36 532.046,1065.6 534.356,1075.78 536.781,1085.9 539.318,1095.94 541.966,1105.9 544.721,1115.77 547.583,1125.53 550.547,1135.19 553.612,1144.72 556.775,1154.13 560.032,1163.4 563.382,1172.52 566.82,1181.5 570.345,1190.31 573.952,1198.96 577.639,1207.43 581.403,1215.72 585.24,1223.81 589.146,1231.71 593.119,1239.41 597.154,1246.89 601.248,1254.16 605.398,1261.2 609.6,1268.01 613.85,1274.58 618.145,1280.91 622.48,1286.99 626.851,1292.82 631.256,1298.39 635.689,1303.7 640.147,1308.74 644.627,1313.5 649.123,1317.99 653.633,1322.2 658.152,1326.12 662.676,1329.76 667.201,1333.1 671.723,1336.15 676.238,1338.9 680.743,1341.35 685.232,1343.5 689.703,1345.35 694.15,1346.89 698.571,1348.13 702.961,1349.05 707.317,1349.67 711.634,1349.98 715.16,1349.98 717.916,1349.85 720.652,1349.59 723.367,1349.2 726.06,1348.68 728.73,1348.03 731.375,1347.24 733.996,1346.33 736.59,1345.3 739.157,1344.13 741.696,1342.83 744.205,1341.41 746.685,1339.86 749.134,1338.18 751.551,1336.37 753.936,1334.45 756.287,1332.39 758.603,1330.21 760.884,1327.91 763.129,1325.49 765.336,1322.95 767.506,1320.28 769.637,1317.5 771.729,1314.6 773.781,1311.58 775.791,1308.44 777.76,1305.19 779.686,1301.83 781.569,1298.35 783.408,1294.76 785.202,1291.07 786.951,1287.26 788.654,1283.35 790.311,1279.33 791.92,1275.21 793.482,1270.98 794.995,1266.66 796.459,1262.23 797.874,1257.71 799.239,1253.09 800.553,1248.38 801.816,1243.57 803.028,1238.68 804.188,1233.69 805.295,1228.62 806.35,1223.46 807.351,1218.22 808.299,1212.9 809.64,1204.8 811.211,1193.69 812.561,1182.3 813.69,1170.63 814.595,1158.71 815.274,1146.56 815.728,1134.18 815.955,1121.61 815.955,1110.32 815.821,1100.4 815.551,1090.4 815.148,1080.31 814.61,1070.15 813.939,1059.94 813.136,1049.67 812.2,1039.35 811.132,1029 809.935,1018.63 808.608,1008.24 807.152,997.846 805.57,987.453 803.863,977.072 802.031,966.712 800.078,956.382 798.003,946.091 795.81,935.848 793.5,925.663 791.076,915.545 788.538,905.502 785.89,895.543 783.135,885.678 780.273,875.914 777.309,866.261 774.244,856.727 771.082,847.321 767.824,838.05 764.475,828.924 761.036,819.949 757.511,811.135 753.904,802.489 750.217,794.018 746.453,785.731 742.617,777.634 738.71,769.734 734.738,762.039 730.702,754.556 726.608,747.29 722.458,740.249 718.256,733.439 714.006,726.866 709.711,720.535 705.377,714.452 701.005,708.623 696.601,703.053 692.167,697.746 687.709,692.707 683.229,687.942 678.733,683.453 674.223,679.246 669.704,675.323 665.18,671.689 660.655,668.346 656.133,665.297 651.618,662.546 647.114,660.094 642.624,657.943 638.154,656.097 633.706,654.556 629.285,653.321 624.895,652.394 620.539,651.775 616.222,651.466 612.696,651.466 609.94,651.596 607.204,651.857 604.489,652.248 601.796,652.769 599.126,653.421 596.481,654.201 593.861,655.112 591.266,656.151 588.699,657.319 586.161,658.615 583.651,660.039 581.171,661.59 578.722,663.268 576.305,665.072 573.92,667.001 571.57,669.054 569.253,671.232 566.972,673.533 564.727,675.956 562.52,678.5 560.35,681.164 558.219,683.948 556.127,686.85 554.076,689.869 552.065,693.004 550.097,696.255 548.17,699.618 546.287,703.095 544.448,706.682 542.654,710.38 540.905,714.185 539.202,718.098 537.545,722.116 535.936,726.239 534.374,730.463 532.861,734.789 531.397,739.214 529.982,743.737 528.617,748.355 527.303,753.068 526.04,757.873 524.828,762.769 523.668,767.754 522.561,772.826 521.506,777.983 520.505,783.223 519.557,788.545 518.216,796.646 516.645,807.753 515.295,819.148 514.166,830.815 513.262,842.735 512.582,854.891 512.128,867.265 511.901,879.838 511.901,891.126 "/>
<path clip-path="url(#clip472)" d="M670.468 865.101 L670.809 880.276 L671.491 895.32 L672.258 906.481 L672.853 913.876 L673.532 921.22 L674.295 928.51 L675.142 935.744 L676.071 942.916 L677.083 950.023 L678.177 957.062 L679.353 964.028 L680.609 970.919 L681.946 977.731 L683.361 984.46 L684.856 991.103 L686.429 997.656 L688.079 1004.12 L689.805 1010.48 L691.606 1016.74 L693.483 1022.91 L695.432 1028.96 L697.455 1034.91 L699.548 1040.74 L701.713 1046.46 L703.946 1052.07 L706.248 1057.55 L708.617 1062.9 L711.051 1068.13 L713.55 1073.24 L716.113 1078.21 L718.737 1083.04 L721.422 1087.74 L724.166 1092.3 L726.968 1096.72 L729.826 1100.99 L732.739 1105.12 L735.706 1109.1 L738.724 1112.93 L741.793 1116.61 L744.911 1120.13 L748.076 1123.5 L751.286 1126.71 L754.54 1129.76 L757.836 1132.65 L761.173 1135.38 L764.549 1137.94 L767.961 1140.34 L771.41 1142.58 L774.891 1144.64 L778.404 1146.54 L781.948 1148.27 L785.519 1149.83 L789.117 1151.21 L792.739 1152.43 L796.384 1153.47 L800.05 1154.34 L803.734 1155.04 L807.435 1155.56 L811.152 1155.91 L814.881 1156.08 L818.933 1156.08 L823.308 1155.84 L827.693 1155.37 L832.084 1154.66 L836.478 1153.71 L840.872 1152.53 L845.264 1151.11 L849.649 1149.46 L854.026 1147.58 L858.39 1145.47 L862.74 1143.13 L867.071 1140.55 L871.381 1137.76 L875.667 1134.73 L879.925 1131.49 L884.154 1128.03 L888.349 1124.35 L892.509 1120.45 L896.629 1116.34 L900.708 1112.02 L904.742 1107.5 L908.728 1102.77 L912.664 1097.85 L916.547 1092.72 L920.375 1087.41 L924.144 1081.9 L927.852 1076.21 L931.496 1070.34 L935.075 1064.29 L938.584 1058.07 L942.023 1051.68 L945.388 1045.12 L948.677 1038.41 L951.887 1031.54 L955.018 1024.52 L958.066 1017.36 L961.029 1010.05 L963.905 1002.61 L966.693 995.043 L969.39 987.349 L971.994 979.536 L974.504 971.609 L976.917 963.574 L979.233 955.436 L981.449 947.201 L983.564 938.875 L985.577 930.464 L987.485 921.973 L989.289 913.409 L990.985 904.777 L992.575 896.083 L994.055 887.334 L995.425 878.536 L996.685 869.695 L997.833 860.816 L998.868 851.906 L999.79 842.972 L1000.6 834.02 L1001.29 825.055 L1001.87 816.085 L1002.34 807.115 L1002.68 798.151 L1002.92 789.201 L1003.03 780.269 L1003.03 768.179 L1002.69 753.004 L1002.01 737.96 L1001.24 726.799 L1000.65 719.404 L999.967 712.06 L999.204 704.769 L998.358 697.536 L997.428 690.364 L996.416 683.257 L995.322 676.218 L994.147 669.252 L992.89 662.361 L991.554 655.549 L990.138 648.82 L988.643 642.177 L987.071 635.624 L985.421 629.164 L983.695 622.8 L981.893 616.535 L980.017 610.373 L978.067 604.318 L976.045 598.371 L973.951 592.536 L971.787 586.816 L969.553 581.215 L967.252 575.734 L964.883 570.377 L962.448 565.146 L959.949 560.044 L957.387 555.074 L954.762 550.239 L952.078 545.54 L949.333 540.981 L946.532 536.563 L943.673 532.289 L940.76 528.16 L937.793 524.18 L934.775 520.35 L931.706 516.673 L928.589 513.149 L925.424 509.781 L922.214 506.571 L918.96 503.519 L915.663 500.629 L912.326 497.901 L908.951 495.336 L905.538 492.937 L902.09 490.704 L898.608 488.638 L895.095 486.74 L891.552 485.012 L887.98 483.454 L884.383 482.067 L880.76 480.852 L877.115 479.81 L873.45 478.94 L869.766 478.244 L866.064 477.721 L862.348 477.373 L858.618 477.199 L854.567 477.199 L850.191 477.436 L845.807 477.91 L841.416 478.62 L837.022 479.567 L832.627 480.749 L828.236 482.165 L823.85 483.815 L819.474 485.698 L815.109 487.812 L810.76 490.155 L806.429 492.726 L802.119 495.524 L797.833 498.546 L793.574 501.79 L789.346 505.253 L785.15 508.935 L780.991 512.831 L776.87 516.939 L772.792 521.257 L768.758 525.781 L764.771 530.508 L760.835 535.435 L756.952 540.558 L753.125 545.874 L749.356 551.379 L745.648 557.07 L742.003 562.941 L738.425 568.99 L734.915 575.212 L731.477 581.603 L728.112 588.157 L724.823 594.871 L721.612 601.74 L718.482 608.759 L715.434 615.924 L712.471 623.228 L709.594 630.668 L706.807 638.237 L704.11 645.931 L701.506 653.744 L698.996 661.671 L696.582 669.706 L694.267 677.844 L692.05 686.079 L689.935 694.405 L687.923 702.816 L686.014 711.307 L684.211 719.871 L682.514 728.503 L680.925 737.197 L679.445 745.946 L678.074 754.744 L676.815 763.585 L675.667 772.464 L674.631 781.373 L673.709 790.307 L672.901 799.26 L672.207 808.225 L671.628 817.195 L671.164 826.165 L670.816 835.129 L670.584 844.079 L670.468 853.01 L670.468 865.101 L670.468 865.101  Z" fill="#ffff00" fill-rule="evenodd" fill-opacity="1"/>
<polyline clip-path="url(#clip472)" style="stroke:#000000; stroke-linecap:round; stroke-linejoin:round; stroke-width:4; stroke-opacity:1; fill:none" points="670.468,865.101 670.809,880.276 671.491,895.32 672.258,906.481 672.853,913.876 673.532,921.22 674.295,928.51 675.142,935.744 676.071,942.916 677.083,950.023 678.177,957.062 679.353,964.028 680.609,970.919 681.946,977.731 683.361,984.46 684.856,991.103 686.429,997.656 688.079,1004.12 689.805,1010.48 691.606,1016.74 693.483,1022.91 695.432,1028.96 697.455,1034.91 699.548,1040.74 701.713,1046.46 703.946,1052.07 706.248,1057.55 708.617,1062.9 711.051,1068.13 713.55,1073.24 716.113,1078.21 718.737,1083.04 721.422,1087.74 724.166,1092.3 726.968,1096.72 729.826,1100.99 732.739,1105.12 735.706,1109.1 738.724,1112.93 741.793,1116.61 744.911,1120.13 748.076,1123.5 751.286,1126.71 754.54,1129.76 757.836,1132.65 761.173,1135.38 764.549,1137.94 767.961,1140.34 771.41,1142.58 774.891,1144.64 778.404,1146.54 781.948,1148.27 785.519,1149.83 789.117,1151.21 792.739,1152.43 796.384,1153.47 800.05,1154.34 803.734,1155.04 807.435,1155.56 811.152,1155.91 814.881,1156.08 818.933,1156.08 823.308,1155.84 827.693,1155.37 832.084,1154.66 836.478,1153.71 840.872,1152.53 845.264,1151.11 849.649,1149.46 854.026,1147.58 858.39,1145.47 862.74,1143.13 867.071,1140.55 871.381,1137.76 875.667,1134.73 879.925,1131.49 884.154,1128.03 888.349,1124.35 892.509,1120.45 896.629,1116.34 900.708,1112.02 904.742,1107.5 908.728,1102.77 912.664,1097.85 916.547,1092.72 920.375,1087.41 924.144,1081.9 927.852,1076.21 931.496,1070.34 935.075,1064.29 938.584,1058.07 942.023,1051.68 945.388,1045.12 948.677,1038.41 951.887,1031.54 955.018,1024.52 958.066,1017.36 961.029,1010.05 963.905,1002.61 966.693,995.043 969.39,987.349 971.994,979.536 974.504,971.609 976.917,963.574 979.233,955.436 981.449,947.201 983.564,938.875 985.577,930.464 987.485,921.973 989.289,913.409 990.985,904.777 992.575,896.083 994.055,887.334 995.425,878.536 996.685,869.695 997.833,860.816 998.868,851.906 999.79,842.972 1000.6,834.02 1001.29,825.055 1001.87,816.085 1002.34,807.115 1002.68,798.151 1002.92,789.201 1003.03,780.269 1003.03,768.179 1002.69,753.004 1002.01,737.96 1001.24,726.799 1000.65,719.404 999.967,712.06 999.204,704.769 998.358,697.536 997.428,690.364 996.416,683.257 995.322,676.218 994.147,669.252 992.89,662.361 991.554,655.549 990.138,648.82 988.643,642.177 987.071,635.624 985.421,629.164 983.695,622.8 981.893,616.535 980.017,610.373 978.067,604.318 976.045,598.371 973.951,592.536 971.787,586.816 969.553,581.215 967.252,575.734 964.883,570.377 962.448,565.146 959.949,560.044 957.387,555.074 954.762,550.239 952.078,545.54 949.333,540.981 946.532,536.563 943.673,532.289 940.76,528.16 937.793,524.18 934.775,520.35 931.706,516.673 928.589,513.149 925.424,509.781 922.214,506.571 918.96,503.519 915.663,500.629 912.326,497.901 908.951,495.336 905.538,492.937 902.09,490.704 898.608,488.638 895.095,486.74 891.552,485.012 887.98,483.454 884.383,482.067 880.76,480.852 877.115,479.81 873.45,478.94 869.766,478.244 866.064,477.721 862.348,477.373 858.618,477.199 854.567,477.199 850.191,477.436 845.807,477.91 841.416,478.62 837.022,479.567 832.627,480.749 828.236,482.165 823.85,483.815 819.474,485.698 815.109,487.812 810.76,490.155 806.429,492.726 802.119,495.524 797.833,498.546 793.574,501.79 789.346,505.253 785.15,508.935 780.991,512.831 776.87,516.939 772.792,521.257 768.758,525.781 764.771,530.508 760.835,535.435 756.952,540.558 753.125,545.874 749.356,551.379 745.648,557.07 742.003,562.941 738.425,568.99 734.915,575.212 731.477,581.603 728.112,588.157 724.823,594.871 721.612,601.74 718.482,608.759 715.434,615.924 712.471,623.228 709.594,630.668 706.807,638.237 704.11,645.931 701.506,653.744 698.996,661.671 696.582,669.706 694.267,677.844 692.05,686.079 689.935,694.405 687.923,702.816 686.014,711.307 684.211,719.871 682.514,728.503 680.925,737.197 679.445,745.946 678.074,754.744 676.815,763.585 675.667,772.464 674.631,781.373 673.709,790.307 672.901,799.26 672.207,808.225 671.628,817.195 671.164,826.165 670.816,835.129 670.584,844.079 670.468,853.01 670.468,865.101 "/>
<path clip-path="url(#clip472)" d="M850.554 735.598 L850.779 744.241 L851.227 752.869 L851.898 761.46 L852.789 769.992 L853.9 778.445 L855.226 786.795 L856.765 795.022 L858.512 803.106 L860.464 811.026 L862.614 818.761 L864.959 826.292 L867.491 833.6 L870.205 840.666 L873.093 847.472 L876.148 854.002 L879.363 860.238 L882.729 866.166 L886.238 871.768 L889.88 877.033 L892.706 880.717 L894.618 883.082 L896.559 885.356 L898.527 887.536 L900.52 889.622 L902.538 891.612 L904.579 893.505 L906.641 895.299 L908.724 896.993 L910.827 898.587 L912.947 900.08 L915.084 901.469 L917.236 902.756 L919.401 903.938 L921.58 905.014 L923.769 905.986 L925.967 906.85 L928.175 907.608 L930.389 908.259 L932.608 908.801 L934.831 909.236 L937.057 909.562 L939.285 909.78 L941.512 909.889 L943.68 909.889 L945.789 909.791 L947.894 909.595 L949.994 909.301 L952.088 908.91 L954.174 908.421 L956.251 907.835 L958.319 907.152 L960.376 906.373 L962.42 905.498 L964.451 904.528 L966.467 903.462 L968.468 902.303 L970.452 901.049 L973.401 899.029 L977.255 895.969 L981.021 892.549 L984.691 888.777 L988.257 884.661 L991.711 880.211 L995.043 875.437 L998.248 870.349 L1001.32 864.96 L1004.24 859.282 L1007.02 853.328 L1009.64 847.111 L1012.11 840.646 L1014.4 833.946 L1016.52 827.029 L1018.47 819.909 L1020.23 812.603 L1021.81 805.127 L1023.19 797.498 L1024.39 789.735 L1025.39 781.854 L1026.19 773.873 L1026.8 765.812 L1027.2 757.688 L1027.4 749.519 L1027.4 741.104 L1027.18 732.462 L1026.73 723.834 L1026.06 715.243 L1025.17 706.71 L1024.06 698.258 L1022.73 689.908 L1021.19 681.68 L1019.45 673.597 L1017.5 665.677 L1015.34 657.942 L1013 650.411 L1010.47 643.103 L1007.75 636.037 L1004.87 629.23 L1001.81 622.701 L998.596 616.464 L995.23 610.537 L991.721 604.934 L988.079 599.67 L985.253 595.986 L983.341 593.62 L981.4 591.347 L979.432 589.166 L977.439 587.081 L975.421 585.091 L973.38 583.198 L971.318 581.404 L969.235 579.709 L967.132 578.115 L965.012 576.623 L962.875 575.233 L960.723 573.947 L958.558 572.765 L956.379 571.688 L954.19 570.717 L951.991 569.852 L949.784 569.095 L947.57 568.444 L945.351 567.901 L943.128 567.467 L940.902 567.141 L938.674 566.923 L936.447 566.814 L934.279 566.814 L932.17 566.912 L930.065 567.108 L927.965 567.402 L925.871 567.793 L923.785 568.282 L921.707 568.868 L919.64 569.55 L917.583 570.329 L915.539 571.205 L913.508 572.175 L911.491 573.241 L909.491 574.4 L907.507 575.654 L904.558 577.673 L900.704 580.733 L896.938 584.153 L893.267 587.926 L889.702 592.042 L886.248 596.492 L882.915 601.266 L879.711 606.354 L876.641 611.742 L873.714 617.421 L870.936 623.375 L868.314 629.592 L865.853 636.057 L863.559 642.756 L861.437 649.674 L859.493 656.794 L857.73 664.1 L856.152 671.576 L854.764 679.205 L853.568 686.968 L852.567 694.849 L851.764 702.829 L851.16 710.891 L850.756 719.015 L850.554 727.183 L850.554 735.598 L850.554 735.598  Z" fill="#ffff00" fill-rule="evenodd" fill-opacity="1"/>
<polyline clip-path="url(#clip472)" style="stroke:#000000; stroke-linecap:round; stroke-linejoin:round; stroke-width:4; stroke-opacity:1; fill:none" points="850.554,735.598 850.779,744.241 851.227,752.869 851.898,761.46 852.789,769.992 853.9,778.445 855.226,786.795 856.765,795.022 858.512,803.106 860.464,811.026 862.614,818.761 864.959,826.292 867.491,833.6 870.205,840.666 873.093,847.472 876.148,854.002 879.363,860.238 882.729,866.166 886.238,871.768 889.88,877.033 892.706,880.717 894.618,883.082 896.559,885.356 898.527,887.536 900.52,889.622 902.538,891.612 904.579,893.505 906.641,895.299 908.724,896.993 910.827,898.587 912.947,900.08 915.084,901.469 917.236,902.756 919.401,903.938 921.58,905.014 923.769,905.986 925.967,906.85 928.175,907.608 930.389,908.259 932.608,908.801 934.831,909.236 937.057,909.562 939.285,909.78 941.512,909.889 943.68,909.889 945.789,909.791 947.894,909.595 949.994,909.301 952.088,908.91 954.174,908.421 956.251,907.835 958.319,907.152 960.376,906.373 962.42,905.498 964.451,904.528 966.467,903.462 968.468,902.303 970.452,901.049 973.401,899.029 977.255,895.969 981.021,892.549 984.691,888.777 988.257,884.661 991.711,880.211 995.043,875.437 998.248,870.349 1001.32,864.96 1004.24,859.282 1007.02,853.328 1009.64,847.111 1012.11,840.646 1014.4,833.946 1016.52,827.029 1018.47,819.909 1020.23,812.603 1021.81,805.127 1023.19,797.498 1024.39,789.735 1025.39,781.854 1026.19,773.873 1026.8,765.812 1027.2,757.688 1027.4,749.519 1027.4,741.104 1027.18,732.462 1026.73,723.834 1026.06,715.243 1025.17,706.71 1024.06,698.258 1022.73,689.908 1021.19,681.68 1019.45,673.597 1017.5,665.677 1015.34,657.942 1013,650.411 1010.47,643.103 1007.75,636.037 1004.87,629.23 1001.81,622.701 998.596,616.464 995.23,610.537 991.721,604.934 988.079,599.67 985.253,595.986 983.341,593.62 981.4,591.347 979.432,589.166 977.439,587.081 975.421,585.091 973.38,583.198 971.318,581.404 969.235,579.709 967.132,578.115 965.012,576.623 962.875,575.233 960.723,573.947 958.558,572.765 956.379,571.688 954.19,570.717 951.991,569.852 949.784,569.095 947.57,568.444 945.351,567.901 943.128,567.467 940.902,567.141 938.674,566.923 936.447,566.814 934.279,566.814 932.17,566.912 930.065,567.108 927.965,567.402 925.871,567.793 923.785,568.282 921.707,568.868 919.64,569.55 917.583,570.329 915.539,571.205 913.508,572.175 911.491,573.241 909.491,574.4 907.507,575.654 904.558,577.673 900.704,580.733 896.938,584.153 893.267,587.926 889.702,592.042 886.248,596.492 882.915,601.266 879.711,606.354 876.641,611.742 873.714,617.421 870.936,623.375 868.314,629.592 865.853,636.057 863.559,642.756 861.437,649.674 859.493,656.794 857.73,664.1 856.152,671.576 854.764,679.205 853.568,686.968 852.567,694.849 851.764,702.829 851.16,710.891 850.756,719.015 850.554,727.183 850.554,735.598 "/>
<path clip-path="url(#clip472)" d="M1094.19 511.035 L1094.31 513.86 L1094.53 516.67 L1094.87 519.465 L1095.31 522.242 L1095.87 525.001 L1096.54 527.741 L1097.32 530.459 L1098.21 533.156 L1099.21 535.829 L1100.32 538.478 L1101.54 541.101 L1102.87 543.697 L1104.3 546.265 L1105.84 548.804 L1107.49 551.312 L1109.25 553.789 L1111.11 556.233 L1113.07 558.644 L1115.14 561.019 L1117.31 563.358 L1119.58 565.661 L1121.95 567.925 L1124.42 570.15 L1126.99 572.335 L1129.65 574.479 L1132.41 576.58 L1135.27 578.639 L1138.22 580.653 L1141.26 582.623 L1144.39 584.547 L1147.61 586.424 L1150.91 588.253 L1154.31 590.034 L1157.78 591.766 L1161.34 593.448 L1166.81 595.895 L1174.41 598.95 L1182.3 601.792 L1190.49 604.416 L1198.95 606.816 L1207.66 608.99 L1216.62 610.931 L1225.8 612.638 L1235.18 614.107 L1244.76 615.335 L1254.51 616.321 L1264.41 617.061 L1274.46 617.556 L1284.62 617.803 L1293.08 617.803 L1299.78 617.699 L1306.51 617.49 L1313.27 617.177 L1320.05 616.76 L1326.84 616.239 L1333.65 615.615 L1340.45 614.888 L1347.26 614.059 L1354.06 613.129 L1360.85 612.097 L1367.63 610.966 L1374.38 609.735 L1381.1 608.406 L1387.8 606.979 L1394.45 605.457 L1401.07 603.84 L1407.63 602.129 L1414.15 600.325 L1420.6 598.431 L1427 596.446 L1433.33 594.374 L1439.58 592.216 L1445.76 589.972 L1451.86 587.646 L1457.87 585.238 L1463.79 582.751 L1469.61 580.187 L1475.33 577.547 L1480.95 574.833 L1486.46 572.048 L1491.86 569.194 L1497.14 566.273 L1502.3 563.286 L1507.34 560.238 L1512.24 557.129 L1517.01 553.962 L1521.65 550.74 L1526.14 547.466 L1530.5 544.14 L1534.7 540.767 L1538.76 537.349 L1542.66 533.889 L1546.4 530.388 L1549.99 526.85 L1553.41 523.278 L1556.67 519.674 L1559.77 516.041 L1562.69 512.382 L1565.44 508.699 L1568.02 504.996 L1570.42 501.275 L1572.65 497.54 L1574.69 493.792 L1576.56 490.036 L1578.24 486.273 L1579.74 482.507 L1581.05 478.741 L1582.18 474.977 L1583.12 471.219 L1583.87 467.469 L1584.44 463.73 L1584.82 460.006 L1585.01 456.298 L1585.01 453.035 L1584.89 450.21 L1584.67 447.4 L1584.34 444.606 L1583.89 441.828 L1583.33 439.069 L1582.66 436.33 L1581.88 433.611 L1580.99 430.914 L1579.99 428.241 L1578.88 425.592 L1577.66 422.969 L1576.33 420.373 L1574.9 417.805 L1573.36 415.266 L1571.71 412.758 L1569.95 410.281 L1568.09 407.837 L1566.13 405.427 L1564.06 403.051 L1561.89 400.712 L1559.62 398.41 L1557.25 396.146 L1554.78 393.92 L1552.21 391.736 L1549.55 389.592 L1546.79 387.49 L1543.93 385.432 L1540.98 383.417 L1537.94 381.447 L1534.81 379.524 L1531.59 377.647 L1528.29 375.817 L1524.89 374.036 L1521.42 372.304 L1517.86 370.622 L1512.39 368.175 L1504.8 365.12 L1496.9 362.278 L1488.71 359.655 L1480.25 357.254 L1471.54 355.081 L1462.58 353.139 L1453.4 351.432 L1444.02 349.963 L1434.44 348.735 L1424.69 347.75 L1414.79 347.009 L1404.74 346.515 L1394.58 346.267 L1386.12 346.267 L1379.42 346.372 L1372.69 346.581 L1365.93 346.894 L1359.15 347.311 L1352.36 347.831 L1345.55 348.455 L1338.75 349.182 L1331.94 350.011 L1325.14 350.942 L1318.35 351.973 L1311.57 353.105 L1304.82 354.336 L1298.1 355.665 L1291.4 357.091 L1284.75 358.613 L1278.13 360.231 L1271.57 361.942 L1265.05 363.745 L1258.6 365.64 L1252.2 367.624 L1245.87 369.696 L1239.62 371.855 L1233.44 374.098 L1227.34 376.424 L1221.33 378.832 L1215.41 381.319 L1209.59 383.884 L1203.87 386.524 L1198.25 389.237 L1192.74 392.022 L1187.34 394.876 L1182.06 397.798 L1176.9 400.784 L1171.86 403.833 L1166.96 406.941 L1162.19 410.108 L1157.55 413.33 L1153.06 416.605 L1148.7 419.93 L1144.5 423.303 L1140.44 426.721 L1136.54 430.182 L1132.8 433.682 L1129.21 437.22 L1125.79 440.793 L1122.53 444.397 L1119.43 448.03 L1116.51 451.689 L1113.76 455.371 L1111.18 459.074 L1108.78 462.795 L1106.55 466.53 L1104.51 470.278 L1102.64 474.034 L1100.96 477.797 L1099.46 481.563 L1098.15 485.329 L1097.02 489.093 L1096.08 492.851 L1095.33 496.601 L1094.76 500.34 L1094.38 504.065 L1094.19 507.772 L1094.19 511.035 L1094.19 511.035  Z" fill="#ffff00" fill-rule="evenodd" fill-opacity="1"/>
<polyline clip-path="url(#clip472)" style="stroke:#000000; stroke-linecap:round; stroke-linejoin:round; stroke-width:4; stroke-opacity:1; fill:none" points="1094.19,511.035 1094.31,513.86 1094.53,516.67 1094.87,519.465 1095.31,522.242 1095.87,525.001 1096.54,527.741 1097.32,530.459 1098.21,533.156 1099.21,535.829 1100.32,538.478 1101.54,541.101 1102.87,543.697 1104.3,546.265 1105.84,548.804 1107.49,551.312 1109.25,553.789 1111.11,556.233 1113.07,558.644 1115.14,561.019 1117.31,563.358 1119.58,565.661 1121.95,567.925 1124.42,570.15 1126.99,572.335 1129.65,574.479 1132.41,576.58 1135.27,578.639 1138.22,580.653 1141.26,582.623 1144.39,584.547 1147.61,586.424 1150.91,588.253 1154.31,590.034 1157.78,591.766 1161.34,593.448 1166.81,595.895 1174.41,598.95 1182.3,601.792 1190.49,604.416 1198.95,606.816 1207.66,608.99 1216.62,610.931 1225.8,612.638 1235.18,614.107 1244.76,615.335 1254.51,616.321 1264.41,617.061 1274.46,617.556 1284.62,617.803 1293.08,617.803 1299.78,617.699 1306.51,617.49 1313.27,617.177 1320.05,616.76 1326.84,616.239 1333.65,615.615 1340.45,614.888 1347.26,614.059 1354.06,613.129 1360.85,612.097 1367.63,610.966 1374.38,609.735 1381.1,608.406 1387.8,606.979 1394.45,605.457 1401.07,603.84 1407.63,602.129 1414.15,600.325 1420.6,598.431 1427,596.446 1433.33,594.374 1439.58,592.216 1445.76,589.972 1451.86,587.646 1457.87,585.238 1463.79,582.751 1469.61,580.187 1475.33,577.547 1480.95,574.833 1486.46,572.048 1491.86,569.194 1497.14,566.273 1502.3,563.286 1507.34,560.238 1512.24,557.129 1517.01,553.962 1521.65,550.74 1526.14,547.466 1530.5,544.14 1534.7,540.767 1538.76,537.349 1542.66,533.889 1546.4,530.388 1549.99,526.85 1553.41,523.278 1556.67,519.674 1559.77,516.041 1562.69,512.382 1565.44,508.699 1568.02,504.996 1570.42,501.275 1572.65,497.54 1574.69,493.792 1576.56,490.036 1578.24,486.273 1579.74,482.507 1581.05,478.741 1582.18,474.977 1583.12,471.219 1583.87,467.469 1584.44,463.73 1584.82,460.006 1585.01,456.298 1585.01,453.035 1584.89,450.21 1584.67,447.4 1584.34,444.606 1583.89,441.828 1583.33,439.069 1582.66,436.33 1581.88,433.611 1580.99,430.914 1579.99,428.241 1578.88,425.592 1577.66,422.969 1576.33,420.373 1574.9,417.805 1573.36,415.266 1571.71,412.758 1569.95,410.281 1568.09,407.837 1566.13,405.427 1564.06,403.051 1561.89,400.712 1559.62,398.41 1557.25,396.146 1554.78,393.92 1552.21,391.736 1549.55,389.592 1546.79,387.49 1543.93,385.432 1540.98,383.417 1537.94,381.447 1534.81,379.524 1531.59,377.647 1528.29,375.817 1524.89,374.036 1521.42,372.304 1517.86,370.622 1512.39,368.175 1504.8,365.12 1496.9,362.278 1488.71,359.655 1480.25,357.254 1471.54,355.081 1462.58,353.139 1453.4,351.432 1444.02,349.963 1434.44,348.735 1424.69,347.75 1414.79,347.009 1404.74,346.515 1394.58,346.267 1386.12,346.267 1379.42,346.372 1372.69,346.581 1365.93,346.894 1359.15,347.311 1352.36,347.831 1345.55,348.455 1338.75,349.182 1331.94,350.011 1325.14,350.942 1318.35,351.973 1311.57,353.105 1304.82,354.336 1298.1,355.665 1291.4,357.091 1284.75,358.613 1278.13,360.231 1271.57,361.942 1265.05,363.745 1258.6,365.64 1252.2,367.624 1245.87,369.696 1239.62,371.855 1233.44,374.098 1227.34,376.424 1221.33,378.832 1215.41,381.319 1209.59,383.884 1203.87,386.524 1198.25,389.237 1192.74,392.022 1187.34,394.876 1182.06,397.798 1176.9,400.784 1171.86,403.833 1166.96,406.941 1162.19,410.108 1157.55,413.33 1153.06,416.605 1148.7,419.93 1144.5,423.303 1140.44,426.721 1136.54,430.182 1132.8,433.682 1129.21,437.22 1125.79,440.793 1122.53,444.397 1119.43,448.03 1116.51,451.689 1113.76,455.371 1111.18,459.074 1108.78,462.795 1106.55,466.53 1104.51,470.278 1102.64,474.034 1100.96,477.797 1099.46,481.563 1098.15,485.329 1097.02,489.093 1096.08,492.851 1095.33,496.601 1094.76,500.34 1094.38,504.065 1094.19,507.772 1094.19,511.035 "/>
<path clip-path="url(#clip472)" d="M1524.56 218.716 L1524.87 222.675 L1525.5 226.729 L1526.43 230.873 L1527.68 235.103 L1529.23 239.412 L1531.09 243.796 L1533.26 248.251 L1535.73 252.769 L1538.49 257.346 L1541.56 261.977 L1544.91 266.655 L1548.55 271.375 L1552.48 276.132 L1556.68 280.919 L1561.16 285.732 L1565.91 290.563 L1570.91 295.407 L1576.18 300.26 L1581.69 305.113 L1587.45 309.962 L1593.45 314.802 L1599.67 319.625 L1606.12 324.426 L1612.78 329.2 L1619.65 333.94 L1626.71 338.642 L1633.96 343.299 L1641.4 347.905 L1649 352.455 L1656.77 356.945 L1664.69 361.367 L1672.75 365.717 L1680.95 369.99 L1689.27 374.18 L1697.71 378.283 L1706.25 382.293 L1714.88 386.206 L1723.6 390.017 L1732.38 393.721 L1741.23 397.314 L1750.13 400.792 L1759.07 404.15 L1768.04 407.384 L1777.03 410.49 L1786.03 413.465 L1795.02 416.306 L1804.01 419.008 L1812.96 421.568 L1821.88 423.983 L1830.76 426.251 L1839.57 428.369 L1848.32 430.333 L1857 432.143 L1865.58 433.795 L1874.06 435.287 L1882.44 436.618 L1890.7 437.787 L1898.82 438.791 L1906.81 439.629 L1914.65 440.301 L1922.33 440.806 L1929.85 441.143 L1937.19 441.311 L1943.72 441.311 L1949.51 441.196 L1955.15 440.966 L1960.66 440.62 L1966.02 440.16 L1971.23 439.586 L1976.28 438.897 L1981.18 438.096 L1985.91 437.181 L1990.48 436.155 L1994.87 435.018 L1999.09 433.771 L2003.13 432.415 L2007 430.951 L2010.67 429.38 L2014.16 427.703 L2017.46 425.923 L2020.57 424.04 L2023.48 422.056 L2026.2 419.973 L2028.71 417.792 L2031.02 415.515 L2033.13 413.144 L2035.03 410.681 L2036.73 408.128 L2038.22 405.487 L2039.49 402.76 L2040.56 399.95 L2041.41 397.059 L2042.05 394.089 L2042.48 391.043 L2042.69 387.923 L2042.69 384.397 L2042.38 380.439 L2041.75 376.385 L2040.82 372.241 L2039.57 368.011 L2038.02 363.702 L2036.16 359.317 L2033.99 354.863 L2031.52 350.345 L2028.76 345.768 L2025.69 341.137 L2022.34 336.459 L2018.7 331.739 L2014.77 326.982 L2010.57 322.194 L2006.09 317.382 L2001.35 312.551 L1996.34 307.706 L1991.07 302.854 L1985.56 298.001 L1979.8 293.151 L1973.8 288.312 L1967.58 283.489 L1961.13 278.688 L1954.47 273.914 L1947.61 269.173 L1940.54 264.472 L1933.29 259.815 L1925.85 255.209 L1918.25 250.658 L1910.48 246.169 L1902.56 241.747 L1894.5 237.397 L1886.3 233.124 L1877.98 228.933 L1869.54 224.831 L1861 220.82 L1852.37 216.908 L1843.66 213.097 L1834.87 209.393 L1826.02 205.8 L1817.12 202.322 L1808.18 198.964 L1799.21 195.73 L1790.22 192.623 L1781.22 189.648 L1772.23 186.808 L1763.25 184.106 L1754.29 181.546 L1745.37 179.13 L1736.49 176.862 L1727.68 174.745 L1718.93 172.78 L1710.25 170.971 L1701.67 169.319 L1693.19 167.827 L1684.81 166.495 L1676.55 165.327 L1668.43 164.323 L1660.44 163.485 L1652.6 162.812 L1644.92 162.308 L1637.4 161.971 L1630.06 161.802 L1623.53 161.802 L1617.74 161.918 L1612.1 162.148 L1606.59 162.494 L1601.23 162.954 L1596.02 163.528 L1590.97 164.216 L1586.07 165.018 L1581.34 165.932 L1576.78 166.958 L1572.38 168.095 L1568.16 169.343 L1564.12 170.699 L1560.25 172.163 L1556.58 173.734 L1553.09 175.41 L1549.79 177.191 L1546.68 179.074 L1543.77 181.058 L1541.05 183.141 L1538.54 185.322 L1536.23 187.599 L1534.12 189.97 L1532.22 192.433 L1530.52 194.986 L1529.04 197.627 L1527.76 200.353 L1526.69 203.163 L1525.84 206.055 L1525.2 209.025 L1524.77 212.071 L1524.56 215.191 L1524.56 218.716 L1524.56 218.716  Z" fill="#ffff00" fill-rule="evenodd" fill-opacity="1"/>
<polyline clip-path="url(#clip472)" style="stroke:#000000; stroke-linecap:round; stroke-linejoin:round; stroke-width:4; stroke-opacity:1; fill:none" points="1524.56,218.716 1524.87,222.675 1525.5,226.729 1526.43,230.873 1527.68,235.103 1529.23,239.412 1531.09,243.796 1533.26,248.251 1535.73,252.769 1538.49,257.346 1541.56,261.977 1544.91,266.655 1548.55,271.375 1552.48,276.132 1556.68,280.919 1561.16,285.732 1565.91,290.563 1570.91,295.407 1576.18,300.26 1581.69,305.113 1587.45,309.962 1593.45,314.802 1599.67,319.625 1606.12,324.426 1612.78,329.2 1619.65,333.94 1626.71,338.642 1633.96,343.299 1641.4,347.905 1649,352.455 1656.77,356.945 1664.69,361.367 1672.75,365.717 1680.95,369.99 1689.27,374.18 1697.71,378.283 1706.25,382.293 1714.88,386.206 1723.6,390.017 1732.38,393.721 1741.23,397.314 1750.13,400.792 1759.07,404.15 1768.04,407.384 1777.03,410.49 1786.03,413.465 1795.02,416.306 1804.01,419.008 1812.96,421.568 1821.88,423.983 1830.76,426.251 1839.57,428.369 1848.32,430.333 1857,432.143 1865.58,433.795 1874.06,435.287 1882.44,436.618 1890.7,437.787 1898.82,438.791 1906.81,439.629 1914.65,440.301 1922.33,440.806 1929.85,441.143 1937.19,441.311 1943.72,441.311 1949.51,441.196 1955.15,440.966 1960.66,440.62 1966.02,440.16 1971.23,439.586 1976.28,438.897 1981.18,438.096 1985.91,437.181 1990.48,436.155 1994.87,435.018 1999.09,433.771 2003.13,432.415 2007,430.951 2010.67,429.38 2014.16,427.703 2017.46,425.923 2020.57,424.04 2023.48,422.056 2026.2,419.973 2028.71,417.792 2031.02,415.515 2033.13,413.144 2035.03,410.681 2036.73,408.128 2038.22,405.487 2039.49,402.76 2040.56,399.95 2041.41,397.059 2042.05,394.089 2042.48,391.043 2042.69,387.923 2042.69,384.397 2042.38,380.439 2041.75,376.385 2040.82,372.241 2039.57,368.011 2038.02,363.702 2036.16,359.317 2033.99,354.863 2031.52,350.345 2028.76,345.768 2025.69,341.137 2022.34,336.459 2018.7,331.739 2014.77,326.982 2010.57,322.194 2006.09,317.382 2001.35,312.551 1996.34,307.706 1991.07,302.854 1985.56,298.001 1979.8,293.151 1973.8,288.312 1967.58,283.489 1961.13,278.688 1954.47,273.914 1947.61,269.173 1940.54,264.472 1933.29,259.815 1925.85,255.209 1918.25,250.658 1910.48,246.169 1902.56,241.747 1894.5,237.397 1886.3,233.124 1877.98,228.933 1869.54,224.831 1861,220.82 1852.37,216.908 1843.66,213.097 1834.87,209.393 1826.02,205.8 1817.12,202.322 1808.18,198.964 1799.21,195.73 1790.22,192.623 1781.22,189.648 1772.23,186.808 1763.25,184.106 1754.29,181.546 1745.37,179.13 1736.49,176.862 1727.68,174.745 1718.93,172.78 1710.25,170.971 1701.67,169.319 1693.19,167.827 1684.81,166.495 1676.55,165.327 1668.43,164.323 1660.44,163.485 1652.6,162.812 1644.92,162.308 1637.4,161.971 1630.06,161.802 1623.53,161.802 1617.74,161.918 1612.1,162.148 1606.59,162.494 1601.23,162.954 1596.02,163.528 1590.97,164.216 1586.07,165.018 1581.34,165.932 1576.78,166.958 1572.38,168.095 1568.16,169.343 1564.12,170.699 1560.25,172.163 1556.58,173.734 1553.09,175.41 1549.79,177.191 1546.68,179.074 1543.77,181.058 1541.05,183.141 1538.54,185.322 1536.23,187.599 1534.12,189.97 1532.22,192.433 1530.52,194.986 1529.04,197.627 1527.76,200.353 1526.69,203.163 1525.84,206.055 1525.2,209.025 1524.77,212.071 1524.56,215.191 1524.56,218.716 "/>
<path clip-path="url(#clip472)" d="M1257.82 525.157 L1257.82 527.646 L1257.93 530.1 L1258.14 532.55 L1258.46 534.995 L1258.88 537.434 L1259.41 539.865 L1260.04 542.287 L1260.78 544.699 L1261.62 547.098 L1262.57 549.484 L1263.61 551.856 L1264.76 554.211 L1266.02 556.549 L1267.37 558.867 L1268.82 561.166 L1270.38 563.443 L1272.03 565.696 L1273.78 567.926 L1275.62 570.13 L1277.56 572.307 L1279.6 574.456 L1281.72 576.575 L1283.94 578.664 L1286.25 580.721 L1289.85 583.757 L1295 587.666 L1300.48 591.426 L1306.29 595.029 L1312.41 598.466 L1318.82 601.729 L1325.51 604.81 L1332.47 607.702 L1339.67 610.399 L1347.11 612.894 L1354.76 615.181 L1362.6 617.255 L1370.62 619.111 L1378.81 620.744 L1387.13 622.152 L1395.57 623.33 L1404.11 624.275 L1412.73 624.986 L1421.42 625.461 L1430.14 625.699 L1439 625.699 L1447.98 625.448 L1456.93 624.947 L1465.84 624.196 L1474.68 623.198 L1483.44 621.956 L1492.08 620.471 L1500.58 618.748 L1508.94 616.792 L1517.11 614.607 L1525.1 612.198 L1532.87 609.571 L1540.4 606.733 L1547.68 603.691 L1554.7 600.453 L1561.42 597.026 L1567.84 593.419 L1573.94 589.641 L1578.26 586.686 L1581.05 584.678 L1583.76 582.632 L1586.38 580.55 L1588.9 578.434 L1591.33 576.284 L1593.67 574.101 L1595.91 571.888 L1598.05 569.646 L1600.1 567.375 L1602.04 565.077 L1603.88 562.755 L1605.63 560.408 L1607.26 558.04 L1608.8 555.65 L1610.22 553.241 L1611.54 550.814 L1612.76 548.37 L1613.86 545.912 L1614.86 543.44 L1615.75 540.956 L1616.53 538.462 L1617.19 535.959 L1617.75 533.449 L1618.2 530.933 L1618.53 528.414 L1618.75 525.891 L1618.87 523.368 L1618.87 520.879 L1618.76 518.425 L1618.55 515.975 L1618.23 513.53 L1617.81 511.091 L1617.28 508.659 L1616.65 506.237 L1615.91 503.826 L1615.07 501.426 L1614.12 499.04 L1613.08 496.669 L1611.93 494.314 L1610.67 491.976 L1609.32 489.657 L1607.87 487.359 L1606.32 485.082 L1604.66 482.828 L1602.92 480.599 L1601.07 478.395 L1599.13 476.218 L1597.09 474.069 L1594.97 471.949 L1592.75 469.86 L1590.44 467.803 L1586.84 464.767 L1581.69 460.859 L1576.21 457.098 L1570.4 453.496 L1564.28 450.059 L1557.87 446.796 L1551.18 443.715 L1544.22 440.822 L1537.02 438.126 L1529.58 435.631 L1521.93 433.344 L1514.09 431.27 L1506.07 429.414 L1497.88 427.78 L1489.56 426.373 L1481.12 425.195 L1472.58 424.249 L1463.96 423.538 L1455.27 423.063 L1446.55 422.825 L1437.69 422.825 L1428.71 423.076 L1419.76 423.578 L1410.85 424.328 L1402.01 425.326 L1393.25 426.569 L1384.61 428.054 L1376.11 429.776 L1367.75 431.733 L1359.58 433.918 L1351.59 436.327 L1343.82 438.954 L1336.29 441.791 L1329.01 444.833 L1321.99 448.072 L1315.27 451.498 L1308.85 455.105 L1302.75 458.884 L1298.43 461.838 L1295.64 463.847 L1292.93 465.892 L1290.31 467.974 L1287.79 470.091 L1285.36 472.241 L1283.02 474.423 L1280.78 476.636 L1278.64 478.879 L1276.59 481.15 L1274.65 483.447 L1272.81 485.77 L1271.06 488.116 L1269.43 490.485 L1267.9 492.875 L1266.47 495.284 L1265.15 497.711 L1263.93 500.155 L1262.83 502.613 L1261.83 505.085 L1260.94 507.569 L1260.17 510.063 L1259.5 512.565 L1258.94 515.075 L1258.49 517.591 L1258.16 520.111 L1257.94 522.633 L1257.82 525.157 L1257.82 525.157  Z" fill="#ffff00" fill-rule="evenodd" fill-opacity="1"/>
<polyline clip-path="url(#clip472)" style="stroke:#000000; stroke-linecap:round; stroke-linejoin:round; stroke-width:4; stroke-opacity:1; fill:none" points="1257.82,525.157 1257.82,527.646 1257.93,530.1 1258.14,532.55 1258.46,534.995 1258.88,537.434 1259.41,539.865 1260.04,542.287 1260.78,544.699 1261.62,547.098 1262.57,549.484 1263.61,551.856 1264.76,554.211 1266.02,556.549 1267.37,558.867 1268.82,561.166 1270.38,563.443 1272.03,565.696 1273.78,567.926 1275.62,570.13 1277.56,572.307 1279.6,574.456 1281.72,576.575 1283.94,578.664 1286.25,580.721 1289.85,583.757 1295,587.666 1300.48,591.426 1306.29,595.029 1312.41,598.466 1318.82,601.729 1325.51,604.81 1332.47,607.702 1339.67,610.399 1347.11,612.894 1354.76,615.181 1362.6,617.255 1370.62,619.111 1378.81,620.744 1387.13,622.152 1395.57,623.33 1404.11,624.275 1412.73,624.986 1421.42,625.461 1430.14,625.699 1439,625.699 1447.98,625.448 1456.93,624.947 1465.84,624.196 1474.68,623.198 1483.44,621.956 1492.08,620.471 1500.58,618.748 1508.94,616.792 1517.11,614.607 1525.1,612.198 1532.87,609.571 1540.4,606.733 1547.68,603.691 1554.7,600.453 1561.42,597.026 1567.84,593.419 1573.94,589.641 1578.26,586.686 1581.05,584.678 1583.76,582.632 1586.38,580.55 1588.9,578.434 1591.33,576.284 1593.67,574.101 1595.91,571.888 1598.05,569.646 1600.1,567.375 1602.04,565.077 1603.88,562.755 1605.63,560.408 1607.26,558.04 1608.8,555.65 1610.22,553.241 1611.54,550.814 1612.76,548.37 1613.86,545.912 1614.86,543.44 1615.75,540.956 1616.53,538.462 1617.19,535.959 1617.75,533.449 1618.2,530.933 1618.53,528.414 1618.75,525.891 1618.87,523.368 1618.87,520.879 1618.76,518.425 1618.55,515.975 1618.23,513.53 1617.81,511.091 1617.28,508.659 1616.65,506.237 1615.91,503.826 1615.07,501.426 1614.12,499.04 1613.08,496.669 1611.93,494.314 1610.67,491.976 1609.32,489.657 1607.87,487.359 1606.32,485.082 1604.66,482.828 1602.92,480.599 1601.07,478.395 1599.13,476.218 1597.09,474.069 1594.97,471.949 1592.75,469.86 1590.44,467.803 1586.84,464.767 1581.69,460.859 1576.21,457.098 1570.4,453.496 1564.28,450.059 1557.87,446.796 1551.18,443.715 1544.22,440.822 1537.02,438.126 1529.58,435.631 1521.93,433.344 1514.09,431.27 1506.07,429.414 1497.88,427.78 1489.56,426.373 1481.12,425.195 1472.58,424.249 1463.96,423.538 1455.27,423.063 1446.55,422.825 1437.69,422.825 1428.71,423.076 1419.76,423.578 1410.85,424.328 1402.01,425.326 1393.25,426.569 1384.61,428.054 1376.11,429.776 1367.75,431.733 1359.58,433.918 1351.59,436.327 1343.82,438.954 1336.29,441.791 1329.01,444.833 1321.99,448.072 1315.27,451.498 1308.85,455.105 1302.75,458.884 1298.43,461.838 1295.64,463.847 1292.93,465.892 1290.31,467.974 1287.79,470.091 1285.36,472.241 1283.02,474.423 1280.78,476.636 1278.64,478.879 1276.59,481.15 1274.65,483.447 1272.81,485.77 1271.06,488.116 1269.43,490.485 1267.9,492.875 1266.47,495.284 1265.15,497.711 1263.93,500.155 1262.83,502.613 1261.83,505.085 1260.94,507.569 1260.17,510.063 1259.5,512.565 1258.94,515.075 1258.49,517.591 1258.16,520.111 1257.94,522.633 1257.82,525.157 "/>
<path clip-path="url(#clip472)" d="M1427.66 594.939 L1427.8 597.947 L1428.07 600.909 L1428.49 603.822 L1429.04 606.68 L1429.72 609.479 L1430.55 612.216 L1431.5 614.884 L1432.59 617.481 L1433.8 620.003 L1435.15 622.445 L1436.62 624.803 L1438.22 627.074 L1439.94 629.255 L1441.78 631.341 L1443.73 633.33 L1445.8 635.219 L1447.97 637.005 L1450.25 638.684 L1452.64 640.255 L1455.13 641.714 L1457.71 643.06 L1460.38 644.29 L1463.14 645.403 L1465.98 646.397 L1468.9 647.27 L1471.89 648.02 L1474.95 648.648 L1478.08 649.151 L1481.27 649.529 L1484.51 649.781 L1487.8 649.907 L1491.94 649.907 L1496.98 649.629 L1502.09 649.072 L1507.24 648.24 L1512.43 647.135 L1517.63 645.76 L1522.82 644.122 L1527.99 642.224 L1533.12 640.075 L1538.19 637.68 L1543.19 635.049 L1548.1 632.19 L1552.89 629.114 L1557.56 625.83 L1562.08 622.351 L1566.45 618.688 L1570.65 614.854 L1574.65 610.861 L1578.46 606.725 L1582.05 602.458 L1585.42 598.076 L1588.55 593.594 L1591.42 589.027 L1594.04 584.391 L1596.4 579.702 L1598.47 574.975 L1600.26 570.228 L1601.77 565.477 L1602.98 560.737 L1603.89 556.026 L1604.5 551.359 L1604.8 546.753 L1604.8 542.964 L1604.66 539.957 L1604.39 536.994 L1603.97 534.082 L1603.42 531.223 L1602.74 528.424 L1601.92 525.688 L1600.96 523.019 L1599.87 520.422 L1598.66 517.901 L1597.31 515.459 L1595.84 513.1 L1594.24 510.829 L1592.52 508.649 L1590.69 506.562 L1588.73 504.573 L1586.67 502.684 L1584.49 500.899 L1582.21 499.219 L1579.82 497.649 L1577.34 496.189 L1574.76 494.843 L1572.08 493.613 L1569.33 492.5 L1566.48 491.507 L1563.56 490.634 L1560.57 489.883 L1557.51 489.256 L1554.38 488.753 L1551.19 488.375 L1547.95 488.122 L1544.66 487.996 L1540.52 487.996 L1535.48 488.275 L1530.37 488.831 L1525.22 489.663 L1520.03 490.769 L1514.83 492.143 L1509.64 493.782 L1504.47 495.679 L1499.34 497.829 L1494.27 500.223 L1489.27 502.854 L1484.37 505.713 L1479.57 508.789 L1474.9 512.073 L1470.38 515.552 L1466.01 519.215 L1461.82 523.05 L1457.81 527.042 L1454 531.178 L1450.41 535.445 L1447.04 539.827 L1443.92 544.309 L1441.04 548.876 L1438.42 553.512 L1436.07 558.202 L1433.99 562.928 L1432.2 567.675 L1430.69 572.427 L1429.48 577.166 L1428.57 581.877 L1427.96 586.544 L1427.66 591.15 L1427.66 594.939 L1427.66 594.939  Z" fill="#ffff00" fill-rule="evenodd" fill-opacity="1"/>
<polyline clip-path="url(#clip472)" style="stroke:#000000; stroke-linecap:round; stroke-linejoin:round; stroke-width:4; stroke-opacity:1; fill:none" points="1427.66,594.939 1427.8,597.947 1428.07,600.909 1428.49,603.822 1429.04,606.68 1429.72,609.479 1430.55,612.216 1431.5,614.884 1432.59,617.481 1433.8,620.003 1435.15,622.445 1436.62,624.803 1438.22,627.074 1439.94,629.255 1441.78,631.341 1443.73,633.33 1445.8,635.219 1447.97,637.005 1450.25,638.684 1452.64,640.255 1455.13,641.714 1457.71,643.06 1460.38,644.29 1463.14,645.403 1465.98,646.397 1468.9,647.27 1471.89,648.02 1474.95,648.648 1478.08,649.151 1481.27,649.529 1484.51,649.781 1487.8,649.907 1491.94,649.907 1496.98,649.629 1502.09,649.072 1507.24,648.24 1512.43,647.135 1517.63,645.76 1522.82,644.122 1527.99,642.224 1533.12,640.075 1538.19,637.68 1543.19,635.049 1548.1,632.19 1552.89,629.114 1557.56,625.83 1562.08,622.351 1566.45,618.688 1570.65,614.854 1574.65,610.861 1578.46,606.725 1582.05,602.458 1585.42,598.076 1588.55,593.594 1591.42,589.027 1594.04,584.391 1596.4,579.702 1598.47,574.975 1600.26,570.228 1601.77,565.477 1602.98,560.737 1603.89,556.026 1604.5,551.359 1604.8,546.753 1604.8,542.964 1604.66,539.957 1604.39,536.994 1603.97,534.082 1603.42,531.223 1602.74,528.424 1601.92,525.688 1600.96,523.019 1599.87,520.422 1598.66,517.901 1597.31,515.459 1595.84,513.1 1594.24,510.829 1592.52,508.649 1590.69,506.562 1588.73,504.573 1586.67,502.684 1584.49,500.899 1582.21,499.219 1579.82,497.649 1577.34,496.189 1574.76,494.843 1572.08,493.613 1569.33,492.5 1566.48,491.507 1563.56,490.634 1560.57,489.883 1557.51,489.256 1554.38,488.753 1551.19,488.375 1547.95,488.122 1544.66,487.996 1540.52,487.996 1535.48,488.275 1530.37,488.831 1525.22,489.663 1520.03,490.769 1514.83,492.143 1509.64,493.782 1504.47,495.679 1499.34,497.829 1494.27,500.223 1489.27,502.854 1484.37,505.713 1479.57,508.789 1474.9,512.073 1470.38,515.552 1466.01,519.215 1461.82,523.05 1457.81,527.042 1454,531.178 1450.41,535.445 1447.04,539.827 1443.92,544.309 1441.04,548.876 1438.42,553.512 1436.07,558.202 1433.99,562.928 1432.2,567.675 1430.69,572.427 1429.48,577.166 1428.57,581.877 1427.96,586.544 1427.66,591.15 1427.66,594.939 "/>
<path clip-path="url(#clip472)" d="M1444.79 618.722 L1445.01 621.807 L1445.46 624.769 L1446.12 627.592 L1447 630.262 L1448.1 632.763 L1449.39 635.082 L1450.89 637.206 L1452.58 639.124 L1454.44 640.826 L1456.48 642.302 L1458.68 643.545 L1461.03 644.547 L1463.51 645.304 L1466.12 645.81 L1468.83 646.064 L1471.4 646.064 L1473.79 645.888 L1476.24 645.535 L1478.71 645.007 L1481.22 644.307 L1483.74 643.436 L1486.28 642.399 L1488.81 641.198 L1491.33 639.839 L1493.83 638.327 L1496.3 636.667 L1498.74 634.866 L1501.12 632.93 L1503.45 630.867 L1505.71 628.685 L1507.9 626.391 L1510.01 623.994 L1512.03 621.504 L1513.95 618.929 L1515.76 616.28 L1517.46 613.567 L1519.05 610.799 L1520.5 607.987 L1521.83 605.142 L1523.03 602.274 L1524.08 599.394 L1525 596.513 L1525.76 593.642 L1526.38 590.792 L1526.84 587.973 L1527.15 585.197 L1527.31 582.473 L1527.31 579.546 L1527.08 576.462 L1526.64 573.499 L1525.97 570.676 L1525.09 568.007 L1524 565.506 L1522.7 563.187 L1521.21 561.062 L1519.52 559.144 L1517.65 557.442 L1515.61 555.966 L1513.41 554.723 L1511.07 553.721 L1508.58 552.965 L1505.98 552.458 L1503.27 552.204 L1500.7 552.204 L1498.3 552.381 L1495.86 552.734 L1493.38 553.261 L1490.88 553.962 L1488.35 554.832 L1485.82 555.87 L1483.29 557.07 L1480.77 558.429 L1478.27 559.941 L1475.79 561.601 L1473.36 563.402 L1470.97 565.338 L1468.65 567.401 L1466.38 569.584 L1464.19 571.878 L1462.09 574.274 L1460.07 576.765 L1458.15 579.339 L1456.34 581.988 L1454.63 584.702 L1453.05 587.47 L1451.59 590.282 L1450.26 593.127 L1449.07 595.995 L1448.01 598.875 L1447.1 601.755 L1446.33 604.626 L1445.72 607.476 L1445.25 610.295 L1444.94 613.072 L1444.79 615.796 L1444.79 618.722 L1444.79 618.722  Z" fill="#ffff00" fill-rule="evenodd" fill-opacity="1"/>
<polyline clip-path="url(#clip472)" style="stroke:#000000; stroke-linecap:round; stroke-linejoin:round; stroke-width:4; stroke-opacity:1; fill:none" points="1444.79,618.722 1445.01,621.807 1445.46,624.769 1446.12,627.592 1447,630.262 1448.1,632.763 1449.39,635.082 1450.89,637.206 1452.58,639.124 1454.44,640.826 1456.48,642.302 1458.68,643.545 1461.03,644.547 1463.51,645.304 1466.12,645.81 1468.83,646.064 1471.4,646.064 1473.79,645.888 1476.24,645.535 1478.71,645.007 1481.22,644.307 1483.74,643.436 1486.28,642.399 1488.81,641.198 1491.33,639.839 1493.83,638.327 1496.3,636.667 1498.74,634.866 1501.12,632.93 1503.45,630.867 1505.71,628.685 1507.9,626.391 1510.01,623.994 1512.03,621.504 1513.95,618.929 1515.76,616.28 1517.46,613.567 1519.05,610.799 1520.5,607.987 1521.83,605.142 1523.03,602.274 1524.08,599.394 1525,596.513 1525.76,593.642 1526.38,590.792 1526.84,587.973 1527.15,585.197 1527.31,582.473 1527.31,579.546 1527.08,576.462 1526.64,573.499 1525.97,570.676 1525.09,568.007 1524,565.506 1522.7,563.187 1521.21,561.062 1519.52,559.144 1517.65,557.442 1515.61,555.966 1513.41,554.723 1511.07,553.721 1508.58,552.965 1505.98,552.458 1503.27,552.204 1500.7,552.204 1498.3,552.381 1495.86,552.734 1493.38,553.261 1490.88,553.962 1488.35,554.832 1485.82,555.87 1483.29,557.07 1480.77,558.429 1478.27,559.941 1475.79,561.601 1473.36,563.402 1470.97,565.338 1468.65,567.401 1466.38,569.584 1464.19,571.878 1462.09,574.274 1460.07,576.765 1458.15,579.339 1456.34,581.988 1454.63,584.702 1453.05,587.47 1451.59,590.282 1450.26,593.127 1449.07,595.995 1448.01,598.875 1447.1,601.755 1446.33,604.626 1445.72,607.476 1445.25,610.295 1444.94,613.072 1444.79,615.796 1444.79,618.722 "/>
<path clip-path="url(#clip472)" d="M1753.56 479.451 L1753.67 481.771 L1753.9 484.082 L1754.24 486.38 L1754.69 488.658 L1755.26 490.911 L1755.93 493.134 L1756.72 495.321 L1757.6 497.467 L1758.6 499.567 L1759.69 501.616 L1760.89 503.608 L1762.18 505.54 L1763.56 507.405 L1765.03 509.201 L1766.59 510.922 L1768.24 512.565 L1769.96 514.124 L1771.75 515.598 L1773.62 516.982 L1775.55 518.272 L1777.54 519.467 L1779.59 520.561 L1781.69 521.555 L1783.84 522.444 L1786.02 523.226 L1788.25 523.9 L1790.5 524.465 L1792.78 524.918 L1795.08 525.259 L1797.39 525.486 L1799.71 525.6 L1802.03 525.6 L1804.35 525.486 L1806.66 525.259 L1808.96 524.918 L1811.24 524.465 L1813.49 523.9 L1815.71 523.226 L1817.9 522.444 L1820.05 521.555 L1822.15 520.561 L1824.2 519.467 L1826.19 518.272 L1828.12 516.982 L1829.99 515.598 L1831.78 514.124 L1833.5 512.565 L1835.15 510.922 L1836.71 509.201 L1838.18 507.405 L1839.56 505.54 L1840.85 503.608 L1842.05 501.616 L1843.14 499.567 L1844.14 497.467 L1845.02 495.321 L1845.81 493.134 L1846.48 490.911 L1847.05 488.658 L1847.5 486.38 L1847.84 484.082 L1848.07 481.771 L1848.18 479.451 L1848.18 477.128 L1848.07 474.808 L1847.84 472.496 L1847.5 470.198 L1847.05 467.92 L1846.48 465.667 L1845.81 463.444 L1845.02 461.257 L1844.14 459.111 L1843.14 457.011 L1842.05 454.962 L1840.85 452.97 L1839.56 451.039 L1838.18 449.173 L1836.71 447.377 L1835.15 445.656 L1833.5 444.014 L1831.78 442.454 L1829.99 440.98 L1828.12 439.596 L1826.19 438.306 L1824.2 437.112 L1822.15 436.017 L1820.05 435.024 L1817.9 434.135 L1815.71 433.352 L1813.49 432.678 L1811.24 432.113 L1808.96 431.66 L1806.66 431.319 L1804.35 431.092 L1802.03 430.978 L1799.71 430.978 L1797.39 431.092 L1795.08 431.319 L1792.78 431.66 L1790.5 432.113 L1788.25 432.678 L1786.02 433.352 L1783.84 434.135 L1781.69 435.024 L1779.59 436.017 L1777.54 437.112 L1775.55 438.306 L1773.62 439.596 L1771.75 440.98 L1769.96 442.454 L1768.24 444.014 L1766.59 445.656 L1765.03 447.377 L1763.56 449.173 L1762.18 451.039 L1760.89 452.97 L1759.69 454.962 L1758.6 457.011 L1757.6 459.111 L1756.72 461.257 L1755.93 463.444 L1755.26 465.667 L1754.69 467.92 L1754.24 470.198 L1753.9 472.496 L1753.67 474.808 L1753.56 477.128 L1753.56 479.451 L1753.56 479.451  Z" fill="#ffff00" fill-rule="evenodd" fill-opacity="1"/>
<polyline clip-path="url(#clip472)" style="stroke:#000000; stroke-linecap:round; stroke-linejoin:round; stroke-width:4; stroke-opacity:1; fill:none" points="1753.56,479.451 1753.67,481.771 1753.9,484.082 1754.24,486.38 1754.69,488.658 1755.26,490.911 1755.93,493.134 1756.72,495.321 1757.6,497.467 1758.6,499.567 1759.69,501.616 1760.89,503.608 1762.18,505.54 1763.56,507.405 1765.03,509.201 1766.59,510.922 1768.24,512.565 1769.96,514.124 1771.75,515.598 1773.62,516.982 1775.55,518.272 1777.54,519.467 1779.59,520.561 1781.69,521.555 1783.84,522.444 1786.02,523.226 1788.25,523.9 1790.5,524.465 1792.78,524.918 1795.08,525.259 1797.39,525.486 1799.71,525.6 1802.03,525.6 1804.35,525.486 1806.66,525.259 1808.96,524.918 1811.24,524.465 1813.49,523.9 1815.71,523.226 1817.9,522.444 1820.05,521.555 1822.15,520.561 1824.2,519.467 1826.19,518.272 1828.12,516.982 1829.99,515.598 1831.78,514.124 1833.5,512.565 1835.15,510.922 1836.71,509.201 1838.18,507.405 1839.56,505.54 1840.85,503.608 1842.05,501.616 1843.14,499.567 1844.14,497.467 1845.02,495.321 1845.81,493.134 1846.48,490.911 1847.05,488.658 1847.5,486.38 1847.84,484.082 1848.07,481.771 1848.18,479.451 1848.18,477.128 1848.07,474.808 1847.84,472.496 1847.5,470.198 1847.05,467.92 1846.48,465.667 1845.81,463.444 1845.02,461.257 1844.14,459.111 1843.14,457.011 1842.05,454.962 1840.85,452.97 1839.56,451.039 1838.18,449.173 1836.71,447.377 1835.15,445.656 1833.5,444.014 1831.78,442.454 1829.99,440.98 1828.12,439.596 1826.19,438.306 1824.2,437.112 1822.15,436.017 1820.05,435.024 1817.9,434.135 1815.71,433.352 1813.49,432.678 1811.24,432.113 1808.96,431.66 1806.66,431.319 1804.35,431.092 1802.03,430.978 1799.71,430.978 1797.39,431.092 1795.08,431.319 1792.78,431.66 1790.5,432.113 1788.25,432.678 1786.02,433.352 1783.84,434.135 1781.69,435.024 1779.59,436.017 1777.54,437.112 1775.55,438.306 1773.62,439.596 1771.75,440.98 1769.96,442.454 1768.24,444.014 1766.59,445.656 1765.03,447.377 1763.56,449.173 1762.18,451.039 1760.89,452.97 1759.69,454.962 1758.6,457.011 1757.6,459.111 1756.72,461.257 1755.93,463.444 1755.26,465.667 1754.69,467.92 1754.24,470.198 1753.9,472.496 1753.67,474.808 1753.56,477.128 1753.56,479.451 "/>
<polyline clip-path="url(#clip472)" style="stroke:#000000; stroke-linecap:round; stroke-linejoin:round; stroke-width:4; stroke-opacity:1; fill:none" points="1516.23,568.952 1800.87,478.289 "/>
<path clip-path="url(#clip472)" d="M1766.57 489.215 L1761.1 472.064 L1800.87 478.289 L1772.03 506.366  Z" fill="#000000" fill-rule="evenodd" fill-opacity="1"/>
<polyline clip-path="url(#clip472)" style="stroke:#000000; stroke-linecap:round; stroke-linejoin:round; stroke-width:4; stroke-opacity:1; fill:none" points="1766.57,489.215 1516.23,568.952 "/>
<circle clip-path="url(#clip472)" cx="1516.23" cy="568.952" r="14.4" fill="#000000" fill-rule="evenodd" fill-opacity="0" stroke="none"/>
<circle clip-path="url(#clip472)" cx="1800.87" cy="478.289" r="14.4" fill="#000000" fill-rule="evenodd" fill-opacity="0" stroke="none"/>
<polyline clip-path="url(#clip472)" style="stroke:#000000; stroke-linecap:round; stroke-linejoin:round; stroke-width:4; stroke-opacity:1; fill:none" points="1783.63,301.557 1800.87,478.289 "/>
<path clip-path="url(#clip472)" d="M1797.37 442.459 L1815.29 440.711 L1800.87 478.289 L1779.46 444.207  Z" fill="#000000" fill-rule="evenodd" fill-opacity="1"/>
<polyline clip-path="url(#clip472)" style="stroke:#000000; stroke-linecap:round; stroke-linejoin:round; stroke-width:4; stroke-opacity:1; fill:none" points="1797.37,442.459 1783.63,301.557 "/>
<circle clip-path="url(#clip472)" cx="1783.63" cy="301.557" r="14.4" fill="#000000" fill-rule="evenodd" fill-opacity="0" stroke="none"/>
<circle clip-path="url(#clip472)" cx="1800.87" cy="478.289" r="14.4" fill="#000000" fill-rule="evenodd" fill-opacity="0" stroke="none"/>
<polyline clip-path="url(#clip472)" style="stroke:#000000; stroke-linecap:round; stroke-linejoin:round; stroke-width:4; stroke-opacity:1; fill:none" points="854.642,1424.52 663.928,1000.72 "/>
<path clip-path="url(#clip472)" d="M678.702 1033.55 L662.287 1040.94 L663.928 1000.72 L695.116 1026.17  Z" fill="#000000" fill-rule="evenodd" fill-opacity="1"/>
<polyline clip-path="url(#clip472)" style="stroke:#000000; stroke-linecap:round; stroke-linejoin:round; stroke-width:4; stroke-opacity:1; fill:none" points="678.702,1033.55 854.642,1424.52 "/>
<circle clip-path="url(#clip472)" cx="854.642" cy="1424.52" r="14.4" fill="#000000" fill-rule="evenodd" fill-opacity="0" stroke="none"/>
<circle clip-path="url(#clip472)" cx="663.928" cy="1000.72" r="14.4" fill="#000000" fill-rule="evenodd" fill-opacity="0" stroke="none"/>
<polyline clip-path="url(#clip472)" style="stroke:#000000; stroke-linecap:round; stroke-linejoin:round; stroke-width:4; stroke-opacity:1; fill:none" points="663.928,1000.72 836.75,816.64 "/>
<path clip-path="url(#clip472)" d="M812.109 842.886 L798.986 830.566 L836.75 816.64 L825.232 855.206  Z" fill="#000000" fill-rule="evenodd" fill-opacity="1"/>
<polyline clip-path="url(#clip472)" style="stroke:#000000; stroke-linecap:round; stroke-linejoin:round; stroke-width:4; stroke-opacity:1; fill:none" points="812.109,842.886 663.928,1000.72 "/>
<circle clip-path="url(#clip472)" cx="663.928" cy="1000.72" r="14.4" fill="#000000" fill-rule="evenodd" fill-opacity="0" stroke="none"/>
<circle clip-path="url(#clip472)" cx="836.75" cy="816.64" r="14.4" fill="#000000" fill-rule="evenodd" fill-opacity="0" stroke="none"/>
<polyline clip-path="url(#clip472)" style="stroke:#000000; stroke-linecap:round; stroke-linejoin:round; stroke-width:4; stroke-opacity:1; fill:none" points="836.75,816.64 938.979,738.351 "/>
<path clip-path="url(#clip472)" d="M910.398 760.24 L899.454 745.949 L938.979 738.351 L921.342 774.53  Z" fill="#000000" fill-rule="evenodd" fill-opacity="1"/>
<polyline clip-path="url(#clip472)" style="stroke:#000000; stroke-linecap:round; stroke-linejoin:round; stroke-width:4; stroke-opacity:1; fill:none" points="910.398,760.24 836.75,816.64 "/>
<circle clip-path="url(#clip472)" cx="836.75" cy="816.64" r="14.4" fill="#000000" fill-rule="evenodd" fill-opacity="0" stroke="none"/>
<circle clip-path="url(#clip472)" cx="938.979" cy="738.351" r="14.4" fill="#000000" fill-rule="evenodd" fill-opacity="0" stroke="none"/>
<polyline clip-path="url(#clip472)" style="stroke:#000000; stroke-linecap:round; stroke-linejoin:round; stroke-width:4; stroke-opacity:1; fill:none" points="938.979,738.351 1339.6,482.035 "/>
<path clip-path="url(#clip472)" d="M1309.28 501.437 L1299.57 486.274 L1339.6 482.035 L1318.98 516.599  Z" fill="#000000" fill-rule="evenodd" fill-opacity="1"/>
<polyline clip-path="url(#clip472)" style="stroke:#000000; stroke-linecap:round; stroke-linejoin:round; stroke-width:4; stroke-opacity:1; fill:none" points="1309.28,501.437 938.979,738.351 "/>
<circle clip-path="url(#clip472)" cx="938.979" cy="738.351" r="14.4" fill="#000000" fill-rule="evenodd" fill-opacity="0" stroke="none"/>
<circle clip-path="url(#clip472)" cx="1339.6" cy="482.035" r="14.4" fill="#000000" fill-rule="evenodd" fill-opacity="0" stroke="none"/>
<polyline clip-path="url(#clip472)" style="stroke:#000000; stroke-linecap:round; stroke-linejoin:round; stroke-width:4; stroke-opacity:1; fill:none" points="1339.6,482.035 1438.35,524.262 "/>
<path clip-path="url(#clip472)" d="M1405.24 510.107 L1412.32 493.557 L1438.35 524.262 L1398.17 526.657  Z" fill="#000000" fill-rule="evenodd" fill-opacity="1"/>
<polyline clip-path="url(#clip472)" style="stroke:#000000; stroke-linecap:round; stroke-linejoin:round; stroke-width:4; stroke-opacity:1; fill:none" points="1405.24,510.107 1339.6,482.035 "/>
<circle clip-path="url(#clip472)" cx="1339.6" cy="482.035" r="14.4" fill="#000000" fill-rule="evenodd" fill-opacity="0" stroke="none"/>
<circle clip-path="url(#clip472)" cx="1438.35" cy="524.262" r="14.4" fill="#000000" fill-rule="evenodd" fill-opacity="0" stroke="none"/>
<polyline clip-path="url(#clip472)" style="stroke:#000000; stroke-linecap:round; stroke-linejoin:round; stroke-width:4; stroke-opacity:1; fill:none" points="1438.35,524.262 1486.05,599.134 "/>
<path clip-path="url(#clip472)" d="M1466.7 568.773 L1481.88 559.101 L1486.05 599.134 L1451.52 578.445  Z" fill="#000000" fill-rule="evenodd" fill-opacity="1"/>
<polyline clip-path="url(#clip472)" style="stroke:#000000; stroke-linecap:round; stroke-linejoin:round; stroke-width:4; stroke-opacity:1; fill:none" points="1466.7,568.773 1438.35,524.262 "/>
<circle clip-path="url(#clip472)" cx="1438.35" cy="524.262" r="14.4" fill="#000000" fill-rule="evenodd" fill-opacity="0" stroke="none"/>
<circle clip-path="url(#clip472)" cx="1486.05" cy="599.134" r="14.4" fill="#000000" fill-rule="evenodd" fill-opacity="0" stroke="none"/>
<polyline clip-path="url(#clip472)" style="stroke:#000000; stroke-linecap:round; stroke-linejoin:round; stroke-width:4; stroke-opacity:1; fill:none" points="1486.05,599.134 1800.87,478.289 "/>
<path clip-path="url(#clip472)" d="M1767.26 491.19 L1760.81 474.385 L1800.87 478.289 L1773.71 507.995  Z" fill="#000000" fill-rule="evenodd" fill-opacity="1"/>
<polyline clip-path="url(#clip472)" style="stroke:#000000; stroke-linecap:round; stroke-linejoin:round; stroke-width:4; stroke-opacity:1; fill:none" points="1767.26,491.19 1486.05,599.134 "/>
<circle clip-path="url(#clip472)" cx="1486.05" cy="599.134" r="14.4" fill="#000000" fill-rule="evenodd" fill-opacity="0" stroke="none"/>
<circle clip-path="url(#clip472)" cx="1800.87" cy="478.289" r="14.4" fill="#000000" fill-rule="evenodd" fill-opacity="0" stroke="none"/>
</svg>
