<?xml version="1.0" encoding="utf-8"?>
<svg xmlns="http://www.w3.org/2000/svg" xmlns:xlink="http://www.w3.org/1999/xlink" width="600" height="400" viewBox="0 0 2400 1600">
<defs>
  <clipPath id="clip050">
    <rect x="0" y="0" width="2400" height="1600"/>
  </clipPath>
</defs>
<path clip-path="url(#clip050)" d="M0 1600 L2400 1600 L2400 0 L0 0  Z" fill="#ffffff" fill-rule="evenodd" fill-opacity="1"/>
<defs>
  <clipPath id="clip051">
    <rect x="480" y="0" width="1681" height="1600"/>
  </clipPath>
</defs>
<path clip-path="url(#clip050)" d="M178.867 1486.45 L2352.76 1486.45 L2352.76 47.2441 L178.867 47.2441  Z" fill="#ffffff" fill-rule="evenodd" fill-opacity="1"/>
<defs>
  <clipPath id="clip052">
    <rect x="178" y="47" width="2175" height="1440"/>
  </clipPath>
</defs>
<polyline clip-path="url(#clip052)" style="stroke:#000000; stroke-linecap:round; stroke-linejoin:round; stroke-width:2; stroke-opacity:0.1; fill:none" points="424.842,1486.45 424.842,47.2441 "/>
<polyline clip-path="url(#clip052)" style="stroke:#000000; stroke-linecap:round; stroke-linejoin:round; stroke-width:2; stroke-opacity:0.1; fill:none" points="1053.64,1486.45 1053.64,47.2441 "/>
<polyline clip-path="url(#clip052)" style="stroke:#000000; stroke-linecap:round; stroke-linejoin:round; stroke-width:2; stroke-opacity:0.1; fill:none" points="1682.45,1486.45 1682.45,47.2441 "/>
<polyline clip-path="url(#clip052)" style="stroke:#000000; stroke-linecap:round; stroke-linejoin:round; stroke-width:2; stroke-opacity:0.1; fill:none" points="2311.25,1486.45 2311.25,47.2441 "/>
<polyline clip-path="url(#clip052)" style="stroke:#000000; stroke-linecap:round; stroke-linejoin:round; stroke-width:2; stroke-opacity:0.1; fill:none" points="178.867,1309.13 2352.76,1309.13 "/>
<polyline clip-path="url(#clip052)" style="stroke:#000000; stroke-linecap:round; stroke-linejoin:round; stroke-width:2; stroke-opacity:0.1; fill:none" points="178.867,994.727 2352.76,994.727 "/>
<polyline clip-path="url(#clip052)" style="stroke:#000000; stroke-linecap:round; stroke-linejoin:round; stroke-width:2; stroke-opacity:0.1; fill:none" points="178.867,680.326 2352.76,680.326 "/>
<polyline clip-path="url(#clip052)" style="stroke:#000000; stroke-linecap:round; stroke-linejoin:round; stroke-width:2; stroke-opacity:0.1; fill:none" points="178.867,365.925 2352.76,365.925 "/>
<polyline clip-path="url(#clip052)" style="stroke:#000000; stroke-linecap:round; stroke-linejoin:round; stroke-width:2; stroke-opacity:0.1; fill:none" points="178.867,51.5244 2352.76,51.5244 "/>
<polyline clip-path="url(#clip050)" style="stroke:#000000; stroke-linecap:round; stroke-linejoin:round; stroke-width:4; stroke-opacity:1; fill:none" points="178.867,1486.45 2352.76,1486.45 "/>
<polyline clip-path="url(#clip050)" style="stroke:#000000; stroke-linecap:round; stroke-linejoin:round; stroke-width:4; stroke-opacity:1; fill:none" points="424.842,1486.45 424.842,1467.55 "/>
<polyline clip-path="url(#clip050)" style="stroke:#000000; stroke-linecap:round; stroke-linejoin:round; stroke-width:4; stroke-opacity:1; fill:none" points="1053.64,1486.45 1053.64,1467.55 "/>
<polyline clip-path="url(#clip050)" style="stroke:#000000; stroke-linecap:round; stroke-linejoin:round; stroke-width:4; stroke-opacity:1; fill:none" points="1682.45,1486.45 1682.45,1467.55 "/>
<polyline clip-path="url(#clip050)" style="stroke:#000000; stroke-linecap:round; stroke-linejoin:round; stroke-width:4; stroke-opacity:1; fill:none" points="2311.25,1486.45 2311.25,1467.55 "/>
<path clip-path="url(#clip050)" d="M424.842 1517.37 Q421.231 1517.37 419.402 1520.93 Q417.597 1524.47 417.597 1531.6 Q417.597 1538.71 419.402 1542.27 Q421.231 1545.82 424.842 1545.82 Q428.476 1545.82 430.282 1542.27 Q432.11 1538.71 432.11 1531.6 Q432.11 1524.47 430.282 1520.93 Q428.476 1517.37 424.842 1517.37 M424.842 1513.66 Q430.652 1513.66 433.708 1518.27 Q436.786 1522.85 436.786 1531.6 Q436.786 1540.33 433.708 1544.94 Q430.652 1549.52 424.842 1549.52 Q419.032 1549.52 415.953 1544.94 Q412.898 1540.33 412.898 1531.6 Q412.898 1522.85 415.953 1518.27 Q419.032 1513.66 424.842 1513.66 Z" fill="#000000" fill-rule="nonzero" fill-opacity="1" /><path clip-path="url(#clip050)" d="M1028.33 1544.91 L1035.97 1544.91 L1035.97 1518.55 L1027.66 1520.21 L1027.66 1515.95 L1035.92 1514.29 L1040.6 1514.29 L1040.6 1544.91 L1048.24 1544.91 L1048.24 1548.85 L1028.33 1548.85 L1028.33 1544.91 Z" fill="#000000" fill-rule="nonzero" fill-opacity="1" /><path clip-path="url(#clip050)" d="M1067.68 1517.37 Q1064.07 1517.37 1062.24 1520.93 Q1060.44 1524.47 1060.44 1531.6 Q1060.44 1538.71 1062.24 1542.27 Q1064.07 1545.82 1067.68 1545.82 Q1071.32 1545.82 1073.12 1542.27 Q1074.95 1538.71 1074.95 1531.6 Q1074.95 1524.47 1073.12 1520.93 Q1071.32 1517.37 1067.68 1517.37 M1067.68 1513.66 Q1073.49 1513.66 1076.55 1518.27 Q1079.63 1522.85 1079.63 1531.6 Q1079.63 1540.33 1076.55 1544.94 Q1073.49 1549.52 1067.68 1549.52 Q1061.87 1549.52 1058.79 1544.94 Q1055.74 1540.33 1055.74 1531.6 Q1055.74 1522.85 1058.79 1518.27 Q1061.87 1513.66 1067.68 1513.66 Z" fill="#000000" fill-rule="nonzero" fill-opacity="1" /><path clip-path="url(#clip050)" d="M1661.22 1544.91 L1677.54 1544.91 L1677.54 1548.85 L1655.59 1548.85 L1655.59 1544.91 Q1658.26 1542.16 1662.84 1537.53 Q1667.45 1532.88 1668.63 1531.53 Q1670.87 1529.01 1671.75 1527.27 Q1672.65 1525.51 1672.65 1523.82 Q1672.65 1521.07 1670.71 1519.33 Q1668.79 1517.6 1665.69 1517.6 Q1663.49 1517.6 1661.03 1518.36 Q1658.6 1519.13 1655.82 1520.68 L1655.82 1515.95 Q1658.65 1514.82 1661.1 1514.24 Q1663.56 1513.66 1665.59 1513.66 Q1670.96 1513.66 1674.16 1516.35 Q1677.35 1519.03 1677.35 1523.52 Q1677.35 1525.65 1676.54 1527.57 Q1675.76 1529.47 1673.65 1532.07 Q1673.07 1532.74 1669.97 1535.95 Q1666.87 1539.15 1661.22 1544.91 Z" fill="#000000" fill-rule="nonzero" fill-opacity="1" /><path clip-path="url(#clip050)" d="M1697.35 1517.37 Q1693.74 1517.37 1691.91 1520.93 Q1690.11 1524.47 1690.11 1531.6 Q1690.11 1538.71 1691.91 1542.27 Q1693.74 1545.82 1697.35 1545.82 Q1700.99 1545.82 1702.79 1542.27 Q1704.62 1538.71 1704.62 1531.6 Q1704.62 1524.47 1702.79 1520.93 Q1700.99 1517.37 1697.35 1517.37 M1697.35 1513.66 Q1703.16 1513.66 1706.22 1518.27 Q1709.3 1522.85 1709.3 1531.6 Q1709.3 1540.33 1706.22 1544.94 Q1703.16 1549.52 1697.35 1549.52 Q1691.54 1549.52 1688.46 1544.94 Q1685.41 1540.33 1685.41 1531.6 Q1685.41 1522.85 1688.46 1518.27 Q1691.54 1513.66 1697.35 1513.66 Z" fill="#000000" fill-rule="nonzero" fill-opacity="1" /><path clip-path="url(#clip050)" d="M2300.09 1530.21 Q2303.45 1530.93 2305.32 1533.2 Q2307.22 1535.47 2307.22 1538.8 Q2307.22 1543.92 2303.7 1546.72 Q2300.18 1549.52 2293.7 1549.52 Q2291.52 1549.52 2289.21 1549.08 Q2286.92 1548.66 2284.46 1547.81 L2284.46 1543.29 Q2286.41 1544.43 2288.72 1545.01 Q2291.04 1545.58 2293.56 1545.58 Q2297.96 1545.58 2300.25 1543.85 Q2302.57 1542.11 2302.57 1538.8 Q2302.57 1535.75 2300.41 1534.03 Q2298.28 1532.3 2294.46 1532.3 L2290.44 1532.3 L2290.44 1528.45 L2294.65 1528.45 Q2298.1 1528.45 2299.93 1527.09 Q2301.76 1525.7 2301.76 1523.11 Q2301.76 1520.45 2299.86 1519.03 Q2297.98 1517.6 2294.46 1517.6 Q2292.54 1517.6 2290.34 1518.01 Q2288.15 1518.43 2285.51 1519.31 L2285.51 1515.14 Q2288.17 1514.4 2290.48 1514.03 Q2292.82 1513.66 2294.88 1513.66 Q2300.21 1513.66 2303.31 1516.09 Q2306.41 1518.5 2306.41 1522.62 Q2306.41 1525.49 2304.77 1527.48 Q2303.12 1529.45 2300.09 1530.21 Z" fill="#000000" fill-rule="nonzero" fill-opacity="1" /><path clip-path="url(#clip050)" d="M2326.08 1517.37 Q2322.47 1517.37 2320.64 1520.93 Q2318.84 1524.47 2318.84 1531.6 Q2318.84 1538.71 2320.64 1542.27 Q2322.47 1545.82 2326.08 1545.82 Q2329.72 1545.82 2331.52 1542.27 Q2333.35 1538.71 2333.35 1531.6 Q2333.35 1524.47 2331.52 1520.93 Q2329.72 1517.37 2326.08 1517.37 M2326.08 1513.66 Q2331.89 1513.66 2334.95 1518.27 Q2338.03 1522.85 2338.03 1531.6 Q2338.03 1540.33 2334.95 1544.94 Q2331.89 1549.52 2326.08 1549.52 Q2320.27 1549.52 2317.2 1544.94 Q2314.14 1540.33 2314.14 1531.6 Q2314.14 1522.85 2317.2 1518.27 Q2320.27 1513.66 2326.08 1513.66 Z" fill="#000000" fill-rule="nonzero" fill-opacity="1" /><polyline clip-path="url(#clip050)" style="stroke:#000000; stroke-linecap:round; stroke-linejoin:round; stroke-width:4; stroke-opacity:1; fill:none" points="178.867,1486.45 178.867,47.2441 "/>
<polyline clip-path="url(#clip050)" style="stroke:#000000; stroke-linecap:round; stroke-linejoin:round; stroke-width:4; stroke-opacity:1; fill:none" points="178.867,1309.13 197.764,1309.13 "/>
<polyline clip-path="url(#clip050)" style="stroke:#000000; stroke-linecap:round; stroke-linejoin:round; stroke-width:4; stroke-opacity:1; fill:none" points="178.867,994.727 197.764,994.727 "/>
<polyline clip-path="url(#clip050)" style="stroke:#000000; stroke-linecap:round; stroke-linejoin:round; stroke-width:4; stroke-opacity:1; fill:none" points="178.867,680.326 197.764,680.326 "/>
<polyline clip-path="url(#clip050)" style="stroke:#000000; stroke-linecap:round; stroke-linejoin:round; stroke-width:4; stroke-opacity:1; fill:none" points="178.867,365.925 197.764,365.925 "/>
<polyline clip-path="url(#clip050)" style="stroke:#000000; stroke-linecap:round; stroke-linejoin:round; stroke-width:4; stroke-opacity:1; fill:none" points="178.867,51.5244 197.764,51.5244 "/>
<path clip-path="url(#clip050)" d="M50.9921 1309.58 L80.6679 1309.58 L80.6679 1313.51 L50.9921 1313.51 L50.9921 1309.58 Z" fill="#000000" fill-rule="nonzero" fill-opacity="1" /><path clip-path="url(#clip050)" d="M91.5706 1322.47 L99.2095 1322.47 L99.2095 1296.11 L90.8993 1297.77 L90.8993 1293.51 L99.1632 1291.85 L103.839 1291.85 L103.839 1322.47 L111.478 1322.47 L111.478 1326.41 L91.5706 1326.41 L91.5706 1322.47 Z" fill="#000000" fill-rule="nonzero" fill-opacity="1" /><path clip-path="url(#clip050)" d="M130.922 1294.93 Q127.311 1294.93 125.482 1298.49 Q123.677 1302.03 123.677 1309.16 Q123.677 1316.27 125.482 1319.83 Q127.311 1323.38 130.922 1323.38 Q134.556 1323.38 136.362 1319.83 Q138.191 1316.27 138.191 1309.16 Q138.191 1302.03 136.362 1298.49 Q134.556 1294.93 130.922 1294.93 M130.922 1291.22 Q136.732 1291.22 139.788 1295.83 Q142.867 1300.41 142.867 1309.16 Q142.867 1317.89 139.788 1322.5 Q136.732 1327.08 130.922 1327.08 Q125.112 1327.08 122.033 1322.5 Q118.978 1317.89 118.978 1309.16 Q118.978 1300.41 122.033 1295.83 Q125.112 1291.22 130.922 1291.22 Z" fill="#000000" fill-rule="nonzero" fill-opacity="1" /><path clip-path="url(#clip050)" d="M82.1494 995.178 L111.825 995.178 L111.825 999.113 L82.1494 999.113 L82.1494 995.178 Z" fill="#000000" fill-rule="nonzero" fill-opacity="1" /><path clip-path="url(#clip050)" d="M121.964 977.447 L140.32 977.447 L140.32 981.382 L126.246 981.382 L126.246 989.854 Q127.265 989.507 128.283 989.345 Q129.302 989.16 130.32 989.16 Q136.107 989.16 139.487 992.331 Q142.867 995.502 142.867 1000.92 Q142.867 1006.5 139.394 1009.6 Q135.922 1012.68 129.603 1012.68 Q127.427 1012.68 125.158 1012.31 Q122.913 1011.94 120.506 1011.2 L120.506 1006.5 Q122.589 1007.63 124.811 1008.19 Q127.033 1008.74 129.51 1008.74 Q133.515 1008.74 135.853 1006.64 Q138.191 1004.53 138.191 1000.92 Q138.191 997.308 135.853 995.201 Q133.515 993.095 129.51 993.095 Q127.635 993.095 125.76 993.512 Q123.908 993.928 121.964 994.808 L121.964 977.447 Z" fill="#000000" fill-rule="nonzero" fill-opacity="1" /><path clip-path="url(#clip050)" d="M130.922 666.125 Q127.311 666.125 125.482 669.69 Q123.677 673.231 123.677 680.361 Q123.677 687.467 125.482 691.032 Q127.311 694.574 130.922 694.574 Q134.556 694.574 136.362 691.032 Q138.191 687.467 138.191 680.361 Q138.191 673.231 136.362 669.69 Q134.556 666.125 130.922 666.125 M130.922 662.421 Q136.732 662.421 139.788 667.028 Q142.867 671.611 142.867 680.361 Q142.867 689.088 139.788 693.694 Q136.732 698.277 130.922 698.277 Q125.112 698.277 122.033 693.694 Q118.978 689.088 118.978 680.361 Q118.978 671.611 122.033 667.028 Q125.112 662.421 130.922 662.421 Z" fill="#000000" fill-rule="nonzero" fill-opacity="1" /><path clip-path="url(#clip050)" d="M121.964 348.645 L140.32 348.645 L140.32 352.58 L126.246 352.58 L126.246 361.053 Q127.265 360.705 128.283 360.543 Q129.302 360.358 130.32 360.358 Q136.107 360.358 139.487 363.529 Q142.867 366.701 142.867 372.117 Q142.867 377.696 139.394 380.798 Q135.922 383.877 129.603 383.877 Q127.427 383.877 125.158 383.506 Q122.913 383.136 120.506 382.395 L120.506 377.696 Q122.589 378.83 124.811 379.386 Q127.033 379.941 129.51 379.941 Q133.515 379.941 135.853 377.835 Q138.191 375.728 138.191 372.117 Q138.191 368.506 135.853 366.4 Q133.515 364.293 129.51 364.293 Q127.635 364.293 125.76 364.71 Q123.908 365.127 121.964 366.006 L121.964 348.645 Z" fill="#000000" fill-rule="nonzero" fill-opacity="1" /><path clip-path="url(#clip050)" d="M91.5706 64.8692 L99.2095 64.8692 L99.2095 38.5036 L90.8993 40.1703 L90.8993 35.9111 L99.1632 34.2444 L103.839 34.2444 L103.839 64.8692 L111.478 64.8692 L111.478 68.8044 L91.5706 68.8044 L91.5706 64.8692 Z" fill="#000000" fill-rule="nonzero" fill-opacity="1" /><path clip-path="url(#clip050)" d="M130.922 37.3231 Q127.311 37.3231 125.482 40.8879 Q123.677 44.4295 123.677 51.5591 Q123.677 58.6656 125.482 62.2304 Q127.311 65.772 130.922 65.772 Q134.556 65.772 136.362 62.2304 Q138.191 58.6656 138.191 51.5591 Q138.191 44.4295 136.362 40.8879 Q134.556 37.3231 130.922 37.3231 M130.922 33.6194 Q136.732 33.6194 139.788 38.2259 Q142.867 42.8092 142.867 51.5591 Q142.867 60.2859 139.788 64.8924 Q136.732 69.4757 130.922 69.4757 Q125.112 69.4757 122.033 64.8924 Q118.978 60.2859 118.978 51.5591 Q118.978 42.8092 122.033 38.2259 Q125.112 33.6194 130.922 33.6194 Z" fill="#000000" fill-rule="nonzero" fill-opacity="1" /><path clip-path="url(#clip052)" d="M423.788 675.675 L2291.23 675.675 L2291.23 938.016 L423.788 938.016 L423.788 675.675 L423.788 675.675  Z" fill="#009af9" fill-rule="evenodd" fill-opacity="1"/>
<polyline clip-path="url(#clip052)" style="stroke:#000000; stroke-linecap:round; stroke-linejoin:round; stroke-width:4; stroke-opacity:1; fill:none" points="423.788,675.675 2291.23,675.675 2291.23,938.016 423.788,938.016 423.788,675.675 "/>
<path clip-path="url(#clip052)" d="M415.501 648.809 L2104.7 648.809 L2104.7 909.9 L415.501 909.9 L415.501 648.809 L415.501 648.809  Z" fill="#e26f46" fill-rule="evenodd" fill-opacity="1"/>
<polyline clip-path="url(#clip052)" style="stroke:#000000; stroke-linecap:round; stroke-linejoin:round; stroke-width:4; stroke-opacity:1; fill:none" points="415.501,648.809 2104.7,648.809 2104.7,909.9 415.501,909.9 415.501,648.809 "/>
<path clip-path="url(#clip052)" d="M399.663 625.579 L1918.16 625.579 L1918.16 881.785 L399.663 881.785 L399.663 625.579 L399.663 625.579  Z" fill="#3da44d" fill-rule="evenodd" fill-opacity="1"/>
<polyline clip-path="url(#clip052)" style="stroke:#000000; stroke-linecap:round; stroke-linejoin:round; stroke-width:4; stroke-opacity:1; fill:none" points="399.663,625.579 1918.16,625.579 1918.16,881.785 399.663,881.785 399.663,625.579 "/>
<path clip-path="url(#clip052)" d="M377.682 608.049 L1731.63 608.049 L1731.63 853.669 L377.682 853.669 L377.682 608.049 L377.682 608.049  Z" fill="#c271d2" fill-rule="evenodd" fill-opacity="1"/>
<polyline clip-path="url(#clip052)" style="stroke:#000000; stroke-linecap:round; stroke-linejoin:round; stroke-width:4; stroke-opacity:1; fill:none" points="377.682,608.049 1731.63,608.049 1731.63,853.669 377.682,853.669 377.682,608.049 "/>
<path clip-path="url(#clip052)" d="M351.51 597.777 L1545.1 597.777 L1545.1 825.554 L351.51 825.554 L351.51 597.777 L351.51 597.777  Z" fill="#ac8d18" fill-rule="evenodd" fill-opacity="1"/>
<polyline clip-path="url(#clip052)" style="stroke:#000000; stroke-linecap:round; stroke-linejoin:round; stroke-width:4; stroke-opacity:1; fill:none" points="351.51,597.777 1545.1,597.777 1545.1,825.554 351.51,825.554 351.51,597.777 "/>
<path clip-path="url(#clip052)" d="M323.473 595.676 L1358.56 595.676 L1358.56 797.439 L323.473 797.439 L323.473 595.676 L323.473 595.676  Z" fill="#00a9ad" fill-rule="evenodd" fill-opacity="1"/>
<polyline clip-path="url(#clip052)" style="stroke:#000000; stroke-linecap:round; stroke-linejoin:round; stroke-width:4; stroke-opacity:1; fill:none" points="323.473,595.676 1358.56,595.676 1358.56,797.439 323.473,797.439 323.473,595.676 "/>
<path clip-path="url(#clip052)" d="M296.063 601.933 L1172.03 601.933 L1172.03 769.323 L296.063 769.323 L296.063 601.933 L296.063 601.933  Z" fill="#ed5d92" fill-rule="evenodd" fill-opacity="1"/>
<polyline clip-path="url(#clip052)" style="stroke:#000000; stroke-linecap:round; stroke-linejoin:round; stroke-width:4; stroke-opacity:1; fill:none" points="296.063,601.933 1172.03,601.933 1172.03,769.323 296.063,769.323 296.063,601.933 "/>
<path clip-path="url(#clip052)" d="M271.714 615.99 L985.496 615.99 L985.496 741.208 L271.714 741.208 L271.714 615.99 L271.714 615.99  Z" fill="#c68125" fill-rule="evenodd" fill-opacity="1"/>
<polyline clip-path="url(#clip052)" style="stroke:#000000; stroke-linecap:round; stroke-linejoin:round; stroke-width:4; stroke-opacity:1; fill:none" points="271.714,615.99 985.496,615.99 985.496,741.208 271.714,741.208 271.714,615.99 "/>
<path clip-path="url(#clip052)" d="M252.591 636.6 L798.962 636.6 L798.962 713.092 L252.591 713.092 L252.591 636.6 L252.591 636.6  Z" fill="#00a98d" fill-rule="evenodd" fill-opacity="1"/>
<polyline clip-path="url(#clip052)" style="stroke:#000000; stroke-linecap:round; stroke-linejoin:round; stroke-width:4; stroke-opacity:1; fill:none" points="252.591,636.6 798.962,636.6 798.962,713.092 252.591,713.092 252.591,636.6 "/>
<path clip-path="url(#clip052)" d="M240.392 661.932 L612.429 661.932 L612.429 684.977 L240.392 684.977 L240.392 661.932 L240.392 661.932  Z" fill="#8e971d" fill-rule="evenodd" fill-opacity="1"/>
<polyline clip-path="url(#clip052)" style="stroke:#000000; stroke-linecap:round; stroke-linejoin:round; stroke-width:4; stroke-opacity:1; fill:none" points="240.392,661.932 612.429,661.932 612.429,684.977 240.392,684.977 240.392,661.932 "/>
</svg>
