<?xml version="1.0" encoding="utf-8"?>
<svg xmlns="http://www.w3.org/2000/svg" xmlns:xlink="http://www.w3.org/1999/xlink" width="600" height="400" viewBox="0 0 2400 1600">
<defs>
  <clipPath id="clip230">
    <rect x="0" y="0" width="2400" height="1600"/>
  </clipPath>
</defs>
<path clip-path="url(#clip230)" d="M0 1600 L2400 1600 L2400 0 L0 0  Z" fill="#ffffff" fill-rule="evenodd" fill-opacity="1"/>
<defs>
  <clipPath id="clip231">
    <rect x="480" y="0" width="1681" height="1600"/>
  </clipPath>
</defs>
<path clip-path="url(#clip230)" d="M147.478 1486.45 L2352.76 1486.45 L2352.76 47.2441 L147.478 47.2441  Z" fill="#ffffff" fill-rule="evenodd" fill-opacity="1"/>
<defs>
  <clipPath id="clip232">
    <rect x="147" y="47" width="2206" height="1440"/>
  </clipPath>
</defs>
<polyline clip-path="url(#clip232)" style="stroke:#000000; stroke-linecap:round; stroke-linejoin:round; stroke-width:2; stroke-opacity:0.1; fill:none" points="344.957,1486.45 344.957,47.2441 "/>
<polyline clip-path="url(#clip232)" style="stroke:#000000; stroke-linecap:round; stroke-linejoin:round; stroke-width:2; stroke-opacity:0.1; fill:none" points="646.677,1486.45 646.677,47.2441 "/>
<polyline clip-path="url(#clip232)" style="stroke:#000000; stroke-linecap:round; stroke-linejoin:round; stroke-width:2; stroke-opacity:0.1; fill:none" points="948.397,1486.45 948.397,47.2441 "/>
<polyline clip-path="url(#clip232)" style="stroke:#000000; stroke-linecap:round; stroke-linejoin:round; stroke-width:2; stroke-opacity:0.1; fill:none" points="1250.12,1486.45 1250.12,47.2441 "/>
<polyline clip-path="url(#clip232)" style="stroke:#000000; stroke-linecap:round; stroke-linejoin:round; stroke-width:2; stroke-opacity:0.1; fill:none" points="1551.84,1486.45 1551.84,47.2441 "/>
<polyline clip-path="url(#clip232)" style="stroke:#000000; stroke-linecap:round; stroke-linejoin:round; stroke-width:2; stroke-opacity:0.1; fill:none" points="1853.56,1486.45 1853.56,47.2441 "/>
<polyline clip-path="url(#clip232)" style="stroke:#000000; stroke-linecap:round; stroke-linejoin:round; stroke-width:2; stroke-opacity:0.1; fill:none" points="2155.28,1486.45 2155.28,47.2441 "/>
<polyline clip-path="url(#clip232)" style="stroke:#000000; stroke-linecap:round; stroke-linejoin:round; stroke-width:2; stroke-opacity:0.1; fill:none" points="147.478,1370.29 2352.76,1370.29 "/>
<polyline clip-path="url(#clip232)" style="stroke:#000000; stroke-linecap:round; stroke-linejoin:round; stroke-width:2; stroke-opacity:0.1; fill:none" points="147.478,1068.57 2352.76,1068.57 "/>
<polyline clip-path="url(#clip232)" style="stroke:#000000; stroke-linecap:round; stroke-linejoin:round; stroke-width:2; stroke-opacity:0.1; fill:none" points="147.478,766.846 2352.76,766.846 "/>
<polyline clip-path="url(#clip232)" style="stroke:#000000; stroke-linecap:round; stroke-linejoin:round; stroke-width:2; stroke-opacity:0.1; fill:none" points="147.478,465.126 2352.76,465.126 "/>
<polyline clip-path="url(#clip232)" style="stroke:#000000; stroke-linecap:round; stroke-linejoin:round; stroke-width:2; stroke-opacity:0.1; fill:none" points="147.478,163.406 2352.76,163.406 "/>
<polyline clip-path="url(#clip230)" style="stroke:#000000; stroke-linecap:round; stroke-linejoin:round; stroke-width:4; stroke-opacity:1; fill:none" points="147.478,1486.45 2352.76,1486.45 "/>
<polyline clip-path="url(#clip230)" style="stroke:#000000; stroke-linecap:round; stroke-linejoin:round; stroke-width:4; stroke-opacity:1; fill:none" points="344.957,1486.45 344.957,1467.55 "/>
<polyline clip-path="url(#clip230)" style="stroke:#000000; stroke-linecap:round; stroke-linejoin:round; stroke-width:4; stroke-opacity:1; fill:none" points="646.677,1486.45 646.677,1467.55 "/>
<polyline clip-path="url(#clip230)" style="stroke:#000000; stroke-linecap:round; stroke-linejoin:round; stroke-width:4; stroke-opacity:1; fill:none" points="948.397,1486.45 948.397,1467.55 "/>
<polyline clip-path="url(#clip230)" style="stroke:#000000; stroke-linecap:round; stroke-linejoin:round; stroke-width:4; stroke-opacity:1; fill:none" points="1250.12,1486.45 1250.12,1467.55 "/>
<polyline clip-path="url(#clip230)" style="stroke:#000000; stroke-linecap:round; stroke-linejoin:round; stroke-width:4; stroke-opacity:1; fill:none" points="1551.84,1486.45 1551.84,1467.55 "/>
<polyline clip-path="url(#clip230)" style="stroke:#000000; stroke-linecap:round; stroke-linejoin:round; stroke-width:4; stroke-opacity:1; fill:none" points="1853.56,1486.45 1853.56,1467.55 "/>
<polyline clip-path="url(#clip230)" style="stroke:#000000; stroke-linecap:round; stroke-linejoin:round; stroke-width:4; stroke-opacity:1; fill:none" points="2155.28,1486.45 2155.28,1467.55 "/>
<path clip-path="url(#clip230)" d="M314.425 1532.02 L344.101 1532.02 L344.101 1535.95 L314.425 1535.95 L314.425 1532.02 Z" fill="#000000" fill-rule="nonzero" fill-opacity="1" /><path clip-path="url(#clip230)" d="M368.36 1530.21 Q371.716 1530.93 373.591 1533.2 Q375.49 1535.47 375.49 1538.8 Q375.49 1543.92 371.971 1546.72 Q368.453 1549.52 361.971 1549.52 Q359.795 1549.52 357.48 1549.08 Q355.189 1548.66 352.735 1547.81 L352.735 1543.29 Q354.679 1544.43 356.994 1545.01 Q359.309 1545.58 361.832 1545.58 Q366.23 1545.58 368.522 1543.85 Q370.837 1542.11 370.837 1538.8 Q370.837 1535.75 368.684 1534.03 Q366.554 1532.3 362.735 1532.3 L358.707 1532.3 L358.707 1528.45 L362.92 1528.45 Q366.369 1528.45 368.198 1527.09 Q370.027 1525.7 370.027 1523.11 Q370.027 1520.45 368.128 1519.03 Q366.253 1517.6 362.735 1517.6 Q360.814 1517.6 358.615 1518.01 Q356.416 1518.43 353.777 1519.31 L353.777 1515.14 Q356.439 1514.4 358.754 1514.03 Q361.091 1513.66 363.152 1513.66 Q368.476 1513.66 371.578 1516.09 Q374.679 1518.5 374.679 1522.62 Q374.679 1525.49 373.036 1527.48 Q371.392 1529.45 368.36 1530.21 Z" fill="#000000" fill-rule="nonzero" fill-opacity="1" /><path clip-path="url(#clip230)" d="M616.619 1532.02 L646.295 1532.02 L646.295 1535.95 L616.619 1535.95 L616.619 1532.02 Z" fill="#000000" fill-rule="nonzero" fill-opacity="1" /><path clip-path="url(#clip230)" d="M660.416 1544.91 L676.735 1544.91 L676.735 1548.85 L654.791 1548.85 L654.791 1544.91 Q657.453 1542.16 662.036 1537.53 Q666.642 1532.88 667.823 1531.53 Q670.068 1529.01 670.948 1527.27 Q671.851 1525.51 671.851 1523.82 Q671.851 1521.07 669.906 1519.33 Q667.985 1517.6 664.883 1517.6 Q662.684 1517.6 660.23 1518.36 Q657.8 1519.13 655.022 1520.68 L655.022 1515.95 Q657.846 1514.82 660.3 1514.24 Q662.753 1513.66 664.79 1513.66 Q670.161 1513.66 673.355 1516.35 Q676.55 1519.03 676.55 1523.52 Q676.55 1525.65 675.74 1527.57 Q674.952 1529.47 672.846 1532.07 Q672.267 1532.74 669.165 1535.95 Q666.064 1539.15 660.416 1544.91 Z" fill="#000000" fill-rule="nonzero" fill-opacity="1" /><path clip-path="url(#clip230)" d="M918.154 1532.02 L947.83 1532.02 L947.83 1535.95 L918.154 1535.95 L918.154 1532.02 Z" fill="#000000" fill-rule="nonzero" fill-opacity="1" /><path clip-path="url(#clip230)" d="M958.733 1544.91 L966.371 1544.91 L966.371 1518.55 L958.061 1520.21 L958.061 1515.95 L966.325 1514.29 L971.001 1514.29 L971.001 1544.91 L978.64 1544.91 L978.64 1548.85 L958.733 1548.85 L958.733 1544.91 Z" fill="#000000" fill-rule="nonzero" fill-opacity="1" /><path clip-path="url(#clip230)" d="M1250.12 1517.37 Q1246.51 1517.37 1244.68 1520.93 Q1242.87 1524.47 1242.87 1531.6 Q1242.87 1538.71 1244.68 1542.27 Q1246.51 1545.82 1250.12 1545.82 Q1253.75 1545.82 1255.56 1542.27 Q1257.39 1538.71 1257.39 1531.6 Q1257.39 1524.47 1255.56 1520.93 Q1253.75 1517.37 1250.12 1517.37 M1250.12 1513.66 Q1255.93 1513.66 1258.98 1518.27 Q1262.06 1522.85 1262.06 1531.6 Q1262.06 1540.33 1258.98 1544.94 Q1255.93 1549.52 1250.12 1549.52 Q1244.31 1549.52 1241.23 1544.94 Q1238.17 1540.33 1238.17 1531.6 Q1238.17 1522.85 1241.23 1518.27 Q1244.31 1513.66 1250.12 1513.66 Z" fill="#000000" fill-rule="nonzero" fill-opacity="1" /><path clip-path="url(#clip230)" d="M1542.22 1544.91 L1549.86 1544.91 L1549.86 1518.55 L1541.55 1520.21 L1541.55 1515.95 L1549.81 1514.29 L1554.49 1514.29 L1554.49 1544.91 L1562.13 1544.91 L1562.13 1548.85 L1542.22 1548.85 L1542.22 1544.91 Z" fill="#000000" fill-rule="nonzero" fill-opacity="1" /><path clip-path="url(#clip230)" d="M1848.21 1544.91 L1864.53 1544.91 L1864.53 1548.85 L1842.58 1548.85 L1842.58 1544.91 Q1845.25 1542.16 1849.83 1537.53 Q1854.44 1532.88 1855.62 1531.53 Q1857.86 1529.01 1858.74 1527.27 Q1859.64 1525.51 1859.64 1523.82 Q1859.64 1521.07 1857.7 1519.33 Q1855.78 1517.6 1852.68 1517.6 Q1850.48 1517.6 1848.02 1518.36 Q1845.59 1519.13 1842.82 1520.68 L1842.82 1515.95 Q1845.64 1514.82 1848.09 1514.24 Q1850.55 1513.66 1852.58 1513.66 Q1857.95 1513.66 1861.15 1516.35 Q1864.34 1519.03 1864.34 1523.52 Q1864.34 1525.65 1863.53 1527.57 Q1862.75 1529.47 1860.64 1532.07 Q1860.06 1532.74 1856.96 1535.95 Q1853.86 1539.15 1848.21 1544.91 Z" fill="#000000" fill-rule="nonzero" fill-opacity="1" /><path clip-path="url(#clip230)" d="M2159.52 1530.21 Q2162.88 1530.93 2164.76 1533.2 Q2166.65 1535.47 2166.65 1538.8 Q2166.65 1543.92 2163.14 1546.72 Q2159.62 1549.52 2153.14 1549.52 Q2150.96 1549.52 2148.64 1549.08 Q2146.35 1548.66 2143.9 1547.81 L2143.9 1543.29 Q2145.84 1544.43 2148.16 1545.01 Q2150.47 1545.58 2153 1545.58 Q2157.39 1545.58 2159.69 1543.85 Q2162 1542.11 2162 1538.8 Q2162 1535.75 2159.85 1534.03 Q2157.72 1532.3 2153.9 1532.3 L2149.87 1532.3 L2149.87 1528.45 L2154.08 1528.45 Q2157.53 1528.45 2159.36 1527.09 Q2161.19 1525.7 2161.19 1523.11 Q2161.19 1520.45 2159.29 1519.03 Q2157.42 1517.6 2153.9 1517.6 Q2151.98 1517.6 2149.78 1518.01 Q2147.58 1518.43 2144.94 1519.31 L2144.94 1515.14 Q2147.6 1514.4 2149.92 1514.03 Q2152.26 1513.66 2154.32 1513.66 Q2159.64 1513.66 2162.74 1516.09 Q2165.84 1518.5 2165.84 1522.62 Q2165.84 1525.49 2164.2 1527.48 Q2162.56 1529.45 2159.52 1530.21 Z" fill="#000000" fill-rule="nonzero" fill-opacity="1" /><polyline clip-path="url(#clip230)" style="stroke:#000000; stroke-linecap:round; stroke-linejoin:round; stroke-width:4; stroke-opacity:1; fill:none" points="147.478,1486.45 147.478,47.2441 "/>
<polyline clip-path="url(#clip230)" style="stroke:#000000; stroke-linecap:round; stroke-linejoin:round; stroke-width:4; stroke-opacity:1; fill:none" points="147.478,1370.29 166.376,1370.29 "/>
<polyline clip-path="url(#clip230)" style="stroke:#000000; stroke-linecap:round; stroke-linejoin:round; stroke-width:4; stroke-opacity:1; fill:none" points="147.478,1068.57 166.376,1068.57 "/>
<polyline clip-path="url(#clip230)" style="stroke:#000000; stroke-linecap:round; stroke-linejoin:round; stroke-width:4; stroke-opacity:1; fill:none" points="147.478,766.846 166.376,766.846 "/>
<polyline clip-path="url(#clip230)" style="stroke:#000000; stroke-linecap:round; stroke-linejoin:round; stroke-width:4; stroke-opacity:1; fill:none" points="147.478,465.126 166.376,465.126 "/>
<polyline clip-path="url(#clip230)" style="stroke:#000000; stroke-linecap:round; stroke-linejoin:round; stroke-width:4; stroke-opacity:1; fill:none" points="147.478,163.406 166.376,163.406 "/>
<path clip-path="url(#clip230)" d="M51.3625 1370.74 L81.0383 1370.74 L81.0383 1374.67 L51.3625 1374.67 L51.3625 1370.74 Z" fill="#000000" fill-rule="nonzero" fill-opacity="1" /><path clip-path="url(#clip230)" d="M95.1586 1383.63 L111.478 1383.63 L111.478 1387.57 L89.5336 1387.57 L89.5336 1383.63 Q92.1956 1380.88 96.7789 1376.25 Q101.385 1371.59 102.566 1370.25 Q104.811 1367.73 105.691 1365.99 Q106.594 1364.23 106.594 1362.54 Q106.594 1359.79 104.649 1358.05 Q102.728 1356.32 99.6261 1356.32 Q97.4271 1356.32 94.9734 1357.08 Q92.5428 1357.84 89.7651 1359.39 L89.7651 1354.67 Q92.5891 1353.54 95.0428 1352.96 Q97.4965 1352.38 99.5335 1352.38 Q104.904 1352.38 108.098 1355.07 Q111.293 1357.75 111.293 1362.24 Q111.293 1364.37 110.483 1366.29 Q109.696 1368.19 107.589 1370.78 Q107.01 1371.45 103.909 1374.67 Q100.807 1377.87 95.1586 1383.63 Z" fill="#000000" fill-rule="nonzero" fill-opacity="1" /><path clip-path="url(#clip230)" d="M50.9921 1069.02 L80.6679 1069.02 L80.6679 1072.95 L50.9921 1072.95 L50.9921 1069.02 Z" fill="#000000" fill-rule="nonzero" fill-opacity="1" /><path clip-path="url(#clip230)" d="M91.5706 1081.91 L99.2095 1081.91 L99.2095 1055.55 L90.8993 1057.21 L90.8993 1052.95 L99.1632 1051.29 L103.839 1051.29 L103.839 1081.91 L111.478 1081.91 L111.478 1085.85 L91.5706 1085.85 L91.5706 1081.91 Z" fill="#000000" fill-rule="nonzero" fill-opacity="1" /><path clip-path="url(#clip230)" d="M99.5335 752.645 Q95.9224 752.645 94.0937 756.209 Q92.2882 759.751 92.2882 766.881 Q92.2882 773.987 94.0937 777.552 Q95.9224 781.094 99.5335 781.094 Q103.168 781.094 104.973 777.552 Q106.802 773.987 106.802 766.881 Q106.802 759.751 104.973 756.209 Q103.168 752.645 99.5335 752.645 M99.5335 748.941 Q105.344 748.941 108.399 753.547 Q111.478 758.131 111.478 766.881 Q111.478 775.608 108.399 780.214 Q105.344 784.797 99.5335 784.797 Q93.7234 784.797 90.6447 780.214 Q87.5892 775.608 87.5892 766.881 Q87.5892 758.131 90.6447 753.547 Q93.7234 748.941 99.5335 748.941 Z" fill="#000000" fill-rule="nonzero" fill-opacity="1" /><path clip-path="url(#clip230)" d="M91.5706 478.471 L99.2095 478.471 L99.2095 452.105 L90.8993 453.772 L90.8993 449.513 L99.1632 447.846 L103.839 447.846 L103.839 478.471 L111.478 478.471 L111.478 482.406 L91.5706 482.406 L91.5706 478.471 Z" fill="#000000" fill-rule="nonzero" fill-opacity="1" /><path clip-path="url(#clip230)" d="M95.1586 176.751 L111.478 176.751 L111.478 180.686 L89.5336 180.686 L89.5336 176.751 Q92.1956 173.996 96.7789 169.367 Q101.385 164.714 102.566 163.372 Q104.811 160.848 105.691 159.112 Q106.594 157.353 106.594 155.663 Q106.594 152.909 104.649 151.173 Q102.728 149.436 99.6261 149.436 Q97.4271 149.436 94.9734 150.2 Q92.5428 150.964 89.7651 152.515 L89.7651 147.793 Q92.5891 146.659 95.0428 146.08 Q97.4965 145.501 99.5335 145.501 Q104.904 145.501 108.098 148.186 Q111.293 150.872 111.293 155.362 Q111.293 157.492 110.483 159.413 Q109.696 161.311 107.589 163.904 Q107.01 164.575 103.909 167.793 Q100.807 170.987 95.1586 176.751 Z" fill="#000000" fill-rule="nonzero" fill-opacity="1" /><path clip-path="url(#clip232)" d="M571.247 1445.72 L1928.99 1445.72 L1928.99 87.9763 L571.247 87.9763 L571.247 1445.72 L571.247 1445.72  Z" fill="#009af9" fill-rule="evenodd" fill-opacity="1"/>
<polyline clip-path="url(#clip232)" style="stroke:#000000; stroke-linecap:round; stroke-linejoin:round; stroke-width:4; stroke-opacity:1; fill:none" points="571.247,1445.72 1928.99,1445.72 1928.99,87.9763 571.247,87.9763 571.247,1445.72 "/>
<path clip-path="url(#clip232)" d="M571.247 1294.86 L1778.13 1294.86 L1778.13 87.9763 L571.247 87.9763 L571.247 1294.86 L571.247 1294.86  Z" fill="#e26f46" fill-rule="evenodd" fill-opacity="1"/>
<polyline clip-path="url(#clip232)" style="stroke:#000000; stroke-linecap:round; stroke-linejoin:round; stroke-width:4; stroke-opacity:1; fill:none" points="571.247,1294.86 1778.13,1294.86 1778.13,87.9763 571.247,87.9763 571.247,1294.86 "/>
<path clip-path="url(#clip232)" d="M571.247 1144 L1627.27 1144 L1627.27 87.9763 L571.247 87.9763 L571.247 1144 L571.247 1144  Z" fill="#3da44d" fill-rule="evenodd" fill-opacity="1"/>
<polyline clip-path="url(#clip232)" style="stroke:#000000; stroke-linecap:round; stroke-linejoin:round; stroke-width:4; stroke-opacity:1; fill:none" points="571.247,1144 1627.27,1144 1627.27,87.9763 571.247,87.9763 571.247,1144 "/>
<path clip-path="url(#clip232)" d="M571.247 993.136 L1476.41 993.136 L1476.41 87.9763 L571.247 87.9763 L571.247 993.136 L571.247 993.136  Z" fill="#c271d2" fill-rule="evenodd" fill-opacity="1"/>
<polyline clip-path="url(#clip232)" style="stroke:#000000; stroke-linecap:round; stroke-linejoin:round; stroke-width:4; stroke-opacity:1; fill:none" points="571.247,993.136 1476.41,993.136 1476.41,87.9763 571.247,87.9763 571.247,993.136 "/>
<path clip-path="url(#clip232)" d="M571.247 842.276 L1325.55 842.276 L1325.55 87.9763 L571.247 87.9763 L571.247 842.276 L571.247 842.276  Z" fill="#ac8d18" fill-rule="evenodd" fill-opacity="1"/>
<polyline clip-path="url(#clip232)" style="stroke:#000000; stroke-linecap:round; stroke-linejoin:round; stroke-width:4; stroke-opacity:1; fill:none" points="571.247,842.276 1325.55,842.276 1325.55,87.9763 571.247,87.9763 571.247,842.276 "/>
<path clip-path="url(#clip232)" d="M571.247 691.416 L1174.69 691.416 L1174.69 87.9763 L571.247 87.9763 L571.247 691.416 L571.247 691.416  Z" fill="#00a9ad" fill-rule="evenodd" fill-opacity="1"/>
<polyline clip-path="url(#clip232)" style="stroke:#000000; stroke-linecap:round; stroke-linejoin:round; stroke-width:4; stroke-opacity:1; fill:none" points="571.247,691.416 1174.69,691.416 1174.69,87.9763 571.247,87.9763 571.247,691.416 "/>
<path clip-path="url(#clip232)" d="M571.247 540.556 L1023.83 540.556 L1023.83 87.9763 L571.247 87.9763 L571.247 540.556 L571.247 540.556  Z" fill="#ed5d92" fill-rule="evenodd" fill-opacity="1"/>
<polyline clip-path="url(#clip232)" style="stroke:#000000; stroke-linecap:round; stroke-linejoin:round; stroke-width:4; stroke-opacity:1; fill:none" points="571.247,540.556 1023.83,540.556 1023.83,87.9763 571.247,87.9763 571.247,540.556 "/>
<path clip-path="url(#clip232)" d="M571.247 389.696 L872.967 389.696 L872.967 87.9763 L571.247 87.9763 L571.247 389.696 L571.247 389.696  Z" fill="#c68125" fill-rule="evenodd" fill-opacity="1"/>
<polyline clip-path="url(#clip232)" style="stroke:#000000; stroke-linecap:round; stroke-linejoin:round; stroke-width:4; stroke-opacity:1; fill:none" points="571.247,389.696 872.967,389.696 872.967,87.9763 571.247,87.9763 571.247,389.696 "/>
<path clip-path="url(#clip232)" d="M571.247 238.836 L722.107 238.836 L722.107 87.9763 L571.247 87.9763 L571.247 238.836 L571.247 238.836  Z" fill="#00a98d" fill-rule="evenodd" fill-opacity="1"/>
<polyline clip-path="url(#clip232)" style="stroke:#000000; stroke-linecap:round; stroke-linejoin:round; stroke-width:4; stroke-opacity:1; fill:none" points="571.247,238.836 722.107,238.836 722.107,87.9763 571.247,87.9763 571.247,238.836 "/>
</svg>
