<?xml version="1.0" encoding="utf-8"?>
<svg xmlns="http://www.w3.org/2000/svg" xmlns:xlink="http://www.w3.org/1999/xlink" width="600" height="400" viewBox="0 0 2400 1600">
<defs>
  <clipPath id="clip350">
    <rect x="0" y="0" width="2400" height="1600"/>
  </clipPath>
</defs>
<path clip-path="url(#clip350)" d="M0 1600 L2400 1600 L2400 0 L0 0  Z" fill="#ffffff" fill-rule="evenodd" fill-opacity="1"/>
<defs>
  <clipPath id="clip351">
    <rect x="480" y="0" width="1681" height="1600"/>
  </clipPath>
</defs>
<path clip-path="url(#clip350)" d="M112.177 1486.45 L2352.76 1486.45 L2352.76 47.2441 L112.177 47.2441  Z" fill="#ffffff" fill-rule="evenodd" fill-opacity="1"/>
<defs>
  <clipPath id="clip352">
    <rect x="112" y="47" width="2242" height="1440"/>
  </clipPath>
</defs>
<polyline clip-path="url(#clip352)" style="stroke:#000000; stroke-linecap:round; stroke-linejoin:round; stroke-width:2; stroke-opacity:0.1; fill:none" points="310.941,1486.45 310.941,47.2441 "/>
<polyline clip-path="url(#clip352)" style="stroke:#000000; stroke-linecap:round; stroke-linejoin:round; stroke-width:2; stroke-opacity:0.1; fill:none" points="866.077,1486.45 866.077,47.2441 "/>
<polyline clip-path="url(#clip352)" style="stroke:#000000; stroke-linecap:round; stroke-linejoin:round; stroke-width:2; stroke-opacity:0.1; fill:none" points="1421.21,1486.45 1421.21,47.2441 "/>
<polyline clip-path="url(#clip352)" style="stroke:#000000; stroke-linecap:round; stroke-linejoin:round; stroke-width:2; stroke-opacity:0.1; fill:none" points="1976.35,1486.45 1976.35,47.2441 "/>
<polyline clip-path="url(#clip350)" style="stroke:#000000; stroke-linecap:round; stroke-linejoin:round; stroke-width:4; stroke-opacity:1; fill:none" points="112.177,1486.45 2352.76,1486.45 "/>
<polyline clip-path="url(#clip350)" style="stroke:#000000; stroke-linecap:round; stroke-linejoin:round; stroke-width:4; stroke-opacity:1; fill:none" points="310.941,1486.45 310.941,1467.55 "/>
<polyline clip-path="url(#clip350)" style="stroke:#000000; stroke-linecap:round; stroke-linejoin:round; stroke-width:4; stroke-opacity:1; fill:none" points="866.077,1486.45 866.077,1467.55 "/>
<polyline clip-path="url(#clip350)" style="stroke:#000000; stroke-linecap:round; stroke-linejoin:round; stroke-width:4; stroke-opacity:1; fill:none" points="1421.21,1486.45 1421.21,1467.55 "/>
<polyline clip-path="url(#clip350)" style="stroke:#000000; stroke-linecap:round; stroke-linejoin:round; stroke-width:4; stroke-opacity:1; fill:none" points="1976.35,1486.45 1976.35,1467.55 "/>
<path clip-path="url(#clip350)" d="M310.941 1517.37 Q307.33 1517.37 305.501 1520.93 Q303.696 1524.47 303.696 1531.6 Q303.696 1538.71 305.501 1542.27 Q307.33 1545.82 310.941 1545.82 Q314.575 1545.82 316.381 1542.27 Q318.21 1538.71 318.21 1531.6 Q318.21 1524.47 316.381 1520.93 Q314.575 1517.37 310.941 1517.37 M310.941 1513.66 Q316.751 1513.66 319.807 1518.27 Q322.886 1522.85 322.886 1531.6 Q322.886 1540.33 319.807 1544.94 Q316.751 1549.52 310.941 1549.52 Q305.131 1549.52 302.052 1544.94 Q298.997 1540.33 298.997 1531.6 Q298.997 1522.85 302.052 1518.27 Q305.131 1513.66 310.941 1513.66 Z" fill="#000000" fill-rule="nonzero" fill-opacity="1" /><path clip-path="url(#clip350)" d="M860.73 1544.91 L877.049 1544.91 L877.049 1548.85 L855.105 1548.85 L855.105 1544.91 Q857.767 1542.16 862.35 1537.53 Q866.957 1532.88 868.137 1531.53 Q870.382 1529.01 871.262 1527.27 Q872.165 1525.51 872.165 1523.82 Q872.165 1521.07 870.22 1519.33 Q868.299 1517.6 865.197 1517.6 Q862.998 1517.6 860.545 1518.36 Q858.114 1519.13 855.336 1520.68 L855.336 1515.95 Q858.16 1514.82 860.614 1514.24 Q863.068 1513.66 865.105 1513.66 Q870.475 1513.66 873.67 1516.35 Q876.864 1519.03 876.864 1523.52 Q876.864 1525.65 876.054 1527.57 Q875.267 1529.47 873.16 1532.07 Q872.582 1532.74 869.48 1535.95 Q866.378 1539.15 860.73 1544.91 Z" fill="#000000" fill-rule="nonzero" fill-opacity="1" /><path clip-path="url(#clip350)" d="M1424.22 1518.36 L1412.42 1536.81 L1424.22 1536.81 L1424.22 1518.36 M1423 1514.29 L1428.87 1514.29 L1428.87 1536.81 L1433.81 1536.81 L1433.81 1540.7 L1428.87 1540.7 L1428.87 1548.85 L1424.22 1548.85 L1424.22 1540.7 L1408.62 1540.7 L1408.62 1536.19 L1423 1514.29 Z" fill="#000000" fill-rule="nonzero" fill-opacity="1" /><path clip-path="url(#clip350)" d="M1976.75 1529.7 Q1973.61 1529.7 1971.75 1531.86 Q1969.92 1534.01 1969.92 1537.76 Q1969.92 1541.49 1971.75 1543.66 Q1973.61 1545.82 1976.75 1545.82 Q1979.9 1545.82 1981.73 1543.66 Q1983.58 1541.49 1983.58 1537.76 Q1983.58 1534.01 1981.73 1531.86 Q1979.9 1529.7 1976.75 1529.7 M1986.04 1515.05 L1986.04 1519.31 Q1984.28 1518.48 1982.47 1518.04 Q1980.69 1517.6 1978.93 1517.6 Q1974.3 1517.6 1971.85 1520.72 Q1969.42 1523.85 1969.07 1530.17 Q1970.43 1528.15 1972.49 1527.09 Q1974.55 1526 1977.03 1526 Q1982.24 1526 1985.25 1529.17 Q1988.28 1532.32 1988.28 1537.76 Q1988.28 1543.08 1985.13 1546.3 Q1981.98 1549.52 1976.75 1549.52 Q1970.76 1549.52 1967.59 1544.94 Q1964.42 1540.33 1964.42 1531.6 Q1964.42 1523.41 1968.3 1518.55 Q1972.19 1513.66 1978.74 1513.66 Q1980.5 1513.66 1982.29 1514.01 Q1984.09 1514.36 1986.04 1515.05 Z" fill="#000000" fill-rule="nonzero" fill-opacity="1" /><polyline clip-path="url(#clip352)" style="stroke:#000000; stroke-linecap:round; stroke-linejoin:round; stroke-width:2; stroke-opacity:0.1; fill:none" points="112.177,1355.29 2352.76,1355.29 "/>
<polyline clip-path="url(#clip352)" style="stroke:#000000; stroke-linecap:round; stroke-linejoin:round; stroke-width:2; stroke-opacity:0.1; fill:none" points="112.177,1077.72 2352.76,1077.72 "/>
<polyline clip-path="url(#clip352)" style="stroke:#000000; stroke-linecap:round; stroke-linejoin:round; stroke-width:2; stroke-opacity:0.1; fill:none" points="112.177,800.154 2352.76,800.154 "/>
<polyline clip-path="url(#clip352)" style="stroke:#000000; stroke-linecap:round; stroke-linejoin:round; stroke-width:2; stroke-opacity:0.1; fill:none" points="112.177,522.586 2352.76,522.586 "/>
<polyline clip-path="url(#clip352)" style="stroke:#000000; stroke-linecap:round; stroke-linejoin:round; stroke-width:2; stroke-opacity:0.1; fill:none" points="112.177,245.018 2352.76,245.018 "/>
<polyline clip-path="url(#clip350)" style="stroke:#000000; stroke-linecap:round; stroke-linejoin:round; stroke-width:4; stroke-opacity:1; fill:none" points="112.177,1486.45 112.177,47.2441 "/>
<polyline clip-path="url(#clip350)" style="stroke:#000000; stroke-linecap:round; stroke-linejoin:round; stroke-width:4; stroke-opacity:1; fill:none" points="112.177,1355.29 131.075,1355.29 "/>
<polyline clip-path="url(#clip350)" style="stroke:#000000; stroke-linecap:round; stroke-linejoin:round; stroke-width:4; stroke-opacity:1; fill:none" points="112.177,1077.72 131.075,1077.72 "/>
<polyline clip-path="url(#clip350)" style="stroke:#000000; stroke-linecap:round; stroke-linejoin:round; stroke-width:4; stroke-opacity:1; fill:none" points="112.177,800.154 131.075,800.154 "/>
<polyline clip-path="url(#clip350)" style="stroke:#000000; stroke-linecap:round; stroke-linejoin:round; stroke-width:4; stroke-opacity:1; fill:none" points="112.177,522.586 131.075,522.586 "/>
<polyline clip-path="url(#clip350)" style="stroke:#000000; stroke-linecap:round; stroke-linejoin:round; stroke-width:4; stroke-opacity:1; fill:none" points="112.177,245.018 131.075,245.018 "/>
<path clip-path="url(#clip350)" d="M56.2699 1368.63 L63.9087 1368.63 L63.9087 1342.27 L55.5986 1343.94 L55.5986 1339.68 L63.8624 1338.01 L68.5383 1338.01 L68.5383 1368.63 L76.1772 1368.63 L76.1772 1372.57 L56.2699 1372.57 L56.2699 1368.63 Z" fill="#000000" fill-rule="nonzero" fill-opacity="1" /><path clip-path="url(#clip350)" d="M59.8578 1091.07 L76.1772 1091.07 L76.1772 1095 L54.2328 1095 L54.2328 1091.07 Q56.8949 1088.31 61.4782 1083.68 Q66.0846 1079.03 67.2652 1077.69 Q69.5105 1075.16 70.3902 1073.43 Q71.2929 1071.67 71.2929 1069.98 Q71.2929 1067.22 69.3485 1065.49 Q67.4272 1063.75 64.3254 1063.75 Q62.1263 1063.75 59.6726 1064.52 Q57.2421 1065.28 54.4643 1066.83 L54.4643 1062.11 Q57.2884 1060.97 59.7421 1060.4 Q62.1958 1059.82 64.2328 1059.82 Q69.6031 1059.82 72.7976 1062.5 Q75.992 1065.19 75.992 1069.68 Q75.992 1071.81 75.1818 1073.73 Q74.3948 1075.63 72.2883 1078.22 Q71.7096 1078.89 68.6078 1082.11 Q65.5059 1085.3 59.8578 1091.07 Z" fill="#000000" fill-rule="nonzero" fill-opacity="1" /><path clip-path="url(#clip350)" d="M69.0476 798.8 Q72.404 799.518 74.279 801.786 Q76.1772 804.055 76.1772 807.388 Q76.1772 812.504 72.6587 815.305 Q69.1402 818.105 62.6587 818.105 Q60.4828 818.105 58.168 817.666 Q55.8764 817.249 53.4227 816.392 L53.4227 811.879 Q55.3671 813.013 57.6819 813.592 Q59.9967 814.17 62.5198 814.17 Q66.918 814.17 69.2096 812.434 Q71.5244 810.698 71.5244 807.388 Q71.5244 804.332 69.3717 802.619 Q67.242 800.883 63.4226 800.883 L59.3949 800.883 L59.3949 797.041 L63.6078 797.041 Q67.0569 797.041 68.8855 795.675 Q70.7142 794.286 70.7142 791.694 Q70.7142 789.032 68.8161 787.619 Q66.9411 786.184 63.4226 786.184 Q61.5013 786.184 59.3023 786.601 Q57.1032 787.018 54.4643 787.897 L54.4643 783.731 Q57.1264 782.99 59.4412 782.62 Q61.7791 782.249 63.8393 782.249 Q69.1633 782.249 72.2652 784.68 Q75.367 787.087 75.367 791.207 Q75.367 794.078 73.7235 796.069 Q72.08 798.036 69.0476 798.8 Z" fill="#000000" fill-rule="nonzero" fill-opacity="1" /><path clip-path="url(#clip350)" d="M66.5939 509.38 L54.7884 527.829 L66.5939 527.829 L66.5939 509.38 M65.367 505.306 L71.2466 505.306 L71.2466 527.829 L76.1772 527.829 L76.1772 531.718 L71.2466 531.718 L71.2466 539.866 L66.5939 539.866 L66.5939 531.718 L50.9921 531.718 L50.9921 527.204 L65.367 505.306 Z" fill="#000000" fill-rule="nonzero" fill-opacity="1" /><path clip-path="url(#clip350)" d="M55.2745 227.738 L73.6309 227.738 L73.6309 231.674 L59.5569 231.674 L59.5569 240.146 Q60.5754 239.799 61.5939 239.636 Q62.6124 239.451 63.6309 239.451 Q69.418 239.451 72.7976 242.623 Q76.1772 245.794 76.1772 251.21 Q76.1772 256.789 72.705 259.891 Q69.2328 262.97 62.9134 262.97 Q60.7374 262.97 58.4689 262.599 Q56.2236 262.229 53.8162 261.488 L53.8162 256.789 Q55.8995 257.923 58.1217 258.479 Q60.3439 259.035 62.8208 259.035 Q66.8254 259.035 69.1633 256.928 Q71.5013 254.822 71.5013 251.21 Q71.5013 247.599 69.1633 245.493 Q66.8254 243.386 62.8208 243.386 Q60.9458 243.386 59.0708 243.803 Q57.2189 244.22 55.2745 245.099 L55.2745 227.738 Z" fill="#000000" fill-rule="nonzero" fill-opacity="1" /><path clip-path="url(#clip352)" d="M473.467 932.556 L474.808 960.085 L477.488 987.272 L481.503 1014.07 L486.844 1040.43 L493.503 1066.31 L501.468 1091.65 L510.724 1116.43 L521.256 1140.58 L533.044 1164.08 L546.069 1186.87 L560.307 1208.93 L575.732 1230.2 L592.318 1250.65 L610.035 1270.24 L628.852 1288.95 L648.735 1306.74 L669.65 1323.57 L691.56 1339.41 L714.426 1354.25 L738.206 1368.04 L762.861 1380.78 L788.345 1392.43 L814.614 1402.97 L841.621 1412.39 L869.32 1420.67 L897.659 1427.8 L926.591 1433.75 L956.063 1438.53 L986.023 1442.12 L1016.42 1444.52 L1047.2 1445.72 L1083.52 1445.72 L1125.53 1443.58 L1167.87 1439.31 L1210.42 1432.92 L1253.04 1424.43 L1295.59 1413.87 L1337.94 1401.27 L1379.96 1386.68 L1421.52 1370.13 L1462.48 1351.68 L1502.72 1331.39 L1542.1 1309.32 L1580.51 1285.54 L1617.83 1260.13 L1653.93 1233.16 L1688.7 1204.73 L1722.03 1174.91 L1753.82 1143.81 L1783.97 1111.52 L1812.39 1078.15 L1838.97 1043.79 L1863.65 1008.57 L1886.33 972.577 L1906.96 935.94 L1920.83 908.065 L1929.54 889.373 L1937.7 870.584 L1945.3 851.713 L1952.34 832.776 L1958.81 813.787 L1964.72 794.76 L1970.04 775.712 L1974.78 756.657 L1978.94 737.609 L1982.51 718.585 L1985.49 699.599 L1987.88 680.666 L1989.67 661.8 L1990.87 643.018 L1991.47 624.333 L1991.47 601.136 L1990.12 573.607 L1987.44 546.42 L1983.43 519.623 L1978.09 493.262 L1971.43 467.385 L1963.47 442.037 L1954.21 417.264 L1943.68 393.107 L1931.89 369.612 L1918.86 346.818 L1904.63 324.766 L1889.2 303.496 L1872.62 283.044 L1854.9 263.448 L1836.08 244.741 L1816.2 226.956 L1795.28 210.126 L1773.37 194.279 L1750.51 179.445 L1726.73 165.648 L1702.07 152.913 L1676.59 141.264 L1650.32 130.72 L1623.31 121.3 L1595.61 113.021 L1567.27 105.897 L1538.34 99.9409 L1508.87 95.1635 L1478.91 91.5731 L1448.51 89.1759 L1417.74 87.9763 L1381.41 87.9763 L1339.41 90.1149 L1297.06 94.3854 L1254.52 100.774 L1211.9 109.262 L1169.35 119.82 L1126.99 132.418 L1084.97 147.013 L1043.41 163.562 L1002.45 182.011 L962.215 202.302 L922.83 224.372 L884.42 248.15 L847.107 273.563 L811.008 300.53 L776.236 328.966 L742.902 358.781 L711.109 389.882 L680.96 422.17 L652.547 455.544 L625.962 489.899 L601.287 525.126 L578.601 561.115 L557.974 597.751 L544.099 625.627 L535.392 644.319 L527.234 663.108 L519.632 681.979 L512.592 700.916 L506.118 719.905 L500.217 738.932 L494.892 757.98 L490.149 777.035 L485.99 796.083 L482.419 815.107 L479.439 834.093 L477.052 853.026 L475.26 871.892 L474.065 890.674 L473.467 909.359 L473.467 932.556 L473.467 932.556  Z" fill="#008000" fill-rule="evenodd" fill-opacity="1"/>
<polyline clip-path="url(#clip352)" style="stroke:#000000; stroke-linecap:round; stroke-linejoin:round; stroke-width:4; stroke-opacity:1; fill:none" points="473.467,932.556 474.808,960.085 477.488,987.272 481.503,1014.07 486.844,1040.43 493.503,1066.31 501.468,1091.65 510.724,1116.43 521.256,1140.58 533.044,1164.08 546.069,1186.87 560.307,1208.93 575.732,1230.2 592.318,1250.65 610.035,1270.24 628.852,1288.95 648.735,1306.74 669.65,1323.57 691.56,1339.41 714.426,1354.25 738.206,1368.04 762.861,1380.78 788.345,1392.43 814.614,1402.97 841.621,1412.39 869.32,1420.67 897.659,1427.8 926.591,1433.75 956.063,1438.53 986.023,1442.12 1016.42,1444.52 1047.2,1445.72 1083.52,1445.72 1125.53,1443.58 1167.87,1439.31 1210.42,1432.92 1253.04,1424.43 1295.59,1413.87 1337.94,1401.27 1379.96,1386.68 1421.52,1370.13 1462.48,1351.68 1502.72,1331.39 1542.1,1309.32 1580.51,1285.54 1617.83,1260.13 1653.93,1233.16 1688.7,1204.73 1722.03,1174.91 1753.82,1143.81 1783.97,1111.52 1812.39,1078.15 1838.97,1043.79 1863.65,1008.57 1886.33,972.577 1906.96,935.94 1920.83,908.065 1929.54,889.373 1937.7,870.584 1945.3,851.713 1952.34,832.776 1958.81,813.787 1964.72,794.76 1970.04,775.712 1974.78,756.657 1978.94,737.609 1982.51,718.585 1985.49,699.599 1987.88,680.666 1989.67,661.8 1990.87,643.018 1991.47,624.333 1991.47,601.136 1990.12,573.607 1987.44,546.42 1983.43,519.623 1978.09,493.262 1971.43,467.385 1963.47,442.037 1954.21,417.264 1943.68,393.107 1931.89,369.612 1918.86,346.818 1904.63,324.766 1889.2,303.496 1872.62,283.044 1854.9,263.448 1836.08,244.741 1816.2,226.956 1795.28,210.126 1773.37,194.279 1750.51,179.445 1726.73,165.648 1702.07,152.913 1676.59,141.264 1650.32,130.72 1623.31,121.3 1595.61,113.021 1567.27,105.897 1538.34,99.9409 1508.87,95.1635 1478.91,91.5731 1448.51,89.1759 1417.74,87.9763 1381.41,87.9763 1339.41,90.1149 1297.06,94.3854 1254.52,100.774 1211.9,109.262 1169.35,119.82 1126.99,132.418 1084.97,147.013 1043.41,163.562 1002.45,182.011 962.215,202.302 922.83,224.372 884.42,248.15 847.107,273.563 811.008,300.53 776.236,328.966 742.902,358.781 711.109,389.882 680.96,422.17 652.547,455.544 625.962,489.899 601.287,525.126 578.601,561.115 557.974,597.751 544.099,625.627 535.392,644.319 527.234,663.108 519.632,681.979 512.592,700.916 506.118,719.905 500.217,738.932 494.892,757.98 490.149,777.035 485.99,796.083 482.419,815.107 479.439,834.093 477.052,853.026 475.26,871.892 474.065,890.674 473.467,909.359 473.467,932.556 "/>
<path clip-path="url(#clip352)" d="M782.192 865.153 L782.988 881.484 L784.578 897.613 L786.959 913.511 L790.128 929.149 L794.078 944.5 L798.803 959.538 L804.295 974.235 L810.543 988.566 L817.536 1002.5 L825.263 1016.03 L833.709 1029.11 L842.86 1041.73 L852.7 1053.86 L863.21 1065.49 L874.373 1076.58 L886.169 1087.13 L898.577 1097.12 L911.575 1106.52 L925.14 1115.32 L939.248 1123.51 L953.874 1131.06 L968.993 1137.97 L984.577 1144.23 L1000.6 1149.81 L1017.03 1154.73 L1033.84 1158.95 L1051.01 1162.49 L1068.49 1165.32 L1086.26 1167.45 L1104.3 1168.87 L1122.56 1169.58 L1144.1 1169.58 L1169.02 1168.32 L1194.14 1165.78 L1219.39 1161.99 L1244.67 1156.96 L1269.91 1150.69 L1295.04 1143.22 L1319.97 1134.56 L1344.62 1124.74 L1368.92 1113.8 L1392.79 1101.76 L1416.16 1088.67 L1438.94 1074.56 L1461.08 1059.48 L1482.5 1043.49 L1503.12 1026.62 L1522.9 1008.93 L1541.76 990.479 L1559.65 971.324 L1576.5 951.525 L1592.27 931.144 L1606.91 910.246 L1620.37 888.896 L1632.61 867.161 L1643.58 845.11 L1653.26 822.813 L1661.62 800.339 L1668.62 777.76 L1674.25 755.147 L1678.49 732.57 L1681.32 710.101 L1682.74 687.812 L1682.74 668.539 L1681.95 652.208 L1680.36 636.079 L1677.97 620.181 L1674.81 604.543 L1670.85 589.192 L1666.13 574.154 L1660.64 559.457 L1654.39 545.126 L1647.4 531.188 L1639.67 517.665 L1631.22 504.583 L1622.07 491.965 L1612.23 479.832 L1601.72 468.206 L1590.56 457.108 L1578.76 446.558 L1566.36 436.573 L1553.36 427.172 L1539.79 418.372 L1525.69 410.187 L1511.06 402.632 L1495.94 395.721 L1480.36 389.466 L1464.33 383.877 L1447.9 378.966 L1431.09 374.739 L1413.93 371.206 L1396.44 368.372 L1378.67 366.242 L1360.64 364.82 L1342.38 364.108 L1320.83 364.108 L1295.91 365.377 L1270.79 367.91 L1245.55 371.701 L1220.26 376.736 L1195.02 383 L1169.89 390.473 L1144.96 399.132 L1120.31 408.949 L1096.01 419.894 L1072.14 431.932 L1048.78 445.024 L1025.99 459.131 L1003.85 474.207 L982.437 490.205 L961.809 507.075 L942.033 524.762 L923.173 543.213 L905.286 562.368 L888.431 582.167 L872.659 602.548 L858.021 623.446 L844.562 644.796 L832.326 666.531 L821.35 688.582 L811.669 710.879 L803.313 733.353 L796.31 755.932 L790.681 778.545 L786.443 801.122 L783.61 823.591 L782.192 845.88 L782.192 865.153 L782.192 865.153  Z" fill="#ff0000" fill-rule="evenodd" fill-opacity="1"/>
<polyline clip-path="url(#clip352)" style="stroke:#000000; stroke-linecap:round; stroke-linejoin:round; stroke-width:4; stroke-opacity:1; fill:none" points="782.192,865.153 782.988,881.484 784.578,897.613 786.959,913.511 790.128,929.149 794.078,944.5 798.803,959.538 804.295,974.235 810.543,988.566 817.536,1002.5 825.263,1016.03 833.709,1029.11 842.86,1041.73 852.7,1053.86 863.21,1065.49 874.373,1076.58 886.169,1087.13 898.577,1097.12 911.575,1106.52 925.14,1115.32 939.248,1123.51 953.874,1131.06 968.993,1137.97 984.577,1144.23 1000.6,1149.81 1017.03,1154.73 1033.84,1158.95 1051.01,1162.49 1068.49,1165.32 1086.26,1167.45 1104.3,1168.87 1122.56,1169.58 1144.1,1169.58 1169.02,1168.32 1194.14,1165.78 1219.39,1161.99 1244.67,1156.96 1269.91,1150.69 1295.04,1143.22 1319.97,1134.56 1344.62,1124.74 1368.92,1113.8 1392.79,1101.76 1416.16,1088.67 1438.94,1074.56 1461.08,1059.48 1482.5,1043.49 1503.12,1026.62 1522.9,1008.93 1541.76,990.479 1559.65,971.324 1576.5,951.525 1592.27,931.144 1606.91,910.246 1620.37,888.896 1632.61,867.161 1643.58,845.11 1653.26,822.813 1661.62,800.339 1668.62,777.76 1674.25,755.147 1678.49,732.57 1681.32,710.101 1682.74,687.812 1682.74,668.539 1681.95,652.208 1680.36,636.079 1677.97,620.181 1674.81,604.543 1670.85,589.192 1666.13,574.154 1660.64,559.457 1654.39,545.126 1647.4,531.188 1639.67,517.665 1631.22,504.583 1622.07,491.965 1612.23,479.832 1601.72,468.206 1590.56,457.108 1578.76,446.558 1566.36,436.573 1553.36,427.172 1539.79,418.372 1525.69,410.187 1511.06,402.632 1495.94,395.721 1480.36,389.466 1464.33,383.877 1447.9,378.966 1431.09,374.739 1413.93,371.206 1396.44,368.372 1378.67,366.242 1360.64,364.82 1342.38,364.108 1320.83,364.108 1295.91,365.377 1270.79,367.91 1245.55,371.701 1220.26,376.736 1195.02,383 1169.89,390.473 1144.96,399.132 1120.31,408.949 1096.01,419.894 1072.14,431.932 1048.78,445.024 1025.99,459.131 1003.85,474.207 982.437,490.205 961.809,507.075 942.033,524.762 923.173,543.213 905.286,562.368 888.431,582.167 872.659,602.548 858.021,623.446 844.562,644.796 832.326,666.531 821.35,688.582 811.669,710.879 803.313,733.353 796.31,755.932 790.681,778.545 786.443,801.122 783.61,823.591 782.192,845.88 782.192,865.153 "/>
<path clip-path="url(#clip352)" d="M587.781 1210.81 L589.305 1222.73 L592.336 1234.59 L596.842 1246.24 L602.772 1257.57 L610.063 1268.46 L618.635 1278.77 L628.393 1288.41 L639.232 1297.26 L651.033 1305.23 L663.667 1312.22 L676.995 1318.18 L690.874 1323.02 L705.15 1326.7 L719.668 1329.17 L734.269 1330.42 L747.906 1330.42 L760.479 1329.46 L772.774 1327.55 L784.685 1324.7 L796.113 1320.95 L806.962 1316.31 L817.14 1310.84 L826.562 1304.57 L835.148 1297.56 L842.826 1289.87 L849.532 1281.56 L855.208 1272.7 L859.808 1263.37 L863.292 1253.64 L865.631 1243.6 L866.805 1233.34 L866.805 1222.2 L865.281 1210.28 L862.25 1198.43 L857.744 1186.77 L851.814 1175.44 L844.523 1164.56 L835.951 1154.24 L826.193 1144.6 L815.354 1135.75 L803.553 1127.79 L790.919 1120.79 L777.591 1114.84 L763.712 1109.99 L749.436 1106.31 L734.918 1103.84 L720.317 1102.59 L706.68 1102.59 L694.107 1103.55 L681.813 1105.46 L669.901 1108.31 L658.473 1112.06 L647.624 1116.7 L637.446 1122.17 L628.024 1128.44 L619.438 1135.45 L611.76 1143.15 L605.054 1151.46 L599.378 1160.31 L594.778 1169.65 L591.294 1179.37 L588.955 1189.41 L587.781 1199.68 L587.781 1210.81 L587.781 1210.81  Z" fill="#0000ff" fill-rule="evenodd" fill-opacity="1"/>
<polyline clip-path="url(#clip352)" style="stroke:#000000; stroke-linecap:round; stroke-linejoin:round; stroke-width:4; stroke-opacity:1; fill:none" points="587.781,1210.81 589.305,1222.73 592.336,1234.59 596.842,1246.24 602.772,1257.57 610.063,1268.46 618.635,1278.77 628.393,1288.41 639.232,1297.26 651.033,1305.23 663.667,1312.22 676.995,1318.18 690.874,1323.02 705.15,1326.7 719.668,1329.17 734.269,1330.42 747.906,1330.42 760.479,1329.46 772.774,1327.55 784.685,1324.7 796.113,1320.95 806.962,1316.31 817.14,1310.84 826.562,1304.57 835.148,1297.56 842.826,1289.87 849.532,1281.56 855.208,1272.7 859.808,1263.37 863.292,1253.64 865.631,1243.6 866.805,1233.34 866.805,1222.2 865.281,1210.28 862.25,1198.43 857.744,1186.77 851.814,1175.44 844.523,1164.56 835.951,1154.24 826.193,1144.6 815.354,1135.75 803.553,1127.79 790.919,1120.79 777.591,1114.84 763.712,1109.99 749.436,1106.31 734.918,1103.84 720.317,1102.59 706.68,1102.59 694.107,1103.55 681.813,1105.46 669.901,1108.31 658.473,1112.06 647.624,1116.7 637.446,1122.17 628.024,1128.44 619.438,1135.45 611.76,1143.15 605.054,1151.46 599.378,1160.31 594.778,1169.65 591.294,1179.37 588.955,1189.41 587.781,1199.68 587.781,1210.81 "/>
</svg>
