<?xml version="1.0" encoding="utf-8"?>
<svg xmlns="http://www.w3.org/2000/svg" xmlns:xlink="http://www.w3.org/1999/xlink" width="600" height="400" viewBox="0 0 2400 1600">
<defs>
  <clipPath id="clip330">
    <rect x="0" y="0" width="2400" height="1600"/>
  </clipPath>
</defs>
<path clip-path="url(#clip330)" d="M0 1600 L2400 1600 L2400 0 L0 0  Z" fill="#ffffff" fill-rule="evenodd" fill-opacity="1"/>
<defs>
  <clipPath id="clip331">
    <rect x="480" y="0" width="1681" height="1600"/>
  </clipPath>
</defs>
<path clip-path="url(#clip330)" d="M112.177 1486.45 L2352.76 1486.45 L2352.76 47.2441 L112.177 47.2441  Z" fill="#ffffff" fill-rule="evenodd" fill-opacity="1"/>
<defs>
  <clipPath id="clip332">
    <rect x="112" y="47" width="2242" height="1440"/>
  </clipPath>
</defs>
<polyline clip-path="url(#clip332)" style="stroke:#000000; stroke-linecap:round; stroke-linejoin:round; stroke-width:2; stroke-opacity:0.1; fill:none" points="411.312,1486.45 411.312,47.2441 "/>
<polyline clip-path="url(#clip332)" style="stroke:#000000; stroke-linecap:round; stroke-linejoin:round; stroke-width:2; stroke-opacity:0.1; fill:none" points="811.875,1486.45 811.875,47.2441 "/>
<polyline clip-path="url(#clip332)" style="stroke:#000000; stroke-linecap:round; stroke-linejoin:round; stroke-width:2; stroke-opacity:0.1; fill:none" points="1212.44,1486.45 1212.44,47.2441 "/>
<polyline clip-path="url(#clip332)" style="stroke:#000000; stroke-linecap:round; stroke-linejoin:round; stroke-width:2; stroke-opacity:0.1; fill:none" points="1613,1486.45 1613,47.2441 "/>
<polyline clip-path="url(#clip332)" style="stroke:#000000; stroke-linecap:round; stroke-linejoin:round; stroke-width:2; stroke-opacity:0.1; fill:none" points="2013.57,1486.45 2013.57,47.2441 "/>
<polyline clip-path="url(#clip330)" style="stroke:#000000; stroke-linecap:round; stroke-linejoin:round; stroke-width:4; stroke-opacity:1; fill:none" points="112.177,1486.45 2352.76,1486.45 "/>
<polyline clip-path="url(#clip330)" style="stroke:#000000; stroke-linecap:round; stroke-linejoin:round; stroke-width:4; stroke-opacity:1; fill:none" points="411.312,1486.45 411.312,1467.55 "/>
<polyline clip-path="url(#clip330)" style="stroke:#000000; stroke-linecap:round; stroke-linejoin:round; stroke-width:4; stroke-opacity:1; fill:none" points="811.875,1486.45 811.875,1467.55 "/>
<polyline clip-path="url(#clip330)" style="stroke:#000000; stroke-linecap:round; stroke-linejoin:round; stroke-width:4; stroke-opacity:1; fill:none" points="1212.44,1486.45 1212.44,1467.55 "/>
<polyline clip-path="url(#clip330)" style="stroke:#000000; stroke-linecap:round; stroke-linejoin:round; stroke-width:4; stroke-opacity:1; fill:none" points="1613,1486.45 1613,1467.55 "/>
<polyline clip-path="url(#clip330)" style="stroke:#000000; stroke-linecap:round; stroke-linejoin:round; stroke-width:4; stroke-opacity:1; fill:none" points="2013.57,1486.45 2013.57,1467.55 "/>
<path clip-path="url(#clip330)" d="M411.312 1517.37 Q407.7 1517.37 405.872 1520.93 Q404.066 1524.47 404.066 1531.6 Q404.066 1538.71 405.872 1542.27 Q407.7 1545.82 411.312 1545.82 Q414.946 1545.82 416.751 1542.27 Q418.58 1538.71 418.58 1531.6 Q418.58 1524.47 416.751 1520.93 Q414.946 1517.37 411.312 1517.37 M411.312 1513.66 Q417.122 1513.66 420.177 1518.27 Q423.256 1522.85 423.256 1531.6 Q423.256 1540.33 420.177 1544.94 Q417.122 1549.52 411.312 1549.52 Q405.501 1549.52 402.423 1544.94 Q399.367 1540.33 399.367 1531.6 Q399.367 1522.85 402.423 1518.27 Q405.501 1513.66 411.312 1513.66 Z" fill="#000000" fill-rule="nonzero" fill-opacity="1" /><path clip-path="url(#clip330)" d="M806.528 1544.91 L822.847 1544.91 L822.847 1548.85 L800.903 1548.85 L800.903 1544.91 Q803.565 1542.16 808.148 1537.53 Q812.755 1532.88 813.935 1531.53 Q816.18 1529.01 817.06 1527.27 Q817.963 1525.51 817.963 1523.82 Q817.963 1521.07 816.018 1519.33 Q814.097 1517.6 810.995 1517.6 Q808.796 1517.6 806.343 1518.36 Q803.912 1519.13 801.134 1520.68 L801.134 1515.95 Q803.958 1514.82 806.412 1514.24 Q808.866 1513.66 810.903 1513.66 Q816.273 1513.66 819.468 1516.35 Q822.662 1519.03 822.662 1523.52 Q822.662 1525.65 821.852 1527.57 Q821.065 1529.47 818.958 1532.07 Q818.38 1532.74 815.278 1535.95 Q812.176 1539.15 806.528 1544.91 Z" fill="#000000" fill-rule="nonzero" fill-opacity="1" /><path clip-path="url(#clip330)" d="M1215.45 1518.36 L1203.64 1536.81 L1215.45 1536.81 L1215.45 1518.36 M1214.22 1514.29 L1220.1 1514.29 L1220.1 1536.81 L1225.03 1536.81 L1225.03 1540.7 L1220.1 1540.7 L1220.1 1548.85 L1215.45 1548.85 L1215.45 1540.7 L1199.85 1540.7 L1199.85 1536.19 L1214.22 1514.29 Z" fill="#000000" fill-rule="nonzero" fill-opacity="1" /><path clip-path="url(#clip330)" d="M1613.41 1529.7 Q1610.26 1529.7 1608.41 1531.86 Q1606.58 1534.01 1606.58 1537.76 Q1606.58 1541.49 1608.41 1543.66 Q1610.26 1545.82 1613.41 1545.82 Q1616.56 1545.82 1618.38 1543.66 Q1620.24 1541.49 1620.24 1537.76 Q1620.24 1534.01 1618.38 1531.86 Q1616.56 1529.7 1613.41 1529.7 M1622.69 1515.05 L1622.69 1519.31 Q1620.93 1518.48 1619.12 1518.04 Q1617.34 1517.6 1615.58 1517.6 Q1610.95 1517.6 1608.5 1520.72 Q1606.07 1523.85 1605.72 1530.17 Q1607.09 1528.15 1609.15 1527.09 Q1611.21 1526 1613.68 1526 Q1618.89 1526 1621.9 1529.17 Q1624.93 1532.32 1624.93 1537.76 Q1624.93 1543.08 1621.79 1546.3 Q1618.64 1549.52 1613.41 1549.52 Q1607.41 1549.52 1604.24 1544.94 Q1601.07 1540.33 1601.07 1531.6 Q1601.07 1523.41 1604.96 1518.55 Q1608.85 1513.66 1615.4 1513.66 Q1617.16 1513.66 1618.94 1514.01 Q1620.74 1514.36 1622.69 1515.05 Z" fill="#000000" fill-rule="nonzero" fill-opacity="1" /><path clip-path="url(#clip330)" d="M2013.57 1532.44 Q2010.23 1532.44 2008.31 1534.22 Q2006.41 1536 2006.41 1539.13 Q2006.41 1542.25 2008.31 1544.03 Q2010.23 1545.82 2013.57 1545.82 Q2016.9 1545.82 2018.82 1544.03 Q2020.74 1542.23 2020.74 1539.13 Q2020.74 1536 2018.82 1534.22 Q2016.92 1532.44 2013.57 1532.44 M2008.89 1530.45 Q2005.88 1529.7 2004.19 1527.64 Q2002.52 1525.58 2002.52 1522.62 Q2002.52 1518.48 2005.46 1516.07 Q2008.43 1513.66 2013.57 1513.66 Q2018.73 1513.66 2021.67 1516.07 Q2024.61 1518.48 2024.61 1522.62 Q2024.61 1525.58 2022.92 1527.64 Q2021.25 1529.7 2018.26 1530.45 Q2021.64 1531.23 2023.52 1533.52 Q2025.42 1535.82 2025.42 1539.13 Q2025.42 1544.15 2022.34 1546.83 Q2019.28 1549.52 2013.57 1549.52 Q2007.85 1549.52 2004.77 1546.83 Q2001.71 1544.15 2001.71 1539.13 Q2001.71 1535.82 2003.61 1533.52 Q2005.51 1531.23 2008.89 1530.45 M2007.18 1523.06 Q2007.18 1525.75 2008.84 1527.25 Q2010.53 1528.76 2013.57 1528.76 Q2016.57 1528.76 2018.26 1527.25 Q2019.98 1525.75 2019.98 1523.06 Q2019.98 1520.38 2018.26 1518.87 Q2016.57 1517.37 2013.57 1517.37 Q2010.53 1517.37 2008.84 1518.87 Q2007.18 1520.38 2007.18 1523.06 Z" fill="#000000" fill-rule="nonzero" fill-opacity="1" /><polyline clip-path="url(#clip332)" style="stroke:#000000; stroke-linecap:round; stroke-linejoin:round; stroke-width:2; stroke-opacity:0.1; fill:none" points="112.177,1347.66 2352.76,1347.66 "/>
<polyline clip-path="url(#clip332)" style="stroke:#000000; stroke-linecap:round; stroke-linejoin:round; stroke-width:2; stroke-opacity:0.1; fill:none" points="112.177,1147.38 2352.76,1147.38 "/>
<polyline clip-path="url(#clip332)" style="stroke:#000000; stroke-linecap:round; stroke-linejoin:round; stroke-width:2; stroke-opacity:0.1; fill:none" points="112.177,947.1 2352.76,947.1 "/>
<polyline clip-path="url(#clip332)" style="stroke:#000000; stroke-linecap:round; stroke-linejoin:round; stroke-width:2; stroke-opacity:0.1; fill:none" points="112.177,746.818 2352.76,746.818 "/>
<polyline clip-path="url(#clip332)" style="stroke:#000000; stroke-linecap:round; stroke-linejoin:round; stroke-width:2; stroke-opacity:0.1; fill:none" points="112.177,546.536 2352.76,546.536 "/>
<polyline clip-path="url(#clip332)" style="stroke:#000000; stroke-linecap:round; stroke-linejoin:round; stroke-width:2; stroke-opacity:0.1; fill:none" points="112.177,346.254 2352.76,346.254 "/>
<polyline clip-path="url(#clip332)" style="stroke:#000000; stroke-linecap:round; stroke-linejoin:round; stroke-width:2; stroke-opacity:0.1; fill:none" points="112.177,145.973 2352.76,145.973 "/>
<polyline clip-path="url(#clip330)" style="stroke:#000000; stroke-linecap:round; stroke-linejoin:round; stroke-width:4; stroke-opacity:1; fill:none" points="112.177,1486.45 112.177,47.2441 "/>
<polyline clip-path="url(#clip330)" style="stroke:#000000; stroke-linecap:round; stroke-linejoin:round; stroke-width:4; stroke-opacity:1; fill:none" points="112.177,1347.66 131.075,1347.66 "/>
<polyline clip-path="url(#clip330)" style="stroke:#000000; stroke-linecap:round; stroke-linejoin:round; stroke-width:4; stroke-opacity:1; fill:none" points="112.177,1147.38 131.075,1147.38 "/>
<polyline clip-path="url(#clip330)" style="stroke:#000000; stroke-linecap:round; stroke-linejoin:round; stroke-width:4; stroke-opacity:1; fill:none" points="112.177,947.1 131.075,947.1 "/>
<polyline clip-path="url(#clip330)" style="stroke:#000000; stroke-linecap:round; stroke-linejoin:round; stroke-width:4; stroke-opacity:1; fill:none" points="112.177,746.818 131.075,746.818 "/>
<polyline clip-path="url(#clip330)" style="stroke:#000000; stroke-linecap:round; stroke-linejoin:round; stroke-width:4; stroke-opacity:1; fill:none" points="112.177,546.536 131.075,546.536 "/>
<polyline clip-path="url(#clip330)" style="stroke:#000000; stroke-linecap:round; stroke-linejoin:round; stroke-width:4; stroke-opacity:1; fill:none" points="112.177,346.254 131.075,346.254 "/>
<polyline clip-path="url(#clip330)" style="stroke:#000000; stroke-linecap:round; stroke-linejoin:round; stroke-width:4; stroke-opacity:1; fill:none" points="112.177,145.973 131.075,145.973 "/>
<path clip-path="url(#clip330)" d="M56.2699 1361.01 L63.9087 1361.01 L63.9087 1334.64 L55.5986 1336.31 L55.5986 1332.05 L63.8624 1330.38 L68.5383 1330.38 L68.5383 1361.01 L76.1772 1361.01 L76.1772 1364.94 L56.2699 1364.94 L56.2699 1361.01 Z" fill="#000000" fill-rule="nonzero" fill-opacity="1" /><path clip-path="url(#clip330)" d="M59.8578 1160.73 L76.1772 1160.73 L76.1772 1164.66 L54.2328 1164.66 L54.2328 1160.73 Q56.8949 1157.97 61.4782 1153.34 Q66.0846 1148.69 67.2652 1147.35 Q69.5105 1144.82 70.3902 1143.09 Q71.2929 1141.33 71.2929 1139.64 Q71.2929 1136.88 69.3485 1135.15 Q67.4272 1133.41 64.3254 1133.41 Q62.1263 1133.41 59.6726 1134.18 Q57.2421 1134.94 54.4643 1136.49 L54.4643 1131.77 Q57.2884 1130.63 59.7421 1130.05 Q62.1958 1129.48 64.2328 1129.48 Q69.6031 1129.48 72.7976 1132.16 Q75.992 1134.85 75.992 1139.34 Q75.992 1141.47 75.1818 1143.39 Q74.3948 1145.29 72.2883 1147.88 Q71.7096 1148.55 68.6078 1151.77 Q65.5059 1154.96 59.8578 1160.73 Z" fill="#000000" fill-rule="nonzero" fill-opacity="1" /><path clip-path="url(#clip330)" d="M69.0476 945.745 Q72.404 946.463 74.279 948.731 Q76.1772 951 76.1772 954.333 Q76.1772 959.449 72.6587 962.25 Q69.1402 965.051 62.6587 965.051 Q60.4828 965.051 58.168 964.611 Q55.8764 964.194 53.4227 963.338 L53.4227 958.824 Q55.3671 959.958 57.6819 960.537 Q59.9967 961.116 62.5198 961.116 Q66.918 961.116 69.2096 959.38 Q71.5244 957.643 71.5244 954.333 Q71.5244 951.278 69.3717 949.565 Q67.242 947.829 63.4226 947.829 L59.3949 947.829 L59.3949 943.986 L63.6078 943.986 Q67.0569 943.986 68.8855 942.62 Q70.7142 941.231 70.7142 938.639 Q70.7142 935.977 68.8161 934.565 Q66.9411 933.13 63.4226 933.13 Q61.5013 933.13 59.3023 933.546 Q57.1032 933.963 54.4643 934.843 L54.4643 930.676 Q57.1264 929.935 59.4412 929.565 Q61.7791 929.195 63.8393 929.195 Q69.1633 929.195 72.2652 931.625 Q75.367 934.032 75.367 938.153 Q75.367 941.023 73.7235 943.014 Q72.08 944.981 69.0476 945.745 Z" fill="#000000" fill-rule="nonzero" fill-opacity="1" /><path clip-path="url(#clip330)" d="M66.5939 733.612 L54.7884 752.061 L66.5939 752.061 L66.5939 733.612 M65.367 729.538 L71.2466 729.538 L71.2466 752.061 L76.1772 752.061 L76.1772 755.95 L71.2466 755.95 L71.2466 764.098 L66.5939 764.098 L66.5939 755.95 L50.9921 755.95 L50.9921 751.436 L65.367 729.538 Z" fill="#000000" fill-rule="nonzero" fill-opacity="1" /><path clip-path="url(#clip330)" d="M55.2745 529.256 L73.6309 529.256 L73.6309 533.191 L59.5569 533.191 L59.5569 541.663 Q60.5754 541.316 61.5939 541.154 Q62.6124 540.969 63.6309 540.969 Q69.418 540.969 72.7976 544.14 Q76.1772 547.312 76.1772 552.728 Q76.1772 558.307 72.705 561.409 Q69.2328 564.487 62.9134 564.487 Q60.7374 564.487 58.4689 564.117 Q56.2236 563.747 53.8162 563.006 L53.8162 558.307 Q55.8995 559.441 58.1217 559.997 Q60.3439 560.552 62.8208 560.552 Q66.8254 560.552 69.1633 558.446 Q71.5013 556.339 71.5013 552.728 Q71.5013 549.117 69.1633 547.011 Q66.8254 544.904 62.8208 544.904 Q60.9458 544.904 59.0708 545.321 Q57.2189 545.738 55.2745 546.617 L55.2745 529.256 Z" fill="#000000" fill-rule="nonzero" fill-opacity="1" /><path clip-path="url(#clip330)" d="M64.6495 344.391 Q61.5013 344.391 59.6495 346.544 Q57.8208 348.697 57.8208 352.446 Q57.8208 356.173 59.6495 358.349 Q61.5013 360.502 64.6495 360.502 Q67.7976 360.502 69.6263 358.349 Q71.4781 356.173 71.4781 352.446 Q71.4781 348.697 69.6263 346.544 Q67.7976 344.391 64.6495 344.391 M73.9318 329.738 L73.9318 333.998 Q72.1726 333.164 70.367 332.724 Q68.5846 332.285 66.8254 332.285 Q62.1958 332.285 59.7421 335.41 Q57.3115 338.535 56.9643 344.854 Q58.33 342.84 60.3902 341.775 Q62.4504 340.687 64.9272 340.687 Q70.1355 340.687 73.1448 343.859 Q76.1772 347.007 76.1772 352.446 Q76.1772 357.771 73.029 360.988 Q69.8809 364.206 64.6495 364.206 Q58.6541 364.206 55.4828 359.622 Q52.3116 355.016 52.3116 346.289 Q52.3116 338.095 56.2004 333.234 Q60.0893 328.349 66.6402 328.349 Q68.3994 328.349 70.1818 328.697 Q71.9874 329.044 73.9318 329.738 Z" fill="#000000" fill-rule="nonzero" fill-opacity="1" /><path clip-path="url(#clip330)" d="M53.9551 128.693 L76.1772 128.693 L76.1772 130.683 L63.6309 163.253 L58.7467 163.253 L70.5522 132.628 L53.9551 132.628 L53.9551 128.693 Z" fill="#000000" fill-rule="nonzero" fill-opacity="1" /><path clip-path="url(#clip332)" d="M473.467 932.556 L474.808 960.085 L477.488 987.272 L481.503 1014.07 L486.844 1040.43 L493.503 1066.31 L501.468 1091.65 L510.724 1116.43 L521.256 1140.58 L533.044 1164.08 L546.069 1186.87 L560.307 1208.93 L575.732 1230.2 L592.318 1250.65 L610.035 1270.24 L628.852 1288.95 L648.735 1306.74 L669.65 1323.57 L691.56 1339.41 L714.426 1354.25 L738.206 1368.04 L762.861 1380.78 L788.345 1392.43 L814.614 1402.97 L841.621 1412.39 L869.32 1420.67 L897.659 1427.8 L926.591 1433.75 L956.063 1438.53 L986.023 1442.12 L1016.42 1444.52 L1047.2 1445.72 L1073.13 1445.72 L1094.02 1445.18 L1115.02 1444.11 L1136.11 1442.51 L1157.28 1440.37 L1178.51 1437.71 L1199.78 1434.52 L1221.07 1430.8 L1242.38 1426.55 L1263.68 1421.79 L1284.95 1416.51 L1306.18 1410.72 L1327.35 1404.42 L1348.45 1397.62 L1369.46 1390.33 L1390.35 1382.54 L1411.13 1374.27 L1431.76 1365.52 L1452.24 1356.29 L1472.54 1346.61 L1492.66 1336.46 L1512.57 1325.87 L1532.25 1314.84 L1551.71 1303.37 L1570.91 1291.49 L1589.84 1279.19 L1608.5 1266.48 L1626.85 1253.39 L1644.9 1239.91 L1662.62 1226.05 L1680 1211.84 L1697.03 1197.27 L1713.7 1182.37 L1729.98 1167.13 L1745.87 1151.59 L1761.36 1135.74 L1776.43 1119.6 L1791.08 1103.18 L1805.28 1086.49 L1819.03 1069.56 L1832.32 1052.38 L1845.14 1034.98 L1857.48 1017.37 L1869.32 999.567 L1880.66 981.576 L1891.49 963.416 L1901.8 945.101 L1911.59 926.646 L1920.83 908.065 L1929.54 889.373 L1937.7 870.584 L1945.3 851.713 L1952.34 832.776 L1958.81 813.787 L1964.72 794.76 L1970.04 775.712 L1974.78 756.657 L1978.94 737.609 L1982.51 718.585 L1985.49 699.599 L1987.88 680.666 L1989.67 661.8 L1990.87 643.018 L1991.47 624.333 L1991.47 601.136 L1990.12 573.607 L1987.44 546.42 L1983.43 519.623 L1978.09 493.262 L1971.43 467.385 L1963.47 442.037 L1954.21 417.264 L1943.68 393.107 L1931.89 369.612 L1918.86 346.818 L1904.63 324.766 L1889.2 303.496 L1872.62 283.044 L1854.9 263.448 L1836.08 244.741 L1816.2 226.956 L1795.28 210.126 L1773.37 194.279 L1750.51 179.445 L1726.73 165.648 L1702.07 152.913 L1676.59 141.264 L1650.32 130.72 L1623.31 121.3 L1595.61 113.021 L1567.27 105.897 L1538.34 99.9409 L1508.87 95.1635 L1478.91 91.5731 L1448.51 89.1759 L1417.74 87.9763 L1391.8 87.9763 L1370.91 88.511 L1349.91 89.5801 L1328.82 91.1827 L1307.65 93.3176 L1286.42 95.983 L1265.15 99.1768 L1243.86 102.897 L1222.55 107.139 L1201.26 111.902 L1179.99 117.18 L1158.75 122.97 L1137.58 129.268 L1116.48 136.067 L1095.48 143.364 L1074.58 151.151 L1053.8 159.424 L1033.17 168.175 L1012.69 177.398 L992.391 187.085 L972.276 197.228 L952.367 207.821 L932.678 218.853 L913.226 230.318 L894.025 242.205 L875.09 254.505 L856.437 267.209 L838.08 280.306 L820.034 293.787 L802.313 307.64 L784.931 321.855 L767.901 336.421 L751.237 351.326 L734.952 366.558 L719.059 382.105 L703.57 397.955 L688.499 414.096 L673.855 430.515 L659.652 447.199 L645.9 464.134 L632.61 481.308 L619.792 498.707 L607.457 516.317 L595.614 534.125 L584.274 552.116 L573.443 570.276 L563.132 588.59 L553.348 607.046 L544.099 625.627 L535.392 644.319 L527.234 663.108 L519.632 681.979 L512.592 700.916 L506.118 719.905 L500.217 738.932 L494.892 757.98 L490.149 777.035 L485.99 796.083 L482.419 815.107 L479.439 834.093 L477.052 853.026 L475.26 871.892 L474.065 890.674 L473.467 909.359 L473.467 932.556 L473.467 932.556  Z" fill="#008000" fill-rule="evenodd" fill-opacity="1"/>
<polyline clip-path="url(#clip332)" style="stroke:#000000; stroke-linecap:round; stroke-linejoin:round; stroke-width:4; stroke-opacity:1; fill:none" points="473.467,932.556 474.808,960.085 477.488,987.272 481.503,1014.07 486.844,1040.43 493.503,1066.31 501.468,1091.65 510.724,1116.43 521.256,1140.58 533.044,1164.08 546.069,1186.87 560.307,1208.93 575.732,1230.2 592.318,1250.65 610.035,1270.24 628.852,1288.95 648.735,1306.74 669.65,1323.57 691.56,1339.41 714.426,1354.25 738.206,1368.04 762.861,1380.78 788.345,1392.43 814.614,1402.97 841.621,1412.39 869.32,1420.67 897.659,1427.8 926.591,1433.75 956.063,1438.53 986.023,1442.12 1016.42,1444.52 1047.2,1445.72 1073.13,1445.72 1094.02,1445.18 1115.02,1444.11 1136.11,1442.51 1157.28,1440.37 1178.51,1437.71 1199.78,1434.52 1221.07,1430.8 1242.38,1426.55 1263.68,1421.79 1284.95,1416.51 1306.18,1410.72 1327.35,1404.42 1348.45,1397.62 1369.46,1390.33 1390.35,1382.54 1411.13,1374.27 1431.76,1365.52 1452.24,1356.29 1472.54,1346.61 1492.66,1336.46 1512.57,1325.87 1532.25,1314.84 1551.71,1303.37 1570.91,1291.49 1589.84,1279.19 1608.5,1266.48 1626.85,1253.39 1644.9,1239.91 1662.62,1226.05 1680,1211.84 1697.03,1197.27 1713.7,1182.37 1729.98,1167.13 1745.87,1151.59 1761.36,1135.74 1776.43,1119.6 1791.08,1103.18 1805.28,1086.49 1819.03,1069.56 1832.32,1052.38 1845.14,1034.98 1857.48,1017.37 1869.32,999.567 1880.66,981.576 1891.49,963.416 1901.8,945.101 1911.59,926.646 1920.83,908.065 1929.54,889.373 1937.7,870.584 1945.3,851.713 1952.34,832.776 1958.81,813.787 1964.72,794.76 1970.04,775.712 1974.78,756.657 1978.94,737.609 1982.51,718.585 1985.49,699.599 1987.88,680.666 1989.67,661.8 1990.87,643.018 1991.47,624.333 1991.47,601.136 1990.12,573.607 1987.44,546.42 1983.43,519.623 1978.09,493.262 1971.43,467.385 1963.47,442.037 1954.21,417.264 1943.68,393.107 1931.89,369.612 1918.86,346.818 1904.63,324.766 1889.2,303.496 1872.62,283.044 1854.9,263.448 1836.08,244.741 1816.2,226.956 1795.28,210.126 1773.37,194.279 1750.51,179.445 1726.73,165.648 1702.07,152.913 1676.59,141.264 1650.32,130.72 1623.31,121.3 1595.61,113.021 1567.27,105.897 1538.34,99.9409 1508.87,95.1635 1478.91,91.5731 1448.51,89.1759 1417.74,87.9763 1391.8,87.9763 1370.91,88.511 1349.91,89.5801 1328.82,91.1827 1307.65,93.3176 1286.42,95.983 1265.15,99.1768 1243.86,102.897 1222.55,107.139 1201.26,111.902 1179.99,117.18 1158.75,122.97 1137.58,129.268 1116.48,136.067 1095.48,143.364 1074.58,151.151 1053.8,159.424 1033.17,168.175 1012.69,177.398 992.391,187.085 972.276,197.228 952.367,207.821 932.678,218.853 913.226,230.318 894.025,242.205 875.09,254.505 856.437,267.209 838.08,280.306 820.034,293.787 802.313,307.64 784.931,321.855 767.901,336.421 751.237,351.326 734.952,366.558 719.059,382.105 703.57,397.955 688.499,414.096 673.855,430.515 659.652,447.199 645.9,464.134 632.61,481.308 619.792,498.707 607.457,516.317 595.614,534.125 584.274,552.116 573.443,570.276 563.132,588.59 553.348,607.046 544.099,625.627 535.392,644.319 527.234,663.108 519.632,681.979 512.592,700.916 506.118,719.905 500.217,738.932 494.892,757.98 490.149,777.035 485.99,796.083 482.419,815.107 479.439,834.093 477.052,853.026 475.26,871.892 474.065,890.674 473.467,909.359 473.467,932.556 "/>
<path clip-path="url(#clip332)" d="M907.567 837.781 L908.141 849.564 L909.288 861.202 L911.006 872.673 L913.293 883.957 L916.143 895.034 L919.553 905.885 L923.515 916.489 L928.023 926.83 L933.07 936.887 L938.645 946.645 L944.739 956.084 L951.342 965.189 L958.442 973.944 L966.026 982.332 L974.081 990.34 L982.593 997.953 L991.546 1005.16 L1000.92 1011.94 L1010.71 1018.29 L1020.89 1024.2 L1031.45 1029.65 L1042.35 1034.63 L1053.6 1039.15 L1065.16 1043.18 L1077.02 1046.72 L1089.15 1049.77 L1101.53 1052.32 L1114.15 1054.37 L1126.97 1055.91 L1139.98 1056.93 L1153.16 1057.45 L1168.71 1057.45 L1186.69 1056.53 L1204.82 1054.7 L1223.03 1051.97 L1241.27 1048.33 L1259.49 1043.81 L1277.62 1038.42 L1295.6 1032.17 L1313.39 1025.09 L1330.93 1017.19 L1348.15 1008.51 L1365.01 999.059 L1381.45 988.881 L1397.42 978.002 L1412.88 966.459 L1427.76 954.286 L1442.03 941.524 L1455.64 928.211 L1468.55 914.389 L1480.71 900.103 L1492.09 885.397 L1502.65 870.317 L1512.36 854.912 L1521.19 839.229 L1529.11 823.318 L1536.1 807.229 L1542.13 791.013 L1547.18 774.721 L1551.24 758.404 L1554.3 742.114 L1556.34 725.901 L1557.37 709.818 L1557.37 695.911 L1556.79 684.128 L1555.64 672.49 L1553.93 661.019 L1551.64 649.735 L1548.79 638.658 L1545.38 627.807 L1541.42 617.203 L1536.91 606.862 L1531.86 596.805 L1526.29 587.047 L1520.19 577.608 L1513.59 568.503 L1506.49 559.748 L1498.91 551.36 L1490.85 543.352 L1482.34 535.739 L1473.39 528.535 L1464.01 521.751 L1454.22 515.401 L1444.04 509.495 L1433.49 504.044 L1422.58 499.057 L1411.33 494.544 L1399.77 490.511 L1387.92 486.967 L1375.79 483.918 L1363.4 481.368 L1350.78 479.323 L1337.96 477.786 L1324.95 476.76 L1311.77 476.247 L1296.23 476.247 L1278.24 477.162 L1260.12 478.99 L1241.9 481.725 L1223.66 485.358 L1205.45 489.878 L1187.32 495.27 L1169.33 501.518 L1151.54 508.602 L1134.01 516.499 L1116.78 525.185 L1099.92 534.633 L1083.48 544.811 L1067.51 555.69 L1052.06 567.233 L1037.17 579.405 L1022.9 592.168 L1009.29 605.481 L996.387 619.303 L984.224 633.589 L972.844 648.295 L962.282 663.375 L952.571 678.78 L943.741 694.463 L935.821 710.374 L928.836 726.463 L922.807 742.679 L917.754 758.971 L913.692 775.288 L910.634 791.578 L908.59 807.791 L907.567 823.874 L907.567 837.781 L907.567 837.781  Z" fill="#ff0000" fill-rule="evenodd" fill-opacity="1"/>
<polyline clip-path="url(#clip332)" style="stroke:#000000; stroke-linecap:round; stroke-linejoin:round; stroke-width:4; stroke-opacity:1; fill:none" points="907.567,837.781 908.141,849.564 909.288,861.202 911.006,872.673 913.293,883.957 916.143,895.034 919.553,905.885 923.515,916.489 928.023,926.83 933.07,936.887 938.645,946.645 944.739,956.084 951.342,965.189 958.442,973.944 966.026,982.332 974.081,990.34 982.593,997.953 991.546,1005.16 1000.92,1011.94 1010.71,1018.29 1020.89,1024.2 1031.45,1029.65 1042.35,1034.63 1053.6,1039.15 1065.16,1043.18 1077.02,1046.72 1089.15,1049.77 1101.53,1052.32 1114.15,1054.37 1126.97,1055.91 1139.98,1056.93 1153.16,1057.45 1168.71,1057.45 1186.69,1056.53 1204.82,1054.7 1223.03,1051.97 1241.27,1048.33 1259.49,1043.81 1277.62,1038.42 1295.6,1032.17 1313.39,1025.09 1330.93,1017.19 1348.15,1008.51 1365.01,999.059 1381.45,988.881 1397.42,978.002 1412.88,966.459 1427.76,954.286 1442.03,941.524 1455.64,928.211 1468.55,914.389 1480.71,900.103 1492.09,885.397 1502.65,870.317 1512.36,854.912 1521.19,839.229 1529.11,823.318 1536.1,807.229 1542.13,791.013 1547.18,774.721 1551.24,758.404 1554.3,742.114 1556.34,725.901 1557.37,709.818 1557.37,695.911 1556.79,684.128 1555.64,672.49 1553.93,661.019 1551.64,649.735 1548.79,638.658 1545.38,627.807 1541.42,617.203 1536.91,606.862 1531.86,596.805 1526.29,587.047 1520.19,577.608 1513.59,568.503 1506.49,559.748 1498.91,551.36 1490.85,543.352 1482.34,535.739 1473.39,528.535 1464.01,521.751 1454.22,515.401 1444.04,509.495 1433.49,504.044 1422.58,499.057 1411.33,494.544 1399.77,490.511 1387.92,486.967 1375.79,483.918 1363.4,481.368 1350.78,479.323 1337.96,477.786 1324.95,476.76 1311.77,476.247 1296.23,476.247 1278.24,477.162 1260.12,478.99 1241.9,481.725 1223.66,485.358 1205.45,489.878 1187.32,495.27 1169.33,501.518 1151.54,508.602 1134.01,516.499 1116.78,525.185 1099.92,534.633 1083.48,544.811 1067.51,555.69 1052.06,567.233 1037.17,579.405 1022.9,592.168 1009.29,605.481 996.387,619.303 984.224,633.589 972.844,648.295 962.282,663.375 952.571,678.78 943.741,694.463 935.821,710.374 928.836,726.463 922.807,742.679 917.754,758.971 913.692,775.288 910.634,791.578 908.59,807.791 907.567,823.874 907.567,837.781 "/>
<path clip-path="url(#clip332)" d="M611.068 1243.41 L612.167 1252.01 L614.355 1260.57 L617.606 1268.98 L621.885 1277.15 L627.146 1285.01 L633.331 1292.45 L640.372 1299.4 L648.193 1305.79 L656.708 1311.54 L665.824 1316.59 L675.441 1320.88 L685.455 1324.38 L695.757 1327.03 L706.232 1328.82 L716.768 1329.72 L726.607 1329.72 L735.68 1329.02 L744.551 1327.65 L753.146 1325.59 L761.392 1322.88 L769.22 1319.54 L776.564 1315.59 L783.363 1311.07 L789.558 1306.01 L795.098 1300.46 L799.937 1294.46 L804.033 1288.07 L807.351 1281.33 L809.865 1274.32 L811.553 1267.07 L812.401 1259.67 L812.401 1251.63 L811.301 1243.03 L809.114 1234.48 L805.863 1226.07 L801.583 1217.89 L796.322 1210.04 L790.138 1202.59 L783.096 1195.64 L775.275 1189.26 L766.76 1183.51 L757.644 1178.46 L748.027 1174.16 L738.013 1170.67 L727.712 1168.01 L717.236 1166.23 L706.7 1165.33 L696.861 1165.33 L687.788 1166.02 L678.917 1167.4 L670.322 1169.45 L662.076 1172.16 L654.248 1175.5 L646.904 1179.46 L640.106 1183.98 L633.91 1189.04 L628.37 1194.59 L623.532 1200.58 L619.436 1206.98 L616.117 1213.71 L613.603 1220.73 L611.915 1227.97 L611.068 1235.38 L611.068 1243.41 L611.068 1243.41  Z" fill="#0000ff" fill-rule="evenodd" fill-opacity="1"/>
<polyline clip-path="url(#clip332)" style="stroke:#000000; stroke-linecap:round; stroke-linejoin:round; stroke-width:4; stroke-opacity:1; fill:none" points="611.068,1243.41 612.167,1252.01 614.355,1260.57 617.606,1268.98 621.885,1277.15 627.146,1285.01 633.331,1292.45 640.372,1299.4 648.193,1305.79 656.708,1311.54 665.824,1316.59 675.441,1320.88 685.455,1324.38 695.757,1327.03 706.232,1328.82 716.768,1329.72 726.607,1329.72 735.68,1329.02 744.551,1327.65 753.146,1325.59 761.392,1322.88 769.22,1319.54 776.564,1315.59 783.363,1311.07 789.558,1306.01 795.098,1300.46 799.937,1294.46 804.033,1288.07 807.351,1281.33 809.865,1274.32 811.553,1267.07 812.401,1259.67 812.401,1251.63 811.301,1243.03 809.114,1234.48 805.863,1226.07 801.583,1217.89 796.322,1210.04 790.138,1202.59 783.096,1195.64 775.275,1189.26 766.76,1183.51 757.644,1178.46 748.027,1174.16 738.013,1170.67 727.712,1168.01 717.236,1166.23 706.7,1165.33 696.861,1165.33 687.788,1166.02 678.917,1167.4 670.322,1169.45 662.076,1172.16 654.248,1175.5 646.904,1179.46 640.106,1183.98 633.91,1189.04 628.37,1194.59 623.532,1200.58 619.436,1206.98 616.117,1213.71 613.603,1220.73 611.915,1227.97 611.068,1235.38 611.068,1243.41 "/>
</svg>
