<?xml version="1.0" encoding="utf-8"?>
<svg xmlns="http://www.w3.org/2000/svg" xmlns:xlink="http://www.w3.org/1999/xlink" width="600" height="400" viewBox="0 0 2400 1600">
<defs>
  <clipPath id="clip890">
    <rect x="0" y="0" width="2400" height="1600"/>
  </clipPath>
</defs>
<path clip-path="url(#clip890)" d="M0 1600 L2400 1600 L2400 0 L0 0  Z" fill="#ffffff" fill-rule="evenodd" fill-opacity="1"/>
<defs>
  <clipPath id="clip891">
    <rect x="286" y="123" width="2067" height="1270"/>
  </clipPath>
</defs>
<path clip-path="url(#clip890)" d="M286.703 1392.94 L2352.76 1392.94 L2352.76 123.472 L286.703 123.472  Z" fill="#ffffff" fill-rule="evenodd" fill-opacity="1"/>
<polyline clip-path="url(#clip891)" style="stroke:#000000; stroke-linecap:round; stroke-linejoin:round; stroke-width:2; stroke-opacity:0.1; fill:none" points="365.733,1392.94 365.733,123.472 "/>
<polyline clip-path="url(#clip891)" style="stroke:#000000; stroke-linecap:round; stroke-linejoin:round; stroke-width:2; stroke-opacity:0.1; fill:none" points="819.698,1392.94 819.698,123.472 "/>
<polyline clip-path="url(#clip891)" style="stroke:#000000; stroke-linecap:round; stroke-linejoin:round; stroke-width:2; stroke-opacity:0.1; fill:none" points="1273.66,1392.94 1273.66,123.472 "/>
<polyline clip-path="url(#clip891)" style="stroke:#000000; stroke-linecap:round; stroke-linejoin:round; stroke-width:2; stroke-opacity:0.1; fill:none" points="1727.63,1392.94 1727.63,123.472 "/>
<polyline clip-path="url(#clip891)" style="stroke:#000000; stroke-linecap:round; stroke-linejoin:round; stroke-width:2; stroke-opacity:0.1; fill:none" points="2181.59,1392.94 2181.59,123.472 "/>
<polyline clip-path="url(#clip891)" style="stroke:#000000; stroke-linecap:round; stroke-linejoin:round; stroke-width:2; stroke-opacity:0.1; fill:none" points="286.703,1342.66 2352.76,1342.66 "/>
<polyline clip-path="url(#clip891)" style="stroke:#000000; stroke-linecap:round; stroke-linejoin:round; stroke-width:2; stroke-opacity:0.1; fill:none" points="286.703,1115.67 2352.76,1115.67 "/>
<polyline clip-path="url(#clip891)" style="stroke:#000000; stroke-linecap:round; stroke-linejoin:round; stroke-width:2; stroke-opacity:0.1; fill:none" points="286.703,888.691 2352.76,888.691 "/>
<polyline clip-path="url(#clip891)" style="stroke:#000000; stroke-linecap:round; stroke-linejoin:round; stroke-width:2; stroke-opacity:0.1; fill:none" points="286.703,661.708 2352.76,661.708 "/>
<polyline clip-path="url(#clip891)" style="stroke:#000000; stroke-linecap:round; stroke-linejoin:round; stroke-width:2; stroke-opacity:0.1; fill:none" points="286.703,434.726 2352.76,434.726 "/>
<polyline clip-path="url(#clip891)" style="stroke:#000000; stroke-linecap:round; stroke-linejoin:round; stroke-width:2; stroke-opacity:0.1; fill:none" points="286.703,207.743 2352.76,207.743 "/>
<polyline clip-path="url(#clip890)" style="stroke:#000000; stroke-linecap:round; stroke-linejoin:round; stroke-width:4; stroke-opacity:1; fill:none" points="286.703,1392.94 2352.76,1392.94 "/>
<polyline clip-path="url(#clip890)" style="stroke:#000000; stroke-linecap:round; stroke-linejoin:round; stroke-width:4; stroke-opacity:1; fill:none" points="365.733,1392.94 365.733,1374.04 "/>
<polyline clip-path="url(#clip890)" style="stroke:#000000; stroke-linecap:round; stroke-linejoin:round; stroke-width:4; stroke-opacity:1; fill:none" points="819.698,1392.94 819.698,1374.04 "/>
<polyline clip-path="url(#clip890)" style="stroke:#000000; stroke-linecap:round; stroke-linejoin:round; stroke-width:4; stroke-opacity:1; fill:none" points="1273.66,1392.94 1273.66,1374.04 "/>
<polyline clip-path="url(#clip890)" style="stroke:#000000; stroke-linecap:round; stroke-linejoin:round; stroke-width:4; stroke-opacity:1; fill:none" points="1727.63,1392.94 1727.63,1374.04 "/>
<polyline clip-path="url(#clip890)" style="stroke:#000000; stroke-linecap:round; stroke-linejoin:round; stroke-width:4; stroke-opacity:1; fill:none" points="2181.59,1392.94 2181.59,1374.04 "/>
<path clip-path="url(#clip890)" d="M308.312 1445.1 L345.406 1445.1 L345.406 1450.02 L308.312 1450.02 L308.312 1445.1 Z" fill="#000000" fill-rule="nonzero" fill-opacity="1" /><path clip-path="url(#clip890)" d="M363.057 1461.22 L383.456 1461.22 L383.456 1466.14 L356.026 1466.14 L356.026 1461.22 Q359.353 1457.78 365.082 1451.99 Q370.84 1446.17 372.316 1444.5 Q375.123 1441.34 376.222 1439.17 Q377.351 1436.97 377.351 1434.86 Q377.351 1431.42 374.92 1429.25 Q372.519 1427.08 368.641 1427.08 Q365.892 1427.08 362.825 1428.03 Q359.787 1428.99 356.315 1430.93 L356.315 1425.02 Q359.845 1423.61 362.912 1422.88 Q365.979 1422.16 368.526 1422.16 Q375.238 1422.16 379.232 1425.52 Q383.225 1428.87 383.225 1434.48 Q383.225 1437.15 382.212 1439.55 Q381.228 1441.92 378.595 1445.16 Q377.872 1446 373.994 1450.02 Q370.117 1454.02 363.057 1461.22 Z" fill="#000000" fill-rule="nonzero" fill-opacity="1" /><path clip-path="url(#clip890)" d="M408.224 1426.79 Q403.711 1426.79 401.425 1431.24 Q399.168 1435.67 399.168 1444.58 Q399.168 1453.47 401.425 1457.92 Q403.711 1462.35 408.224 1462.35 Q412.767 1462.35 415.024 1457.92 Q417.31 1453.47 417.31 1444.58 Q417.31 1435.67 415.024 1431.24 Q412.767 1426.79 408.224 1426.79 M408.224 1422.16 Q415.487 1422.16 419.307 1427.92 Q423.155 1433.65 423.155 1444.58 Q423.155 1455.49 419.307 1461.25 Q415.487 1466.98 408.224 1466.98 Q400.962 1466.98 397.113 1461.25 Q393.294 1455.49 393.294 1444.58 Q393.294 1433.65 397.113 1427.92 Q400.962 1422.16 408.224 1422.16 Z" fill="#000000" fill-rule="nonzero" fill-opacity="1" /><path clip-path="url(#clip890)" d="M762.277 1445.1 L799.372 1445.1 L799.372 1450.02 L762.277 1450.02 L762.277 1445.1 Z" fill="#000000" fill-rule="nonzero" fill-opacity="1" /><path clip-path="url(#clip890)" d="M813 1461.22 L822.548 1461.22 L822.548 1428.26 L812.161 1430.35 L812.161 1425.02 L822.491 1422.94 L828.335 1422.94 L828.335 1461.22 L837.884 1461.22 L837.884 1466.14 L813 1466.14 L813 1461.22 Z" fill="#000000" fill-rule="nonzero" fill-opacity="1" /><path clip-path="url(#clip890)" d="M862.189 1426.79 Q857.676 1426.79 855.39 1431.24 Q853.133 1435.67 853.133 1444.58 Q853.133 1453.47 855.39 1457.92 Q857.676 1462.35 862.189 1462.35 Q866.732 1462.35 868.989 1457.92 Q871.275 1453.47 871.275 1444.58 Q871.275 1435.67 868.989 1431.24 Q866.732 1426.79 862.189 1426.79 M862.189 1422.16 Q869.452 1422.16 873.272 1427.92 Q877.12 1433.65 877.12 1444.58 Q877.12 1455.49 873.272 1461.25 Q869.452 1466.98 862.189 1466.98 Q854.927 1466.98 851.078 1461.25 Q847.259 1455.49 847.259 1444.58 Q847.259 1433.65 851.078 1427.92 Q854.927 1422.16 862.189 1422.16 Z" fill="#000000" fill-rule="nonzero" fill-opacity="1" /><path clip-path="url(#clip890)" d="M1273.66 1426.79 Q1269.15 1426.79 1266.86 1431.24 Q1264.61 1435.67 1264.61 1444.58 Q1264.61 1453.47 1266.86 1457.92 Q1269.15 1462.35 1273.66 1462.35 Q1278.21 1462.35 1280.46 1457.92 Q1282.75 1453.47 1282.75 1444.58 Q1282.75 1435.67 1280.46 1431.24 Q1278.21 1426.79 1273.66 1426.79 M1273.66 1422.16 Q1280.93 1422.16 1284.75 1427.92 Q1288.59 1433.65 1288.59 1444.58 Q1288.59 1455.49 1284.75 1461.25 Q1280.93 1466.98 1273.66 1466.98 Q1266.4 1466.98 1262.55 1461.25 Q1258.73 1455.49 1258.73 1444.58 Q1258.73 1433.65 1262.55 1427.92 Q1266.4 1422.16 1273.66 1422.16 Z" fill="#000000" fill-rule="nonzero" fill-opacity="1" /><path clip-path="url(#clip890)" d="M1695.99 1461.22 L1705.54 1461.22 L1705.54 1428.26 L1695.15 1430.35 L1695.15 1425.02 L1705.48 1422.94 L1711.32 1422.94 L1711.32 1461.22 L1720.87 1461.22 L1720.87 1466.14 L1695.99 1466.14 L1695.99 1461.22 Z" fill="#000000" fill-rule="nonzero" fill-opacity="1" /><path clip-path="url(#clip890)" d="M1745.18 1426.79 Q1740.66 1426.79 1738.38 1431.24 Q1736.12 1435.67 1736.12 1444.58 Q1736.12 1453.47 1738.38 1457.92 Q1740.66 1462.35 1745.18 1462.35 Q1749.72 1462.35 1751.98 1457.92 Q1754.26 1453.47 1754.26 1444.58 Q1754.26 1435.67 1751.98 1431.24 Q1749.72 1426.79 1745.18 1426.79 M1745.18 1422.16 Q1752.44 1422.16 1756.26 1427.92 Q1760.11 1433.65 1760.11 1444.58 Q1760.11 1455.49 1756.26 1461.25 Q1752.44 1466.98 1745.18 1466.98 Q1737.91 1466.98 1734.07 1461.25 Q1730.25 1455.49 1730.25 1444.58 Q1730.25 1433.65 1734.07 1427.92 Q1737.91 1422.16 1745.18 1422.16 Z" fill="#000000" fill-rule="nonzero" fill-opacity="1" /><path clip-path="url(#clip890)" d="M2155.06 1461.22 L2175.46 1461.22 L2175.46 1466.14 L2148.03 1466.14 L2148.03 1461.22 Q2151.36 1457.78 2157.09 1451.99 Q2162.84 1446.17 2164.32 1444.5 Q2167.13 1441.34 2168.23 1439.17 Q2169.35 1436.97 2169.35 1434.86 Q2169.35 1431.42 2166.92 1429.25 Q2164.52 1427.08 2160.64 1427.08 Q2157.9 1427.08 2154.83 1428.03 Q2151.79 1428.99 2148.32 1430.93 L2148.32 1425.02 Q2151.85 1423.61 2154.92 1422.88 Q2157.98 1422.16 2160.53 1422.16 Q2167.24 1422.16 2171.23 1425.52 Q2175.23 1428.87 2175.23 1434.48 Q2175.23 1437.15 2174.22 1439.55 Q2173.23 1441.92 2170.6 1445.16 Q2169.87 1446 2166 1450.02 Q2162.12 1454.02 2155.06 1461.22 Z" fill="#000000" fill-rule="nonzero" fill-opacity="1" /><path clip-path="url(#clip890)" d="M2200.23 1426.79 Q2195.71 1426.79 2193.43 1431.24 Q2191.17 1435.67 2191.17 1444.58 Q2191.17 1453.47 2193.43 1457.92 Q2195.71 1462.35 2200.23 1462.35 Q2204.77 1462.35 2207.03 1457.92 Q2209.31 1453.47 2209.31 1444.58 Q2209.31 1435.67 2207.03 1431.24 Q2204.77 1426.79 2200.23 1426.79 M2200.23 1422.16 Q2207.49 1422.16 2211.31 1427.92 Q2215.16 1433.65 2215.16 1444.58 Q2215.16 1455.49 2211.31 1461.25 Q2207.49 1466.98 2200.23 1466.98 Q2192.97 1466.98 2189.12 1461.25 Q2185.3 1455.49 2185.3 1444.58 Q2185.3 1433.65 2189.12 1427.92 Q2192.97 1422.16 2200.23 1422.16 Z" fill="#000000" fill-rule="nonzero" fill-opacity="1" /><path clip-path="url(#clip890)" d="M1322.64 1506.31 Q1322.64 1508.94 1321 1510.44 Q1319.36 1511.89 1317.49 1511.89 Q1315.71 1511.89 1314.77 1510.86 Q1313.83 1509.83 1313.83 1508.51 Q1313.83 1506.73 1315.14 1505.19 Q1316.46 1503.64 1318.42 1503.32 Q1316.5 1502.1 1313.65 1502.1 Q1311.77 1502.1 1310.13 1503.08 Q1308.54 1504.06 1307.56 1505.33 Q1306.62 1506.59 1305.78 1508.42 Q1304.98 1510.2 1304.65 1511.28 Q1304.37 1512.31 1304.14 1513.43 L1300.86 1526.55 Q1299.26 1532.78 1299.26 1534.98 Q1299.26 1537.7 1300.58 1539.53 Q1301.89 1541.31 1304.51 1541.31 Q1305.54 1541.31 1306.71 1541.03 Q1307.88 1540.7 1309.38 1539.85 Q1310.93 1538.96 1312.29 1537.65 Q1313.69 1536.29 1315.05 1534 Q1316.41 1531.7 1317.3 1528.75 Q1317.58 1527.72 1318.52 1527.72 Q1319.69 1527.72 1319.69 1528.66 Q1319.69 1529.45 1319.03 1531.14 Q1318.42 1532.78 1317.06 1534.94 Q1315.75 1537.04 1314.02 1538.96 Q1312.29 1540.84 1309.71 1542.15 Q1307.13 1543.46 1304.32 1543.46 Q1300.29 1543.46 1297.62 1541.31 Q1294.95 1539.15 1293.97 1536.15 Q1293.74 1536.57 1293.41 1537.14 Q1293.08 1537.7 1292.1 1538.96 Q1291.16 1540.18 1290.08 1541.12 Q1289 1542.01 1287.32 1542.71 Q1285.68 1543.46 1283.9 1543.46 Q1281.65 1543.46 1279.64 1542.81 Q1277.67 1542.15 1276.26 1540.65 Q1274.86 1539.15 1274.86 1537.09 Q1274.86 1534.79 1276.4 1533.2 Q1278 1531.56 1280.15 1531.56 Q1281.51 1531.56 1282.59 1532.36 Q1283.71 1533.16 1283.71 1534.89 Q1283.71 1536.81 1282.4 1538.26 Q1281.09 1539.71 1279.21 1540.09 Q1281.13 1541.31 1283.99 1541.31 Q1287.08 1541.31 1289.52 1538.59 Q1291.96 1535.87 1293.13 1531.33 Q1296.03 1520.41 1297.16 1515.54 Q1298.28 1510.62 1298.28 1508.51 Q1298.28 1506.55 1297.76 1505.19 Q1297.25 1503.83 1296.36 1503.22 Q1295.52 1502.57 1294.72 1502.33 Q1293.97 1502.1 1293.13 1502.1 Q1291.72 1502.1 1290.13 1502.66 Q1288.58 1503.22 1286.71 1504.53 Q1284.88 1505.8 1283.15 1508.42 Q1281.42 1511.04 1280.24 1514.65 Q1280.01 1515.73 1278.98 1515.73 Q1277.86 1515.68 1277.86 1514.75 Q1277.86 1513.95 1278.46 1512.31 Q1279.12 1510.62 1280.43 1508.51 Q1281.79 1506.41 1283.52 1504.53 Q1285.3 1502.61 1287.88 1501.3 Q1290.5 1499.99 1293.31 1499.99 Q1294.58 1499.99 1295.8 1500.27 Q1297.06 1500.5 1298.56 1501.21 Q1300.11 1501.91 1301.47 1503.46 Q1302.82 1505 1303.67 1507.25 Q1304.23 1506.17 1304.98 1505.14 Q1305.78 1504.11 1306.99 1502.85 Q1308.26 1501.53 1309.99 1500.79 Q1311.77 1499.99 1313.74 1499.99 Q1315.66 1499.99 1317.53 1500.5 Q1319.41 1500.97 1321 1502.52 Q1322.64 1504.02 1322.64 1506.31 Z" fill="#000000" fill-rule="nonzero" fill-opacity="1" /><path clip-path="url(#clip890)" d="M1332.41 1531.69 L1332.41 1529.59 Q1340.48 1529.59 1344.64 1525.3 Q1345.79 1525.3 1345.99 1525.56 Q1346.18 1525.82 1346.18 1527.03 L1346.18 1564.71 Q1346.18 1566.71 1347.17 1567.34 Q1348.15 1567.96 1352.45 1567.96 L1354.58 1567.96 L1354.58 1570.02 Q1352.22 1569.83 1343.69 1569.83 Q1335.16 1569.83 1332.84 1570.02 L1332.84 1567.96 L1334.97 1567.96 Q1339.2 1567.96 1340.21 1567.37 Q1341.23 1566.75 1341.23 1564.71 L1341.23 1529.92 Q1337.72 1531.69 1332.41 1531.69 Z" fill="#000000" fill-rule="nonzero" fill-opacity="1" /><polyline clip-path="url(#clip890)" style="stroke:#000000; stroke-linecap:round; stroke-linejoin:round; stroke-width:4; stroke-opacity:1; fill:none" points="286.703,1392.94 286.703,123.472 "/>
<polyline clip-path="url(#clip890)" style="stroke:#000000; stroke-linecap:round; stroke-linejoin:round; stroke-width:4; stroke-opacity:1; fill:none" points="286.703,1342.66 305.601,1342.66 "/>
<polyline clip-path="url(#clip890)" style="stroke:#000000; stroke-linecap:round; stroke-linejoin:round; stroke-width:4; stroke-opacity:1; fill:none" points="286.703,1115.67 305.601,1115.67 "/>
<polyline clip-path="url(#clip890)" style="stroke:#000000; stroke-linecap:round; stroke-linejoin:round; stroke-width:4; stroke-opacity:1; fill:none" points="286.703,888.691 305.601,888.691 "/>
<polyline clip-path="url(#clip890)" style="stroke:#000000; stroke-linecap:round; stroke-linejoin:round; stroke-width:4; stroke-opacity:1; fill:none" points="286.703,661.708 305.601,661.708 "/>
<polyline clip-path="url(#clip890)" style="stroke:#000000; stroke-linecap:round; stroke-linejoin:round; stroke-width:4; stroke-opacity:1; fill:none" points="286.703,434.726 305.601,434.726 "/>
<polyline clip-path="url(#clip890)" style="stroke:#000000; stroke-linecap:round; stroke-linejoin:round; stroke-width:4; stroke-opacity:1; fill:none" points="286.703,207.743 305.601,207.743 "/>
<path clip-path="url(#clip890)" d="M135.86 1343.22 L172.955 1343.22 L172.955 1348.14 L135.86 1348.14 L135.86 1343.22 Z" fill="#000000" fill-rule="nonzero" fill-opacity="1" /><path clip-path="url(#clip890)" d="M186.583 1359.34 L196.132 1359.34 L196.132 1326.38 L185.744 1328.46 L185.744 1323.14 L196.074 1321.06 L201.919 1321.06 L201.919 1359.34 L211.467 1359.34 L211.467 1364.26 L186.583 1364.26 L186.583 1359.34 Z" fill="#000000" fill-rule="nonzero" fill-opacity="1" /><path clip-path="url(#clip890)" d="M235.773 1324.9 Q231.259 1324.9 228.973 1329.36 Q226.716 1333.79 226.716 1342.7 Q226.716 1351.58 228.973 1356.04 Q231.259 1360.47 235.773 1360.47 Q240.316 1360.47 242.573 1356.04 Q244.858 1351.58 244.858 1342.7 Q244.858 1333.79 242.573 1329.36 Q240.316 1324.9 235.773 1324.9 M235.773 1320.27 Q243.036 1320.27 246.855 1326.03 Q250.703 1331.76 250.703 1342.7 Q250.703 1353.61 246.855 1359.37 Q243.036 1365.09 235.773 1365.09 Q228.51 1365.09 224.662 1359.37 Q220.842 1353.61 220.842 1342.7 Q220.842 1331.76 224.662 1326.03 Q228.51 1320.27 235.773 1320.27 Z" fill="#000000" fill-rule="nonzero" fill-opacity="1" /><path clip-path="url(#clip890)" d="M174.807 1116.24 L211.901 1116.24 L211.901 1121.16 L174.807 1121.16 L174.807 1116.24 Z" fill="#000000" fill-rule="nonzero" fill-opacity="1" /><path clip-path="url(#clip890)" d="M224.575 1094.07 L247.52 1094.07 L247.52 1098.99 L229.928 1098.99 L229.928 1109.58 Q231.201 1109.15 232.474 1108.95 Q233.747 1108.71 235.021 1108.71 Q242.254 1108.71 246.479 1112.68 Q250.703 1116.64 250.703 1123.41 Q250.703 1130.39 246.363 1134.26 Q242.023 1138.11 234.124 1138.11 Q231.404 1138.11 228.568 1137.65 Q225.761 1137.19 222.752 1136.26 L222.752 1130.39 Q225.356 1131.8 228.134 1132.5 Q230.912 1133.19 234.008 1133.19 Q239.014 1133.19 241.936 1130.56 Q244.858 1127.93 244.858 1123.41 Q244.858 1118.9 241.936 1116.27 Q239.014 1113.63 234.008 1113.63 Q231.664 1113.63 229.32 1114.15 Q227.006 1114.68 224.575 1115.77 L224.575 1094.07 Z" fill="#000000" fill-rule="nonzero" fill-opacity="1" /><path clip-path="url(#clip890)" d="M235.773 870.939 Q231.259 870.939 228.973 875.395 Q226.716 879.822 226.716 888.734 Q226.716 897.617 228.973 902.073 Q231.259 906.5 235.773 906.5 Q240.316 906.5 242.573 902.073 Q244.858 897.617 244.858 888.734 Q244.858 879.822 242.573 875.395 Q240.316 870.939 235.773 870.939 M235.773 866.31 Q243.036 866.31 246.855 872.068 Q250.703 877.797 250.703 888.734 Q250.703 899.643 246.855 905.401 Q243.036 911.13 235.773 911.13 Q228.51 911.13 224.662 905.401 Q220.842 899.643 220.842 888.734 Q220.842 877.797 224.662 872.068 Q228.51 866.31 235.773 866.31 Z" fill="#000000" fill-rule="nonzero" fill-opacity="1" /><path clip-path="url(#clip890)" d="M224.575 640.108 L247.52 640.108 L247.52 645.027 L229.928 645.027 L229.928 655.617 Q231.201 655.183 232.474 654.981 Q233.747 654.749 235.021 654.749 Q242.254 654.749 246.479 658.714 Q250.703 662.678 250.703 669.448 Q250.703 676.422 246.363 680.299 Q242.023 684.147 234.124 684.147 Q231.404 684.147 228.568 683.684 Q225.761 683.221 222.752 682.296 L222.752 676.422 Q225.356 677.84 228.134 678.534 Q230.912 679.228 234.008 679.228 Q239.014 679.228 241.936 676.595 Q244.858 673.962 244.858 669.448 Q244.858 664.935 241.936 662.301 Q239.014 659.668 234.008 659.668 Q231.664 659.668 229.32 660.189 Q227.006 660.71 224.575 661.81 L224.575 640.108 Z" fill="#000000" fill-rule="nonzero" fill-opacity="1" /><path clip-path="url(#clip890)" d="M186.583 451.407 L196.132 451.407 L196.132 418.45 L185.744 420.533 L185.744 415.209 L196.074 413.126 L201.919 413.126 L201.919 451.407 L211.467 451.407 L211.467 456.326 L186.583 456.326 L186.583 451.407 Z" fill="#000000" fill-rule="nonzero" fill-opacity="1" /><path clip-path="url(#clip890)" d="M235.773 416.974 Q231.259 416.974 228.973 421.43 Q226.716 425.857 226.716 434.769 Q226.716 443.652 228.973 448.108 Q231.259 452.535 235.773 452.535 Q240.316 452.535 242.573 448.108 Q244.858 443.652 244.858 434.769 Q244.858 425.857 242.573 421.43 Q240.316 416.974 235.773 416.974 M235.773 412.345 Q243.036 412.345 246.855 418.103 Q250.703 423.832 250.703 434.769 Q250.703 445.678 246.855 451.436 Q243.036 457.165 235.773 457.165 Q228.51 457.165 224.662 451.436 Q220.842 445.678 220.842 434.769 Q220.842 423.832 224.662 418.103 Q228.51 412.345 235.773 412.345 Z" fill="#000000" fill-rule="nonzero" fill-opacity="1" /><path clip-path="url(#clip890)" d="M187.827 224.424 L197.376 224.424 L197.376 191.467 L186.988 193.551 L186.988 188.227 L197.318 186.143 L203.163 186.143 L203.163 224.424 L212.712 224.424 L212.712 229.343 L187.827 229.343 L187.827 224.424 Z" fill="#000000" fill-rule="nonzero" fill-opacity="1" /><path clip-path="url(#clip890)" d="M224.575 186.143 L247.52 186.143 L247.52 191.062 L229.928 191.062 L229.928 201.652 Q231.201 201.218 232.474 201.016 Q233.747 200.784 235.021 200.784 Q242.254 200.784 246.479 204.748 Q250.703 208.713 250.703 215.483 Q250.703 222.457 246.363 226.334 Q242.023 230.182 234.124 230.182 Q231.404 230.182 228.568 229.719 Q225.761 229.256 222.752 228.331 L222.752 222.457 Q225.356 223.875 228.134 224.569 Q230.912 225.263 234.008 225.263 Q239.014 225.263 241.936 222.63 Q244.858 219.997 244.858 215.483 Q244.858 210.969 241.936 208.336 Q239.014 205.703 234.008 205.703 Q231.664 205.703 229.32 206.224 Q227.006 206.745 224.575 207.845 L224.575 186.143 Z" fill="#000000" fill-rule="nonzero" fill-opacity="1" /><path clip-path="url(#clip890)" d="M29.4895 757.599 Q32.1128 757.599 33.6118 759.238 Q35.064 760.878 35.064 762.752 Q35.064 764.532 34.0334 765.469 Q33.0028 766.405 31.6912 766.405 Q29.9111 766.405 28.3652 765.094 Q26.8193 763.782 26.4914 761.815 Q25.2734 763.735 25.2734 766.593 Q25.2734 768.467 26.2572 770.106 Q27.2409 771.699 28.5057 772.683 Q29.7705 773.62 31.5975 774.463 Q33.3776 775.259 34.455 775.587 Q35.4856 775.868 36.6099 776.102 L49.7265 779.381 Q55.9568 780.974 58.1585 780.974 Q60.8755 780.974 62.7025 779.663 Q64.4826 778.351 64.4826 775.728 Q64.4826 774.697 64.2015 773.526 Q63.8736 772.355 63.0304 770.856 Q62.1404 769.31 60.8287 767.951 Q59.4702 766.546 57.1748 765.187 Q54.8794 763.829 51.9282 762.939 Q50.8976 762.658 50.8976 761.721 Q50.8976 760.55 51.8345 760.55 Q52.6308 760.55 54.3173 761.206 Q55.9568 761.815 58.1117 763.173 Q60.2197 764.485 62.1404 766.218 Q64.0142 767.951 65.3258 770.528 Q66.6375 773.104 66.6375 775.915 Q66.6375 779.944 64.4826 782.614 Q62.3277 785.284 59.3297 786.268 Q59.7513 786.502 60.3134 786.83 Q60.8755 787.158 62.1404 788.141 Q63.3583 789.078 64.2952 790.156 Q65.1853 791.233 65.8879 792.92 Q66.6375 794.559 66.6375 796.339 Q66.6375 798.588 65.9816 800.602 Q65.3258 802.57 63.8268 803.975 Q62.3277 805.38 60.2666 805.38 Q57.9712 805.38 56.3784 803.834 Q54.7389 802.242 54.7389 800.087 Q54.7389 798.728 55.5352 797.651 Q56.3316 796.527 58.0649 796.527 Q59.9855 796.527 61.4377 797.838 Q62.8899 799.15 63.2646 801.024 Q64.4826 799.103 64.4826 796.246 Q64.4826 793.154 61.7656 790.718 Q59.0486 788.282 54.5046 787.111 Q43.5898 784.206 38.7179 783.082 Q33.7992 781.958 31.6912 781.958 Q29.7237 781.958 28.3652 782.473 Q27.0067 782.989 26.3977 783.879 Q25.7419 784.722 25.5077 785.518 Q25.2734 786.268 25.2734 787.111 Q25.2734 788.516 25.8356 790.109 Q26.3977 791.655 27.7094 793.529 Q28.9742 795.356 31.5975 797.089 Q34.2208 798.822 37.8279 799.993 Q38.9053 800.227 38.9053 801.258 Q38.8584 802.382 37.9215 802.382 Q37.1252 802.382 35.4856 801.773 Q33.7992 801.117 31.6912 799.806 Q29.5832 798.447 27.7094 796.714 Q25.7887 794.934 24.4771 792.357 Q23.1654 789.734 23.1654 786.923 Q23.1654 785.659 23.4465 784.441 Q23.6807 783.176 24.3834 781.677 Q25.086 780.131 26.6319 778.772 Q28.1778 777.414 30.4264 776.571 Q29.3489 776.009 28.3183 775.259 Q27.2878 774.463 26.0229 773.245 Q24.7113 771.98 23.9618 770.247 Q23.1654 768.467 23.1654 766.499 Q23.1654 764.578 23.6807 762.705 Q24.1492 760.831 25.695 759.238 Q27.1941 757.599 29.4895 757.599 Z" fill="#000000" fill-rule="nonzero" fill-opacity="1" /><path clip-path="url(#clip890)" d="M93.2007 747.828 Q91.9874 747.828 91.6267 747.729 Q91.266 747.598 90.7085 747.074 L76.3459 734.187 Q68.4103 727.136 61.4914 727.136 Q56.9989 727.136 53.7854 729.497 Q50.5718 731.826 50.5718 736.121 Q50.5718 739.073 52.3753 741.565 Q54.1789 744.057 57.3924 745.205 Q57.3268 745.008 57.3268 744.319 Q57.3268 742.647 58.3762 741.729 Q59.4255 740.778 60.8355 740.778 Q62.6391 740.778 63.5244 741.958 Q64.377 743.106 64.377 744.254 Q64.377 744.713 64.2786 745.336 Q64.1802 745.926 63.2621 746.877 Q62.3111 747.828 60.6388 747.828 Q55.9496 747.828 52.2114 744.286 Q48.4732 740.712 48.4732 735.269 Q48.4732 729.104 52.1458 725.071 Q55.7856 721.004 61.4914 721.004 Q63.4916 721.004 65.3279 721.628 Q67.1315 722.218 68.5415 723.038 Q69.9515 723.825 72.2141 725.989 Q74.4768 728.153 76.0835 729.891 Q77.6903 731.629 81.1006 735.531 L88.0196 742.647 L88.0196 730.547 Q88.0196 724.644 87.4949 724.185 Q86.544 723.529 81.5269 722.71 L81.5269 721.004 L93.2007 722.906 L93.2007 747.828 Z" fill="#000000" fill-rule="nonzero" fill-opacity="1" /><path clip-path="url(#clip890)" d="M631.238 12.096 L682.401 12.096 L682.401 18.9825 L660.931 18.9825 L660.931 72.576 L652.708 72.576 L652.708 18.9825 L631.238 18.9825 L631.238 12.096 Z" fill="#000000" fill-rule="nonzero" fill-opacity="1" /><path clip-path="url(#clip890)" d="M704.073 34.1734 Q702.817 33.4443 701.319 33.1202 Q699.86 32.7556 698.078 32.7556 Q691.758 32.7556 688.356 36.8875 Q684.993 40.9789 684.993 48.6757 L684.993 72.576 L677.499 72.576 L677.499 27.2059 L684.993 27.2059 L684.993 34.2544 Q687.343 30.1225 691.11 28.1376 Q694.878 26.1121 700.265 26.1121 Q701.035 26.1121 701.967 26.2337 Q702.898 26.3147 704.033 26.5172 L704.073 34.1734 Z" fill="#000000" fill-rule="nonzero" fill-opacity="1" /><path clip-path="url(#clip890)" d="M732.511 49.7694 Q723.477 49.7694 719.993 51.8354 Q716.509 53.9013 716.509 58.8839 Q716.509 62.8538 719.102 65.2034 Q721.735 67.5124 726.232 67.5124 Q732.43 67.5124 736.156 63.1374 Q739.924 58.7219 739.924 51.4303 L739.924 49.7694 L732.511 49.7694 M747.377 46.6907 L747.377 72.576 L739.924 72.576 L739.924 65.6895 Q737.372 69.8214 733.564 71.8063 Q729.756 73.7508 724.247 73.7508 Q717.279 73.7508 713.147 69.8619 Q709.056 65.9325 709.056 59.3701 Q709.056 51.7138 714.16 47.825 Q719.305 43.9361 729.472 43.9361 L739.924 43.9361 L739.924 43.2069 Q739.924 38.0623 736.521 35.2672 Q733.159 32.4315 727.042 32.4315 Q723.153 32.4315 719.467 33.3632 Q715.78 34.295 712.378 36.1584 L712.378 29.2718 Q716.469 27.692 720.317 26.9223 Q724.166 26.1121 727.811 26.1121 Q737.655 26.1121 742.516 31.2163 Q747.377 36.3204 747.377 46.6907 Z" fill="#000000" fill-rule="nonzero" fill-opacity="1" /><path clip-path="url(#clip890)" d="M762.73 27.2059 L770.184 27.2059 L770.184 73.3862 Q770.184 82.0551 766.862 85.944 Q763.581 89.8329 756.249 89.8329 L753.413 89.8329 L753.413 83.5134 L755.398 83.5134 Q759.652 83.5134 761.191 81.5285 Q762.73 79.5841 762.73 73.3862 L762.73 27.2059 M762.73 9.54393 L770.184 9.54393 L770.184 18.9825 L762.73 18.9825 L762.73 9.54393 Z" fill="#000000" fill-rule="nonzero" fill-opacity="1" /><path clip-path="url(#clip890)" d="M824.588 48.0275 L824.588 51.6733 L790.317 51.6733 Q790.803 59.3701 794.935 63.421 Q799.107 67.4314 806.521 67.4314 Q810.815 67.4314 814.825 66.3781 Q818.876 65.3249 822.846 63.2184 L822.846 70.267 Q818.835 71.9684 814.622 72.8596 Q810.409 73.7508 806.075 73.7508 Q795.219 73.7508 788.859 67.4314 Q782.539 61.1119 782.539 50.3365 Q782.539 39.1965 788.535 32.6746 Q794.57 26.1121 804.779 26.1121 Q813.934 26.1121 819.24 32.0264 Q824.588 37.9003 824.588 48.0275 M817.134 45.84 Q817.053 39.7232 813.691 36.0774 Q810.369 32.4315 804.86 32.4315 Q798.621 32.4315 794.854 35.9558 Q791.127 39.4801 790.56 45.8805 L817.134 45.84 Z" fill="#000000" fill-rule="nonzero" fill-opacity="1" /><path clip-path="url(#clip890)" d="M869.472 28.9478 L869.472 35.9153 Q866.312 34.1734 863.112 33.3227 Q859.952 32.4315 856.711 32.4315 Q849.46 32.4315 845.45 37.0496 Q841.439 41.6271 841.439 49.9314 Q841.439 58.2358 845.45 62.8538 Q849.46 67.4314 856.711 67.4314 Q859.952 67.4314 863.112 66.5807 Q866.312 65.6895 869.472 63.9476 L869.472 70.8341 Q866.352 72.2924 862.99 73.0216 Q859.668 73.7508 855.901 73.7508 Q845.652 73.7508 839.616 67.3098 Q833.581 60.8689 833.581 49.9314 Q833.581 38.832 839.657 32.472 Q845.774 26.1121 856.387 26.1121 Q859.83 26.1121 863.112 26.8413 Q866.393 27.5299 869.472 28.9478 Z" fill="#000000" fill-rule="nonzero" fill-opacity="1" /><path clip-path="url(#clip890)" d="M889.807 14.324 L889.807 27.2059 L905.16 27.2059 L905.16 32.9987 L889.807 32.9987 L889.807 57.6282 Q889.807 63.1779 891.306 64.7578 Q892.845 66.3376 897.504 66.3376 L905.16 66.3376 L905.16 72.576 L897.504 72.576 Q888.875 72.576 885.594 69.3758 Q882.313 66.1351 882.313 57.6282 L882.313 32.9987 L876.844 32.9987 L876.844 27.2059 L882.313 27.2059 L882.313 14.324 L889.807 14.324 Z" fill="#000000" fill-rule="nonzero" fill-opacity="1" /><path clip-path="url(#clip890)" d="M932.544 32.4315 Q926.549 32.4315 923.065 37.1306 Q919.581 41.7891 919.581 49.9314 Q919.581 58.0738 923.025 62.7728 Q926.508 67.4314 932.544 67.4314 Q938.499 67.4314 941.983 62.7323 Q945.467 58.0333 945.467 49.9314 Q945.467 41.8701 941.983 37.1711 Q938.499 32.4315 932.544 32.4315 M932.544 26.1121 Q942.266 26.1121 947.816 32.4315 Q953.366 38.7509 953.366 49.9314 Q953.366 61.0714 947.816 67.4314 Q942.266 73.7508 932.544 73.7508 Q922.781 73.7508 917.232 67.4314 Q911.723 61.0714 911.723 49.9314 Q911.723 38.7509 917.232 32.4315 Q922.781 26.1121 932.544 26.1121 Z" fill="#000000" fill-rule="nonzero" fill-opacity="1" /><path clip-path="url(#clip890)" d="M992.011 34.1734 Q990.756 33.4443 989.257 33.1202 Q987.799 32.7556 986.016 32.7556 Q979.697 32.7556 976.294 36.8875 Q972.932 40.9789 972.932 48.6757 L972.932 72.576 L965.438 72.576 L965.438 27.2059 L972.932 27.2059 L972.932 34.2544 Q975.281 30.1225 979.049 28.1376 Q982.816 26.1121 988.204 26.1121 Q988.973 26.1121 989.905 26.2337 Q990.837 26.3147 991.971 26.5172 L992.011 34.1734 Z" fill="#000000" fill-rule="nonzero" fill-opacity="1" /><path clip-path="url(#clip890)" d="M1018.71 76.7889 Q1015.55 84.8907 1012.55 87.3618 Q1009.55 89.8329 1004.53 89.8329 L998.574 89.8329 L998.574 83.5945 L1002.95 83.5945 Q1006.03 83.5945 1007.73 82.1361 Q1009.43 80.6778 1011.5 75.2496 L1012.83 71.8468 L994.482 27.2059 L1002.38 27.2059 L1016.56 62.6918 L1030.74 27.2059 L1038.64 27.2059 L1018.71 76.7889 Z" fill="#000000" fill-rule="nonzero" fill-opacity="1" /><path clip-path="url(#clip890)" d="M1095.92 49.7694 Q1086.88 49.7694 1083.4 51.8354 Q1079.92 53.9013 1079.92 58.8839 Q1079.92 62.8538 1082.51 65.2034 Q1085.14 67.5124 1089.64 67.5124 Q1095.84 67.5124 1099.56 63.1374 Q1103.33 58.7219 1103.33 51.4303 L1103.33 49.7694 L1095.92 49.7694 M1110.78 46.6907 L1110.78 72.576 L1103.33 72.576 L1103.33 65.6895 Q1100.78 69.8214 1096.97 71.8063 Q1093.16 73.7508 1087.65 73.7508 Q1080.69 73.7508 1076.55 69.8619 Q1072.46 65.9325 1072.46 59.3701 Q1072.46 51.7138 1077.57 47.825 Q1082.71 43.9361 1092.88 43.9361 L1103.33 43.9361 L1103.33 43.2069 Q1103.33 38.0623 1099.93 35.2672 Q1096.57 32.4315 1090.45 32.4315 Q1086.56 32.4315 1082.87 33.3632 Q1079.19 34.295 1075.78 36.1584 L1075.78 29.2718 Q1079.88 27.692 1083.72 26.9223 Q1087.57 26.1121 1091.22 26.1121 Q1101.06 26.1121 1105.92 31.2163 Q1110.78 36.3204 1110.78 46.6907 Z" fill="#000000" fill-rule="nonzero" fill-opacity="1" /><path clip-path="url(#clip890)" d="M1163.85 45.1919 L1163.85 72.576 L1156.4 72.576 L1156.4 45.4349 Q1156.4 38.994 1153.89 35.7938 Q1151.37 32.5936 1146.35 32.5936 Q1140.32 32.5936 1136.83 36.4419 Q1133.35 40.2903 1133.35 46.9338 L1133.35 72.576 L1125.85 72.576 L1125.85 27.2059 L1133.35 27.2059 L1133.35 34.2544 Q1136.02 30.163 1139.63 28.1376 Q1143.27 26.1121 1148.01 26.1121 Q1155.83 26.1121 1159.84 30.9732 Q1163.85 35.7938 1163.85 45.1919 Z" fill="#000000" fill-rule="nonzero" fill-opacity="1" /><path clip-path="url(#clip890)" d="M1208.57 34.0924 L1208.57 9.54393 L1216.03 9.54393 L1216.03 72.576 L1208.57 72.576 L1208.57 65.7705 Q1206.22 69.8214 1202.62 71.8063 Q1199.05 73.7508 1194.03 73.7508 Q1185.81 73.7508 1180.62 67.1883 Q1175.48 60.6258 1175.48 49.9314 Q1175.48 39.2371 1180.62 32.6746 Q1185.81 26.1121 1194.03 26.1121 Q1199.05 26.1121 1202.62 28.0971 Q1206.22 30.0415 1208.57 34.0924 M1183.17 49.9314 Q1183.17 58.1548 1186.54 62.8538 Q1189.94 67.5124 1195.85 67.5124 Q1201.77 67.5124 1205.17 62.8538 Q1208.57 58.1548 1208.57 49.9314 Q1208.57 41.7081 1205.17 37.0496 Q1201.77 32.3505 1195.85 32.3505 Q1189.94 32.3505 1186.54 37.0496 Q1183.17 41.7081 1183.17 49.9314 Z" fill="#000000" fill-rule="nonzero" fill-opacity="1" /><path clip-path="url(#clip890)" d="M1258.07 12.096 L1266.26 12.096 L1266.26 65.6895 L1295.71 65.6895 L1295.71 72.576 L1258.07 72.576 L1258.07 12.096 Z" fill="#000000" fill-rule="nonzero" fill-opacity="1" /><path clip-path="url(#clip890)" d="M1315.23 76.7889 Q1312.07 84.8907 1309.08 87.3618 Q1306.08 89.8329 1301.05 89.8329 L1295.1 89.8329 L1295.1 83.5945 L1299.48 83.5945 Q1302.55 83.5945 1304.26 82.1361 Q1305.96 80.6778 1308.02 75.2496 L1309.36 71.8468 L1291.01 27.2059 L1298.91 27.2059 L1313.09 62.6918 L1327.26 27.2059 L1335.16 27.2059 L1315.23 76.7889 Z" fill="#000000" fill-rule="nonzero" fill-opacity="1" /><path clip-path="url(#clip890)" d="M1366.07 49.7694 Q1357.04 49.7694 1353.55 51.8354 Q1350.07 53.9013 1350.07 58.8839 Q1350.07 62.8538 1352.66 65.2034 Q1355.3 67.5124 1359.79 67.5124 Q1365.99 67.5124 1369.72 63.1374 Q1373.49 58.7219 1373.49 51.4303 L1373.49 49.7694 L1366.07 49.7694 M1380.94 46.6907 L1380.94 72.576 L1373.49 72.576 L1373.49 65.6895 Q1370.93 69.8214 1367.13 71.8063 Q1363.32 73.7508 1357.81 73.7508 Q1350.84 73.7508 1346.71 69.8619 Q1342.62 65.9325 1342.62 59.3701 Q1342.62 51.7138 1347.72 47.825 Q1352.87 43.9361 1363.03 43.9361 L1373.49 43.9361 L1373.49 43.2069 Q1373.49 38.0623 1370.08 35.2672 Q1366.72 32.4315 1360.6 32.4315 Q1356.71 32.4315 1353.03 33.3632 Q1349.34 34.295 1345.94 36.1584 L1345.94 29.2718 Q1350.03 27.692 1353.88 26.9223 Q1357.73 26.1121 1361.37 26.1121 Q1371.22 26.1121 1376.08 31.2163 Q1380.94 36.3204 1380.94 46.6907 Z" fill="#000000" fill-rule="nonzero" fill-opacity="1" /><path clip-path="url(#clip890)" d="M1403.5 65.7705 L1403.5 89.8329 L1396.01 89.8329 L1396.01 27.2059 L1403.5 27.2059 L1403.5 34.0924 Q1405.85 30.0415 1409.42 28.0971 Q1413.02 26.1121 1418 26.1121 Q1426.27 26.1121 1431.41 32.6746 Q1436.6 39.2371 1436.6 49.9314 Q1436.6 60.6258 1431.41 67.1883 Q1426.27 73.7508 1418 73.7508 Q1413.02 73.7508 1409.42 71.8063 Q1405.85 69.8214 1403.5 65.7705 M1428.86 49.9314 Q1428.86 41.7081 1425.46 37.0496 Q1422.1 32.3505 1416.18 32.3505 Q1410.27 32.3505 1406.86 37.0496 Q1403.5 41.7081 1403.5 49.9314 Q1403.5 58.1548 1406.86 62.8538 Q1410.27 67.5124 1416.18 67.5124 Q1422.1 67.5124 1425.46 62.8538 Q1428.86 58.1548 1428.86 49.9314 Z" fill="#000000" fill-rule="nonzero" fill-opacity="1" /><path clip-path="url(#clip890)" d="M1448.18 54.671 L1448.18 27.2059 L1455.64 27.2059 L1455.64 54.3874 Q1455.64 60.8284 1458.15 64.0691 Q1460.66 67.2693 1465.68 67.2693 Q1471.72 67.2693 1475.2 63.421 Q1478.73 59.5726 1478.73 52.9291 L1478.73 27.2059 L1486.18 27.2059 L1486.18 72.576 L1478.73 72.576 L1478.73 65.6084 Q1476.01 69.7404 1472.41 71.7658 Q1468.84 73.7508 1464.1 73.7508 Q1456.29 73.7508 1452.23 68.8897 Q1448.18 64.0286 1448.18 54.671 M1466.94 26.1121 L1466.94 26.1121 Z" fill="#000000" fill-rule="nonzero" fill-opacity="1" /><path clip-path="url(#clip890)" d="M1539.25 45.1919 L1539.25 72.576 L1531.79 72.576 L1531.79 45.4349 Q1531.79 38.994 1529.28 35.7938 Q1526.77 32.5936 1521.75 32.5936 Q1515.71 32.5936 1512.23 36.4419 Q1508.74 40.2903 1508.74 46.9338 L1508.74 72.576 L1501.25 72.576 L1501.25 27.2059 L1508.74 27.2059 L1508.74 34.2544 Q1511.42 30.163 1515.02 28.1376 Q1518.67 26.1121 1523.41 26.1121 Q1531.23 26.1121 1535.24 30.9732 Q1539.25 35.7938 1539.25 45.1919 Z" fill="#000000" fill-rule="nonzero" fill-opacity="1" /><path clip-path="url(#clip890)" d="M1571.7 32.4315 Q1565.7 32.4315 1562.22 37.1306 Q1558.73 41.7891 1558.73 49.9314 Q1558.73 58.0738 1562.18 62.7728 Q1565.66 67.4314 1571.7 67.4314 Q1577.65 67.4314 1581.13 62.7323 Q1584.62 58.0333 1584.62 49.9314 Q1584.62 41.8701 1581.13 37.1711 Q1577.65 32.4315 1571.7 32.4315 M1571.7 26.1121 Q1581.42 26.1121 1586.97 32.4315 Q1592.52 38.7509 1592.52 49.9314 Q1592.52 61.0714 1586.97 67.4314 Q1581.42 73.7508 1571.7 73.7508 Q1561.93 73.7508 1556.38 67.4314 Q1550.87 61.0714 1550.87 49.9314 Q1550.87 38.7509 1556.38 32.4315 Q1561.93 26.1121 1571.7 26.1121 Z" fill="#000000" fill-rule="nonzero" fill-opacity="1" /><path clip-path="url(#clip890)" d="M1599.53 27.2059 L1607.42 27.2059 L1621.6 65.2844 L1635.78 27.2059 L1643.68 27.2059 L1626.67 72.576 L1616.54 72.576 L1599.53 27.2059 Z" fill="#000000" fill-rule="nonzero" fill-opacity="1" /><path clip-path="url(#clip890)" d="M1647.97 46.5287 L1669.81 46.5287 L1669.81 53.1722 L1647.97 53.1722 L1647.97 46.5287 Z" fill="#000000" fill-rule="nonzero" fill-opacity="1" /><path clip-path="url(#clip890)" d="M1681.68 9.54393 L1689.13 9.54393 L1689.13 72.576 L1681.68 72.576 L1681.68 9.54393 Z" fill="#000000" fill-rule="nonzero" fill-opacity="1" /><path clip-path="url(#clip890)" d="M1704.73 27.2059 L1712.18 27.2059 L1712.18 72.576 L1704.73 72.576 L1704.73 27.2059 M1704.73 9.54393 L1712.18 9.54393 L1712.18 18.9825 L1704.73 18.9825 L1704.73 9.54393 Z" fill="#000000" fill-rule="nonzero" fill-opacity="1" /><path clip-path="url(#clip890)" d="M1727.49 9.54393 L1734.99 9.54393 L1734.99 46.7717 L1757.23 27.2059 L1766.75 27.2059 L1742.68 48.4326 L1767.76 72.576 L1758.04 72.576 L1734.99 50.4176 L1734.99 72.576 L1727.49 72.576 L1727.49 9.54393 Z" fill="#000000" fill-rule="nonzero" fill-opacity="1" /><path clip-path="url(#clip890)" d="M1811.67 48.0275 L1811.67 51.6733 L1777.4 51.6733 Q1777.89 59.3701 1782.02 63.421 Q1786.19 67.4314 1793.6 67.4314 Q1797.9 67.4314 1801.91 66.3781 Q1805.96 65.3249 1809.93 63.2184 L1809.93 70.267 Q1805.92 71.9684 1801.71 72.8596 Q1797.49 73.7508 1793.16 73.7508 Q1782.3 73.7508 1775.94 67.4314 Q1769.62 61.1119 1769.62 50.3365 Q1769.62 39.1965 1775.62 32.6746 Q1781.65 26.1121 1791.86 26.1121 Q1801.02 26.1121 1806.32 32.0264 Q1811.67 37.9003 1811.67 48.0275 M1804.22 45.84 Q1804.14 39.7232 1800.77 36.0774 Q1797.45 32.4315 1791.94 32.4315 Q1785.71 32.4315 1781.94 35.9558 Q1778.21 39.4801 1777.64 45.8805 L1804.22 45.84 Z" fill="#000000" fill-rule="nonzero" fill-opacity="1" /><path clip-path="url(#clip890)" d="M1850.6 12.096 L1885.36 12.096 L1885.36 18.9825 L1858.78 18.9825 L1858.78 36.8065 L1882.76 36.8065 L1882.76 43.6931 L1858.78 43.6931 L1858.78 72.576 L1850.6 72.576 L1850.6 12.096 Z" fill="#000000" fill-rule="nonzero" fill-opacity="1" /><path clip-path="url(#clip890)" d="M1892.69 54.671 L1892.69 27.2059 L1900.14 27.2059 L1900.14 54.3874 Q1900.14 60.8284 1902.65 64.0691 Q1905.17 67.2693 1910.19 67.2693 Q1916.23 67.2693 1919.71 63.421 Q1923.23 59.5726 1923.23 52.9291 L1923.23 27.2059 L1930.69 27.2059 L1930.69 72.576 L1923.23 72.576 L1923.23 65.6084 Q1920.52 69.7404 1916.91 71.7658 Q1913.35 73.7508 1908.61 73.7508 Q1900.79 73.7508 1896.74 68.8897 Q1892.69 64.0286 1892.69 54.671 M1911.45 26.1121 L1911.45 26.1121 Z" fill="#000000" fill-rule="nonzero" fill-opacity="1" /><path clip-path="url(#clip890)" d="M1983.75 45.1919 L1983.75 72.576 L1976.3 72.576 L1976.3 45.4349 Q1976.3 38.994 1973.79 35.7938 Q1971.28 32.5936 1966.25 32.5936 Q1960.22 32.5936 1956.73 36.4419 Q1953.25 40.2903 1953.25 46.9338 L1953.25 72.576 L1945.76 72.576 L1945.76 27.2059 L1953.25 27.2059 L1953.25 34.2544 Q1955.92 30.163 1959.53 28.1376 Q1963.18 26.1121 1967.91 26.1121 Q1975.73 26.1121 1979.74 30.9732 Q1983.75 35.7938 1983.75 45.1919 Z" fill="#000000" fill-rule="nonzero" fill-opacity="1" /><path clip-path="url(#clip890)" d="M1999.67 62.2867 L2008.22 62.2867 L2008.22 72.576 L1999.67 72.576 L1999.67 62.2867 Z" fill="#000000" fill-rule="nonzero" fill-opacity="1" /><path clip-path="url(#clip891)" d="M1025.02 891.742 L1025.17 897.844 L1025.47 903.939 L1025.91 910.026 L1026.51 916.099 L1027.26 922.156 L1028.16 928.193 L1029.2 934.207 L1030.39 940.192 L1031.73 946.147 L1033.21 952.067 L1034.84 957.949 L1036.61 963.789 L1038.52 969.584 L1040.58 975.331 L1042.78 981.025 L1045.11 986.663 L1047.58 992.243 L1050.19 997.76 L1052.94 1003.21 L1055.81 1008.59 L1058.82 1013.9 L1061.96 1019.14 L1065.23 1024.29 L1068.62 1029.37 L1072.13 1034.36 L1075.77 1039.26 L1079.52 1044.07 L1083.39 1048.79 L1087.38 1053.41 L1091.48 1057.93 L1095.69 1062.35 L1100 1066.67 L1104.42 1070.88 L1108.94 1074.98 L1113.56 1078.96 L1118.28 1082.83 L1123.09 1086.59 L1128 1090.22 L1132.99 1093.74 L1138.06 1097.13 L1143.22 1100.39 L1148.45 1103.53 L1153.76 1106.54 L1159.14 1109.42 L1164.59 1112.16 L1170.11 1114.77 L1175.69 1117.24 L1181.33 1119.58 L1187.02 1121.77 L1192.77 1123.83 L1198.56 1125.75 L1204.41 1127.52 L1210.29 1129.14 L1216.21 1130.63 L1222.16 1131.96 L1228.15 1133.16 L1234.16 1134.2 L1240.2 1135.09 L1246.25 1135.84 L1252.33 1136.44 L1258.42 1136.89 L1264.51 1137.19 L1270.61 1137.34 L1276.71 1137.34 L1282.82 1137.19 L1288.91 1136.89 L1295 1136.44 L1301.07 1135.84 L1307.13 1135.09 L1313.17 1134.2 L1319.18 1133.16 L1325.16 1131.96 L1331.12 1130.63 L1337.04 1129.14 L1342.92 1127.52 L1348.76 1125.75 L1354.56 1123.83 L1360.3 1121.77 L1366 1119.58 L1371.64 1117.24 L1377.22 1114.77 L1382.73 1112.16 L1388.18 1109.42 L1393.57 1106.54 L1398.88 1103.53 L1404.11 1100.39 L1409.27 1097.13 L1414.34 1093.74 L1419.33 1090.22 L1424.23 1086.59 L1429.04 1082.83 L1433.76 1078.96 L1438.38 1074.98 L1442.91 1070.88 L1447.33 1066.67 L1451.64 1062.35 L1455.85 1057.93 L1459.95 1053.41 L1463.93 1048.79 L1467.81 1044.07 L1471.56 1039.26 L1475.2 1034.36 L1478.71 1029.37 L1482.1 1024.29 L1485.37 1019.14 L1488.5 1013.9 L1491.51 1008.59 L1494.39 1003.21 L1497.13 997.76 L1499.74 992.243 L1502.22 986.663 L1504.55 981.025 L1506.75 975.331 L1508.8 969.584 L1510.72 963.789 L1512.49 957.949 L1514.12 952.067 L1515.6 946.147 L1516.94 940.192 L1518.13 934.207 L1519.17 928.193 L1520.07 922.156 L1520.81 916.099 L1521.41 910.026 L1521.86 903.939 L1522.16 897.844 L1522.31 891.742 L1522.31 885.639 L1522.16 879.538 L1521.86 873.442 L1521.41 867.356 L1520.81 861.282 L1520.07 855.225 L1519.17 849.188 L1518.13 843.175 L1516.94 837.189 L1515.6 831.235 L1514.12 825.314 L1512.49 819.433 L1510.72 813.592 L1508.8 807.797 L1506.75 802.051 L1504.55 796.357 L1502.22 790.719 L1499.74 785.139 L1497.13 779.622 L1494.39 774.171 L1491.51 768.788 L1488.5 763.478 L1485.37 758.243 L1482.1 753.087 L1478.71 748.013 L1475.2 743.023 L1471.56 738.121 L1467.81 733.31 L1463.93 728.592 L1459.95 723.971 L1455.85 719.449 L1451.64 715.029 L1447.33 710.713 L1442.91 706.505 L1438.38 702.406 L1433.76 698.42 L1429.04 694.548 L1424.23 690.794 L1419.33 687.158 L1414.34 683.644 L1409.27 680.253 L1404.11 676.988 L1398.88 673.85 L1393.57 670.842 L1388.18 667.965 L1382.73 665.221 L1377.22 662.612 L1371.64 660.139 L1366 657.803 L1360.3 655.607 L1354.56 653.551 L1348.76 651.636 L1342.92 649.865 L1337.04 648.237 L1331.12 646.754 L1325.16 645.417 L1319.18 644.226 L1313.17 643.183 L1307.13 642.287 L1301.07 641.54 L1295 640.942 L1288.91 640.493 L1282.82 640.194 L1276.71 640.044 L1270.61 640.044 L1264.51 640.194 L1258.42 640.493 L1252.33 640.942 L1246.25 641.54 L1240.2 642.287 L1234.16 643.183 L1228.15 644.226 L1222.16 645.417 L1216.21 646.754 L1210.29 648.237 L1204.41 649.865 L1198.56 651.636 L1192.77 653.551 L1187.02 655.607 L1181.33 657.803 L1175.69 660.139 L1170.11 662.612 L1164.59 665.221 L1159.14 667.965 L1153.76 670.842 L1148.45 673.85 L1143.22 676.988 L1138.06 680.253 L1132.99 683.644 L1128 687.158 L1123.09 690.794 L1118.28 694.548 L1113.56 698.42 L1108.94 702.406 L1104.42 706.505 L1100 710.713 L1095.69 715.029 L1091.48 719.449 L1087.38 723.971 L1083.39 728.592 L1079.52 733.31 L1075.77 738.121 L1072.13 743.023 L1068.62 748.013 L1065.23 753.087 L1061.96 758.243 L1058.82 763.478 L1055.81 768.788 L1052.94 774.171 L1050.19 779.622 L1047.58 785.139 L1045.11 790.719 L1042.78 796.357 L1040.58 802.051 L1038.52 807.797 L1036.61 813.592 L1034.84 819.433 L1033.21 825.314 L1031.73 831.235 L1030.39 837.189 L1029.2 843.175 L1028.16 849.188 L1027.26 855.225 L1026.51 861.282 L1025.91 867.356 L1025.47 873.442 L1025.17 879.538 L1025.02 885.639 L1025.02 891.742 L1025.02 891.742  Z" fill="#000000" fill-rule="evenodd" fill-opacity="1"/>
<polyline clip-path="url(#clip891)" style="stroke:#000000; stroke-linecap:round; stroke-linejoin:round; stroke-width:4; stroke-opacity:1; fill:none" points="1025.02,891.742 1025.17,897.844 1025.47,903.939 1025.91,910.026 1026.51,916.099 1027.26,922.156 1028.16,928.193 1029.2,934.207 1030.39,940.192 1031.73,946.147 1033.21,952.067 1034.84,957.949 1036.61,963.789 1038.52,969.584 1040.58,975.331 1042.78,981.025 1045.11,986.663 1047.58,992.243 1050.19,997.76 1052.94,1003.21 1055.81,1008.59 1058.82,1013.9 1061.96,1019.14 1065.23,1024.29 1068.62,1029.37 1072.13,1034.36 1075.77,1039.26 1079.52,1044.07 1083.39,1048.79 1087.38,1053.41 1091.48,1057.93 1095.69,1062.35 1100,1066.67 1104.42,1070.88 1108.94,1074.98 1113.56,1078.96 1118.28,1082.83 1123.09,1086.59 1128,1090.22 1132.99,1093.74 1138.06,1097.13 1143.22,1100.39 1148.45,1103.53 1153.76,1106.54 1159.14,1109.42 1164.59,1112.16 1170.11,1114.77 1175.69,1117.24 1181.33,1119.58 1187.02,1121.77 1192.77,1123.83 1198.56,1125.75 1204.41,1127.52 1210.29,1129.14 1216.21,1130.63 1222.16,1131.96 1228.15,1133.16 1234.16,1134.2 1240.2,1135.09 1246.25,1135.84 1252.33,1136.44 1258.42,1136.89 1264.51,1137.19 1270.61,1137.34 1276.71,1137.34 1282.82,1137.19 1288.91,1136.89 1295,1136.44 1301.07,1135.84 1307.13,1135.09 1313.17,1134.2 1319.18,1133.16 1325.16,1131.96 1331.12,1130.63 1337.04,1129.14 1342.92,1127.52 1348.76,1125.75 1354.56,1123.83 1360.3,1121.77 1366,1119.58 1371.64,1117.24 1377.22,1114.77 1382.73,1112.16 1388.18,1109.42 1393.57,1106.54 1398.88,1103.53 1404.11,1100.39 1409.27,1097.13 1414.34,1093.74 1419.33,1090.22 1424.23,1086.59 1429.04,1082.83 1433.76,1078.96 1438.38,1074.98 1442.91,1070.88 1447.33,1066.67 1451.64,1062.35 1455.85,1057.93 1459.95,1053.41 1463.93,1048.79 1467.81,1044.07 1471.56,1039.26 1475.2,1034.36 1478.71,1029.37 1482.1,1024.29 1485.37,1019.14 1488.5,1013.9 1491.51,1008.59 1494.39,1003.21 1497.13,997.76 1499.74,992.243 1502.22,986.663 1504.55,981.025 1506.75,975.331 1508.8,969.584 1510.72,963.789 1512.49,957.949 1514.12,952.067 1515.6,946.147 1516.94,940.192 1518.13,934.207 1519.17,928.193 1520.07,922.156 1520.81,916.099 1521.41,910.026 1521.86,903.939 1522.16,897.844 1522.31,891.742 1522.31,885.639 1522.16,879.538 1521.86,873.442 1521.41,867.356 1520.81,861.282 1520.07,855.225 1519.17,849.188 1518.13,843.175 1516.94,837.189 1515.6,831.235 1514.12,825.314 1512.49,819.433 1510.72,813.592 1508.8,807.797 1506.75,802.051 1504.55,796.357 1502.22,790.719 1499.74,785.139 1497.13,779.622 1494.39,774.171 1491.51,768.788 1488.5,763.478 1485.37,758.243 1482.1,753.087 1478.71,748.013 1475.2,743.023 1471.56,738.121 1467.81,733.31 1463.93,728.592 1459.95,723.971 1455.85,719.449 1451.64,715.029 1447.33,710.713 1442.91,706.505 1438.38,702.406 1433.76,698.42 1429.04,694.548 1424.23,690.794 1419.33,687.158 1414.34,683.644 1409.27,680.253 1404.11,676.988 1398.88,673.85 1393.57,670.842 1388.18,667.965 1382.73,665.221 1377.22,662.612 1371.64,660.139 1366,657.803 1360.3,655.607 1354.56,653.551 1348.76,651.636 1342.92,649.865 1337.04,648.237 1331.12,646.754 1325.16,645.417 1319.18,644.226 1313.17,643.183 1307.13,642.287 1301.07,641.54 1295,640.942 1288.91,640.493 1282.82,640.194 1276.71,640.044 1270.61,640.044 1264.51,640.194 1258.42,640.493 1252.33,640.942 1246.25,641.54 1240.2,642.287 1234.16,643.183 1228.15,644.226 1222.16,645.417 1216.21,646.754 1210.29,648.237 1204.41,649.865 1198.56,651.636 1192.77,653.551 1187.02,655.607 1181.33,657.803 1175.69,660.139 1170.11,662.612 1164.59,665.221 1159.14,667.965 1153.76,670.842 1148.45,673.85 1143.22,676.988 1138.06,680.253 1132.99,683.644 1128,687.158 1123.09,690.794 1118.28,694.548 1113.56,698.42 1108.94,702.406 1104.42,706.505 1100,710.713 1095.69,715.029 1091.48,719.449 1087.38,723.971 1083.39,728.592 1079.52,733.31 1075.77,738.121 1072.13,743.023 1068.62,748.013 1065.23,753.087 1061.96,758.243 1058.82,763.478 1055.81,768.788 1052.94,774.171 1050.19,779.622 1047.58,785.139 1045.11,790.719 1042.78,796.357 1040.58,802.051 1038.52,807.797 1036.61,813.592 1034.84,819.433 1033.21,825.314 1031.73,831.235 1030.39,837.189 1029.2,843.175 1028.16,849.188 1027.26,855.225 1026.51,861.282 1025.91,867.356 1025.47,873.442 1025.17,879.538 1025.02,885.639 1025.02,891.742 "/>
<path clip-path="url(#clip891)" d="M805.343 1343.36 L805.481 1344.76 L805.756 1346.15 L806.166 1347.5 L806.705 1348.8 L807.37 1350.05 L808.154 1351.22 L809.049 1352.31 L810.046 1353.31 L811.136 1354.2 L812.309 1354.98 L813.553 1355.65 L814.856 1356.19 L816.206 1356.6 L817.589 1356.87 L818.993 1357.01 L820.404 1357.01 L821.807 1356.87 L823.191 1356.6 L824.54 1356.19 L825.844 1355.65 L827.088 1354.98 L828.26 1354.2 L829.351 1353.31 L830.348 1352.31 L831.243 1351.22 L832.026 1350.05 L832.691 1348.8 L833.231 1347.5 L833.641 1346.15 L833.916 1344.76 L834.054 1343.36 L834.054 1341.95 L833.916 1340.55 L833.641 1339.16 L833.231 1337.81 L832.691 1336.51 L832.026 1335.27 L831.243 1334.09 L830.348 1333 L829.351 1332.01 L828.26 1331.11 L827.088 1330.33 L825.844 1329.66 L824.54 1329.12 L823.191 1328.71 L821.807 1328.44 L820.404 1328.3 L818.993 1328.3 L817.589 1328.44 L816.206 1328.71 L814.856 1329.12 L813.553 1329.66 L812.309 1330.33 L811.136 1331.11 L810.046 1332.01 L809.049 1333 L808.154 1334.09 L807.37 1335.27 L806.705 1336.51 L806.166 1337.81 L805.756 1339.16 L805.481 1340.55 L805.343 1341.95 L805.343 1343.36 L805.343 1343.36  Z" fill="#00008b" fill-rule="evenodd" fill-opacity="1"/>
<polyline clip-path="url(#clip891)" style="stroke:#000000; stroke-linecap:round; stroke-linejoin:round; stroke-width:4; stroke-opacity:1; fill:none" points="805.343,1343.36 805.481,1344.76 805.756,1346.15 806.166,1347.5 806.705,1348.8 807.37,1350.05 808.154,1351.22 809.049,1352.31 810.046,1353.31 811.136,1354.2 812.309,1354.98 813.553,1355.65 814.856,1356.19 816.206,1356.6 817.589,1356.87 818.993,1357.01 820.404,1357.01 821.807,1356.87 823.191,1356.6 824.54,1356.19 825.844,1355.65 827.088,1354.98 828.26,1354.2 829.351,1353.31 830.348,1352.31 831.243,1351.22 832.026,1350.05 832.691,1348.8 833.231,1347.5 833.641,1346.15 833.916,1344.76 834.054,1343.36 834.054,1341.95 833.916,1340.55 833.641,1339.16 833.231,1337.81 832.691,1336.51 832.026,1335.27 831.243,1334.09 830.348,1333 829.351,1332.01 828.26,1331.11 827.088,1330.33 825.844,1329.66 824.54,1329.12 823.191,1328.71 821.807,1328.44 820.404,1328.3 818.993,1328.3 817.589,1328.44 816.206,1328.71 814.856,1329.12 813.553,1329.66 812.309,1330.33 811.136,1331.11 810.046,1332.01 809.049,1333 808.154,1334.09 807.37,1335.27 806.705,1336.51 806.166,1337.81 805.756,1339.16 805.481,1340.55 805.343,1341.95 805.343,1343.36 "/>
<path clip-path="url(#clip891)" d="M698.83 920.584 L698.966 925.033 L699.239 929.573 L699.647 934.198 L700.191 938.904 L700.87 943.686 L701.683 948.537 L702.629 953.452 L703.707 958.426 L704.916 963.453 L706.255 968.527 L707.721 973.642 L709.314 978.793 L711.031 983.974 L712.871 989.178 L714.831 994.401 L716.909 999.635 L719.102 1004.87 L721.41 1010.11 L723.827 1015.35 L726.353 1020.57 L728.984 1025.77 L731.716 1030.95 L734.548 1036.11 L737.475 1041.22 L740.495 1046.29 L743.603 1051.32 L746.797 1056.29 L750.072 1061.21 L753.426 1066.06 L756.853 1070.84 L760.351 1075.54 L763.915 1080.16 L767.541 1084.7 L771.225 1089.15 L774.963 1093.5 L778.751 1097.75 L782.584 1101.89 L786.457 1105.93 L790.368 1109.84 L794.31 1113.64 L798.279 1117.32 L802.272 1120.86 L806.283 1124.27 L810.308 1127.55 L814.342 1130.69 L818.381 1133.68 L822.42 1136.53 L826.454 1139.22 L830.479 1141.77 L834.49 1144.15 L838.483 1146.38 L842.453 1148.45 L846.396 1150.35 L850.307 1152.09 L854.181 1153.65 L858.015 1155.05 L861.804 1156.28 L865.543 1157.34 L869.228 1158.22 L872.855 1158.92 L876.421 1159.45 L879.92 1159.81 L883.349 1159.98 L886.547 1159.98 L889.526 1159.84 L892.438 1159.55 L895.28 1159.11 L898.05 1158.53 L900.746 1157.81 L903.364 1156.94 L905.903 1155.93 L908.36 1154.77 L910.732 1153.48 L913.018 1152.05 L915.214 1150.47 L917.321 1148.77 L919.334 1146.92 L921.253 1144.95 L923.075 1142.84 L924.799 1140.6 L926.423 1138.24 L927.947 1135.75 L929.367 1133.14 L930.683 1130.41 L931.894 1127.56 L932.998 1124.59 L933.995 1121.51 L934.884 1118.32 L935.663 1115.03 L936.333 1111.63 L936.892 1108.14 L937.339 1104.54 L937.675 1100.85 L937.9 1097.08 L938.012 1093.21 L938.012 1089.06 L937.875 1084.61 L937.603 1080.07 L937.194 1075.45 L936.65 1070.74 L935.971 1065.96 L935.158 1061.11 L934.212 1056.19 L933.134 1051.22 L931.925 1046.19 L930.587 1041.12 L929.12 1036 L927.528 1030.85 L925.81 1025.67 L923.971 1020.47 L922.011 1015.25 L919.933 1010.01 L917.739 1004.77 L915.432 999.531 L913.014 994.297 L910.488 989.075 L907.858 983.871 L905.125 978.691 L902.294 973.541 L899.366 968.426 L896.347 963.353 L893.238 958.327 L890.045 953.354 L886.769 948.44 L883.416 943.591 L879.988 938.811 L876.49 934.106 L872.926 929.482 L869.3 924.944 L865.616 920.497 L861.878 916.146 L858.091 911.896 L854.258 907.753 L850.384 903.72 L846.474 899.802 L842.532 896.004 L838.562 892.331 L834.569 888.785 L830.558 885.372 L826.534 882.095 L822.499 878.958 L818.461 875.965 L814.422 873.118 L810.388 870.422 L806.363 867.879 L802.351 865.493 L798.358 863.265 L794.388 861.199 L790.445 859.296 L786.534 857.56 L782.66 855.991 L778.826 854.592 L775.038 853.365 L771.299 852.31 L767.614 851.429 L763.986 850.723 L760.421 850.193 L756.922 849.84 L753.493 849.663 L750.294 849.663 L747.316 849.808 L744.404 850.099 L741.562 850.535 L738.791 851.116 L736.096 851.841 L733.477 852.709 L730.939 853.721 L728.482 854.873 L726.11 856.167 L723.824 857.6 L721.627 859.171 L719.521 860.879 L717.507 862.721 L715.589 864.697 L713.766 866.805 L712.042 869.042 L710.418 871.406 L708.895 873.896 L707.475 876.508 L706.158 879.24 L704.948 882.091 L703.843 885.056 L702.846 888.134 L701.957 891.321 L701.178 894.615 L700.509 898.012 L699.95 901.51 L699.502 905.104 L699.166 908.792 L698.942 912.569 L698.83 916.434 L698.83 920.584 L698.83 920.584  Z" fill="#0000ff" fill-rule="evenodd" fill-opacity="1"/>
<polyline clip-path="url(#clip891)" style="stroke:#000000; stroke-linecap:round; stroke-linejoin:round; stroke-width:4; stroke-opacity:1; fill:none" points="698.83,920.584 698.966,925.033 699.239,929.573 699.647,934.198 700.191,938.904 700.87,943.686 701.683,948.537 702.629,953.452 703.707,958.426 704.916,963.453 706.255,968.527 707.721,973.642 709.314,978.793 711.031,983.974 712.871,989.178 714.831,994.401 716.909,999.635 719.102,1004.87 721.41,1010.11 723.827,1015.35 726.353,1020.57 728.984,1025.77 731.716,1030.95 734.548,1036.11 737.475,1041.22 740.495,1046.29 743.603,1051.32 746.797,1056.29 750.072,1061.21 753.426,1066.06 756.853,1070.84 760.351,1075.54 763.915,1080.16 767.541,1084.7 771.225,1089.15 774.963,1093.5 778.751,1097.75 782.584,1101.89 786.457,1105.93 790.368,1109.84 794.31,1113.64 798.279,1117.32 802.272,1120.86 806.283,1124.27 810.308,1127.55 814.342,1130.69 818.381,1133.68 822.42,1136.53 826.454,1139.22 830.479,1141.77 834.49,1144.15 838.483,1146.38 842.453,1148.45 846.396,1150.35 850.307,1152.09 854.181,1153.65 858.015,1155.05 861.804,1156.28 865.543,1157.34 869.228,1158.22 872.855,1158.92 876.421,1159.45 879.92,1159.81 883.349,1159.98 886.547,1159.98 889.526,1159.84 892.438,1159.55 895.28,1159.11 898.05,1158.53 900.746,1157.81 903.364,1156.94 905.903,1155.93 908.36,1154.77 910.732,1153.48 913.018,1152.05 915.214,1150.47 917.321,1148.77 919.334,1146.92 921.253,1144.95 923.075,1142.84 924.799,1140.6 926.423,1138.24 927.947,1135.75 929.367,1133.14 930.683,1130.41 931.894,1127.56 932.998,1124.59 933.995,1121.51 934.884,1118.32 935.663,1115.03 936.333,1111.63 936.892,1108.14 937.339,1104.54 937.675,1100.85 937.9,1097.08 938.012,1093.21 938.012,1089.06 937.875,1084.61 937.603,1080.07 937.194,1075.45 936.65,1070.74 935.971,1065.96 935.158,1061.11 934.212,1056.19 933.134,1051.22 931.925,1046.19 930.587,1041.12 929.12,1036 927.528,1030.85 925.81,1025.67 923.971,1020.47 922.011,1015.25 919.933,1010.01 917.739,1004.77 915.432,999.531 913.014,994.297 910.488,989.075 907.858,983.871 905.125,978.691 902.294,973.541 899.366,968.426 896.347,963.353 893.238,958.327 890.045,953.354 886.769,948.44 883.416,943.591 879.988,938.811 876.49,934.106 872.926,929.482 869.3,924.944 865.616,920.497 861.878,916.146 858.091,911.896 854.258,907.753 850.384,903.72 846.474,899.802 842.532,896.004 838.562,892.331 834.569,888.785 830.558,885.372 826.534,882.095 822.499,878.958 818.461,875.965 814.422,873.118 810.388,870.422 806.363,867.879 802.351,865.493 798.358,863.265 794.388,861.199 790.445,859.296 786.534,857.56 782.66,855.991 778.826,854.592 775.038,853.365 771.299,852.31 767.614,851.429 763.986,850.723 760.421,850.193 756.922,849.84 753.493,849.663 750.294,849.663 747.316,849.808 744.404,850.099 741.562,850.535 738.791,851.116 736.096,851.841 733.477,852.709 730.939,853.721 728.482,854.873 726.11,856.167 723.824,857.6 721.627,859.171 719.521,860.879 717.507,862.721 715.589,864.697 713.766,866.805 712.042,869.042 710.418,871.406 708.895,873.896 707.475,876.508 706.158,879.24 704.948,882.091 703.843,885.056 702.846,888.134 701.957,891.321 701.178,894.615 700.509,898.012 699.95,901.51 699.502,905.104 699.166,908.792 698.942,912.569 698.83,916.434 698.83,920.584 "/>
<path clip-path="url(#clip891)" d="M1013.76 792.251 L1013.93 795.009 L1014.27 797.833 L1014.77 800.682 L1015.43 803.514 L1016.23 806.287 L1017.17 808.96 L1018.22 811.494 L1019.38 813.85 L1020.63 815.994 L1021.95 817.895 L1023.32 819.523 L1024.71 820.856 L1026.11 821.873 L1027.51 822.56 L1028.86 822.906 L1029.92 822.906 L1030.69 822.776 L1031.44 822.516 L1032.15 822.128 L1032.82 821.614 L1033.45 820.977 L1034.03 820.22 L1034.57 819.348 L1035.05 818.366 L1035.48 817.279 L1035.86 816.092 L1036.17 814.813 L1036.42 813.45 L1036.61 812.008 L1036.81 809.739 L1036.81 806.787 L1036.64 804.03 L1036.3 801.205 L1035.8 798.356 L1035.14 795.524 L1034.34 792.751 L1033.4 790.078 L1032.34 787.545 L1031.18 785.188 L1029.94 783.044 L1028.62 781.144 L1027.25 779.515 L1025.86 778.182 L1024.45 777.165 L1023.06 776.478 L1021.7 776.132 L1020.65 776.132 L1019.87 776.262 L1019.13 776.522 L1018.42 776.91 L1017.75 777.424 L1017.12 778.061 L1016.53 778.818 L1016 779.69 L1015.51 780.672 L1015.08 781.76 L1014.71 782.946 L1014.4 784.225 L1014.14 785.589 L1013.95 787.03 L1013.76 789.299 L1013.76 792.251 L1013.76 792.251  Z" fill="#1e90ff" fill-rule="evenodd" fill-opacity="1"/>
<polyline clip-path="url(#clip891)" style="stroke:#000000; stroke-linecap:round; stroke-linejoin:round; stroke-width:4; stroke-opacity:1; fill:none" points="1013.76,792.251 1013.93,795.009 1014.27,797.833 1014.77,800.682 1015.43,803.514 1016.23,806.287 1017.17,808.96 1018.22,811.494 1019.38,813.85 1020.63,815.994 1021.95,817.895 1023.32,819.523 1024.71,820.856 1026.11,821.873 1027.51,822.56 1028.86,822.906 1029.92,822.906 1030.69,822.776 1031.44,822.516 1032.15,822.128 1032.82,821.614 1033.45,820.977 1034.03,820.22 1034.57,819.348 1035.05,818.366 1035.48,817.279 1035.86,816.092 1036.17,814.813 1036.42,813.45 1036.61,812.008 1036.81,809.739 1036.81,806.787 1036.64,804.03 1036.3,801.205 1035.8,798.356 1035.14,795.524 1034.34,792.751 1033.4,790.078 1032.34,787.545 1031.18,785.188 1029.94,783.044 1028.62,781.144 1027.25,779.515 1025.86,778.182 1024.45,777.165 1023.06,776.478 1021.7,776.132 1020.65,776.132 1019.87,776.262 1019.13,776.522 1018.42,776.91 1017.75,777.424 1017.12,778.061 1016.53,778.818 1016,779.69 1015.51,780.672 1015.08,781.76 1014.71,782.946 1014.4,784.225 1014.14,785.589 1013.95,787.03 1013.76,789.299 1013.76,792.251 "/>
<path clip-path="url(#clip891)" d="M1415.69 226.517 L1415.98 230.509 L1416.56 234.575 L1417.43 238.712 L1418.59 242.915 L1420.04 247.179 L1421.77 251.499 L1423.78 255.871 L1426.08 260.289 L1428.66 264.75 L1431.51 269.247 L1434.64 273.776 L1438.03 278.332 L1441.69 282.91 L1445.62 287.504 L1449.8 292.11 L1454.23 296.723 L1458.91 301.338 L1463.84 305.948 L1469 310.55 L1474.39 315.139 L1480.01 319.708 L1485.85 324.253 L1491.9 328.77 L1498.15 333.252 L1504.61 337.695 L1511.26 342.095 L1518.09 346.446 L1525.1 350.743 L1532.28 354.982 L1539.62 359.158 L1547.12 363.266 L1554.76 367.302 L1562.53 371.262 L1570.44 375.14 L1578.46 378.934 L1586.59 382.637 L1594.83 386.247 L1603.16 389.76 L1611.57 393.171 L1620.05 396.476 L1628.6 399.673 L1637.2 402.757 L1645.85 405.725 L1654.54 408.575 L1663.25 411.301 L1671.97 413.903 L1680.71 416.376 L1689.44 418.718 L1698.16 420.927 L1706.85 423 L1715.52 424.934 L1724.14 426.728 L1732.71 428.379 L1741.23 429.887 L1749.67 431.248 L1758.03 432.462 L1766.31 433.527 L1774.48 434.442 L1782.55 435.206 L1790.51 435.819 L1798.34 436.278 L1806.04 436.585 L1813.59 436.739 L1820.82 436.739 L1827.71 436.6 L1834.46 436.323 L1841.05 435.907 L1847.48 435.354 L1853.74 434.663 L1859.82 433.836 L1865.72 432.873 L1871.43 431.775 L1876.96 430.543 L1882.28 429.179 L1887.39 427.684 L1892.3 426.059 L1897 424.306 L1901.47 422.426 L1905.72 420.423 L1909.75 418.297 L1913.54 416.05 L1917.1 413.686 L1920.41 411.206 L1923.49 408.613 L1926.32 405.91 L1928.9 403.098 L1931.23 400.182 L1933.31 397.163 L1935.13 394.045 L1936.7 390.831 L1938.01 387.525 L1939.06 384.129 L1939.84 380.647 L1940.37 377.082 L1940.63 373.438 L1940.63 369.622 L1940.34 365.631 L1939.76 361.564 L1938.89 357.427 L1937.73 353.224 L1936.28 348.96 L1934.55 344.64 L1932.53 340.268 L1930.24 335.85 L1927.66 331.39 L1924.81 326.892 L1921.68 322.363 L1918.29 317.807 L1914.62 313.23 L1910.7 308.635 L1906.52 304.029 L1902.09 299.416 L1897.41 294.802 L1892.48 290.191 L1887.32 285.589 L1881.93 281.001 L1876.31 276.431 L1870.47 271.886 L1864.42 267.37 L1858.16 262.887 L1851.71 258.444 L1845.06 254.044 L1838.23 249.693 L1831.22 245.396 L1824.04 241.157 L1816.7 236.981 L1809.2 232.873 L1801.56 228.837 L1793.79 224.877 L1785.88 220.999 L1777.86 217.206 L1769.72 213.502 L1761.49 209.892 L1753.16 206.379 L1744.75 202.969 L1736.27 199.663 L1727.72 196.466 L1719.12 193.382 L1710.47 190.414 L1701.78 187.565 L1693.07 184.838 L1684.34 182.236 L1675.61 179.763 L1666.88 177.421 L1658.16 175.212 L1649.46 173.14 L1640.8 171.205 L1632.18 169.411 L1623.6 167.76 L1615.09 166.253 L1606.65 164.891 L1598.29 163.677 L1590.01 162.612 L1581.83 161.697 L1573.76 160.933 L1565.81 160.321 L1557.98 159.861 L1550.28 159.554 L1542.72 159.4 L1535.5 159.4 L1528.61 159.539 L1521.86 159.816 L1515.27 160.232 L1508.84 160.785 L1502.58 161.476 L1496.5 162.303 L1490.6 163.267 L1484.88 164.364 L1479.36 165.596 L1474.04 166.96 L1468.92 168.456 L1464.02 170.081 L1459.32 171.834 L1454.85 173.713 L1450.6 175.716 L1446.57 177.842 L1442.78 180.089 L1439.22 182.453 L1435.9 184.933 L1432.83 187.526 L1430 190.23 L1427.42 193.041 L1425.08 195.958 L1423.01 198.976 L1421.18 202.094 L1419.62 205.308 L1418.31 208.614 L1417.26 212.01 L1416.48 215.492 L1415.95 219.057 L1415.69 222.701 L1415.69 226.517 L1415.69 226.517  Z" fill="#1e90ff" fill-rule="evenodd" fill-opacity="1"/>
<polyline clip-path="url(#clip891)" style="stroke:#000000; stroke-linecap:round; stroke-linejoin:round; stroke-width:4; stroke-opacity:1; fill:none" points="1415.69,226.517 1415.98,230.509 1416.56,234.575 1417.43,238.712 1418.59,242.915 1420.04,247.179 1421.77,251.499 1423.78,255.871 1426.08,260.289 1428.66,264.75 1431.51,269.247 1434.64,273.776 1438.03,278.332 1441.69,282.91 1445.62,287.504 1449.8,292.11 1454.23,296.723 1458.91,301.338 1463.84,305.948 1469,310.55 1474.39,315.139 1480.01,319.708 1485.85,324.253 1491.9,328.77 1498.15,333.252 1504.61,337.695 1511.26,342.095 1518.09,346.446 1525.1,350.743 1532.28,354.982 1539.62,359.158 1547.12,363.266 1554.76,367.302 1562.53,371.262 1570.44,375.14 1578.46,378.934 1586.59,382.637 1594.83,386.247 1603.16,389.76 1611.57,393.171 1620.05,396.476 1628.6,399.673 1637.2,402.757 1645.85,405.725 1654.54,408.575 1663.25,411.301 1671.97,413.903 1680.71,416.376 1689.44,418.718 1698.16,420.927 1706.85,423 1715.52,424.934 1724.14,426.728 1732.71,428.379 1741.23,429.887 1749.67,431.248 1758.03,432.462 1766.31,433.527 1774.48,434.442 1782.55,435.206 1790.51,435.819 1798.34,436.278 1806.04,436.585 1813.59,436.739 1820.82,436.739 1827.71,436.6 1834.46,436.323 1841.05,435.907 1847.48,435.354 1853.74,434.663 1859.82,433.836 1865.72,432.873 1871.43,431.775 1876.96,430.543 1882.28,429.179 1887.39,427.684 1892.3,426.059 1897,424.306 1901.47,422.426 1905.72,420.423 1909.75,418.297 1913.54,416.05 1917.1,413.686 1920.41,411.206 1923.49,408.613 1926.32,405.91 1928.9,403.098 1931.23,400.182 1933.31,397.163 1935.13,394.045 1936.7,390.831 1938.01,387.525 1939.06,384.129 1939.84,380.647 1940.37,377.082 1940.63,373.438 1940.63,369.622 1940.34,365.631 1939.76,361.564 1938.89,357.427 1937.73,353.224 1936.28,348.96 1934.55,344.64 1932.53,340.268 1930.24,335.85 1927.66,331.39 1924.81,326.892 1921.68,322.363 1918.29,317.807 1914.62,313.23 1910.7,308.635 1906.52,304.029 1902.09,299.416 1897.41,294.802 1892.48,290.191 1887.32,285.589 1881.93,281.001 1876.31,276.431 1870.47,271.886 1864.42,267.37 1858.16,262.887 1851.71,258.444 1845.06,254.044 1838.23,249.693 1831.22,245.396 1824.04,241.157 1816.7,236.981 1809.2,232.873 1801.56,228.837 1793.79,224.877 1785.88,220.999 1777.86,217.206 1769.72,213.502 1761.49,209.892 1753.16,206.379 1744.75,202.969 1736.27,199.663 1727.72,196.466 1719.12,193.382 1710.47,190.414 1701.78,187.565 1693.07,184.838 1684.34,182.236 1675.61,179.763 1666.88,177.421 1658.16,175.212 1649.46,173.14 1640.8,171.205 1632.18,169.411 1623.6,167.76 1615.09,166.253 1606.65,164.891 1598.29,163.677 1590.01,162.612 1581.83,161.697 1573.76,160.933 1565.81,160.321 1557.98,159.861 1550.28,159.554 1542.72,159.4 1535.5,159.4 1528.61,159.539 1521.86,159.816 1515.27,160.232 1508.84,160.785 1502.58,161.476 1496.5,162.303 1490.6,163.267 1484.88,164.364 1479.36,165.596 1474.04,166.96 1468.92,168.456 1464.02,170.081 1459.32,171.834 1454.85,173.713 1450.6,175.716 1446.57,177.842 1442.78,180.089 1439.22,182.453 1435.9,184.933 1432.83,187.526 1430,190.23 1427.42,193.041 1425.08,195.958 1423.01,198.976 1421.18,202.094 1419.62,205.308 1418.31,208.614 1417.26,212.01 1416.48,215.492 1415.95,219.057 1415.69,222.701 1415.69,226.517 "/>
<path clip-path="url(#clip891)" d="M1320.38 484.27 L1320.48 487.05 L1320.67 489.821 L1320.97 492.58 L1321.35 495.328 L1321.84 498.062 L1322.42 500.78 L1323.09 503.483 L1323.86 506.167 L1324.73 508.832 L1325.69 511.476 L1326.74 514.098 L1327.89 516.697 L1329.13 519.27 L1330.47 521.818 L1331.89 524.338 L1333.41 526.83 L1335.01 529.292 L1336.71 531.722 L1338.49 534.119 L1340.37 536.483 L1342.32 538.812 L1344.37 541.104 L1346.5 543.36 L1348.71 545.576 L1351 547.753 L1354.56 550.957 L1359.63 555.059 L1365 558.982 L1370.67 562.719 L1376.62 566.261 L1382.84 569.602 L1389.32 572.733 L1396.05 575.65 L1403 578.345 L1410.18 580.813 L1417.55 583.049 L1425.11 585.049 L1432.84 586.807 L1440.72 588.322 L1448.74 589.589 L1456.89 590.605 L1465.14 591.369 L1473.47 591.88 L1481.88 592.135 L1491 592.135 L1500.83 591.794 L1510.67 591.111 L1520.51 590.09 L1530.31 588.733 L1540.05 587.044 L1549.7 585.027 L1559.23 582.688 L1568.61 580.034 L1577.83 577.072 L1584.59 574.625 L1589.05 572.921 L1593.45 571.145 L1597.79 569.298 L1602.07 567.381 L1606.28 565.396 L1610.42 563.344 L1614.49 561.227 L1618.49 559.046 L1622.41 556.802 L1626.25 554.497 L1630.01 552.133 L1633.68 549.711 L1637.27 547.234 L1640.77 544.701 L1644.17 542.117 L1647.48 539.481 L1650.69 536.797 L1653.8 534.065 L1656.81 531.289 L1659.72 528.469 L1662.52 525.608 L1665.21 522.707 L1667.8 519.769 L1670.27 516.796 L1672.63 513.79 L1674.88 510.752 L1677.01 507.686 L1679.02 504.592 L1680.92 501.474 L1682.69 498.333 L1684.34 495.172 L1685.87 491.993 L1687.28 488.797 L1688.56 485.588 L1689.71 482.367 L1690.74 479.137 L1691.64 475.899 L1692.42 472.657 L1693.06 469.412 L1693.58 466.167 L1693.97 462.923 L1694.23 459.684 L1694.36 456.451 L1694.36 453.445 L1694.26 450.665 L1694.07 447.894 L1693.78 445.134 L1693.39 442.387 L1692.91 439.653 L1692.33 436.934 L1691.65 434.232 L1690.88 431.548 L1690.02 428.883 L1689.05 426.239 L1688 423.617 L1686.85 421.018 L1685.61 418.444 L1684.28 415.897 L1682.85 413.376 L1681.33 410.885 L1679.73 408.423 L1678.03 405.993 L1676.25 403.595 L1674.38 401.232 L1672.42 398.903 L1670.38 396.61 L1668.25 394.355 L1666.04 392.139 L1663.74 389.962 L1660.18 386.758 L1655.11 382.656 L1649.74 378.732 L1644.07 374.996 L1638.12 371.453 L1631.9 368.113 L1625.42 364.981 L1618.69 362.065 L1611.74 359.37 L1604.57 356.902 L1597.19 354.666 L1589.63 352.666 L1581.9 350.907 L1574.02 349.393 L1566 348.126 L1557.85 347.11 L1549.61 346.345 L1541.27 345.835 L1532.86 345.579 L1523.74 345.579 L1513.91 345.921 L1504.07 346.603 L1494.23 347.625 L1484.43 348.982 L1474.69 350.671 L1465.05 352.688 L1455.52 355.026 L1446.13 357.681 L1436.91 360.643 L1430.15 363.089 L1425.69 364.794 L1421.29 366.57 L1416.95 368.417 L1412.68 370.333 L1408.46 372.318 L1404.32 374.37 L1400.25 376.488 L1396.25 378.669 L1392.33 380.913 L1388.49 383.218 L1384.73 385.582 L1381.06 388.003 L1377.47 390.481 L1373.98 393.013 L1370.57 395.598 L1367.27 398.234 L1364.05 400.918 L1360.94 403.649 L1357.93 406.426 L1355.02 409.246 L1352.22 412.107 L1349.53 415.008 L1346.94 417.946 L1344.47 420.919 L1342.11 423.925 L1339.86 426.963 L1337.73 430.029 L1335.72 433.123 L1333.83 436.241 L1332.05 439.382 L1330.4 442.543 L1328.87 445.722 L1327.47 448.918 L1326.19 452.127 L1325.03 455.348 L1324 458.578 L1323.1 461.816 L1322.32 465.058 L1321.68 468.303 L1321.16 471.548 L1320.77 474.791 L1320.51 478.031 L1320.38 481.264 L1320.38 484.27 L1320.38 484.27  Z" fill="#00bfff" fill-rule="evenodd" fill-opacity="1"/>
<polyline clip-path="url(#clip891)" style="stroke:#000000; stroke-linecap:round; stroke-linejoin:round; stroke-width:4; stroke-opacity:1; fill:none" points="1320.38,484.27 1320.48,487.05 1320.67,489.821 1320.97,492.58 1321.35,495.328 1321.84,498.062 1322.42,500.78 1323.09,503.483 1323.86,506.167 1324.73,508.832 1325.69,511.476 1326.74,514.098 1327.89,516.697 1329.13,519.27 1330.47,521.818 1331.89,524.338 1333.41,526.83 1335.01,529.292 1336.71,531.722 1338.49,534.119 1340.37,536.483 1342.32,538.812 1344.37,541.104 1346.5,543.36 1348.71,545.576 1351,547.753 1354.56,550.957 1359.63,555.059 1365,558.982 1370.67,562.719 1376.62,566.261 1382.84,569.602 1389.32,572.733 1396.05,575.65 1403,578.345 1410.18,580.813 1417.55,583.049 1425.11,585.049 1432.84,586.807 1440.72,588.322 1448.74,589.589 1456.89,590.605 1465.14,591.369 1473.47,591.88 1481.88,592.135 1491,592.135 1500.83,591.794 1510.67,591.111 1520.51,590.09 1530.31,588.733 1540.05,587.044 1549.7,585.027 1559.23,582.688 1568.61,580.034 1577.83,577.072 1584.59,574.625 1589.05,572.921 1593.45,571.145 1597.79,569.298 1602.07,567.381 1606.28,565.396 1610.42,563.344 1614.49,561.227 1618.49,559.046 1622.41,556.802 1626.25,554.497 1630.01,552.133 1633.68,549.711 1637.27,547.234 1640.77,544.701 1644.17,542.117 1647.48,539.481 1650.69,536.797 1653.8,534.065 1656.81,531.289 1659.72,528.469 1662.52,525.608 1665.21,522.707 1667.8,519.769 1670.27,516.796 1672.63,513.79 1674.88,510.752 1677.01,507.686 1679.02,504.592 1680.92,501.474 1682.69,498.333 1684.34,495.172 1685.87,491.993 1687.28,488.797 1688.56,485.588 1689.71,482.367 1690.74,479.137 1691.64,475.899 1692.42,472.657 1693.06,469.412 1693.58,466.167 1693.97,462.923 1694.23,459.684 1694.36,456.451 1694.36,453.445 1694.26,450.665 1694.07,447.894 1693.78,445.134 1693.39,442.387 1692.91,439.653 1692.33,436.934 1691.65,434.232 1690.88,431.548 1690.02,428.883 1689.05,426.239 1688,423.617 1686.85,421.018 1685.61,418.444 1684.28,415.897 1682.85,413.376 1681.33,410.885 1679.73,408.423 1678.03,405.993 1676.25,403.595 1674.38,401.232 1672.42,398.903 1670.38,396.61 1668.25,394.355 1666.04,392.139 1663.74,389.962 1660.18,386.758 1655.11,382.656 1649.74,378.732 1644.07,374.996 1638.12,371.453 1631.9,368.113 1625.42,364.981 1618.69,362.065 1611.74,359.37 1604.57,356.902 1597.19,354.666 1589.63,352.666 1581.9,350.907 1574.02,349.393 1566,348.126 1557.85,347.11 1549.61,346.345 1541.27,345.835 1532.86,345.579 1523.74,345.579 1513.91,345.921 1504.07,346.603 1494.23,347.625 1484.43,348.982 1474.69,350.671 1465.05,352.688 1455.52,355.026 1446.13,357.681 1436.91,360.643 1430.15,363.089 1425.69,364.794 1421.29,366.57 1416.95,368.417 1412.68,370.333 1408.46,372.318 1404.32,374.37 1400.25,376.488 1396.25,378.669 1392.33,380.913 1388.49,383.218 1384.73,385.582 1381.06,388.003 1377.47,390.481 1373.98,393.013 1370.57,395.598 1367.27,398.234 1364.05,400.918 1360.94,403.649 1357.93,406.426 1355.02,409.246 1352.22,412.107 1349.53,415.008 1346.94,417.946 1344.47,420.919 1342.11,423.925 1339.86,426.963 1337.73,430.029 1335.72,433.123 1333.83,436.241 1332.05,439.382 1330.4,442.543 1328.87,445.722 1327.47,448.918 1326.19,452.127 1325.03,455.348 1324,458.578 1323.1,461.816 1322.32,465.058 1321.68,468.303 1321.16,471.548 1320.77,474.791 1320.51,478.031 1320.38,481.264 1320.38,484.27 "/>
<path clip-path="url(#clip891)" d="M1682.23 435.84 L1682.34 438.066 L1682.56 440.284 L1682.89 442.489 L1683.32 444.675 L1683.86 446.837 L1684.51 448.97 L1685.26 451.069 L1686.11 453.128 L1687.07 455.143 L1688.12 457.108 L1689.26 459.02 L1690.5 460.873 L1691.83 462.664 L1693.24 464.386 L1694.74 466.038 L1696.32 467.614 L1697.97 469.111 L1699.69 470.525 L1701.48 471.852 L1703.33 473.091 L1705.25 474.237 L1707.21 475.287 L1709.23 476.24 L1711.29 477.093 L1713.38 477.844 L1715.52 478.491 L1717.68 479.033 L1719.87 479.467 L1722.07 479.794 L1724.29 480.013 L1726.51 480.122 L1728.74 480.122 L1730.97 480.013 L1733.19 479.794 L1735.39 479.467 L1737.58 479.033 L1739.74 478.491 L1741.87 477.844 L1743.97 477.093 L1746.03 476.24 L1748.05 475.287 L1750.01 474.237 L1751.92 473.091 L1753.78 471.852 L1755.57 470.525 L1757.29 469.111 L1758.94 467.614 L1760.52 466.038 L1762.01 464.386 L1763.43 462.664 L1764.76 460.873 L1765.99 459.02 L1767.14 457.108 L1768.19 455.143 L1769.14 453.128 L1770 451.069 L1770.75 448.97 L1771.39 446.837 L1771.94 444.675 L1772.37 442.489 L1772.7 440.284 L1772.92 438.066 L1773.02 435.84 L1773.02 433.611 L1772.92 431.385 L1772.7 429.167 L1772.37 426.962 L1771.94 424.776 L1771.39 422.614 L1770.75 420.481 L1770 418.383 L1769.14 416.324 L1768.19 414.309 L1767.14 412.343 L1765.99 410.431 L1764.76 408.578 L1763.43 406.788 L1762.01 405.065 L1760.52 403.414 L1758.94 401.838 L1757.29 400.341 L1755.57 398.927 L1753.78 397.599 L1751.92 396.361 L1750.01 395.215 L1748.05 394.164 L1746.03 393.211 L1743.97 392.358 L1741.87 391.608 L1739.74 390.961 L1737.58 390.419 L1735.39 389.984 L1733.19 389.657 L1730.97 389.439 L1728.74 389.329 L1726.51 389.329 L1724.29 389.439 L1722.07 389.657 L1719.87 389.984 L1717.68 390.419 L1715.52 390.961 L1713.38 391.608 L1711.29 392.358 L1709.23 393.211 L1707.21 394.164 L1705.25 395.215 L1703.33 396.361 L1701.48 397.599 L1699.69 398.927 L1697.97 400.341 L1696.32 401.838 L1694.74 403.414 L1693.24 405.065 L1691.83 406.788 L1690.5 408.578 L1689.26 410.431 L1688.12 412.343 L1687.07 414.309 L1686.11 416.324 L1685.26 418.383 L1684.51 420.481 L1683.86 422.614 L1683.32 424.776 L1682.89 426.962 L1682.56 429.167 L1682.34 431.385 L1682.23 433.611 L1682.23 435.84 L1682.23 435.84  Z" fill="#add8e6" fill-rule="evenodd" fill-opacity="1"/>
<polyline clip-path="url(#clip891)" style="stroke:#000000; stroke-linecap:round; stroke-linejoin:round; stroke-width:4; stroke-opacity:1; fill:none" points="1682.23,435.84 1682.34,438.066 1682.56,440.284 1682.89,442.489 1683.32,444.675 1683.86,446.837 1684.51,448.97 1685.26,451.069 1686.11,453.128 1687.07,455.143 1688.12,457.108 1689.26,459.02 1690.5,460.873 1691.83,462.664 1693.24,464.386 1694.74,466.038 1696.32,467.614 1697.97,469.111 1699.69,470.525 1701.48,471.852 1703.33,473.091 1705.25,474.237 1707.21,475.287 1709.23,476.24 1711.29,477.093 1713.38,477.844 1715.52,478.491 1717.68,479.033 1719.87,479.467 1722.07,479.794 1724.29,480.013 1726.51,480.122 1728.74,480.122 1730.97,480.013 1733.19,479.794 1735.39,479.467 1737.58,479.033 1739.74,478.491 1741.87,477.844 1743.97,477.093 1746.03,476.24 1748.05,475.287 1750.01,474.237 1751.92,473.091 1753.78,471.852 1755.57,470.525 1757.29,469.111 1758.94,467.614 1760.52,466.038 1762.01,464.386 1763.43,462.664 1764.76,460.873 1765.99,459.02 1767.14,457.108 1768.19,455.143 1769.14,453.128 1770,451.069 1770.75,448.97 1771.39,446.837 1771.94,444.675 1772.37,442.489 1772.7,440.284 1772.92,438.066 1773.02,435.84 1773.02,433.611 1772.92,431.385 1772.7,429.167 1772.37,426.962 1771.94,424.776 1771.39,422.614 1770.75,420.481 1770,418.383 1769.14,416.324 1768.19,414.309 1767.14,412.343 1765.99,410.431 1764.76,408.578 1763.43,406.788 1762.01,405.065 1760.52,403.414 1758.94,401.838 1757.29,400.341 1755.57,398.927 1753.78,397.599 1751.92,396.361 1750.01,395.215 1748.05,394.164 1746.03,393.211 1743.97,392.358 1741.87,391.608 1739.74,390.961 1737.58,390.419 1735.39,389.984 1733.19,389.657 1730.97,389.439 1728.74,389.329 1726.51,389.329 1724.29,389.439 1722.07,389.657 1719.87,389.984 1717.68,390.419 1715.52,390.961 1713.38,391.608 1711.29,392.358 1709.23,393.211 1707.21,394.164 1705.25,395.215 1703.33,396.361 1701.48,397.599 1699.69,398.927 1697.97,400.341 1696.32,401.838 1694.74,403.414 1693.24,405.065 1691.83,406.788 1690.5,408.578 1689.26,410.431 1688.12,412.343 1687.07,414.309 1686.11,416.324 1685.26,418.383 1684.51,420.481 1683.86,422.614 1683.32,424.776 1682.89,426.962 1682.56,429.167 1682.34,431.385 1682.23,433.611 1682.23,435.84 "/>
<circle clip-path="url(#clip891)" cx="819.698" cy="1342.66" r="14.4" fill="#000000" fill-rule="evenodd" fill-opacity="1" stroke="none"/>
<circle clip-path="url(#clip891)" cx="871.481" cy="1132.15" r="14.4" fill="#000000" fill-rule="evenodd" fill-opacity="1" stroke="none"/>
<polyline clip-path="url(#clip891)" style="stroke:#000000; stroke-linecap:round; stroke-linejoin:round; stroke-width:4; stroke-opacity:1; fill:none" points="819.698,1342.66 871.481,1132.15 "/>
<path clip-path="url(#clip891)" d="M862.882 1167.11 L845.403 1162.81 L871.481 1132.15 L880.361 1171.41  Z" fill="#000000" fill-rule="evenodd" fill-opacity="1"/>
<polyline clip-path="url(#clip891)" style="stroke:#000000; stroke-linecap:round; stroke-linejoin:round; stroke-width:4; stroke-opacity:1; fill:none" points="862.882,1167.11 819.698,1342.66 "/>
<circle clip-path="url(#clip891)" cx="819.698" cy="1342.66" r="14.4" fill="#000000" fill-rule="evenodd" fill-opacity="0" stroke="none"/>
<circle clip-path="url(#clip891)" cx="871.481" cy="1132.15" r="14.4" fill="#000000" fill-rule="evenodd" fill-opacity="0" stroke="none"/>
<circle clip-path="url(#clip891)" cx="1029.2" cy="813.298" r="14.4" fill="#000000" fill-rule="evenodd" fill-opacity="1" stroke="none"/>
<polyline clip-path="url(#clip891)" style="stroke:#000000; stroke-linecap:round; stroke-linejoin:round; stroke-width:4; stroke-opacity:1; fill:none" points="871.481,1132.15 1029.2,813.298 "/>
<path clip-path="url(#clip891)" d="M1013.24 845.567 L997.101 837.586 L1029.2 813.298 L1029.37 853.547  Z" fill="#000000" fill-rule="evenodd" fill-opacity="1"/>
<polyline clip-path="url(#clip891)" style="stroke:#000000; stroke-linecap:round; stroke-linejoin:round; stroke-width:4; stroke-opacity:1; fill:none" points="1013.24,845.567 871.481,1132.15 "/>
<circle clip-path="url(#clip891)" cx="871.481" cy="1132.15" r="14.4" fill="#000000" fill-rule="evenodd" fill-opacity="0" stroke="none"/>
<circle clip-path="url(#clip891)" cx="1029.2" cy="813.298" r="14.4" fill="#000000" fill-rule="evenodd" fill-opacity="0" stroke="none"/>
<circle clip-path="url(#clip891)" cx="1391.07" cy="518.845" r="14.4" fill="#000000" fill-rule="evenodd" fill-opacity="1" stroke="none"/>
<polyline clip-path="url(#clip891)" style="stroke:#000000; stroke-linecap:round; stroke-linejoin:round; stroke-width:4; stroke-opacity:1; fill:none" points="1029.2,813.298 1391.07,518.845 "/>
<path clip-path="url(#clip891)" d="M1363.15 541.566 L1351.78 527.604 L1391.07 518.845 L1374.51 555.528  Z" fill="#000000" fill-rule="evenodd" fill-opacity="1"/>
<polyline clip-path="url(#clip891)" style="stroke:#000000; stroke-linecap:round; stroke-linejoin:round; stroke-width:4; stroke-opacity:1; fill:none" points="1363.15,541.566 1029.2,813.298 "/>
<circle clip-path="url(#clip891)" cx="1029.2" cy="813.298" r="14.4" fill="#000000" fill-rule="evenodd" fill-opacity="0" stroke="none"/>
<circle clip-path="url(#clip891)" cx="1391.07" cy="518.845" r="14.4" fill="#000000" fill-rule="evenodd" fill-opacity="0" stroke="none"/>
<circle clip-path="url(#clip891)" cx="1697.33" cy="433.418" r="14.4" fill="#000000" fill-rule="evenodd" fill-opacity="1" stroke="none"/>
<polyline clip-path="url(#clip891)" style="stroke:#000000; stroke-linecap:round; stroke-linejoin:round; stroke-width:4; stroke-opacity:1; fill:none" points="1391.07,518.845 1697.33,433.418 "/>
<path clip-path="url(#clip891)" d="M1662.66 443.09 L1657.82 425.752 L1697.33 433.418 L1667.49 460.428  Z" fill="#000000" fill-rule="evenodd" fill-opacity="1"/>
<polyline clip-path="url(#clip891)" style="stroke:#000000; stroke-linecap:round; stroke-linejoin:round; stroke-width:4; stroke-opacity:1; fill:none" points="1662.66,443.09 1391.07,518.845 "/>
<circle clip-path="url(#clip891)" cx="1391.07" cy="518.845" r="14.4" fill="#000000" fill-rule="evenodd" fill-opacity="0" stroke="none"/>
<circle clip-path="url(#clip891)" cx="1697.33" cy="433.418" r="14.4" fill="#000000" fill-rule="evenodd" fill-opacity="0" stroke="none"/>
</svg>
