<?xml version="1.0" encoding="utf-8"?>
<svg xmlns="http://www.w3.org/2000/svg" xmlns:xlink="http://www.w3.org/1999/xlink" width="600" height="400" viewBox="0 0 2400 1600">
<defs>
  <clipPath id="clip960">
    <rect x="0" y="0" width="2400" height="1600"/>
  </clipPath>
</defs>
<path clip-path="url(#clip960)" d="M0 1600 L2400 1600 L2400 0 L0 0  Z" fill="#ffffff" fill-rule="evenodd" fill-opacity="1"/>
<defs>
  <clipPath id="clip961">
    <rect x="480" y="0" width="1681" height="1600"/>
  </clipPath>
</defs>
<path clip-path="url(#clip960)" d="M112.177 1486.45 L2352.76 1486.45 L2352.76 47.2441 L112.177 47.2441  Z" fill="#ffffff" fill-rule="evenodd" fill-opacity="1"/>
<defs>
  <clipPath id="clip962">
    <rect x="112" y="47" width="2242" height="1440"/>
  </clipPath>
</defs>
<polyline clip-path="url(#clip962)" style="stroke:#000000; stroke-linecap:round; stroke-linejoin:round; stroke-width:2; stroke-opacity:0.1; fill:none" points="464.872,1486.45 464.872,47.2441 "/>
<polyline clip-path="url(#clip962)" style="stroke:#000000; stroke-linecap:round; stroke-linejoin:round; stroke-width:2; stroke-opacity:0.1; fill:none" points="828.09,1486.45 828.09,47.2441 "/>
<polyline clip-path="url(#clip962)" style="stroke:#000000; stroke-linecap:round; stroke-linejoin:round; stroke-width:2; stroke-opacity:0.1; fill:none" points="1191.31,1486.45 1191.31,47.2441 "/>
<polyline clip-path="url(#clip962)" style="stroke:#000000; stroke-linecap:round; stroke-linejoin:round; stroke-width:2; stroke-opacity:0.1; fill:none" points="1554.53,1486.45 1554.53,47.2441 "/>
<polyline clip-path="url(#clip962)" style="stroke:#000000; stroke-linecap:round; stroke-linejoin:round; stroke-width:2; stroke-opacity:0.1; fill:none" points="1917.74,1486.45 1917.74,47.2441 "/>
<polyline clip-path="url(#clip962)" style="stroke:#000000; stroke-linecap:round; stroke-linejoin:round; stroke-width:2; stroke-opacity:0.1; fill:none" points="2280.96,1486.45 2280.96,47.2441 "/>
<polyline clip-path="url(#clip960)" style="stroke:#000000; stroke-linecap:round; stroke-linejoin:round; stroke-width:4; stroke-opacity:1; fill:none" points="112.177,1486.45 2352.76,1486.45 "/>
<polyline clip-path="url(#clip960)" style="stroke:#000000; stroke-linecap:round; stroke-linejoin:round; stroke-width:4; stroke-opacity:1; fill:none" points="464.872,1486.45 464.872,1467.55 "/>
<polyline clip-path="url(#clip960)" style="stroke:#000000; stroke-linecap:round; stroke-linejoin:round; stroke-width:4; stroke-opacity:1; fill:none" points="828.09,1486.45 828.09,1467.55 "/>
<polyline clip-path="url(#clip960)" style="stroke:#000000; stroke-linecap:round; stroke-linejoin:round; stroke-width:4; stroke-opacity:1; fill:none" points="1191.31,1486.45 1191.31,1467.55 "/>
<polyline clip-path="url(#clip960)" style="stroke:#000000; stroke-linecap:round; stroke-linejoin:round; stroke-width:4; stroke-opacity:1; fill:none" points="1554.53,1486.45 1554.53,1467.55 "/>
<polyline clip-path="url(#clip960)" style="stroke:#000000; stroke-linecap:round; stroke-linejoin:round; stroke-width:4; stroke-opacity:1; fill:none" points="1917.74,1486.45 1917.74,1467.55 "/>
<polyline clip-path="url(#clip960)" style="stroke:#000000; stroke-linecap:round; stroke-linejoin:round; stroke-width:4; stroke-opacity:1; fill:none" points="2280.96,1486.45 2280.96,1467.55 "/>
<path clip-path="url(#clip960)" d="M455.254 1544.91 L462.893 1544.91 L462.893 1518.55 L454.583 1520.21 L454.583 1515.95 L462.846 1514.29 L467.522 1514.29 L467.522 1544.91 L475.161 1544.91 L475.161 1548.85 L455.254 1548.85 L455.254 1544.91 Z" fill="#000000" fill-rule="nonzero" fill-opacity="1" /><path clip-path="url(#clip960)" d="M822.742 1544.91 L839.062 1544.91 L839.062 1548.85 L817.117 1548.85 L817.117 1544.91 Q819.779 1542.16 824.363 1537.53 Q828.969 1532.88 830.15 1531.53 Q832.395 1529.01 833.275 1527.27 Q834.178 1525.51 834.178 1523.82 Q834.178 1521.07 832.233 1519.33 Q830.312 1517.6 827.21 1517.6 Q825.011 1517.6 822.557 1518.36 Q820.127 1519.13 817.349 1520.68 L817.349 1515.95 Q820.173 1514.82 822.627 1514.24 Q825.08 1513.66 827.117 1513.66 Q832.488 1513.66 835.682 1516.35 Q838.877 1519.03 838.877 1523.52 Q838.877 1525.65 838.066 1527.57 Q837.279 1529.47 835.173 1532.07 Q834.594 1532.74 831.492 1535.95 Q828.391 1539.15 822.742 1544.91 Z" fill="#000000" fill-rule="nonzero" fill-opacity="1" /><path clip-path="url(#clip960)" d="M1195.56 1530.21 Q1198.91 1530.93 1200.79 1533.2 Q1202.68 1535.47 1202.68 1538.8 Q1202.68 1543.92 1199.17 1546.72 Q1195.65 1549.52 1189.17 1549.52 Q1186.99 1549.52 1184.68 1549.08 Q1182.38 1548.66 1179.93 1547.81 L1179.93 1543.29 Q1181.87 1544.43 1184.19 1545.01 Q1186.5 1545.58 1189.03 1545.58 Q1193.43 1545.58 1195.72 1543.85 Q1198.03 1542.11 1198.03 1538.8 Q1198.03 1535.75 1195.88 1534.03 Q1193.75 1532.3 1189.93 1532.3 L1185.9 1532.3 L1185.9 1528.45 L1190.12 1528.45 Q1193.56 1528.45 1195.39 1527.09 Q1197.22 1525.7 1197.22 1523.11 Q1197.22 1520.45 1195.32 1519.03 Q1193.45 1517.6 1189.93 1517.6 Q1188.01 1517.6 1185.81 1518.01 Q1183.61 1518.43 1180.97 1519.31 L1180.97 1515.14 Q1183.63 1514.4 1185.95 1514.03 Q1188.29 1513.66 1190.35 1513.66 Q1195.67 1513.66 1198.77 1516.09 Q1201.87 1518.5 1201.87 1522.62 Q1201.87 1525.49 1200.23 1527.48 Q1198.59 1529.45 1195.56 1530.21 Z" fill="#000000" fill-rule="nonzero" fill-opacity="1" /><path clip-path="url(#clip960)" d="M1557.53 1518.36 L1545.73 1536.81 L1557.53 1536.81 L1557.53 1518.36 M1556.31 1514.29 L1562.19 1514.29 L1562.19 1536.81 L1567.12 1536.81 L1567.12 1540.7 L1562.19 1540.7 L1562.19 1548.85 L1557.53 1548.85 L1557.53 1540.7 L1541.93 1540.7 L1541.93 1536.19 L1556.31 1514.29 Z" fill="#000000" fill-rule="nonzero" fill-opacity="1" /><path clip-path="url(#clip960)" d="M1908.02 1514.29 L1926.38 1514.29 L1926.38 1518.22 L1912.3 1518.22 L1912.3 1526.7 Q1913.32 1526.35 1914.34 1526.19 Q1915.36 1526 1916.38 1526 Q1922.16 1526 1925.54 1529.17 Q1928.92 1532.34 1928.92 1537.76 Q1928.92 1543.34 1925.45 1546.44 Q1921.98 1549.52 1915.66 1549.52 Q1913.48 1549.52 1911.22 1549.15 Q1908.97 1548.78 1906.56 1548.04 L1906.56 1543.34 Q1908.65 1544.47 1910.87 1545.03 Q1913.09 1545.58 1915.57 1545.58 Q1919.57 1545.58 1921.91 1543.48 Q1924.25 1541.37 1924.25 1537.76 Q1924.25 1534.15 1921.91 1532.04 Q1919.57 1529.94 1915.57 1529.94 Q1913.69 1529.94 1911.82 1530.35 Q1909.97 1530.77 1908.02 1531.65 L1908.02 1514.29 Z" fill="#000000" fill-rule="nonzero" fill-opacity="1" /><path clip-path="url(#clip960)" d="M2281.37 1529.7 Q2278.22 1529.7 2276.37 1531.86 Q2274.54 1534.01 2274.54 1537.76 Q2274.54 1541.49 2276.37 1543.66 Q2278.22 1545.82 2281.37 1545.82 Q2284.51 1545.82 2286.34 1543.66 Q2288.19 1541.49 2288.19 1537.76 Q2288.19 1534.01 2286.34 1531.86 Q2284.51 1529.7 2281.37 1529.7 M2290.65 1515.05 L2290.65 1519.31 Q2288.89 1518.48 2287.08 1518.04 Q2285.3 1517.6 2283.54 1517.6 Q2278.91 1517.6 2276.46 1520.72 Q2274.03 1523.85 2273.68 1530.17 Q2275.05 1528.15 2277.11 1527.09 Q2279.17 1526 2281.64 1526 Q2286.85 1526 2289.86 1529.17 Q2292.89 1532.32 2292.89 1537.76 Q2292.89 1543.08 2289.75 1546.3 Q2286.6 1549.52 2281.37 1549.52 Q2275.37 1549.52 2272.2 1544.94 Q2269.03 1540.33 2269.03 1531.6 Q2269.03 1523.41 2272.92 1518.55 Q2276.81 1513.66 2283.36 1513.66 Q2285.12 1513.66 2286.9 1514.01 Q2288.7 1514.36 2290.65 1515.05 Z" fill="#000000" fill-rule="nonzero" fill-opacity="1" /><polyline clip-path="url(#clip962)" style="stroke:#000000; stroke-linecap:round; stroke-linejoin:round; stroke-width:2; stroke-opacity:0.1; fill:none" points="112.177,1478.26 2352.76,1478.26 "/>
<polyline clip-path="url(#clip962)" style="stroke:#000000; stroke-linecap:round; stroke-linejoin:round; stroke-width:2; stroke-opacity:0.1; fill:none" points="112.177,1115.05 2352.76,1115.05 "/>
<polyline clip-path="url(#clip962)" style="stroke:#000000; stroke-linecap:round; stroke-linejoin:round; stroke-width:2; stroke-opacity:0.1; fill:none" points="112.177,751.827 2352.76,751.827 "/>
<polyline clip-path="url(#clip962)" style="stroke:#000000; stroke-linecap:round; stroke-linejoin:round; stroke-width:2; stroke-opacity:0.1; fill:none" points="112.177,388.61 2352.76,388.61 "/>
<polyline clip-path="url(#clip960)" style="stroke:#000000; stroke-linecap:round; stroke-linejoin:round; stroke-width:4; stroke-opacity:1; fill:none" points="112.177,1486.45 112.177,47.2441 "/>
<polyline clip-path="url(#clip960)" style="stroke:#000000; stroke-linecap:round; stroke-linejoin:round; stroke-width:4; stroke-opacity:1; fill:none" points="112.177,1478.26 131.075,1478.26 "/>
<polyline clip-path="url(#clip960)" style="stroke:#000000; stroke-linecap:round; stroke-linejoin:round; stroke-width:4; stroke-opacity:1; fill:none" points="112.177,1115.05 131.075,1115.05 "/>
<polyline clip-path="url(#clip960)" style="stroke:#000000; stroke-linecap:round; stroke-linejoin:round; stroke-width:4; stroke-opacity:1; fill:none" points="112.177,751.827 131.075,751.827 "/>
<polyline clip-path="url(#clip960)" style="stroke:#000000; stroke-linecap:round; stroke-linejoin:round; stroke-width:4; stroke-opacity:1; fill:none" points="112.177,388.61 131.075,388.61 "/>
<path clip-path="url(#clip960)" d="M56.2699 1491.61 L63.9087 1491.61 L63.9087 1465.24 L55.5986 1466.91 L55.5986 1462.65 L63.8624 1460.98 L68.5383 1460.98 L68.5383 1491.61 L76.1772 1491.61 L76.1772 1495.54 L56.2699 1495.54 L56.2699 1491.61 Z" fill="#000000" fill-rule="nonzero" fill-opacity="1" /><path clip-path="url(#clip960)" d="M59.8578 1128.39 L76.1772 1128.39 L76.1772 1132.33 L54.2328 1132.33 L54.2328 1128.39 Q56.8949 1125.64 61.4782 1121.01 Q66.0846 1116.35 67.2652 1115.01 Q69.5105 1112.49 70.3902 1110.75 Q71.2929 1108.99 71.2929 1107.3 Q71.2929 1104.55 69.3485 1102.81 Q67.4272 1101.08 64.3254 1101.08 Q62.1263 1101.08 59.6726 1101.84 Q57.2421 1102.6 54.4643 1104.15 L54.4643 1099.43 Q57.2884 1098.3 59.7421 1097.72 Q62.1958 1097.14 64.2328 1097.14 Q69.6031 1097.14 72.7976 1099.83 Q75.992 1102.51 75.992 1107 Q75.992 1109.13 75.1818 1111.05 Q74.3948 1112.95 72.2883 1115.54 Q71.7096 1116.21 68.6078 1119.43 Q65.5059 1122.63 59.8578 1128.39 Z" fill="#000000" fill-rule="nonzero" fill-opacity="1" /><path clip-path="url(#clip960)" d="M69.0476 750.473 Q72.404 751.191 74.279 753.459 Q76.1772 755.728 76.1772 759.061 Q76.1772 764.177 72.6587 766.978 Q69.1402 769.779 62.6587 769.779 Q60.4828 769.779 58.168 769.339 Q55.8764 768.922 53.4227 768.066 L53.4227 763.552 Q55.3671 764.686 57.6819 765.265 Q59.9967 765.844 62.5198 765.844 Q66.918 765.844 69.2096 764.108 Q71.5244 762.371 71.5244 759.061 Q71.5244 756.006 69.3717 754.293 Q67.242 752.557 63.4226 752.557 L59.3949 752.557 L59.3949 748.714 L63.6078 748.714 Q67.0569 748.714 68.8855 747.348 Q70.7142 745.959 70.7142 743.367 Q70.7142 740.705 68.8161 739.293 Q66.9411 737.858 63.4226 737.858 Q61.5013 737.858 59.3023 738.274 Q57.1032 738.691 54.4643 739.571 L54.4643 735.404 Q57.1264 734.663 59.4412 734.293 Q61.7791 733.922 63.8393 733.922 Q69.1633 733.922 72.2652 736.353 Q75.367 738.76 75.367 742.881 Q75.367 745.751 73.7235 747.742 Q72.08 749.709 69.0476 750.473 Z" fill="#000000" fill-rule="nonzero" fill-opacity="1" /><path clip-path="url(#clip960)" d="M66.5939 375.404 L54.7884 393.853 L66.5939 393.853 L66.5939 375.404 M65.367 371.33 L71.2466 371.33 L71.2466 393.853 L76.1772 393.853 L76.1772 397.742 L71.2466 397.742 L71.2466 405.89 L66.5939 405.89 L66.5939 397.742 L50.9921 397.742 L50.9921 393.228 L65.367 371.33 Z" fill="#000000" fill-rule="nonzero" fill-opacity="1" /><path clip-path="url(#clip962)" d="M614.06 859.647 L615.285 884.799 L617.734 909.638 L621.402 934.123 L626.282 958.207 L632.366 981.851 L639.643 1005.01 L648.1 1027.65 L657.723 1049.72 L668.494 1071.18 L680.394 1092.01 L693.403 1112.16 L707.496 1131.59 L722.65 1150.28 L738.838 1168.18 L756.03 1185.27 L774.197 1201.52 L793.307 1216.9 L813.325 1231.38 L834.217 1244.93 L855.945 1257.54 L878.471 1269.18 L901.755 1279.82 L925.757 1289.45 L950.432 1298.06 L975.739 1305.62 L1001.63 1312.13 L1028.07 1317.57 L1054.99 1321.94 L1082.37 1325.22 L1110.14 1327.41 L1138.26 1328.51 L1171.45 1328.51 L1209.83 1326.55 L1248.52 1322.65 L1287.39 1316.81 L1326.33 1309.06 L1365.21 1299.41 L1403.91 1287.9 L1442.3 1274.57 L1480.27 1259.45 L1517.7 1242.59 L1554.46 1224.05 L1590.44 1203.89 L1625.54 1182.16 L1659.63 1158.94 L1692.61 1134.3 L1724.38 1108.32 L1754.84 1081.08 L1783.89 1052.66 L1811.43 1023.16 L1837.39 992.67 L1861.68 961.281 L1884.23 929.094 L1904.96 896.213 L1923.8 862.738 L1940.71 828.778 L1955.62 794.437 L1968.49 759.825 L1979.27 725.051 L1987.94 690.223 L1994.47 655.452 L1998.83 620.848 L2001.01 586.519 L2001.01 556.836 L1999.79 531.684 L1997.34 506.844 L1993.67 482.36 L1988.79 458.275 L1982.71 434.632 L1975.43 411.472 L1966.97 388.837 L1957.35 366.766 L1946.58 345.299 L1934.68 324.473 L1921.67 304.325 L1907.58 284.891 L1892.42 266.205 L1876.24 248.3 L1859.04 231.208 L1840.88 214.959 L1821.77 199.581 L1801.75 185.103 L1780.86 171.548 L1759.13 158.943 L1736.6 147.308 L1713.32 136.664 L1689.32 127.03 L1664.64 118.423 L1639.33 110.859 L1613.44 104.35 L1587.01 98.908 L1560.08 94.5431 L1532.71 91.2626 L1504.93 89.0724 L1476.81 87.9763 L1443.63 87.9763 L1405.25 89.9303 L1366.56 93.8321 L1327.68 99.6696 L1288.74 107.424 L1249.86 117.071 L1211.17 128.581 L1172.77 141.917 L1134.8 157.037 L1097.38 173.893 L1060.62 192.433 L1024.63 212.597 L989.537 234.323 L955.444 257.542 L922.461 282.181 L890.691 308.162 L860.235 335.403 L831.187 363.819 L803.64 393.32 L777.681 423.813 L753.39 455.202 L730.845 487.388 L710.118 520.27 L691.272 553.744 L674.367 587.705 L659.457 622.046 L646.589 656.658 L635.803 691.432 L627.133 726.26 L620.607 761.03 L616.244 795.635 L614.06 829.964 L614.06 859.647 L614.06 859.647  Z" fill="#008000" fill-rule="evenodd" fill-opacity="1"/>
<polyline clip-path="url(#clip962)" style="stroke:#000000; stroke-linecap:round; stroke-linejoin:round; stroke-width:4; stroke-opacity:1; fill:none" points="614.06,859.647 615.285,884.799 617.734,909.638 621.402,934.123 626.282,958.207 632.366,981.851 639.643,1005.01 648.1,1027.65 657.723,1049.72 668.494,1071.18 680.394,1092.01 693.403,1112.16 707.496,1131.59 722.65,1150.28 738.838,1168.18 756.03,1185.27 774.197,1201.52 793.307,1216.9 813.325,1231.38 834.217,1244.93 855.945,1257.54 878.471,1269.18 901.755,1279.82 925.757,1289.45 950.432,1298.06 975.739,1305.62 1001.63,1312.13 1028.07,1317.57 1054.99,1321.94 1082.37,1325.22 1110.14,1327.41 1138.26,1328.51 1171.45,1328.51 1209.83,1326.55 1248.52,1322.65 1287.39,1316.81 1326.33,1309.06 1365.21,1299.41 1403.91,1287.9 1442.3,1274.57 1480.27,1259.45 1517.7,1242.59 1554.46,1224.05 1590.44,1203.89 1625.54,1182.16 1659.63,1158.94 1692.61,1134.3 1724.38,1108.32 1754.84,1081.08 1783.89,1052.66 1811.43,1023.16 1837.39,992.67 1861.68,961.281 1884.23,929.094 1904.96,896.213 1923.8,862.738 1940.71,828.778 1955.62,794.437 1968.49,759.825 1979.27,725.051 1987.94,690.223 1994.47,655.452 1998.83,620.848 2001.01,586.519 2001.01,556.836 1999.79,531.684 1997.34,506.844 1993.67,482.36 1988.79,458.275 1982.71,434.632 1975.43,411.472 1966.97,388.837 1957.35,366.766 1946.58,345.299 1934.68,324.473 1921.67,304.325 1907.58,284.891 1892.42,266.205 1876.24,248.3 1859.04,231.208 1840.88,214.959 1821.77,199.581 1801.75,185.103 1780.86,171.548 1759.13,158.943 1736.6,147.308 1713.32,136.664 1689.32,127.03 1664.64,118.423 1639.33,110.859 1613.44,104.35 1587.01,98.908 1560.08,94.5431 1532.71,91.2626 1504.93,89.0724 1476.81,87.9763 1443.63,87.9763 1405.25,89.9303 1366.56,93.8321 1327.68,99.6696 1288.74,107.424 1249.86,117.071 1211.17,128.581 1172.77,141.917 1134.8,157.037 1097.38,173.893 1060.62,192.433 1024.63,212.597 989.537,234.323 955.444,257.542 922.461,282.181 890.691,308.162 860.235,335.403 831.187,363.819 803.64,393.32 777.681,423.813 753.39,455.202 730.845,487.388 710.118,520.27 691.272,553.744 674.367,587.705 659.457,622.046 646.589,656.658 635.803,691.432 627.133,726.26 620.607,761.03 616.244,795.635 614.06,829.964 614.06,859.647 "/>
<path clip-path="url(#clip962)" d="M718.32 836.884 L719.361 858.254 L721.442 879.36 L724.558 900.163 L728.705 920.626 L733.874 940.715 L740.057 960.393 L747.243 979.625 L755.419 998.378 L764.57 1016.62 L774.681 1034.31 L785.734 1051.43 L797.709 1067.94 L810.585 1083.82 L824.338 1099.03 L838.946 1113.56 L854.382 1127.36 L870.619 1140.43 L887.627 1152.73 L905.378 1164.25 L923.839 1174.96 L942.979 1184.84 L962.762 1193.89 L983.155 1202.07 L1004.12 1209.38 L1025.62 1215.81 L1047.62 1221.34 L1070.08 1225.96 L1092.96 1229.67 L1116.22 1232.46 L1139.82 1234.32 L1163.71 1235.25 L1191.91 1235.25 L1224.52 1233.59 L1257.39 1230.28 L1290.42 1225.32 L1323.5 1218.73 L1356.54 1210.53 L1389.42 1200.75 L1422.04 1189.42 L1454.3 1176.58 L1486.1 1162.25 L1517.34 1146.5 L1547.91 1129.37 L1577.73 1110.91 L1606.69 1091.18 L1634.72 1070.25 L1661.71 1048.17 L1687.59 1025.03 L1712.27 1000.88 L1735.68 975.816 L1757.73 949.908 L1778.37 923.238 L1797.53 895.89 L1815.14 867.952 L1831.15 839.511 L1845.51 810.656 L1858.18 781.478 L1869.12 752.07 L1878.28 722.523 L1885.65 692.932 L1891.19 663.389 L1894.9 633.987 L1896.75 604.819 L1896.75 579.599 L1895.71 558.229 L1893.63 537.123 L1890.52 516.32 L1886.37 495.856 L1881.2 475.768 L1875.02 456.09 L1867.83 436.858 L1859.66 418.105 L1850.5 399.865 L1840.39 382.17 L1829.34 365.051 L1817.37 348.539 L1804.49 332.662 L1790.74 317.449 L1776.13 302.927 L1760.69 289.121 L1744.46 276.055 L1727.45 263.753 L1709.7 252.237 L1691.24 241.527 L1672.1 231.641 L1652.31 222.597 L1631.92 214.412 L1610.95 207.099 L1589.45 200.672 L1567.45 195.141 L1544.99 190.518 L1522.11 186.809 L1498.85 184.022 L1475.26 182.161 L1451.36 181.23 L1423.17 181.23 L1390.56 182.89 L1357.68 186.205 L1324.65 191.165 L1291.57 197.754 L1258.54 205.95 L1225.66 215.73 L1193.03 227.06 L1160.77 239.907 L1128.98 254.229 L1097.74 269.981 L1067.16 287.114 L1037.35 305.574 L1008.38 325.302 L980.355 346.237 L953.362 368.312 L927.484 391.457 L902.804 415.601 L879.398 440.667 L857.341 466.575 L836.703 493.245 L817.548 520.592 L799.936 548.531 L783.924 576.972 L769.561 605.827 L756.892 635.005 L745.959 664.413 L736.794 693.959 L729.428 723.551 L723.883 753.094 L720.176 782.496 L718.32 811.664 L718.32 836.884 L718.32 836.884  Z" fill="#ff0000" fill-rule="evenodd" fill-opacity="1"/>
<polyline clip-path="url(#clip962)" style="stroke:#000000; stroke-linecap:round; stroke-linejoin:round; stroke-width:4; stroke-opacity:1; fill:none" points="718.32,836.884 719.361,858.254 721.442,879.36 724.558,900.163 728.705,920.626 733.874,940.715 740.057,960.393 747.243,979.625 755.419,998.378 764.57,1016.62 774.681,1034.31 785.734,1051.43 797.709,1067.94 810.585,1083.82 824.338,1099.03 838.946,1113.56 854.382,1127.36 870.619,1140.43 887.627,1152.73 905.378,1164.25 923.839,1174.96 942.979,1184.84 962.762,1193.89 983.155,1202.07 1004.12,1209.38 1025.62,1215.81 1047.62,1221.34 1070.08,1225.96 1092.96,1229.67 1116.22,1232.46 1139.82,1234.32 1163.71,1235.25 1191.91,1235.25 1224.52,1233.59 1257.39,1230.28 1290.42,1225.32 1323.5,1218.73 1356.54,1210.53 1389.42,1200.75 1422.04,1189.42 1454.3,1176.58 1486.1,1162.25 1517.34,1146.5 1547.91,1129.37 1577.73,1110.91 1606.69,1091.18 1634.72,1070.25 1661.71,1048.17 1687.59,1025.03 1712.27,1000.88 1735.68,975.816 1757.73,949.908 1778.37,923.238 1797.53,895.89 1815.14,867.952 1831.15,839.511 1845.51,810.656 1858.18,781.478 1869.12,752.07 1878.28,722.523 1885.65,692.932 1891.19,663.389 1894.9,633.987 1896.75,604.819 1896.75,579.599 1895.71,558.229 1893.63,537.123 1890.52,516.32 1886.37,495.856 1881.2,475.768 1875.02,456.09 1867.83,436.858 1859.66,418.105 1850.5,399.865 1840.39,382.17 1829.34,365.051 1817.37,348.539 1804.49,332.662 1790.74,317.449 1776.13,302.927 1760.69,289.121 1744.46,276.055 1727.45,263.753 1709.7,252.237 1691.24,241.527 1672.1,231.641 1652.31,222.597 1631.92,214.412 1610.95,207.099 1589.45,200.672 1567.45,195.141 1544.99,190.518 1522.11,186.809 1498.85,184.022 1475.26,182.161 1451.36,181.23 1423.17,181.23 1390.56,182.89 1357.68,186.205 1324.65,191.165 1291.57,197.754 1258.54,205.95 1225.66,215.73 1193.03,227.06 1160.77,239.907 1128.98,254.229 1097.74,269.981 1067.16,287.114 1037.35,305.574 1008.38,325.302 980.355,346.237 953.362,368.312 927.484,391.457 902.804,415.601 879.398,440.667 857.341,466.575 836.703,493.245 817.548,520.592 799.936,548.531 783.924,576.972 769.561,605.827 756.892,635.005 745.959,664.413 736.794,693.959 729.428,723.551 723.883,753.094 720.176,782.496 718.32,811.664 718.32,836.884 "/>
<path clip-path="url(#clip962)" d="M463.918 1289.2 L465.913 1304.8 L469.88 1320.31 L475.775 1335.57 L483.536 1350.39 L493.077 1364.64 L504.293 1378.13 L517.063 1390.74 L531.246 1402.32 L546.689 1412.75 L563.221 1421.91 L580.663 1429.7 L598.823 1436.03 L617.505 1440.85 L636.503 1444.09 L655.61 1445.72 L673.454 1445.72 L689.907 1444.46 L705.995 1441.96 L721.582 1438.24 L736.537 1433.32 L750.734 1427.26 L764.052 1420.1 L776.382 1411.89 L787.617 1402.72 L797.665 1392.65 L806.439 1381.78 L813.867 1370.18 L819.886 1357.97 L824.445 1345.25 L827.506 1332.11 L829.043 1318.68 L829.043 1304.11 L827.049 1288.51 L823.082 1273 L817.186 1257.74 L809.425 1242.91 L799.885 1228.67 L788.668 1215.17 L775.899 1202.57 L761.715 1190.99 L746.273 1180.56 L729.741 1171.4 L712.299 1163.61 L694.138 1157.27 L675.457 1152.46 L656.459 1149.22 L637.352 1147.59 L619.508 1147.59 L603.054 1148.85 L586.966 1151.35 L571.379 1155.07 L556.424 1159.98 L542.228 1166.05 L528.909 1173.21 L516.58 1181.42 L505.344 1190.59 L495.297 1200.66 L486.522 1211.53 L479.094 1223.12 L473.075 1235.33 L468.516 1248.06 L465.455 1261.2 L463.918 1274.63 L463.918 1289.2 L463.918 1289.2  Z" fill="#0000ff" fill-rule="evenodd" fill-opacity="1"/>
<polyline clip-path="url(#clip962)" style="stroke:#000000; stroke-linecap:round; stroke-linejoin:round; stroke-width:4; stroke-opacity:1; fill:none" points="463.918,1289.2 465.913,1304.8 469.88,1320.31 475.775,1335.57 483.536,1350.39 493.077,1364.64 504.293,1378.13 517.063,1390.74 531.246,1402.32 546.689,1412.75 563.221,1421.91 580.663,1429.7 598.823,1436.03 617.505,1440.85 636.503,1444.09 655.61,1445.72 673.454,1445.72 689.907,1444.46 705.995,1441.96 721.582,1438.24 736.537,1433.32 750.734,1427.26 764.052,1420.1 776.382,1411.89 787.617,1402.72 797.665,1392.65 806.439,1381.78 813.867,1370.18 819.886,1357.97 824.445,1345.25 827.506,1332.11 829.043,1318.68 829.043,1304.11 827.049,1288.51 823.082,1273 817.186,1257.74 809.425,1242.91 799.885,1228.67 788.668,1215.17 775.899,1202.57 761.715,1190.99 746.273,1180.56 729.741,1171.4 712.299,1163.61 694.138,1157.27 675.457,1152.46 656.459,1149.22 637.352,1147.59 619.508,1147.59 603.054,1148.85 586.966,1151.35 571.379,1155.07 556.424,1159.98 542.228,1166.05 528.909,1173.21 516.58,1181.42 505.344,1190.59 495.297,1200.66 486.522,1211.53 479.094,1223.12 473.075,1235.33 468.516,1248.06 465.455,1261.2 463.918,1274.63 463.918,1289.2 "/>
</svg>
