<?xml version="1.0" encoding="utf-8"?>
<svg xmlns="http://www.w3.org/2000/svg" xmlns:xlink="http://www.w3.org/1999/xlink" width="600" height="400" viewBox="0 0 2400 1600">
<defs>
  <clipPath id="clip740">
    <rect x="0" y="0" width="2400" height="1600"/>
  </clipPath>
</defs>
<path clip-path="url(#clip740)" d="M0 1600 L2400 1600 L2400 0 L0 0  Z" fill="#ffffff" fill-rule="evenodd" fill-opacity="1"/>
<defs>
  <clipPath id="clip741">
    <rect x="480" y="0" width="1681" height="1600"/>
  </clipPath>
</defs>
<path clip-path="url(#clip740)" d="M112.177 1486.45 L2352.76 1486.45 L2352.76 47.2441 L112.177 47.2441  Z" fill="#ffffff" fill-rule="evenodd" fill-opacity="1"/>
<defs>
  <clipPath id="clip742">
    <rect x="112" y="47" width="2242" height="1440"/>
  </clipPath>
</defs>
<polyline clip-path="url(#clip742)" style="stroke:#000000; stroke-linecap:round; stroke-linejoin:round; stroke-width:2; stroke-opacity:0.1; fill:none" points="230.538,1486.45 230.538,47.2441 "/>
<polyline clip-path="url(#clip742)" style="stroke:#000000; stroke-linecap:round; stroke-linejoin:round; stroke-width:2; stroke-opacity:0.1; fill:none" points="727.513,1486.45 727.513,47.2441 "/>
<polyline clip-path="url(#clip742)" style="stroke:#000000; stroke-linecap:round; stroke-linejoin:round; stroke-width:2; stroke-opacity:0.1; fill:none" points="1224.49,1486.45 1224.49,47.2441 "/>
<polyline clip-path="url(#clip742)" style="stroke:#000000; stroke-linecap:round; stroke-linejoin:round; stroke-width:2; stroke-opacity:0.1; fill:none" points="1721.46,1486.45 1721.46,47.2441 "/>
<polyline clip-path="url(#clip742)" style="stroke:#000000; stroke-linecap:round; stroke-linejoin:round; stroke-width:2; stroke-opacity:0.1; fill:none" points="2218.44,1486.45 2218.44,47.2441 "/>
<polyline clip-path="url(#clip740)" style="stroke:#000000; stroke-linecap:round; stroke-linejoin:round; stroke-width:4; stroke-opacity:1; fill:none" points="112.177,1486.45 2352.76,1486.45 "/>
<polyline clip-path="url(#clip740)" style="stroke:#000000; stroke-linecap:round; stroke-linejoin:round; stroke-width:4; stroke-opacity:1; fill:none" points="230.538,1486.45 230.538,1467.55 "/>
<polyline clip-path="url(#clip740)" style="stroke:#000000; stroke-linecap:round; stroke-linejoin:round; stroke-width:4; stroke-opacity:1; fill:none" points="727.513,1486.45 727.513,1467.55 "/>
<polyline clip-path="url(#clip740)" style="stroke:#000000; stroke-linecap:round; stroke-linejoin:round; stroke-width:4; stroke-opacity:1; fill:none" points="1224.49,1486.45 1224.49,1467.55 "/>
<polyline clip-path="url(#clip740)" style="stroke:#000000; stroke-linecap:round; stroke-linejoin:round; stroke-width:4; stroke-opacity:1; fill:none" points="1721.46,1486.45 1721.46,1467.55 "/>
<polyline clip-path="url(#clip740)" style="stroke:#000000; stroke-linecap:round; stroke-linejoin:round; stroke-width:4; stroke-opacity:1; fill:none" points="2218.44,1486.45 2218.44,1467.55 "/>
<path clip-path="url(#clip740)" d="M230.538 1517.37 Q226.927 1517.37 225.098 1520.93 Q223.293 1524.47 223.293 1531.6 Q223.293 1538.71 225.098 1542.27 Q226.927 1545.82 230.538 1545.82 Q234.172 1545.82 235.978 1542.27 Q237.806 1538.71 237.806 1531.6 Q237.806 1524.47 235.978 1520.93 Q234.172 1517.37 230.538 1517.37 M230.538 1513.66 Q236.348 1513.66 239.404 1518.27 Q242.482 1522.85 242.482 1531.6 Q242.482 1540.33 239.404 1544.94 Q236.348 1549.52 230.538 1549.52 Q224.728 1549.52 221.649 1544.94 Q218.593 1540.33 218.593 1531.6 Q218.593 1522.85 221.649 1518.27 Q224.728 1513.66 230.538 1513.66 Z" fill="#000000" fill-rule="nonzero" fill-opacity="1" /><path clip-path="url(#clip740)" d="M722.166 1544.91 L738.485 1544.91 L738.485 1548.85 L716.541 1548.85 L716.541 1544.91 Q719.203 1542.16 723.786 1537.53 Q728.393 1532.88 729.573 1531.53 Q731.819 1529.01 732.698 1527.27 Q733.601 1525.51 733.601 1523.82 Q733.601 1521.07 731.657 1519.33 Q729.735 1517.6 726.634 1517.6 Q724.434 1517.6 721.981 1518.36 Q719.55 1519.13 716.772 1520.68 L716.772 1515.95 Q719.597 1514.82 722.05 1514.24 Q724.504 1513.66 726.541 1513.66 Q731.911 1513.66 735.106 1516.35 Q738.3 1519.03 738.3 1523.52 Q738.3 1525.65 737.49 1527.57 Q736.703 1529.47 734.596 1532.07 Q734.018 1532.74 730.916 1535.95 Q727.814 1539.15 722.166 1544.91 Z" fill="#000000" fill-rule="nonzero" fill-opacity="1" /><path clip-path="url(#clip740)" d="M1227.5 1518.36 L1215.69 1536.81 L1227.5 1536.81 L1227.5 1518.36 M1226.27 1514.29 L1232.15 1514.29 L1232.15 1536.81 L1237.08 1536.81 L1237.08 1540.7 L1232.15 1540.7 L1232.15 1548.85 L1227.5 1548.85 L1227.5 1540.7 L1211.9 1540.7 L1211.9 1536.19 L1226.27 1514.29 Z" fill="#000000" fill-rule="nonzero" fill-opacity="1" /><path clip-path="url(#clip740)" d="M1721.87 1529.7 Q1718.72 1529.7 1716.87 1531.86 Q1715.04 1534.01 1715.04 1537.76 Q1715.04 1541.49 1716.87 1543.66 Q1718.72 1545.82 1721.87 1545.82 Q1725.02 1545.82 1726.85 1543.66 Q1728.7 1541.49 1728.7 1537.76 Q1728.7 1534.01 1726.85 1531.86 Q1725.02 1529.7 1721.87 1529.7 M1731.15 1515.05 L1731.15 1519.31 Q1729.39 1518.48 1727.59 1518.04 Q1725.8 1517.6 1724.04 1517.6 Q1719.42 1517.6 1716.96 1520.72 Q1714.53 1523.85 1714.18 1530.17 Q1715.55 1528.15 1717.61 1527.09 Q1719.67 1526 1722.15 1526 Q1727.35 1526 1730.36 1529.17 Q1733.4 1532.32 1733.4 1537.76 Q1733.4 1543.08 1730.25 1546.3 Q1727.1 1549.52 1721.87 1549.52 Q1715.87 1549.52 1712.7 1544.94 Q1709.53 1540.33 1709.53 1531.6 Q1709.53 1523.41 1713.42 1518.55 Q1717.31 1513.66 1723.86 1513.66 Q1725.62 1513.66 1727.4 1514.01 Q1729.21 1514.36 1731.15 1515.05 Z" fill="#000000" fill-rule="nonzero" fill-opacity="1" /><path clip-path="url(#clip740)" d="M2218.44 1532.44 Q2215.11 1532.44 2213.18 1534.22 Q2211.29 1536 2211.29 1539.13 Q2211.29 1542.25 2213.18 1544.03 Q2215.11 1545.82 2218.44 1545.82 Q2221.77 1545.82 2223.69 1544.03 Q2225.61 1542.23 2225.61 1539.13 Q2225.61 1536 2223.69 1534.22 Q2221.8 1532.44 2218.44 1532.44 M2213.76 1530.45 Q2210.75 1529.7 2209.06 1527.64 Q2207.4 1525.58 2207.4 1522.62 Q2207.4 1518.48 2210.34 1516.07 Q2213.3 1513.66 2218.44 1513.66 Q2223.6 1513.66 2226.54 1516.07 Q2229.48 1518.48 2229.48 1522.62 Q2229.48 1525.58 2227.79 1527.64 Q2226.12 1529.7 2223.14 1530.45 Q2226.52 1531.23 2228.39 1533.52 Q2230.29 1535.82 2230.29 1539.13 Q2230.29 1544.15 2227.21 1546.83 Q2224.16 1549.52 2218.44 1549.52 Q2212.72 1549.52 2209.64 1546.83 Q2206.59 1544.15 2206.59 1539.13 Q2206.59 1535.82 2208.49 1533.52 Q2210.38 1531.23 2213.76 1530.45 M2212.05 1523.06 Q2212.05 1525.75 2213.72 1527.25 Q2215.41 1528.76 2218.44 1528.76 Q2221.45 1528.76 2223.14 1527.25 Q2224.85 1525.75 2224.85 1523.06 Q2224.85 1520.38 2223.14 1518.87 Q2221.45 1517.37 2218.44 1517.37 Q2215.41 1517.37 2213.72 1518.87 Q2212.05 1520.38 2212.05 1523.06 Z" fill="#000000" fill-rule="nonzero" fill-opacity="1" /><polyline clip-path="url(#clip742)" style="stroke:#000000; stroke-linecap:round; stroke-linejoin:round; stroke-width:2; stroke-opacity:0.1; fill:none" points="112.177,1467.98 2352.76,1467.98 "/>
<polyline clip-path="url(#clip742)" style="stroke:#000000; stroke-linecap:round; stroke-linejoin:round; stroke-width:2; stroke-opacity:0.1; fill:none" points="112.177,1219.49 2352.76,1219.49 "/>
<polyline clip-path="url(#clip742)" style="stroke:#000000; stroke-linecap:round; stroke-linejoin:round; stroke-width:2; stroke-opacity:0.1; fill:none" points="112.177,971.007 2352.76,971.007 "/>
<polyline clip-path="url(#clip742)" style="stroke:#000000; stroke-linecap:round; stroke-linejoin:round; stroke-width:2; stroke-opacity:0.1; fill:none" points="112.177,722.519 2352.76,722.519 "/>
<polyline clip-path="url(#clip742)" style="stroke:#000000; stroke-linecap:round; stroke-linejoin:round; stroke-width:2; stroke-opacity:0.1; fill:none" points="112.177,474.032 2352.76,474.032 "/>
<polyline clip-path="url(#clip742)" style="stroke:#000000; stroke-linecap:round; stroke-linejoin:round; stroke-width:2; stroke-opacity:0.1; fill:none" points="112.177,225.544 2352.76,225.544 "/>
<polyline clip-path="url(#clip740)" style="stroke:#000000; stroke-linecap:round; stroke-linejoin:round; stroke-width:4; stroke-opacity:1; fill:none" points="112.177,1486.45 112.177,47.2441 "/>
<polyline clip-path="url(#clip740)" style="stroke:#000000; stroke-linecap:round; stroke-linejoin:round; stroke-width:4; stroke-opacity:1; fill:none" points="112.177,1467.98 131.075,1467.98 "/>
<polyline clip-path="url(#clip740)" style="stroke:#000000; stroke-linecap:round; stroke-linejoin:round; stroke-width:4; stroke-opacity:1; fill:none" points="112.177,1219.49 131.075,1219.49 "/>
<polyline clip-path="url(#clip740)" style="stroke:#000000; stroke-linecap:round; stroke-linejoin:round; stroke-width:4; stroke-opacity:1; fill:none" points="112.177,971.007 131.075,971.007 "/>
<polyline clip-path="url(#clip740)" style="stroke:#000000; stroke-linecap:round; stroke-linejoin:round; stroke-width:4; stroke-opacity:1; fill:none" points="112.177,722.519 131.075,722.519 "/>
<polyline clip-path="url(#clip740)" style="stroke:#000000; stroke-linecap:round; stroke-linejoin:round; stroke-width:4; stroke-opacity:1; fill:none" points="112.177,474.032 131.075,474.032 "/>
<polyline clip-path="url(#clip740)" style="stroke:#000000; stroke-linecap:round; stroke-linejoin:round; stroke-width:4; stroke-opacity:1; fill:none" points="112.177,225.544 131.075,225.544 "/>
<path clip-path="url(#clip740)" d="M56.2699 1481.33 L63.9087 1481.33 L63.9087 1454.96 L55.5986 1456.63 L55.5986 1452.37 L63.8624 1450.7 L68.5383 1450.7 L68.5383 1481.33 L76.1772 1481.33 L76.1772 1485.26 L56.2699 1485.26 L56.2699 1481.33 Z" fill="#000000" fill-rule="nonzero" fill-opacity="1" /><path clip-path="url(#clip740)" d="M59.8578 1232.84 L76.1772 1232.84 L76.1772 1236.77 L54.2328 1236.77 L54.2328 1232.84 Q56.8949 1230.08 61.4782 1225.46 Q66.0846 1220.8 67.2652 1219.46 Q69.5105 1216.94 70.3902 1215.2 Q71.2929 1213.44 71.2929 1211.75 Q71.2929 1209 69.3485 1207.26 Q67.4272 1205.52 64.3254 1205.52 Q62.1263 1205.52 59.6726 1206.29 Q57.2421 1207.05 54.4643 1208.6 L54.4643 1203.88 Q57.2884 1202.75 59.7421 1202.17 Q62.1958 1201.59 64.2328 1201.59 Q69.6031 1201.59 72.7976 1204.27 Q75.992 1206.96 75.992 1211.45 Q75.992 1213.58 75.1818 1215.5 Q74.3948 1217.4 72.2883 1219.99 Q71.7096 1220.66 68.6078 1223.88 Q65.5059 1227.08 59.8578 1232.84 Z" fill="#000000" fill-rule="nonzero" fill-opacity="1" /><path clip-path="url(#clip740)" d="M69.0476 969.653 Q72.404 970.37 74.279 972.639 Q76.1772 974.907 76.1772 978.241 Q76.1772 983.357 72.6587 986.157 Q69.1402 988.958 62.6587 988.958 Q60.4828 988.958 58.168 988.519 Q55.8764 988.102 53.4227 987.245 L53.4227 982.732 Q55.3671 983.866 57.6819 984.444 Q59.9967 985.023 62.5198 985.023 Q66.918 985.023 69.2096 983.287 Q71.5244 981.551 71.5244 978.241 Q71.5244 975.185 69.3717 973.472 Q67.242 971.736 63.4226 971.736 L59.3949 971.736 L59.3949 967.894 L63.6078 967.894 Q67.0569 967.894 68.8855 966.528 Q70.7142 965.139 70.7142 962.546 Q70.7142 959.884 68.8161 958.472 Q66.9411 957.037 63.4226 957.037 Q61.5013 957.037 59.3023 957.454 Q57.1032 957.871 54.4643 958.75 L54.4643 954.584 Q57.1264 953.843 59.4412 953.472 Q61.7791 953.102 63.8393 953.102 Q69.1633 953.102 72.2652 955.533 Q75.367 957.94 75.367 962.06 Q75.367 964.931 73.7235 966.921 Q72.08 968.889 69.0476 969.653 Z" fill="#000000" fill-rule="nonzero" fill-opacity="1" /><path clip-path="url(#clip740)" d="M66.5939 709.313 L54.7884 727.762 L66.5939 727.762 L66.5939 709.313 M65.367 705.239 L71.2466 705.239 L71.2466 727.762 L76.1772 727.762 L76.1772 731.651 L71.2466 731.651 L71.2466 739.799 L66.5939 739.799 L66.5939 731.651 L50.9921 731.651 L50.9921 727.137 L65.367 705.239 Z" fill="#000000" fill-rule="nonzero" fill-opacity="1" /><path clip-path="url(#clip740)" d="M55.2745 456.752 L73.6309 456.752 L73.6309 460.687 L59.5569 460.687 L59.5569 469.159 Q60.5754 468.812 61.5939 468.65 Q62.6124 468.465 63.6309 468.465 Q69.418 468.465 72.7976 471.636 Q76.1772 474.807 76.1772 480.224 Q76.1772 485.803 72.705 488.904 Q69.2328 491.983 62.9134 491.983 Q60.7374 491.983 58.4689 491.613 Q56.2236 491.242 53.8162 490.502 L53.8162 485.803 Q55.8995 486.937 58.1217 487.492 Q60.3439 488.048 62.8208 488.048 Q66.8254 488.048 69.1633 485.941 Q71.5013 483.835 71.5013 480.224 Q71.5013 476.613 69.1633 474.506 Q66.8254 472.4 62.8208 472.4 Q60.9458 472.4 59.0708 472.816 Q57.2189 473.233 55.2745 474.113 L55.2745 456.752 Z" fill="#000000" fill-rule="nonzero" fill-opacity="1" /><path clip-path="url(#clip740)" d="M64.6495 223.681 Q61.5013 223.681 59.6495 225.833 Q57.8208 227.986 57.8208 231.736 Q57.8208 235.463 59.6495 237.639 Q61.5013 239.792 64.6495 239.792 Q67.7976 239.792 69.6263 237.639 Q71.4781 235.463 71.4781 231.736 Q71.4781 227.986 69.6263 225.833 Q67.7976 223.681 64.6495 223.681 M73.9318 209.028 L73.9318 213.287 Q72.1726 212.454 70.367 212.014 Q68.5846 211.574 66.8254 211.574 Q62.1958 211.574 59.7421 214.699 Q57.3115 217.824 56.9643 224.144 Q58.33 222.13 60.3902 221.065 Q62.4504 219.977 64.9272 219.977 Q70.1355 219.977 73.1448 223.148 Q76.1772 226.296 76.1772 231.736 Q76.1772 237.06 73.029 240.278 Q69.8809 243.495 64.6495 243.495 Q58.6541 243.495 55.4828 238.912 Q52.3116 234.306 52.3116 225.579 Q52.3116 217.384 56.2004 212.523 Q60.0893 207.639 66.6402 207.639 Q68.3994 207.639 70.1818 207.986 Q71.9874 208.334 73.9318 209.028 Z" fill="#000000" fill-rule="nonzero" fill-opacity="1" /><path clip-path="url(#clip742)" d="M512.115 908.324 L513.417 935.063 L516.021 961.47 L519.92 987.498 L525.108 1013.1 L531.576 1038.24 L539.312 1062.86 L548.303 1086.92 L558.532 1110.38 L569.983 1133.21 L582.634 1155.35 L596.463 1176.76 L611.445 1197.42 L627.555 1217.29 L644.764 1236.32 L663.041 1254.49 L682.354 1271.77 L702.669 1288.11 L723.95 1303.51 L746.16 1317.92 L769.258 1331.32 L793.205 1343.69 L817.958 1355 L843.474 1365.24 L869.706 1374.39 L896.609 1382.43 L924.136 1389.35 L952.237 1395.14 L980.864 1399.78 L1009.96 1403.27 L1039.49 1405.59 L1069.38 1406.76 L1094.57 1406.76 L1114.87 1406.24 L1135.26 1405.2 L1155.75 1403.65 L1176.31 1401.57 L1196.93 1398.98 L1217.59 1395.88 L1238.27 1392.27 L1258.97 1388.15 L1279.65 1383.52 L1300.31 1378.39 L1320.93 1372.77 L1351.79 1363.59 L1392.6 1349.42 L1432.97 1333.34 L1472.75 1315.42 L1511.83 1295.71 L1550.09 1274.28 L1587.4 1251.18 L1623.64 1226.5 L1658.7 1200.3 L1692.48 1172.68 L1724.86 1143.73 L1755.74 1113.52 L1777.7 1090 L1791.92 1074.05 L1805.72 1057.84 L1819.07 1041.39 L1831.98 1024.71 L1844.43 1007.81 L1856.41 990.709 L1867.92 973.412 L1878.93 955.937 L1889.45 938.299 L1899.47 920.509 L1908.97 902.584 L1917.95 884.536 L1926.41 866.38 L1934.34 848.13 L1941.72 829.801 L1948.56 811.407 L1954.85 792.962 L1960.58 774.482 L1965.75 755.98 L1970.36 737.471 L1974.4 718.97 L1977.86 700.492 L1980.76 682.05 L1983.08 663.66 L1984.82 645.336 L1985.98 627.093 L1986.56 608.944 L1986.56 586.412 L1985.26 559.674 L1982.65 533.267 L1978.75 507.238 L1973.57 481.634 L1967.1 456.499 L1959.36 431.879 L1950.37 407.816 L1940.14 384.353 L1928.69 361.531 L1916.04 339.391 L1902.21 317.972 L1887.23 297.312 L1871.12 277.448 L1853.91 258.413 L1835.63 240.243 L1816.32 222.969 L1796.01 206.621 L1774.72 191.229 L1752.51 176.82 L1729.42 163.419 L1705.47 151.05 L1680.72 139.735 L1655.2 129.493 L1628.97 120.344 L1602.07 112.302 L1574.54 105.383 L1546.44 99.5976 L1517.81 94.9573 L1488.71 91.4699 L1459.19 89.1415 L1429.29 87.9763 L1404.1 87.9763 L1383.81 88.4957 L1363.41 89.5341 L1342.93 91.0907 L1322.36 93.1643 L1301.75 95.7532 L1281.09 98.8555 L1260.4 102.469 L1239.71 106.59 L1219.02 111.215 L1198.36 116.342 L1177.74 121.966 L1146.89 131.143 L1106.07 145.319 L1065.71 161.393 L1025.92 179.313 L986.84 199.022 L948.585 220.458 L911.277 243.555 L875.034 268.238 L839.971 294.431 L806.197 322.051 L773.819 351.011 L742.939 381.22 L720.977 404.739 L706.753 420.687 L692.957 436.892 L679.6 453.342 L666.691 470.023 L654.241 486.923 L642.26 504.028 L630.757 521.324 L619.742 538.799 L609.222 556.438 L599.207 574.227 L589.704 592.153 L580.72 610.201 L572.263 628.357 L564.339 646.607 L556.955 664.936 L550.117 683.33 L543.829 701.774 L538.097 720.255 L532.925 738.757 L528.318 757.265 L524.278 775.766 L520.81 794.244 L517.915 812.686 L515.597 831.076 L513.856 849.4 L512.695 867.644 L512.115 885.793 L512.115 908.324 L512.115 908.324  Z" fill="#008000" fill-rule="evenodd" fill-opacity="1"/>
<polyline clip-path="url(#clip742)" style="stroke:#000000; stroke-linecap:round; stroke-linejoin:round; stroke-width:4; stroke-opacity:1; fill:none" points="512.115,908.324 513.417,935.063 516.021,961.47 519.92,987.498 525.108,1013.1 531.576,1038.24 539.312,1062.86 548.303,1086.92 558.532,1110.38 569.983,1133.21 582.634,1155.35 596.463,1176.76 611.445,1197.42 627.555,1217.29 644.764,1236.32 663.041,1254.49 682.354,1271.77 702.669,1288.11 723.95,1303.51 746.16,1317.92 769.258,1331.32 793.205,1343.69 817.958,1355 843.474,1365.24 869.706,1374.39 896.609,1382.43 924.136,1389.35 952.237,1395.14 980.864,1399.78 1009.96,1403.27 1039.49,1405.59 1069.38,1406.76 1094.57,1406.76 1114.87,1406.24 1135.26,1405.2 1155.75,1403.65 1176.31,1401.57 1196.93,1398.98 1217.59,1395.88 1238.27,1392.27 1258.97,1388.15 1279.65,1383.52 1300.31,1378.39 1320.93,1372.77 1351.79,1363.59 1392.6,1349.42 1432.97,1333.34 1472.75,1315.42 1511.83,1295.71 1550.09,1274.28 1587.4,1251.18 1623.64,1226.5 1658.7,1200.3 1692.48,1172.68 1724.86,1143.73 1755.74,1113.52 1777.7,1090 1791.92,1074.05 1805.72,1057.84 1819.07,1041.39 1831.98,1024.71 1844.43,1007.81 1856.41,990.709 1867.92,973.412 1878.93,955.937 1889.45,938.299 1899.47,920.509 1908.97,902.584 1917.95,884.536 1926.41,866.38 1934.34,848.13 1941.72,829.801 1948.56,811.407 1954.85,792.962 1960.58,774.482 1965.75,755.98 1970.36,737.471 1974.4,718.97 1977.86,700.492 1980.76,682.05 1983.08,663.66 1984.82,645.336 1985.98,627.093 1986.56,608.944 1986.56,586.412 1985.26,559.674 1982.65,533.267 1978.75,507.238 1973.57,481.634 1967.1,456.499 1959.36,431.879 1950.37,407.816 1940.14,384.353 1928.69,361.531 1916.04,339.391 1902.21,317.972 1887.23,297.312 1871.12,277.448 1853.91,258.413 1835.63,240.243 1816.32,222.969 1796.01,206.621 1774.72,191.229 1752.51,176.82 1729.42,163.419 1705.47,151.05 1680.72,139.735 1655.2,129.493 1628.97,120.344 1602.07,112.302 1574.54,105.383 1546.44,99.5976 1517.81,94.9573 1488.71,91.4699 1459.19,89.1415 1429.29,87.9763 1404.1,87.9763 1383.81,88.4957 1363.41,89.5341 1342.93,91.0907 1322.36,93.1643 1301.75,95.7532 1281.09,98.8555 1260.4,102.469 1239.71,106.59 1219.02,111.215 1198.36,116.342 1177.74,121.966 1146.89,131.143 1106.07,145.319 1065.71,161.393 1025.92,179.313 986.84,199.022 948.585,220.458 911.277,243.555 875.034,268.238 839.971,294.431 806.197,322.051 773.819,351.011 742.939,381.22 720.977,404.739 706.753,420.687 692.957,436.892 679.6,453.342 666.691,470.023 654.241,486.923 642.26,504.028 630.757,521.324 619.742,538.799 609.222,556.438 599.207,574.227 589.704,592.153 580.72,610.201 572.263,628.357 564.339,646.607 556.955,664.936 550.117,683.33 543.829,701.774 538.097,720.255 532.925,738.757 528.318,757.265 524.278,775.766 520.81,794.244 517.915,812.686 515.597,831.076 513.856,849.4 512.695,867.644 512.115,885.793 512.115,908.324 "/>
<path clip-path="url(#clip742)" d="M846.237 835.376 L846.949 849.996 L848.373 864.435 L850.505 878.667 L853.341 892.667 L856.878 906.41 L861.108 919.872 L866.024 933.029 L871.617 945.859 L877.878 958.337 L884.795 970.443 L892.357 982.154 L900.549 993.451 L909.358 1004.31 L918.767 1014.72 L928.761 1024.66 L939.321 1034.1 L950.429 1043.04 L962.065 1051.45 L974.209 1059.33 L986.839 1066.66 L999.932 1073.42 L1013.47 1079.61 L1027.42 1085.21 L1041.76 1090.21 L1056.47 1094.61 L1071.52 1098.39 L1086.89 1101.56 L1102.54 1104.09 L1118.45 1106 L1134.6 1107.27 L1150.94 1107.91 L1170.23 1107.91 L1192.54 1106.78 L1215.03 1104.51 L1237.63 1101.11 L1260.26 1096.61 L1282.86 1091 L1305.35 1084.31 L1327.67 1076.56 L1349.74 1067.77 L1371.5 1057.97 L1392.87 1047.19 L1413.78 1035.47 L1434.18 1022.84 L1454 1009.35 L1473.17 995.026 L1491.64 979.924 L1509.34 964.089 L1526.23 947.572 L1542.24 930.424 L1557.33 912.699 L1571.45 894.453 L1584.55 875.744 L1596.6 856.631 L1607.56 837.173 L1617.38 817.433 L1626.05 797.472 L1633.53 777.352 L1639.8 757.139 L1644.84 736.895 L1648.63 716.683 L1651.17 696.569 L1652.44 676.614 L1652.44 659.36 L1651.73 644.74 L1650.3 630.301 L1648.17 616.069 L1645.33 602.069 L1641.8 588.326 L1637.57 574.864 L1632.65 561.707 L1627.06 548.878 L1620.8 536.399 L1613.88 524.294 L1606.32 512.582 L1598.13 501.286 L1589.32 490.424 L1579.91 480.016 L1569.91 470.081 L1559.35 460.636 L1548.25 451.697 L1536.61 443.281 L1524.47 435.403 L1511.84 428.075 L1498.74 421.312 L1485.21 415.125 L1471.26 409.525 L1456.91 404.522 L1442.2 400.125 L1427.15 396.342 L1411.79 393.179 L1396.13 390.641 L1380.22 388.735 L1364.08 387.461 L1347.73 386.824 L1328.44 386.824 L1306.13 387.96 L1283.64 390.228 L1261.05 393.621 L1238.41 398.129 L1215.81 403.737 L1193.32 410.427 L1171 418.179 L1148.93 426.967 L1127.18 436.766 L1105.81 447.542 L1084.89 459.263 L1064.49 471.892 L1044.67 485.389 L1025.5 499.71 L1007.04 514.812 L989.332 530.647 L972.447 547.165 L956.435 564.313 L941.346 582.037 L927.226 600.283 L914.122 618.992 L902.073 638.105 L891.118 657.563 L881.292 677.304 L872.625 697.265 L865.146 717.384 L858.876 737.597 L853.836 757.842 L850.043 778.053 L847.507 798.168 L846.237 818.122 L846.237 835.376 L846.237 835.376  Z" fill="#ff0000" fill-rule="evenodd" fill-opacity="1"/>
<polyline clip-path="url(#clip742)" style="stroke:#000000; stroke-linecap:round; stroke-linejoin:round; stroke-width:4; stroke-opacity:1; fill:none" points="846.237,835.376 846.949,849.996 848.373,864.435 850.505,878.667 853.341,892.667 856.878,906.41 861.108,919.872 866.024,933.029 871.617,945.859 877.878,958.337 884.795,970.443 892.357,982.154 900.549,993.451 909.358,1004.31 918.767,1014.72 928.761,1024.66 939.321,1034.1 950.429,1043.04 962.065,1051.45 974.209,1059.33 986.839,1066.66 999.932,1073.42 1013.47,1079.61 1027.42,1085.21 1041.76,1090.21 1056.47,1094.61 1071.52,1098.39 1086.89,1101.56 1102.54,1104.09 1118.45,1106 1134.6,1107.27 1150.94,1107.91 1170.23,1107.91 1192.54,1106.78 1215.03,1104.51 1237.63,1101.11 1260.26,1096.61 1282.86,1091 1305.35,1084.31 1327.67,1076.56 1349.74,1067.77 1371.5,1057.97 1392.87,1047.19 1413.78,1035.47 1434.18,1022.84 1454,1009.35 1473.17,995.026 1491.64,979.924 1509.34,964.089 1526.23,947.572 1542.24,930.424 1557.33,912.699 1571.45,894.453 1584.55,875.744 1596.6,856.631 1607.56,837.173 1617.38,817.433 1626.05,797.472 1633.53,777.352 1639.8,757.139 1644.84,736.895 1648.63,716.683 1651.17,696.569 1652.44,676.614 1652.44,659.36 1651.73,644.74 1650.3,630.301 1648.17,616.069 1645.33,602.069 1641.8,588.326 1637.57,574.864 1632.65,561.707 1627.06,548.878 1620.8,536.399 1613.88,524.294 1606.32,512.582 1598.13,501.286 1589.32,490.424 1579.91,480.016 1569.91,470.081 1559.35,460.636 1548.25,451.697 1536.61,443.281 1524.47,435.403 1511.84,428.075 1498.74,421.312 1485.21,415.125 1471.26,409.525 1456.91,404.522 1442.2,400.125 1427.15,396.342 1411.79,393.179 1396.13,390.641 1380.22,388.735 1364.08,387.461 1347.73,386.824 1328.44,386.824 1306.13,387.96 1283.64,390.228 1261.05,393.621 1238.41,398.129 1215.81,403.737 1193.32,410.427 1171,418.179 1148.93,426.967 1127.18,436.766 1105.81,447.542 1084.89,459.263 1064.49,471.892 1044.67,485.389 1025.5,499.71 1007.04,514.812 989.332,530.647 972.447,547.165 956.435,564.313 941.346,582.037 927.226,600.283 914.122,618.992 902.073,638.105 891.118,657.563 881.292,677.304 872.625,697.265 865.146,717.384 858.876,737.597 853.836,757.842 850.043,778.053 847.507,798.168 846.237,818.122 846.237,835.376 "/>
<path clip-path="url(#clip742)" d="M478.373 1338.64 L479.738 1349.31 L482.451 1359.92 L486.485 1370.36 L491.794 1380.5 L498.321 1390.25 L505.995 1399.48 L514.731 1408.11 L524.434 1416.03 L534.999 1423.16 L546.309 1429.43 L558.241 1434.76 L570.666 1439.09 L583.446 1442.39 L596.443 1444.6 L609.515 1445.72 L621.722 1445.72 L632.979 1444.86 L643.985 1443.15 L654.648 1440.6 L664.879 1437.24 L674.592 1433.09 L683.704 1428.19 L692.138 1422.58 L699.825 1416.3 L706.698 1409.41 L712.701 1401.97 L717.783 1394.04 L721.901 1385.69 L725.02 1376.98 L727.114 1368 L728.165 1358.81 L728.165 1348.84 L726.801 1338.16 L724.087 1327.55 L720.054 1317.12 L714.744 1306.97 L708.217 1297.23 L700.544 1288 L691.808 1279.37 L682.104 1271.45 L671.54 1264.31 L660.23 1258.05 L648.297 1252.72 L635.873 1248.38 L623.093 1245.09 L610.095 1242.88 L597.024 1241.76 L584.816 1241.76 L573.56 1242.62 L562.554 1244.33 L551.89 1246.88 L541.659 1250.24 L531.947 1254.39 L522.835 1259.29 L514.4 1264.9 L506.714 1271.18 L499.84 1278.06 L493.837 1285.5 L488.755 1293.43 L484.638 1301.79 L481.519 1310.49 L479.425 1319.48 L478.373 1328.67 L478.373 1338.64 L478.373 1338.64  Z" fill="#0000ff" fill-rule="evenodd" fill-opacity="1"/>
<polyline clip-path="url(#clip742)" style="stroke:#000000; stroke-linecap:round; stroke-linejoin:round; stroke-width:4; stroke-opacity:1; fill:none" points="478.373,1338.64 479.738,1349.31 482.451,1359.92 486.485,1370.36 491.794,1380.5 498.321,1390.25 505.995,1399.48 514.731,1408.11 524.434,1416.03 534.999,1423.16 546.309,1429.43 558.241,1434.76 570.666,1439.09 583.446,1442.39 596.443,1444.6 609.515,1445.72 621.722,1445.72 632.979,1444.86 643.985,1443.15 654.648,1440.6 664.879,1437.24 674.592,1433.09 683.704,1428.19 692.138,1422.58 699.825,1416.3 706.698,1409.41 712.701,1401.97 717.783,1394.04 721.901,1385.69 725.02,1376.98 727.114,1368 728.165,1358.81 728.165,1348.84 726.801,1338.16 724.087,1327.55 720.054,1317.12 714.744,1306.97 708.217,1297.23 700.544,1288 691.808,1279.37 682.104,1271.45 671.54,1264.31 660.23,1258.05 648.297,1252.72 635.873,1248.38 623.093,1245.09 610.095,1242.88 597.024,1241.76 584.816,1241.76 573.56,1242.62 562.554,1244.33 551.89,1246.88 541.659,1250.24 531.947,1254.39 522.835,1259.29 514.4,1264.9 506.714,1271.18 499.84,1278.06 493.837,1285.5 488.755,1293.43 484.638,1301.79 481.519,1310.49 479.425,1319.48 478.373,1328.67 478.373,1338.64 "/>
</svg>
