<?xml version="1.0" encoding="utf-8"?>
<svg xmlns="http://www.w3.org/2000/svg" xmlns:xlink="http://www.w3.org/1999/xlink" width="600" height="400" viewBox="0 0 2400 1600">
<defs>
  <clipPath id="clip160">
    <rect x="0" y="0" width="2400" height="1600"/>
  </clipPath>
</defs>
<path clip-path="url(#clip160)" d="M0 1600 L2400 1600 L2400 0 L0 0  Z" fill="#ffffff" fill-rule="evenodd" fill-opacity="1"/>
<defs>
  <clipPath id="clip161">
    <rect x="141" y="47" width="2212" height="1440"/>
  </clipPath>
</defs>
<path clip-path="url(#clip160)" d="M141.853 1486.45 L2352.76 1486.45 L2352.76 47.2441 L141.853 47.2441  Z" fill="#ffffff" fill-rule="evenodd" fill-opacity="1"/>
<polyline clip-path="url(#clip161)" style="stroke:#000000; stroke-linecap:round; stroke-linejoin:round; stroke-width:2; stroke-opacity:0.1; fill:none" points="568.435,1486.45 568.435,47.2441 "/>
<polyline clip-path="url(#clip161)" style="stroke:#000000; stroke-linecap:round; stroke-linejoin:round; stroke-width:2; stroke-opacity:0.1; fill:none" points="1021.01,1486.45 1021.01,47.2441 "/>
<polyline clip-path="url(#clip161)" style="stroke:#000000; stroke-linecap:round; stroke-linejoin:round; stroke-width:2; stroke-opacity:0.1; fill:none" points="1473.59,1486.45 1473.59,47.2441 "/>
<polyline clip-path="url(#clip161)" style="stroke:#000000; stroke-linecap:round; stroke-linejoin:round; stroke-width:2; stroke-opacity:0.1; fill:none" points="1926.17,1486.45 1926.17,47.2441 "/>
<polyline clip-path="url(#clip161)" style="stroke:#000000; stroke-linecap:round; stroke-linejoin:round; stroke-width:2; stroke-opacity:0.1; fill:none" points="141.853,1445.72 2352.76,1445.72 "/>
<polyline clip-path="url(#clip161)" style="stroke:#000000; stroke-linecap:round; stroke-linejoin:round; stroke-width:2; stroke-opacity:0.1; fill:none" points="141.853,1219.43 2352.76,1219.43 "/>
<polyline clip-path="url(#clip161)" style="stroke:#000000; stroke-linecap:round; stroke-linejoin:round; stroke-width:2; stroke-opacity:0.1; fill:none" points="141.853,993.136 2352.76,993.136 "/>
<polyline clip-path="url(#clip161)" style="stroke:#000000; stroke-linecap:round; stroke-linejoin:round; stroke-width:2; stroke-opacity:0.1; fill:none" points="141.853,766.846 2352.76,766.846 "/>
<polyline clip-path="url(#clip161)" style="stroke:#000000; stroke-linecap:round; stroke-linejoin:round; stroke-width:2; stroke-opacity:0.1; fill:none" points="141.853,540.556 2352.76,540.556 "/>
<polyline clip-path="url(#clip161)" style="stroke:#000000; stroke-linecap:round; stroke-linejoin:round; stroke-width:2; stroke-opacity:0.1; fill:none" points="141.853,314.266 2352.76,314.266 "/>
<polyline clip-path="url(#clip161)" style="stroke:#000000; stroke-linecap:round; stroke-linejoin:round; stroke-width:2; stroke-opacity:0.1; fill:none" points="141.853,87.9763 2352.76,87.9763 "/>
<polyline clip-path="url(#clip160)" style="stroke:#000000; stroke-linecap:round; stroke-linejoin:round; stroke-width:4; stroke-opacity:1; fill:none" points="141.853,1486.45 2352.76,1486.45 "/>
<polyline clip-path="url(#clip160)" style="stroke:#000000; stroke-linecap:round; stroke-linejoin:round; stroke-width:4; stroke-opacity:1; fill:none" points="568.435,1486.45 568.435,1467.55 "/>
<polyline clip-path="url(#clip160)" style="stroke:#000000; stroke-linecap:round; stroke-linejoin:round; stroke-width:4; stroke-opacity:1; fill:none" points="1021.01,1486.45 1021.01,1467.55 "/>
<polyline clip-path="url(#clip160)" style="stroke:#000000; stroke-linecap:round; stroke-linejoin:round; stroke-width:4; stroke-opacity:1; fill:none" points="1473.59,1486.45 1473.59,1467.55 "/>
<polyline clip-path="url(#clip160)" style="stroke:#000000; stroke-linecap:round; stroke-linejoin:round; stroke-width:4; stroke-opacity:1; fill:none" points="1926.17,1486.45 1926.17,1467.55 "/>
<path clip-path="url(#clip160)" d="M568.435 1517.37 Q564.824 1517.37 562.995 1520.93 Q561.189 1524.47 561.189 1531.6 Q561.189 1538.71 562.995 1542.27 Q564.824 1545.82 568.435 1545.82 Q572.069 1545.82 573.875 1542.27 Q575.703 1538.71 575.703 1531.6 Q575.703 1524.47 573.875 1520.93 Q572.069 1517.37 568.435 1517.37 M568.435 1513.66 Q574.245 1513.66 577.3 1518.27 Q580.379 1522.85 580.379 1531.6 Q580.379 1540.33 577.3 1544.94 Q574.245 1549.52 568.435 1549.52 Q562.625 1549.52 559.546 1544.94 Q556.49 1540.33 556.49 1531.6 Q556.49 1522.85 559.546 1518.27 Q562.625 1513.66 568.435 1513.66 Z" fill="#000000" fill-rule="nonzero" fill-opacity="1" /><path clip-path="url(#clip160)" d="M999.788 1544.91 L1016.11 1544.91 L1016.11 1548.85 L994.163 1548.85 L994.163 1544.91 Q996.825 1542.16 1001.41 1537.53 Q1006.01 1532.88 1007.2 1531.53 Q1009.44 1529.01 1010.32 1527.27 Q1011.22 1525.51 1011.22 1523.82 Q1011.22 1521.07 1009.28 1519.33 Q1007.36 1517.6 1004.26 1517.6 Q1002.06 1517.6 999.603 1518.36 Q997.172 1519.13 994.394 1520.68 L994.394 1515.95 Q997.218 1514.82 999.672 1514.24 Q1002.13 1513.66 1004.16 1513.66 Q1009.53 1513.66 1012.73 1516.35 Q1015.92 1519.03 1015.92 1523.52 Q1015.92 1525.65 1015.11 1527.57 Q1014.32 1529.47 1012.22 1532.07 Q1011.64 1532.74 1008.54 1535.95 Q1005.44 1539.15 999.788 1544.91 Z" fill="#000000" fill-rule="nonzero" fill-opacity="1" /><path clip-path="url(#clip160)" d="M1035.92 1517.37 Q1032.31 1517.37 1030.48 1520.93 Q1028.68 1524.47 1028.68 1531.6 Q1028.68 1538.71 1030.48 1542.27 Q1032.31 1545.82 1035.92 1545.82 Q1039.56 1545.82 1041.36 1542.27 Q1043.19 1538.71 1043.19 1531.6 Q1043.19 1524.47 1041.36 1520.93 Q1039.56 1517.37 1035.92 1517.37 M1035.92 1513.66 Q1041.73 1513.66 1044.79 1518.27 Q1047.87 1522.85 1047.87 1531.6 Q1047.87 1540.33 1044.79 1544.94 Q1041.73 1549.52 1035.92 1549.52 Q1030.11 1549.52 1027.03 1544.94 Q1023.98 1540.33 1023.98 1531.6 Q1023.98 1522.85 1027.03 1518.27 Q1030.11 1513.66 1035.92 1513.66 Z" fill="#000000" fill-rule="nonzero" fill-opacity="1" /><path clip-path="url(#clip160)" d="M1461.77 1518.36 L1449.96 1536.81 L1461.77 1536.81 L1461.77 1518.36 M1460.54 1514.29 L1466.42 1514.29 L1466.42 1536.81 L1471.35 1536.81 L1471.35 1540.7 L1466.42 1540.7 L1466.42 1548.85 L1461.77 1548.85 L1461.77 1540.7 L1446.16 1540.7 L1446.16 1536.19 L1460.54 1514.29 Z" fill="#000000" fill-rule="nonzero" fill-opacity="1" /><path clip-path="url(#clip160)" d="M1489.08 1517.37 Q1485.47 1517.37 1483.64 1520.93 Q1481.84 1524.47 1481.84 1531.6 Q1481.84 1538.71 1483.64 1542.27 Q1485.47 1545.82 1489.08 1545.82 Q1492.71 1545.82 1494.52 1542.27 Q1496.35 1538.71 1496.35 1531.6 Q1496.35 1524.47 1494.52 1520.93 Q1492.71 1517.37 1489.08 1517.37 M1489.08 1513.66 Q1494.89 1513.66 1497.95 1518.27 Q1501.02 1522.85 1501.02 1531.6 Q1501.02 1540.33 1497.95 1544.94 Q1494.89 1549.52 1489.08 1549.52 Q1483.27 1549.52 1480.19 1544.94 Q1477.14 1540.33 1477.14 1531.6 Q1477.14 1522.85 1480.19 1518.27 Q1483.27 1513.66 1489.08 1513.66 Z" fill="#000000" fill-rule="nonzero" fill-opacity="1" /><path clip-path="url(#clip160)" d="M1911.58 1529.7 Q1908.43 1529.7 1906.58 1531.86 Q1904.75 1534.01 1904.75 1537.76 Q1904.75 1541.49 1906.58 1543.66 Q1908.43 1545.82 1911.58 1545.82 Q1914.73 1545.82 1916.56 1543.66 Q1918.41 1541.49 1918.41 1537.76 Q1918.41 1534.01 1916.56 1531.86 Q1914.73 1529.7 1911.58 1529.7 M1920.86 1515.05 L1920.86 1519.31 Q1919.1 1518.48 1917.3 1518.04 Q1915.51 1517.6 1913.76 1517.6 Q1909.13 1517.6 1906.67 1520.72 Q1904.24 1523.85 1903.89 1530.17 Q1905.26 1528.15 1907.32 1527.09 Q1909.38 1526 1911.86 1526 Q1917.07 1526 1920.07 1529.17 Q1923.11 1532.32 1923.11 1537.76 Q1923.11 1543.08 1919.96 1546.3 Q1916.81 1549.52 1911.58 1549.52 Q1905.58 1549.52 1902.41 1544.94 Q1899.24 1540.33 1899.24 1531.6 Q1899.24 1523.41 1903.13 1518.55 Q1907.02 1513.66 1913.57 1513.66 Q1915.33 1513.66 1917.11 1514.01 Q1918.92 1514.36 1920.86 1515.05 Z" fill="#000000" fill-rule="nonzero" fill-opacity="1" /><path clip-path="url(#clip160)" d="M1941.16 1517.37 Q1937.55 1517.37 1935.72 1520.93 Q1933.92 1524.47 1933.92 1531.6 Q1933.92 1538.71 1935.72 1542.27 Q1937.55 1545.82 1941.16 1545.82 Q1944.8 1545.82 1946.6 1542.27 Q1948.43 1538.71 1948.43 1531.6 Q1948.43 1524.47 1946.6 1520.93 Q1944.8 1517.37 1941.16 1517.37 M1941.16 1513.66 Q1946.97 1513.66 1950.03 1518.27 Q1953.11 1522.85 1953.11 1531.6 Q1953.11 1540.33 1950.03 1544.94 Q1946.97 1549.52 1941.16 1549.52 Q1935.35 1549.52 1932.27 1544.94 Q1929.22 1540.33 1929.22 1531.6 Q1929.22 1522.85 1932.27 1518.27 Q1935.35 1513.66 1941.16 1513.66 Z" fill="#000000" fill-rule="nonzero" fill-opacity="1" /><polyline clip-path="url(#clip160)" style="stroke:#000000; stroke-linecap:round; stroke-linejoin:round; stroke-width:4; stroke-opacity:1; fill:none" points="141.853,1486.45 141.853,47.2441 "/>
<polyline clip-path="url(#clip160)" style="stroke:#000000; stroke-linecap:round; stroke-linejoin:round; stroke-width:4; stroke-opacity:1; fill:none" points="141.853,1445.72 160.751,1445.72 "/>
<polyline clip-path="url(#clip160)" style="stroke:#000000; stroke-linecap:round; stroke-linejoin:round; stroke-width:4; stroke-opacity:1; fill:none" points="141.853,1219.43 160.751,1219.43 "/>
<polyline clip-path="url(#clip160)" style="stroke:#000000; stroke-linecap:round; stroke-linejoin:round; stroke-width:4; stroke-opacity:1; fill:none" points="141.853,993.136 160.751,993.136 "/>
<polyline clip-path="url(#clip160)" style="stroke:#000000; stroke-linecap:round; stroke-linejoin:round; stroke-width:4; stroke-opacity:1; fill:none" points="141.853,766.846 160.751,766.846 "/>
<polyline clip-path="url(#clip160)" style="stroke:#000000; stroke-linecap:round; stroke-linejoin:round; stroke-width:4; stroke-opacity:1; fill:none" points="141.853,540.556 160.751,540.556 "/>
<polyline clip-path="url(#clip160)" style="stroke:#000000; stroke-linecap:round; stroke-linejoin:round; stroke-width:4; stroke-opacity:1; fill:none" points="141.853,314.266 160.751,314.266 "/>
<polyline clip-path="url(#clip160)" style="stroke:#000000; stroke-linecap:round; stroke-linejoin:round; stroke-width:4; stroke-opacity:1; fill:none" points="141.853,87.9763 160.751,87.9763 "/>
<path clip-path="url(#clip160)" d="M93.9086 1431.51 Q90.2975 1431.51 88.4688 1435.08 Q86.6632 1438.62 86.6632 1445.75 Q86.6632 1452.86 88.4688 1456.42 Q90.2975 1459.96 93.9086 1459.96 Q97.5428 1459.96 99.3483 1456.42 Q101.177 1452.86 101.177 1445.75 Q101.177 1438.62 99.3483 1435.08 Q97.5428 1431.51 93.9086 1431.51 M93.9086 1427.81 Q99.7187 1427.81 102.774 1432.42 Q105.853 1437 105.853 1445.75 Q105.853 1454.48 102.774 1459.08 Q99.7187 1463.67 93.9086 1463.67 Q88.0984 1463.67 85.0197 1459.08 Q81.9642 1454.48 81.9642 1445.75 Q81.9642 1437 85.0197 1432.42 Q88.0984 1427.81 93.9086 1427.81 Z" fill="#000000" fill-rule="nonzero" fill-opacity="1" /><path clip-path="url(#clip160)" d="M54.5569 1232.77 L62.1958 1232.77 L62.1958 1206.41 L53.8856 1208.07 L53.8856 1203.81 L62.1495 1202.15 L66.8254 1202.15 L66.8254 1232.77 L74.4642 1232.77 L74.4642 1236.71 L54.5569 1236.71 L54.5569 1232.77 Z" fill="#000000" fill-rule="nonzero" fill-opacity="1" /><path clip-path="url(#clip160)" d="M93.9086 1205.22 Q90.2975 1205.22 88.4688 1208.79 Q86.6632 1212.33 86.6632 1219.46 Q86.6632 1226.57 88.4688 1230.13 Q90.2975 1233.67 93.9086 1233.67 Q97.5428 1233.67 99.3483 1230.13 Q101.177 1226.57 101.177 1219.46 Q101.177 1212.33 99.3483 1208.79 Q97.5428 1205.22 93.9086 1205.22 M93.9086 1201.52 Q99.7187 1201.52 102.774 1206.13 Q105.853 1210.71 105.853 1219.46 Q105.853 1228.19 102.774 1232.79 Q99.7187 1237.38 93.9086 1237.38 Q88.0984 1237.38 85.0197 1232.79 Q81.9642 1228.19 81.9642 1219.46 Q81.9642 1210.71 85.0197 1206.13 Q88.0984 1201.52 93.9086 1201.52 Z" fill="#000000" fill-rule="nonzero" fill-opacity="1" /><path clip-path="url(#clip160)" d="M57.7745 1006.48 L74.0939 1006.48 L74.0939 1010.42 L52.1495 1010.42 L52.1495 1006.48 Q54.8115 1003.73 59.3949 999.097 Q64.0013 994.444 65.1819 993.101 Q67.4272 990.578 68.3068 988.842 Q69.2096 987.083 69.2096 985.393 Q69.2096 982.638 67.2652 980.902 Q65.3439 979.166 62.2421 979.166 Q60.043 979.166 57.5893 979.93 Q55.1588 980.694 52.381 982.245 L52.381 977.523 Q55.2051 976.388 57.6588 975.81 Q60.1124 975.231 62.1495 975.231 Q67.5198 975.231 70.7142 977.916 Q73.9087 980.601 73.9087 985.092 Q73.9087 987.222 73.0985 989.143 Q72.3115 991.041 70.205 993.634 Q69.6263 994.305 66.5245 997.522 Q63.4226 1000.72 57.7745 1006.48 Z" fill="#000000" fill-rule="nonzero" fill-opacity="1" /><path clip-path="url(#clip160)" d="M93.9086 978.935 Q90.2975 978.935 88.4688 982.499 Q86.6632 986.041 86.6632 993.171 Q86.6632 1000.28 88.4688 1003.84 Q90.2975 1007.38 93.9086 1007.38 Q97.5428 1007.38 99.3483 1003.84 Q101.177 1000.28 101.177 993.171 Q101.177 986.041 99.3483 982.499 Q97.5428 978.935 93.9086 978.935 M93.9086 975.231 Q99.7187 975.231 102.774 979.837 Q105.853 984.421 105.853 993.171 Q105.853 1001.9 102.774 1006.5 Q99.7187 1011.09 93.9086 1011.09 Q88.0984 1011.09 85.0197 1006.5 Q81.9642 1001.9 81.9642 993.171 Q81.9642 984.421 85.0197 979.837 Q88.0984 975.231 93.9086 975.231 Z" fill="#000000" fill-rule="nonzero" fill-opacity="1" /><path clip-path="url(#clip160)" d="M67.9133 765.492 Q71.2698 766.209 73.1448 768.478 Q75.0429 770.746 75.0429 774.08 Q75.0429 779.195 71.5244 781.996 Q68.0059 784.797 61.5245 784.797 Q59.3486 784.797 57.0338 784.357 Q54.7421 783.941 52.2884 783.084 L52.2884 778.57 Q54.2328 779.705 56.5477 780.283 Q58.8625 780.862 61.3856 780.862 Q65.7837 780.862 68.0754 779.126 Q70.3902 777.39 70.3902 774.08 Q70.3902 771.024 68.2374 769.311 Q66.1078 767.575 62.2884 767.575 L58.2606 767.575 L58.2606 763.733 L62.4735 763.733 Q65.9226 763.733 67.7513 762.367 Q69.58 760.978 69.58 758.385 Q69.58 755.723 67.6819 754.311 Q65.8069 752.876 62.2884 752.876 Q60.3671 752.876 58.168 753.293 Q55.969 753.709 53.3301 754.589 L53.3301 750.422 Q55.9921 749.682 58.3069 749.311 Q60.6449 748.941 62.705 748.941 Q68.0291 748.941 71.1309 751.372 Q74.2327 753.779 74.2327 757.899 Q74.2327 760.77 72.5892 762.76 Q70.9457 764.728 67.9133 765.492 Z" fill="#000000" fill-rule="nonzero" fill-opacity="1" /><path clip-path="url(#clip160)" d="M93.9086 752.645 Q90.2975 752.645 88.4688 756.209 Q86.6632 759.751 86.6632 766.881 Q86.6632 773.987 88.4688 777.552 Q90.2975 781.094 93.9086 781.094 Q97.5428 781.094 99.3483 777.552 Q101.177 773.987 101.177 766.881 Q101.177 759.751 99.3483 756.209 Q97.5428 752.645 93.9086 752.645 M93.9086 748.941 Q99.7187 748.941 102.774 753.547 Q105.853 758.131 105.853 766.881 Q105.853 775.608 102.774 780.214 Q99.7187 784.797 93.9086 784.797 Q88.0984 784.797 85.0197 780.214 Q81.9642 775.608 81.9642 766.881 Q81.9642 758.131 85.0197 753.547 Q88.0984 748.941 93.9086 748.941 Z" fill="#000000" fill-rule="nonzero" fill-opacity="1" /><path clip-path="url(#clip160)" d="M66.5939 527.35 L54.7884 545.799 L66.5939 545.799 L66.5939 527.35 M65.367 523.276 L71.2466 523.276 L71.2466 545.799 L76.1772 545.799 L76.1772 549.688 L71.2466 549.688 L71.2466 557.836 L66.5939 557.836 L66.5939 549.688 L50.9921 549.688 L50.9921 545.174 L65.367 523.276 Z" fill="#000000" fill-rule="nonzero" fill-opacity="1" /><path clip-path="url(#clip160)" d="M93.9086 526.355 Q90.2975 526.355 88.4688 529.92 Q86.6632 533.461 86.6632 540.591 Q86.6632 547.697 88.4688 551.262 Q90.2975 554.804 93.9086 554.804 Q97.5428 554.804 99.3483 551.262 Q101.177 547.697 101.177 540.591 Q101.177 533.461 99.3483 529.92 Q97.5428 526.355 93.9086 526.355 M93.9086 522.651 Q99.7187 522.651 102.774 527.258 Q105.853 531.841 105.853 540.591 Q105.853 549.318 102.774 553.924 Q99.7187 558.507 93.9086 558.507 Q88.0984 558.507 85.0197 553.924 Q81.9642 549.318 81.9642 540.591 Q81.9642 531.841 85.0197 527.258 Q88.0984 522.651 93.9086 522.651 Z" fill="#000000" fill-rule="nonzero" fill-opacity="1" /><path clip-path="url(#clip160)" d="M53.793 296.986 L72.1494 296.986 L72.1494 300.921 L58.0754 300.921 L58.0754 309.394 Q59.0939 309.046 60.1124 308.884 Q61.131 308.699 62.1495 308.699 Q67.9365 308.699 71.3161 311.87 Q74.6957 315.042 74.6957 320.458 Q74.6957 326.037 71.2235 329.139 Q67.7513 332.217 61.4319 332.217 Q59.256 332.217 56.9875 331.847 Q54.7421 331.477 52.3347 330.736 L52.3347 326.037 Q54.418 327.171 56.6402 327.727 Q58.8625 328.282 61.3393 328.282 Q65.3439 328.282 67.6819 326.176 Q70.0198 324.069 70.0198 320.458 Q70.0198 316.847 67.6819 314.741 Q65.3439 312.634 61.3393 312.634 Q59.4643 312.634 57.5893 313.051 Q55.7375 313.468 53.793 314.347 L53.793 296.986 Z" fill="#000000" fill-rule="nonzero" fill-opacity="1" /><path clip-path="url(#clip160)" d="M93.9086 300.065 Q90.2975 300.065 88.4688 303.63 Q86.6632 307.171 86.6632 314.301 Q86.6632 321.407 88.4688 324.972 Q90.2975 328.514 93.9086 328.514 Q97.5428 328.514 99.3483 324.972 Q101.177 321.407 101.177 314.301 Q101.177 307.171 99.3483 303.63 Q97.5428 300.065 93.9086 300.065 M93.9086 296.361 Q99.7187 296.361 102.774 300.968 Q105.853 305.551 105.853 314.301 Q105.853 323.028 102.774 327.634 Q99.7187 332.217 93.9086 332.217 Q88.0984 332.217 85.0197 327.634 Q81.9642 323.028 81.9642 314.301 Q81.9642 305.551 85.0197 300.968 Q88.0984 296.361 93.9086 296.361 Z" fill="#000000" fill-rule="nonzero" fill-opacity="1" /><path clip-path="url(#clip160)" d="M64.3254 86.1129 Q61.1773 86.1129 59.3254 88.2656 Q57.4967 90.4184 57.4967 94.1684 Q57.4967 97.8952 59.3254 100.071 Q61.1773 102.224 64.3254 102.224 Q67.4735 102.224 69.3022 100.071 Q71.1541 97.8952 71.1541 94.1684 Q71.1541 90.4184 69.3022 88.2656 Q67.4735 86.1129 64.3254 86.1129 M73.6077 71.4602 L73.6077 75.7194 Q71.8485 74.8861 70.0429 74.4463 Q68.2606 74.0064 66.5013 74.0064 Q61.8717 74.0064 59.418 77.1314 Q56.9875 80.2564 56.6402 86.5758 Q58.006 84.5619 60.0662 83.4971 Q62.1263 82.4092 64.6032 82.4092 Q69.8115 82.4092 72.8207 85.5805 Q75.8531 88.7286 75.8531 94.1684 Q75.8531 99.4924 72.705 102.71 Q69.5568 105.928 64.3254 105.928 Q58.33 105.928 55.1588 101.344 Q51.9875 96.7378 51.9875 88.011 Q51.9875 79.8166 55.8764 74.9555 Q59.7652 70.0713 66.3161 70.0713 Q68.0754 70.0713 69.8578 70.4185 Q71.6633 70.7657 73.6077 71.4602 Z" fill="#000000" fill-rule="nonzero" fill-opacity="1" /><path clip-path="url(#clip160)" d="M93.9086 73.775 Q90.2975 73.775 88.4688 77.3398 Q86.6632 80.8814 86.6632 88.011 Q86.6632 95.1174 88.4688 98.6822 Q90.2975 102.224 93.9086 102.224 Q97.5428 102.224 99.3483 98.6822 Q101.177 95.1174 101.177 88.011 Q101.177 80.8814 99.3483 77.3398 Q97.5428 73.775 93.9086 73.775 M93.9086 70.0713 Q99.7187 70.0713 102.774 74.6777 Q105.853 79.261 105.853 88.011 Q105.853 96.7378 102.774 101.344 Q99.7187 105.928 93.9086 105.928 Q88.0984 105.928 85.0197 101.344 Q81.9642 96.7378 81.9642 88.011 Q81.9642 79.261 85.0197 74.6777 Q88.0984 70.0713 93.9086 70.0713 Z" fill="#000000" fill-rule="nonzero" fill-opacity="1" /><path clip-path="url(#clip161)" d="M568.435 1445.72 L1926.17 1445.72 L1926.17 87.9763 L568.435 87.9763 L568.435 1445.72 L568.435 1445.72  Z" fill="#808080" fill-rule="evenodd" fill-opacity="0.5"/>
<polyline clip-path="url(#clip161)" style="stroke:#000000; stroke-linecap:round; stroke-linejoin:round; stroke-width:4; stroke-opacity:0.5; fill:none" points="568.435,1445.72 1926.17,1445.72 1926.17,87.9763 568.435,87.9763 568.435,1445.72 "/>
<path clip-path="url(#clip161)" d="M1066.27 970.507 L1134.16 970.507 L1134.16 721.588 L1066.27 721.588 L1066.27 970.507 L1066.27 970.507  Z" fill="#808080" fill-rule="evenodd" fill-opacity="0.5"/>
<polyline clip-path="url(#clip161)" style="stroke:#000000; stroke-linecap:round; stroke-linejoin:round; stroke-width:4; stroke-opacity:0.5; fill:none" points="1066.27,970.507 1134.16,970.507 1134.16,721.588 1066.27,721.588 1066.27,970.507 "/>
<path clip-path="url(#clip161)" d="M1473.59 314.266 L1699.88 314.266 L1699.88 87.9763 L1473.59 87.9763 L1473.59 314.266 L1473.59 314.266  Z" fill="#0000ff" fill-rule="evenodd" fill-opacity="0.5"/>
<polyline clip-path="url(#clip161)" style="stroke:#000000; stroke-linecap:round; stroke-linejoin:round; stroke-width:4; stroke-opacity:0.5; fill:none" points="1473.59,314.266 1699.88,314.266 1699.88,87.9763 1473.59,87.9763 1473.59,314.266 "/>
<path clip-path="url(#clip161)" d="M794.725 993.136 L1021.01 993.136 L1021.01 766.846 L794.725 766.846 L794.725 993.136 L794.725 993.136  Z" fill="#0000ff" fill-rule="evenodd" fill-opacity="0.5"/>
<polyline clip-path="url(#clip161)" style="stroke:#000000; stroke-linecap:round; stroke-linejoin:round; stroke-width:4; stroke-opacity:0.5; fill:none" points="794.725,993.136 1021.01,993.136 1021.01,766.846 794.725,766.846 794.725,993.136 "/>
<path clip-path="url(#clip161)" d="M1247.3 1219.43 L1473.59 1219.43 L1473.59 993.136 L1247.3 993.136 L1247.3 1219.43 L1247.3 1219.43  Z" fill="#0000ff" fill-rule="evenodd" fill-opacity="0.5"/>
<polyline clip-path="url(#clip161)" style="stroke:#000000; stroke-linecap:round; stroke-linejoin:round; stroke-width:4; stroke-opacity:0.5; fill:none" points="1247.3,1219.43 1473.59,1219.43 1473.59,993.136 1247.3,993.136 1247.3,1219.43 "/>
<path clip-path="url(#clip161)" d="M568.435 993.136 L794.725 993.136 L794.725 766.846 L568.435 766.846 L568.435 993.136 L568.435 993.136  Z" fill="#0000ff" fill-rule="evenodd" fill-opacity="0.5"/>
<polyline clip-path="url(#clip161)" style="stroke:#000000; stroke-linecap:round; stroke-linejoin:round; stroke-width:4; stroke-opacity:0.5; fill:none" points="568.435,993.136 794.725,993.136 794.725,766.846 568.435,766.846 568.435,993.136 "/>
<path clip-path="url(#clip161)" d="M1021.01 314.266 L1247.3 314.266 L1247.3 87.9763 L1021.01 87.9763 L1021.01 314.266 L1021.01 314.266  Z" fill="#0000ff" fill-rule="evenodd" fill-opacity="0.5"/>
<polyline clip-path="url(#clip161)" style="stroke:#000000; stroke-linecap:round; stroke-linejoin:round; stroke-width:4; stroke-opacity:0.5; fill:none" points="1021.01,314.266 1247.3,314.266 1247.3,87.9763 1021.01,87.9763 1021.01,314.266 "/>
<path clip-path="url(#clip161)" d="M794.725 766.846 L1021.01 766.846 L1021.01 540.556 L794.725 540.556 L794.725 766.846 L794.725 766.846  Z" fill="#0000ff" fill-rule="evenodd" fill-opacity="0.5"/>
<polyline clip-path="url(#clip161)" style="stroke:#000000; stroke-linecap:round; stroke-linejoin:round; stroke-width:4; stroke-opacity:0.5; fill:none" points="794.725,766.846 1021.01,766.846 1021.01,540.556 794.725,540.556 794.725,766.846 "/>
<path clip-path="url(#clip161)" d="M568.435 766.846 L794.725 766.846 L794.725 540.556 L568.435 540.556 L568.435 766.846 L568.435 766.846  Z" fill="#0000ff" fill-rule="evenodd" fill-opacity="0.5"/>
<polyline clip-path="url(#clip161)" style="stroke:#000000; stroke-linecap:round; stroke-linejoin:round; stroke-width:4; stroke-opacity:0.5; fill:none" points="568.435,766.846 794.725,766.846 794.725,540.556 568.435,540.556 568.435,766.846 "/>
<path clip-path="url(#clip161)" d="M794.725 540.556 L1021.01 540.556 L1021.01 314.266 L794.725 314.266 L794.725 540.556 L794.725 540.556  Z" fill="#0000ff" fill-rule="evenodd" fill-opacity="0.5"/>
<polyline clip-path="url(#clip161)" style="stroke:#000000; stroke-linecap:round; stroke-linejoin:round; stroke-width:4; stroke-opacity:0.5; fill:none" points="794.725,540.556 1021.01,540.556 1021.01,314.266 794.725,314.266 794.725,540.556 "/>
<path clip-path="url(#clip161)" d="M568.435 540.556 L794.725 540.556 L794.725 314.266 L568.435 314.266 L568.435 540.556 L568.435 540.556  Z" fill="#0000ff" fill-rule="evenodd" fill-opacity="0.5"/>
<polyline clip-path="url(#clip161)" style="stroke:#000000; stroke-linecap:round; stroke-linejoin:round; stroke-width:4; stroke-opacity:0.5; fill:none" points="568.435,540.556 794.725,540.556 794.725,314.266 568.435,314.266 568.435,540.556 "/>
<path clip-path="url(#clip161)" d="M1699.88 314.266 L1926.17 314.266 L1926.17 87.9763 L1699.88 87.9763 L1699.88 314.266 L1699.88 314.266  Z" fill="#0000ff" fill-rule="evenodd" fill-opacity="0.5"/>
<polyline clip-path="url(#clip161)" style="stroke:#000000; stroke-linecap:round; stroke-linejoin:round; stroke-width:4; stroke-opacity:0.5; fill:none" points="1699.88,314.266 1926.17,314.266 1926.17,87.9763 1699.88,87.9763 1699.88,314.266 "/>
<path clip-path="url(#clip161)" d="M1473.59 1445.72 L1699.88 1445.72 L1699.88 1219.43 L1473.59 1219.43 L1473.59 1445.72 L1473.59 1445.72  Z" fill="#0000ff" fill-rule="evenodd" fill-opacity="0.5"/>
<polyline clip-path="url(#clip161)" style="stroke:#000000; stroke-linecap:round; stroke-linejoin:round; stroke-width:4; stroke-opacity:0.5; fill:none" points="1473.59,1445.72 1699.88,1445.72 1699.88,1219.43 1473.59,1219.43 1473.59,1445.72 "/>
<path clip-path="url(#clip161)" d="M1247.3 993.136 L1473.59 993.136 L1473.59 766.846 L1247.3 766.846 L1247.3 993.136 L1247.3 993.136  Z" fill="#0000ff" fill-rule="evenodd" fill-opacity="0.5"/>
<polyline clip-path="url(#clip161)" style="stroke:#000000; stroke-linecap:round; stroke-linejoin:round; stroke-width:4; stroke-opacity:0.5; fill:none" points="1247.3,993.136 1473.59,993.136 1473.59,766.846 1247.3,766.846 1247.3,993.136 "/>
<path clip-path="url(#clip161)" d="M1021.01 1445.72 L1247.3 1445.72 L1247.3 1219.43 L1021.01 1219.43 L1021.01 1445.72 L1021.01 1445.72  Z" fill="#0000ff" fill-rule="evenodd" fill-opacity="0.5"/>
<polyline clip-path="url(#clip161)" style="stroke:#000000; stroke-linecap:round; stroke-linejoin:round; stroke-width:4; stroke-opacity:0.5; fill:none" points="1021.01,1445.72 1247.3,1445.72 1247.3,1219.43 1021.01,1219.43 1021.01,1445.72 "/>
<path clip-path="url(#clip161)" d="M1247.3 766.846 L1473.59 766.846 L1473.59 540.556 L1247.3 540.556 L1247.3 766.846 L1247.3 766.846  Z" fill="#0000ff" fill-rule="evenodd" fill-opacity="0.5"/>
<polyline clip-path="url(#clip161)" style="stroke:#000000; stroke-linecap:round; stroke-linejoin:round; stroke-width:4; stroke-opacity:0.5; fill:none" points="1247.3,766.846 1473.59,766.846 1473.59,540.556 1247.3,540.556 1247.3,766.846 "/>
<path clip-path="url(#clip161)" d="M1473.59 1219.43 L1699.88 1219.43 L1699.88 993.136 L1473.59 993.136 L1473.59 1219.43 L1473.59 1219.43  Z" fill="#0000ff" fill-rule="evenodd" fill-opacity="0.5"/>
<polyline clip-path="url(#clip161)" style="stroke:#000000; stroke-linecap:round; stroke-linejoin:round; stroke-width:4; stroke-opacity:0.5; fill:none" points="1473.59,1219.43 1699.88,1219.43 1699.88,993.136 1473.59,993.136 1473.59,1219.43 "/>
<path clip-path="url(#clip161)" d="M1021.01 1219.43 L1247.3 1219.43 L1247.3 993.136 L1021.01 993.136 L1021.01 1219.43 L1021.01 1219.43  Z" fill="#0000ff" fill-rule="evenodd" fill-opacity="0.5"/>
<polyline clip-path="url(#clip161)" style="stroke:#000000; stroke-linecap:round; stroke-linejoin:round; stroke-width:4; stroke-opacity:0.5; fill:none" points="1021.01,1219.43 1247.3,1219.43 1247.3,993.136 1021.01,993.136 1021.01,1219.43 "/>
<path clip-path="url(#clip161)" d="M1247.3 540.556 L1473.59 540.556 L1473.59 314.266 L1247.3 314.266 L1247.3 540.556 L1247.3 540.556  Z" fill="#0000ff" fill-rule="evenodd" fill-opacity="0.5"/>
<polyline clip-path="url(#clip161)" style="stroke:#000000; stroke-linecap:round; stroke-linejoin:round; stroke-width:4; stroke-opacity:0.5; fill:none" points="1247.3,540.556 1473.59,540.556 1473.59,314.266 1247.3,314.266 1247.3,540.556 "/>
<path clip-path="url(#clip161)" d="M794.725 314.266 L1021.01 314.266 L1021.01 87.9763 L794.725 87.9763 L794.725 314.266 L794.725 314.266  Z" fill="#0000ff" fill-rule="evenodd" fill-opacity="0.5"/>
<polyline clip-path="url(#clip161)" style="stroke:#000000; stroke-linecap:round; stroke-linejoin:round; stroke-width:4; stroke-opacity:0.5; fill:none" points="794.725,314.266 1021.01,314.266 1021.01,87.9763 794.725,87.9763 794.725,314.266 "/>
<path clip-path="url(#clip161)" d="M1699.88 1445.72 L1926.17 1445.72 L1926.17 1219.43 L1699.88 1219.43 L1699.88 1445.72 L1699.88 1445.72  Z" fill="#0000ff" fill-rule="evenodd" fill-opacity="0.5"/>
<polyline clip-path="url(#clip161)" style="stroke:#000000; stroke-linecap:round; stroke-linejoin:round; stroke-width:4; stroke-opacity:0.5; fill:none" points="1699.88,1445.72 1926.17,1445.72 1926.17,1219.43 1699.88,1219.43 1699.88,1445.72 "/>
<path clip-path="url(#clip161)" d="M568.435 314.266 L794.725 314.266 L794.725 87.9763 L568.435 87.9763 L568.435 314.266 L568.435 314.266  Z" fill="#0000ff" fill-rule="evenodd" fill-opacity="0.5"/>
<polyline clip-path="url(#clip161)" style="stroke:#000000; stroke-linecap:round; stroke-linejoin:round; stroke-width:4; stroke-opacity:0.5; fill:none" points="568.435,314.266 794.725,314.266 794.725,87.9763 568.435,87.9763 568.435,314.266 "/>
<path clip-path="url(#clip161)" d="M1473.59 993.136 L1699.88 993.136 L1699.88 766.846 L1473.59 766.846 L1473.59 993.136 L1473.59 993.136  Z" fill="#0000ff" fill-rule="evenodd" fill-opacity="0.5"/>
<polyline clip-path="url(#clip161)" style="stroke:#000000; stroke-linecap:round; stroke-linejoin:round; stroke-width:4; stroke-opacity:0.5; fill:none" points="1473.59,993.136 1699.88,993.136 1699.88,766.846 1473.59,766.846 1473.59,993.136 "/>
<path clip-path="url(#clip161)" d="M1699.88 1219.43 L1926.17 1219.43 L1926.17 993.136 L1699.88 993.136 L1699.88 1219.43 L1699.88 1219.43  Z" fill="#0000ff" fill-rule="evenodd" fill-opacity="0.5"/>
<polyline clip-path="url(#clip161)" style="stroke:#000000; stroke-linecap:round; stroke-linejoin:round; stroke-width:4; stroke-opacity:0.5; fill:none" points="1699.88,1219.43 1926.17,1219.43 1926.17,993.136 1699.88,993.136 1699.88,1219.43 "/>
<path clip-path="url(#clip161)" d="M1473.59 766.846 L1699.88 766.846 L1699.88 540.556 L1473.59 540.556 L1473.59 766.846 L1473.59 766.846  Z" fill="#0000ff" fill-rule="evenodd" fill-opacity="0.5"/>
<polyline clip-path="url(#clip161)" style="stroke:#000000; stroke-linecap:round; stroke-linejoin:round; stroke-width:4; stroke-opacity:0.5; fill:none" points="1473.59,766.846 1699.88,766.846 1699.88,540.556 1473.59,540.556 1473.59,766.846 "/>
<path clip-path="url(#clip161)" d="M794.725 1445.72 L1021.01 1445.72 L1021.01 1219.43 L794.725 1219.43 L794.725 1445.72 L794.725 1445.72  Z" fill="#0000ff" fill-rule="evenodd" fill-opacity="0.5"/>
<polyline clip-path="url(#clip161)" style="stroke:#000000; stroke-linecap:round; stroke-linejoin:round; stroke-width:4; stroke-opacity:0.5; fill:none" points="794.725,1445.72 1021.01,1445.72 1021.01,1219.43 794.725,1219.43 794.725,1445.72 "/>
<path clip-path="url(#clip161)" d="M1473.59 540.556 L1699.88 540.556 L1699.88 314.266 L1473.59 314.266 L1473.59 540.556 L1473.59 540.556  Z" fill="#0000ff" fill-rule="evenodd" fill-opacity="0.5"/>
<polyline clip-path="url(#clip161)" style="stroke:#000000; stroke-linecap:round; stroke-linejoin:round; stroke-width:4; stroke-opacity:0.5; fill:none" points="1473.59,540.556 1699.88,540.556 1699.88,314.266 1473.59,314.266 1473.59,540.556 "/>
<path clip-path="url(#clip161)" d="M568.435 1445.72 L794.725 1445.72 L794.725 1219.43 L568.435 1219.43 L568.435 1445.72 L568.435 1445.72  Z" fill="#0000ff" fill-rule="evenodd" fill-opacity="0.5"/>
<polyline clip-path="url(#clip161)" style="stroke:#000000; stroke-linecap:round; stroke-linejoin:round; stroke-width:4; stroke-opacity:0.5; fill:none" points="568.435,1445.72 794.725,1445.72 794.725,1219.43 568.435,1219.43 568.435,1445.72 "/>
<path clip-path="url(#clip161)" d="M1021.01 540.556 L1247.3 540.556 L1247.3 314.266 L1021.01 314.266 L1021.01 540.556 L1021.01 540.556  Z" fill="#0000ff" fill-rule="evenodd" fill-opacity="0.5"/>
<polyline clip-path="url(#clip161)" style="stroke:#000000; stroke-linecap:round; stroke-linejoin:round; stroke-width:4; stroke-opacity:0.5; fill:none" points="1021.01,540.556 1247.3,540.556 1247.3,314.266 1021.01,314.266 1021.01,540.556 "/>
<path clip-path="url(#clip161)" d="M1247.3 314.266 L1473.59 314.266 L1473.59 87.9763 L1247.3 87.9763 L1247.3 314.266 L1247.3 314.266  Z" fill="#0000ff" fill-rule="evenodd" fill-opacity="0.5"/>
<polyline clip-path="url(#clip161)" style="stroke:#000000; stroke-linecap:round; stroke-linejoin:round; stroke-width:4; stroke-opacity:0.5; fill:none" points="1247.3,314.266 1473.59,314.266 1473.59,87.9763 1247.3,87.9763 1247.3,314.266 "/>
<path clip-path="url(#clip161)" d="M794.725 1219.43 L1021.01 1219.43 L1021.01 993.136 L794.725 993.136 L794.725 1219.43 L794.725 1219.43  Z" fill="#0000ff" fill-rule="evenodd" fill-opacity="0.5"/>
<polyline clip-path="url(#clip161)" style="stroke:#000000; stroke-linecap:round; stroke-linejoin:round; stroke-width:4; stroke-opacity:0.5; fill:none" points="794.725,1219.43 1021.01,1219.43 1021.01,993.136 794.725,993.136 794.725,1219.43 "/>
<path clip-path="url(#clip161)" d="M1699.88 993.136 L1926.17 993.136 L1926.17 766.846 L1699.88 766.846 L1699.88 993.136 L1699.88 993.136  Z" fill="#0000ff" fill-rule="evenodd" fill-opacity="0.5"/>
<polyline clip-path="url(#clip161)" style="stroke:#000000; stroke-linecap:round; stroke-linejoin:round; stroke-width:4; stroke-opacity:0.5; fill:none" points="1699.88,993.136 1926.17,993.136 1926.17,766.846 1699.88,766.846 1699.88,993.136 "/>
<path clip-path="url(#clip161)" d="M568.435 1219.43 L794.725 1219.43 L794.725 993.136 L568.435 993.136 L568.435 1219.43 L568.435 1219.43  Z" fill="#0000ff" fill-rule="evenodd" fill-opacity="0.5"/>
<polyline clip-path="url(#clip161)" style="stroke:#000000; stroke-linecap:round; stroke-linejoin:round; stroke-width:4; stroke-opacity:0.5; fill:none" points="568.435,1219.43 794.725,1219.43 794.725,993.136 568.435,993.136 568.435,1219.43 "/>
<path clip-path="url(#clip161)" d="M1699.88 766.846 L1926.17 766.846 L1926.17 540.556 L1699.88 540.556 L1699.88 766.846 L1699.88 766.846  Z" fill="#0000ff" fill-rule="evenodd" fill-opacity="0.5"/>
<polyline clip-path="url(#clip161)" style="stroke:#000000; stroke-linecap:round; stroke-linejoin:round; stroke-width:4; stroke-opacity:0.5; fill:none" points="1699.88,766.846 1926.17,766.846 1926.17,540.556 1699.88,540.556 1699.88,766.846 "/>
<path clip-path="url(#clip161)" d="M1247.3 1445.72 L1473.59 1445.72 L1473.59 1219.43 L1247.3 1219.43 L1247.3 1445.72 L1247.3 1445.72  Z" fill="#0000ff" fill-rule="evenodd" fill-opacity="0.5"/>
<polyline clip-path="url(#clip161)" style="stroke:#000000; stroke-linecap:round; stroke-linejoin:round; stroke-width:4; stroke-opacity:0.5; fill:none" points="1247.3,1445.72 1473.59,1445.72 1473.59,1219.43 1247.3,1219.43 1247.3,1445.72 "/>
<path clip-path="url(#clip161)" d="M1699.88 540.556 L1926.17 540.556 L1926.17 314.266 L1699.88 314.266 L1699.88 540.556 L1699.88 540.556  Z" fill="#0000ff" fill-rule="evenodd" fill-opacity="0.5"/>
<polyline clip-path="url(#clip161)" style="stroke:#000000; stroke-linecap:round; stroke-linejoin:round; stroke-width:4; stroke-opacity:0.5; fill:none" points="1699.88,540.556 1926.17,540.556 1926.17,314.266 1699.88,314.266 1699.88,540.556 "/>
<path clip-path="url(#clip161)" d="M715.523 1298.63 L738.152 1298.63 L738.152 1276 L715.523 1276 L715.523 1298.63 L715.523 1298.63  Z" fill="#008000" fill-rule="evenodd" fill-opacity="0.8"/>
<polyline clip-path="url(#clip161)" style="stroke:#000000; stroke-linecap:round; stroke-linejoin:round; stroke-width:4; stroke-opacity:0.8; fill:none" points="715.523,1298.63 738.152,1298.63 738.152,1276 715.523,1276 715.523,1298.63 "/>
<path clip-path="url(#clip161)" d="M1564.11 472.669 L1677.26 472.669 L1677.26 359.524 L1564.11 359.524 L1564.11 472.669 L1564.11 472.669  Z" fill="#ff0000" fill-rule="evenodd" fill-opacity="0.8"/>
<polyline clip-path="url(#clip161)" style="stroke:#000000; stroke-linecap:round; stroke-linejoin:round; stroke-width:4; stroke-opacity:0.8; fill:none" points="1564.11,472.669 1677.26,472.669 1677.26,359.524 1564.11,359.524 1564.11,472.669 "/>
<circle clip-path="url(#clip161)" cx="744.941" cy="1269.21" r="1.8" fill="#000000" fill-rule="evenodd" fill-opacity="1" stroke="none"/>
<polyline clip-path="url(#clip161)" style="stroke:#000000; stroke-linecap:round; stroke-linejoin:round; stroke-width:4; stroke-opacity:1; fill:none" points="726.838,1287.31 744.941,1269.21 "/>
<path clip-path="url(#clip161)" d="M719.485 1294.67 L706.757 1281.94 L744.941 1269.21 L732.213 1307.39  Z" fill="#000000" fill-rule="evenodd" fill-opacity="1"/>
<polyline clip-path="url(#clip161)" style="stroke:#000000; stroke-linecap:round; stroke-linejoin:round; stroke-width:4; stroke-opacity:1; fill:none" points="719.485,1294.67 726.838,1287.31 "/>
<circle clip-path="url(#clip161)" cx="726.838" cy="1287.31" r="1.8" fill="#000000" fill-rule="evenodd" fill-opacity="0" stroke="none"/>
<circle clip-path="url(#clip161)" cx="744.941" cy="1269.21" r="1.8" fill="#000000" fill-rule="evenodd" fill-opacity="0" stroke="none"/>
<circle clip-path="url(#clip161)" cx="781.147" cy="1233" r="1.8" fill="#000000" fill-rule="evenodd" fill-opacity="1" stroke="none"/>
<polyline clip-path="url(#clip161)" style="stroke:#000000; stroke-linecap:round; stroke-linejoin:round; stroke-width:4; stroke-opacity:1; fill:none" points="744.941,1269.21 781.147,1233 "/>
<path clip-path="url(#clip161)" d="M755.691 1258.46 L742.963 1245.73 L781.147 1233 L768.419 1271.19  Z" fill="#000000" fill-rule="evenodd" fill-opacity="1"/>
<polyline clip-path="url(#clip161)" style="stroke:#000000; stroke-linecap:round; stroke-linejoin:round; stroke-width:4; stroke-opacity:1; fill:none" points="755.691,1258.46 744.941,1269.21 "/>
<circle clip-path="url(#clip161)" cx="744.941" cy="1269.21" r="1.8" fill="#000000" fill-rule="evenodd" fill-opacity="0" stroke="none"/>
<circle clip-path="url(#clip161)" cx="781.147" cy="1233" r="1.8" fill="#000000" fill-rule="evenodd" fill-opacity="0" stroke="none"/>
<circle clip-path="url(#clip161)" cx="817.354" cy="1196.8" r="1.8" fill="#000000" fill-rule="evenodd" fill-opacity="1" stroke="none"/>
<polyline clip-path="url(#clip161)" style="stroke:#000000; stroke-linecap:round; stroke-linejoin:round; stroke-width:4; stroke-opacity:1; fill:none" points="781.147,1233 817.354,1196.8 "/>
<path clip-path="url(#clip161)" d="M791.898 1222.25 L779.17 1209.52 L817.354 1196.8 L804.626 1234.98  Z" fill="#000000" fill-rule="evenodd" fill-opacity="1"/>
<polyline clip-path="url(#clip161)" style="stroke:#000000; stroke-linecap:round; stroke-linejoin:round; stroke-width:4; stroke-opacity:1; fill:none" points="791.898,1222.25 781.147,1233 "/>
<circle clip-path="url(#clip161)" cx="781.147" cy="1233" r="1.8" fill="#000000" fill-rule="evenodd" fill-opacity="0" stroke="none"/>
<circle clip-path="url(#clip161)" cx="817.354" cy="1196.8" r="1.8" fill="#000000" fill-rule="evenodd" fill-opacity="0" stroke="none"/>
<circle clip-path="url(#clip161)" cx="844.508" cy="1178.69" r="1.8" fill="#000000" fill-rule="evenodd" fill-opacity="1" stroke="none"/>
<polyline clip-path="url(#clip161)" style="stroke:#000000; stroke-linecap:round; stroke-linejoin:round; stroke-width:4; stroke-opacity:1; fill:none" points="817.354,1196.8 844.508,1178.69 "/>
<path clip-path="url(#clip161)" d="M814.555 1198.66 L804.57 1183.69 L844.508 1178.69 L824.539 1213.64  Z" fill="#000000" fill-rule="evenodd" fill-opacity="1"/>
<polyline clip-path="url(#clip161)" style="stroke:#000000; stroke-linecap:round; stroke-linejoin:round; stroke-width:4; stroke-opacity:1; fill:none" points="814.555,1198.66 817.354,1196.8 "/>
<circle clip-path="url(#clip161)" cx="817.354" cy="1196.8" r="1.8" fill="#000000" fill-rule="evenodd" fill-opacity="0" stroke="none"/>
<circle clip-path="url(#clip161)" cx="844.508" cy="1178.69" r="1.8" fill="#000000" fill-rule="evenodd" fill-opacity="0" stroke="none"/>
<circle clip-path="url(#clip161)" cx="880.715" cy="1151.54" r="1.8" fill="#000000" fill-rule="evenodd" fill-opacity="1" stroke="none"/>
<polyline clip-path="url(#clip161)" style="stroke:#000000; stroke-linecap:round; stroke-linejoin:round; stroke-width:4; stroke-opacity:1; fill:none" points="844.508,1178.69 880.715,1151.54 "/>
<path clip-path="url(#clip161)" d="M851.915 1173.14 L841.115 1158.74 L880.715 1151.54 L862.715 1187.54  Z" fill="#000000" fill-rule="evenodd" fill-opacity="1"/>
<polyline clip-path="url(#clip161)" style="stroke:#000000; stroke-linecap:round; stroke-linejoin:round; stroke-width:4; stroke-opacity:1; fill:none" points="851.915,1173.14 844.508,1178.69 "/>
<circle clip-path="url(#clip161)" cx="844.508" cy="1178.69" r="1.8" fill="#000000" fill-rule="evenodd" fill-opacity="0" stroke="none"/>
<circle clip-path="url(#clip161)" cx="880.715" cy="1151.54" r="1.8" fill="#000000" fill-rule="evenodd" fill-opacity="0" stroke="none"/>
<circle clip-path="url(#clip161)" cx="898.818" cy="1142.49" r="1.8" fill="#000000" fill-rule="evenodd" fill-opacity="1" stroke="none"/>
<polyline clip-path="url(#clip161)" style="stroke:#000000; stroke-linecap:round; stroke-linejoin:round; stroke-width:4; stroke-opacity:1; fill:none" points="880.715,1151.54 898.818,1142.49 "/>
<path clip-path="url(#clip161)" d="M866.619 1158.59 L858.569 1142.49 L898.818 1142.49 L874.668 1174.69  Z" fill="#000000" fill-rule="evenodd" fill-opacity="1"/>
<polyline clip-path="url(#clip161)" style="stroke:#000000; stroke-linecap:round; stroke-linejoin:round; stroke-width:4; stroke-opacity:1; fill:none" points="866.619,1158.59 880.715,1151.54 "/>
<circle clip-path="url(#clip161)" cx="880.715" cy="1151.54" r="1.8" fill="#000000" fill-rule="evenodd" fill-opacity="0" stroke="none"/>
<circle clip-path="url(#clip161)" cx="898.818" cy="1142.49" r="1.8" fill="#000000" fill-rule="evenodd" fill-opacity="0" stroke="none"/>
<circle clip-path="url(#clip161)" cx="925.973" cy="1115.33" r="1.8" fill="#000000" fill-rule="evenodd" fill-opacity="1" stroke="none"/>
<polyline clip-path="url(#clip161)" style="stroke:#000000; stroke-linecap:round; stroke-linejoin:round; stroke-width:4; stroke-opacity:1; fill:none" points="898.818,1142.49 925.973,1115.33 "/>
<path clip-path="url(#clip161)" d="M900.517 1140.79 L887.789 1128.06 L925.973 1115.33 L913.245 1153.52  Z" fill="#000000" fill-rule="evenodd" fill-opacity="1"/>
<polyline clip-path="url(#clip161)" style="stroke:#000000; stroke-linecap:round; stroke-linejoin:round; stroke-width:4; stroke-opacity:1; fill:none" points="900.517,1140.79 898.818,1142.49 "/>
<circle clip-path="url(#clip161)" cx="898.818" cy="1142.49" r="1.8" fill="#000000" fill-rule="evenodd" fill-opacity="0" stroke="none"/>
<circle clip-path="url(#clip161)" cx="925.973" cy="1115.33" r="1.8" fill="#000000" fill-rule="evenodd" fill-opacity="0" stroke="none"/>
<circle clip-path="url(#clip161)" cx="962.179" cy="1133.44" r="1.8" fill="#000000" fill-rule="evenodd" fill-opacity="1" stroke="none"/>
<polyline clip-path="url(#clip161)" style="stroke:#000000; stroke-linecap:round; stroke-linejoin:round; stroke-width:4; stroke-opacity:1; fill:none" points="925.973,1115.33 962.179,1133.44 "/>
<path clip-path="url(#clip161)" d="M929.98 1117.34 L938.03 1101.24 L962.179 1133.44 L921.93 1133.44  Z" fill="#000000" fill-rule="evenodd" fill-opacity="1"/>
<polyline clip-path="url(#clip161)" style="stroke:#000000; stroke-linecap:round; stroke-linejoin:round; stroke-width:4; stroke-opacity:1; fill:none" points="929.98,1117.34 925.973,1115.33 "/>
<circle clip-path="url(#clip161)" cx="925.973" cy="1115.33" r="1.8" fill="#000000" fill-rule="evenodd" fill-opacity="0" stroke="none"/>
<circle clip-path="url(#clip161)" cx="962.179" cy="1133.44" r="1.8" fill="#000000" fill-rule="evenodd" fill-opacity="0" stroke="none"/>
<circle clip-path="url(#clip161)" cx="998.386" cy="1106.28" r="1.8" fill="#000000" fill-rule="evenodd" fill-opacity="1" stroke="none"/>
<polyline clip-path="url(#clip161)" style="stroke:#000000; stroke-linecap:round; stroke-linejoin:round; stroke-width:4; stroke-opacity:1; fill:none" points="962.179,1133.44 998.386,1106.28 "/>
<path clip-path="url(#clip161)" d="M969.586 1127.88 L958.786 1113.48 L998.386 1106.28 L980.386 1142.28  Z" fill="#000000" fill-rule="evenodd" fill-opacity="1"/>
<polyline clip-path="url(#clip161)" style="stroke:#000000; stroke-linecap:round; stroke-linejoin:round; stroke-width:4; stroke-opacity:1; fill:none" points="969.586,1127.88 962.179,1133.44 "/>
<circle clip-path="url(#clip161)" cx="962.179" cy="1133.44" r="1.8" fill="#000000" fill-rule="evenodd" fill-opacity="0" stroke="none"/>
<circle clip-path="url(#clip161)" cx="998.386" cy="1106.28" r="1.8" fill="#000000" fill-rule="evenodd" fill-opacity="0" stroke="none"/>
<circle clip-path="url(#clip161)" cx="1025.54" cy="1079.13" r="1.8" fill="#000000" fill-rule="evenodd" fill-opacity="1" stroke="none"/>
<polyline clip-path="url(#clip161)" style="stroke:#000000; stroke-linecap:round; stroke-linejoin:round; stroke-width:4; stroke-opacity:1; fill:none" points="998.386,1106.28 1025.54,1079.13 "/>
<path clip-path="url(#clip161)" d="M1000.08 1104.58 L987.357 1091.85 L1025.54 1079.13 L1012.81 1117.31  Z" fill="#000000" fill-rule="evenodd" fill-opacity="1"/>
<polyline clip-path="url(#clip161)" style="stroke:#000000; stroke-linecap:round; stroke-linejoin:round; stroke-width:4; stroke-opacity:1; fill:none" points="1000.08,1104.58 998.386,1106.28 "/>
<circle clip-path="url(#clip161)" cx="998.386" cy="1106.28" r="1.8" fill="#000000" fill-rule="evenodd" fill-opacity="0" stroke="none"/>
<circle clip-path="url(#clip161)" cx="1025.54" cy="1079.13" r="1.8" fill="#000000" fill-rule="evenodd" fill-opacity="0" stroke="none"/>
<circle clip-path="url(#clip161)" cx="1061.75" cy="1088.18" r="1.8" fill="#000000" fill-rule="evenodd" fill-opacity="1" stroke="none"/>
<polyline clip-path="url(#clip161)" style="stroke:#000000; stroke-linecap:round; stroke-linejoin:round; stroke-width:4; stroke-opacity:1; fill:none" points="1025.54,1079.13 1061.75,1088.18 "/>
<path clip-path="url(#clip161)" d="M1026.82 1079.45 L1031.19 1061.98 L1061.75 1088.18 L1022.46 1096.91  Z" fill="#000000" fill-rule="evenodd" fill-opacity="1"/>
<polyline clip-path="url(#clip161)" style="stroke:#000000; stroke-linecap:round; stroke-linejoin:round; stroke-width:4; stroke-opacity:1; fill:none" points="1026.82,1079.45 1025.54,1079.13 "/>
<circle clip-path="url(#clip161)" cx="1025.54" cy="1079.13" r="1.8" fill="#000000" fill-rule="evenodd" fill-opacity="0" stroke="none"/>
<circle clip-path="url(#clip161)" cx="1061.75" cy="1088.18" r="1.8" fill="#000000" fill-rule="evenodd" fill-opacity="0" stroke="none"/>
<circle clip-path="url(#clip161)" cx="1079.85" cy="1051.97" r="1.8" fill="#000000" fill-rule="evenodd" fill-opacity="1" stroke="none"/>
<polyline clip-path="url(#clip161)" style="stroke:#000000; stroke-linecap:round; stroke-linejoin:round; stroke-width:4; stroke-opacity:1; fill:none" points="1061.75,1088.18 1079.85,1051.97 "/>
<path clip-path="url(#clip161)" d="M1063.75 1084.17 L1047.65 1076.12 L1079.85 1051.97 L1079.85 1092.22  Z" fill="#000000" fill-rule="evenodd" fill-opacity="1"/>
<polyline clip-path="url(#clip161)" style="stroke:#000000; stroke-linecap:round; stroke-linejoin:round; stroke-width:4; stroke-opacity:1; fill:none" points="1063.75,1084.17 1061.75,1088.18 "/>
<circle clip-path="url(#clip161)" cx="1061.75" cy="1088.18" r="1.8" fill="#000000" fill-rule="evenodd" fill-opacity="0" stroke="none"/>
<circle clip-path="url(#clip161)" cx="1079.85" cy="1051.97" r="1.8" fill="#000000" fill-rule="evenodd" fill-opacity="0" stroke="none"/>
<circle clip-path="url(#clip161)" cx="1116.06" cy="1015.76" r="1.8" fill="#000000" fill-rule="evenodd" fill-opacity="1" stroke="none"/>
<polyline clip-path="url(#clip161)" style="stroke:#000000; stroke-linecap:round; stroke-linejoin:round; stroke-width:4; stroke-opacity:1; fill:none" points="1079.85,1051.97 1116.06,1015.76 "/>
<path clip-path="url(#clip161)" d="M1090.6 1041.22 L1077.87 1028.49 L1116.06 1015.76 L1103.33 1053.95  Z" fill="#000000" fill-rule="evenodd" fill-opacity="1"/>
<polyline clip-path="url(#clip161)" style="stroke:#000000; stroke-linecap:round; stroke-linejoin:round; stroke-width:4; stroke-opacity:1; fill:none" points="1090.6,1041.22 1079.85,1051.97 "/>
<circle clip-path="url(#clip161)" cx="1079.85" cy="1051.97" r="1.8" fill="#000000" fill-rule="evenodd" fill-opacity="0" stroke="none"/>
<circle clip-path="url(#clip161)" cx="1116.06" cy="1015.76" r="1.8" fill="#000000" fill-rule="evenodd" fill-opacity="0" stroke="none"/>
<circle clip-path="url(#clip161)" cx="1152.26" cy="1006.71" r="1.8" fill="#000000" fill-rule="evenodd" fill-opacity="1" stroke="none"/>
<polyline clip-path="url(#clip161)" style="stroke:#000000; stroke-linecap:round; stroke-linejoin:round; stroke-width:4; stroke-opacity:1; fill:none" points="1116.06,1015.76 1152.26,1006.71 "/>
<path clip-path="url(#clip161)" d="M1117.34 1015.44 L1112.97 997.982 L1152.26 1006.71 L1121.7 1032.91  Z" fill="#000000" fill-rule="evenodd" fill-opacity="1"/>
<polyline clip-path="url(#clip161)" style="stroke:#000000; stroke-linecap:round; stroke-linejoin:round; stroke-width:4; stroke-opacity:1; fill:none" points="1117.34,1015.44 1116.06,1015.76 "/>
<circle clip-path="url(#clip161)" cx="1116.06" cy="1015.76" r="1.8" fill="#000000" fill-rule="evenodd" fill-opacity="0" stroke="none"/>
<circle clip-path="url(#clip161)" cx="1152.26" cy="1006.71" r="1.8" fill="#000000" fill-rule="evenodd" fill-opacity="0" stroke="none"/>
<circle clip-path="url(#clip161)" cx="1170.37" cy="997.662" r="1.8" fill="#000000" fill-rule="evenodd" fill-opacity="1" stroke="none"/>
<polyline clip-path="url(#clip161)" style="stroke:#000000; stroke-linecap:round; stroke-linejoin:round; stroke-width:4; stroke-opacity:1; fill:none" points="1152.26,1006.71 1170.37,997.662 "/>
<path clip-path="url(#clip161)" d="M1138.17 1013.76 L1130.12 997.662 L1170.37 997.662 L1146.22 1029.86  Z" fill="#000000" fill-rule="evenodd" fill-opacity="1"/>
<polyline clip-path="url(#clip161)" style="stroke:#000000; stroke-linecap:round; stroke-linejoin:round; stroke-width:4; stroke-opacity:1; fill:none" points="1138.17,1013.76 1152.26,1006.71 "/>
<circle clip-path="url(#clip161)" cx="1152.26" cy="1006.71" r="1.8" fill="#000000" fill-rule="evenodd" fill-opacity="0" stroke="none"/>
<circle clip-path="url(#clip161)" cx="1170.37" cy="997.662" r="1.8" fill="#000000" fill-rule="evenodd" fill-opacity="0" stroke="none"/>
<circle clip-path="url(#clip161)" cx="1206.57" cy="988.61" r="1.8" fill="#000000" fill-rule="evenodd" fill-opacity="1" stroke="none"/>
<polyline clip-path="url(#clip161)" style="stroke:#000000; stroke-linecap:round; stroke-linejoin:round; stroke-width:4; stroke-opacity:1; fill:none" points="1170.37,997.662 1206.57,988.61 "/>
<path clip-path="url(#clip161)" d="M1171.65 997.341 L1167.28 979.879 L1206.57 988.61 L1176.01 1014.8  Z" fill="#000000" fill-rule="evenodd" fill-opacity="1"/>
<polyline clip-path="url(#clip161)" style="stroke:#000000; stroke-linecap:round; stroke-linejoin:round; stroke-width:4; stroke-opacity:1; fill:none" points="1171.65,997.341 1170.37,997.662 "/>
<circle clip-path="url(#clip161)" cx="1170.37" cy="997.662" r="1.8" fill="#000000" fill-rule="evenodd" fill-opacity="0" stroke="none"/>
<circle clip-path="url(#clip161)" cx="1206.57" cy="988.61" r="1.8" fill="#000000" fill-rule="evenodd" fill-opacity="0" stroke="none"/>
<circle clip-path="url(#clip161)" cx="1242.78" cy="979.558" r="1.8" fill="#000000" fill-rule="evenodd" fill-opacity="1" stroke="none"/>
<polyline clip-path="url(#clip161)" style="stroke:#000000; stroke-linecap:round; stroke-linejoin:round; stroke-width:4; stroke-opacity:1; fill:none" points="1206.57,988.61 1242.78,979.558 "/>
<path clip-path="url(#clip161)" d="M1207.85 988.29 L1203.49 970.827 L1242.78 979.558 L1212.22 1005.75  Z" fill="#000000" fill-rule="evenodd" fill-opacity="1"/>
<polyline clip-path="url(#clip161)" style="stroke:#000000; stroke-linecap:round; stroke-linejoin:round; stroke-width:4; stroke-opacity:1; fill:none" points="1207.85,988.29 1206.57,988.61 "/>
<circle clip-path="url(#clip161)" cx="1206.57" cy="988.61" r="1.8" fill="#000000" fill-rule="evenodd" fill-opacity="0" stroke="none"/>
<circle clip-path="url(#clip161)" cx="1242.78" cy="979.558" r="1.8" fill="#000000" fill-rule="evenodd" fill-opacity="0" stroke="none"/>
<circle clip-path="url(#clip161)" cx="1269.93" cy="988.61" r="1.8" fill="#000000" fill-rule="evenodd" fill-opacity="1" stroke="none"/>
<polyline clip-path="url(#clip161)" style="stroke:#000000; stroke-linecap:round; stroke-linejoin:round; stroke-width:4; stroke-opacity:1; fill:none" points="1242.78,979.558 1269.93,988.61 "/>
<path clip-path="url(#clip161)" d="M1235.78 977.226 L1241.47 960.15 L1269.93 988.61 L1230.09 994.302  Z" fill="#000000" fill-rule="evenodd" fill-opacity="1"/>
<polyline clip-path="url(#clip161)" style="stroke:#000000; stroke-linecap:round; stroke-linejoin:round; stroke-width:4; stroke-opacity:1; fill:none" points="1235.78,977.226 1242.78,979.558 "/>
<circle clip-path="url(#clip161)" cx="1242.78" cy="979.558" r="1.8" fill="#000000" fill-rule="evenodd" fill-opacity="0" stroke="none"/>
<circle clip-path="url(#clip161)" cx="1269.93" cy="988.61" r="1.8" fill="#000000" fill-rule="evenodd" fill-opacity="0" stroke="none"/>
<circle clip-path="url(#clip161)" cx="1251.83" cy="952.404" r="1.8" fill="#000000" fill-rule="evenodd" fill-opacity="1" stroke="none"/>
<polyline clip-path="url(#clip161)" style="stroke:#000000; stroke-linecap:round; stroke-linejoin:round; stroke-width:4; stroke-opacity:1; fill:none" points="1269.93,988.61 1251.83,952.404 "/>
<path clip-path="url(#clip161)" d="M1267.93 984.603 L1251.83 992.653 L1251.83 952.404 L1284.03 976.553  Z" fill="#000000" fill-rule="evenodd" fill-opacity="1"/>
<polyline clip-path="url(#clip161)" style="stroke:#000000; stroke-linecap:round; stroke-linejoin:round; stroke-width:4; stroke-opacity:1; fill:none" points="1267.93,984.603 1269.93,988.61 "/>
<circle clip-path="url(#clip161)" cx="1269.93" cy="988.61" r="1.8" fill="#000000" fill-rule="evenodd" fill-opacity="0" stroke="none"/>
<circle clip-path="url(#clip161)" cx="1251.83" cy="952.404" r="1.8" fill="#000000" fill-rule="evenodd" fill-opacity="0" stroke="none"/>
<circle clip-path="url(#clip161)" cx="1260.88" cy="916.197" r="1.8" fill="#000000" fill-rule="evenodd" fill-opacity="1" stroke="none"/>
<polyline clip-path="url(#clip161)" style="stroke:#000000; stroke-linecap:round; stroke-linejoin:round; stroke-width:4; stroke-opacity:1; fill:none" points="1251.83,952.404 1260.88,916.197 "/>
<path clip-path="url(#clip161)" d="M1252.15 951.122 L1234.69 946.757 L1260.88 916.197 L1269.61 955.488  Z" fill="#000000" fill-rule="evenodd" fill-opacity="1"/>
<polyline clip-path="url(#clip161)" style="stroke:#000000; stroke-linecap:round; stroke-linejoin:round; stroke-width:4; stroke-opacity:1; fill:none" points="1252.15,951.122 1251.83,952.404 "/>
<circle clip-path="url(#clip161)" cx="1251.83" cy="952.404" r="1.8" fill="#000000" fill-rule="evenodd" fill-opacity="0" stroke="none"/>
<circle clip-path="url(#clip161)" cx="1260.88" cy="916.197" r="1.8" fill="#000000" fill-rule="evenodd" fill-opacity="0" stroke="none"/>
<circle clip-path="url(#clip161)" cx="1297.09" cy="898.094" r="1.8" fill="#000000" fill-rule="evenodd" fill-opacity="1" stroke="none"/>
<polyline clip-path="url(#clip161)" style="stroke:#000000; stroke-linecap:round; stroke-linejoin:round; stroke-width:4; stroke-opacity:1; fill:none" points="1260.88,916.197 1297.09,898.094 "/>
<path clip-path="url(#clip161)" d="M1264.89 914.194 L1256.84 898.094 L1297.09 898.094 L1272.94 930.294  Z" fill="#000000" fill-rule="evenodd" fill-opacity="1"/>
<polyline clip-path="url(#clip161)" style="stroke:#000000; stroke-linecap:round; stroke-linejoin:round; stroke-width:4; stroke-opacity:1; fill:none" points="1264.89,914.194 1260.88,916.197 "/>
<circle clip-path="url(#clip161)" cx="1260.88" cy="916.197" r="1.8" fill="#000000" fill-rule="evenodd" fill-opacity="0" stroke="none"/>
<circle clip-path="url(#clip161)" cx="1297.09" cy="898.094" r="1.8" fill="#000000" fill-rule="evenodd" fill-opacity="0" stroke="none"/>
<circle clip-path="url(#clip161)" cx="1324.24" cy="870.939" r="1.8" fill="#000000" fill-rule="evenodd" fill-opacity="1" stroke="none"/>
<polyline clip-path="url(#clip161)" style="stroke:#000000; stroke-linecap:round; stroke-linejoin:round; stroke-width:4; stroke-opacity:1; fill:none" points="1297.09,898.094 1324.24,870.939 "/>
<path clip-path="url(#clip161)" d="M1298.79 896.395 L1286.06 883.667 L1324.24 870.939 L1311.52 909.123  Z" fill="#000000" fill-rule="evenodd" fill-opacity="1"/>
<polyline clip-path="url(#clip161)" style="stroke:#000000; stroke-linecap:round; stroke-linejoin:round; stroke-width:4; stroke-opacity:1; fill:none" points="1298.79,896.395 1297.09,898.094 "/>
<circle clip-path="url(#clip161)" cx="1297.09" cy="898.094" r="1.8" fill="#000000" fill-rule="evenodd" fill-opacity="0" stroke="none"/>
<circle clip-path="url(#clip161)" cx="1324.24" cy="870.939" r="1.8" fill="#000000" fill-rule="evenodd" fill-opacity="0" stroke="none"/>
<circle clip-path="url(#clip161)" cx="1360.45" cy="852.836" r="1.8" fill="#000000" fill-rule="evenodd" fill-opacity="1" stroke="none"/>
<polyline clip-path="url(#clip161)" style="stroke:#000000; stroke-linecap:round; stroke-linejoin:round; stroke-width:4; stroke-opacity:1; fill:none" points="1324.24,870.939 1360.45,852.836 "/>
<path clip-path="url(#clip161)" d="M1328.25 868.936 L1320.2 852.836 L1360.45 852.836 L1336.3 885.036  Z" fill="#000000" fill-rule="evenodd" fill-opacity="1"/>
<polyline clip-path="url(#clip161)" style="stroke:#000000; stroke-linecap:round; stroke-linejoin:round; stroke-width:4; stroke-opacity:1; fill:none" points="1328.25,868.936 1324.24,870.939 "/>
<circle clip-path="url(#clip161)" cx="1324.24" cy="870.939" r="1.8" fill="#000000" fill-rule="evenodd" fill-opacity="0" stroke="none"/>
<circle clip-path="url(#clip161)" cx="1360.45" cy="852.836" r="1.8" fill="#000000" fill-rule="evenodd" fill-opacity="0" stroke="none"/>
<circle clip-path="url(#clip161)" cx="1387.6" cy="825.681" r="1.8" fill="#000000" fill-rule="evenodd" fill-opacity="1" stroke="none"/>
<polyline clip-path="url(#clip161)" style="stroke:#000000; stroke-linecap:round; stroke-linejoin:round; stroke-width:4; stroke-opacity:1; fill:none" points="1360.45,852.836 1387.6,825.681 "/>
<path clip-path="url(#clip161)" d="M1362.15 851.137 L1349.42 838.409 L1387.6 825.681 L1374.88 863.865  Z" fill="#000000" fill-rule="evenodd" fill-opacity="1"/>
<polyline clip-path="url(#clip161)" style="stroke:#000000; stroke-linecap:round; stroke-linejoin:round; stroke-width:4; stroke-opacity:1; fill:none" points="1362.15,851.137 1360.45,852.836 "/>
<circle clip-path="url(#clip161)" cx="1360.45" cy="852.836" r="1.8" fill="#000000" fill-rule="evenodd" fill-opacity="0" stroke="none"/>
<circle clip-path="url(#clip161)" cx="1387.6" cy="825.681" r="1.8" fill="#000000" fill-rule="evenodd" fill-opacity="0" stroke="none"/>
<circle clip-path="url(#clip161)" cx="1423.81" cy="807.578" r="1.8" fill="#000000" fill-rule="evenodd" fill-opacity="1" stroke="none"/>
<polyline clip-path="url(#clip161)" style="stroke:#000000; stroke-linecap:round; stroke-linejoin:round; stroke-width:4; stroke-opacity:1; fill:none" points="1387.6,825.681 1423.81,807.578 "/>
<path clip-path="url(#clip161)" d="M1391.61 823.678 L1383.56 807.578 L1423.81 807.578 L1399.66 839.778  Z" fill="#000000" fill-rule="evenodd" fill-opacity="1"/>
<polyline clip-path="url(#clip161)" style="stroke:#000000; stroke-linecap:round; stroke-linejoin:round; stroke-width:4; stroke-opacity:1; fill:none" points="1391.61,823.678 1387.6,825.681 "/>
<circle clip-path="url(#clip161)" cx="1387.6" cy="825.681" r="1.8" fill="#000000" fill-rule="evenodd" fill-opacity="0" stroke="none"/>
<circle clip-path="url(#clip161)" cx="1423.81" cy="807.578" r="1.8" fill="#000000" fill-rule="evenodd" fill-opacity="0" stroke="none"/>
<circle clip-path="url(#clip161)" cx="1460.02" cy="771.372" r="1.8" fill="#000000" fill-rule="evenodd" fill-opacity="1" stroke="none"/>
<polyline clip-path="url(#clip161)" style="stroke:#000000; stroke-linecap:round; stroke-linejoin:round; stroke-width:4; stroke-opacity:1; fill:none" points="1423.81,807.578 1460.02,771.372 "/>
<path clip-path="url(#clip161)" d="M1434.56 796.828 L1421.83 784.1 L1460.02 771.372 L1447.29 809.556  Z" fill="#000000" fill-rule="evenodd" fill-opacity="1"/>
<polyline clip-path="url(#clip161)" style="stroke:#000000; stroke-linecap:round; stroke-linejoin:round; stroke-width:4; stroke-opacity:1; fill:none" points="1434.56,796.828 1423.81,807.578 "/>
<circle clip-path="url(#clip161)" cx="1423.81" cy="807.578" r="1.8" fill="#000000" fill-rule="evenodd" fill-opacity="0" stroke="none"/>
<circle clip-path="url(#clip161)" cx="1460.02" cy="771.372" r="1.8" fill="#000000" fill-rule="evenodd" fill-opacity="0" stroke="none"/>
<circle clip-path="url(#clip161)" cx="1469.07" cy="753.269" r="1.8" fill="#000000" fill-rule="evenodd" fill-opacity="1" stroke="none"/>
<polyline clip-path="url(#clip161)" style="stroke:#000000; stroke-linecap:round; stroke-linejoin:round; stroke-width:4; stroke-opacity:1; fill:none" points="1460.02,771.372 1469.07,753.269 "/>
<path clip-path="url(#clip161)" d="M1452.97 785.468 L1436.87 777.418 L1469.07 753.269 L1469.07 793.518  Z" fill="#000000" fill-rule="evenodd" fill-opacity="1"/>
<polyline clip-path="url(#clip161)" style="stroke:#000000; stroke-linecap:round; stroke-linejoin:round; stroke-width:4; stroke-opacity:1; fill:none" points="1452.97,785.468 1460.02,771.372 "/>
<circle clip-path="url(#clip161)" cx="1460.02" cy="771.372" r="1.8" fill="#000000" fill-rule="evenodd" fill-opacity="0" stroke="none"/>
<circle clip-path="url(#clip161)" cx="1469.07" cy="753.269" r="1.8" fill="#000000" fill-rule="evenodd" fill-opacity="0" stroke="none"/>
<circle clip-path="url(#clip161)" cx="1478.12" cy="726.114" r="1.8" fill="#000000" fill-rule="evenodd" fill-opacity="1" stroke="none"/>
<polyline clip-path="url(#clip161)" style="stroke:#000000; stroke-linecap:round; stroke-linejoin:round; stroke-width:4; stroke-opacity:1; fill:none" points="1469.07,753.269 1478.12,726.114 "/>
<path clip-path="url(#clip161)" d="M1466.74 760.266 L1449.66 754.574 L1478.12 726.114 L1483.81 765.959  Z" fill="#000000" fill-rule="evenodd" fill-opacity="1"/>
<polyline clip-path="url(#clip161)" style="stroke:#000000; stroke-linecap:round; stroke-linejoin:round; stroke-width:4; stroke-opacity:1; fill:none" points="1466.74,760.266 1469.07,753.269 "/>
<circle clip-path="url(#clip161)" cx="1469.07" cy="753.269" r="1.8" fill="#000000" fill-rule="evenodd" fill-opacity="0" stroke="none"/>
<circle clip-path="url(#clip161)" cx="1478.12" cy="726.114" r="1.8" fill="#000000" fill-rule="evenodd" fill-opacity="0" stroke="none"/>
<circle clip-path="url(#clip161)" cx="1514.33" cy="689.907" r="1.8" fill="#000000" fill-rule="evenodd" fill-opacity="1" stroke="none"/>
<polyline clip-path="url(#clip161)" style="stroke:#000000; stroke-linecap:round; stroke-linejoin:round; stroke-width:4; stroke-opacity:1; fill:none" points="1478.12,726.114 1514.33,689.907 "/>
<path clip-path="url(#clip161)" d="M1488.87 715.363 L1476.14 702.635 L1514.33 689.907 L1501.6 728.091  Z" fill="#000000" fill-rule="evenodd" fill-opacity="1"/>
<polyline clip-path="url(#clip161)" style="stroke:#000000; stroke-linecap:round; stroke-linejoin:round; stroke-width:4; stroke-opacity:1; fill:none" points="1488.87,715.363 1478.12,726.114 "/>
<circle clip-path="url(#clip161)" cx="1478.12" cy="726.114" r="1.8" fill="#000000" fill-rule="evenodd" fill-opacity="0" stroke="none"/>
<circle clip-path="url(#clip161)" cx="1514.33" cy="689.907" r="1.8" fill="#000000" fill-rule="evenodd" fill-opacity="0" stroke="none"/>
<circle clip-path="url(#clip161)" cx="1541.48" cy="653.701" r="1.8" fill="#000000" fill-rule="evenodd" fill-opacity="1" stroke="none"/>
<polyline clip-path="url(#clip161)" style="stroke:#000000; stroke-linecap:round; stroke-linejoin:round; stroke-width:4; stroke-opacity:1; fill:none" points="1514.33,689.907 1541.48,653.701 "/>
<path clip-path="url(#clip161)" d="M1519.88 682.501 L1505.48 671.701 L1541.48 653.701 L1534.28 693.301  Z" fill="#000000" fill-rule="evenodd" fill-opacity="1"/>
<polyline clip-path="url(#clip161)" style="stroke:#000000; stroke-linecap:round; stroke-linejoin:round; stroke-width:4; stroke-opacity:1; fill:none" points="1519.88,682.501 1514.33,689.907 "/>
<circle clip-path="url(#clip161)" cx="1514.33" cy="689.907" r="1.8" fill="#000000" fill-rule="evenodd" fill-opacity="0" stroke="none"/>
<circle clip-path="url(#clip161)" cx="1541.48" cy="653.701" r="1.8" fill="#000000" fill-rule="evenodd" fill-opacity="0" stroke="none"/>
<circle clip-path="url(#clip161)" cx="1523.38" cy="626.546" r="1.8" fill="#000000" fill-rule="evenodd" fill-opacity="1" stroke="none"/>
<polyline clip-path="url(#clip161)" style="stroke:#000000; stroke-linecap:round; stroke-linejoin:round; stroke-width:4; stroke-opacity:1; fill:none" points="1541.48,653.701 1523.38,626.546 "/>
<path clip-path="url(#clip161)" d="M1543.35 656.5 L1528.37 666.485 L1523.38 626.546 L1558.32 646.515  Z" fill="#000000" fill-rule="evenodd" fill-opacity="1"/>
<polyline clip-path="url(#clip161)" style="stroke:#000000; stroke-linecap:round; stroke-linejoin:round; stroke-width:4; stroke-opacity:1; fill:none" points="1543.35,656.5 1541.48,653.701 "/>
<circle clip-path="url(#clip161)" cx="1541.48" cy="653.701" r="1.8" fill="#000000" fill-rule="evenodd" fill-opacity="0" stroke="none"/>
<circle clip-path="url(#clip161)" cx="1523.38" cy="626.546" r="1.8" fill="#000000" fill-rule="evenodd" fill-opacity="0" stroke="none"/>
<circle clip-path="url(#clip161)" cx="1505.27" cy="590.34" r="1.8" fill="#000000" fill-rule="evenodd" fill-opacity="1" stroke="none"/>
<polyline clip-path="url(#clip161)" style="stroke:#000000; stroke-linecap:round; stroke-linejoin:round; stroke-width:4; stroke-opacity:1; fill:none" points="1523.38,626.546 1505.27,590.34 "/>
<path clip-path="url(#clip161)" d="M1521.37 622.539 L1505.27 630.589 L1505.27 590.34 L1537.47 614.489  Z" fill="#000000" fill-rule="evenodd" fill-opacity="1"/>
<polyline clip-path="url(#clip161)" style="stroke:#000000; stroke-linecap:round; stroke-linejoin:round; stroke-width:4; stroke-opacity:1; fill:none" points="1521.37,622.539 1523.38,626.546 "/>
<circle clip-path="url(#clip161)" cx="1523.38" cy="626.546" r="1.8" fill="#000000" fill-rule="evenodd" fill-opacity="0" stroke="none"/>
<circle clip-path="url(#clip161)" cx="1505.27" cy="590.34" r="1.8" fill="#000000" fill-rule="evenodd" fill-opacity="0" stroke="none"/>
<circle clip-path="url(#clip161)" cx="1478.12" cy="563.185" r="1.8" fill="#000000" fill-rule="evenodd" fill-opacity="1" stroke="none"/>
<polyline clip-path="url(#clip161)" style="stroke:#000000; stroke-linecap:round; stroke-linejoin:round; stroke-width:4; stroke-opacity:1; fill:none" points="1505.27,590.34 1478.12,563.185 "/>
<path clip-path="url(#clip161)" d="M1503.58 588.641 L1490.85 601.369 L1478.12 563.185 L1516.3 575.913  Z" fill="#000000" fill-rule="evenodd" fill-opacity="1"/>
<polyline clip-path="url(#clip161)" style="stroke:#000000; stroke-linecap:round; stroke-linejoin:round; stroke-width:4; stroke-opacity:1; fill:none" points="1503.58,588.641 1505.27,590.34 "/>
<circle clip-path="url(#clip161)" cx="1505.27" cy="590.34" r="1.8" fill="#000000" fill-rule="evenodd" fill-opacity="0" stroke="none"/>
<circle clip-path="url(#clip161)" cx="1478.12" cy="563.185" r="1.8" fill="#000000" fill-rule="evenodd" fill-opacity="0" stroke="none"/>
<circle clip-path="url(#clip161)" cx="1496.22" cy="536.03" r="1.8" fill="#000000" fill-rule="evenodd" fill-opacity="1" stroke="none"/>
<polyline clip-path="url(#clip161)" style="stroke:#000000; stroke-linecap:round; stroke-linejoin:round; stroke-width:4; stroke-opacity:1; fill:none" points="1478.12,563.185 1496.22,536.03 "/>
<path clip-path="url(#clip161)" d="M1476.25 565.984 L1461.28 555.999 L1496.22 536.03 L1491.23 575.969  Z" fill="#000000" fill-rule="evenodd" fill-opacity="1"/>
<polyline clip-path="url(#clip161)" style="stroke:#000000; stroke-linecap:round; stroke-linejoin:round; stroke-width:4; stroke-opacity:1; fill:none" points="1476.25,565.984 1478.12,563.185 "/>
<circle clip-path="url(#clip161)" cx="1478.12" cy="563.185" r="1.8" fill="#000000" fill-rule="evenodd" fill-opacity="0" stroke="none"/>
<circle clip-path="url(#clip161)" cx="1496.22" cy="536.03" r="1.8" fill="#000000" fill-rule="evenodd" fill-opacity="0" stroke="none"/>
<circle clip-path="url(#clip161)" cx="1514.33" cy="517.927" r="1.8" fill="#000000" fill-rule="evenodd" fill-opacity="1" stroke="none"/>
<polyline clip-path="url(#clip161)" style="stroke:#000000; stroke-linecap:round; stroke-linejoin:round; stroke-width:4; stroke-opacity:1; fill:none" points="1496.22,536.03 1514.33,517.927 "/>
<path clip-path="url(#clip161)" d="M1488.87 543.383 L1476.14 530.655 L1514.33 517.927 L1501.6 556.111  Z" fill="#000000" fill-rule="evenodd" fill-opacity="1"/>
<polyline clip-path="url(#clip161)" style="stroke:#000000; stroke-linecap:round; stroke-linejoin:round; stroke-width:4; stroke-opacity:1; fill:none" points="1488.87,543.383 1496.22,536.03 "/>
<circle clip-path="url(#clip161)" cx="1496.22" cy="536.03" r="1.8" fill="#000000" fill-rule="evenodd" fill-opacity="0" stroke="none"/>
<circle clip-path="url(#clip161)" cx="1514.33" cy="517.927" r="1.8" fill="#000000" fill-rule="evenodd" fill-opacity="0" stroke="none"/>
<circle clip-path="url(#clip161)" cx="1550.53" cy="490.772" r="1.8" fill="#000000" fill-rule="evenodd" fill-opacity="1" stroke="none"/>
<polyline clip-path="url(#clip161)" style="stroke:#000000; stroke-linecap:round; stroke-linejoin:round; stroke-width:4; stroke-opacity:1; fill:none" points="1514.33,517.927 1550.53,490.772 "/>
<path clip-path="url(#clip161)" d="M1521.73 512.372 L1510.93 497.972 L1550.53 490.772 L1532.53 526.772  Z" fill="#000000" fill-rule="evenodd" fill-opacity="1"/>
<polyline clip-path="url(#clip161)" style="stroke:#000000; stroke-linecap:round; stroke-linejoin:round; stroke-width:4; stroke-opacity:1; fill:none" points="1521.73,512.372 1514.33,517.927 "/>
<circle clip-path="url(#clip161)" cx="1514.33" cy="517.927" r="1.8" fill="#000000" fill-rule="evenodd" fill-opacity="0" stroke="none"/>
<circle clip-path="url(#clip161)" cx="1550.53" cy="490.772" r="1.8" fill="#000000" fill-rule="evenodd" fill-opacity="0" stroke="none"/>
<circle clip-path="url(#clip161)" cx="1568.64" cy="481.721" r="1.8" fill="#000000" fill-rule="evenodd" fill-opacity="1" stroke="none"/>
<polyline clip-path="url(#clip161)" style="stroke:#000000; stroke-linecap:round; stroke-linejoin:round; stroke-width:4; stroke-opacity:1; fill:none" points="1550.53,490.772 1568.64,481.721 "/>
<path clip-path="url(#clip161)" d="M1536.44 497.82 L1528.39 481.721 L1568.64 481.721 L1544.49 513.92  Z" fill="#000000" fill-rule="evenodd" fill-opacity="1"/>
<polyline clip-path="url(#clip161)" style="stroke:#000000; stroke-linecap:round; stroke-linejoin:round; stroke-width:4; stroke-opacity:1; fill:none" points="1536.44,497.82 1550.53,490.772 "/>
<circle clip-path="url(#clip161)" cx="1550.53" cy="490.772" r="1.8" fill="#000000" fill-rule="evenodd" fill-opacity="0" stroke="none"/>
<circle clip-path="url(#clip161)" cx="1568.64" cy="481.721" r="1.8" fill="#000000" fill-rule="evenodd" fill-opacity="0" stroke="none"/>
<circle clip-path="url(#clip161)" cx="1604.84" cy="454.566" r="1.8" fill="#000000" fill-rule="evenodd" fill-opacity="1" stroke="none"/>
<polyline clip-path="url(#clip161)" style="stroke:#000000; stroke-linecap:round; stroke-linejoin:round; stroke-width:4; stroke-opacity:1; fill:none" points="1568.64,481.721 1604.84,454.566 "/>
<path clip-path="url(#clip161)" d="M1576.04 476.166 L1565.24 461.766 L1604.84 454.566 L1586.84 490.566  Z" fill="#000000" fill-rule="evenodd" fill-opacity="1"/>
<polyline clip-path="url(#clip161)" style="stroke:#000000; stroke-linecap:round; stroke-linejoin:round; stroke-width:4; stroke-opacity:1; fill:none" points="1576.04,476.166 1568.64,481.721 "/>
<circle clip-path="url(#clip161)" cx="1568.64" cy="481.721" r="1.8" fill="#000000" fill-rule="evenodd" fill-opacity="0" stroke="none"/>
<circle clip-path="url(#clip161)" cx="1604.84" cy="454.566" r="1.8" fill="#000000" fill-rule="evenodd" fill-opacity="0" stroke="none"/>
<circle clip-path="url(#clip161)" cx="726.838" cy="1287.31" r="1.8" fill="#000000" fill-rule="evenodd" fill-opacity="1" stroke="none"/>
<path clip-path="url(#clip160)" d="M1974.24 250.738 L2279.06 250.738 L2279.06 95.2176 L1974.24 95.2176  Z" fill="#ffffff" fill-rule="evenodd" fill-opacity="1"/>
<polyline clip-path="url(#clip160)" style="stroke:#000000; stroke-linecap:round; stroke-linejoin:round; stroke-width:4; stroke-opacity:1; fill:none" points="1974.24,250.738 2279.06,250.738 2279.06,95.2176 1974.24,95.2176 1974.24,250.738 "/>
<path clip-path="url(#clip160)" d="M1998.81 167.794 L2146.2 167.794 L2146.2 126.322 L1998.81 126.322 L1998.81 167.794  Z" fill="#008000" fill-rule="evenodd" fill-opacity="0.8"/>
<polyline clip-path="url(#clip160)" style="stroke:#000000; stroke-linecap:round; stroke-linejoin:round; stroke-width:4; stroke-opacity:1; fill:none" points="1998.81,167.794 2146.2,167.794 2146.2,126.322 1998.81,126.322 1998.81,167.794 "/>
<path clip-path="url(#clip160)" d="M2184.61 166.745 Q2182.8 171.375 2181.09 172.787 Q2179.38 174.199 2176.51 174.199 L2173.11 174.199 L2173.11 170.634 L2175.61 170.634 Q2177.36 170.634 2178.34 169.8 Q2179.31 168.967 2180.49 165.865 L2181.25 163.921 L2170.77 138.412 L2175.28 138.412 L2183.38 158.689 L2191.48 138.412 L2196 138.412 L2184.61 166.745 Z" fill="#000000" fill-rule="nonzero" fill-opacity="1" /><path clip-path="url(#clip160)" d="M2216.65 145.703 Q2220 146.421 2221.88 148.689 Q2223.78 150.958 2223.78 154.291 Q2223.78 159.407 2220.26 162.208 Q2216.74 165.009 2210.26 165.009 Q2208.08 165.009 2205.77 164.569 Q2203.48 164.152 2201.02 163.296 L2201.02 158.782 Q2202.97 159.916 2205.28 160.495 Q2207.6 161.074 2210.12 161.074 Q2214.52 161.074 2216.81 159.338 Q2219.12 157.601 2219.12 154.291 Q2219.12 151.236 2216.97 149.523 Q2214.84 147.787 2211.02 147.787 L2206.99 147.787 L2206.99 143.944 L2211.21 143.944 Q2214.66 143.944 2216.48 142.578 Q2218.31 141.19 2218.31 138.597 Q2218.31 135.935 2216.42 134.523 Q2214.54 133.088 2211.02 133.088 Q2209.1 133.088 2206.9 133.504 Q2204.7 133.921 2202.06 134.801 L2202.06 130.634 Q2204.73 129.893 2207.04 129.523 Q2209.38 129.153 2211.44 129.153 Q2216.76 129.153 2219.86 131.583 Q2222.97 133.99 2222.97 138.111 Q2222.97 140.981 2221.32 142.972 Q2219.68 144.94 2216.65 145.703 Z" fill="#000000" fill-rule="nonzero" fill-opacity="1" /><path clip-path="url(#clip160)" d="M2231.46 129.778 L2253.68 129.778 L2253.68 131.768 L2241.14 164.338 L2236.25 164.338 L2248.06 133.713 L2231.46 133.713 L2231.46 129.778 Z" fill="#000000" fill-rule="nonzero" fill-opacity="1" /><path clip-path="url(#clip160)" d="M1998.81 219.634 L2146.2 219.634 L2146.2 178.162 L1998.81 178.162 L1998.81 219.634  Z" fill="#ff0000" fill-rule="evenodd" fill-opacity="0.8"/>
<polyline clip-path="url(#clip160)" style="stroke:#000000; stroke-linecap:round; stroke-linejoin:round; stroke-width:4; stroke-opacity:1; fill:none" points="1998.81,219.634 2146.2,219.634 2146.2,178.162 1998.81,178.162 1998.81,219.634 "/>
<path clip-path="url(#clip160)" d="M2184.61 218.585 Q2182.8 223.215 2181.09 224.627 Q2179.38 226.039 2176.51 226.039 L2173.11 226.039 L2173.11 222.474 L2175.61 222.474 Q2177.36 222.474 2178.34 221.64 Q2179.31 220.807 2180.49 217.705 L2181.25 215.761 L2170.77 190.252 L2175.28 190.252 L2183.38 210.529 L2191.48 190.252 L2196 190.252 L2184.61 218.585 Z" fill="#000000" fill-rule="nonzero" fill-opacity="1" /><path clip-path="url(#clip160)" d="M2216.65 197.543 Q2220 198.261 2221.88 200.529 Q2223.78 202.798 2223.78 206.131 Q2223.78 211.247 2220.26 214.048 Q2216.74 216.849 2210.26 216.849 Q2208.08 216.849 2205.77 216.409 Q2203.48 215.992 2201.02 215.136 L2201.02 210.622 Q2202.97 211.756 2205.28 212.335 Q2207.6 212.914 2210.12 212.914 Q2214.52 212.914 2216.81 211.178 Q2219.12 209.441 2219.12 206.131 Q2219.12 203.076 2216.97 201.363 Q2214.84 199.627 2211.02 199.627 L2206.99 199.627 L2206.99 195.784 L2211.21 195.784 Q2214.66 195.784 2216.48 194.418 Q2218.31 193.03 2218.31 190.437 Q2218.31 187.775 2216.42 186.363 Q2214.54 184.928 2211.02 184.928 Q2209.1 184.928 2206.9 185.344 Q2204.7 185.761 2202.06 186.641 L2202.06 182.474 Q2204.73 181.733 2207.04 181.363 Q2209.38 180.993 2211.44 180.993 Q2216.76 180.993 2219.86 183.423 Q2222.97 185.83 2222.97 189.951 Q2222.97 192.821 2221.32 194.812 Q2219.68 196.78 2216.65 197.543 Z" fill="#000000" fill-rule="nonzero" fill-opacity="1" /><path clip-path="url(#clip160)" d="M2242.64 199.766 Q2239.31 199.766 2237.39 201.548 Q2235.49 203.33 2235.49 206.455 Q2235.49 209.58 2237.39 211.363 Q2239.31 213.145 2242.64 213.145 Q2245.98 213.145 2247.9 211.363 Q2249.82 209.557 2249.82 206.455 Q2249.82 203.33 2247.9 201.548 Q2246 199.766 2242.64 199.766 M2237.97 197.775 Q2234.96 197.034 2233.27 194.974 Q2231.6 192.914 2231.6 189.951 Q2231.6 185.807 2234.54 183.4 Q2237.5 180.993 2242.64 180.993 Q2247.8 180.993 2250.74 183.4 Q2253.68 185.807 2253.68 189.951 Q2253.68 192.914 2251.99 194.974 Q2250.33 197.034 2247.34 197.775 Q2250.72 198.562 2252.6 200.854 Q2254.49 203.145 2254.49 206.455 Q2254.49 211.479 2251.41 214.164 Q2248.36 216.849 2242.64 216.849 Q2236.92 216.849 2233.85 214.164 Q2230.79 211.479 2230.79 206.455 Q2230.79 203.145 2232.69 200.854 Q2234.59 198.562 2237.97 197.775 M2236.25 190.391 Q2236.25 193.076 2237.92 194.58 Q2239.61 196.085 2242.64 196.085 Q2245.65 196.085 2247.34 194.58 Q2249.05 193.076 2249.05 190.391 Q2249.05 187.705 2247.34 186.201 Q2245.65 184.696 2242.64 184.696 Q2239.61 184.696 2237.92 186.201 Q2236.25 187.705 2236.25 190.391 Z" fill="#000000" fill-rule="nonzero" fill-opacity="1" /></svg>
